<?xml version="1.0" encoding="UTF-8" standalone="no"?>
<svg width="500" height="850" version="1.1" id="svg6" sodipodi:docname="kodito.svg" inkscape:version="1.4.3 (0d15f750, 2025-12-25)" xmlns:inkscape="http://www.inkscape.org/namespaces/inkscape" xmlns:sodipodi="http://sodipodi.sourceforge.net/DTD/sodipodi-0.dtd" xmlns="http://www.w3.org/2000/svg" xmlns:svg="http://www.w3.org/2000/svg">
    <defs id="defs6" />
    <sodipodi:namedview id="namedview6" pagecolor="#ffffff" bordercolor="#000000" borderopacity="0.25" inkscape:showpageshadow="2" inkscape:pageopacity="0.0" inkscape:pagecheckerboard="0" inkscape:deskcolor="#d1d1d1" inkscape:zoom="0.62588235" inkscape:cx="250.04699" inkscape:cy="425" inkscape:window-width="1440" inkscape:window-height="751" inkscape:window-x="0" inkscape:window-y="25" inkscape:window-maximized="0" inkscape:current-layer="svg6" />
    <path d="m -250,275 a 12.5,12.5 0 0 0 -12.5,12.5 12.5,12.5 0 0 0 12.5,12.5 12.5,12.5 0 0 0 12.5,-12.5 A 12.5,12.5 0 0 0 -250,275 Z m 0,25 a 12.5,12.5 0 0 0 -12.5,12.5 12.5,12.5 0 0 0 12.5,12.5 12.5,12.5 0 0 0 12.5,-12.5 A 12.5,12.5 0 0 0 -250,300 Z m 12.5,12.5 A 12.5,12.5 0 0 0 -225,325 12.5,12.5 0 0 0 -212.5,312.5 12.5,12.5 0 0 0 -225,300 12.5,12.5 0 0 0 -237.5,312.5 Z M -250,325 a 12.5,12.5 0 0 0 -12.5,12.5 12.5,12.5 0 0 0 12.5,12.5 12.5,12.5 0 0 0 12.5,-12.5 A 12.5,12.5 0 0 0 -250,325 Z m -12.5,-12.5 A 12.5,12.5 0 0 0 -275,300 a 12.5,12.5 0 0 0 -12.5,12.5 12.5,12.5 0 0 0 12.5,12.5 12.5,12.5 0 0 0 12.5,-12.5 z" id="path1" />
    <path d="m -250,500 a 12.5,12.5 0 0 0 -12.5,12.5 12.5,12.5 0 0 0 12.5,12.5 12.5,12.5 0 0 0 12.5,-12.5 A 12.5,12.5 0 0 0 -250,500 Z m 0,25 a 12.5,12.5 0 0 0 -12.5,12.5 12.5,12.5 0 0 0 12.5,12.5 12.5,12.5 0 0 0 12.5,-12.5 A 12.5,12.5 0 0 0 -250,525 Z m 12.5,12.5 A 12.5,12.5 0 0 0 -225,550 12.5,12.5 0 0 0 -212.5,537.5 12.5,12.5 0 0 0 -225,525 12.5,12.5 0 0 0 -237.5,537.5 Z M -250,550 a 12.5,12.5 0 0 0 -12.5,12.5 12.5,12.5 0 0 0 12.5,12.5 12.5,12.5 0 0 0 12.5,-12.5 A 12.5,12.5 0 0 0 -250,550 Z m -12.5,-12.5 A 12.5,12.5 0 0 0 -275,525 a 12.5,12.5 0 0 0 -12.5,12.5 12.5,12.5 0 0 0 12.5,12.5 12.5,12.5 0 0 0 12.5,-12.5 z" id="path2" />
</svg>
