<svg width="500" height="850" xmlns="http://www.w3.org/2000/svg">
    <path
        d="m -250,275 a 12.5,12.5 0 0 0 -12.5,12.5 12.5,12.5 0 0 0 12.5,12.5 12.5,12.5 0 0 0 12.5,-12.5 A 12.5,12.5 0 0 0 -250,275 Z m 0,25 a 12.5,12.5 0 0 0 -12.5,12.5 12.5,12.5 0 0 0 12.5,12.5 12.5,12.5 0 0 0 12.5,-12.5 A 12.5,12.5 0 0 0 -250,300 Z m 12.5,12.5 A 12.5,12.5 0 0 0 -225,325 12.5,12.5 0 0 0 -212.5,312.5 12.5,12.5 0 0 0 -225,300 12.5,12.5 0 0 0 -237.5,312.5 Z M -250,325 a 12.5,12.5 0 0 0 -12.5,12.5 12.5,12.5 0 0 0 12.5,12.5 12.5,12.5 0 0 0 12.5,-12.5 A 12.5,12.5 0 0 0 -250,325 Z m -12.5,-12.5 A 12.5,12.5 0 0 0 -275,300 a 12.5,12.5 0 0 0 -12.5,12.5 12.5,12.5 0 0 0 12.5,12.5 12.5,12.5 0 0 0 12.5,-12.5 z" />
    <path
        d="m -250,500 a 12.5,12.5 0 0 0 -12.5,12.5 12.5,12.5 0 0 0 12.5,12.5 12.5,12.5 0 0 0 12.5,-12.5 A 12.5,12.5 0 0 0 -250,500 Z m 0,25 a 12.5,12.5 0 0 0 -12.5,12.5 12.5,12.5 0 0 0 12.5,12.5 12.5,12.5 0 0 0 12.5,-12.5 A 12.5,12.5 0 0 0 -250,525 Z m 12.5,12.5 A 12.5,12.5 0 0 0 -225,550 12.5,12.5 0 0 0 -212.5,537.5 12.5,12.5 0 0 0 -225,525 12.5,12.5 0 0 0 -237.5,537.5 Z M -250,550 a 12.5,12.5 0 0 0 -12.5,12.5 12.5,12.5 0 0 0 12.5,12.5 12.5,12.5 0 0 0 12.5,-12.5 A 12.5,12.5 0 0 0 -250,550 Z m -12.5,-12.5 A 12.5,12.5 0 0 0 -275,525 a 12.5,12.5 0 0 0 -12.5,12.5 12.5,12.5 0 0 0 12.5,12.5 12.5,12.5 0 0 0 12.5,-12.5 z" />
</svg>