<svg width="500" height="850" xmlns="http://www.w3.org/2000/svg">
    <path
        d="M 108.57812 258.57812 A 25 25 0 0 0 90.900391 265.90039 A 25 25 0 0 0 90.900391 301.25586 L 214.64453 425 L 90.900391 548.74414 A 25 25 0 0 0 90.900391 584.09961 A 25 25 0 0 0 126.25586 584.09961 L 250 460.35547 L 373.74414 584.09961 A 25 25 0 0 0 409.09961 584.09961 A 25 25 0 0 0 409.09961 548.74414 L 285.35547 425 L 409.09961 301.25586 A 25 25 0 0 0 409.09961 265.90039 A 25 25 0 0 0 373.74414 265.90039 L 250 389.64453 L 126.25586 265.90039 A 25 25 0 0 0 108.57812 258.57812 z " />
</svg>