<svg width="500" height="850" xmlns="http://www.w3.org/2000/svg">
    <path
        d="m 150,300 -25,25 12.5,12.5 L 150,350 325,525 337.5,537.5 350,550 375,525 362.5,512.5 350,500 175,325 162.5,312.5 Z m 200,0 -12.5,12.5 L 325,325 150,500 137.5,512.5 125,525 150,550 162.5,537.5 175,525 350,350 362.5,337.5 375,325 Z M 50,400 25,425 50,450 h 400 l 25,-25 -25,-25 z m 200,-200 -25,25 -75,75 -12.5,12.5 -12.5,12.5 -75,75 -25,25 25,25 75,75 25,25 75,75 25,25 25,-25 75,-75 25,-25 75,-75 25,-25 L 362.5,312.5 275,225 Z m 0,50 75,75 25,25 75,75 L 325,525 250,600 75,425 150,350 162.5,337.5 175,325 Z m 0,50 -125,125 125,125 125,-125 z m 0,50 75,75 -75,75 -75,-75 z"
        style="stroke:#ff0000;fill:none" />
</svg>