<?xml version="1.0" encoding="UTF-8" standalone="no"?>
<svg width="500" height="850" version="1.1" id="svg2" sodipodi:docname="lozegw.svg" inkscape:version="1.4.3 (0d15f750, 2025-12-25)" xmlns:inkscape="http://www.inkscape.org/namespaces/inkscape" xmlns:sodipodi="http://sodipodi.sourceforge.net/DTD/sodipodi-0.dtd" xmlns="http://www.w3.org/2000/svg" xmlns:svg="http://www.w3.org/2000/svg">
    <defs id="defs2" />
    <sodipodi:namedview id="namedview2" pagecolor="#ffffff" bordercolor="#000000" borderopacity="0.25" inkscape:showpageshadow="2" inkscape:pageopacity="0.0" inkscape:pagecheckerboard="0" inkscape:deskcolor="#d1d1d1" inkscape:zoom="0.3484399" inkscape:cx="259.72915" inkscape:cy="424.75044" inkscape:window-width="1095" inkscape:window-height="723" inkscape:window-x="0" inkscape:window-y="25" inkscape:window-maximized="0" inkscape:current-layer="svg2" />
    <path id="path1" d="M 150 300 L 125 325 L 137.5 337.5 L 150 350 L 225 425 L 150 500 L 137.5 512.5 L 125 525 L 150 550 L 162.5 537.5 L 175 525 L 250 450 L 325 525 L 337.5 537.5 L 350 550 L 375 525 L 362.5 512.5 L 350 500 L 275 425 L 350 350 L 362.5 337.5 L 375 325 L 350 300 L 337.5 312.5 L 325 325 L 250 400 L 175 325 L 162.5 312.5 L 150 300 z " />
</svg>
