<svg width="400" height="700" xmlns="http://www.w3.org/2000/svg">
    <path style="fill:none;stroke:#ff0000"
        d="m 50,200 v 50 h 50 v -50 z m 50,50 v 50 h 50 v -50 z m 50,50 v 50 h 50 v -50 z m 50,50 v 50 h 50 v -50 z m 50,50 v 50 h 50 v -50 z m 0,-200 v 50 h 50 v -50 z m 0,50 h -50 v 50 h 50 z m -50,50 h -50 v 50 h 50 z m -50,50 h -50 v 50 h 50 z m -50,50 H 50 v 50 h 50 z M 0,300 v 50 H 350 V 300 Z M 100,150 v 50 h 150 v -50 z m 150,50 v 50 h 50 v -50 z m 50,50 v 150 h 50 V 250 Z m 0,150 h -50 v 50 h 50 z m -50,50 H 100 v 50 h 150 z m -150,0 V 400 H 50 v 50 z M 50,400 V 250 H 0 v 150 z m 0,-150 h 50 V 200 H 50 Z m 100,0 v 50 h 50 v -50 z m 50,50 v 50 h 50 v -50 z m 0,50 h -50 v 50 h 50 z m -50,0 v -50 h -50 v 50 z" />
</svg>