<?xml version="1.0" encoding="UTF-8" standalone="no"?>
<svg width="500" height="900" version="1.1" id="svg5" sodipodi:docname="piswpi.svg" inkscape:version="1.4.3 (0d15f750, 2025-12-25)" xmlns:inkscape="http://www.inkscape.org/namespaces/inkscape" xmlns:sodipodi="http://sodipodi.sourceforge.net/DTD/sodipodi-0.dtd" xmlns="http://www.w3.org/2000/svg" xmlns:svg="http://www.w3.org/2000/svg">
    <defs id="defs5" />
    <sodipodi:namedview id="namedview5" pagecolor="#ffffff" bordercolor="#000000" borderopacity="0.25" inkscape:showpageshadow="2" inkscape:pageopacity="0.0" inkscape:pagecheckerboard="0" inkscape:deskcolor="#d1d1d1" inkscape:zoom="0.32908213" inkscape:cx="243.10041" inkscape:cy="449.73576" inkscape:window-width="1095" inkscape:window-height="723" inkscape:window-x="0" inkscape:window-y="25" inkscape:window-maximized="0" inkscape:current-layer="svg5" />
    <path id="path5" d="m 90.900391,290.90039 c -9.763195,9.76312 -9.763195,25.59235 0,35.35547 L 373.74414,609.09961 c 9.76312,9.76319 25.59235,9.76319 35.35547,0 9.76319,-9.76312 9.76319,-25.59235 0,-35.35547 L 126.25586,290.90039 c -9.98917,-9.98944 -25.87017,-9.48569 -35.355469,0 z m 282.843749,0 -282.843749,282.84375 c -9.76319,9.76312 -9.76319,25.59235 0,35.35547 9.763119,9.76319 25.592349,9.76319 35.355469,0 L 409.09961,326.25586 c 9.76319,-9.76312 9.76319,-25.59235 0,-35.35547 -9.46114,-9.46152 -25.36444,-9.99129 -35.35547,0 z M 50,425 a 25,25 0 0 0 -25,25 25,25 0 0 0 25,25 h 400 a 25,25 0 0 0 25,-25 25,25 0 0 0 -25,-25 z M 250,200 a 50,50 0 0 0 -50,50 50,50 0 0 0 50,50 50,50 0 0 0 50,-50 50,50 0 0 0 -50,-50 z m -141.42188,58.57812 a 50,50 0 0 0 -49.999995,50 50,50 0 0 0 49.999995,50 50,50 0 0 0 50,-50 50,50 0 0 0 -50,-50 z m 282.84376,0 a 50,50 0 0 0 -50,50 50,50 0 0 0 50,50 50,50 0 0 0 50,-50 50,50 0 0 0 -50,-50 z M 50,400 a 50,50 0 0 0 -50,50 50,50 0 0 0 50,50 50,50 0 0 0 50,-50 50,50 0 0 0 -50,-50 z m 400,0 a 50,50 0 0 0 -50,50 50,50 0 0 0 50,50 50,50 0 0 0 50,-50 50,50 0 0 0 -50,-50 z M 108.57812,541.42188 a 50,50 0 0 0 -49.999995,50 50,50 0 0 0 49.999995,50 50,50 0 0 0 50,-50 50,50 0 0 0 -50,-50 z m 282.84376,0 a 50,50 0 0 0 -50,50 50,50 0 0 0 50,50 50,50 0 0 0 50,-50 50,50 0 0 0 -50,-50 z M 250,600 a 50,50 0 0 0 -50,50 50,50 0 0 0 50,50 50,50 0 0 0 50,-50 50,50 0 0 0 -50,-50 z m 0,-275 a 25,25 0 0 0 -25,25 25,25 0 0 0 25,25 25,25 0 0 0 25,-25 25,25 0 0 0 -25,-25 z m -70.71094,29.28906 a 25,25 0 0 0 -25,25 25,25 0 0 0 25,25 25,25 0 0 0 25,-25 25,25 0 0 0 -25,-25 z m 141.42188,0 a 25,25 0 0 0 -25,25 25,25 0 0 0 25,25 25,25 0 0 0 25,-25 25,25 0 0 0 -25,-25 z M 150,425 a 25,25 0 0 0 -25,25 25,25 0 0 0 25,25 25,25 0 0 0 25,-25 25,25 0 0 0 -25,-25 z m 200,0 a 25,25 0 0 0 -25,25 25,25 0 0 0 25,25 25,25 0 0 0 25,-25 25,25 0 0 0 -25,-25 z m -170.71094,70.71094 a 25,25 0 0 0 -25,25 25,25 0 0 0 25,25 25,25 0 0 0 25,-25 25,25 0 0 0 -25,-25 z m 141.42188,0 a 25,25 0 0 0 -25,25 25,25 0 0 0 25,25 25,25 0 0 0 25,-25 25,25 0 0 0 -25,-25 z M 250,525 a 25,25 0 0 0 -25,25 25,25 0 0 0 25,25 25,25 0 0 0 25,-25 25,25 0 0 0 -25,-25 z" style="stroke:#ff0000;fill:none" />
</svg>
