<svg width="500" height="900" xmlns="http://www.w3.org/2000/svg">
    <path
        d="M 108.38867 283.59766 C 101.98411 283.66062 95.64304 286.15755 90.900391 290.90039 C 81.137196 300.66351 81.137196 316.49274 90.900391 326.25586 L 214.64453 450 L 90.900391 573.74414 C 81.137201 583.50726 81.137201 599.33649 90.900391 609.09961 C 100.66351 618.8628 116.49274 618.8628 126.25586 609.09961 L 250 485.35547 L 373.74414 609.09961 C 383.50726 618.8628 399.33649 618.8628 409.09961 609.09961 C 418.8628 599.33649 418.8628 583.50726 409.09961 573.74414 L 285.35547 450 L 409.09961 326.25586 C 418.8628 316.49274 418.8628 300.66351 409.09961 290.90039 C 399.63847 281.43887 383.73517 280.9091 373.74414 290.90039 L 250 414.64453 L 126.25586 290.90039 C 121.26127 285.90567 114.79323 283.53469 108.38867 283.59766 z " />
</svg>