<?xml version="1.0" encoding="UTF-8" standalone="no"?>
<svg width="500" height="900" version="1.1" id="svg2" sodipodi:docname="piswpi.svg" inkscape:version="1.4.3 (0d15f750, 2025-12-25)" xmlns:inkscape="http://www.inkscape.org/namespaces/inkscape" xmlns:sodipodi="http://sodipodi.sourceforge.net/DTD/sodipodi-0.dtd" xmlns="http://www.w3.org/2000/svg" xmlns:svg="http://www.w3.org/2000/svg">
    <defs id="defs2" />
    <sodipodi:namedview id="namedview2" pagecolor="#ffffff" bordercolor="#000000" borderopacity="0.25" inkscape:showpageshadow="2" inkscape:pageopacity="0.0" inkscape:pagecheckerboard="0" inkscape:deskcolor="#d1d1d1" inkscape:zoom="0.32908213" inkscape:cx="241.58103" inkscape:cy="449.73576" inkscape:window-width="1095" inkscape:window-height="723" inkscape:window-x="0" inkscape:window-y="25" inkscape:window-maximized="0" inkscape:current-layer="svg2" />
    <path id="path1" d="M 108.38867 283.59766 C 101.98411 283.66062 95.64304 286.15755 90.900391 290.90039 C 81.137196 300.66351 81.137196 316.49274 90.900391 326.25586 L 214.64453 450 L 90.900391 573.74414 C 81.137201 583.50726 81.137201 599.33649 90.900391 609.09961 C 100.66351 618.8628 116.49274 618.8628 126.25586 609.09961 L 250 485.35547 L 373.74414 609.09961 C 383.50726 618.8628 399.33649 618.8628 409.09961 609.09961 C 418.8628 599.33649 418.8628 583.50726 409.09961 573.74414 L 285.35547 450 L 409.09961 326.25586 C 418.8628 316.49274 418.8628 300.66351 409.09961 290.90039 C 399.63847 281.43887 383.73517 280.9091 373.74414 290.90039 L 250 414.64453 L 126.25586 290.90039 C 121.26127 285.90567 114.79323 283.53469 108.38867 283.59766 z " />
</svg>
