<?xml version="1.0" encoding="UTF-8" standalone="no"?>
<svg width="500" height="850" version="1.1" id="svg5" sodipodi:docname="polwgo.svg" inkscape:version="1.4.3 (0d15f750, 2025-12-25)" xmlns:inkscape="http://www.inkscape.org/namespaces/inkscape" xmlns:sodipodi="http://sodipodi.sourceforge.net/DTD/sodipodi-0.dtd" xmlns="http://www.w3.org/2000/svg" xmlns:svg="http://www.w3.org/2000/svg">
    <defs id="defs5" />
    <sodipodi:namedview id="namedview5" pagecolor="#ffffff" bordercolor="#000000" borderopacity="0.25" inkscape:showpageshadow="2" inkscape:pageopacity="0.0" inkscape:pagecheckerboard="0" inkscape:deskcolor="#d1d1d1" inkscape:zoom="0.59294118" inkscape:cx="249.60317" inkscape:cy="425" inkscape:window-width="1095" inkscape:window-height="723" inkscape:window-x="0" inkscape:window-y="25" inkscape:window-maximized="0" inkscape:current-layer="svg5" />
    <path id="path5" style="fill:none;stroke:#ff0000" d="m 25,200 v 50 l 100,100 100,100 100,100 100,100 h 50 V 600 L 375,500 275,400 175,300 75,200 Z M 425,200 325,300 225,400 125,500 25,600 v 50 H 75 L 175,550 275,450 375,350 475,250 V 200 Z M 25,400 h 450 v 50 H 25 Z M 125,200 25,300 v 50 200 L 125,650 H 375 L 475,550 V 500 350 300 L 375,200 h -50 z m 50,50 H 325 L 425,350 V 500 L 325,600 H 175 L 75,500 V 350 Z m -50,50 v 50 150 50 h 200 50 V 500 350 300 H 175 Z m 50,50 H 325 V 500 H 175 Z" />
</svg>
