<svg width="500" height="850" xmlns="http://www.w3.org/2000/svg">
    <path
        d="M -250,75 A 12.5,12.5 0 0 0 -262.5,87.5 12.5,12.5 0 0 0 -250,100 12.5,12.5 0 0 0 -237.5,87.5 12.5,12.5 0 0 0 -250,75 Z m 0,25 a 12.5,12.5 0 0 0 -12.5,12.5 12.5,12.5 0 0 0 12.5,12.5 12.5,12.5 0 0 0 12.5,-12.5 A 12.5,12.5 0 0 0 -250,100 Z m 12.5,12.5 A 12.5,12.5 0 0 0 -225,125 12.5,12.5 0 0 0 -212.5,112.5 12.5,12.5 0 0 0 -225,100 12.5,12.5 0 0 0 -237.5,112.5 Z M -250,125 a 12.5,12.5 0 0 0 -12.5,12.5 12.5,12.5 0 0 0 12.5,12.5 12.5,12.5 0 0 0 12.5,-12.5 A 12.5,12.5 0 0 0 -250,125 Z m -12.5,-12.5 A 12.5,12.5 0 0 0 -275,100 a 12.5,12.5 0 0 0 -12.5,12.5 12.5,12.5 0 0 0 12.5,12.5 12.5,12.5 0 0 0 12.5,-12.5 z" />
    <path
        d="m -250,700 a 12.5,12.5 0 0 0 -12.5,12.5 12.5,12.5 0 0 0 12.5,12.5 12.5,12.5 0 0 0 12.5,-12.5 A 12.5,12.5 0 0 0 -250,700 Z m 0,25 a 12.5,12.5 0 0 0 -12.5,12.5 12.5,12.5 0 0 0 12.5,12.5 12.5,12.5 0 0 0 12.5,-12.5 A 12.5,12.5 0 0 0 -250,725 Z m 12.5,12.5 A 12.5,12.5 0 0 0 -225,750 12.5,12.5 0 0 0 -212.5,737.5 12.5,12.5 0 0 0 -225,725 12.5,12.5 0 0 0 -237.5,737.5 Z M -250,750 a 12.5,12.5 0 0 0 -12.5,12.5 12.5,12.5 0 0 0 12.5,12.5 12.5,12.5 0 0 0 12.5,-12.5 A 12.5,12.5 0 0 0 -250,750 Z m -12.5,-12.5 A 12.5,12.5 0 0 0 -275,725 a 12.5,12.5 0 0 0 -12.5,12.5 12.5,12.5 0 0 0 12.5,12.5 12.5,12.5 0 0 0 12.5,-12.5 z" />
</svg>