<?xml version="1.0" encoding="UTF-8" standalone="no"?>
<svg width="500" height="650" version="1.1" id="svg5" sodipodi:docname="sulive.svg" inkscape:version="1.4.3 (0d15f750, 2025-12-25)" xmlns:inkscape="http://www.inkscape.org/namespaces/inkscape" xmlns:sodipodi="http://sodipodi.sourceforge.net/DTD/sodipodi-0.dtd" xmlns="http://www.w3.org/2000/svg" xmlns:svg="http://www.w3.org/2000/svg">
    <defs id="defs5" />
    <sodipodi:namedview id="namedview5" pagecolor="#ffffff" bordercolor="#000000" borderopacity="0.25" inkscape:showpageshadow="2" inkscape:pageopacity="0.0" inkscape:pagecheckerboard="0" inkscape:deskcolor="#d1d1d1" inkscape:zoom="0.7022735" inkscape:cx="193.65674" inkscape:cy="203.62437" inkscape:window-width="1095" inkscape:window-height="723" inkscape:window-x="0" inkscape:window-y="25" inkscape:window-maximized="0" inkscape:current-layer="svg5" />
    <path id="path5" d="m 50,100 a 25,25 0 0 0 -6.470703,0.85156 25,25 0 0 0 -11.207031,6.47071 25,25 0 0 0 0,35.35546 l 400.000004,400 a 25,25 0 0 0 35.35546,0 25,25 0 0 0 0,-35.35546 l -399.999996,-400 A 25,25 0 0 0 50,100 Z m 400,0 a 25,25 0 0 0 -17.67773,7.32227 l -400.000004,400 a 25,25 0 0 0 0,35.35546 25,25 0 0 0 35.355468,0 l 399.999996,-400 a 25,25 0 0 0 0,-35.35546 A 25,25 0 0 0 456.4707,100.85156 25,25 0 0 0 450,100 Z M 50,300 v 0.38 A 25,25 0 0 0 25,325 25,25 0 0 0 50,349.62 V 350 h 400 v -0.38 A 25,25 0 0 0 475,325 25,25 0 0 0 450,300.38 V 300 Z M 150,100 A 125,125 0 0 0 25,225 V 425 A 125,125 0 0 0 150,550 H 350 A 125,125 0 0 0 475,425 V 225 A 125,125 0 0 0 350,100 Z m 0,50 h 200 a 75,75 0 0 1 75,75 v 200 a 75,75 0 0 1 -75,75 H 150 A 75,75 0 0 1 75,425 V 225 a 75,75 0 0 1 75,-75 z m 100,50 A 125,125 0 0 0 125,325 125,125 0 0 0 250,450 125,125 0 0 0 375,325 125,125 0 0 0 250,200 Z m 0,50 a 75,75 0 0 1 75,75 75,75 0 0 1 -75,75 75,75 0 0 1 -75,-75 75,75 0 0 1 75,-75 z" style="fill:none;stroke:#ff0000" />
</svg>
