<svg width="500" height="650" xmlns="http://www.w3.org/2000/svg">
    <path
        d="m 50,100 a 25,25 0 0 0 -6.470703,0.85156 25,25 0 0 0 -11.207031,6.47071 25,25 0 0 0 0,35.35546 l 400.000004,400 a 25,25 0 0 0 35.35546,0 25,25 0 0 0 0,-35.35546 l -399.999996,-400 A 25,25 0 0 0 50,100 Z m 400,0 a 25,25 0 0 0 -17.67773,7.32227 l -400.000004,400 a 25,25 0 0 0 0,35.35546 25,25 0 0 0 35.355468,0 l 399.999996,-400 a 25,25 0 0 0 0,-35.35546 A 25,25 0 0 0 456.4707,100.85156 25,25 0 0 0 450,100 Z M 50,300 v 0.38 A 25,25 0 0 0 25,325 25,25 0 0 0 50,349.62 V 350 h 400 v -0.38 A 25,25 0 0 0 475,325 25,25 0 0 0 450,300.38 V 300 Z M 150,100 A 125,125 0 0 0 25,225 V 425 A 125,125 0 0 0 150,550 H 350 A 125,125 0 0 0 475,425 V 225 A 125,125 0 0 0 350,100 Z m 0,50 h 200 a 75,75 0 0 1 75,75 v 200 a 75,75 0 0 1 -75,75 H 150 A 75,75 0 0 1 75,425 V 225 a 75,75 0 0 1 75,-75 z m 100,50 A 125,125 0 0 0 125,325 125,125 0 0 0 250,450 125,125 0 0 0 375,325 125,125 0 0 0 250,200 Z m 0,50 a 75,75 0 0 1 75,75 75,75 0 0 1 -75,75 75,75 0 0 1 -75,-75 75,75 0 0 1 75,-75 z"
        style="fill:none;stroke:#ff0000" />
</svg>