<svg width="500" height="850" xmlns="http://www.w3.org/2000/svg">
    <path
        d="m 128.91,271.245 -19.134,0.002 -13.529,13.529 -0.001,19.135 274.843,274.844 19.136,-0.002 13.528,-13.529 0.001,-19.135 z m 274.845,32.665 -0.002,-19.134 -13.529,-13.529 -19.135,-0.001 -274.844,274.843 0.002,19.136 13.529,13.528 19.135,10e-4 z M 55.65625,401.90234 42.126953,415.43359 v 19.13282 L 55.65625,448.09766 H 444.3457 l 13.52735,-13.53125 v -19.13282 l -13.5293,-13.53125 z M 163.89648,217.12695 v 0.002 L 55.65625,325.36719 42.126953,338.89648 v 0.002 19.13281 133.93945 19.13282 L 55.65625,524.63281 163.89648,632.87305 H 336.10352 L 444.3457,524.63281 457.87305,511.10352 h 0.002 V 491.9707 l -0.002,-0.002 v -133.9375 l 0.002,-0.002 -0.002,-19.13282 -13.5293,-13.52929 -108.24023,-108.23828 v -0.002 z m 19.13477,46.19532 H 316.9707 l 94.70899,94.70703 v 0.002 133.93945 L 316.9707,586.67969 H 183.0293 L 88.320312,491.9707 v -133.93945 -0.002 z m 19.13281,46.19335 -67.64844,67.64844 v 95.67188 l 67.64844,67.64844 h 95.67188 l 67.64844,-67.64844 v -95.67188 l -67.64844,-67.64844 z m 19.13672,46.19336 h 57.39844 v 0.002 l 40.58984,40.58984 v 57.39844 l -40.58984,40.58984 h -57.39844 l -40.58984,-40.58984 v -57.40039 z"
        style="fill:none;stroke:#ff0000" />
</svg>