<svg width="500" height="850" xmlns="http://www.w3.org/2000/svg">
    <path d="m -250,125 -10.82617,6.25 v 12.5 L -250,150 l 10.82617,-6.25 v -12.5 z" />
    <path d="m -250,100 -10.82617,6.25 v 12.5 L -250,125 l 10.82617,-6.25 v -12.5 z" />
    <path d="m -250,75 -10.82617,6.25 v 12.5 L -250,100 l 10.82617,-6.25 v -12.5 z" />
    <path d="m -250,750 -10.82617,6.25 v 12.5 L -250,775 l 10.82617,-6.25 v -12.5 z" />
    <path d="m -250,725 -10.82617,6.25 v 12.5 L -250,750 l 10.82617,-6.25 v -12.5 z" />
    <path d="m -250,700 -10.82617,6.25 v 12.5 L -250,725 l 10.82617,-6.25 v -12.5 z" />
    <path d="m -271.65,712.50046 -10.82617,6.25 v 12.5 l 10.82617,6.25 10.82617,-6.25 v -12.5 z" id="path10" />
    <path d="m -271.65,737.5 -10.82617,6.25 v 12.5 l 10.82617,6.25 10.82617,-6.25 v -12.5 z" id="path10-5" />
    <path d="m -271.65,725 -10.82617,6.25 v 12.5 l 10.82617,6.25 10.82617,-6.25 v -12.5 z" id="path10-5-4" />
    <path d="m -228.35,712.50092 -10.82617,6.25 v 12.5 l 10.82617,6.25 10.82617,-6.25 v -12.5 z" id="path11" />
    <path d="m -228.35,737.50046 -10.82617,6.25 v 12.5 l 10.82617,6.25 10.82617,-6.25 v -12.5 z" id="path12" />
    <path d="m -228.35,725.00046 -10.82617,6.25 v 12.5 l 10.82617,6.25 10.82617,-6.25 v -12.5 z" id="path13" />
    <path d="m -271.65,87.499998 -10.82617,6.25 V 106.25 l 10.82617,6.25 10.82617,-6.25 V 93.749998 Z" id="path14" />
    <path d="m -271.65,112.49954 -10.82617,6.25 v 12.5 l 10.82617,6.25 10.82617,-6.25 v -12.5 z" id="path15" />
    <path d="m -271.65,99.999538 -10.82617,6.250002 v 12.5 l 10.82617,6.25 10.82617,-6.25 v -12.5 z" id="path16" />
    <path d="m -228.35,87.499538 -10.82617,6.25 v 12.500002 l 10.82617,6.25 10.82617,-6.25 V 93.749538 Z" id="path17" />
    <path d="m -228.35,112.49908 -10.82617,6.25 v 12.5 l 10.82617,6.25 10.82617,-6.25 v -12.5 z" id="path18" />
    <path d="m -228.35,99.999078 -10.82617,6.250002 v 12.5 l 10.82617,6.25 10.82617,-6.25 v -12.5 z" id="path19" />
</svg>