<?xml version="1.0" encoding="UTF-8" standalone="no"?>
<svg width="500" height="850" version="1.1" id="svg5" sodipodi:docname="xesada.svg" inkscape:version="1.4.3 (0d15f750, 2025-12-25)" xmlns:inkscape="http://www.inkscape.org/namespaces/inkscape" xmlns:sodipodi="http://sodipodi.sourceforge.net/DTD/sodipodi-0.dtd" xmlns="http://www.w3.org/2000/svg" xmlns:svg="http://www.w3.org/2000/svg">
    <defs id="defs5" />
    <sodipodi:namedview id="namedview5" pagecolor="#ffffff" bordercolor="#000000" borderopacity="0.25" inkscape:showpageshadow="2" inkscape:pageopacity="0.0" inkscape:pagecheckerboard="0" inkscape:deskcolor="#d1d1d1" inkscape:zoom="0.59294118" inkscape:cx="249.60317" inkscape:cy="425" inkscape:window-width="1095" inkscape:window-height="723" inkscape:window-x="0" inkscape:window-y="25" inkscape:window-maximized="0" inkscape:current-layer="svg5" />
    <path id="path5" style="fill:none;stroke:#ff0000" d="m 76.795,300 -21.65,12.5 v 25 l 368.059,212.5 21.65,-12.5 v -25 z m 346.41,0 21.65,12.5 v 25 L 76.796,550 55.146,537.5 v -25 z M 76.794922,400 55.144531,412.5 v 25 L 76.794922,450 H 423.20508 l 21.65039,-12.5 v -25 L 423.20508,400 Z M 250,200 76.795,300 55.145,312.5 v 225 L 76.795,550 250,650 423.205,550 l 21.65,-12.5 v -225 L 423.205,300 Z m 0,50 151.555,87.5 v 175 L 250,600 98.445,512.5 v -175 z m 0,50 -108.254,62.5 v 125 L 250,550 358.254,487.5 v -125 z m 0,50 64.951,37.5 v 75 L 250,500 185.049,462.5 v -75 z" />
</svg>
