<?xml version="1.0" encoding="UTF-8" standalone="no"?>
<svg width="500" height="850" version="1.1" id="svg5" sodipodi:docname="xesada.svg" inkscape:version="1.4.3 (0d15f750, 2025-12-25)" xmlns:inkscape="http://www.inkscape.org/namespaces/inkscape" xmlns:sodipodi="http://sodipodi.sourceforge.net/DTD/sodipodi-0.dtd" xmlns="http://www.w3.org/2000/svg" xmlns:svg="http://www.w3.org/2000/svg">
    <defs id="defs5" />
    <sodipodi:namedview id="namedview5" pagecolor="#ffffff" bordercolor="#000000" borderopacity="0.25" inkscape:showpageshadow="2" inkscape:pageopacity="0.0" inkscape:pagecheckerboard="0" inkscape:deskcolor="#d1d1d1" inkscape:zoom="0.59294118" inkscape:cx="249.60317" inkscape:cy="425" inkscape:window-width="1095" inkscape:window-height="723" inkscape:window-x="0" inkscape:window-y="25" inkscape:window-maximized="0" inkscape:current-layer="svg5" />
    <path d="m250 300-108.254 62.5v125L250 550l108.254-62.5v-125zm0 50 64.951 37.5v75L250 500l-64.951-37.5v-75z" id="path1" style="fill:none;stroke:#ff0000" />
    <path d="M250 200 76.795 300l-21.65 12.5v225l21.65 12.5L250 650l173.205-100 21.65-12.5v-225l-21.65-12.5zm0 50 151.555 87.5v175L250 600 98.445 512.5v-175z" id="path2" style="fill:none;stroke:#ff0000" />
    <path d="m 76.794922,400 -21.650391,12.5 v 25 L 76.794922,450 H 423.20508 l 21.65039,-12.5 v -25 L 423.20508,400 Z" id="path3" style="fill:none;stroke:#ff0000" />
    <path d="m423.205 300 21.65 12.5v25L76.796 550l-21.65-12.5v-25z" id="path4" style="fill:none;stroke:#ff0000" />
    <path d="m76.795 300-21.65 12.5v25L423.204 550l21.65-12.5v-25z" id="path5" style="fill:none;stroke:#ff0000" />
</svg>
