<svg width="500" height="850" xmlns="http://www.w3.org/2000/svg">
    <path d="m250 300-108.254 62.5v125L250 550l108.254-62.5v-125zm0 50 64.951 37.5v75L250 500l-64.951-37.5v-75z" />
    <path
        d="M250 200 76.795 300l-21.65 12.5v225l21.65 12.5L250 650l173.205-100 21.65-12.5v-225l-21.65-12.5zm0 50 151.555 87.5v175L250 600 98.445 512.5v-175z" />
    <path
        d="m 76.794922,400 -21.650391,12.5 v 25 L 76.794922,450 H 423.20508 l 21.65039,-12.5 v -25 L 423.20508,400 Z" />
    <path d="m423.205 300 21.65 12.5v25L76.796 550l-21.65-12.5v-25z" />
    <path d="m76.795 300-21.65 12.5v25L423.204 550l21.65-12.5v-25z" />
</svg>