<?xml version="1.0" encoding="UTF-8" standalone="no"?>
<svg width="500" height="850" version="1.1" id="svg6" sodipodi:docname="xesada.svg" inkscape:version="1.4.3 (0d15f750, 2025-12-25)" xmlns:inkscape="http://www.inkscape.org/namespaces/inkscape" xmlns:sodipodi="http://sodipodi.sourceforge.net/DTD/sodipodi-0.dtd" xmlns="http://www.w3.org/2000/svg" xmlns:svg="http://www.w3.org/2000/svg">
    <defs id="defs6" />
    <sodipodi:namedview id="namedview6" pagecolor="#ffffff" bordercolor="#000000" borderopacity="0.25" inkscape:showpageshadow="2" inkscape:pageopacity="0.0" inkscape:pagecheckerboard="0" inkscape:deskcolor="#d1d1d1" inkscape:zoom="0.56" inkscape:cx="249.10714" inkscape:cy="425" inkscape:window-width="1440" inkscape:window-height="695" inkscape:window-x="0" inkscape:window-y="25" inkscape:window-maximized="0" inkscape:current-layer="svg6" />
    <path d="m -250,125 -10.82617,6.25 v 12.5 L -250,150 l 10.82617,-6.25 v -12.5 z" id="path4" />
    <path d="m -250,100 -10.82617,6.25 v 12.5 L -250,125 l 10.82617,-6.25 v -12.5 z" id="path3" />
    <path d="m -250,75 -10.82617,6.25 v 12.5 L -250,100 l 10.82617,-6.25 v -12.5 z" id="path1" />
    <path d="m -250,750 -10.82617,6.25 v 12.5 L -250,775 l 10.82617,-6.25 v -12.5 z" id="path8" />
    <path d="m -250,725 -10.82617,6.25 v 12.5 L -250,750 l 10.82617,-6.25 v -12.5 z" id="path6" />
    <path d="m -250,700 -10.82617,6.25 v 12.5 L -250,725 l 10.82617,-6.25 v -12.5 z" id="path2" />
    <path d="m -271.65,712.50046 -10.82617,6.25 v 12.5 l 10.82617,6.25 10.82617,-6.25 v -12.5 z" id="path10" />
    <path d="m -271.65,737.5 -10.82617,6.25 v 12.5 l 10.82617,6.25 10.82617,-6.25 v -12.5 z" id="path10-5" />
    <path d="m -271.65,725 -10.82617,6.25 v 12.5 l 10.82617,6.25 10.82617,-6.25 v -12.5 z" id="path10-5-4" />
    <path d="m -228.35,712.50092 -10.82617,6.25 v 12.5 l 10.82617,6.25 10.82617,-6.25 v -12.5 z" id="path11" />
    <path d="m -228.35,737.50046 -10.82617,6.25 v 12.5 l 10.82617,6.25 10.82617,-6.25 v -12.5 z" id="path12" />
    <path d="m -228.35,725.00046 -10.82617,6.25 v 12.5 l 10.82617,6.25 10.82617,-6.25 v -12.5 z" id="path13" />
    <path d="m -271.65,87.499998 -10.82617,6.25 V 106.25 l 10.82617,6.25 10.82617,-6.25 V 93.749998 Z" id="path14" />
    <path d="m -271.65,112.49954 -10.82617,6.25 v 12.5 l 10.82617,6.25 10.82617,-6.25 v -12.5 z" id="path15" />
    <path d="m -271.65,99.999538 -10.82617,6.250002 v 12.5 l 10.82617,6.25 10.82617,-6.25 v -12.5 z" id="path16" />
    <path d="m -228.35,87.499538 -10.82617,6.25 v 12.500002 l 10.82617,6.25 10.82617,-6.25 V 93.749538 Z" id="path17" />
    <path d="m -228.35,112.49908 -10.82617,6.25 v 12.5 l 10.82617,6.25 10.82617,-6.25 v -12.5 z" id="path18" />
    <path d="m -228.35,99.999078 -10.82617,6.250002 v 12.5 l 10.82617,6.25 10.82617,-6.25 v -12.5 z" id="path19" />
</svg>
