<svg width="500" height="850" xmlns="http://www.w3.org/2000/svg">
    <path style="fill:none;stroke:#ff0000"
        d="m 76.795,300 -21.65,12.5 v 25 l 368.059,212.5 21.65,-12.5 v -25 z m 346.41,0 21.65,12.5 v 25 L 76.796,550 55.146,537.5 v -25 z M 76.794922,400 55.144531,412.5 v 25 L 76.794922,450 H 423.20508 l 21.65039,-12.5 v -25 L 423.20508,400 Z M 250,200 76.795,300 55.145,312.5 v 225 L 76.795,550 250,650 423.205,550 l 21.65,-12.5 v -225 L 423.205,300 Z m 0,50 151.555,87.5 v 175 L 250,600 98.445,512.5 v -175 z m 0,50 -108.254,62.5 v 125 L 250,550 358.254,487.5 v -125 z m 0,50 64.951,37.5 v 75 L 250,500 185.049,462.5 v -75 z" />
</svg>