<?xml version="1.0" encoding="UTF-8" standalone="no"?>
<svg width="500" height="850" version="1.1" id="svg6" sodipodi:docname="xidili.svg" inkscape:version="1.4.3 (0d15f750, 2025-12-25)" xmlns:inkscape="http://www.inkscape.org/namespaces/inkscape" xmlns:sodipodi="http://sodipodi.sourceforge.net/DTD/sodipodi-0.dtd" xmlns="http://www.w3.org/2000/svg" xmlns:svg="http://www.w3.org/2000/svg">
    <defs id="defs6" />
    <sodipodi:namedview id="namedview6" pagecolor="#ffffff" bordercolor="#000000" borderopacity="0.25" inkscape:showpageshadow="2" inkscape:pageopacity="0.0" inkscape:pagecheckerboard="0" inkscape:deskcolor="#d1d1d1" inkscape:zoom="0.57305272" inkscape:cx="131.75053" inkscape:cy="380.41875" inkscape:window-width="1440" inkscape:window-height="723" inkscape:window-x="0" inkscape:window-y="25" inkscape:window-maximized="0" inkscape:current-layer="svg6" />
    <path d="m -250,75 -8.83789,3.662109 L -262.5,87.5 -258.83789,96.33789 -250,100 -241.16211,96.33789 -237.5,87.5 l -3.66211,-8.837891 z m 0,25 -8.83789,3.66211 -3.66211,8.83789 3.66211,8.83789 L -250,125 l 8.83789,-3.66211 3.66211,-8.83789 -3.66211,-8.83789 z m 12.5,12.5 3.66211,8.83789 L -225,125 -216.16211,121.33789 -212.5,112.5 -216.16211,103.66211 -225,100 l -8.83789,3.66211 z m -12.5,12.5 -8.83789,3.66211 -3.66211,8.83789 3.66211,8.83789 L -250,150 l 8.83789,-3.66211 3.66211,-8.83789 -3.66211,-8.83789 z m -12.5,-12.5 -3.66211,-8.83789 L -275,100 l -8.83789,3.66211 -3.66211,8.83789 3.66211,8.83789 L -275,125 l 8.83789,-3.66211 z" id="path1" />
    <path d="m -250,700 -8.83789,3.66211 -3.66211,8.83789 3.66211,8.83789 L -250,725 l 8.83789,-3.66211 3.66211,-8.83789 -3.66211,-8.83789 z m 0,25 -8.83789,3.66211 -3.66211,8.83789 3.66211,8.83789 L -250,750 l 8.83789,-3.66211 3.66211,-8.83789 -3.66211,-8.83789 z m 12.5,12.5 3.66211,8.83789 L -225,750 -216.16211,746.33789 -212.5,737.5 -216.16211,728.66211 -225,725 l -8.83789,3.66211 z m -12.5,12.5 -8.83789,3.66211 -3.66211,8.83789 3.66211,8.83789 L -250,775 l 8.83789,-3.66211 3.66211,-8.83789 -3.66211,-8.83789 z m -12.5,-12.5 -3.66211,-8.83789 L -275,725 l -8.83789,3.66211 -3.66211,8.83789 3.66211,8.83789 L -275,750 l 8.83789,-3.66211 z" id="path2" />
</svg>
