<svg width="500" height="850" xmlns="http://www.w3.org/2000/svg">
    <path
        d="m -250,75 -8.83789,3.662109 L -262.5,87.5 -258.83789,96.33789 -250,100 -241.16211,96.33789 -237.5,87.5 l -3.66211,-8.837891 z m 0,25 -8.83789,3.66211 -3.66211,8.83789 3.66211,8.83789 L -250,125 l 8.83789,-3.66211 3.66211,-8.83789 -3.66211,-8.83789 z m 12.5,12.5 3.66211,8.83789 L -225,125 -216.16211,121.33789 -212.5,112.5 -216.16211,103.66211 -225,100 l -8.83789,3.66211 z m -12.5,12.5 -8.83789,3.66211 -3.66211,8.83789 3.66211,8.83789 L -250,150 l 8.83789,-3.66211 3.66211,-8.83789 -3.66211,-8.83789 z m -12.5,-12.5 -3.66211,-8.83789 L -275,100 l -8.83789,3.66211 -3.66211,8.83789 3.66211,8.83789 L -275,125 l 8.83789,-3.66211 z" />
    <path
        d="m -250,700 -8.83789,3.66211 -3.66211,8.83789 3.66211,8.83789 L -250,725 l 8.83789,-3.66211 3.66211,-8.83789 -3.66211,-8.83789 z m 0,25 -8.83789,3.66211 -3.66211,8.83789 3.66211,8.83789 L -250,750 l 8.83789,-3.66211 3.66211,-8.83789 -3.66211,-8.83789 z m 12.5,12.5 3.66211,8.83789 L -225,750 -216.16211,746.33789 -212.5,737.5 -216.16211,728.66211 -225,725 l -8.83789,3.66211 z m -12.5,12.5 -8.83789,3.66211 -3.66211,8.83789 3.66211,8.83789 L -250,775 l 8.83789,-3.66211 3.66211,-8.83789 -3.66211,-8.83789 z m -12.5,-12.5 -3.66211,-8.83789 L -275,725 l -8.83789,3.66211 -3.66211,8.83789 3.66211,8.83789 L -275,750 l 8.83789,-3.66211 z" />
</svg>