<svg width="500" height="850" xmlns="http://www.w3.org/2000/svg">
    <path
        d="m 108.57812,258.57812 -17.677729,7.32227 -7.322266,17.67773 7.322266,17.67774 282.843749,282.84375 17.67774,7.32227 17.67773,-7.32227 7.32227,-17.67773 -7.32227,-17.67774 -282.84375,-282.84375 z m 282.84376,0 -17.67774,7.32227 -282.843749,282.84375 -7.322266,17.67774 7.322266,17.67773 17.677729,7.32227 17.67774,-7.32227 282.84375,-282.84375 7.32227,-17.67774 -7.32227,-17.67773 z M 50,400 32.322266,407.32227 25,425 32.322266,442.67773 50,450 H 450 L 467.67773,442.67773 475,425 467.67773,407.32227 450,400 Z M 250,200 108.578,258.578 90.9,265.9 83.578,283.578 25,425 83.578,566.422 90.9,584.1 108.578,591.422 250,650 391.422,591.422 409.1,584.1 416.422,566.422 475,425 416.422,283.578 409.1,265.9 391.422,258.578 Z m 0,50 123.744,51.256 L 425,425 373.744,548.744 250,600 126.256,548.744 75,425 126.256,301.256 Z m 0,50 -88.38867,36.61133 L 125,425 161.61133,513.38867 250,550 338.38867,513.38867 375,425 338.38867,336.61133 Z m 0,50 53.0332,21.9668 L 325,425 303.0332,478.0332 250,500 196.9668,478.0332 175,425 196.9668,371.9668 Z"
        style="fill:none;stroke:#ff0000" />
</svg>