<?xml version="1.0" encoding="UTF-8" standalone="no"?>
<svg width="500" height="650" version="1.1" id="svg2" sodipodi:docname="zosokw.svg" inkscape:version="1.4.3 (0d15f750, 2025-12-25)" xmlns:inkscape="http://www.inkscape.org/namespaces/inkscape" xmlns:sodipodi="http://sodipodi.sourceforge.net/DTD/sodipodi-0.dtd" xmlns="http://www.w3.org/2000/svg" xmlns:svg="http://www.w3.org/2000/svg">
    <defs id="defs2" />
    <sodipodi:namedview id="namedview2" pagecolor="#ffffff" bordercolor="#000000" borderopacity="0.25" inkscape:showpageshadow="2" inkscape:pageopacity="0.0" inkscape:pagecheckerboard="0" inkscape:deskcolor="#d1d1d1" inkscape:zoom="0.38956522" inkscape:cx="250.27902" inkscape:cy="326.00446" inkscape:window-width="1095" inkscape:window-height="647" inkscape:window-x="0" inkscape:window-y="25" inkscape:window-maximized="0" inkscape:current-layer="svg2" />
    <path id="path1" d="M 50 100 A 25 25 0 0 0 32.412109 107.32227 L 32.322266 107.32227 L 32.322266 107.41211 A 25 25 0 0 0 25 125 A 25 25 0 0 0 32.322266 142.58789 L 32.322266 142.67773 L 214.64453 325 L 32.322266 507.32227 A 25 25 0 0 0 25 525 A 25 25 0 0 0 32.322266 542.58789 L 32.322266 542.67773 L 32.412109 542.67773 A 25 25 0 0 0 50 550 A 25 25 0 0 0 67.587891 542.67773 L 67.677734 542.67773 L 250 360.35547 L 432.32227 542.67773 L 432.41211 542.67773 A 25 25 0 0 0 450 550 A 25 25 0 0 0 467.58789 542.67773 L 467.67773 542.67773 L 467.67773 542.58789 A 25 25 0 0 0 475 525 A 25 25 0 0 0 467.67773 507.32227 L 285.35547 325 L 467.67773 142.67773 L 467.67773 142.58789 A 25 25 0 0 0 475 125 A 25 25 0 0 0 467.67773 107.41211 L 467.67773 107.32227 L 467.58789 107.32227 A 25 25 0 0 0 450 100 A 25 25 0 0 0 432.32227 107.32227 L 250 289.64453 L 67.677734 107.32227 A 25 25 0 0 0 50 100 z " />
</svg>
