<svg width="500" height="650" xmlns="http://www.w3.org/2000/svg">
    <path
        d="m 50,100 a 25,25 0 0 0 -17.587891,7.32227 h -0.08984 v 0.0898 A 25,25 0 0 0 25,125 a 25,25 0 0 0 7.322266,17.58789 v 0.0898 l 400.000004,400 h 0.0898 A 25,25 0 0 0 450,550 a 25,25 0 0 0 17.58789,-7.32227 h 0.0898 v -0.0898 A 25,25 0 0 0 475,525 25,25 0 0 0 467.67773,507.32227 l -399.999996,-400 A 25,25 0 0 0 50,100 Z m 400,0 a 25,25 0 0 0 -17.67773,7.32227 l -400.000004,400 A 25,25 0 0 0 25,525 a 25,25 0 0 0 7.322266,17.58789 v 0.0898 h 0.08984 A 25,25 0 0 0 50,550 25,25 0 0 0 67.587891,542.67773 h 0.08984 l 399.999996,-400 v -0.0898 A 25,25 0 0 0 475,125 25,25 0 0 0 467.67773,107.41211 v -0.0898 h -0.0898 A 25,25 0 0 0 450,100 Z M 50,300 v 0.38 A 25,25 0 0 0 25,325 25,25 0 0 0 50,349.62 V 350 h 400 v -0.38 A 25,25 0 0 0 475,325 25,25 0 0 0 450,300.38 V 300 Z M 250,100 A 225,225 0 0 0 25,325 225,225 0 0 0 250,550 225,225 0 0 0 475,325 225,225 0 0 0 250,100 Z m 0,50 A 175,175 0 0 1 425,325 175,175 0 0 1 250,500 175,175 0 0 1 75,325 175,175 0 0 1 250,150 Z m 0,50 A 125,125 0 0 0 125,325 125,125 0 0 0 250,450 125,125 0 0 0 375,325 125,125 0 0 0 250,200 Z m 0,50 a 75,75 0 0 1 75,75 75,75 0 0 1 -75,75 75,75 0 0 1 -75,-75 75,75 0 0 1 75,-75 z"
        style="fill:none;stroke:#ff0000" />
</svg>