<svg width="300" height="300" xmlns="http://www.w3.org/2000/svg">
  <style>
    @media (prefers-color-scheme: light) {
      circle {
        fill: #000000;
      }

      line {
        stroke: #707070;
      }
    }

    @media (prefers-color-scheme: dark) {
      circle {
        fill: #daa520;
      }

      line {
        stroke: #f5deb3;
      }
    }

    circle {
      r: 10;
    }

    line {
      stroke-width: 5;
    }
  </style>
  <line x1="150" y1="10" x2="150" y2="80" />
  <line x1="" y1="" x2="" y2="" />
  <line x1="" y1="" x2="" y2="" />
  <line x1="" y1="" x2="" y2="" />
  <line x1="" y1="" x2="" y2="" />
  <line x1="" y1="" x2="" y2="" />
  <circle cx="10" cy="10" r="10" />
  <circle cx="80" cy="10" r="10" />
  <circle cx="150" cy="10" r="10" />
  <circle cx="220" cy="10" r="10" />
  <circle cx="290" cy="10" r="10" />
  <circle cx="10" cy="80" r="10" />
  <circle cx="80" cy="80" r="10" />
  <circle cx="150" cy="80" r="10" />
  <circle cx="220" cy="80" r="10" />
  <circle cx="290" cy="80" r="10" />
  <circle cx="10" cy="150" r="10" />
  <circle cx="80" cy="150" r="10" />
  <circle cx="150" cy="150" r="10" />
  <circle cx="220" cy="150" r="10" />
  <circle cx="290" cy="150" r="10" />
  <circle cx="10" cy="220" r="10" />
  <circle cx="80" cy="220" r="10" />
  <circle cx="150" cy="220" r="10" />
  <circle cx="220" cy="220" r="10" />
  <circle cx="290" cy="220" r="10" />
  <circle cx="10" cy="290" r="10" />
  <circle cx="80" cy="290" r="10" />
  <circle cx="150" cy="290" r="10" />
  <circle cx="220" cy="290" r="10" />
  <circle cx="290" cy="290" r="10" />
</svg>