<?xml version="1.0" encoding="UTF-8" standalone="no"?>
<svg width="500" height="850" version="1.1" id="svg2" sodipodi:docname="tmp.svg" inkscape:version="1.4.2 (ebf0e940, 2025-05-08)" xmlns:inkscape="http://www.inkscape.org/namespaces/inkscape" xmlns:sodipodi="http://sodipodi.sourceforge.net/DTD/sodipodi-0.dtd" xmlns="http://www.w3.org/2000/svg" xmlns:svg="http://www.w3.org/2000/svg">
    <defs id="defs2" />
    <sodipodi:namedview id="namedview2" pagecolor="#ffffff" bordercolor="#000000" borderopacity="0.25" inkscape:showpageshadow="2" inkscape:pageopacity="0.0" inkscape:pagecheckerboard="0" inkscape:deskcolor="#d1d1d1" inkscape:zoom="0.31652174" inkscape:cx="259.06593" inkscape:cy="426.51099" inkscape:window-width="1080" inkscape:window-height="675" inkscape:window-x="0" inkscape:window-y="25" inkscape:window-maximized="0" inkscape:current-layer="svg2" />
    <path id="path1" d="M 163.89648 217.12695 L 150.36719 230.65625 L 42.126953 338.89648 L 42.126953 511.10352 L 42.126953 511.10547 L 150.36719 619.3457 L 163.89648 632.87305 L 183.03125 632.87305 L 196.56055 619.34375 L 196.56055 600.21094 L 183.03125 586.67969 L 183.0293 586.67969 L 88.320312 491.9707 L 88.320312 358.0293 L 183.0293 263.32031 L 183.03125 263.32031 L 196.56055 249.78906 L 196.56055 230.6543 L 183.03125 217.12695 L 163.89648 217.12695 z M 316.9707 217.12695 L 303.43945 230.65625 L 303.43945 249.79102 L 316.9707 263.32031 L 411.67969 358.03125 L 411.67969 491.9707 L 316.9707 586.67969 L 303.43945 600.21094 L 303.43945 619.3457 L 316.9707 632.87305 L 336.10352 632.87305 L 349.63281 619.34375 L 457.87305 511.10352 L 457.87305 338.89648 L 349.63281 230.65625 L 336.10352 217.12695 L 316.9707 217.12695 z " />
</svg>
