<svg width="500" height="850" xmlns="http://www.w3.org/2000/svg">
    <path
        d="m336.104 632.873 13.529-13.53 108.24-108.24V338.897l-121.77-121.77H163.897L42.127 338.897v172.208l108.24 108.24 13.53 13.529h19.134l13.53-13.53V600.21l-13.53-13.53-94.71-94.71V358.03l94.71-94.71H316.97l94.71 94.71V491.97l-94.71 94.71-13.53 13.53v19.135l13.53 13.529z" />
    <path
        d="m163.896 217.127-13.529 13.53-108.24 108.24v172.207l121.77 121.77h172.207l121.769-121.77V338.896l-108.24-108.24-13.53-13.53H316.97l-13.53 13.53v19.135l13.53 13.53 94.71 94.71V491.97l-94.71 94.71H183.03l-94.71-94.71V358.03l94.71-94.71 13.53-13.53v-19.135l-13.53-13.53z" />
</svg>