<svg width="500" height="850" xmlns="http://www.w3.org/2000/svg">
    <path
        d="m163.896 217.127-13.529 13.53-108.24 108.24v172.207l121.77 121.77h172.207l121.769-121.77V338.896l-108.24-108.24-13.53-13.53H316.97l-13.53 13.53v19.135l13.53 13.53 94.71 94.71V491.97l-94.71 94.71H183.03l-94.71-94.71V358.03l94.71-94.71 13.53-13.53v-19.135l-13.53-13.53z" />
    <path
        d="m128.91 271.245-19.134.002-13.529 13.529-.001 19.135 274.843 274.844 19.136-.002 13.528-13.529.001-19.135z" />
    <path d="m259.567 32.351 13.53 13.53V804.12l-13.53 13.53h-19.134l-13.53-13.53V45.88l13.53-13.53z" />
</svg>