<svg width="500" height="850" xmlns="http://www.w3.org/2000/svg">
    <path
        d="m42.127 511.104 13.53 13.529 108.24 108.24h172.207l121.77-121.77V338.897l-121.77-121.769H163.896l-108.24 108.24-13.53 13.53v19.134l13.53 13.53h19.135l13.53-13.53 94.71-94.71H316.97l94.71 94.71V491.97l-94.71 94.71H183.03l-94.71-94.71-13.53-13.53H55.656l-13.53 13.53z" />
    <path
        d="m128.91 271.245-19.134.002-13.529 13.529-.001 19.135 274.843 274.844 19.136-.002 13.528-13.529.001-19.135z" />
    <path
        d="M 202.16406 309.51562 L 134.51562 377.16406 L 134.51562 472.83594 L 202.16406 540.48438 L 297.83594 540.48438 L 365.48438 472.83594 L 365.48438 377.16406 L 297.83594 309.51562 L 202.16406 309.51562 z M 221.30078 355.70898 L 278.69922 355.70898 L 278.69922 355.71094 L 319.28906 396.30078 L 319.28906 453.69922 L 278.69922 494.28906 L 221.30078 494.28906 L 180.71094 453.69922 L 180.71094 396.29883 L 221.30078 355.70898 z " />
</svg>