<svg width="500" height="850" xmlns="http://www.w3.org/2000/svg" xmlns:svg="http://www.w3.org/2000/svg">
    <path
        d="m42.127 511.104 13.53 13.529 108.24 108.24h172.207l121.77-121.77V338.897l-121.77-121.769H163.896l-108.24 108.24-13.53 13.53v19.134l13.53 13.53h19.135l13.53-13.53 94.71-94.71H316.97l94.71 94.71V491.97l-94.71 94.71H183.03l-94.71-94.71-13.53-13.53H55.656l-13.53 13.53z" />
    <path
        d="m134.516 472.836 13.529 13.53 54.12 54.118h95.67l67.65-67.648v-95.672l-67.65-67.648h-95.67l-54.12 54.119-13.53 13.53v19.134l13.53 13.53h19.135l13.529-13.53 40.59-40.59H278.7l40.59 40.59V453.7l-40.59 40.59h-57.4l-40.59-40.59-13.53-13.53h-19.134l-13.53 13.53z" />
    <polygon
        points="259.567085809127 401.903011687218 273.096988312782 415.432914190873 273.096988312782 434.567085809127 259.567085809127 448.096988312782 240.432914190873 448.096988312782 226.903011687218 434.567085809127 226.903011687218 415.432914190873 240.432914190873 401.903011687218"
        style="" />
</svg>