<?xml version="1.0" encoding="UTF-8" standalone="no"?>
<svg width="500" height="850" version="1.1" id="svg1" sodipodi:docname="uni002a.svg"
    inkscape:version="1.4.2 (ebf0e940, 2025-05-08)" xmlns:inkscape="http://www.inkscape.org/namespaces/inkscape"
    xmlns:sodipodi="http://sodipodi.sourceforge.net/DTD/sodipodi-0.dtd" xmlns="http://www.w3.org/2000/svg"
    xmlns:svg="http://www.w3.org/2000/svg">
    <defs id="defs1" />

    <path id="path1"
        d="M 240.43359 217.12695 L 226.90234 230.65625 L 226.90234 369.23633 L 128.91016 271.24414 L 109.77539 271.24609 L 96.246094 284.77539 L 96.246094 303.91016 L 217.33594 425 L 96.244141 546.08984 L 96.246094 565.22461 L 109.77539 578.75391 L 128.91016 578.75391 L 226.90234 480.76172 L 226.90234 619.34375 L 240.43359 632.87305 L 259.56641 632.87305 L 273.09766 619.34375 L 273.09766 480.76367 L 371.08984 578.75586 L 390.22461 578.75391 L 403.75391 565.22461 L 403.75391 546.08984 L 282.66406 425 L 403.75586 303.91016 L 403.75391 284.77539 L 390.22461 271.24609 L 371.08984 271.24609 L 273.09766 369.23828 L 273.09766 230.6543 L 259.56641 217.12695 L 240.43359 217.12695 z "
        transform="rotate(000 250 425)" />
</svg>