<svg width="500" height="850" xmlns="http://www.w3.org/2000/svg" xmlns:svg="http://www.w3.org/2000/svg">
    <path d="m259.567 32.351 13.53 13.53V804.12l-13.53 13.53h-19.134l-13.53-13.53V45.88l13.53-13.53z" />
    <path
        d="m457.873 338.896-13.53-13.529-108.24-108.24H163.897l-121.77 121.77v172.207l121.77 121.769h172.208l108.24-108.24 13.53-13.53V491.97l-13.53-13.53h-19.135l-13.53 13.53-94.71 94.71H183.03l-94.71-94.71V358.03l94.71-94.71H316.97l94.71 94.71 13.53 13.53h19.135l13.53-13.53z" />
    <path
        d="m128.91 271.245-19.134.002-13.529 13.529-.001 19.135 274.843 274.844 19.136-.002 13.528-13.529.001-19.135z" />
</svg>