<svg width="500" height="850" xmlns="http://www.w3.org/2000/svg">
    <path
        d="M 248.08594 124.73828 L 245.38086 127.44531 L 245.38086 131.27148 L 248.08594 133.97852 L 251.91406 133.97852 L 254.61914 131.27148 L 254.61914 127.44531 L 251.91406 124.73828 L 248.08594 124.73828 z M 229.60938 143.2168 L 226.90234 145.92188 L 226.90234 149.75 L 229.60938 152.45508 L 233.43555 152.45508 L 236.14258 149.75 L 236.14258 145.92188 L 233.43555 143.2168 L 229.60938 143.2168 z M 248.08594 143.2168 L 245.38086 145.92188 L 245.38086 149.75 L 248.08594 152.45508 L 251.91406 152.45508 L 254.61914 149.75 L 254.61914 145.92188 L 251.91406 143.2168 L 248.08594 143.2168 z M 266.56445 143.2168 L 263.85742 145.92188 L 263.85742 149.75 L 266.56445 152.45508 L 270.39062 152.45508 L 273.09766 149.75 L 273.09766 145.92188 L 270.39062 143.2168 L 266.56445 143.2168 z M 248.08594 161.69336 L 245.38086 164.40039 L 245.38086 168.22656 L 248.08594 170.93359 L 251.91406 170.93359 L 254.61914 168.22656 L 254.61914 164.40039 L 251.91406 161.69336 L 248.08594 161.69336 z " />
</svg>