<?xml version="1.0" encoding="UTF-8" standalone="no"?>
<svg width="500" height="850" version="1.1" id="svg2" sodipodi:docname="uni0026.svg"
    inkscape:version="1.4.2 (ebf0e940, 2025-05-08)" xmlns:inkscape="http://www.inkscape.org/namespaces/inkscape"
    xmlns:sodipodi="http://sodipodi.sourceforge.net/DTD/sodipodi-0.dtd" xmlns="http://www.w3.org/2000/svg"
    xmlns:svg="http://www.w3.org/2000/svg">
    <defs id="defs2" />

    <path id="path1"
        d="M 163.89648 217.12891 L 55.65625 325.36719 L 42.126953 338.89844 L 42.126953 358.03125 L 55.65625 371.5625 L 74.791016 371.5625 L 88.320312 358.03125 L 183.03125 263.32227 L 316.9707 263.32227 L 411.67969 358.03125 L 411.67969 491.9707 L 316.9707 586.67969 L 183.0293 586.67969 L 88.320312 491.9707 L 74.789062 478.43945 L 55.65625 478.43945 L 42.126953 491.9707 L 42.126953 511.10352 L 55.65625 524.63281 L 163.89648 632.87305 L 336.10352 632.87305 L 457.87305 511.10352 L 457.87305 338.89648 L 336.10352 217.12891 L 163.89648 217.12891 z M 202.16406 309.51562 L 148.04492 363.63477 L 134.51562 377.16406 L 134.51562 396.29883 L 148.04492 409.82812 L 167.17969 409.82812 L 180.70898 396.29883 L 221.29883 355.70898 L 278.69922 355.70898 L 319.28906 396.29883 L 319.28906 453.69922 L 278.69922 494.28906 L 221.30078 494.28906 L 180.71094 453.69922 L 167.17969 440.16992 L 148.04688 440.16992 L 134.51562 453.69922 L 134.51562 472.83594 L 148.04492 486.36523 L 202.16406 540.48438 L 297.83594 540.48438 L 365.48438 472.83594 L 365.48438 377.16406 L 297.83594 309.51562 L 202.16406 309.51562 z M 240.43359 401.90234 L 226.90234 415.43359 L 226.90234 434.56641 L 240.43359 448.09766 L 259.56641 448.09766 L 273.09766 434.56641 L 273.09766 415.43359 L 259.56641 401.90234 L 240.43359 401.90234 z " />
</svg>