<?xml version="1.0" encoding="UTF-8" standalone="no"?>
<svg width="500" height="850" version="1.1" id="svg10" sodipodi:docname="uni0307.svg" inkscape:version="1.4.3 (0d15f750, 2025-12-25)" xmlns:inkscape="http://www.inkscape.org/namespaces/inkscape" xmlns:sodipodi="http://sodipodi.sourceforge.net/DTD/sodipodi-0.dtd" xmlns="http://www.w3.org/2000/svg" xmlns:svg="http://www.w3.org/2000/svg">
    <defs id="defs10" />
    <sodipodi:namedview id="namedview10" pagecolor="#ffffff" bordercolor="#000000" borderopacity="0.25" inkscape:showpageshadow="2" inkscape:pageopacity="0.0" inkscape:pagecheckerboard="0" inkscape:deskcolor="#d1d1d1" inkscape:zoom="0.53647059" inkscape:cx="250.71272" inkscape:cy="425" inkscape:window-width="1080" inkscape:window-height="675" inkscape:window-x="0" inkscape:window-y="25" inkscape:window-maximized="0" inkscape:current-layer="svg10" />
    <path id="polygon1" d="m -251.91406,124.73828 -2.70508,2.70703 v 3.82617 l 2.70508,2.70704 h 3.82812 l 2.70508,-2.70704 v -3.82617 l -2.70508,-2.70703 z m -18.47656,18.47852 -2.70704,2.70508 V 149.75 l 2.70704,2.70508 h 3.82617 l 2.70703,-2.70508 v -3.82812 l -2.70703,-2.70508 z m 18.47656,0 -2.70508,2.70508 V 149.75 l 2.70508,2.70508 h 3.82812 l 2.70508,-2.70508 v -3.82812 l -2.70508,-2.70508 z m 18.47851,0 -2.70703,2.70508 V 149.75 l 2.70703,2.70508 h 3.82617 l 2.70704,-2.70508 v -3.82812 l -2.70704,-2.70508 z m -18.47851,18.47656 -2.70508,2.70703 v 3.82617 l 2.70508,2.70703 h 3.82812 l 2.70508,-2.70703 v -3.82617 l -2.70508,-2.70703 z" />
</svg>
