<svg width="500" height="850" xmlns="http://www.w3.org/2000/svg">
    <polygon
        points="259.567085809127 217.127105184961 273.096988312782 230.657007688616 273.096988312782 249.79117930687 259.567085809127 263.321081810525 240.432914190873 263.321081810525 226.903011687218 249.79117930687 226.903011687218 230.657007688616 240.432914190873 217.127105184961"
        style="" />
    <polygon
        points="259.567085809127 586.678918189475 273.096988312782 600.20882069313 273.096988312782 619.342992311384 259.567085809127 632.872894815039 240.432914190873 632.872894815039 226.903011687218 619.342992311384 226.903011687218 600.20882069313 240.432914190873 586.678918189475"
        style="" />
    <polygon
        points="74.7911793068699 401.903011687218 88.3210818105249 415.432914190873 88.3210818105249 434.567085809127 74.7911793068699 448.096988312782 55.6570076886155 448.096988312782 42.1271051849605 434.567085809127 42.1271051849605 415.432914190873 55.6570076886155 401.903011687218"
        style="" />
    <polygon
        points="444.342992311384 401.903011687218 457.872894815039 415.432914190873 457.872894815039 434.567085809127 444.342992311384 448.096988312782 425.20882069313 448.096988312782 411.678918189475 434.567085809127 411.678918189475 415.432914190873 425.20882069313 401.903011687218"
        style="" />
    <polygon
        points="259.567085809127 401.903011687218 273.096988312782 415.432914190873 273.096988312782 434.567085809127 259.567085809127 448.096988312782 240.432914190873 448.096988312782 226.903011687218 434.567085809127 226.903011687218 415.432914190873 240.432914190873 401.903011687218"
        style="" />
</svg>