<svg width="500" height="850" xmlns="http://www.w3.org/2000/svg">
    <path d="m259.567 32.351 13.53 13.53V804.12l-13.53 13.53h-19.134l-13.53-13.53V45.88l13.53-13.53z" />
    <path
        d="m128.91 271.245-19.134.002-13.529 13.529-.001 19.135 274.843 274.844 19.136-.002 13.528-13.529.001-19.135z" />
    <path
        d="M 163.89648,217.12891 55.65625,325.36719 42.126953,338.89648 v 0.002 19.13281 L 55.65625,371.5625 h 19.134766 l 13.529296,-13.53125 v -0.002 L 183.0293,263.32031 h 133.9414 v 0.002 l 94.70899,94.70703 v 0.002 l 13.53125,13.5293 h 19.13476 l 13.52735,-13.5293 V 338.89648 L 444.34375,325.36719 336.10352,217.12891 Z" />
    <path
        d="M 55.65625,478.43945 42.126953,491.9707 v 19.13282 L 55.65625,524.63281 163.89648,632.87305 H 336.10352 L 444.3457,524.63281 457.87305,511.10352 V 491.96875 L 444.3457,478.43945 H 425.21094 L 411.67969,491.9707 316.9707,586.67969 H 183.0293 L 88.320312,491.9707 74.789062,478.43945 Z" />
</svg>