<?xml version="1.0" encoding="UTF-8" standalone="no"?>
<svg width="500" height="850" version="1.1" id="svg1" sodipodi:docname="uni003e.svg" inkscape:version="1.4.2 (ebf0e940, 2025-05-08)" xmlns:inkscape="http://www.inkscape.org/namespaces/inkscape" xmlns:sodipodi="http://sodipodi.sourceforge.net/DTD/sodipodi-0.dtd" xmlns="http://www.w3.org/2000/svg" xmlns:svg="http://www.w3.org/2000/svg">
    <defs id="defs1"/>
    <sodipodi:namedview id="namedview1" pagecolor="#ffffff" bordercolor="#000000" borderopacity="0.25" inkscape:showpageshadow="2" inkscape:pageopacity="0.0" inkscape:pagecheckerboard="0" inkscape:deskcolor="#d1d1d1" inkscape:zoom="0.62588235" inkscape:cx="249.24812" inkscape:cy="425" inkscape:window-width="888" inkscape:window-height="751" inkscape:window-x="0" inkscape:window-y="25" inkscape:window-maximized="0" inkscape:current-layer="svg1"/>
    <path id="path1" d="M 202.16406 309.51562 L 148.04492 363.63477 L 134.51562 377.16406 L 134.51562 396.29883 L 148.04492 409.82812 L 167.17969 409.82812 L 180.70898 396.29883 L 221.29883 355.70898 L 278.69922 355.70898 L 319.28906 396.29883 L 319.28906 453.69922 L 278.69922 494.28906 L 221.30078 494.28906 L 180.71094 453.69922 L 167.17969 440.16992 L 148.04688 440.16992 L 134.51562 453.69922 L 134.51562 472.83594 L 148.04492 486.36523 L 202.16406 540.48438 L 297.83594 540.48438 L 365.48438 472.83594 L 365.48438 377.16406 L 297.83594 309.51562 L 202.16406 309.51562 z "/>
    <path id="path2" d="M 202.16406 309.51562 L 148.04492 363.63477 L 134.51562 377.16406 L 134.51562 396.29883 L 148.04492 409.82812 L 167.17969 409.82812 L 180.70898 396.29883 L 221.29883 355.70898 L 278.69922 355.70898 L 319.28906 396.29883 L 319.28906 453.69922 L 278.69922 494.28906 L 221.30078 494.28906 L 180.71094 453.69922 L 167.17969 440.16992 L 148.04688 440.16992 L 134.51562 453.69922 L 134.51562 472.83594 L 148.04492 486.36523 L 202.16406 540.48438 L 297.83594 540.48438 L 365.48438 472.83594 L 365.48438 377.16406 L 297.83594 309.51562 L 202.16406 309.51562 z "/>
</svg>