<svg width="500" height="850" xmlns="http://www.w3.org/2000/svg">
    <path
        d="m -251.91406,679.06641 -2.70508,2.70703 v 3.82617 l 2.70508,2.70703 h 3.82812 l 2.70508,-2.70703 v -3.82617 l -2.70508,-2.70703 z m -18.47656,18.47851 -2.70704,2.70508 v 3.82812 l 2.70704,2.70508 h 3.82617 l 2.70703,-2.70508 V 700.25 l -2.70703,-2.70508 z m 18.47656,0 -2.70508,2.70508 v 3.82812 l 2.70508,2.70508 h 3.82812 l 2.70508,-2.70508 V 700.25 l -2.70508,-2.70508 z m 18.47851,0 -2.70703,2.70508 v 3.82812 l 2.70703,2.70508 h 3.82617 l 2.70704,-2.70508 V 700.25 l -2.70704,-2.70508 z m -18.47851,18.47656 -2.70508,2.70704 v 3.82617 l 2.70508,2.70703 h 3.82812 l 2.70508,-2.70703 v -3.82617 l -2.70508,-2.70704 z" />
</svg>