<?xml version="1.0" encoding="UTF-8" standalone="no"?>
<svg width="500" height="850" version="1.1" id="svg2" sodipodi:docname="uni0025.svg" inkscape:version="1.4.2 (ebf0e940, 2025-05-08)" xmlns:inkscape="http://www.inkscape.org/namespaces/inkscape" xmlns:sodipodi="http://sodipodi.sourceforge.net/DTD/sodipodi-0.dtd" xmlns="http://www.w3.org/2000/svg" xmlns:svg="http://www.w3.org/2000/svg">
    <defs id="defs2" />
    <sodipodi:namedview id="namedview2" pagecolor="#ffffff" bordercolor="#000000" borderopacity="0.25" inkscape:showpageshadow="2" inkscape:pageopacity="0.0" inkscape:pagecheckerboard="0" inkscape:deskcolor="#d1d1d1" inkscape:zoom="0.62588235" inkscape:cx="249.24812" inkscape:cy="425" inkscape:window-width="888" inkscape:window-height="751" inkscape:window-x="0" inkscape:window-y="25" inkscape:window-maximized="0" inkscape:current-layer="svg2" />
    <path id="path1" d="M 371.08984 271.24609 L 315.32812 327.00781 L 297.83594 309.51562 L 202.16406 309.51562 L 134.51562 377.16406 L 134.51562 472.83594 L 152.00781 490.32812 L 96.244141 546.08984 L 96.246094 565.22461 L 109.77539 578.75391 L 128.91016 578.75391 L 184.67188 522.99219 L 202.16406 540.48438 L 297.83594 540.48438 L 365.48438 472.83594 L 365.48438 377.16406 L 347.99219 359.67188 L 403.75586 303.91016 L 403.75391 284.77539 L 390.22461 271.24609 L 371.08984 271.24609 z M 221.30078 355.70898 L 278.69922 355.70898 L 278.69922 355.71094 L 282.66211 359.67383 L 184.67383 457.66211 L 180.71094 453.69922 L 180.71094 396.29883 L 221.30078 355.70898 z M 315.32617 392.33789 L 319.28906 396.30078 L 319.28906 453.69922 L 278.69922 494.28906 L 221.30078 494.28906 L 217.33789 490.32617 L 315.32617 392.33789 z " />
</svg>
