<svg width="500" height="850" xmlns="http://www.w3.org/2000/svg">
    <path d="M 371.08984 271.24609 L 315.32812 327.00781 L 297.83594 309.51562 L 202.16406 309.51562 L 134.51562 377.16406 L 134.51562 472.83594 L 152.00781 490.32812 L 96.244141 546.08984 L 96.246094 565.22461 L 109.77539 578.75391 L 128.91016 578.75391 L 184.67188 522.99219 L 202.16406 540.48438 L 297.83594 540.48438 L 365.48438 472.83594 L 365.48438 377.16406 L 347.99219 359.67188 L 403.75586 303.91016 L 403.75391 284.77539 L 390.22461 271.24609 L 371.08984 271.24609 z M 221.30078 355.70898 L 278.69922 355.70898 L 278.69922 355.71094 L 282.66211 359.67383 L 184.67383 457.66211 L 180.71094 453.69922 L 180.71094 396.29883 L 221.30078 355.70898 z M 315.32617 392.33789 L 319.28906 396.30078 L 319.28906 453.69922 L 278.69922 494.28906 L 221.30078 494.28906 L 217.33789 490.32617 L 315.32617 392.33789 z "/>
</svg>