<svg width="500" height="850" xmlns="http://www.w3.org/2000/svg" xmlns:svg="http://www.w3.org/2000/svg">
    <path
        d="M336.104 217.127H163.896L42.127 338.896v172.208l121.769 121.769h172.208l121.769-121.769V338.896l-13.53-13.53h-19.134l-13.53 13.53V491.97l-94.708 94.708H183.029L88.321 491.97V358.029l94.708-94.708h153.075l13.53-13.53v-19.134z" />
    <path
        d="M 202.16406 309.51562 L 134.51562 377.16406 L 134.51562 472.83594 L 202.16406 540.48438 L 297.83594 540.48438 L 365.48438 472.83594 L 365.48438 377.16406 L 297.83594 309.51562 L 202.16406 309.51562 z M 221.30078 355.70898 L 278.69922 355.70898 L 278.69922 355.71094 L 319.28906 396.30078 L 319.28906 453.69922 L 278.69922 494.28906 L 221.30078 494.28906 L 180.71094 453.69922 L 180.71094 396.29883 L 221.30078 355.70898 z " />
</svg>