<svg width="500" height="850" xmlns="http://www.w3.org/2000/svg" xmlns:svg="http://www.w3.org/2000/svg">
    <path
        d="M 163.89648 217.12695 L 150.36719 230.65625 L 109.77734 271.24609 L 109.77539 271.24609 L 96.246094 284.77539 L 96.246094 284.77734 L 42.126953 338.89648 L 42.126953 511.10352 L 42.126953 511.10547 L 150.36719 619.3457 L 163.89648 632.87305 L 183.03125 632.87305 L 196.56055 619.34375 L 196.56055 600.21094 L 183.03125 586.67969 L 183.0293 586.67969 L 88.320312 491.9707 L 88.320312 358.0293 L 119.3418 327.00781 L 347.99219 555.6582 L 316.9707 586.67969 L 303.43945 600.21094 L 303.43945 619.3457 L 316.9707 632.87305 L 336.10352 632.87305 L 349.63281 619.34375 L 390.22266 578.75391 L 390.22461 578.75391 L 403.75391 565.22461 L 403.75391 565.22266 L 457.87305 511.10352 L 457.87305 338.89648 L 349.63281 230.65625 L 336.10352 217.12695 L 316.9707 217.12695 L 303.43945 230.65625 L 303.43945 249.79102 L 316.9707 263.32031 L 411.67969 358.03125 L 411.67969 491.9707 L 380.6582 522.99219 L 152.00781 294.3418 L 183.0293 263.32031 L 183.03125 263.32031 L 196.56055 249.78906 L 196.56055 230.6543 L 183.03125 217.12695 L 163.89648 217.12695 z " />
</svg>