<svg width="500" height="850" xmlns="http://www.w3.org/2000/svg">
    <path
        d="m128.91 271.245-19.134.002-13.529 13.529-.001 19.135 274.843 274.844 19.136-.002 13.528-13.529.001-19.135z" />
    <path
        d="M 202.16406 309.51562 L 134.51562 377.16406 L 134.51562 472.83594 L 202.16406 540.48438 L 297.83594 540.48438 L 365.48438 472.83594 L 365.48438 377.16406 L 297.83594 309.51562 L 202.16406 309.51562 z M 221.30078 355.70898 L 278.69922 355.70898 L 278.69922 355.71094 L 319.28906 396.30078 L 319.28906 453.69922 L 278.69922 494.28906 L 221.30078 494.28906 L 180.71094 453.69922 L 180.71094 396.29883 L 221.30078 355.70898 z " />
    <polygon
        points="259.567085809127 217.127105184961 273.096988312782 230.657007688616 273.096988312782 249.79117930687 259.567085809127 263.321081810525 240.432914190873 263.321081810525 226.903011687218 249.79117930687 226.903011687218 230.657007688616 240.432914190873 217.127105184961"
        style="" />
    <polygon
        points="259.567085809127 586.678918189475 273.096988312782 600.20882069313 273.096988312782 619.342992311384 259.567085809127 632.872894815039 240.432914190873 632.872894815039 226.903011687218 619.342992311384 226.903011687218 600.20882069313 240.432914190873 586.678918189475"
        style="" />
    <path id="polygon1"
        d="M 55.65625 401.90234 L 42.126953 415.43359 L 42.126953 434.56641 L 55.65625 448.09766 L 74.791016 448.09766 L 88.320312 434.56641 L 88.320312 415.43359 L 74.791016 401.90234 L 55.65625 401.90234 z M 425.20898 401.90234 L 411.67969 415.43359 L 411.67969 434.56641 L 425.20898 448.09766 L 444.34375 448.09766 L 457.87305 434.56641 L 457.87305 415.43359 L 444.34375 401.90234 L 425.20898 401.90234 z " />
</svg>