<?xml version="1.0" encoding="UTF-8" standalone="no"?>
<svg width="500" height="850" version="1.1" id="svg3" sodipodi:docname="uni25cc.svg" inkscape:version="1.4.2 (ebf0e940, 2025-05-08)" xmlns:inkscape="http://www.inkscape.org/namespaces/inkscape" xmlns:sodipodi="http://sodipodi.sourceforge.net/DTD/sodipodi-0.dtd" xmlns="http://www.w3.org/2000/svg" xmlns:svg="http://www.w3.org/2000/svg">
    <defs id="defs3" />
    <sodipodi:namedview id="namedview3" pagecolor="#ffffff" bordercolor="#000000" borderopacity="0.25" inkscape:showpageshadow="2" inkscape:pageopacity="0.0" inkscape:pagecheckerboard="0" inkscape:deskcolor="#d1d1d1" inkscape:zoom="0.31652174" inkscape:cx="259.06593" inkscape:cy="426.51099" inkscape:window-width="1080" inkscape:window-height="675" inkscape:window-x="0" inkscape:window-y="25" inkscape:window-maximized="0" inkscape:current-layer="svg3" />
    <path id="path1" d="M 240.43359 217.12695 L 226.90234 230.65625 L 226.90234 249.79102 L 240.43359 263.32031 L 259.56641 263.32031 L 273.09766 249.79102 L 273.09766 230.65625 L 259.56641 217.12695 L 240.43359 217.12695 z M 128.91016 271.24414 L 109.77539 271.24609 L 96.246094 284.77539 L 96.246094 303.91016 L 152.00781 359.67188 L 134.51562 377.16406 L 134.51562 472.83594 L 202.16406 540.48438 L 297.83594 540.48438 L 315.32812 522.99219 L 371.08984 578.75586 L 390.22461 578.75391 L 403.75391 565.22461 L 403.75391 546.08984 L 347.99219 490.32812 L 365.48438 472.83594 L 365.48438 377.16406 L 297.83594 309.51562 L 202.16406 309.51562 L 184.67188 327.00781 L 128.91016 271.24414 z M 221.30078 355.70898 L 278.69922 355.70898 L 278.69922 355.71094 L 319.28906 396.30078 L 319.28906 453.69922 L 315.32617 457.66211 L 217.33789 359.67188 L 221.30078 355.70898 z M 184.67188 392.33789 L 282.66211 490.32617 L 278.69922 494.28906 L 221.30078 494.28906 L 180.71094 453.69922 L 180.71094 396.29883 L 184.67188 392.33789 z M 55.65625 401.90234 L 42.126953 415.43359 L 42.126953 434.56641 L 55.65625 448.09766 L 74.791016 448.09766 L 88.320312 434.56641 L 88.320312 415.43359 L 74.791016 401.90234 L 55.65625 401.90234 z M 425.20898 401.90234 L 411.67969 415.43359 L 411.67969 434.56641 L 425.20898 448.09766 L 444.34375 448.09766 L 457.87305 434.56641 L 457.87305 415.43359 L 444.34375 401.90234 L 425.20898 401.90234 z M 240.43359 586.67969 L 226.90234 600.20898 L 226.90234 619.34375 L 240.43359 632.87305 L 259.56641 632.87305 L 273.09766 619.34375 L 273.09766 600.20898 L 259.56641 586.67969 L 240.43359 586.67969 z " />
</svg>
