<svg width="500" height="850" xmlns="http://www.w3.org/2000/svg">
    <path id="path1"
        d="M 163.89648 217.12891 L 109.7793 271.24609 L 109.77539 271.24609 L 96.246094 284.77539 L 96.246094 284.77734 L 55.65625 325.36719 L 42.126953 338.89648 L 42.126953 338.89844 L 42.126953 358.03125 L 55.65625 371.5625 L 74.791016 371.5625 L 88.320312 358.03125 L 88.320312 358.0293 L 119.34375 327.00781 L 152.00781 359.67188 L 134.51562 377.16406 L 134.51562 472.83594 L 202.16406 540.48438 L 297.83594 540.48438 L 315.32812 522.99219 L 347.99219 555.6582 L 316.9707 586.67969 L 183.0293 586.67969 L 88.320312 491.9707 L 74.789062 478.43945 L 55.65625 478.43945 L 42.126953 491.9707 L 42.126953 511.10352 L 55.65625 524.63281 L 163.89648 632.87305 L 336.10352 632.87305 L 390.22266 578.75391 L 390.22461 578.75391 L 403.75391 565.22461 L 444.3457 524.63281 L 457.87305 511.10352 L 457.87305 491.96875 L 444.3457 478.43945 L 425.21094 478.43945 L 411.67969 491.9707 L 380.65625 522.99219 L 347.99219 490.32812 L 365.48438 472.83594 L 365.48438 377.16406 L 297.83594 309.51562 L 202.16406 309.51562 L 184.67188 327.00781 L 152.00781 294.3418 L 183.0293 263.32031 L 316.9707 263.32031 L 316.9707 263.32227 L 411.67969 358.0293 L 411.67969 358.03125 L 425.21094 371.56055 L 444.3457 371.56055 L 457.87305 358.03125 L 457.87305 338.89648 L 444.34375 325.36719 L 336.10352 217.12891 L 163.89648 217.12891 z M 221.30078 355.70898 L 278.69922 355.70898 L 278.69922 355.71094 L 319.28906 396.30078 L 319.28906 453.69922 L 315.32617 457.66211 L 217.33789 359.67188 L 221.30078 355.70898 z M 184.67188 392.33789 L 282.66211 490.32617 L 278.69922 494.28906 L 221.30078 494.28906 L 180.71094 453.69922 L 180.71094 396.29883 L 184.67188 392.33789 z " />
</svg>