<svg width="500" height="850" xmlns="http://www.w3.org/2000/svg">
    <polygon
        points="259.567085809127 217.127105184961 273.096988312782 230.657007688616 273.096988312782 249.79117930687 259.567085809127 263.321081810525 240.432914190873 263.321081810525 226.903011687218 249.79117930687 226.903011687218 230.657007688616 240.432914190873 217.127105184961"
        style="" />
    <polygon
        points="259.567085809127 586.678918189475 273.096988312782 600.20882069313 273.096988312782 619.342992311384 259.567085809127 632.872894815039 240.432914190873 632.872894815039 226.903011687218 619.342992311384 226.903011687218 600.20882069313 240.432914190873 586.678918189475"
        style="" />
    <path
        d="M 55.65625 401.90234 L 42.126953 415.43359 L 42.126953 434.56641 L 55.65625 448.09766 L 74.791016 448.09766 L 88.320312 434.56641 L 88.320312 415.43359 L 74.791016 401.90234 L 55.65625 401.90234 z M 425.20898 401.90234 L 411.67969 415.43359 L 411.67969 434.56641 L 425.20898 448.09766 L 444.34375 448.09766 L 457.87305 434.56641 L 457.87305 415.43359 L 444.34375 401.90234 L 425.20898 401.90234 z " />
</svg>