<?xml version="1.0" encoding="UTF-8" standalone="no"?>
<svg width="400" height="700" version="1.1" id="svg2" sodipodi:docname="uni0024.svg"
    inkscape:version="1.4.3 (0d15f750, 2025-12-25)" xmlns:inkscape="http://www.inkscape.org/namespaces/inkscape"
    xmlns:sodipodi="http://sodipodi.sourceforge.net/DTD/sodipodi-0.dtd" xmlns="http://www.w3.org/2000/svg"
    xmlns:svg="http://www.w3.org/2000/svg">
    <defs id="defs2" />
    <sodipodi:namedview id="namedview2" pagecolor="#ffffff" bordercolor="#000000" borderopacity="0.25"
        inkscape:showpageshadow="2" inkscape:pageopacity="0.0" inkscape:pagecheckerboard="0"
        inkscape:deskcolor="#d1d1d1" inkscape:zoom="2.016" inkscape:cx="175.09921" inkscape:cy="324.90079"
        inkscape:window-width="930" inkscape:window-height="723" inkscape:window-x="0" inkscape:window-y="25"
        inkscape:window-maximized="0" inkscape:current-layer="svg2" />
    <path id="path10"
        d="M 50 200 L 50 250 L 100 250 L 100 200 L 50 200 z M 100 250 L 100 300 L 150 300 L 150 250 L 100 250 z M 250 200 L 250 250 L 300 250 L 300 200 L 250 200 z M 250 250 L 200 250 L 200 300 L 250 300 L 250 250 z M 100 350 L 100 400 L 150 400 L 150 350 L 100 350 z M 100 400 L 50 400 L 50 450 L 100 450 L 100 400 z M 200 350 L 200 400 L 250 400 L 250 350 L 200 350 z M 250 400 L 250 450 L 300 450 L 300 400 L 250 400 z " />
    <path
        d="M 150 250 L 150 300 L 200 300 L 200 250 L 150 250 z M 200 300 L 200 350 L 250 350 L 250 300 L 200 300 z M 200 350 L 150 350 L 150 400 L 200 400 L 200 350 z M 150 350 L 150 300 L 100 300 L 100 350 L 150 350 z " />
</svg>