<svg xmlns="http://www.w3.org/2000/svg" width="500" height="500">
  <style>
    @media (prefers-color-scheme: light) {
      path {
        fill: #000000;
      }
    }

    @media (prefers-color-scheme: dark) {
      path {
        fill: #FFFFFF;
      }
    }
  </style>
  <path
    d="M72.43 426.803 0 353.607V146.136l73.063-73.068L146.125 0H352.592l73.704 72.938L500 145.875v208l-73.068 73.062L353.864 500H144.861l-72.43-73.197zm341.394-13.746 66.828-67.594v-190.93l-67.335-68.102-67.335-68.101h-191.7L86.307 86.3 18.33 154.272v191.446l67.461 67.468 67.462 67.467h193.743l66.828-67.595zm-321.923-4.964-65.424-65.43v-185.59L92.54 91.775l66.065-65.298h182.788l66.065 65.298 66.064 65.298v185.589l-65.424 65.43-65.425 65.431H157.326l-65.425-65.43zm311.1-5.086 63.394-63.388V160.393l-63.388-63.394-63.388-63.394H159.362l-62.87 62.882-62.87 62.882-.03 90.606-.03 90.607 62.9 62.906 62.9 62.907h180.245l63.394-63.388zm-172.35 44.348c-1.12-.232-3.225-.881-4.678-1.441-2.576-.994-2.61-1.125-1.352-5.29 4.285-14.19 9.864-46.255 9.425-54.168l-.34-6.11-4.893 7.395c-7.212 10.897-7.635 12.39-8.448 29.84-.714 15.342-.793 15.753-3.545 18.505-2.49 2.49-3.569 2.814-9.36 2.814-5.134 0-7.294-.502-10-2.327-1.9-1.28-3.59-3.037-3.758-3.905-.167-.868 2.427-7.267 5.765-14.22 9.588-19.976 10.495-22.41 11.066-29.722.437-5.606.274-6.795-.873-6.363-.936.352-2.707-1.786-5.256-6.343-6.073-10.862-14.567-24.572-16.645-26.869-1.046-1.155-4.968-3.892-8.716-6.08-4.094-2.392-8.975-6.46-12.226-10.19-2.977-3.414-6.672-7.603-8.212-9.308-1.54-1.706-2.8-4.152-2.8-5.436 0-3.503-1.454-3.716-3.36-.491-2.02 3.421-11.284 8.22-15.868 8.22-1.89 0-3.476.614-3.806 1.475-.311.811-2.932 2.25-5.823 3.197-2.892.948-8.465 3.246-12.386 5.107-13.252 6.292-26.603 8.24-33.627 4.908-3.547-1.684-4.256-2.758-5.639-8.544-.596-2.498-.391-4.584.702-7.129 2.61-6.073 4.07-9.422 7.378-16.916 1.75-3.966 3.182-7.884 3.182-8.707 0-.824.47-1.968 1.045-2.543 2-2 2.376-10.976.603-14.404-.906-1.753-1.648-4.385-1.648-5.85 0-4.08-1.792-6.603-4.691-6.603-2.403 0-2.466-.117-.897-1.685 2.583-2.583 3.786-6.48 2.484-8.047-.805-.97-.785-1.948.074-3.553.944-1.764.825-3.155-.588-6.854-1.783-4.67-6.869-12.904-8.65-14.004-1.803-1.115-11.389-18.25-12.788-22.86-2.85-9.387-.85-20.793 5.986-34.137 2.753-5.376 14.838-18.655 18.959-20.832 2.19-1.158 1.954-.385-2.347 7.7-9.635 18.112-11.87 26.401-9.801 36.363 2.113 10.182 9.188 19.901 19.552 26.86l3.73 2.505 7.134-3.131c4.52-1.984 8.822-3.131 11.742-3.131 3.52 0 4.96-.503 6.1-2.128 1.483-2.119 1.511-2.113 6.917 1.528 2.985 2.01 6.626 3.655 8.09 3.655 5.145 0 18.683-8.856 32.468-21.24l5.572-5.006-2.223-9.026c-1.222-4.964-2.683-11.662-3.246-14.884-.564-3.223-1.514-6.774-2.112-7.892-.62-1.157-.68-2.034-.14-2.034 1.842 0 7.158 7.113 11.375 15.218 4.007 7.702 7.074 10.47 7.114 6.422.011-1.194 1.943-2.601 5.855-4.266 3.211-1.366 10.934-5.838 17.163-9.938 18.166-11.958 28.85-14.625 48.004-11.985 6.015.829 13.915 2.198 17.555 3.042 20.782 4.819 28 5.804 38.697 5.282 6.335-.309 15.257-1.62 21.894-3.22 19.036-4.586 27.996-5.882 32.624-4.721 10.277 2.579 22.547 9.823 31.096 18.359 9.187 9.173 15.115 18.82 20.063 32.65 5.95 16.632 6.853 22.773 6.817 46.335-.029 19.11-.17 20.617-2.29 24.424-4.757 8.538-2.286 16.454 8.428 27.001 5.407 5.323 5.657 5.794 5.037 9.483-.484 2.885-.214 4.366 1.05 5.763 1.569 1.734 1.574 2.127.074 5.029-1.43 2.766-3.673 11.503-3.879 15.112-.128 2.252-1.77 1.354-1.77-.967 0-1.63-.305-1.935-1.12-1.12-.815.814-.676 2.648.51 6.725 2.071 7.128 2.069 7.15-.663 5.38-1.993-1.292-2.548-1.296-4.267-.024-1.087.804-2.79 3.18-3.784 5.28l-1.808 3.82-.136-4.073c-.075-2.24-.46-5.22-.856-6.62l-.72-2.545-.706 2.545c-.534 1.925-.924 2.209-1.598 1.163-.656-1.017-1.507-.152-3.216 3.27-2.197 4.4-4.039 5.37-4.039 2.127 0-1.793-2.024-1.984-2.068-.195-.087 3.61-1.849-2.632-2.492-8.833-1.046-10.08-1.266-10.4-4.837-7.014l-3.02 2.863.704-10.183c.388-5.6 1.109-12.016 1.602-14.257.493-2.24.875-5.906.85-8.146l-.048-4.074-1.402 3.82c-1.79 4.875-6.276 24.253-8.118 35.072-.781 4.588-1.875 10.087-2.43 12.22-.556 2.133-1.542 7.315-2.192 11.516-.65 4.2-1.845 10.616-2.654 14.256-.81 3.64-1.886 8.682-2.392 11.202-.505 2.52-1.289 6.397-1.74 8.615-.955 4.683-2.485 5.383-12.13 5.54-5.301.087-6.62-.274-8.967-2.449-1.652-1.53-2.454-3.057-2.006-3.818.411-.698 2.872-4.477 5.469-8.397 6.23-9.406 11.26-21.882 11.907-29.532.371-4.399-.1-8.39-1.683-14.256-2.544-9.428-3.516-10.869-5.5-8.156-1.355 1.853-1.425 1.843-2.108-.31-.97-3.055-2.126-2.791-3.625.828-1.777 4.292-2.656 3.8-2.271-1.273.315-4.16.262-4.248-1.37-2.291-3.512 4.216-14.658 29.647-21.297 48.597-1.148 3.274-3.321 6.28-6.814 9.42-4.685 4.212-5.582 4.61-10.392 4.61-5.117 0-9.79-1.998-9.79-4.185 0-.558 1.996-4.084 4.437-7.834 2.44-3.751 5.246-8.424 6.235-10.384.99-1.96 3.4-5.816 5.356-8.568 4.67-6.57 12.513-21.582 13.546-25.925 1.004-4.221-.974-13.368-2.89-13.368-.74 0-1.086.42-.768.936 1.078 1.744-5.99 7.994-10.375 9.175-2.346.632-4.97 2.154-5.83 3.383-1.564 2.232-1.565 2.232-1.565-.676v-2.91l-2.037 2.59c-1.12 1.423-2.043 3.204-2.052 3.955-.009.752-.39 1.959-.85 2.682-.52.819-.897-.301-1.002-2.97-.181-4.63-1.187-6.954-1.187-2.742 0 1.999-.887 2.96-4.04 4.382-3.871 1.746-4.154 1.746-6.8.012-2.76-1.808-2.763-1.807-6.158 1.898-1.868 2.038-3.587 3.706-3.821 3.706-.234 0-.572-1.03-.752-2.291-.268-1.87-1.216-.93-5.163 5.123-2.659 4.078-4.835 7.78-4.835 8.227 0 .447-1.32 2.838-2.934 5.314-1.614 2.477-3.529 6.192-4.255 8.257-.913 2.597-2.108 3.951-3.878 4.396-3.542.889-6.109 4.157-7.45 9.486l-1.137 4.515-1.743-2.31-1.743-2.311-.8 3.964c-.748 3.703-.851 3.796-1.567 1.418l-.766-2.546-.102 2.445c-.105 2.538-2.162 13.813-4.74 25.987-2.465 11.638-9.108 17.864-17.255 16.174zm-97.759-164.26c.356-.574-.478-1.018-1.916-1.018-1.4 0-2.83.459-3.176 1.019-.355.575.479 1.018 1.917 1.018 1.4 0 2.829-.458 3.175-1.018zm-.51-9.86c1.148-.396.948-.75-.805-1.425-1.535-.592-3.015-.473-4.327.346-4.125 2.576-1.076 3.217 5.133 1.079zm37.22-24.786c7.127-3.402 8.382-4.636 12.18-11.975 5.25-10.146 4.458-35.457-1.464-46.755a257.129 257.129 0 0 1-3.657-7.293c-.895-1.881-1.845-3.203-2.11-2.937-.266.265.678 5.85 2.096 12.411 3.538 16.362 3.603 31.438.168 38.752-3.236 6.888-4.748 8.017-16.365 12.223-5.517 1.997-12.37 4.646-15.23 5.887l-5.2 2.256 4.074.678c7.901 1.314 18.879-.083 25.507-3.247zm-84.026-20.52c-4.17-4.27-8.389-9.986-11.032-14.946-3.986-7.481-4.28-8.581-4.28-16.064 0-4.418.451-9.603 1.002-11.522 1.694-5.907.213-4.781-3.142 2.388-3.284 7.017-5.028 17.962-3.453 21.67.432 1.017.873 2.644.981 3.616.108.972.961 2.612 1.896 3.644.934 1.032 1.707 2.3 1.717 2.815.021 1.085 4.007 7.234 10.91 16.831l4.838 6.728 3.658-4.122 3.658-4.122-6.753-6.915z" />
</svg>