<svg xmlns="http://www.w3.org/2000/svg" width="500" height="500" version="1.0">
  <style>
    @media (prefers-color-scheme: light) {
      path {
        fill: #000000;
      }
    }

    @media (prefers-color-scheme: dark) {
      path {
        fill: #FFFFFF;
      }
    }
  </style>
  <path
    d="M72.43 426.803 0 353.607V146.136l73.063-73.068L146.125 0H352.592l73.704 72.938L500 145.875v208l-73.068 73.062L353.864 500H144.861zm341.394-13.746 66.828-67.594v-190.93l-67.335-68.102-67.335-68.101h-191.7L86.307 86.3 18.33 154.272v191.446l67.461 67.468 67.462 67.467h193.743zm-321.923-4.964-65.424-65.43v-185.59L92.54 91.775l66.065-65.298h182.788l66.065 65.298 66.064 65.298v185.589l-65.424 65.43-65.425 65.431H157.326zm311.1-5.086 63.394-63.388V160.393l-63.388-63.394-63.388-63.394H159.362l-62.87 62.882-62.87 62.882-.03 90.606-.03 90.607 62.9 62.906 62.9 62.907h180.245z" />
  <path
    d="M213.897 272.336c-2.453-1.354-4.62-2.944-4.816-3.533-.664-1.99 9.344-6.17 14.775-6.17 7.552 0 16.001 4.09 16.001 7.746-2.394 4.213-5.55 10.733-10.385 12.254-6.216-1.023-10.27-7.065-15.575-10.297zm401.487 356.382c-.857-3.712 2.718-6.42 2.999-9.893-.75-.75-7.526 5.893-7.526 7.379 0 1.31-5.66 2.756-7.161 1.829-1.357-.838-.047-5.987 3.155-12.4 2.377-5.015 4.266-10.15 7.175-14.894 2.791-4.368 2.931-5.099 2.7-14.106-.212-8.193.135-10.585 2.517-17.383 7.359-17.376.72-45.839-10.818-53.71-1.963-1.158-3.568-2.46-3.568-2.895 0-1.276-14.09-7.598-20.035-8.988-3.006-.703-6.14-1.84-6.965-2.525-1.86-1.546-6.86-3.164-13.83-4.475-12.68-2.79-23.884-9.615-32.134-19.524-36.676.218-73.495.076-110.036 3.542l-23.917.458-4.791 4.61c-7.206 7.857-20.414 7.224-30.792 8.975-12.867 1.882-26.154 1.297-37.241 8.94-1.233.961-3.933 2.06-6 2.44-7.112 1.306-16.072 6.622-24.321 14.428-7.888 7.463-8.058 7.726-9.025 13.95-.738 6.857-5.161 12.086-9.145 17.386l-2.424-2.615c-3.083-3.324-4.153-3.295-4.925.136-2.725 12.098-4.647 16.277-9.901 21.532-9.693 7.511-22.825 10.696-30.516 6.768 2.696-6.32 7.503-11.303 10.805-17.3.955-1.992-3.203-.307-9.253 3.75-6.416 4.302-10.763 5.588-12.02 3.555 8.343-25.222 31.143-45.854 50.966-62.349 6.508-5.703 18.363-14.524 20.213-22.327-8.916-.169-15.224 7.743-23.448 10.308-12.805 3.344-19.62 9.278-24.04 20.933-3.142 8.285-7.282 11.965-12.236 10.877-3.25-.714-4.203.502-6.534 8.331-4.736 13.374-17.126 22.702-30.875 24.846-5.916.553-6.58.432-6.58-1.201 1.507-5.482 6.443-9.47 7.554-15.253-3.82 1.902-6.681 5.283-10.78 6.78-1.606 0-1.772-.519-1.198-3.75 2.39-10.955 8.538-20.424 15.717-28.877 8.071-5.482 12.785-19.675 18.942-22.373 11.143-4.211 17.975-15.425 24.83-24.594 5.398-7.847 8.954-9.759 32.292-17.365 8.554-2.788 12.425-5.067 15.73-9.26 4.313-5.474 5.114-7.631 4.4-11.856-.733-4.34-2.708-5.145-4.719-1.925-1.855 2.97-3.01 2.522-8.362-3.25-6.244-6.735-13-10.5-20.243-11.282-20.37.394-38.748 9.125-58.977 11.131-8.813.66-9.864.518-19.5-2.631-9.144-2.988-18.573-8.17-18.655-10.254-.06-1.518 9.17-4.707 14.562-5.031 7.837-.47 8.526-1.695 3.872-6.89-5.528-6.169-9.74-9.76-11.465-9.775-6.77 2.839-12.035 7.197-19.657 7.295-8.103-.106-14.114-3.139-20.732-10.462-5.593-6.188-10.62-15.18-10.596-18.951.03-4.556 1.17-5.135 9.611-4.875 10.504.324 9.846.498 14.646-3.894 5.817-5.321 18.2-13.082 22.05-13.817 31.526-12.965 56.755-50.465 78.662-74.929-.034-3.808-4.482-9.856-9.11-12.385-11.687-6.388-13.75-9.87-7.898-13.327 3.256-1.924 21.595-2.46 22.199-.65.187.563 1.93 1.282 3.87 1.597 3.398.55 3.69.344 7.805-5.522 3.748-5.343 6.673-8.098 8.596-8.098.433 2.653-.524 5.444.203 8 .497 0 4.042-2.511 7.878-5.58 11.029-8.826 13.101-9.284 11.85-2.619l-.683 3.646c8.765-5.46 19.27-11.303 29.31-11.945.892 4.24-4.567 8.796-2.186 12.498 13.61-3.76 27.45-10.51 41.853-9.663-11.58 13.684 10.296 4.752 23.54 4.875 10.965.34 11.796 1.461 4.594 6.199-14.686 7.722.604 6.248 8.945 5.389 26.25-.004 36.612 1.296 38.966 4.889 2.738 3.439-3.75 6.64 2.534 7.31 11.98.66 29.261 4.75 31.282 7.573 4.507.845 4.377 1.923-.532 4.428-2.2 1.122-4 2.395-4 2.83 0 .434 2.813 1.334 6.25 2 10.485 1.661 20.969 4.701 29.75 10.879-2.162 2.187-5.503 2.902-7.718 4.906 49.165 9.626 91.991 34.506 134.718 59.156 10.785 6.452 20.452 14.52 23.158 19.327 5.746 10.21 16.255 13.294 28.478 8.358 9.425-3.805 20.03-4.44 26.598-1.593 8.259 4.292 14.716 11.594 19.266 19.637l.101 22c.11 23.688.48 25.93 5.76 34.766 4.329 7.245 2.042 12.123-4.124 8.797-.955-.515-5.037-2.175-9.07-3.69-10.525-3.56-16.858-12.708-18.172-23.616.003-1.79-1.036-3.67-2.996-5.416-7.112-7.558-5.83-14.42-3.696-22.274 2.112-5.822 2.864-11.572.262-15.771-8.806 2.116-16.93 4.733-31.39 2.704-5.778 37.204-13.93 77.602 33.381 84.582 6.74.476 11.826 2.535 13.795 5.584.83 1.284 2.85 5.709 4.492 9.834 7.435 18.683 21.16 47.629 25.13 53 3.052 4.127 4.475 6.938 6.52 12.875 2.472 7.178 2.095 8.793-2.243 9.597-4.356.808-9.799 3.91-10.622 6.055 1.25 10.335 6.25 13.084 3.933 23.474-1.677 8.389-8.97 20.999-12.145 20.999-.74 0-2.92 1.382-4.845 3.072-3.263 2.864-3.687 2.98-6.285 1.714-2.737-1.333-2.78-1.493-2.469-9.072.255-6.208.035-7.714-1.128-7.714-1.497 0-2.38 1.827-5.194 10.75-1.629 5.164-3.247 6.348-6.133 4.484-3.548-6.425-5.327-13.808-7.79-20.734-7.14-16.31 1.373-29.172 11.392-42.19-3.302-13.944-7.55-28.07-16.617-39.42-3.855-3.533-8.991-5.89-12.835-5.89-10.514-1.708-20.132-6.845-30.48-9.12 4.109 7.094 6.084 15.209 9.078 22.827 4.99 10.997 2.687 23.65 6.958 34.826 2.953 6.267 1.676 9.725-5.662 15.333-4.09 3.126-4.406 3.7-4.405 8 1.044 8.015 4.037 15.115 3.838 23.316-.417 9.227-1.674 11.266-11.087 17.99-6.076 4.34-7.111 4.722-14.541 5.37-7.613.664-8.033.593-8.684-1.457zm-395.092-246.11c-3.45-1.311-20.142-1.259-20.96.066-.729 1.179 5.464 9.88 7.065 9.928 4.747-.326 21.933-4.745 13.895-9.994z"
    transform="matrix(.60702 0 0 .60283 -12.158 -7.616)" />
</svg>