<svg xmlns="http://www.w3.org/2000/svg" width="500" height="500">
  <style>
    @media (prefers-color-scheme: light) {
      path {
        fill: #000000;
      }
    }

    @media (prefers-color-scheme: dark) {
      path {
        fill: #FFFFFF;
      }
    }
  </style>
  <path
    d="M72.43 426.803 0 353.607V146.136l73.063-73.068L146.125 0H352.592l73.704 72.938L500 145.875v208l-73.068 73.062L353.864 500H144.861l-72.43-73.197zm341.394-13.746 66.828-67.594v-190.93l-67.335-68.102-67.335-68.101h-191.7L86.307 86.3 18.33 154.272v191.446l67.461 67.468 67.462 67.467h193.743l66.828-67.595zm-321.923-4.964-65.424-65.43v-185.59L92.54 91.775l66.065-65.298h182.788l66.065 65.298 66.064 65.298v185.589l-65.424 65.43-65.425 65.431H157.326l-65.425-65.43zm269.36 37.172c24.085-23.22 23.865-22.775 10.23-20.66-8.503 1.32-8.498 1.324-9.496-7.273-.609-5.244-.384-6.435 1.978-10.465 1.466-2.501 3.334-4.922 4.152-5.38 1.138-.637 1.847-5.593 3.028-21.17.847-11.185 1.544-20.681 1.548-21.101.017-1.713-5.402-.539-15.703 3.403-2.76 1.057-5.086 1.811-5.17 1.677-.082-.134-1.173-1.945-2.424-4.024l-2.273-3.781-5.563 5.563c-3.06 3.06-6.127 5.563-6.816 5.563-.689 0-2.361-2.09-3.717-4.645-2.85-5.373-11.623-13.685-14.445-13.685-1.06 0-1.926.38-1.926.842 0 1.212-11.92 3.234-18.957 3.216-3.337-.008-7.12-.665-8.538-1.483-1.4-.808-3.462-1.894-4.582-2.414-1.12-.52-2.91-1.915-3.977-3.099-1.067-1.184-2.98-2.153-4.252-2.153-4.741 0-26.089 11.861-34.282 19.048-7.201 6.317-23.067 23.758-25.85 28.415-1.052 1.763-1.305 1.603-2.988-1.893-1.012-2.1-2.098-3.819-2.414-3.818-.777 0-9.125 9.747-12.18 14.22-3.999 5.856-6.186 11.668-6.876 18.27l-.649 6.206h-21.966l-.708-5.665c-1.204-9.637.292-19.55 3.91-25.904 4.907-8.614 7.833-11.348 29.974-28.007 11.327-8.523 20.333-15.757 20.013-16.077-.32-.32-.066-2.984.563-5.92 1.465-6.828.524-7.909-4.996-5.74l-4.12 1.618 1.794-3.045c1.843-3.128 7.674-10.544 11.973-15.228 1.46-1.59 5.6-3.709 10.38-5.313 4.375-1.468 7.348-2.684 6.607-2.702-1.938-.048-25.473-11.753-36.89-18.348-6.314-3.647-12.217-8.116-16.836-12.745-6.426-6.44-7.582-8.259-11.972-18.839-7.413-17.866-8.345-20.063-13.383-31.568-8.446-19.283-16.316-28.232-25.776-29.309-3.605-.41-4.82-.075-6.937 1.914-4.303 4.042-6.325 8.265-7.054 14.725-.66 5.854-.479 6.602 3.551 14.617 2.336 4.646 4.104 8.514 3.928 8.596-2.256 1.056-22.62 7.72-22.858 7.48-.18-.178-.795-3.636-1.37-7.683-.573-4.048-2.188-9.618-3.587-12.38-1.413-2.787-2.544-6.777-2.544-8.968 0-3.673 2.534-12.59 4.855-17.086.553-1.07 2.944-5.993 5.313-10.94 5.81-12.124 7.606-13.25 19.872-12.445 8.515.557 21.876 3.315 25.09 5.178.762.442.255-.438-1.129-1.956-2.562-2.811-11.01-8.975-16.36-11.936-1.627-.901-4.546-2.849-6.485-4.328-1.94-1.479-3.845-2.689-4.236-2.689-.39 0-2.942-1.604-5.67-3.564-2.73-1.96-5.456-3.564-6.06-3.564-.603 0-5.142-2.77-10.085-6.156-9.39-6.431-14.031-7.934-29.81-9.649-6.453-.701-11.955-4.249-11.955-7.707 0-1.07-.344-1.932-.764-1.915-.42.018-7.308 6.319-15.306 14.002l-14.543 13.97.01 90.607.01 90.607 62.9 62.906 62.9 62.907h179.98l21.918-21.13zm105.134-195.257v-89.615l-63.388-63.394-63.388-63.394-90.125-.041-90.125-.042-41.423 42.048c-41.296 41.92-41.414 42.05-38.696 43.274 1.499.675 3.9 1.248 5.335 1.273 2.918.051 18.235 5.033 22.889 7.444 1.658.859 4.298 2.753 5.866 4.209 2.77 2.572 7.138 5.367 15.447 9.886 2.224 1.209 5.202 2.975 6.62 3.925 11.598 7.773 25.405 15.842 25.908 15.14.132-.183 1.215-1.748 2.407-3.476 1.828-2.651 3.566-3.51 11.126-5.498 4.928-1.296 10.556-3.433 12.507-4.75 1.95-1.317 4.055-2.394 4.679-2.394.623 0 1.954-.907 2.957-2.016 1.463-1.617 1.545-2.11.412-2.491-11.648-3.929-19.775-6.923-22.221-8.188-4.21-2.177-12.592-1.947-19.59.537-8.113 2.88-13.122 2.377-14.974-1.505-2.008-4.207-.518-7.729 3.948-9.338 1.96-.706 2.746-1.319 1.746-1.362-3.332-.142-6.765-3.24-7.412-6.688-.705-3.754.504-6.71 4.518-11.046 3.517-3.8 6.79-5.43 17.34-8.638 7.65-2.325 10.592-2.665 23.268-2.694l14.51-.033.001-2.677c0-3.258-2.442-9.307-5.344-13.232-1.182-1.598-1.93-3.123-1.664-3.39 1.048-1.048 11.479 2.513 13.851 4.728 1.384 1.293 3.662 4.298 5.062 6.678 1.4 2.38 2.743 4.328 2.983 4.328.24 0 4.887-4.19 10.327-9.31 12.486-11.755 17.453-15.394 35.523-26.03 10.548-6.207 26.903-8.5 34.2-4.795 3.568 1.812 10.798 7.365 15.185 11.663 5.73 5.614 8.501 16.207 5.976 22.85-1.353 3.558-8.15 9.685-10.751 9.69-1.787.005-2.027-.508-1.67-3.565.808-6.922-.483-10.115-5.166-12.782-3.762-2.142-5.622-2.459-14.5-2.472-10.18-.014-10.184-.014-17.355 4.305-7.242 4.36-15.889 12.063-19.96 17.78l-2.212 3.108 2.961-1.862c1.63-1.024 4.566-3.061 6.526-4.526 7.554-5.646 13.845-8.127 20.61-8.127 8.183 0 11.976 1.124 16.77 4.967 2.124 1.705 5.758 3.766 8.074 4.58 6.44 2.267 11.95 6.13 16.288 11.424 3.893 4.75 3.936 4.9 3.931 13.556-.004 7.507-.389 9.476-2.707 13.844-1.486 2.8-4.233 6.562-6.103 8.359l-3.4 3.267.336-7.633c.314-7.123.12-7.971-2.907-12.687-1.783-2.78-3.586-5.054-4.006-5.054-.42 0-2-1.145-3.51-2.546-1.511-1.4-3.663-2.545-4.782-2.545-1.12 0-3.47-.742-5.222-1.648-4.344-2.247-11.285-2.066-18.606.484-17.644 6.144-16.96 5.802-15.02 7.503 3.444 3.02 8.346 4.862 12.933 4.862 2.548 0 4.633.272 4.633.603 0 1.216-4.299 6.022-6.949 7.77-1.499.988-4.33 1.853-6.29 1.921l-3.564.124 4.074.991c2.24.546 7.211 1.295 11.046 1.665l6.974.674-2.305 2.92c-1.267 1.606-3.598 3.464-5.18 4.13-2.842 1.195-2.801 1.23 3.662 3.078 6.474 1.851 6.523 1.892 4.998 4.219-.847 1.292-3.565 3.123-6.04 4.068-2.475.946-4.5 2.053-4.5 2.461 0 1.366 4.206 6.11 5.42 6.114.66.002 3.33 1.085 5.935 2.407l4.735 2.402-6.537 2.685c-3.596 1.477-7.216 2.685-8.045 2.685-1.032 0-1.508 1.08-1.508 3.422 0 3.348.111 3.435 5.098 4.026 3.302.391 6.39 1.59 8.767 3.403l3.67 2.799-2.341 1.896c-1.676 1.357-3.655 1.815-6.964 1.611l-4.622-.284-2.322 8.62c-4.436 16.467-4.659 18.106-3.32 24.411 1.619 7.632 7.072 15.013 13.291 17.992 5.754 2.757 16.639 5.707 35.077 9.507 7.842 1.616 16.28 3.656 18.751 4.532 4.926 1.748 11.749 6.88 17.613 13.25 3.433 3.729 3.78 3.89 3.819 1.777.067-3.764 4.816-12.076 8.327-14.576 2.87-2.043 4.513-2.322 14.03-2.38 10.056-.063 11.065.118 15.023 2.692 6.384 4.152 6.415 5.001.156 4.34-7.647-.807-10.142.761-11.946 7.509-1.77 6.624-6.939 11.274-15.672 14.101l-5.907 1.912 2.518 3.711c4.475 6.595 6.778 13.193 8.011 22.96 1.2 9.497 1.226 9.559 3.793 8.962 7.484-1.743 16.67-2.772 19.686-2.206 4.345.815 9.547 5.873 10.989 10.686 2.293 7.652-.257 37.707-4.76 56.121-1.439 5.88-3.693 15.7-5.01 21.818l-2.395 11.126 39.644-39.634 39.644-39.634v-89.615z" />
</svg>