<svg xmlns="http://www.w3.org/2000/svg" width="500" height="500">
  <style>
    @media (prefers-color-scheme: light) {
      path {
        fill: #000000;
      }
    }

    @media (prefers-color-scheme: dark) {
      path {
        fill: #FFFFFF;
      }
    }
  </style>
  <path
    d="M72.43 426.803 0 353.607V146.136l73.063-73.068L146.125 0H352.592l73.704 72.938L500 145.875v208l-73.068 73.062L353.864 500H144.861l-72.43-73.197zm341.394-13.746 66.828-67.594v-190.93l-67.335-68.102-67.335-68.101h-191.7L86.307 86.3 18.33 154.272v47.04c0 34.46.314 47.236 1.176 47.768.72.445.9.28.462-.428-.827-1.338.704-4.558 4.114-8.658l2.395-2.878v-80.042L92.54 91.775l66.065-65.298h182.788l66.065 65.298 66.064 65.298v185.589l-65.424 65.43-65.425 65.431H157.326l-65.425-65.43-65.424-65.43v-89.707l-4.07.05-4.07.049-.004 46.331-.003 46.331 67.461 67.468 67.462 67.467h193.743l66.828-67.595zm-45.189 24.316 29.01-29.023h-15.012l.49-4.837c.352-3.469 1.959-7.237 5.68-13.321 6.725-11 7.77-14.265 7.712-24.102-.098-16.792-1.411-36.08-2.816-41.37-2.062-7.77-2.43-8.484-5.571-10.807-3.35-2.476-17.966-9.432-19.82-9.432-.716 0-1.737-.422-2.27-.938-1.316-1.277-13.136-5.172-15.694-5.172-3.8 0-1.113 6.246 6.498 15.103 2.566 2.986 4.665 5.99 4.665 6.673 0 1.991-7.55 16.944-11.476 22.727-1.978 2.914-5.552 7.617-7.942 10.452-4.518 5.358-7.596 10.049-15.89 24.217-2.704 4.618-5.463 8.399-6.132 8.4-.669.003-2.447 1.063-3.95 2.356-3.215 2.765-5.189 11.426-2.812 12.337.747.287 1.359 1.224 1.359 2.082 0 1.323-2.081 1.559-13.748 1.559-15.923 0-16.51-.478-10.204-8.322a770.636 770.636 0 0 0 7.628-9.698c2.247-2.91 4.72-5.66 5.494-6.11.774-.45 5.186-6.776 9.804-14.057 4.618-7.281 10.404-16.07 12.857-19.531 2.454-3.461 4.462-6.98 4.462-7.82 0-.84 1.986-5.807 4.413-11.036 3.3-7.11 4.135-9.847 3.31-10.851-2.086-2.539-8.711-8.605-10.62-9.724-6.007-3.52-18.132-12.306-19.314-13.993-.76-1.085-2.536-3.215-3.945-4.733-1.41-1.518-3.65-4.593-4.978-6.834-1.328-2.24-4.055-5.18-6.06-6.532-3.243-2.188-4.632-2.437-12.616-2.26-4.934.109-10.516.64-12.405 1.183-5.67 1.626-39.25 2.38-46.746 1.049a627.022 627.022 0 0 0-12.503-2.071c-3.236-.493-7.819-1.58-10.184-2.417-2.364-.836-7.736-2.544-11.936-3.795-15.641-4.659-36.28-12.88-50.917-20.281-3.08-1.558-6.62-3.14-7.864-3.517-1.245-.376-5.963-2.78-10.483-5.341l-8.22-4.657-4.137 1.866c-4.762 2.147-14.5 13.042-17.29 19.342-1.006 2.275-2.527 6.858-3.38 10.183-1.173 4.582-2.409 6.787-5.101 9.102l-3.553 3.055 1.66 6.15c1.445 5.357 1.475 6.532.227 9.123-1.55 3.223-12.343 9.976-15.104 9.451-1.913-.363-2.835-11.14-1.24-14.501.542-1.142 2.62-6.201 4.616-11.242 4.28-10.807 11.685-26.245 16.362-34.114 1.83-3.08 5.94-10.012 9.132-15.403 7.92-13.374 9.53-14.124 23.793-11.07 5.66 1.212 11.08 2.05 12.044 1.864.963-.187-4.284-3.23-11.661-6.764-11.113-5.322-14.591-6.52-20.283-6.981-11.138-.903-19.4 3.345-32.63 16.777-6.82 6.923-12.636 11.359-18.792 14.331-4.255 2.055-4.838 2.724-4.843 5.555-.01 5.431-1.89 10.582-4.073 11.153-1.956.511-2.016 1.695-2.275 44.666l-.265 44.141 63.133 63.391 63.134 63.391h180.263l29.01-29.022zm97.721-187.37.04-89.61-63.389-63.394-63.388-63.394H159.362L96.47 96.504l-62.893 62.9.27 33.438.268 33.439 8.147-7.32c8.882-7.982 23.827-19.342 36.729-27.919 13.76-9.147 13.606-9.097 23.661-7.76 4.813.641 9.113 1.389 9.555 1.662 3.507 2.168 27.743 6.033 30.703 4.897.88-.337 2.512-2.52 3.626-4.85 4.637-9.696 5.198-19.877 1.213-22.01-2.48-1.327-3.145-.454-3.145 4.126 0 2.836-.49 3.99-1.882 4.433-1.035.328-2.4 1.734-3.033 3.123-1.24 2.72-3.8 3.213-6.345 1.221-2.441-1.909-6.052-10.156-6.052-13.822 0-3.587 3.144-10.591 6.303-14.043l2-2.185-5.425-.739c-8.895-1.211-9.326-4.555-1.42-10.997 5.502-4.48 5.519-4.512 3.056-5.635-1.648-.75-2.477-1.968-2.477-3.636 0-3.456-1.417-4.018-5.197-2.064-2.656 1.374-3.372 1.426-4.088.296-1.56-2.462-.95-4.503 2.257-7.543 1.736-1.645 4.215-5.167 5.509-7.828l2.353-4.837h-2.985c-2.21 0-3.291-.673-4.166-2.592-1.039-2.28-.855-2.918 1.523-5.296 2.274-2.275 3.8-2.77 9.604-3.116 3.795-.226 7.271-.756 7.724-1.179.454-.422-.334-2.842-1.75-5.378l-2.573-4.61 4.805-2.12c2.642-1.165 4.232-2.134 3.532-2.152-.794-.02-1.273-1.521-1.273-3.99 0-3.096.553-4.318 2.546-5.624 1.4-.917 2.546-2.345 2.546-3.172 0-2.475 1.948-1.7 2.639 1.05.374 1.492 1.596 2.795 2.937 3.132 3.16.793 10.456-1.264 15.023-4.234 2.088-1.359 4.438-2.47 5.222-2.47.783 0 3.165-.727 5.292-1.616 2.44-1.02 5.4-1.417 8.016-1.077 15.49 2.01 15.624 2.008 18.466-.227 2.9-2.282 4.812-2.074 3.855.42-.925 2.41 1.641 4.536 5.475 4.536h3.54l-.68 5.86c-.627 5.398-.447 6.182 2.286 9.955 2.987 4.123 10.413 23.363 10.413 26.979 0 2.79 4.798 13.892 8.913 20.627 2.028 3.318 2.209 4.37 1.314 7.637-1.886 6.893-4.559 10.054-10.039 11.874-6.867 2.28-9.823 1.387-11.807-3.57-.87-2.176-1.693-5.395-1.827-7.154-.134-1.76-.83-3.423-1.545-3.698-.716-.275-1.302-1.124-1.302-1.888 0-2.047-10.699-6.837-13.374-5.988-2.06.654-2.15 1.145-1.578 8.572 1.514 19.635 7.353 27.709 29.713 41.086 1.118.668 3.18 1.952 4.583 2.851 2.477 1.589 20.834 10.852 26.99 13.62 11.04 4.963 24.917 6.627 38.696 4.64 16.192-2.334 22.858-2.36 36.151-.137 23.993 4.01 25.867 3.336 46.084-16.574 13.6-13.393 14.216-13.856 21.25-15.95 5.366-1.598 8.996-2.036 13.998-1.689 9.403.653 11.78 1.405 20.61 6.514l7.747 4.482 5.831 12.537c5.741 12.342 5.825 12.654 5.382 20.06-.247 4.137-.965 9.423-1.594 11.746-1.586 5.85-7.691 15.995-14.005 23.27-4.316 4.974-6.646 6.667-12.526 9.102-3.973 1.646-8.351 4.17-9.73 5.609l-2.507 2.616 2.013 3.18c2.505 3.956 5.557 4.626 15.815 3.476 12.613-1.415 21.364.738 25.868 6.362 2.145 2.678 2.546 4.252 2.546 9.986 0 8.17-1.921 11.095-7.286 11.095-3.68 0-4.006-.625-2.289-4.393.874-1.919.76-3.146-.527-5.634-2.814-5.442-10.441-5.862-12.096-.665-2.089 6.556-8.78 10.111-9.723 5.166-.476-2.493-3.99-5.426-7.284-6.081-1.4-.279-6.28-.803-10.843-1.166-7.846-.623-8.516-.87-12.34-4.544-5.208-5.004-7.694-8.681-9.295-13.748-1.357-4.293-1.49-3.647 3.57-17.145 1.6-4.266 6.836-11.487 10.068-13.885 8.602-6.38 15.318-15.012 14.264-18.333-.332-1.044-2.418-3.538-4.636-5.542-3.281-2.964-4.832-3.643-8.324-3.643-4.145 0-12.168 2.375-14.808 4.383-1.928 1.467-7.547 4.65-10.426 5.905-1.4.611-4.925 2.194-7.832 3.517l-5.286 2.407 2.602 9.46c2.113 7.68 2.395 10.015 1.5 12.41-.607 1.622-.89 3.295-.63 3.717.261.422.936 5.22 1.5 10.661.578 5.57 1.921 11.917 3.073 14.52 3.538 8 17.67 25.948 23.304 29.598 2.791 1.81 5.342 4.13 5.668 5.156.326 1.027 1.497 2.686 2.603 3.687 1.864 1.686 2.012 3.207 2.029 20.755.011 12.534.513 21.276 1.484 25.857.806 3.806 1.775 11.41 2.153 16.897l.687 9.977-5.203 5.746c-2.861 3.16-5.471 7.012-5.799 8.56a607.383 607.383 0 0 0-1.04 5.022c-.244 1.214.129 2.444.828 2.733.726.3 14.466-12.875 32.036-30.72l30.766-31.246.039-89.61z" />
</svg>