<svg xmlns="http://www.w3.org/2000/svg" version="1.0" width="500" height="500">
  <style>
    @media (prefers-color-scheme: light) {
      path {
        fill: #000000;
      }
    }

    @media (prefers-color-scheme: dark) {
      path {
        fill: #FFFFFF;
      }
    }
  </style>
  <path
    d="M72.43 426.803 0 353.607V146.136l73.063-73.068L146.125 0H352.592l73.704 72.938L500 145.875v208l-73.068 73.062L353.864 500H144.861zm341.394-13.746 66.828-67.594v-190.93l-67.335-68.102-67.335-68.101h-191.7L86.307 86.3 18.33 154.272v191.446l67.461 67.468 67.462 67.467h193.743zm-321.923-4.964-65.424-65.43v-185.59L92.54 91.775l66.065-65.298h182.788l66.065 65.298 66.064 65.298v185.589l-65.424 65.43-65.425 65.431H157.326zm311.1-5.086 63.394-63.388V160.393l-63.388-63.394-63.388-63.394H159.362l-62.87 62.882-62.87 62.882-.03 90.606-.03 90.607 62.9 62.906 62.9 62.907h180.245z" />
  <path
    d="M227.336 406.504c-1.32-.545-2.718-1.967-3.212-3.264-.974-2.562 3.273-8.826 8.216-12.116 3.018-2.01 4.012-3.345 5.176-6.95 1.439-4.456 2.183-16.306 1.292-20.56-.425-2.025-.719-6.658-.719-11.334 0-9.687-1.51-27.67-2.92-34.793-.575-2.9-1.524-7.881-2.11-11.071-1.095-5.96-2.65-11.122-4.05-13.443-3.96-6.559-7.281-10.77-12.164-15.415-5.401-5.139-7.423-6.538-8.49-5.875-1.938 1.204-2.648 8.57-1.181 12.256.742 1.864.742 2.225 0 3.832-.45.976-1.231 2.392-1.736 3.147-2.502 3.732-3.126 4.602-4.879 6.8-1.721 2.158-5.744 8.67-5.744 9.297 0 .458-5.298 9.293-6.607 11.017-.694.915-1.261 1.863-1.261 2.106 0 .244-.431.934-.958 1.532-.526.598-2.071 2.868-3.433 5.042-1.361 2.175-3.422 5.259-4.58 6.854-1.157 1.594-2.594 3.848-3.194 5.008-.6 1.16-2.009 3.216-3.132 4.57-2.488 3.002-6.14 9.864-6.967 13.09-.334 1.305-.464 3.084-.288 3.954.622 3.078-.989 5.535-3.628 5.535-1.331 0-2.265 1.755-4.231 7.954-.934 2.946-2.09 5.4-3.074 6.526-1.196 1.369-1.667 2.545-1.95 4.865-.207 1.684-.58 3.611-.83 4.285-.669 1.795-9.083 11.912-11.704 14.07-3.18 2.618-5.938 2.704-9.666.298-6.523-4.206-5.666-9.19 2.82-16.404 7.601-6.463 11.721-12.793 13.422-20.623 1.06-4.884 3.48-13.013 4.133-13.886.217-.29.833-1.714 1.369-3.164.536-1.45 1.513-3.44 2.172-4.422.658-.983 1.197-2.071 1.197-2.42 0-.613 2.663-5.979 8.38-16.88 3.096-5.906 5.2-11.089 9.204-22.67 1.504-4.348 3.38-9.676 4.17-11.837 1.368-3.742 1.426-4.285 1.213-11.334-.22-7.312-.254-7.484-2.653-13.73-5.856-15.245-6.654-18.878-7.135-32.466l-.328-9.268-2.064-3.384c-1.135-1.86-3.097-4.668-4.359-6.237-3.49-4.343-3.973-5.547-3.596-8.962.3-2.719.184-3.18-1.516-6.003-1.012-1.681-1.84-3.27-1.84-3.531 0-1.265-6.877-5.266-10.381-6.039-2.135-.471-4.23.657-8.482 4.567-1.864 1.714-5.107 4.192-7.208 5.508-3.437 2.153-4.246 2.43-8.07 2.76-5.164.446-6.442-.036-6.68-2.517-.209-2.174 1.23-3.875 3.99-4.721 4.002-1.226 6.757-3.805 6.053-5.666-.138-.366-2.333-.565-6.095-.55-5.429.019-6.168-.104-9.685-1.614-6.486-2.783-12.43-8.58-12.342-12.037.022-.876.596-2.526 1.276-3.667 1.308-2.198 9.669-10.89 13.452-13.985 1.238-1.013 2.632-2.553 3.098-3.423 1.249-2.33 2.245-8.787 1.718-11.135-.782-3.488 1.964-7.316 9.343-13.018 10.208-7.888 16.26-10.756 24.213-11.47 12.424-1.118 14.43-.612 22.322 5.628 3.529 2.79 5.132 3.372 9.287 3.372 12.366 0 22.285 8.487 18.505 15.833-.437.85-.935 2.572-1.106 3.827-.304 2.228-.225 2.382 3.488 6.73 2.09 2.448 4.064 4.596 4.386 4.775.926.515 11.836 1.116 21.566 1.19 4.905.037 11.453.41 14.552.832 6.923.94 9.207.553 19.018-3.221 3.75-1.443 8-2.846 9.443-3.116 1.442-.271 5.1-1.307 8.13-2.302 14.95-4.909 37.129-7.922 55.725-7.571 6.227.118 14.55 1.899 16.137 2.538 1.587.639 4.183 1.76 5.77 2.492 2.9 1.337 4.486 1.85 9.008 2.913 2.168.51 2.825.428 5.695-.706 6.929-2.736 10.127-8.705 12.92-12.992 6.83-10.49.066-26.08-7.69-30.901-4.229-2.628-10.85-3.413-14.425-1.71-3.275 1.56-4.983 3.028-4.983 4.284 0 1.462 1.76 3.723 3.672 4.717 1.709.888 5.245 7.785 5.245 10.228 0 2.118-1.835 4.269-3.64 4.269-2.938 0-12.931-5.994-16.003-9.599-2.153-2.525-3.437-6.233-3.437-8.119 0-.682.418-3.29 1.569-5.795 4.192-9.119 12.539-14.714 22.898-15.348 5.722-.35 13.784 2.588 17.317 4.79 7.17 4.473 13.284 11.535 16.032 18.519 5.662 14.39-.54 30.214-3.224 34.267-.768 1.16-6.618 10.604-11.919 15.958-2.374 2.397-4.46 4.812-4.635 5.365-.498 1.578.93 4.187 4.584 8.374 3.545 4.062 4.507 6.143 6.671 14.444 2.193 8.41 1.153 21.508-3.61 45.479-.576 2.9-1.313 7.644-1.638 10.543-.324 2.9-.808 6.561-1.074 8.137-.908 5.385-.229 12.383 1.939 19.97.44 1.542 1.128 4.066 1.528 5.608 1.593 6.147 8.204 17.61 13.213 22.909 3.58 3.787 4.178 5.291 3.31 8.317-.943 3.285-1.812 43.902-1.038 48.513.626 3.724.423 7.217-.522 9.006-.261.496-.768 2.057-1.125 3.47-.445 1.757-1.37 3.334-2.925 4.988-1.25 1.331-2.274 2.681-2.274 3 0 .318-.7 1.253-1.555 2.077-1.197 1.152-2.085 1.509-3.853 1.549-3.128.069-4.034-.809-4.034-3.904 0-1.378-.374-3.407-.831-4.506-.793-1.907-.758-2.335.756-9.16 5.702-25.718 4.826-35.702-4.934-56.185-3.254-6.828-4.372-8.567-8.173-12.708-1.358-1.48-3.287-3.975-4.286-5.545-3.412-5.36-6.14-7.486-6.134-4.78.001.49.718 2.79 1.594 5.11.876 2.319 2.29 6.233 3.142 8.698.852 2.465 2.848 7.03 4.437 10.146 3.019 5.92 3.41 7.83 2.356 11.471-1.44 4.973-2.75 13.09-3.143 19.502-.325 5.27-.778 8.146-1.746 11.082-.719 2.18-1.562 5.739-1.872 7.907-.31 2.17-.91 4.893-1.333 6.052-.422 1.16-.779 3.246-.791 4.634-.029 3.157-1.632 6.419-3.674 7.481-2.124 1.103-12.565 1.125-14.67.03-2.323-1.207-2.442-2.298-.848-7.785.99-3.408 1.02-3.437 4.945-4.894 2.658-.986 2.985-1.303 4.63-4.481 1.757-3.395 1.772-3.484 2.066-12.381.308-9.286.241-9.966-2.429-24.778-.575-3.19-1.048-6.68-1.052-7.757-.013-3.657-2.918-10.477-7.48-17.553-4.466-6.93-8.767-16.588-10.584-23.77-.448-1.77-1.202-4.142-1.675-5.273-.473-1.13-2.157-5.732-3.74-10.226a5867.842 5867.842 0 0 0-4.195-11.862c-1.864-5.236-2.12-10.27-.713-13.97.607-1.595 1.104-3.396 1.104-4.004 0-1.662-1.785-3.042-3.406-2.634-1.352.342-1.663.857-2.885 4.793-.949 3.057-2.95 5.535-4.468 5.535-1.402 0-3.009-1.483-3.915-3.613-.911-2.143-4.055-4.296-6.26-4.287-3.693.013-11.357 1.998-15.521 4.018-4.279 2.076-7.022 4.463-10.902 9.485-5.133 6.648-7.317 9.135-10.664 12.15-3.779 3.405-13.514 10.715-14.27 10.715-.812 0-2.718 2.432-2.718 3.469 0 .565.472 1.913 1.049 2.995 1.405 2.635 1.33 4.3-.536 11.734l-1.585 6.316.537 21.087c.715 28.046 1.386 37.587 3.202 45.49 1.31 5.7 1.285 6.138-.565 9.95-2.445 5.036-3.41 10.554-4.16 23.778-.515 9.085-.941 10.252-4.1 11.215-2.14.651-18.26 1.223-19.545.693zM201.53 262.292c1.332-1.34.72-3.453-1.528-5.27-1.186-.958-3.8-3.225-5.81-5.037-2.022-1.822-4.146-3.295-4.753-3.295-2.902 0-4.108 4.3-1.876 6.687.628.672 1.345 1.22 1.595 1.22.466 0 1.771.885 6.417 4.348 2.694 2.007 4.819 2.487 5.955 1.347z" />
</svg>