<svg xmlns="http://www.w3.org/2000/svg" width="500" height="500">
  <style>
    @media (prefers-color-scheme: light) {
      path {
        fill: #000000;
      }
    }

    @media (prefers-color-scheme: dark) {
      path {
        fill: #FFFFFF;
      }
    }
  </style>
  <path
    d="M72.43 426.803 0 353.607V146.136l73.063-73.068L146.125 0H352.592l73.704 72.938L500 145.875v208l-73.068 73.062L353.864 500H144.861l-72.43-73.197zm324.276 2.88c27.408-28.031 49.987-51.667 50.176-52.524.19-.856.046-2.749-.32-4.207-.62-2.469-4.19.875-52.283 48.96l-51.618 51.611H157.326l-65.425-65.43-65.424-65.43v-185.36l13.238-13.21c8.252-8.233 13.652-14.461 14.336-16.533.875-2.652 1.648-3.324 3.822-3.324 2.239 0 11.46-8.735 51.597-48.88l48.872-48.88h183.052l65.934 65.17 65.935 65.17.541 46.592c.45 38.74.905 49.596 2.698 64.418 1.186 9.804 2.565 19.199 3.065 20.876.557 1.867.944-23.555.997-65.56l.088-68.609-67.335-68.102-67.335-68.101h-191.7L86.307 86.3 18.33 154.272v191.446l67.461 67.468 67.462 67.467h193.622l49.831-50.968zm-7.453-12.928c27.306-27.301 49.647-49.933 49.647-50.291 0-.359-2.176-.963-4.837-1.343-2.66-.38-7.237-1.43-10.17-2.334-2.934-.904-5.51-1.448-5.724-1.207-.849.95-24.878 33.613-29.385 39.943-5.61 7.879-18.36 18.74-25.106 21.387-6.81 2.673-16.734 3.989-20.206 2.679-1.562-.59-5.472-2.762-8.687-4.827-5.098-3.275-5.848-4.17-5.856-6.996-.01-3.618 1.197-4.68 12.212-10.75 10.104-5.568 22.86-17.165 28.67-26.063 2.745-4.207 4.635-7.965 4.2-8.35-.436-.387-9.27-7.03-19.632-14.763-20.291-15.144-30.01-23.594-35.642-30.986-3.54-4.649-3.587-4.671-7.128-3.437-1.96.683-4.82 1.268-6.354 1.3-1.534.031-5.155.956-8.047 2.055-2.892 1.099-14.01 3.67-24.705 5.714-10.697 2.045-21.596 4.354-24.222 5.131-2.625.777-5.49 1.414-6.364 1.414-.875 0-1.596.343-1.6.763-.006.42-1.157 7.409-2.557 15.53-3.093 17.936-5.214 39.656-6.066 62.118-.72 19.015-1.897 25.51-5.499 30.362-4.39 5.914-9.3 7.685-21.51 7.76-5.882.036-11.953-.287-13.494-.718-2.551-.713-2.8-1.212-2.8-5.617 0-6.238 2.352-10.395 8.53-15.077l4.967-3.762-.717-10.802c-.394-5.941-1.64-15.155-2.769-20.476-1.129-5.32-2.424-11.965-2.878-14.766-1.426-8.795-7.057-22.661-10.975-27.026-1.991-2.218-3.9-4.033-4.24-4.033-2.132 0-5.905 29.41-6.847 53.364-.81 20.62-.91 20.872-12.912 32.416-8.833 8.495-12.833 10.492-19.283 9.627l-4.117-.552 11.092 11.127 11.092 11.126H339.605l49.648-49.64zm-182.059 27.526c.582-2.316.144-3.223-2.69-5.573-4.232-3.512-4.715-3.517-6.02-.062-.582 1.54-2.26 4.06-3.73 5.6l-2.67 2.8h7.208c6.992 0 7.229-.082 7.902-2.765zm-55.922-5.738c1.933-1.877 3.505-4.283 3.493-5.346-.011-1.064-2.06-4.226-4.555-7.026l-4.533-5.092-5.629 5.766c-7.23 7.407-7.238 11.243-.028 13.846 5.211 1.882 7.566 1.432 11.252-2.148zm-13.153-13.285c3.408-5.634 3.804-7.058 4.233-15.234.527-10.04-.938-23.233-4.032-36.297-2.104-8.885-4.89-30.718-4.909-38.462-.011-5.046-7.054-20.123-23.181-49.623-14.27-26.104-19.2-37.153-21.127-47.353-.9-4.76-1.901-9.978-2.226-11.595-.606-3.014-6.67-9.567-16.722-18.066l-5.572-4.712-3.98 2.227c-2.425 1.359-5.785 4.856-8.608 8.962-2.546 3.704-4.787 6.577-4.98 6.383-.194-.193-.785-2.278-1.314-4.632-1.08-4.803-.553-5.974 6.531-14.517l4.056-4.89-5.486.707c-3.018.39-6.547 1.1-7.844 1.581-1.296.48-3.588.835-5.091.786l-2.735-.087 2.546-.777c4.032-1.231 10.705-4.86 12.158-6.611 1.187-1.43.58-1.605-5.669-1.633-7.932-.035-7.247-1.05 2.105-3.116l6.048-1.337-3.502-1.536c-3.473-1.523-3.48-1.539-.812-1.888 2.459-.322 2.746-.852 3.343-6.151 1.397-12.402 4.413-21.377 8.795-26.175 1.823-1.995 1.794-2.167-1.133-6.87-1.652-2.654-3.001-5.17-2.999-5.592.002-.421-5.044 4.045-11.213 9.926L33.582 159.37 33.539 250l-.043 90.631 48.17 47.516 48.171 47.516 2.261-2.095c1.244-1.152 3.953-4.891 6.02-8.31zm219.57-12.574c2.207-1.975 2.298-6.199.196-9.199-1.967-2.808-3.01-2.816-9.232-.074-9.39 4.14-11.232 9.443-3.948 11.368 3.312.876 11.061-.374 12.983-2.095zm18.8-5.858c3.94-.792 12.383-8.772 17.984-16.995 2.168-3.185 5.281-9.6 6.917-14.257 5.464-15.555 5.51-13.569-.464-19.882-5.09-5.38-5.325-5.88-5.814-12.37l-.51-6.764-3.909 10.53-3.91 10.53 2.291 2.439c1.26 1.341 3.936 3.289 5.947 4.328 2.863 1.48 3.725 2.592 3.976 5.13.284 2.87-.093 3.415-3.277 4.745-1.979.827-4.976 1.504-6.66 1.504-2.91 0-3.012.14-2.042 2.8.56 1.54 1.8 4.29 2.752 6.11 1.65 3.154 1.639 3.482-.241 6.974-2.14 3.972-3.717 5.386-13.765 12.338-3.64 2.519-5.703 4.336-4.583 4.039 1.12-.298 3.509-.837 5.308-1.199zM221.01 388.214c-.748-5.292-1.726-7.426-6.047-13.2-4.39-5.866-12.315-12.856-12.315-10.862 0 .344 1.406 2.402 3.125 4.572 3.298 4.164 7.058 13.5 7.058 17.525 0 1.639 1.359 3.376 4.328 5.532 2.38 1.728 4.421 3.053 4.536 2.944.114-.11-.194-3.039-.685-6.511zm-59.057-24.389c-.683-3.05-2.543-7.453-4.135-9.786-3.833-5.62-17.301-18.856-17.242-16.944.025.825 2.078 3.562 4.561 6.082 3.164 3.211 6.266 8.308 10.365 17.032 4.49 9.554 6.064 12.067 6.77 10.805.571-1.02.45-3.753-.32-7.189zm298.75 2.397 3.787-3.187-4.002-5.706c-3.99-5.688-3.997-5.712-2.091-8.146l1.91-2.442 2.28 2.565c1.255 1.411 3.488 4.11 4.964 5.999l2.683 3.433 1.78-2.715c1.7-2.597 1.695-2.806-.125-4.817-1.86-2.056-1.858-2.136.12-3.608 1.113-.828 2.711-1.927 3.551-2.442 1.247-.765.708-1.716-2.94-5.189l-4.467-4.252-4.78 5.004c-7.427 7.778-11.367 10.826-18.968 14.678-3.868 1.96-7.228 3.684-7.467 3.83-.413.251.538 1.19 5.851 5.774l2.279 1.965 4.553-4.469c4.938-4.846 6.693-3.402 2.008 1.652-2.4 2.59-3.248 5.481-1.98 6.75 1.1 1.1 7.314-1.53 11.053-4.677zm-87.694-13.65c4.43-4.894 18.314-46.084 22.39-66.421.28-1.4 1.247-6.212 2.148-10.693 2.063-10.262 2.052-10.552-.313-8.118-4.771 4.909-13.276 25.601-18.824 45.796-1.538 5.601-3.62 12.246-4.628 14.766-1.007 2.52-2.147 5.957-2.533 7.638-.385 1.68-2.56 6.203-4.83 10.05-3.28 5.556-3.843 7.177-2.738 7.877 2.374 1.504 7.612 1.002 9.328-.894zm44.193-1.47c6.232-3.63 21.715-15.907 28.063-22.25 5.421-5.42 7.605-10.115 4.703-10.115-1.917 0-23.34 13.33-30.537 19.002-5.54 4.365-12.099 12.519-12.099 15.04 0 1.446 6.364.365 9.87-1.677zm-208.056-64.951c.099-46.441-.969-68.004-3.922-79.23l-1.258-4.783-.696 9.675c-.383 5.32-.794 36.051-.914 68.29l-.218 58.616 2.546 3.74 2.546 3.74.91-6.857c.5-3.772.952-27.708 1.006-53.191zm27.706 45.588c.723-1.27 2.035-3.866 2.914-5.769.88-1.903 2.253-3.965 3.05-4.583.798-.617 3.314-4.754 5.59-9.194 4.39-8.557 5.054-12.991 2.755-18.383l-1.294-3.033-2.701 7.616c-1.486 4.188-3.33 9.884-4.1 12.656l-1.397 5.042-1.212-11.152c-1.19-10.957-3.252-17.187-6.042-18.257-.771-.296-2.62.305-4.11 1.335-5.382 3.723-5.609 3.758-4.857.763.681-2.714 1.281-6.669 4.261-28.088 2.048-14.72 2.85-30.556 1.699-33.563-.91-2.378-.995-2.3-1.681 1.528-.397 2.217-2.325 10.676-4.284 18.797-6.36 26.363-9.557 43.782-9.557 52.06 0 4.209.732 5.155 6.11 7.9 4.808 2.455 9.76 9.957 10.617 16.086 1.752 12.52 1.776 12.566 4.24 8.239zm243.8.955c0-.726-2.33-3.819-5.18-6.874-2.944-3.159-7.173-9.509-9.803-14.72-2.544-5.04-6.043-11.146-7.775-13.566l-3.15-4.4-1.225 3.382c-3.942 10.882 1.49 19.919 20.004 33.28 6.176 4.457 7.129 4.844 7.129 2.898zm-220.317-7.375c4.39-2.979 9.091-7.968 11.071-11.748 1.23-2.35.741-9.177-.765-10.683-.228-.227-2.669 3.36-5.425 7.973-6.336 10.6-9.804 17.041-9.176 17.041.269 0 2.202-1.162 4.295-2.583zm-80.476-1.745c2.162-2.47 3.059-4.33 6.256-12.983 2.648-7.169 7.368-27.57 7.368-31.85 0-4.743-2.71-18.433-5.286-26.704-1.553-4.987-2.239-9.883-2.283-16.294-.061-9 .024-9.33 4.771-18.45 4.583-8.804 4.834-9.707 4.834-17.385 0-8.33-2.035-16.635-4.88-19.918-2.27-2.618-3.051-2.226-4.376 2.195-.967 3.229-.88 5.359.468 11.326 2.677 11.853 2.29 14.9-3.519 27.735l-5.179 11.442.537 9.165c.295 5.041 1.43 11.915 2.522 15.275 5.598 17.228 6.133 28.855 1.922 41.752-5.111 15.653-7.816 26.986-6.44 26.986.703 0 2.181-1.031 3.285-2.292zm299.132-17.057c-3.4-6.721-5.92-8.425-9.296-6.282-1.007.639-.86 2.005.679 6.349 2.367 6.678 5.46 12.695 7.939 15.444 1.782 1.977 1.838 1.85 2.155-4.958.24-5.169-.144-7.917-1.477-10.553zm-343.368 8.92c2.909-4.064 10.97-20.544 12.085-24.704.45-1.68 4.764-14.737 9.586-29.014 4.822-14.278 9.41-28.484 10.196-31.569 7.67-30.107 8.419-35.831 6.281-48.05-2.197-12.561-4.928-17.088-12.96-21.478l-4.667-2.551-1.832 3.402-1.832 3.401 4.223 5.044c7.902 9.438 8.73 12.504 8.696 32.22-.016 9.522-.495 19.421-1.064 21.999-1.547 7.013-8.032 24.425-13.805 37.065-2.813 6.16-5.69 13.263-6.394 15.784-.703 2.52-3.13 8.936-5.394 14.256-4.91 11.542-8.753 24.077-7.99 26.064.865 2.255 2.32 1.697 4.871-1.868zm200.105-8.41c9.437-15.731 12.265-21.1 13.033-24.74.89-4.214-1.148-13.108-3.002-13.108-.753 0-1.135.61-.848 1.357.286.747-.014 1.358-.667 1.358s-.91.447-.573.994c.338.547-.026 2.218-.81 3.714l-1.425 2.72-.644-2.57c-.355-1.412-1.126-17.741-1.714-36.287-.907-28.586-1.37-34.662-3.047-39.91-3.054-9.56-7.76-14.293-15.692-15.781-3.681-.691-5.309 1.003-2.135 2.221 1.682.645 7.552 8.492 10.287 13.75 3.715 7.142 7.558 22.367 7.558 29.945 0 8.586-.887 13.91-2.185 13.109-1.16-.717-6.94-13.154-8.003-17.22-.44-1.68-1.51-5.118-2.38-7.638-.87-2.52-2.582-8.207-3.803-12.637-2.526-9.163-7.16-16.12-13.143-19.729l-3.855-2.324 5.483 11.237c3.015 6.18 5.483 11.62 5.483 12.089 0 .468 2.31 6.226 5.136 12.795 6.313 14.682 12.534 34.917 14.246 46.338 1.532 10.223.703 33.186-1.418 39.298-1.464 4.217-3.206 12.608-2.431 11.71.242-.28 3.189-5.09 6.549-10.692zm28.973 1.401c5.315-13.894 7.136-19.721 8.922-28.556 4.552-22.519 5.44-63.686 1.654-76.715-2.664-9.169-8.644-14.604-19.142-17.399-8.582-2.284-9.41-1.91-4.868 2.194 4.338 3.92 10.586 14.557 14.311 24.37 2.878 7.58 3.788 27.102 2.16 46.334-1.853 21.881-4.039 44.324-4.57 46.909-2.168 10.566-1.728 11.388 1.533 2.863zm-51.746 3.945c2.192-2.325 6.658-13.354 10.41-25.706 3.088-10.166 3.61-20.21 1.175-22.644-1.235-1.236-1.721-.68-3.485 3.981-1.127 2.98-2.752 7.709-3.61 10.51-.86 2.8-2.5 7.382-3.645 10.183-1.145 2.8-3.077 7.84-4.293 11.201-1.216 3.36-2.578 6.847-3.028 7.748-.552 1.107-.11 2.344 1.365 3.818 2.513 2.514 3.442 2.679 5.11.909zm-17.775-10.344c2.508-7.795 2.432-8.767-1.725-21.988l-2.722-8.656-.561 19.348c-.31 10.642-.367 19.942-.128 20.667.677 2.06 2.566-1.385 5.136-9.371zm127.185 5.996c2.947-.772 5.793-1.672 6.326-2 .532-.33 4.963-1.175 9.846-1.88 15.725-2.27 11.188-3.528-14.863-4.12-5.234-.12-5.687.072-7.892 3.333-2.874 4.25-3.164 7.77-.558 6.76.98-.38 4.193-1.322 7.14-2.093zm49.825-13.982c2.513-3.883 2.923-7.547 1.568-14.002-.764-3.64-1.623-7.307-1.909-8.147-.532-1.566-1.455-.675-8.224 7.941l-2.639 3.36 3.612 3.769c1.987 2.073 3.922 4.8 4.3 6.06.767 2.55 2.045 2.946 3.292 1.019zm-13.757-16.548c1.736-3.36 4.185-7.485 5.443-9.165 5.022-6.71 6.703-11.492 6.37-18.127-.226-4.53-.555-5.737-1.163-4.276a189.4 189.4 0 0 1-2.255 5.091c-8.207 17.829-12.64 28.51-13.178 31.746-.782 4.716.164 3.675 4.783-5.27zm-333.338-.723c11.062-16.868 13.253-20.703 12.345-21.612-1.144-1.145-.612-1.754-6.605 7.57-5.097 7.93-11.116 15.968-13.438 17.945-.739.629-1.06 1.88-.714 2.782 1.006 2.62 3.727.458 8.412-6.685zm319.03.63c-1.541-10.307-3.968-22.077-9.848-47.769-2.042-8.919-6.352-18.049-11.178-23.68-4.218-4.921-16.438-14.666-15.573-12.42.313.813 6.309 14.766 13.325 31.009 7.016 16.242 13.072 31.042 13.457 32.888.386 1.846 2.527 7.804 4.758 13.238 2.23 5.435 4.31 10.702 4.62 11.704 1.1 3.55 1.328.966.44-4.97zm-165.053-7.8c1.582-8.377 1.606-25.154.045-30.98-.574-2.143-1.713-9.854-2.531-17.135-1.2-10.675-1.256-14.717-.287-20.876l1.201-7.637 2.728 6.11c1.5 3.36 5.094 11.343 7.987 17.74 6.921 15.303 8.73 21.235 9.648 31.64.504 5.713 1.587 10.379 3.19 13.748l2.426 5.1-.475-13.239c-.768-21.392-5.332-42.014-12.98-58.653-4.505-9.801-3.1-9.181-15.457-6.821l-5.984 1.143.622 10.272c.342 5.649.882 18.061 1.2 27.583.316 9.521 1.028 21.436 1.58 26.476 1.142 10.43 3.837 22.913 4.947 22.913.41 0 1.373-3.323 2.14-7.383zm68.179-2.86c0-.593-.459-.795-1.019-.449-.56.346-1.018.832-1.018 1.079s.458.449 1.018.449 1.019-.486 1.019-1.079zm-93.695-3.358c-.005-1.2-.895-11.6-1.977-23.112-3.295-35.03-6.172-49.328-10.543-52.39-2.234-1.565-11.424-2.138-12.251-.764-.253.42 1.126 4.19 3.066 8.376 1.939 4.186 3.764 8.998 4.056 10.692.292 1.695 1.614 6.518 2.939 10.718s3.327 12.492 4.449 18.424c1.122 5.932 2.934 14.18 4.026 18.33 1.093 4.149 2.262 8.788 2.598 10.308.73 3.301 3.65 2.833 3.637-.582zm153.68-19.494c.104-11.8-2.56-29.115-5.013-32.587-.396-.56-1.029-2.309-1.406-3.886-.804-3.363-10.964-13.824-15.38-15.835-1.68-.766-3.856-1.8-4.836-2.3-.98-.5-1.782-.693-1.782-.43 0 .262 2.441 5.192 5.425 10.955 8.377 16.18 15.24 35.432 19.706 55.285l1.832 8.146.686-5.091c.377-2.8.722-9.216.767-14.257zm-292.066 3.63c1.18-5.25-.204-7.769-2.193-3.994-.696 1.32-1.54 2.63-1.877 2.91-.336.28-2.261 2.382-4.278 4.672-2.973 3.374-3.577 4.77-3.195 7.371l.47 3.21 5.035-4.854c3.732-3.597 5.295-6.009 6.038-9.316zm345.433 1.589c4.705-5.516 5.784-8.257 5.788-14.694.004-5.787-.386-6.994-3.95-12.22-6.063-8.897-16.937-16.976-31.178-23.168-2.24-.974-4.972-2.226-6.07-2.782-1.098-.556.658 1.917 3.902 5.496 3.245 3.58 7.938 9.36 10.43 12.845 4.864 6.803 12.606 24.92 12.625 29.543.006 1.549.297 4.547.646 6.662l.636 3.845 2.663-1.681c1.464-.925 3.493-2.656 4.508-3.846zm-355.149-6.24c2.845-3.472 3.87-5.762 4.217-9.42l.459-4.834-2.095 2.546c-1.152 1.4-2.378 3.462-2.723 4.582-.346 1.12-2.23 3.542-4.186 5.382-2.914 2.74-3.333 3.615-2.319 4.837 1.853 2.232 2.548 1.909 6.647-3.094zm22.856-1.09c0-1.374-.403-3.295-.894-4.267-2.032-4.018-4.198-9.557-4.198-10.733 0-1.592-5.94-15.792-7.786-18.612-.762-1.165-1.075-2.43-.694-2.81.38-.38-.749-.19-2.51.424l-3.2 1.116 6.585 13.052c3.918 7.763 6.587 14.342 6.587 16.237 0 1.892.62 3.423 1.527 3.772.84.322 1.528 1.377 1.528 2.344 0 .967.293 2.05.65 2.409 1.157 1.156 2.405-.365 2.405-2.932zm6.87-14.691c.406-5.187.17-5.944-3.199-10.24-2-2.553-5.46-5.666-7.689-6.918l-4.052-2.278 2.09 5.39a458.43 458.43 0 0 0 4.466 10.99c1.307 3.081 2.957 7.877 3.666 10.659l1.29 5.057 1.495-3.53c.822-1.941 1.692-6.05 1.933-9.13zm-31.282-1.723c3.458-2.367 4.011-3.36 4.03-7.231.011-2.586-1.043-4.485-4.606-8.294-6.26-6.692-9.353-7.905-14.239-5.587-3.216 1.527-4.262 1.599-7.29.504-1.944-.703-3.63-1.121-3.746-.93-.117.192-.788 1.104-1.491 2.028-1.09 1.43-.72 2.21 2.492 5.239 2.074 1.957 5.556 4.147 7.737 4.867 3.686 1.216 4.367 1.105 9.658-1.574 4.215-2.134 6.116-2.617 7.323-1.86 3.91 2.448 1.89 10.368-3.295 12.926-2.49 1.228-2.752 1.593-1.156 1.611 1.136.013 3.198-.752 4.583-1.7zm47.143-5.7c-1.02-1.28-6.061-6.09-11.201-10.688-6.262-5.601-9.874-8.156-10.947-7.744-.881.338-1.602.967-1.602 1.4 0 2.061 22.11 19.363 24.745 19.363.474 0 .026-1.049-.995-2.33zm251.982-122.65-63.404-63.41H159.36L113.253 79.72l-46.107 46.116 4.642 2.255c4.884 2.373 10.145 2.954 11.206 1.237.346-.56 1.526-1.018 2.621-1.018 1.096 0 4.391-1.339 7.323-2.975 6.074-3.39 13.014-5.482 17.707-5.34 3.536.108 10.654 3.454 12.758 5.997 2.187 2.642 13.278 7.411 17.127 7.364 1.96-.024 5.397-.705 7.637-1.512 6.097-2.196 8.133-1.853 11.456 1.932 2.146 2.444 3.216 4.967 3.72 8.775.39 2.94.478 5.577.194 5.86-.691.692 14.785 10.476 27.393 17.318 5.597 3.038 10.409 5.872 10.692 6.3.284.427 5.328 2.626 11.209 4.887 16.497 6.341 22.922 6.852 65.552 5.213 45.904-1.765 95.27-1.542 114.183.516 15.28 1.662 27.69 3.943 30.948 5.687 1.108.592 2.846 1.084 3.863 1.092 1.017.008 6.476 2.24 12.13 4.96 11.044 5.31 20.838 13.334 24.436 20.018l1.943 3.61.27-28.794.272-28.792-63.405-63.41zM151.831 198.81c2.248-6.513 3.953-27.297 1.857-22.638-2.945 6.55-3.993 9.344-3.993 10.643 0 .774-.967 3.623-2.147 6.33-3.883 8.9-4.087 10.399-1.734 12.751 2.515 2.516 2.834 2.141 6.017-7.086zm-47.348.02c1.073-5.345 2.87-6.656 9.12-6.656h5.732l-4.105-3.752c-4.377-4-5.866-7.62-4.832-11.74.54-2.156 1.222-2.542 4.438-2.515 4.75.04 7.826 3.725 7.826 9.377 0 2.106.324 3.83.72 3.83.394 0 2.378-2.026 4.406-4.501 5.384-6.57 10.87-19.989 11.637-28.469.577-6.363.95-7.264 4.086-9.883 4.613-3.85 9.153-4.842 10.946-2.389 2.523 3.45 1.642 6.316-2.708 8.806-3.471 1.987-6.508 5.256-4.31 4.639.4-.112 1.826.403 3.169 1.146 2.701 1.495 2.387 1.786 6.979-6.45 1.26-2.26 2.29-5.721 2.287-7.69-.004-3.273-.39-3.738-4.496-5.427-4.746-1.952-7.321-1.583-17.713 2.533-3.072 1.217-3.526 1.148-5.091-.782-.945-1.165-4.239-3.453-7.32-5.084-5.248-2.78-6.338-2.967-17.311-2.967h-11.71l-9.334 4.436c-8.546 4.061-9.627 4.338-12.816 3.286-1.915-.632-4.781-2.505-6.369-4.162-2.21-2.306-3.204-2.75-4.241-1.889-1.91 1.585-1.712 2.956 1.223 8.476 2.948 5.544 2.942 5.583-2.8 18.22-4.694 10.328-4.748 14.11-.34 23.74 2.454 5.36 2.544 5.429 6.961 5.429 3.845 0 4.648.378 5.696 2.677.67 1.473 1.088 2.769.927 2.88-.161.11-1.851.823-3.756 1.583l-3.463 1.38 3.834 1.328c3.473 1.203 4.113 1.128 6.815-.796 3.372-2.401 3.369-2.41-3.576-9.767-5.07-5.371-4.485-6.365 7.002-11.893 1.692-.814 3.943-2.438 5.003-3.61 1.845-2.039 2.011-2.053 3.938-.338 2.701 2.403 4.786 7.566 4.786 11.85 0 2.564-1.117 4.918-4.161 8.77-2.29 2.895-4.006 5.42-3.816 5.61.308.308 13.415 3.274 15.385 3.481.434.046 1.043-1.177 1.352-2.717zm18.735-38.865c-.84-.48-2.984-1.182-4.763-1.562-1.78-.38-4.804-2.169-6.72-3.976-1.916-1.807-5.37-3.908-7.677-4.67-5.863-1.934-4.248-3.475 2.735-2.61 9.762 1.21 15.84 4.696 19.094 10.95 1.55 2.981.534 3.693-2.67 1.868zm-54.296-4.523c1.474-2.44 3.629-5.03 4.789-5.754 5.005-3.126 19.975-5.41 19.975-3.047 0 .56-.602 1.018-1.338 1.018-.736 0-6.579 2.739-12.984 6.086-6.405 3.347-11.977 6.097-12.384 6.11-.406.013.468-1.973 1.942-4.413zm67.447 39.614c1.577-.815 3.632-3.094 4.567-5.064 1.838-3.874 5.022-15.767 6.085-22.73.622-4.075.518-4.328-1.788-4.328-2.839 0-2.95.225-4.755 9.674-.75 3.92-2.041 8.202-2.87 9.514-.83 1.312-4.882 3.964-9.004 5.894-4.122 1.93-7.255 3.897-6.962 4.37.293.475 2.678 1.184 5.3 1.578 3.384.507 4.347.98 3.322 1.629-2.515 1.591 2.912 1.114 6.105-.537z" />
</svg>