<?xml version="1.0" encoding="UTF-8" standalone="no"?>
<svg width="500" height="850" version="1.1" id="svg10" sodipodi:docname="uni02d9.svg" inkscape:version="1.4.3 (0d15f750, 2025-12-25)" xmlns:inkscape="http://www.inkscape.org/namespaces/inkscape" xmlns:sodipodi="http://sodipodi.sourceforge.net/DTD/sodipodi-0.dtd" xmlns="http://www.w3.org/2000/svg" xmlns:svg="http://www.w3.org/2000/svg">
    <defs id="defs10" />
    <sodipodi:namedview id="namedview10" pagecolor="#ffffff" bordercolor="#000000" borderopacity="0.25" inkscape:showpageshadow="2" inkscape:pageopacity="0.0" inkscape:pagecheckerboard="0" inkscape:deskcolor="#d1d1d1" inkscape:zoom="0.53647059" inkscape:cx="249.7807" inkscape:cy="425" inkscape:window-width="1080" inkscape:window-height="675" inkscape:window-x="0" inkscape:window-y="25" inkscape:window-maximized="0" inkscape:current-layer="svg10" />
    <path id="polygon1" d="M 250 100 L 245.66992 102.5 L 245.66992 107.5 L 250 110 L 254.33008 107.5 L 254.33008 102.5 L 250 100 z M 232.67969 120 L 228.34961 122.5 L 228.34961 127.5 L 232.67969 130 L 237.00977 127.5 L 237.00977 122.5 L 232.67969 120 z M 250 120 L 245.66992 122.5 L 245.66992 127.5 L 250 130 L 254.33008 127.5 L 254.33008 122.5 L 250 120 z M 267.32031 120 L 262.99023 122.5 L 262.99023 127.5 L 267.32031 130 L 271.65039 127.5 L 271.65039 122.5 L 267.32031 120 z M 250 140 L 245.66992 142.5 L 245.66992 147.5 L 250 150 L 254.33008 147.5 L 254.33008 142.5 L 250 140 z " />
</svg>
