<?xml version="1.0" encoding="UTF-8" standalone="no"?>
<svg width="500" height="850" version="1.1" id="svg1" sodipodi:docname="uni002e.svg"
    inkscape:version="1.4.2 (ebf0e940, 2025-05-08)" xmlns:inkscape="http://www.inkscape.org/namespaces/inkscape"
    xmlns:sodipodi="http://sodipodi.sourceforge.net/DTD/sodipodi-0.dtd" xmlns="http://www.w3.org/2000/svg"
    xmlns:svg="http://www.w3.org/2000/svg">
        <defs id="defs1" />
    <path id="path2"
        d="M 250 300 L 228.34961 312.5 L 228.34961 337.5 L 250 350 L 271.65039 337.5 L 271.65039 312.5 L 250 300 z M 76.794922 500 L 55.144531 512.5 L 55.144531 537.5 L 76.794922 550 L 98.445312 537.5 L 98.445312 512.5 L 76.794922 500 z M 250 500 L 228.34961 512.5 L 228.34961 537.5 L 250 550 L 271.65039 537.5 L 271.65039 512.5 L 250 500 z M 423.20508 500 L 401.55469 512.5 L 401.55469 537.5 L 423.20508 550 L 444.85547 537.5 L 444.85547 512.5 L 423.20508 500 z M 250 700 L 228.34961 712.5 L 228.34961 737.5 L 250 750 L 271.65039 737.5 L 271.65039 712.5 L 250 700 z "
        transform="translate(0,-100)" />
</svg>