<?xml version="1.0" encoding="UTF-8" standalone="no"?>
<svg width="500" height="850" version="1.1" id="svg2" sodipodi:docname="uni003a.svg" inkscape:version="1.4.2 (ebf0e940, 2025-05-08)" xmlns:inkscape="http://www.inkscape.org/namespaces/inkscape" xmlns:sodipodi="http://sodipodi.sourceforge.net/DTD/sodipodi-0.dtd" xmlns="http://www.w3.org/2000/svg" xmlns:svg="http://www.w3.org/2000/svg">
    <defs id="defs2" />
    <sodipodi:namedview id="namedview2" pagecolor="#ffffff" bordercolor="#000000" borderopacity="0.25" inkscape:showpageshadow="2" inkscape:pageopacity="0.0" inkscape:pagecheckerboard="0" inkscape:deskcolor="#d1d1d1" inkscape:zoom="0.53647059" inkscape:cx="250.71272" inkscape:cy="425" inkscape:window-width="1080" inkscape:window-height="675" inkscape:window-x="0" inkscape:window-y="25" inkscape:window-maximized="0" inkscape:current-layer="svg2" />
    <path id="path1" d="m 250,200 -21.65039,12.5 v 25 L 250,250 271.65039,237.5 v -25 z m 0,100 -108.25391,62.5 v 125 L 250,550 358.25391,487.5 v -125 z m 0,50 64.95117,37.5 v 75 L 250,500 185.04883,462.5 v -75 z M 76.794922,400 55.144531,412.5 v 25 l 21.650391,12.5 21.65039,-12.5 v -25 z M 250,400 228.34961,412.5 v 25 L 250,450 271.65039,437.5 v -25 z m 173.20508,0 -21.65039,12.5 v 25 l 21.65039,12.5 21.65039,-12.5 v -25 z M 250,600 228.34961,612.5 v 25 L 250,650 271.65039,637.5 v -25 z" />
</svg>
