<svg width="500" height="850" xmlns="http://www.w3.org/2000/svg">
    <path
        d="M 250 100 L 245.66992 102.5 L 245.66992 107.5 L 250 110 L 254.33008 107.5 L 254.33008 102.5 L 250 100 z M 232.67969 120 L 228.34961 122.5 L 228.34961 127.5 L 232.67969 130 L 237.00977 127.5 L 237.00977 122.5 L 232.67969 120 z M 250 120 L 245.66992 122.5 L 245.66992 127.5 L 250 130 L 254.33008 127.5 L 254.33008 122.5 L 250 120 z M 267.32031 120 L 262.99023 122.5 L 262.99023 127.5 L 267.32031 130 L 271.65039 127.5 L 271.65039 122.5 L 267.32031 120 z M 250 140 L 245.66992 142.5 L 245.66992 147.5 L 250 150 L 254.33008 147.5 L 254.33008 142.5 L 250 140 z " />
</svg>