<?xml version="1.0" encoding="UTF-8" standalone="no"?>
<svg width="500" height="850" version="1.1" id="svg2" sodipodi:docname="uni003a.svg" inkscape:version="1.4.2 (ebf0e940, 2025-05-08)" xmlns:inkscape="http://www.inkscape.org/namespaces/inkscape" xmlns:sodipodi="http://sodipodi.sourceforge.net/DTD/sodipodi-0.dtd" xmlns="http://www.w3.org/2000/svg" xmlns:svg="http://www.w3.org/2000/svg">
    <defs id="defs2" />
    <sodipodi:namedview id="namedview2" pagecolor="#ffffff" bordercolor="#000000" borderopacity="0.25" inkscape:showpageshadow="2" inkscape:pageopacity="0.0" inkscape:pagecheckerboard="0" inkscape:deskcolor="#d1d1d1" inkscape:zoom="0.31652174" inkscape:cx="260.6456" inkscape:cy="426.51099" inkscape:window-width="1080" inkscape:window-height="675" inkscape:window-x="0" inkscape:window-y="25" inkscape:window-maximized="0" inkscape:current-layer="svg2" />
    <path id="path1" d="M 250 300 L 228.34961 312.5 L 228.34961 337.5 L 250 350 L 271.65039 337.5 L 271.65039 312.5 L 250 300 z M 250 400 L 141.74609 462.5 L 141.74609 587.5 L 250 650 L 358.25391 587.5 L 358.25391 462.5 L 250 400 z M 250 450 L 314.95117 487.5 L 314.95117 562.5 L 250 600 L 185.04883 562.5 L 185.04883 487.5 L 250 450 z M 76.794922 500 L 55.144531 512.5 L 55.144531 537.5 L 76.794922 550 L 98.445312 537.5 L 98.445312 512.5 L 76.794922 500 z M 250 500 L 228.34961 512.5 L 228.34961 537.5 L 250 550 L 271.65039 537.5 L 271.65039 512.5 L 250 500 z M 423.20508 500 L 401.55469 512.5 L 401.55469 537.5 L 423.20508 550 L 444.85547 537.5 L 444.85547 512.5 L 423.20508 500 z M 250 700 L 228.34961 712.5 L 228.34961 737.5 L 250 750 L 271.65039 737.5 L 271.65039 712.5 L 250 700 z " transform="translate(0,-100)" />
</svg>
