<?xml version="1.0" encoding="UTF-8" standalone="no"?>
<svg width="500" height="850" version="1.1" id="svg3" sodipodi:docname="uni25cc.svg" inkscape:version="1.4.2 (ebf0e940, 2025-05-08)" xmlns:inkscape="http://www.inkscape.org/namespaces/inkscape" xmlns:sodipodi="http://sodipodi.sourceforge.net/DTD/sodipodi-0.dtd" xmlns="http://www.w3.org/2000/svg" xmlns:svg="http://www.w3.org/2000/svg">
    <defs id="defs3" />
    <sodipodi:namedview id="namedview3" pagecolor="#ffffff" bordercolor="#000000" borderopacity="0.25" inkscape:showpageshadow="2" inkscape:pageopacity="0.0" inkscape:pagecheckerboard="0" inkscape:deskcolor="#d1d1d1" inkscape:zoom="0.31652174" inkscape:cx="259.06593" inkscape:cy="426.51099" inkscape:window-width="1080" inkscape:window-height="675" inkscape:window-x="0" inkscape:window-y="25" inkscape:window-maximized="0" inkscape:current-layer="svg3" />
    <path id="path1" d="M 250 200 L 228.34961 212.5 L 228.34961 237.5 L 250 250 L 271.65039 237.5 L 271.65039 212.5 L 250 200 z M 76.794922 300 L 55.144531 312.5 L 55.144531 337.5 L 76.794922 350 L 98.445312 337.5 L 98.445312 312.5 L 76.794922 300 z M 423.20508 300 L 401.55469 312.5 L 401.55469 337.5 L 423.20508 350 L 444.85547 337.5 L 444.85547 312.5 L 423.20508 300 z M 76.794922 400 L 55.144531 412.5 L 55.144531 437.5 L 76.794922 450 L 98.445312 437.5 L 98.445312 412.5 L 76.794922 400 z M 423.20508 400 L 401.55469 412.5 L 401.55469 437.5 L 423.20508 450 L 444.85547 437.5 L 444.85547 412.5 L 423.20508 400 z M 76.794922 500 L 55.144531 512.5 L 55.144531 537.5 L 76.794922 550 L 98.445312 537.5 L 98.445312 512.5 L 76.794922 500 z M 423.20508 500 L 401.55469 512.5 L 401.55469 537.5 L 423.20508 550 L 444.85547 537.5 L 444.85547 512.5 L 423.20508 500 z M 250 600 L 228.34961 612.5 L 228.34961 637.5 L 250 650 L 271.65039 637.5 L 271.65039 612.5 L 250 600 z " />
</svg>
