<svg width="500" height="850" xmlns="http://www.w3.org/2000/svg">
    <path d="m76.795 300-21.65 12.5v25L423.204 550l21.65-12.5v-25z" />
    <path d="m250 300-108.254 62.5v125L250 550l108.254-62.5v-125zm0 50 64.951 37.5v75L250 500l-64.951-37.5v-75z" />
    <path d="m250 200 21.65 12.5v25L250 250l-21.65-12.5v-25zm0 400 21.65 12.5v25L250 650l-21.65-12.5v-25z" />
    <path
        d="M 76.794922 300 L 55.144531 312.5 L 55.144531 537.5 L 76.794922 550 L 98.445312 537.5 L 98.445312 312.5 L 76.794922 300 z M 423.20508 300 L 401.55469 312.5 L 401.55469 537.5 L 423.20508 550 L 444.85547 537.5 L 444.85547 312.5 L 423.20508 300 z " />
</svg>