<svg width="500" height="850" xmlns="http://www.w3.org/2000/svg">
    <path d="M 250 200 L 76.794922 300 L 55.144531 312.5 L 55.144531 337.5 L 76.794922 350 L 141.74609 387.5 L 141.74609 487.5 L 250 550 L 336.60156 500 L 379.90234 525 L 250 600 L 98.445312 512.5 L 76.794922 500 L 55.144531 512.5 L 55.144531 537.5 L 250 650 L 423.20312 550 L 444.85352 537.5 L 444.85547 537.5 L 444.85547 512.5 L 444.85352 512.5 L 423.20312 500 L 358.25391 462.50195 L 358.25391 362.5 L 250 300 L 163.39648 350 L 120.0957 325 L 250 250 L 401.55469 337.5 L 423.20508 350 L 444.85547 337.5 L 444.85547 312.5 L 250 200 z M 250 350 L 314.95117 387.5 L 314.95117 437.5 L 206.69922 375 L 250 350 z M 185.04883 412.5 L 293.30078 475 L 250 500 L 185.04883 462.5 L 185.04883 412.5 z "/>
</svg>