<svg width="400" height="700" xmlns="http://www.w3.org/2000/svg" xmlns:svg="http://www.w3.org/2000/svg">
    <path
        d="m 100,150 v 50 h 150 v -50 z m 150,50 v 50 h 50 v -50 z m 50,50 v 150 h 50 V 250 Z m 0,150 h -50 v 50 h 50 z m -50,50 H 150 v 50 H 250 Z M 100,200 H 50 v 50 h 50 z M 50,250 H 0 v 100 h 50 z" />
    <path
        d="M 150 250 L 150 300 L 200 300 L 200 250 L 150 250 z M 200 300 L 200 350 L 250 350 L 250 300 L 200 300 z M 200 350 L 150 350 L 150 400 L 200 400 L 200 350 z M 150 350 L 150 300 L 100 300 L 100 350 L 150 350 z " />
</svg>