<svg width="400" height="700" xmlns="http://www.w3.org/2000/svg">
    <path
        d="m 50,200 v 50 h 50 v -50 z m 0,50 H 0 v 150 h 50 z m 0,150 v 50 h 50 v -50 z m 50,50 v 50 h 150 v -50 z m 150,0 h 50 v -50 h -50 z m 50,-50 h 50 V 250 h -50 z m 0,-150 v -50 h -50 v 50 z" />
    <path
        d="M 50 200 L 50 250 L 100 250 L 100 200 L 50 200 z M 100 250 L 100 300 L 150 300 L 150 250 L 100 250 z M 150 300 L 150 350 L 200 350 L 200 300 L 150 300 z M 200 350 L 200 400 L 250 400 L 250 350 L 200 350 z M 250 400 L 250 450 L 300 450 L 300 400 L 250 400 z " />
    <path d="m 150,0 v 650 h 50 V 0 Z" />
</svg>