<svg width="400" height="700" xmlns="http://www.w3.org/2000/svg" xmlns:svg="http://www.w3.org/2000/svg">
    <path
        d="m 150,150 v 50 h 100 v -50 z m 100,50 v 50 h 50 v -50 z m 50,50 v 150 h 50 V 250 Z m 0,150 h -50 v 50 h 50 z m -50,50 H 100 v 50 h 150 z m -150,0 V 400 H 50 v 50 z M 50,400 V 300 H 0 v 100 z" />
    <path
        d="M 50 200 L 50 250 L 100 250 L 100 200 L 50 200 z M 100 250 L 100 300 L 150 300 L 150 250 L 100 250 z M 150 300 L 150 350 L 200 350 L 200 300 L 150 300 z M 200 350 L 200 400 L 250 400 L 250 350 L 200 350 z M 250 400 L 250 450 L 300 450 L 300 400 L 250 400 z " />
</svg>