<?xml version="1.0" encoding="UTF-8" standalone="no"?>
<svg width="400" height="700" version="1.1" id="svg4" sodipodi:docname="uni25cc.svg" inkscape:version="1.4.2 (ebf0e940, 2025-05-08)" xmlns:inkscape="http://www.inkscape.org/namespaces/inkscape" xmlns:sodipodi="http://sodipodi.sourceforge.net/DTD/sodipodi-0.dtd" xmlns="http://www.w3.org/2000/svg" xmlns:svg="http://www.w3.org/2000/svg">
    <defs id="defs4" />
    <sodipodi:namedview id="namedview4" pagecolor="#ffffff" bordercolor="#000000" borderopacity="0.25" inkscape:showpageshadow="2" inkscape:pageopacity="0.0" inkscape:pagecheckerboard="0" inkscape:deskcolor="#d1d1d1" inkscape:zoom="0.38434783" inkscape:cx="189.93213" inkscape:cy="351.24434" inkscape:window-width="1080" inkscape:window-height="675" inkscape:window-x="0" inkscape:window-y="25" inkscape:window-maximized="0" inkscape:current-layer="svg4" />
    <path id="path1" d="M 150 150 L 150 200 L 200 200 L 200 150 L 150 150 z M 50 200 L 50 250 L 100 250 L 100 200 L 50 200 z M 100 250 L 100 300 L 100 350 L 150 350 L 150 400 L 200 400 L 250 400 L 250 350 L 250 300 L 200 300 L 200 250 L 150 250 L 100 250 z M 250 400 L 250 450 L 300 450 L 300 400 L 250 400 z M 0 300 L 0 350 L 50 350 L 50 300 L 0 300 z M 300 300 L 300 350 L 350 350 L 350 300 L 300 300 z M 150 450 L 150 500 L 200 500 L 200 450 L 150 450 z " />
</svg>
