<svg width="500" height="850" xmlns="http://www.w3.org/2000/svg">
    <path
        d="M -250 0 A 225 225 0 0 0 -408.94727 65.75 A 25 25 0 0 0 -409.09961 65.900391 A 25 25 0 0 0 -409.25195 66.052734 A 225 225 0 0 0 -475 225 C -475 238.80712 -463.80712 250 -450 250 C -436.19288 250 -425 238.80712 -425 225 A 175 175 0 0 1 -390.15234 120.20312 L -267.67773 242.67773 L -267.63281 242.63281 A 25 25 0 0 0 -250 250 A 25 25 0 0 0 -225 225 A 25 25 0 0 0 -232.32227 207.32227 L -354.79688 84.847656 A 175 175 0 0 1 -250 50 A 175 175 0 0 1 -75 225 C -75 238.80712 -63.80712 250 -50 250 C -36.19288 250 -25 238.80712 -25 225 A 225 225 0 0 0 -250 0 z " />
</svg>