<svg width="500" height="850" xmlns="http://www.w3.org/2000/svg">
    <path
        d="M 108.57812 258.57812 A 25 25 0 0 0 90.900391 265.90039 A 25 25 0 0 0 90.900391 301.25586 L 145.7207 356.07617 A 125 125 0 0 0 127.52539 400 L 50 400 A 25 25 0 0 0 25 425 A 25 25 0 0 0 50 450 L 127.52539 450 A 125 125 0 0 0 145.7207 493.92383 L 90.900391 548.74414 A 25 25 0 0 0 90.900391 584.09961 A 25 25 0 0 0 126.25586 584.09961 L 181.07617 529.2793 A 125 125 0 0 0 250 550 A 125 125 0 0 0 318.92383 529.2793 L 373.74414 584.09961 A 25 25 0 0 0 409.09961 584.09961 A 25 25 0 0 0 409.09961 548.74414 L 354.2793 493.92383 A 125 125 0 0 0 372.47461 450 L 450 450 A 25 25 0 0 0 475 425 A 25 25 0 0 0 450 400 L 372.47461 400 A 125 125 0 0 0 354.2793 356.07617 L 409.09961 301.25586 A 25 25 0 0 0 409.09961 265.90039 A 25 25 0 0 0 391.42188 258.57812 A 25 25 0 0 0 373.74414 265.90039 L 318.92383 320.7207 A 125 125 0 0 0 250 300 A 125 125 0 0 0 181.07617 320.7207 L 126.25586 265.90039 A 25 25 0 0 0 108.57812 258.57812 z M 250 350 A 75 75 0 0 1 285.67773 359.21484 A 75 75 0 0 1 290.06055 361.6875 A 75 75 0 0 1 294.29492 364.67969 A 75 75 0 0 1 298.30273 367.72461 A 75 75 0 0 1 302.07031 371.25 A 75 75 0 0 1 305.64258 374.82227 A 75 75 0 0 1 308.90234 378.83984 A 75 75 0 0 1 311.94336 382.84375 A 75 75 0 0 1 314.62695 387.26758 A 75 75 0 0 1 317.10742 391.66602 A 75 75 0 0 1 320.71094 400 L 179.28906 400 A 75 75 0 0 1 182.89258 391.66602 A 75 75 0 0 1 185.37305 387.26758 A 75 75 0 0 1 188.05664 382.84375 A 75 75 0 0 1 191.09766 378.83984 A 75 75 0 0 1 194.35742 374.82227 A 75 75 0 0 1 197.92969 371.25 A 75 75 0 0 1 201.69727 367.72461 A 75 75 0 0 1 205.70508 364.67969 A 75 75 0 0 1 209.93945 361.6875 A 75 75 0 0 1 214.32227 359.21484 A 75 75 0 0 1 250 350 z M 179.28906 450 L 225 450 L 225 495.71094 A 75 75 0 0 1 217.00195 492.29688 A 75 75 0 0 1 211.59961 489.25 A 75 75 0 0 1 208.43164 487.39062 A 75 75 0 0 1 202.46875 482.86133 A 75 75 0 0 1 200.58594 481.40625 A 75 75 0 0 1 193.59375 474.41406 A 75 75 0 0 1 192.13867 472.53125 A 75 75 0 0 1 187.60938 466.56836 A 75 75 0 0 1 185.75 463.40039 A 75 75 0 0 1 182.70312 457.99805 A 75 75 0 0 1 179.28906 450 z M 275 450 L 320.71094 450 A 75 75 0 0 1 317.29688 457.99805 A 75 75 0 0 1 314.25 463.40039 A 75 75 0 0 1 312.39062 466.56836 A 75 75 0 0 1 307.86133 472.53125 A 75 75 0 0 1 306.40625 474.41406 A 75 75 0 0 1 299.41406 481.40625 A 75 75 0 0 1 297.53125 482.86133 A 75 75 0 0 1 291.56836 487.39062 A 75 75 0 0 1 288.40039 489.25 A 75 75 0 0 1 282.99805 492.29688 A 75 75 0 0 1 275 495.71094 L 275 450 z " />
</svg>