<svg version="1.0" xmlns="http://www.w3.org/2000/svg" width="500" height="500" viewBox="0 0 6300 6060">
  <style>
    @media (prefers-color-scheme: light) {
      path {
        fill: #8b0000;
      }
    }

    @media (prefers-color-scheme: dark) {
      path {
        fill: #daa520;
      }
    }
  </style>
  <g>
    <path
      d="M2925 5950c-22-5-52-7-67-4-23 5-30 1-38-20-5-14-16-26-24-26-7 0-19-7-26-15-11-13-17-12-52 7-33 19-40 20-48 8-6-8-10-25-10-36 0-32-36-71-76-84-20-7-74-11-127-9-75 3-97 1-117-14-34-24-40-22-40 16 0 48-14 65-40 50-11-7-27-13-35-13-9 0-18-7-22-16-3-9-12-13-21-9-8 3-18 1-22-5s-35-12-69-15c-34-2-69-9-77-15-7-7-22-10-33-7-23 6-51-9-51-28 0-8-10-34-21-58-17-35-31-48-67-63-46-19-99-20-117-3-15 14-45 10-52-7-3-9 0-19 6-23 9-6 7-17-9-44-30-51-87-67-60-17 12 22 11 22-21 16-19-3-50-9-69-12-32-5-38-12-58-62-12-31-18-58-14-61 8-5 42-69 42-78 0-1-7-3-15-3s-15 5-15 10c0 6-9 10-20 10-12 0-20-7-20-16 0-12-7-14-32-9-44 10-48 13-48 38 1 20 2 21 14 5 19-25 41-22 54 7 14 31 15 45 3 64-7 11-17 8-49-17-22-18-43-32-47-32-20 0-82-37-100-59-27-34-44-50-93-90-45-37-52-55-26-65 22-8 12-29-17-36-33-8-30-32 5-49 22-10 34-11 48-2 22 14 38 14 38 1 0-11-74-60-90-60-5 0-10 7-10 16 0 12-7 14-31 9-25-6-31-4-36 14-10 40-45 21-59-33-6-25-10-27-37-22-32 6-32 3-11-71 4-16 2-23-7-23-8 0-19-10-24-22-8-18-20-24-52-26-40-3-43-5-43-32 0-21-8-33-35-49-41-24-43-33-14-60 27-25 19-37-30-45-27-4-40-12-44-26-4-17-11-19-31-14-31 8-32 0-11-101 18-86 18-85 0-85-10 0-15 10-15 34 0 43-34 89-50 66-13-20-13-53 2-68 9-9 7-12-10-12-15 0-24-8-28-25-3-14-10-25-15-25s-9-9-9-20-7-23-15-26c-8-4-15-12-15-20 0-7-6-17-14-21-7-4-16-24-19-43-11-72-20-96-47-130-17-22-24-41-20-50 26-54 28-78 6-117-20-35-25-38-59-35-33 3-37 1-42-25-4-15-10-36-16-45-5-10-9-30-9-44s-11-39-25-56c-26-30-29-45-19-72 7-19 35-21 52-4 9 9 13 7 18-6 9-24-53-82-83-78-22 3-20 11-39-154-4-34-1-60 7-75 16-30 13-50-12-66-10-8-16-20-12-29 3-8-1-22-10-32-12-14-13-30-6-82 5-40 4-86-2-120-6-30-9-71-7-90 3-34 4-35 48-35h45l3-43c3-41 2-42-22-36-18 4-27 1-35-14-18-34-13-60 11-64 12-2 28-14 34-26 6-13 16-28 22-34s8-17 5-25-1-18 5-22c7-4 8-19 2-45-7-34-5-44 13-67 14-17 36-29 60-33 20-3 37-11 37-17 0-7-12-9-35-5-31 6-36 4-50-24-15-29-35-41-35-20 0 24-25 7-27-18-2-31 15-82 28-82 5 0 9-9 9-19 0-11 4-23 10-26 5-3 10-14 10-24s9-26 20-36 22-33 26-51c3-19 10-37 15-39 4-3 6-30 4-59-3-39 0-57 10-66 9-7 13-21 9-34-3-14 3-32 16-49 17-22 30-27 65-27 37 0 44-3 49-25 5-18 13-25 30-25 89 0 62-48-34-60-38-4-46-9-48-29-2-14 2-30 10-35 7-6 19-29 27-51 22-64 38-77 88-69 41 6 43 5 43-18 0-14-9-33-21-44-16-15-19-26-14-54 11-65 15-72 31-59 12 10 19 8 37-8 12-11 30-23 40-26 14-5 16-11 8-25-14-26 2-44 35-40 43 5 41 31-6 62-24 16-40 34-40 46 0 15-7 20-25 20-30 0-33 20-7 43 27 25 44 21 78-16 85-91 112-147 70-147-7 0-16-8-20-17-3-10-11-26-18-36-10-13-10-19-2-25 7-4 13-16 15-26 2-11 7-19 12-18 4 1 16 2 27 2s20 5 20 10c0 6-6 10-14 10-25 0-30 22-9 39 11 9 23 24 26 34 10 27 39 22 32-6-4-15-1-28 9-36 9-8 16-21 16-29 0-9 12-33 26-53 17-25 24-44 19-58-8-28-21-26-41 4-9 14-24 25-34 25-13 0-17-9-17-39 0-31 6-45 33-71 33-31 68-34 43-4-6 8-10 16-8 18 37 29 53 34 70 23 15-9 24-9 39 1 30 19 60 15 60-7 0-11 5-23 10-26 6-3 10-14 10-23 1-20 44-69 82-94 33-22 28-52-13-68-37-16-51-33-43-54s22-20 42 3c22 25 72 35 95 19 25-19 32-71 13-91-21-20-20-30 2-50 23-21 48-22 56-2 3 8 12 15 21 15 18 0 20-11 4-27-15-15 10-53 37-53 11 0 31-11 44-25s32-25 42-25 23-10 29-22c8-20 19-23 66-25 40-1 62-8 77-22 12-12 26-21 30-21 5 0 17-11 28-25s26-25 35-25c8 0 22-9 31-20 20-23 61-48 151-90 80-38 136-52 187-48 31 2 41 8 52 31 8 17 20 27 30 25 21-4 28-44 11-64-15-19 3-39 43-49 22-6 27-3 30 16 5 33 34 48 54 28 13-14 14-20 3-37-17-27-5-40 47-54 91-23 93-23 100 11 5 21 12 31 25 31 34 0 127-48 145-75 16-24 22-26 59-20 37 5 43 3 48-14 5-19 11-20 113-16 81 3 111 8 119 19 10 13 17 13 50 2 36-13 40-12 56 7 15 20 17 20 33 4 11-11 33-17 62-17 40 0 44 2 44 24 0 13-7 26-15 30-21 8-19 23 5 36 15 8 23 6 39-11 16-18 28-21 61-16 39 5 40 4 40-23s2-28 45-28c38 1 46 5 51 23 4 16 13 22 34 22 16 0 31-6 34-14s22-13 50-13c36 0 48 4 56 21 10 19 18 20 73 15 123-10 168-6 242 25 11 5 43 13 70 18 85 16 168 42 203 62 18 10 43 19 56 19 12 0 33 11 46 25 16 17 33 25 50 23 19-2 25 2 25 17 0 17 6 19 40 17 44-3 56 3 72 33 9 15 20 19 57 16 28-1 46 2 46 8s-7 11-15 11-15 6-15 14c0 11 11 14 44 12 31-2 47 1 50 10 3 8 17 14 30 14 14 0 30 8 35 19 6 10 24 21 41 25 35 6 60 31 90 88 21 39 37 46 71 27 16-8 25-7 38 5 10 9 22 16 27 16 6 0 23 12 40 28 16 15 49 41 74 57 62 40 91 66 100 91 5 12 21 24 37 28 40 9 100 93 84 118-6 10-11 19-11 22 0 8 59 28 76 26 11-1 24-2 31-1 15 1 33 55 33 97 0 28 5 35 25 40 24 6 35 24 15 24-5 0-10 11-10 25 0 18 4 23 15 19 8-4 15-15 15-25 0-30 22-22 56 19 47 58 71 104 57 109-24 8-15 53 12 65 22 10 25 16 20 40-7 28-7 28 34 22 46-7 50 0 25 47-19 38-4 63 35 56 21-4 30 2 49 30 12 19 22 40 22 47 0 20-25 37-57 39-26 2-28 6-28 42 0 35 3 40 23 41 29 2 64 34 45 41-7 3-13 15-13 28s-5 36-12 50c-9 19-9 28 0 37 16 16 15 62-3 105-19 44-20 37 13 75 39 45 54 92 46 149-6 43-4 50 21 75l27 27-27 21c-21 17-26 29-24 53 2 17-2 38-10 46-20 24-10 51 19 51 18 1 26-6 28-22 2-12 6-22 10-22 15 1 62 50 62 65 0 18-36 21-42 3-6-17-28 0-28 22 0 10 5 22 10 25 19 12 10 45-26 95s-36 51-18 71c11 12 32 28 49 37 16 8 36 23 43 33 17 25 39 24 47-1 4-11 15-20 27-20 18 0 19 4 14 35-6 29-4 36 11 41 10 3 25 9 33 13 31 16 38 2 33-67-3-37-11-82-20-100-17-39-12-59 19-72 13-6 30-15 40-22 27-20 49 7 48 61-1 117 10 277 21 297 9 17 9 34 0 68-6 24-8 52-5 60 4 9 0 23-7 32-11 14-10 18 5 29s17 23 11 72c-10 98-13 105-37 97-20-6-21-4-15 50 3 36 2 56-5 56s-6 5 1 14c9 11 9 22-2 48-8 18-17 60-21 94-8 77-39 162-68 190-82 79-84 83-62 157 4 13-1 17-20 17-22 0-26-4-26-30 0-56-26-34-38 33-12 61-12 62 13 84l26 23-28 60c-15 33-36 63-46 66-11 4-17 14-15 32 1 17-10 44-30 71-18 24-32 48-32 52 0 22-72 127-94 137-14 6-23 17-21 24 8 21-40 109-66 122-13 6-27 23-30 36-9 38-32 90-41 90-4 0-8 5-8 11 0 18-54 65-83 72-15 4-27 14-27 22s-9 15-20 15c-15 0-20 7-20 29 0 17-5 33-10 36-6 4-8 10-6 14 3 4-5 13-17 20s-31 25-42 41c-12 18-33 32-55 37-25 6-36 15-38 31-6 37-83 112-116 112-25 0-27 3-22 24 5 19 0 29-16 40-30 21-38 20-38-4 0-26-31-26-54-1-11 13-15 27-11 40 9 30-10 26-55-10-21-17-43-28-49-24-18 10-13 25 12 36 13 6 32 24 42 41 18 30 18 31-6 49-13 10-34 19-46 19-13 0-23 3-23 8 0 4-11 20-24 37-22 28-25 29-50 15-24-12-29-12-44 4-9 9-17 29-17 43 0 23-8 30-60 51-47 18-66 21-87 14-32-12-33-10-15 19 10 17 9 22-13 39-14 11-45 27-69 37-43 16-45 16-82-4-41-23-45-22-29 6 15 28-10 52-60 57-40 5-76 17-134 46-12 6-28 5-48-3-25-10-33-9-58 10-41 30-56 27-84-17-22-36-56-71-56-58 0 3 9 20 20 38 29 47 26 58-10 48-26-7-30-6-30 10 0 30-32 40-125 40-67 0-87 3-91 15-11 28-134 13-142-17-6-24-39-23-47 2-7 21-39 27-50 10-4-6-12-7-18-3-7 4-21 7-32 8-11 0-19 6-17 13 1 7-8 12-23 12-18 0-25-5-25-19 0-21-36-71-52-71-6 0-3 8 6 19 14 15 15 23 5 45-11 22-18 26-57 26-33 0-48-5-61-22l-18-21-33 23c-37 26-102 34-165 20zm601-125c16-13 17-16 4-25-21-14-34-7-38 18-4 26 7 28 34 7zm214-4c0-11-11-29-25-40-20-15-24-25-19-45 11-44-8-53-23-10-13 37-13 40 12 59 14 12 25 28 25 38 0 9 7 17 15 17s15-9 15-19zm354-47c9-3 16-13 16-21 0-10-6-13-16-9-9 3-20 6-25 6s-9 7-9 15c0 16 9 19 34 9zm-1114-24c0-5-7-10-15-10s-15 5-15 10c0 6 7 10 15 10s15-4 15-10zm-350-15c0-8-4-15-10-15-5 0-10 7-10 15s5 15 10 15c6 0 10-7 10-15zm240-64c0-14-18-23-30-16-6 4-8 11-5 16 8 12 35 12 35 0zm1210-31c0-11-4-20-10-20-5 0-10 9-10 20s5 20 10 20c6 0 10-9 10-20zm-1320-206c4-24 10-30 38-32 19-2 41 0 50 4 10 4 22 8 27 9 6 1 12 3 15 4 11 5 58 10 120 11 36 1 93 6 128 11 42 7 76 6 103-1 26-7 50-8 67-2 19 6 43 5 77-5 28-7 84-21 125-29s83-20 93-25c16-9 56-19 139-36 26-5 26-4 21 36-3 25-2 41 5 41 11 0 22-23 22-46 0-35 77-76 169-89 24-3 53-12 64-20 12-8 31-15 43-15s32-8 45-19c13-10 35-21 49-25 24-7 71-29 135-63 17-9 43-26 58-39s44-26 63-30c20-4 38-13 41-20 3-8 13-14 23-14s35-20 56-45c20-25 42-45 49-45s15-8 18-19c2-10 29-37 58-61 30-23 95-82 145-131 51-49 96-89 100-89 5 0 22-16 37-35s34-35 42-35 15-7 15-15 9-19 20-25 20-16 20-22c0-7 16-29 36-49 19-20 36-42 38-50 1-8 20-41 41-74 56-85 62-95 85-145 12-25 32-61 45-80s26-51 30-70 14-47 23-62c15-26 19-27 69-21 52 6 53 5 53-21 0-20-5-26-23-26-13 0-28 5-35 12-17 17-28 0-14-23 9-15 10-25 1-40-6-13-8-39-4-66 5-37 9-43 25-38 17 5 20 1 20-32 0-82 6-121 19-136 7-9 11-23 8-32-4-8-2-17 2-20 11-6 24-68 26-131 2-27 6-69 10-92 4-25 3-42-3-42-10 0-22 28-26 62-3 23-35 58-53 58-7 0-13 6-13 13 0 6-16 22-34 34-28 18-36 20-45 9-8-9-7-21 3-42 7-16 20-43 27-61 7-17 21-34 31-36 14-4 16-15 13-68-7-103-18-149-36-149-5 0-9-7-9-15s-4-15-9-15c-16 0-62-77-55-93 4-11 1-17-8-17-8 0-33-20-56-45-22-25-39-45-36-45s2-5-2-11c-4-8-9-8-17 0-15 15-27 14-27-4 0-8-5-15-10-15-6 0-10-8-8-17 2-14-3-17-24-15-16 2-28-1-28-7s6-11 13-11c12-1-14-25-75-69-56-42-97-96-102-134-3-20-11-47-18-59-7-13-11-26-10-30s-4-20-10-35l-12-28-5 40-6 39-18-28c-10-15-19-49-21-74-1-26-5-52-9-59-4-6-3-15 3-18 8-5 7-14-3-28-22-35-30-92-13-106 11-9 15-7 19 9 3 11 9 20 14 19 4-1 16 1 26 6 10 4 20 5 23 2 9-9-16-76-42-114-12-18-24-37-26-42-2-4-16-14-33-22-19-9-30-22-31-37-3-51-4-54-19-48-8 3-15 1-15-4 0-6-4-10-10-10-5 0-10 8-10 17s-3 13-6 10c-4-4-1-20 6-37 12-28 11-33-10-55-16-17-34-25-57-25-18 0-33 2-33 5s15 18 32 34l33 29-27-5c-17-3-32-16-41-35-13-27-16-28-30-14-14 15-16 14-22-4-9-28-21-25-34 10-5 17-17 30-25 30-9 0-16 4-16 8s-13 16-30 25c-17 10-32 30-36 45-11 53-15 59-24 37-16-39-11-111 10-138 11-14 20-28 20-32 0-12 30-36 39-31 5 3 14-1 21-9s23-13 36-11c12 3 44-2 71-10 37-11 54-12 75-3 39 16 76 4 84-26 7-28 14-31 32-13 10 10 15 10 23-2s9-10 4 6c-4 17 1 25 29 38 19 9 38 16 44 16 5 0 13 7 16 16 5 13 2 15-14 11-11-3-20-1-20 3 0 5-2 14-5 22-7 19 31 39 60 32 16-4 25-14 27-32 3-23 4-24 16-9 12 14 10 19-12 38-29 25-33 39-12 39 13 0 33 76 38 150 3 31 0 35-19 34-24-1-27 4-17 30 3 8 12 12 19 10 9-4 16 6 21 31 3 20 12 39 18 41 7 3 13 20 13 40 1 19 6 41 12 48 9 10 9 20 0 40-14 31-6 44 16 26 8-7 15-8 15-3 0 6 12 22 26 37 15 14 27 37 27 51s5 25 13 25c20 0 55 56 48 75-6 14-3 16 14 10 18-5 26 0 43 29 12 20 27 36 35 36 16 0 34 31 34 59 0 12 3 20 8 19 4-1 24 13 45 32 24 22 35 40 32 51-4 11 4 24 20 37 26 21 26 21 6 34-27 17-27 35 0 34 26-1 69 71 69 114 0 30 16 50 42 50s33-25 14-52c-22-31-20-45 9-79 13-16 22-36 19-44-9-22-23-18-34 10-5 14-16 25-25 25-11 0-13-5-5-26 14-36 12-92-6-181-9-43-18-88-20-100-2-13-13-23-27-25-23-3-34-35-22-65 4-13 8-14 17-5 17 17 30 15 27-5-2-20 5-43 28-91 19-38 12-50-21-33-54 30-93-21-41-55 31-20 31-57 0-62-20-4-75-56-75-72 0-4 7-10 15-14 25-9 17-26-15-32-29-6-40-27-20-39 16-10 12-45-6-45-19 0-44-24-44-42 0-7 9-21 20-31 25-21 18-37-16-37-35 0-64-17-64-38 0-10-13-31-30-47-16-16-30-34-30-42 0-7-9-17-20-23s-20-16-20-23c0-8-13-26-29-41-25-24-29-34-24-65 3-20 10-42 16-49 8-10 7-16-3-22-16-10-37-3-44 16-8 21-32 17-50-10-8-13-53-62-99-108-45-46-91-95-100-110-10-15-35-37-58-48-22-12-42-27-46-35-3-8-11-15-19-15s-16-16-20-40c-6-39-17-50-29-30-13 20-55 11-67-15-10-21-8-28 8-40 18-14 18-16 2-29-10-7-18-18-18-25 0-14-27-15-35-1-4 6-21-2-42-20-20-18-47-37-62-43-14-6-40-23-57-38-18-15-54-34-80-44-27-9-59-22-71-27-11-6-26-8-31-4-5 3-38-7-73-22-35-16-91-37-124-46-87-27-171-55-213-73-20-9-50-17-67-19-46-4-116-20-161-37-46-17-346-22-418-7-60 13-96 3-96-27 0-19-4-24-16-19-9 3-22 6-30 6s-14 6-14 14c0 18-26 27-55 20-13-3-40 0-61 6-20 7-57 14-83 16-115 10-167 17-176 25-6 4-53 16-106 27s-109 26-125 35c-16 8-45 18-64 22s-45 13-57 21c-11 7-33 15-48 18-32 6-55 23-55 42s-10 17-36-7c-23-22-44-19-44 7 0 8-7 14-15 14s-15 9-15 20c0 18-7 20-59 20-55 0-61 2-73 27-14 29-117 93-149 93-10 0-19 5-19 10 0 6-7 10-15 10s-15 6-15 13-13 26-29 42c-26 24-36 27-70 22-45-6-46-5-29 23 10 16 8 23-15 44-16 15-36 26-46 26s-21 8-23 18c-3 11-22 23-47 30-28 9-41 18-41 30 0 26-23 72-36 72-7 0-14 6-17 14-4 9-14 12-26 9-19-5-20-2-15 26 4 18 2 37-5 45-15 18-23 116-9 116 5 0 7 3 4 8-7 12 21 45 35 40 7-2 14-22 15-44 2-21 6-72 9-111 6-65 8-71 22-58 18 18 16 136-4 203-10 36-10 44 2 48 13 6 95-52 95-67 0-4 16-10 35-13 19-4 35-13 35-20 0-16 20-26 46-22 12 2 21 14 24 31 9 49 30 42 30-9 0-33 4-46 14-46 9 0 12 7 9 19-3 11 2 21 11 24 10 4 16 1 16-9 0-31 26-43 101-45 91-3 244 34 260 63 5 10 20 18 32 18s33 7 45 16c12 8 22 12 22 9s6-3 13 2c6 4 34 9 62 11 27 2 53 9 57 15 6 9 11 8 17-2 7-12 13-12 24-3 7 7 17 9 20 6 4-4 54-8 113-9 61-1 109-6 112-12 4-6 27-16 51-23 87-23 241-118 241-148 0-5 7-23 15-39 23-47 55-173 54-218-1-46-23-90-61-118-24-18-31-19-74-8-53 14-70 5-61-31 17-66 227-74 227-9 0 12 5 21 10 21 6 0 10 7 10 15s4 15 8 15c11 0 44 105 44 140 3 85-51 260-79 260-7 0-13 4-13 8s-24 33-52 63c-38 40-70 62-113 79-33 13-69 29-80 36-21 13-140 45-153 42-4-1-18 4-30 11-13 7-35 10-48 7-14-4-30-3-37 1-15 9-25 11-106 19l-64 6 7-27c11-43-17-26-32 20-12 36-11 40 12 62 16 15 23 29 19 43-3 11 0 21 6 21 6 1 16 2 22 3 14 1 28 36 22 53-3 7 6 26 20 43 17 20 28 48 32 85 5 37 12 55 21 55 8 0 14 8 15 18 1 9 2 26 3 37 0 11-6 26-14 32-13 11-13 14 0 23 11 7 12 10 2 10-9 0-11 7-7 19 3 11 1 22-5 26-19 12-7 105 14 105 17 0 16 31-2 50-14 13-15 12-10-13 3-15 1-30-4-33-14-9-38 28-29 44 8 14-9 95-22 108-4 4-7 16-7 26s-7 18-15 18-15 5-15 10c0 6 7 10 15 10s15 5 15 10c0 13-6 13-30-2-15-9-22-10-31-1-16 16-4 29 32 37l32 6-21 23c-12 13-22 30-22 39s-14 31-32 49c-27 29-33 31-36 16-2-10 0-26 4-35s9-24 10-32c2-8 6-25 10-37 10-34-12-28-28 7-7 17-17 30-22 30-4 0-6 6-3 13 6 16-10 37-47 61l-29 18 6-36c8-48-13-44-29 5-7 19-15 33-18 32-29-8-30-10-19-59 9-37 8-51 0-57-9-6-9-10 1-14 6-2 12-16 12-29s6-24 13-24c25 0 35-21 27-56-8-36 5-57 21-33 15 23 30-9 27-58-1-23 3-47 8-55 5-7 11-49 13-93 1-47 9-94 19-114 12-26 13-36 4-39-7-2-12-12-12-22s-5-22-10-25c-6-4-8-11-5-16 4-5 3-14-1-21-7-11-13-42-15-79 0-9-16-31-35-48-19-18-34-39-34-47s-7-17-15-20c-8-4-13-10-10-14 6-10-96-110-112-110-6 0-13-5-15-11-5-14-104-49-140-49-15 0-30-5-33-10-4-6-12-7-18-3-17 11-57 11-57-1 0-5-8-2-18 7-23 21-30 21-35 0-3-15-6-13-15 8-6 15-25 40-43 57-32 30-33 30-47 11-11-16-16-18-29-7-11 9-14 25-10 61 4 45 2 50-26 70-16 12-34 21-39 19-12-3-38 17-38 29 0 4 9 10 19 14 10 3 21 15 24 26 6 21-7 80-25 116-8 15-8 30-2 45 14 33 11 62-6 66-26 5-49-81-51-194-2-66-16-69-54-14-15 22-32 40-38 40-5 0-7 10-4 22 7 25-13 118-25 118-5 0-11-7-14-15-7-17-49-20-59-5-10 16-23 12-35-10-9-16-7-24 5-37 11-10 15-27 13-45-3-16-1-31 4-34 4-3 8-21 8-40 0-22 6-37 15-40 19-8 20-24 1-24-26 0-26-17-2-41 13-13 28-40 35-60 6-20 24-48 40-63 20-19 31-42 36-74 4-26 12-53 17-60 7-8 7-12-1-12-6 0-11-9-11-20s-6-41-13-67c-10-37-9-47 1-50 18-7 15-21-8-28-28-9-62 12-55 35 3 11-4 33-20 55-14 21-25 49-25 63s-11 35-25 48-25 29-25 37-8 25-19 38c-10 13-21 41-25 62s-16 43-26 50c-14 8-20 23-20 50 0 34-3 38-31 44-25 5-30 10-25 27 4 14-1 26-16 37-13 10-18 21-13 29 16 26 14 90-3 99-14 8-15 13-5 29 10 17 9 23-7 37-13 12-19 29-17 49 2 26-1 31-19 29-32-3-51 38-31 68 17 25 10 86-12 112-21 27-39 126-42 242-3 114-3 251 0 278 2 14-6 101-9 105-2 1-3 6-4 12 0 5-7 15-13 22-17 16-17 49 0 43 6-3 18-1 24 3 15 10 36 147 27 184-3 17-1 28 5 28s11 8 11 19c0 10 7 24 15 31 12 10 14 24 10 55-5 31-3 44 9 54 9 8 16 21 16 30s7 27 16 39c10 15 13 32 9 53-5 20-2 36 8 47 18 22 67 146 67 173 0 25 18 61 36 72 8 4 14 21 14 37s11 45 24 64c21 31 25 33 42 22 11-8 24-14 29-15 53-9 71-25 40-37-8-4-15-12-15-20 0-17 26-19 36-3 5 8 12 5 23-10l17-22 22 22c32 29 41 15 14-21-34-46-30-64 14-57 43 7 76-7 68-28-4-8-12-15-20-15-7 0-32-23-54-52-33-41-40-57-35-77 4-14 8-27 10-29 5-5 113 67 117 78 2 8 11 8 30 1 17-6 38-7 60 0 42 12 61 12 53-1-3-5-21-12-40-16-20-3-38-10-41-15s-18-9-35-9c-30 0-90-48-102-83-10-28 10-56 41-57 15 0 38-1 52-1 14-1 43 6 65 15 37 16 39 18 21 31-23 17-13 35 20 35 13 0 24 5 24 10 0 6-4 10-10 10-20 0-9 21 30 61 22 23 40 45 40 49s7 13 15 20c35 29-16 92-74 90-60-3-76 7-79 47-1 20-7 42-12 48-6 7-9 23-8 36 2 16-4 27-19 34-13 5-22 16-20 25 1 10-8 15-28 17-78 6-104 9-110 14-3 3-34 0-70-6l-65-13v24c0 16 8 28 23 35 13 6 30 26 37 45 8 19 24 41 37 50 13 8 28 26 33 40 5 13 21 29 36 34 16 6 24 16 21 24s5 23 18 35c14 11 27 32 31 46 3 14 13 25 22 25 22 0 62 40 62 62 0 9 11 25 25 34 46 30 95 80 95 97 0 10 8 17 19 17s31 14 44 30c14 17 33 30 42 30 8 0 18 7 21 15 4 8 12 15 20 15 25 0 129 68 181 119 29 28 57 51 63 51s33 16 60 35 54 35 59 35 11 6 14 14c7 17 67 48 67 35 0-15 46-10 60 6 7 8 18 15 26 15 7 0 35 14 61 30 26 17 54 28 62 25s22 2 32 11 44 18 80 21c52 5 64 3 75-11 20-28 49-16 49 21 0 39 4 43 51 48 51 6 113 15 143 21 22 5 23 8 17 50-4 34-3 45 7 41 6-2 14-17 17-33zm1336-1c-11-11-19 6-11 24 8 17 8 17 12 0 3-10 2-21-1-24zm-2072-6c-9-24-23-11-17 14 3 12 9 17 15 11 5-5 6-16 2-25zm206-76c0-17-12-41-21-41-10 0-12 33-2 43 9 10 23 9 23-2zm1960-41c0-5-5-12-11-16-14-8-33 11-25 25 7 11 36 4 36-9zm188-29c3-8-1-12-9-9-7 2-15 10-17 17-3 8 1 12 9 9 7-2 15-10 17-17zm-91-48c-3-10-5-2-5 17s2 27 5 18c2-10 2-26 0-35zm-3062-43c-5-8-11-8-17-2s-7 16-3 22c5 8 11 8 17 2s7-16 3-22zm3295 21c0-11-29-35-35-29-10 9 7 38 21 38 8 0 14-4 14-9zm548-13c-5-15-23-11-26 6-2 11 2 14 13 10 9-4 14-11 13-16zm-475-36c10-10 14-22 10-25-12-13-40-7-57 12-18 20-17 22 25 30 3 0 13-7 22-17zm-3248-21c-9-16-25-3-18 15 4 10 9 12 15 6s7-15 3-21zm3789-4c15-24-3-35-20-13-8 11-14 24-14 29 0 13 22 3 34-16zm-3589-27c10-16-16-43-28-31-11 11-2 41 12 41 5 0 13-5 16-10zm3015 0c0-5-7-10-15-10s-15 5-15 10c0 6 7 10 15 10s15-4 15-10zm-3212-63c2-10-3-17-12-17-10 0-16 9-16 21 0 24 23 21 28-4zm3492-21c0-8-5-16-11-18-7-2-7-12 0-31 6-16 11-43 11-60 0-28-5-34-35-43-39-12-42-8-23 43 9 25 9 39 2 51-9 13-6 22 15 43 30 31 41 35 41 15zm-3636-192c20-8 21-38 1-54-29-24-60 21-33 48 14 14 12 14 32 6zm3794-69c0-31-5-45-14-45-8 0-14 10-14 25 0 14-4 25-10 25-5 0-10 9-10 20 0 15 7 20 25 20 22 0 24-4 23-45zm-3960-232c4-29-23-36-50-13l-23 19 25 10c33 13 44 9 48-16zm-246-385c-9-9-12-7-12 12s3 21 12 12 9-15 0-24zm-232-49c0-24-23-21-28 4-2 10 3 17 12 17 10 0 16-9 16-21zm5030-114c0-20-66-31-87-14-14 13-13 15 13 20 51 11 74 10 74-6zM385 3640c-5-8-10-9-18-1-6 6-19 11-28 11-25 0-32 16-18 41 11 21 11 21 41-9 18-18 27-35 23-42zm125 63c0-5-4-15-10-23-11-18-25-7-17 15 6 15 27 21 27 8zm5030-172c0-5 7-17 16-26 19-18 17-22-11-27-13-2-20 3-20 14 0 9-4 20-8 24-12 12-8 24 8 24 8 0 15-4 15-9zm120-1c0-5-9-14-19-20-25-13-38 5-14 19 23 13 33 14 33 1zm400-39c0-15-30-21-71-15-57 9-48 24 16 24 30 0 55-4 55-9zm-5700-10c0-13-29-35-37-28-7 8 15 37 28 37 5 0 9-4 9-9zm-160-33c0-13-23-5-28 10-2 7 2 10 12 6 9-3 16-11 16-16zm158-61c-4-25-34-45-46-32-6 6-4 23 5 43 12 29 16 32 29 21 8-7 14-21 12-32zm-123-24c-4-10-10-31-13-48-2-16-10-37-18-45-11-13-11-21 2-45 14-28 14-31-5-43-16-11-18-17-9-31 13-21 2-74-14-69-6 2-17 29-25 58-13 51-13 56 4 70 18 15 22 27 26 101 2 39 21 69 44 69 11 0 13-5 8-17zm115-66c0-29-48-56-61-35-9 15-2 28 16 28 7 0 15 7 19 15 9 23 26 18 26-8zm5787-122c13-14 13-18-1-40-9-13-16-32-16-42-1-26-27-56-40-48-16 10-8 108 9 129 17 20 28 20 48 1zm-5597-10c10-13 9-15-9-15-12 0-21 6-21 15 0 8 4 15 9 15s14-7 21-15zm60-66c12-16 20-32 17-35-9-9-47 30-47 48 0 25 5 23 30-13zm-56-15c9-22 8-24-9-24-8 0-15 9-15 20 0 24 15 27 24 4zm-224-30c0-8-4-14-10-14-5 0-10 9-10 21 0 11 5 17 10 14 6-3 10-13 10-21zm-117-33c-3-10 0-22 6-25 6-4 11-21 11-38 0-25-3-28-14-19-23 19-42 74-28 79 7 2 12 10 12 18 0 9 4 13 9 10s7-15 4-25zm112-30c7-12-12-24-25-16-11 7-4 25 10 25 5 0 11-4 15-9zm338-28c4-3 0-14-9-24-10-11-15-28-12-43 3-17-1-31-13-42-16-14-18-14-28 5-7 13-8 27-2 38 5 10 14 30 20 46 10 26 30 35 44 20zm4975-75c26-26 2-75-31-62-22 8-29 32-17 55 12 22 30 25 48 7zm-5363-48c7-12-30-50-49-50-8 0-17 7-20 16-11 29 53 60 69 34zm401-131c10-17-13-36-27-22-12 12-4 33 11 33 5 0 12-5 16-11zm-252-26c-10-49-13-53-38-53-37 0-39 26-5 55 39 32 51 32 43-2zm206-48c0-28-15-34-24-9-10 25-7 34 9 34 9 0 15-9 15-25zm-306-13c2-4-5-18-15-31l-20-24-24 23c-14 13-25 26-25 30 0 9 78 11 84 2zm356-62c0-26 4-30 26-30 24 0 26-3 19-27-4-16-7-41-8-57-4-63-36-32-52 52-4 17-11 32-16 32-14 0-11 48 4 53 23 10 27 7 27-23zm-264-77c19-25 17-33-6-33-15 0-20 7-20 25 0 29 8 32 26 8zm114-58c7-9 11-18 8-20-9-10-38 7-38 21 0 18 14 18 30-1zm-241-38c6-8 8-17 4-20-7-8-33 11-33 24s16 11 29-4zm349-26c3-8-1-12-9-9-7 2-15 10-17 17-3 8 1 12 9 9 7-2 15-10 17-17zm-318-26c0-8-7-15-15-15-26 0-18 20 13 29 1 1 2-6 2-14zm84-192c-7-36-25-73-35-73-4 0-5 17-3 38 8 54 12 62 29 62 12 0 14-7 9-27zm5316-24c0-12-7-19-18-19-28 0-34 11-16 31 19 21 34 16 34-12zm-5190 11c0-5-4-10-10-10-5 0-10-8-10-19 0-10-6-24-13-30-11-8-14-4-14 22 0 17 5 35 11 39 16 11 36 10 36-2zm229-26c9-8-13-24-35-24-23 0-32 18-17 33 6 6 42 0 52-9zm40-103c11-7 1-23-45-70-51-54-63-61-97-61-23 0-36 4-32 10 3 6 17 10 31 10 33 0 94 61 94 95 0 26 21 33 49 16zm4531-68c0-21-5-45-10-53-23-35-36 45-13 83 11 19 23 3 23-30zm-543-13c-4-19 0-40 11-59 16-28 16-31-2-50-22-24-41-28-33-7 8 19-14 66-30 66-20 0-15 17 15 50 34 38 46 38 39 0zm-4197-50c0-5-7-10-15-10s-15 5-15 10c0 6 7 10 15 10s15-4 15-10zm4744-44c-6-16-34-30-34-18 0 10 22 32 32 32 4 0 5-6 2-14zm-4744-91c0-8-4-15-10-15-5 0-10 7-10 15s5 15 10 15c6 0 10-7 10-15zm270-41c0-9-7-14-17-12-25 5-28 28-4 28 12 0 21-6 21-16zm10-116c0-28-5-38-20-43-11-3-20-13-20-20 0-8-8-13-17-13-10 0-26-3-35-7-22-9-23 9-3 49 18 34 19 63 4 68-7 2-9 13-5 25l7 21 44-21c41-20 45-25 45-59zm200 68c0-8-7-16-14-19-8-3-18-22-22-42-3-20-11-34-18-32-16 6-8 68 11 89s43 24 43 4zm-110-24c0-13-12-22-22-16s-1 24 13 24c5 0 9-4 9-8zm4360-69c0-20-24-11-28 10-2 12 1 15 12 11 9-3 16-13 16-21zm-4345-22c3-5 0-13-6-16-6-4-8-18-4-32 5-21 3-24-10-19-9 3-23 6-31 6-20 0-17 16 8 45 23 27 33 31 43 16zm4208-40c-23-31-55-38-72-17-18 21-5 36 29 36 16 0 35 6 42 14 22 23 22-4 1-33zm-206-16c19-19 9-95-13-95-20 0-29 27-15 44 7 8 9 25 5 40-7 29 0 33 23 11zm-4077-60c0-8-4-15-9-15s-11 7-15 15c-3 9 0 15 9 15 8 0 15-7 15-15zm163 1c12-8 50-17 85-21 53-6 66-4 83 11 19 17 21 17 65-6 47-26 55-44 27-58-27-14-105-24-99-13 4 5-8 16-25 25-29 15-33 14-59-4-34-24-44-25-60-5-7 8-16 15-21 15s-9-7-9-15c0-23-16-18-39 11-43 55-7 97 52 60zm4517-56c0-11-4-20-10-20-5 0-10 9-10 20s5 20 10 20c6 0 10-9 10-20zm-455-49c-8-13-55-15-55-2 0 5 12 11 28 13 32 4 36 3 27-11zm-3817-33c20-20 14-35-19-47-24-8-36-8-45 0-20 17-17 39 5 39 11 0 23 5 26 10 8 13 18 13 33-2zm3955-5c23-7 22-50-2-63-28-15-33-13-26 10 5 15 2 20-12 20-11 0-24-5-30-11s-17-8-23-4c-17 11 40 67 60 59 8-3 23-9 33-11zm-4280 1c8-8-3-34-14-34-5 0-9 9-9 20 0 19 11 26 23 14zm427-45c0-5-9-13-20-19-19-10-20-9-16 17 2 15 5 30 5 32 2 7 31-21 31-30zm-220-38c0-5-9-11-20-14-22-6-29 18-7 26 14 5 27-1 27-12zm125-46c0-33-21-41-38-14-14 22-1 51 20 47 13-2 18-13 18-33zm143-54c-2-9-10-16-18-16-10 0-16 12-18 40l-2 40 20-24c12-13 19-31 18-40zm-306-1c-3-31-9-35-27-20s-20 37-2 43c21 9 32 1 29-23zm194-24c6-17-12-56-26-56-12 0-24 46-15 59 9 16 35 13 41-3zm-126-16c0-5-7-10-15-10s-15 5-15 10c0 6 7 10 15 10s15-4 15-10zm490-5c41-21 37-34-10-33-31 0-40 4-40 18 0 15 8 30 17 30 2 0 17-7 33-15zm3499-24c-26-22-49-27-49-12 0 5 12 19 27 31 35 28 57 10 22-19zm-4049 9c0-5-7-10-15-10s-15 5-15 10c0 6 7 10 15 10s15-4 15-10zm373-40c-3-42-26-140-32-139-3 0-17 14-30 31-20 25-22 34-13 49 17 26 15 37-8 44-30 10-24 25 9 25 17 0 33 5 36 11 13 20 40 5 38-21zm-335-32c16-16 15-28-3-28-8 0-15 2-15 4s-3 11-6 20c-7 19 7 21 24 4zm435-43c15-14 27-30 27-35 0-16-40-52-53-47-13 4-23 107-10 107 5 0 21-11 36-25zm3397 15c0-5-9-10-20-10s-20 5-20 10c0 6 9 10 20 10s20-4 20-10zm-3653-36c9-23-11-38-26-20-13 16-7 36 10 36 5 0 12-7 16-16zm3607-20c9-24 7-28-9-14-17 14-20 30-6 30 5 0 12-7 15-16zm-3704-13c0-14 10-21 38-28 26-6 38-15 40-30 2-16-3-22-30-26-35-5-58 12-58 44 0 9-7 22-15 29-21 17-19 30 5 30 13 0 20-7 20-19zm564-15c15-24 13-56-5-56-4 0-15 10-23 21-14 21-23 22-76 8-8-2-15 2-15 10s18 20 40 27c57 17 61 17 79-10zm249-41c1-5-8-11-20-13-15-2-23 2-23 11 0 16 39 18 43 2zm75 2c14-16 11-57-3-57-18 0-35 23-35 47 0 25 21 31 38 10zm162-26c0-10-30-24-37-17-3 3-2 9 2 15 8 13 35 15 35 2zm2500-1c0-5-7-10-15-10s-15 5-15 10c0 6 7 10 15 10s15-4 15-10zm-3066-22c22-32 21-68-3-68-35 0-81 13-81 22 0 18 41 68 55 68 8 0 21-10 29-22zm2976 12c0-13-28-25-38-16-3 4 0 11 8 16 20 13 30 12 30 0zm-2871-14c14-16-1-56-20-56-15 0-28 43-17 58 13 16 23 15 37-2zm-266-27c-23-40-65-72-88-67-13 2-7 13 30 51 56 56 87 65 58 16zm1088-12c-1-12-15-9-19 4-3 6 1 10 8 8 6-3 11-8 11-12zm-471-18c0-11 4-18 9-14 20 12 22-18 3-37-27-27-42-15-42 33 0 28 4 39 15 39 8 0 15-9 15-21zm2470 7c0-16-18-31-27-22-8 8 5 36 17 36 5 0 10-6 10-14zm-2790-21c0-8-4-15-9-15s-11 7-15 15c-3 9 0 15 9 15 8 0 15-7 15-15zm450-27c0-6-10-22-22-35-13-14-22-38-24-61-2-49-16-55-27-12-5 19-13 39-18 45-18 18-9 35 20 35 20 0 30 6 34 20 5 21 37 28 37 8zm891 2c6 0 7-4 4-10-3-5-17-10-30-10-18 0-23 4-18 16 3 8 12 13 20 10s19-6 24-6zm-1530-23c-13-13-26-3-16 12 3 6 11 8 17 5 6-4 6-10-1-17zm242 17c9-9-4-35-14-28-5 3-9 12-9 20 0 14 12 19 23 8zm247-109c0-8-7-15-15-15s-15 7-15 15 7 15 15 15 15-7 15-15zm960 5c0-5-7-10-15-10s-15 5-15 10c0 6 7 10 15 10s15-4 15-10zm1150-20c0-11-4-20-10-20-5 0-10 9-10 20s5 20 10 20c6 0 10-9 10-20zm114-12c-3-5-12-4-20 3-7 6-11 15-8 21 3 5 12 4 20-3 7-6 11-15 8-21zm-2499 2c18-19 18-21-1-60-21-44-26-47-44-25-10 13-10 19 4 34 15 16 15 19 1 31-8 7-15 19-15 26 0 21 34 17 55-6zm435 5c0-8-7-15-15-15s-15 7-15 15 7 15 15 15 15-7 15-15zm440-9c0-7-7-19-15-26s-15-9-15-5c0 5-9 0-20-10-26-24-32-16-18 23 10 25 18 32 40 32 17 0 28-5 28-14zm-372-13c-2-10-10-18-18-18s-16 8-18 18c-2 12 3 17 18 17s20-5 18-17zm1546-9c9-3 16-13 16-21 0-10-6-13-16-9-9 3-18 6-20 6s-4 7-4 15c0 17 2 18 24 9zm-1959-95c-5-16-10-18-21-9-16 14-29 74-18 91 11 18 47-57 39-82zm238 64c-5-12-7-12-14-1-13 20-11 28 5 22 8-3 12-12 9-21zm239-13c-1-7 3-18 9-26 16-19 3-30-16-14-18 15-21 64-2 57 6-2 11-10 9-17zm-62-14c0-7-7-30-15-50-16-38-39-47-49-18-3 9-9 23-12 31-4 8-2 11 3 8 6-4 21 5 33 18 26 28 40 32 40 11zm-315-16c22-24 17-31-13-23-13 3-22 13-22 24 0 25 12 24 35-1zm1765-25c0-8-7-15-15-15s-15 7-15 15 7 15 15 15 15-7 15-15zm-1080-35c0-5-7-10-15-10s-15 5-15 10c0 6 7 10 15 10s15-4 15-10zm-435-61c0-7-8-15-17-17-18-3-25 18-11 32 10 10 28 1 28-15zm245 6c0-8-4-15-10-15-5 0-10 7-10 15s5 15 10 15c6 0 10-7 10-15zm-210-65c8-5 11-12 8-16-10-9-38 3-38 16 0 12 10 13 30 0zm460-24c0-15-18-31-26-23-7 7 7 37 17 37 5 0 9-6 9-14z" />
    <path
      d="M2650 5171c-25-9-67-29-93-45s-71-36-100-45-57-19-64-24c-15-10-83-113-83-126 0-6 14-11 31-11 41 0 33-22-12-35-55-16-62-24-56-61 3-19 2-36-2-39-8-4-6-36 2-75 9-36 30-75 51-95 33-30 40-68 16-83-11-6-26-25-35-42-13-26-13-30-1-30 10 0 14-10 14-29-1-15 2-33 6-39 9-16 84-37 94-27 4 4 1 10-6 12-6 3-9 9-6 14 4 6 10 6 17 0 7-5 28-12 48-15s43-8 52-12c25-9 21 1-14 38-59 63-84 108-72 127 9 14 8 22-5 35-15 15-15 16 3 16 28 0 49-16 40-30-4-6 0-17 8-23 8-7 20-28 26-48 17-53 44-77 98-85 25-4 62-16 80-26 46-27 42-7-5 26-21 14-48 40-61 56-12 17-29 30-37 30-17 0-74 55-74 71 0 5 8 9 18 9s23 5 30 12c17 17 40-6 48-48 6-35 55-94 78-94 7 0 19-7 26-15 7-9 21-13 31-10 28 9 54-10 78-56 22-41 21-63-1-41-20 20-31 14-24-12 6-25-14-51-22-28-2 7-15 3-37-9-23-14-55-21-97-23-40-1-72-8-87-18-13-9-30-14-38-11s-19 0-23-7c-7-11-12-11-23-2-19 16-97-16-97-40 0-10-7-18-15-18s-12 6-9 13c4 10-7 14-41 15-36 2-51-3-75-25-16-14-30-32-30-39s-10-14-22-16c-17-2-23-10-24-29-1-14-4-31-8-38-11-16 13-71 30-71 13 0 16-13 18-103 1-28 2-29 63-31 63-2 68 5 21 28-31 16-31 52 0 48 13-1 31-11 40-21 10-10 33-24 52-30 30-10 37-9 47 5 7 10 25 17 43 16 16 0 30 4 30 9s-9 9-20 9c-12 0-33 12-48 27s-30 28-34 29c-5 1-12 2-18 3-17 2-12 71 5 71 8 0 14-3 14-7-3-20 2-26 11-13 8 13 10 12 10-2 0-10 5-18 10-18 6 0 10-8 10-17 0-29 59-62 100-56 67 8 83 14 73 24-6 6-19 6-37-1-37-14-46-13-46 6 0 9 9 18 19 21 18 5 18 6 3 24-9 10-22 19-28 19-14 0-11 107 4 122 10 10 42-27 42-49 0-7 7-13 15-13s15-4 15-8c0-5 14-22 30-39 36-36 78-38 114-4 12 11 25 18 29 15 12-13 67 18 67 38 0 10 7 21 15 24 8 4 15 12 15 20s9 14 19 14c11 0 23 5 26 10 4 6 1 9-5 8-7-2-14 5-15 15-3 14 1 16 16 12 16-5 20 0 26 25 3 18 12 34 19 37 8 3 12 8 10 12-3 4-1 25 4 46 5 22 5 42 1 45-5 3-12 20-16 38-3 17-10 32-15 32s-12 10-15 23c-8 24-44 59-88 83-22 12-32 13-43 3-19-15-31-4-15 15 9 11 5 15-23 20-44 8-59 33-76 123-17 95-31 100-92 31-40-45-52-53-82-53-22 0-36 5-36 13 0 6-7 12-15 12-22 0-37 37-38 99-2 120 107 257 218 274 22 3 67 11 100 16 72 13 145-1 188-36 16-13 33-23 37-23 5 0 25-14 44-30 24-22 37-44 44-78 18-81 20-104 11-131-4-14-10-42-12-62-5-42-21-75-54-110-18-20-21-29-12-35 8-5 18 1 27 14 14 21 42 30 42 14 0-5-11-19-25-32s-25-28-25-33c0-6-7-18-15-27-15-16-13-17 20-13 33 3 36 2 30-17-4-11-2-20 4-20s11 4 11 10c0 5 13 16 29 25 49 25 61 43 61 91 0 30-4 43-11 38-6-4-9 1-8 12 2 11 0 25-5 32-6 11-1 13 25 10 30-3 34-1 31 20-2 12 1 22 6 22 10 0 38 98 33 115-1 6-4 26-6 45s-15 58-29 85c-14 28-26 55-26 60-1 6-12 19-26 30-13 11-45 39-71 62-55 51-78 60-99 39-8-9-24-16-35-16-31 0-22-16 20-35 22-10 42-24 45-31 7-19-7-17-49 6-20 11-46 20-59 20-26 0-36 17-36 60 0 55-7 60-74 59-33-1-81-9-106-18zm464-223c24-53 38-111 34-143-2-24-8-14-26 50-31 104-36 125-29 125 3 0 13-15 21-32zm-50-34c9-3 16-12 16-20 0-20-13-17-28 6-13 22-12 23 12 14zm35-96c1-5-3-8-8-8-12 0-22 30-14 43 6 10 20-13 22-35zm1-54c0-14-4-23-10-19-5 3-10 15-10 26 0 10 5 19 10 19 6 0 10-12 10-26zm-419-565c-14-49-12-60 20-98 34-43 34-57-1-46-46 15-80 121-48 153 15 15 34 9 29-9zm119-6c6-16 15-36 20-45 15-26 12-38-7-38-42 1-73 53-53 90 15 28 29 25 40-7zm-584-163c-6-45 10-60 63-60 26 0 31-4 31-24 0-32-16-42-29-19-8 14-12 15-22 6-9-9-18-9-40 3-25 13-29 20-29 58 0 50 8 76 21 76 6 0 8-18 5-40zm171-126c4-12-42-26-52-16-3 3 0 11 7 19 13 16 39 14 45-3zM4156 5102c-4-7-30-12-61-12-45 0-56-4-65-21-7-11-14-18-17-15-3 2-15-4-26-15-14-12-30-18-43-15-19 5-64-21-64-38 0-13-36-46-51-46-21 0-53-36-44-50 3-5 10-8 14-5 7 4 12-61 12-135 0-57 67-230 106-270 33-35 47-24 18 14-8 11-15 29-15 39 0 16 3 17 15 7 8-7 15-19 15-27s13-22 29-31c17-9 32-25 35-34 2-10 12-18 23-17 10 0 13 3 6 6-7 2-13 11-13 18s-5 15-12 17c-6 2-8 9-5 15 9 14 52-6 92-43l28-26-7 43c-4 24-12 47-18 50-9 6-8 12 1 23 17 20 31 20 31 1 0-8 9-15 20-15 24 0 59-19 77-40 20-24 16-68-7-75-24-8-26-24-3-40 26-19 7-38-21-20-12 8-26 12-29 8-4-3-25-6-47-5-28 1-40-2-40-12 0-7-10-21-22-29-19-13-20-18-9-25 24-17 2-33-35-26-24 4-34 2-34-6 0-7-7-10-15-6-8 3-15 1-15-5s9-13 20-16 20-9 20-15c0-5 8-5 18 1 13 7 22 7 29 0 16-16 53-1 53 22 0 14 4 18 13 12 19-13 57-10 57 4 0 7 7 13 15 13s15 7 15 15c0 11 7 14 25 9 17-4 32-1 43 9 9 8 27 18 40 21 14 5 22 15 22 30 0 14 10 28 25 36 22 12 24 18 19 49-3 20-11 47-17 61-15 33-88 110-104 110-7 0-13 6-13 13-1 8-5 6-13-4-10-14-16-15-30-4-9 7-17 19-17 27s-11 20-25 26c-26 12-32 27-15 37 8 5 7 11-1 21-6 7-16 11-22 7-5-3-16 2-24 12-8 12-13 14-13 6 0-7-6-11-15-8-8 4-17 2-20-3-4-6-16-10-29-10-20 0-35 9-85 51-10 9-12 27-8 66 7 65 28 100 65 109 15 4 32 10 37 15 6 4 31 11 55 15 25 4 50 11 57 16s17 7 23 3 16-2 23 3c15 12 113 8 147-5 14-6 42-13 63-17 29-5 39-4 43 9 9 22-26 47-44 33-10-9-14-6-19 10-6 24-32 29-51 10-9-9-13-7-18 6-6 16-8 15-26-4-16-17-23-19-34-9-19 15-18 29 4 45 15 12 11 13-30 14-27 0-48 5-50 12-3 9-6 9-12 0zm-169-432c4-13 14-20 29-20 18 0 27-8 34-27 6-16 14-35 19-44 15-26 4-28-44-5-39 19-44 24-39 48 4 20 1 28-15 33-25 7-28 35-5 35 9 0 18-9 21-20zm-37-67c0-21-28-15-35 7-10 30 5 47 22 25 7-11 13-25 13-32z" />
    <path
      d="M4455 4980c-3-5 1-10 9-10 20 0 32-20 17-30-9-5-9-13 0-33 7-15 16-27 21-27 14 0 57-53 58-70 0-8 7-23 15-33 7-11 17-36 20-58 4-21 11-41 15-44 5-3 7-12 3-20-3-9-1-21 5-28s15-43 20-80c7-55 6-71-7-89-8-12-16-33-17-46-4-33-37-102-63-129-12-12-21-27-21-32 0-6-12-14-27-17-16-4-31-11-34-17-4-5-30-10-58-10-38 0-52-4-56-16-6-20-113-71-147-71-35 0-42-11-16-24 28-14 48-85 27-97-24-13-129-119-129-130 0-18 44-27 65-14 11 7 32 15 47 19 32 7 98 74 98 98 0 10-9 33-20 53-24 43-24 45-5 45 8 0 15-4 15-10 0-5 7-10 15-10s15 4 15 9 14 11 30 13c38 6 41-17 5-34-24-11-34-41-17-52 10-6 92 16 92 26 0 4 12 5 28 3 31-6 65 18 76 53 10 30 36 28 36-2 0-15-7-27-19-31-11-3-22-12-25-20s-12-15-21-15c-8 0-15-4-15-10 0-17 30-11 53 10 12 11 35 25 52 29 24 8 26 9 8 10-38 2-26 29 17 41 22 6 45 8 50 5 6-3 10-2 10 3s11 10 23 10c35 0 77 31 77 56 0 26-39 63-81 78-16 5-29 13-29 17s16 30 35 57 38 65 41 84 12 47 19 61c12 22 12 29 0 45s-12 22 1 41c9 15 10 24 3 28-6 4-7 20-3 37 6 29 5 30-20 24-23-6-26-3-26 18 0 18 4 24 15 20 8-4 15-2 15 4s2 16 5 24c3 7 1 19-4 27-8 12-12 12-24 2-13-10-19-3-42 44-27 54-45 70-45 40 0-8 4-15 8-15 5 0 9-13 10-30 1-49-30-32-44 23-3 16-24 49-46 74-26 30-38 53-35 65 4 15 1 18-15 12-14-4-19-2-16 7 2 7-4 21-14 31-21 21-25 22-33 8zM3804 4592c3-9 8-29 11-43 4-15 18-36 31-48 29-26 32-10 3 18-12 11-18 24-14 30 3 6 1 11-5 11-7 0-9 8-5 19 3 12 0 21-10 25-12 4-15 1-11-12zM2118 4439c15-16 16-53 1-80-14-28-31-13-24 22 5 22 3 29-9 29-18 0-116-94-116-112 0-7 19-21 41-32 41-19 63-53 53-81-4-8-3-15 0-15 13 0 56 33 56 43 0 5 11 20 25 33 25 23 34 64 14 64-16 0-53-22-62-36-9-15-37-19-37-6 0 22 79 72 114 72 30 0 39 31 19 60-12 17-17 19-30 8-13-10-14-8-11 12 2 20-2 26-22 28-20 3-23 1-12-9zM2210 4420c0-5 9-10 20-10s20 5 20 10c0 6-9 10-20 10s-20-4-20-10zM2252 4388c6-17 67-58 86-58 13 0 12 3-4 18-48 44-90 65-82 40zM1906 4285c-4-19-10-35-14-35-13 0-41-60-36-75 10-26 23-16 35 28 6 23 15 47 20 53s7 13 4 16 1 11 10 18c19 16 19 30 1 30-8 0-17-15-20-35z" />
    <path
      d="M1952 4238c-11-15-72-141-72-151 0-4 13-7 30-7 23 0 31-5 36-25 6-25 18-32 28-16 3 5 15 7 26 4 12-3 22 1 26 10 3 9 11 14 17 11 12-4 40 66 31 76-3 2-19-3-36-13s-32-16-34-14c-3 2 3 20 11 40 20 49 19 74-4 87-26 13-46 13-59-2zM4766 4223c-11-11-6-23 9-23 8 0 17-14 20-34 9-47 3-71-18-71-10 0-23-9-29-19-10-17-8-18 18-11 16 5 39 8 52 8 12-1 22 5 22 13 0 19 16 18 24-1 5-13 9-13 26-3 27 17 25 26-10 46s-37 28-10 35c11 3 20 10 20 16 0 14-48 33-61 25-6-3-20 1-33 10-13 8-26 12-30 9zM4927 4164c-9-9 12-49 34-62 17-11 19-9 19 22 0 37-32 61-53 40zM3265 4150c-11-4-46-6-77-3-47 5-59 3-64-11-3-9-12-16-19-16-18 0-65-39-65-55 0-23-69-92-78-78s-67-10-93-39c-9-10-21-18-27-18-8 0-22-22-22-34 0-1 10-2 23-2 17 1 21-4 19-19-3-23 43-73 55-61 4 4 2 10-4 14s-14 31-18 60c-6 48-5 52 12 45 10-3 22-12 26-20 4-7 17-13 27-13 22 0 27-16 8-22-8-3-6-16 8-45 19-40 20-41 68-39 64 2 73 23 10 22-39-1-48 2-55 22-7 19-4 24 19 34 15 6 45 11 67 12 36 1 40-1 41-24 1-43 4-51 14-45 14 8 13 71-2 112-13 37-8 48 19 39 11-3 19-16 19-31 1-15 9-34 18-44 8-9 14-30 13-46-2-24 2-29 17-27 26 5 15-20-15-35-63-30-79-35-105-37-53-3-102-26-108-49-9-34-7-38 12-28 9 6 34 13 55 16 20 3 37 11 37 16 0 6 12 9 28 8 35-3 92 10 92 22 0 5 6 9 14 9 17 0 15 65-5 153-12 50-11 59 1 67 23 15 26 13 46-35 18-45 54-64 54-29 0 12 3 14 13 6 14-12 57-12 57 0 0 4-4 8-10 8-5 0-10 7-10 15 0 14 15 19 50 17 8 0 19 6 23 14 19 34 59-31 62-100 1-31-4-42-27-59-15-11-28-27-28-34s-4-13-10-13c-5 0-10 4-10 9 0 12-46 20-61 10-14-8 58-57 76-50 6 2 24 4 40 6 17 2 33 3 37 4 17 3 19 75 4 146-9 42-16 81-16 86 0 15 30 10 36-6 4-8 10-12 15-9s9-2 9-11c0-11 8-15 28-13s26-1 24-14 5-16 34-14c23 2 37-1 41-10 9-23 20-16 27 16 5 27 9 30 35 25 24-4 30-1 35 17 5 22 6 22 20 3 10-14 25-19 53-19 51 2 68-28 48-84-25-72-35-109-35-125 0-9-6-20-12-24-12-8-38-47-38-58 0-3 11-5 25-5 19 0 25-5 25-21 0-15-5-19-15-15-20 7-37-33-23-51 8-10 6-13-6-13-19 0-22-30-3-30 15-1 49-67 37-75-5-3-11-1-15 5-9 14-45 12-46-2-2-23 1-62 10-148 5-47 10-89 10-95 1-5 6-4 13 3 16 16 29 15 27 0-3-20 12-48 26-48 30 0 52 36 59 96 5 51 4 65-10 78-23 24-48 16-52-17-6-51-22-27-22 33 0 55 10 75 25 50 3-5 12-7 21-3 8 3 23-2 33-11 15-14 20-14 30-3 6 8 9 21 6 30-4 8-1 42 5 76s8 66 5 71c-8 13-45-21-45-42 0-10-7-18-16-18-13 0-15 6-9 33 21 88 21 137 3 157-19 21-18 27 22 114 26 58 25 91-1 110-15 10-19 20-15 33 7 17 8 17 24-2 9-11 26-28 38-38 21-17 22-16 66 27 25 24 48 51 51 60 4 9 15 16 26 16 44 0 48 68 5 84-21 8-73-24-119-75-31-35-40-39-65-34-35 8-46 21-32 38 6 7 13 33 17 60 9 55 18 65 38 37 14-20 27-17 27 7 0 32-109 46-174 22-31-11-38-11-54 4-20 19-42 22-42 7 0-5-10-14-22-21-18-10-20-9-15 5 8 20-6 28-60 32-51 3-51 3-57-86-5-74-14-102-29-97-22 7-31 35-20 59 7 13 14 44 18 70 6 44 5 48-19 54-13 3-33 1-44-5-14-7-23-8-27-1-8 13-62 13-70 0-3-5-13-6-22-3-9 4-21-1-29-11-10-14-16-15-33-6-12 6-21 15-21 20 0 12-8 12-35 0zM1806 4113c-4-4-16-27-26-50-10-24-26-46-34-49-24-9-19-21 10-28 41-11 63 2 70 40 3 19 10 34 15 34s9 14 9 30c0 22-5 30-18 30-10 0-22-3-26-7z" />
    <path
      d="M1862 4025c-7-9-16-38-19-65-6-53-24-66-43-30-10 19-49 28-51 13-4-22-8-53-12-97-3-31-10-52-21-58-9-5-13-14-10-20 4-6 1-14-6-18s-13-23-14-41c0-19-4-36-8-39-3-3-7-30-8-60-3-82-3-80 24-67 16 8 24 19 23 32-3 26 25 26 30 0 12-66 12-75-3-75-8 0-19 10-24 23-8 21-9 21-9 1-1-11-6-25-12-31-7-7-7-17-1-29 26-51 34-73 28-82-10-17 16-112 31-112 8 0 12-4 8-9-3-5-1-12 4-15s7-15 4-26 0-20 6-20 11 11 11 25 4 25 8 25c10 0 52-77 52-94 0-15 66-37 86-29 23 9 16-16-12-42-31-29-44-31-44-10 0 8-4 15-10 15-14 0-12-23 4-56 8-15 13-31 11-35-3-4 4-9 14-12 14-3 18-11 14-26s-1-21 10-21c12 0 15 8 13 33-2 17-7 40-11 50-12 29 5 34 27 7 12-15 18-34 16-51-4-23-1-26 24-25 15 1 28 7 28 14 0 18 14 15 35-8 10-11 26-20 37-20 10 0 18-7 18-15 0-9 9-15 25-15 31 0 31 10 0 61-24 37-26 59-4 59 5 0 9-6 9-13 0-12 10-27 51-75 19-23 21-6 4 52-13 45-20 56-33 52-26-8-48 9-34 27 9 11 7 19-13 37-14 13-25 28-25 34s-11 28-25 48l-24 36 22 41c14 27 18 44 12 49-6 4-17 26-25 50-13 40-40 59-40 27 0-8-7-15-15-15s-15 9-15 20-4 20-10 20c-5 0-10 7-10 15s-5 15-12 15c-9 0-9 3 0 12s15 8 26-7c21-29 46-13 42 27-5 53-18 98-28 98-6 0-8 6-5 13 3 8 2 19-3 26-6 10-12 10-29 0-24-16-26-25-8-59 16-32 11-57-13-63-15-4-20 4-29 39-6 24-10 47-9 51 1 5-3 18-10 31-16 27-8 42 21 42 56 0 62 7 62 73 0 58-16 92-23 48-2-11-10-25-18-31-8-7-14-20-14-30 0-23-22-41-38-31-12 7-10 44 7 101 14 44 14 80 1 80-5 0-25-14-44-31-37-32-61-31-50 3 3 11 7 28 9 37 1 12 13 16 46 16h44l13 50c17 71-3 117-36 80zm-44-302c3-19-2-21-47-20-41 2-51 5-51 19s7 17 30 14c17-2 33 1 36 6 9 15 29 3 32-19zm-74-77c-3-14-10-26-15-26-10 0-12 31-3 55 10 26 26 1 18-29zm87-19c9-7 16-19 16-27 2-42 22-113 34-121 20-12 8-17-29-12l-34 5 7 49c4 30 3 49-3 49-5 0-12 8-15 18-2 9-8 25-12 35-8 20 12 23 36 4zm203-360c-4-12-12-16-25-12-15 5-19 1-19-19 0-29-3-30-29-16-25 13-25 60 0 60 21 0 54 44 44 60-3 5-3 16 1 22 11 17 36-70 28-95zm20-140c19-26 19-28 3-44s-18-16-34 0-16 19-3 28c11 8 12 12 3 16-16 6-17 36-1 31 6-2 21-16 32-31z" />
    <path
      d="M1955 3987c-8-13-18-43-21-68-6-43-6-44 24-46 32-2 53 24 30 38-9 6-9 11 1 23 14 16 6 76-10 76-5 0-15-10-24-23zM1673 3967c-17-13-55-48-85-80-29-31-59-57-65-57-14 0-29-47-19-58 4-3 15-1 24 5 10 6 32 14 50 18 22 4 40 18 55 41 12 18 27 34 33 34 7 0 14 8 17 18 4 9 13 35 21 57 9 22 16 41 16 43 0 7-19-2-47-21zM4370 3958c-25-11-55-31-67-43-20-19-21-25-11-52l12-31 50 49c27 27 56 49 63 49s13 11 13 25c0 30-2 30-60 3zM4747 3887c-71-69-79-100-41-174 15-30 39-62 53-71s33-25 42-36c20-24 87-31 110-10 14 12 22 13 38 4 12-6 21-14 21-18s20-8 45-10c36-2 45 0 45 13 0 12 6 15 20 10 15-5 20-2 20 14 0 11-4 23-10 26-15 9-13 78 3 73 6-3 14-13 16-24 4-26 20-44 38-44 11 0 14 11 11 47-3 50 15 72 26 30 4-17 15-26 33-30 31-6 46 9 34 31-13 22-2 49 22 57 12 3 17 9 10 11-13 6-2 57 18 81 15 17 19 53 7 53-7 0-12-15-9-32 1-12-77-68-95-68-36 0-64 12-64 28 0 12-6 10-25-8-16-15-25-19-25-10 0 7-2 11-5 9-2-3-2-15 1-27 5-19 8-19 21-7 20 21 33 19 33-5 0-19-28-60-41-60-3 0-11 11-17 24s-18 23-28 23c-12-2-21 9-27 31-8 25-14 31-28 27-10-3-25 2-36 12-23 24-65 45-95 48-13 1-29 3-35 4-7 0-13 8-13 16 0 26-17 17-73-38zm128-44c-14-55-16-103-5-103 7 0 9-8 5-19-3-10 1-24 10-31 17-14 20-36 6-45-15-9-61 40-71 76-12 40-13 89-2 89 4 0 15 14 24 30 22 39 43 40 33 3z" />
    <path
      d="M4683 3920c-38-9-81-41-76-57 3-7-9-19-25-27s-32-23-36-31c-9-25-7-73 3-80 5-3 12-19 16-35 4-17 12-31 18-31 7-1 30-3 52-4 21-1 41-7 43-14 5-14 32-15 32-1 0 6-6 10-14 10-21 0-58 106-51 141 4 16 11 31 16 34 5 4 9 14 9 23s12 28 27 44c31 33 29 37-14 28zM3770 3891c0-11 5-23 10-26 6-3 10 3 10 14s-4 23-10 26c-5 3-10-3-10-14zM2777 3882c-5-7-5-22-2-33 8-23 10-23-62-3-14 4-23 2-23-5 0-6-6-11-14-11-7 0-19-6-25-13-8-11-5-19 12-35 23-22 24-22 58-5 19 10 39 18 44 19 6 0 20 5 33 9 20 7 21 9 8 24-8 9-16 27-18 41-2 17-6 21-11 12zM3441 3849c-17-39-9-47 14-13 9 15 13 30 8 35s-14-5-22-22zM3290 3864c-1-39 86-68 111-37 11 12 6 14-31 10-36-4-47 0-62 17-9 11-17 16-18 10zM4198 3842c-16-9-28-25-28-35 0-14-5-17-16-13-19 7-44-10-44-30 0-8 10-14 25-14 14 0 29-8 35-20 6-11 15-18 21-15 5 4 7 11 4 16-4 5 1 16 10 25 28 28 65 81 65 92 0 17-41 14-72-6zM3589 3824c-9-10-9-17 0-28 12-14 5-46-10-46-14 0-11-40 4-41 6-1 37-1 67-1 30-1 58-5 61-10s15-5 26-1c16 6 19 13 12 31-8 21-27 27-76 23-50-4-86 41-42 52 12 3 18 10 15 15-10 17-45 20-57 6zM4024 3832c-6-4-24-31-39-61-28-51-29-54-11-67 15-10 19-26 19-69 0-31 3-53 7-48 14 16 73 178 74 203 2 41-22 61-50 42zM2550 3782c0-4 9-15 20-25 21-18 26-37 10-37-5 0-10-14-10-31 0-29 2-30 30-24 27 6 30 4 30-18 0-20-12-33-52-57-28-18-58-38-65-46-8-8-23-14-33-14-26 0-35-19-17-37 13-13 18-13 43 0 16 9 53 27 83 42s55 34 58 45c6 22 23 27 23 8 0-9 3-9 12 0s8 15-7 26-17 17-8 28c16 19 5 56-18 63-14 5-18 12-14 26 4 13 2 19-9 19-8 0-20 9-26 20-10 19-50 29-50 12z" />
    <path
      d="M2433 3741c-40-20-73-39-73-43s13-22 29-40l29-33 19 22c10 11 38 26 61 32 44 12 50 19 30 40-11 10-9 15 7 27 17 13 18 16 5 24-21 14-26 12-107-29zM2819 3768c-8-8-38-21-67-28-30-8-52-19-52-27 0-20 30-28 51-15 25 16 49 15 49-1 0-19-30-44-63-52-21-6-27-12-25-29 2-12 9-20 18-18 8 2 34 4 57 4 24 0 45 4 49 9 3 5 14 9 24 9 29 0 71 22 66 35-2 6-1 29 3 51s4 49 0 60c-7 20-6 22-25-41-7-23-18-32-47-39-41-10-61-1-36 17 20 16 28 38 20 61-6 16-9 17-22 4zM4322 3759c9-9 18-33 20-53s8-35 13-34c6 2 9 10 8 18-2 8-4 27-5 42-2 18-9 28-18 28s-20 3-26 8c-5 4-2 0 8-9zM3303 3760c-24-10-27-18-17-43 4-11 12-8 35 13 16 16 29 31 29 34 0 8-21 6-47-4zM4070 3663c-13-27-26-56-31-65-14-27 0-50 25-42 30 9 36 16 60 76 26 62 24 78-9 78-18 0-28-11-45-47zM2330 3675c0-13-4-14-20-5-16 8-29 7-58-7-20-9-43-23-50-30s-20-13-27-13c-8 0-22-11-31-25-16-24-15-27 1-45 14-15 22-17 37-9 12 7 24 7 31 1 14-11 57 2 57 18 0 5-7 10-15 10s-15 9-15 20c0 22 34 28 44 8 3-7 3-3 0 10-7 29 4 28 39-5 25-23 29-24 22-8-4 11-9 29-12 40-4 18-3 18 13-2 26-36 33-27 12 17-22 43-28 49-28 25zM3344 3669c-64-11-104-25-104-38 0-6 7-8 16-4 9 3 20 0 24-7 7-11 12-11 23-1 12 9 16 9 20-1 4-9 6-7 6 4 2 32 20 29 35-7 13-29 20-35 45-35 17 0 31-4 31-10 0-5 4-10 10-10 5 0 9 16 8 35s5 41 12 50c10 12 10 15-1 16-16 1-38 5-59 12-8 2-38 1-66-4zM2530 3649c-14-10-33-19-43-19-30 0-57-19-57-40 0-30 41-25 76 8 16 16 37 31 47 35 9 3 17 11 17 16 0 19-16 19-40 0zM3514 3662c-12-8-17-90-8-134 3-16 12-28 19-28s15-6 18-12c2-7 7-10 11-7 4 4-1 14-10 24-14 13-14 19-4 25 7 4 14 27 16 50s9 50 14 61c8 15 7 19-4 19-8 0-20 2-28 5-7 3-18 1-24-3zM3599 3650c-1-3 0-9 2-15 1-5 4-37 6-70 5-92 7-109 16-122 5-8 4-13-3-13s-6-5 2-13c8-9 16-11 23-4 13 12 13 17 18 135 3 62 8 97 17 102 7 4-8 7-34 6-25 0-46-3-47-6zM3141 3638c-21-6-30-13-24-19 11-11 73 8 73 22 0 11-4 10-49-3zM3716 3642c-2-4-1-13 3-20 4-8 11-5 19 8 10 16 10 20-2 20-8 0-17-4-20-8zM4376 3638c-2-7-9-34-16-60-11-43-14-47-43-46-17 1-33-4-35-10-2-7-10-12-18-12-18 0-17-10 4-36 36-42 54-38 100 25 23 32 42 62 42 66s10 15 22 25l23 18-25 21c-29 23-49 27-54 9zM1445 3632c-3-3 2-16 10-29 13-20 13-23 1-23-8 0-17-13-21-30-4-16-11-30-15-30-11 0-35 41-32 53 6 22-35 1-74-38-41-43-56-75-34-75 6 0 10-7 10-15s-6-15-14-15c-7 0-19 7-26 15-23 27-48 17-70-27-19-39-19-43-3-60 18-20 11-37-9-21-26 21-44 11-45-25-1-19-7-38-13-42-9-6-8-10 4-17 16-9 16-11 2-22-9-8-16-29-16-47 0-34-21-47-35-23-5 7-15 3-30-11-17-16-22-30-19-60 2-28-1-40-12-44-9-4-14-13-10-21 3-9 0-15-10-15s-14-7-12-17c3-10-4-35-14-55-13-27-15-38-5-42 9-3 7-9-5-19-14-11-17-25-14-63 2-26 8-50 14-52 5-1 7-25 4-52-3-34-1-50 7-50 6 0 25-16 42-35 34-38 56-44 66-18 10 25 42 55 53 48 13-8 61 47 55 63-3 9 1 11 15 7s22-1 27 11c6 16 7 16 15-2 7-16 8-16 7 6-2 39 0 43 15 31 11-9 21-2 50 39s33 52 21 56c-19 8-19 28 0 44 12 10 18 10 30 0 9-8 15-8 15-2s-7 17-15 26c-21 21-19 24 20 40 23 10 35 22 35 35 0 11 5 23 10 26 6 3 10 15 10 25s3 20 8 23c4 2 1 2-5 1-12-3-14 1-13 24 1 4 12 6 25 4 19-3 24 1 22 20 0 13-5 26-11 30s-6 12 2 20c7 9 8 18 2 24-5 5-13 31-16 57-6 39-4 47 9 47 10 0 14 6 11 15-3 8-9 14-12 14-4-1-17 2-29 6-20 6-20 8-5 26 11 12 20 15 26 9s17-10 26-10c13 0 13 1 0 10-20 13 0 45 28 45 30 0 36 10 33 66-2 45 0 50 16 45 13-4 23 3 35 23 15 27 15 30 0 36-8 3-18 1-21-4-8-12-42-16-63-6-22 9-24 25-3 25 15 0 22 19 8 21-5 0-18 2-31 3-12 2-24 0-27-2zM4151 3618c0-10-11-36-23-59-17-34-19-42-7-50 11-6 17 1 27 34 7 23 11 53 9 67s-5 17-6 8zM4583 3590c-13-33-28-37-78-16-38 16-45 13-45-23 0-15-8-31-20-39-29-18-25-31 14-47 19-8 36-20 38-26s23-13 46-15c32-3 42-1 42 11 0 8 4 15 9 15s11 10 13 21c3 22 32 48 43 38 11-11-18-119-32-119-7 0-22-6-33-12-17-11-25-10-48 4-15 10-39 23-54 29-16 6-28 15-28 21s-6 8-14 5-20 1-26 8c-16 19-50 2-50-25 0-11-5-19-11-17-19 4-62-130-61-193 0-14-4-28-9-31-6-3-6-15 0-30 7-19 4-30-10-48-18-22-18-41 2-41 5 0 9 6 9 13 0 14 33 57 43 57 12 0 14-57 2-80-8-14-21-46-31-72-9-27-23-48-30-48-21 0-16-21 6-27 11-3 20-13 20-22 0-54 58-15 65 44 3 22 36 131 45 147 6 10 10 29 10 42 0 14 5 28 10 31 6 4 24 36 40 73 17 37 35 75 41 85 6 11 9 20 7 21s-21 10-43 20c-23 11-34 21-27 23 16 6 101-16 119-29 7-5 21-7 32-3 10 3 22 1 25-4 10-15 36-1 36 18 0 9 4 21 9 26 5 6 11 31 14 58 7 54 14 70 30 64 7-2 12-28 12-62 0-59 0-59 35-68 77-19 100-20 106-3 3 9 14 16 24 16 25 0 51-27 44-45-9-23 16-18 36 8 28 34 36 13 19-51l-16-58 35 4c22 3 32 1 28-6-3-5 3-21 14-33l19-24 1 23c0 12-4 22-10 22-5 0-10 7-10 15s-4 15-9 15-11 11-13 25c-7 35 5 31 39-11 24-30 33-34 55-29l27 7-20 35c-16 29-18 38-7 44 7 5 8 9 2 9-5 0-24 20-42 45-26 37-37 45-63 45-17 0-68 17-113 39-44 21-99 44-121 51s-44 15-50 18c-5 4-28 7-50 8-73 2-80 7-77 48 3 44 0 45-15 6zm-45-79c17-1 15-30-3-37-17-7-68 23-61 35 3 4 15 7 28 5 13-1 29-3 36-3zm31-52c-19-12-24-2-8 17 9 11 14 13 17 4 3-7-2-16-9-21zm255-35c9-3 16-12 16-19 0-10-9-11-40-3-22 6-40 14-40 19 0 10 41 12 64 3zM4710 3610c8-5 29-10 45-10 23 0 27 3 15 10-8 5-28 10-45 10-23 0-27-3-15-10zM2980 3600c-8-5-11-12-7-16s13-2 19 4c15 15 7 24-12 12zM2842 3578c-18-18-14-28 8-28 11 0 20 6 20 14 0 21-15 27-28 14zM3143 3583c-15-6-17-33-3-33 6 0 10-4 10-10 0-5-16-10-35-10s-35-5-35-11c0-7-10-9-25-5-14 4-35 1-48-6-12-7-28-11-34-10-7 2-13-2-13-8 0-14-57-13-62 1-2 6-15 0-28-15-14-14-30-26-36-26s-16-11-22-25c-7-14-19-28-27-31-8-4-13-10-10-14 4-7-17-31-57-67-38-34-41-46-41-149 0-94-2-104-20-110-11-3-23-1-27 6-10 16-6-66 5-97 4-13 11-23 16-23s9-9 9-19c0-11 8-26 18-33 28-20 72-90 72-115 0-22 3-25 33-27 17-1 27-17 27-43 0-16 6-23 19-23 22 0 34-23 19-38-12-12-4-42 12-42 5 0 10 7 10 15 0 21 16 19 40-5 19-19 19-47 0-35-5 3-11 1-14-4-9-15 14-25 27-12 19 19 30 12 23-13-5-19-1-26 13-31 14-4 19-15 19-38 0-18 3-53 6-79 5-39 3-48-9-48-9 0-15-9-15-24 0-14-4-27-9-30-19-12-18-46 3-75 21-28 23-29 44-12 20 15 22 21 13 45-14 35-14 36 3 36 19 0 24 9 30 51 3 19 10 52 16 74 17 59 17 80 1 77s-41 16-41 33c0 22 27 24 49 4 18-17 24-18 43-7 13 6 30 13 38 15 22 3 90-16 90-26 0-5-18-16-40-25s-40-21-40-27-11-8-28-4c-26 5-28 4-29-30-1-20-5-41-11-48-17-21-20-100-5-130 8-15 13-37 11-47-2-11 0-19 4-19 27 2 47 14 51 31 7 26 23 16 30-18 3-18-2-34-15-50l-20-23-37 20c-39 21-71 25-71 9 0-5-7-10-15-10s-15 5-15 11c0 5-5 7-11 4-6-4-8-13-5-21 9-24-21-15-56 16-29 27-38 30-98 29-36-1-57-3-47-6 9-2 17-13 17-23 0-24 33-42 63-35 15 4 28 1 36-9 8-9 19-16 26-16 6 0 19-8 28-17 13-16 14-21 1-37-14-19-14-19-39 4-14 13-25 18-25 12 0-36 80-73 163-75 29-1 58-7 66-15 7-7 21-10 30-7 34 14 52 14 58 0 7-20 23-19 23 0 0 18 31 20 47 4 6-6 9-17 6-25-4-11 8-12 58-8 74 6 79 8 72 34-6 24 9 26 31 4 14-13 16-14 16 0 0 21 19 31 33 17 9-9 8-14-3-21-9-6-10-10-3-10 6 0 15 5 18 10 4 6 15 8 25 5 11-3 20 0 24 10 3 9 10 14 16 10 11-7 45 10 74 37 11 10 25 17 31 15 15-6 85 31 92 48 3 8 12 15 20 15 31 0 82 32 85 53 2 17 10 22 35 23 20 0 38 8 50 22 14 17 30 22 68 23 45 2 50 4 51 26 2 28 15 44 21 26 3-7 11-13 19-13s14-4 14-9 10-7 22-3c12 3 17 7 10 10-13 4-17 72-4 72 4 0 13-5 18-10 11-11 44-3 44 10 0 5 14 16 32 24 23 12 34 13 39 5 5-9 14-9 36 0 16 6 47 13 68 14 27 2 40 8 46 22 13 34 10 65-6 65-8 0-15 4-15 8 0 12-49 62-101 104-50 40-105 61-97 37 3-8 12-13 22-11s16-4 16-16c0-15-9-21-40-26-42-7-51-19-24-34 20-11 10-32-15-32-12 0-25-14-36-36-15-33-19-35-33-21s-13 18 2 41c16 25 16 26-4 26-28 0-43 39-23 61 22 26 26 105 7 134-9 14-23 25-30 25-8 0-14 5-14 10 0 6 9 10 19 10 18 0 19 7 14 122-4 114-12 148-34 148-14 0-32-51-30-84 1-15-4-34-10-42-8-10-7-21 5-45 27-54 17-65-23-28-18 17-25 19-31 9s-15-8-38 11c-30 24-42 49-22 49 6 0 10 7 10 15s5 15 10 15c6 0 10-6 10-14 0-7 6-19 14-25 29-24 36 19 28 160-1 14-11 35-22 47s-20 28-20 37c0 8-6 15-14 15-19 0-29-50-21-108 7-50-8-107-25-97-6 4-10-5-10-22 0-78-9-175-18-186-10-12-26-74-41-152-4-22-15-53-24-70-9-16-19-38-23-47-3-10-10-18-15-18s-9-11-9-25c0-25-25-36-32-13-2 6-23 12-45 13-43 3-89 27-79 43 3 5 16 7 28 5 17-3 29 4 47 27 13 18 19 36 15 40-5 5-34 11-64 14-148 15-152 15-172-4-24-22-83-30-120-16-40 15-35 23 22 31 27 4 53 11 56 17 3 5 25 18 48 27 45 20 143 111 172 160 10 17 24 31 30 31 27 0 58 316 34 345-11 13-11 20 0 40 7 14 11 26 9 27-2 2-13 8-24 14s-24 25-29 41c-4 17-19 36-31 43-13 7-29 23-36 36s-16 24-21 24c-11 0-58 50-58 62 0 5 9 7 20 3 25-8 18 16-17 53l-24 26-6-22c-6-26-9-26-59-7-92 37-105 52-52 57 22 2 34 9 36 21 4 19 3 19-56-12-25-13-42-7-42 15 0 8-9 14-20 14-10 0-31 5-45 12-19 8-28 9-37 0-8-8-14-8-22 2-6 8-17 12-23 9zm377-582c7-13 7-22 0-26-18-11-50 6-50 26 0 25 36 25 50 0zm495-227c31-31 42-64 20-64-8 0-19 8-22 18-17 45-63 54-63 13 0-11-5-23-10-26-17-10-23 23-10 54 14 36 52 38 85 5zm-55-114c25-25 25-27-2-56-34-36-45-30-47 26s14 65 49 30zm-497-170c22 0 27-4 27-25 0-26-14-33-26-14-14 23-144-11-144-37 0-15-28-26-35-14-3 5-21 6-40 3-37-6-50 12-17 24 9 4 34 17 54 30 20 12 44 20 53 17 8-3 15-1 15 4 0 12 36 21 65 16 11-2 32-4 48-4zm-5-84c12 2 22-1 22-6 0-6 11-10 24-10s29-7 36-15 19-15 26-15c20 0 17-16-8-40-28-26-48-26-48 0 0 12-7 20-16 20-11 0-15 6-11 20 4 16 0 20-23 20s-27-4-23-20c7-26-11-26-28 1-13 19-16 19-43 5-32-16-46-13-46 10 0 9 10 14 28 14 15 0 36 7 46 15 11 9 24 11 30 6s21-7 34-5zm-262-130c-8-31-36-35-36-6 0 26 22 51 34 40 5-5 6-20 2-34z" />
    <path
      d="M2290 3572c0-5 7-17 15-28 15-19 20-8 9 20-6 17-24 22-24 8zM2374 3549c-4-7-7-26-6-43 1-32-22-66-43-66-7 0-28-13-46-30-19-16-40-30-46-30-7 0-12-6-10-12 1-7-4-12-10-10-14 2-16-8-7-32 4-11 14-13 35-9 34 7 38-8 9-37-23-23-24-27-7-63 7-16 18-25 26-22 9 4 11 0 7-11-4-9 4-36 18-60 13-24 27-61 31-83 4-23 11-44 16-47 6-3 14-17 19-30 6-14 15-22 24-18 11 4 13-11 9-92l-6-98 22 14c12 8 22 18 22 22s6 25 13 46c8 21 12 52 9 68-4 25-3 27 9 13 7-9 19-14 27-11 19 6 4-79-17-94-9-7-13-19-10-32 3-12 0-23-7-26-17-6-25-76-8-76 6 0 16-8 22-17 8-14 11-15 25-4 25 21 30 7 18-51-8-43-8-56 4-68s18-10 45 15c17 17 39 44 50 62 14 23 34 36 67 47l47 14-38 1c-34 1-38 3-32 21 5 17 2 20-27 20-25 0-43-9-65-30-36-36-50-26-29 22 8 18 17 41 20 52 4 10 12 16 20 13 12-5 14 3 10 41-2 26-7 55-10 65-4 14-1 17 13 15 13-2 17 2 15 17-6 40-24 85-33 85-6 0-8 9-4 20 6 20-12 97-27 114-4 6-8 18-8 28s-5 18-11 18-9-6-6-14-1-17-9-20-14 0-14 8c0 7-11 23-24 35-14 13-25 31-25 40s-3 35-7 59c-8 50 6 56 24 10 15-41 28-29 13 13-6 18-11 45-11 60 0 32-4 34-49 18-36-13-49-7-32 13 6 7 22 27 36 44l25 32-21 23-20 24 5-27c7-30-8-39-18-12-11 28-6 54 10 54 8 0 12 5 9 10-8 13-22 13-31-1zM2754 3550c-31-12-34-21-19-55 13-29 14-29 20-7 4 12 14 22 21 22 8 0 14 10 14 25 0 27-4 28-36 15zM5216 3534c-5-12-20-15-78-12l-73 3v-32c-1-37 9-42 24-15 9 15 12 15 21 2 8-12 13-13 29-3 26 16 45 9 62-24 11-21 61-53 84-53 12 0 4 59-10 70-8 7-15 18-15 26 0 21 22 28 32 10 5-9 18-16 28-16 11 0 29-9 41-21 22-22 35-20 26 5-8 21-90 66-130 71-25 3-37 0-41-11z" />
    <path
      d="M2281 3518c-1-10-8-18-16-18s-15-7-15-15c0-9-6-15-12-14-21 3-48-12-48-28 0-8 5-11 10-8 6 3 10 0 10-7 0-8 5-6 11 5 5 9 20 17 33 17 12 0 29 6 38 13 15 10 15 16 3 42-9 19-14 24-14 13zM4035 3501c-4-14-9-45-11-68-3-34-1-43 11-43 17 0 20-25 5-35-5-3-10-11-10-17s3-8 7-5c3 4 21-4 39-18l32-25-5 40c-4 32-2 40 10 40 8 0 18-8 22-17 6-15 9-13 16 10 10 36 0 97-16 97-7 0-15 10-19 23-3 14-17 26-40 33-33 10-35 9-41-15zM2675 3510c-3-5-19-10-34-10s-36-8-47-18-26-19-34-19-32-8-53-18c-27-13-37-23-33-34 14-47 33-90 47-111 9-14 22-43 30-65s17-42 20-45c4-3 9-14 13-25 3-11 3-1 1 21-3 23-11 53-19 68-13 27-11 76 5 76 5 0 11-11 15-25 3-14 10-25 15-25 12 0 12 6-11 84-11 38-17 73-14 77 10 17 22 9 29-18 3-16 14-43 22-61 12-26 18-30 29-21 8 7 12 19 10 28s-7 38-11 65c-6 46-5 48 14 43 17-4 21-1 21 19 0 26-5 30-15 14zM4236 3411c1-40 13-81 23-81 9 0 31 51 31 72 0 10-7 18-15 18s-15 4-15 9-6 11-12 14c-9 3-13-7-12-32zM5160 3438c0-9 5-20 11-23 17-11 20 0 4 21-13 17-14 17-15 2zM3710 3401c0-11 3-22 8-24 4-3 7 6 7 19s-3 24-7 24c-5 0-8-9-8-19zM3570 3382c0-17 48-64 54-53 4 5 2 13-4 16-6 4-8 16-5 28 5 17 4 18-4 8-8-12-12-12-25-2-10 8-16 9-16 3zM4687 3349c-38-21-12-51 68-78 22-8 52-22 67-32 14-11 37-18 50-17 18 2 24-2 26-24 2-18-3-30-16-37-12-7-25-30-32-61-7-27-17-50-22-50-6 0-8-6-5-13s-5-23-18-35c-26-25-41-102-22-114 7-4 23-8 37-8 20 0 22 2 10 10-13 8-12 11 4 23 11 8 16 19 12 26-4 6 11 50 34 97 27 57 39 93 35 107-4 12-3 17 2 12 10-13 66-14 74-2 9 12-67 90-80 82-15-8-14-3 4 31 16 32 4 57-17 36-9-9-16-8-30 5-11 9-36 18-56 20-66 6-80 9-94 20-9 8-19 8-31 2zM1684 3278c-40-45-63-89-69-133-2-20-9-42-14-49-5-6-6-25-3-42 6-27 9-29 29-19 20 11 21 14 8 31-21 28-18 37 11 30 15-4 23-3 20 2-3 6 1 15 9 22 14 11 13 17-5 47-23 39-25 53-9 53 13 0 32 22 54 63 21 37 5 34-31-5zM4006 3273c-2-16-4-59-2-97 2-54 6-72 21-82 25-19 39-13 43 17 2 13 8 30 14 36 7 9 6 15-6 19-12 5-15 15-10 44 5 31 2 41-20 64-15 14-29 26-31 26s-6-12-9-27z" />
    <path
      d="M4521 3282c-6-12-11-28-11-36 0-9-5-16-11-16-7 0-9-11-5-30 4-23 0-36-14-50-11-11-20-31-20-44 0-14-5-28-10-31-6-4-10-14-8-23 1-10-3-27-10-39s-9-29-5-39c3-10 0-22-8-28s-15-18-16-26-7-34-14-58l-12-43 70-69c39-38 68-72 65-75s0-5 7-5c15 0 41-25 41-39 0-15 34-17 68-6 17 6-3 45-23 45-8 0-15 6-15 14 0 26 21 29 44 7 16-15 33-21 51-18 48 6 51 67 4 67-11 0-19 4-19 9 0 4-19 29-42 55-23 27-37 51-32 54 5 4 9 21 8 37 0 17 2 34 4 40 3 5 7 21 8 34 2 14 7 35 13 46 18 38 24 60 22 78-1 9 3 17 9 17 7 0 11 15 9 38-3 62 0 75 16 68 20-7 20 27 0 44-22 18-55 3-55-26 0-13-3-24-7-24-5 0-19-35-32-78-13-42-27-88-32-102-13-41-23-94-20-108 1-8-3-19-9-27-8-9-8-15 0-20 6-4 8-15 5-25-10-30 36-100 65-100 13 0 13-6 0-31-13-23-40-25-40-4 0 9-11 21-25 27s-25 19-25 30c0 10-4 18-10 18-5 0-13 12-16 28-4 15-11 33-17 40-8 10-7 16 2 21 6 4 11 12 9 17-3 12 21 121 34 154 22 53 27 67 49 128 12 34 26 65 30 68 14 8 11 44-3 44-7 0-23 3-35 6-15 4-24 0-32-14zM4112 3254c-13-25-10-194 4-218 7-11 18-17 26-14 22 9 19 211-4 234-15 15-17 15-26-2z" />
    <path
      d="M4734 3189c0-22-5-43-11-47s-14-31-18-61-13-61-21-68c-8-8-11-19-8-25 4-6 1-13-5-17-16-10-24-101-10-117 6-7 8-18 4-24-4-7 1-13 12-16 10-3 26-19 37-37 16-29 19-30 31-14 7 9 19 15 27 12 21-8 30 39 12 62-7 10-14 24-14 31s-7 20-15 28c-20 20-19 39 6 104 20 52 33 96 46 148 3 12 9 22 14 22 20 0 7 26-22 43-50 28-64 23-65-24zM3850 3115c-10-12-10-24-1-54 6-22 9-46 5-54-3-9-1-24 5-34 8-14 10 3 11 70 0 48-2 87-4 87s-9-7-16-15zM4132 2948c-7-27-8-46-1-54 5-7 6-22 1-35-13-41-9-141 7-147 11-4 13 4 8 42-4 25-3 46 2 46s7 18 4 40c-4 26-2 40 6 40 6 0 11 11 11 25s-5 25-11 25c-7 0-9 10-5 24 3 14 2 27-3 30s-13-13-19-36zM4890 2968c0-19 2-20 10-8 13 19 13 30 0 30-5 0-10-10-10-22zM2650 2830c0-11 7-20 15-20 17 0 18 2 9 24-9 23-24 20-24-4zM4290 2811c-8-6-18-7-23-4s-6-4-2-16c4-13 1-27-9-36-19-19-10-45 14-45 21 0 102-88 97-104-7-18 13-47 31-45 28 3 52-12 52-32 0-11 7-19 16-19s18-9 21-20c9-34 28-16 29 26 0 21 4 46 8 55 4 10-8 31-41 65-26 28-65 72-86 97-21 26-45 47-52 47-8 0-15 9-15 20 0 21-16 26-40 11zM3735 2789c-9-14 0-22 18-17 13 2 13 5 2 15-10 9-16 9-20 2zM2300 2755c0-6 5-26 10-45 6-19 13-50 16-69 5-37 10-48 20-39 9 9-17 125-32 145-7 10-14 13-14 8zM3702 2740c-7-11-17-20-23-20-19 0-70-41-63-51 3-5 11-6 17-2s20 8 29 8c10 1 19 4 21 6 1 2 15 21 30 42 18 23 23 37 15 37-7 0-19-9-26-20zM3720 2650c-16-23-25-28-38-21-18 10-50 7-120-11-48-12-56-42-12-44 14 0 42-4 63-8 26-5 43-3 54 5 12 10 16 10 24-2 7-11 9-10 9 6 0 11 9 26 20 33s17 18 14 27c-4 8-2 15 4 15 5 0 12 7 16 15 10 26-12 16-34-15z" />
    <path
      d="M4235 2661c-6-11 1-16 38-25 20-5 27-3 27 8 0 22-53 36-65 17zM2649 2596c-13-13-31-46-40-73-11-32-21-48-32-47-9 1-14-2-11-7 8-14 30-11 44 6 7 8 19 15 27 15 17 0 30-30 16-39-6-3-18-21-28-40-16-32-16-34 3-54 24-23 48-17 62 15 13 31 35 58 48 58 22 0 23-22 2-66-27-55-21-89 17-99 18-4 29-2 31 5 3 7 12 20 21 29 20 20 16 38-11 65-23 22-9 48 15 27 12-9 16-8 21 4 3 8 1 15-4 15-6 0-10 7-10 15s-9 20-20 27-20 20-20 30c0 11-10 18-27 20-37 4-43 39-11 53s29 39-4 43c-16 2-28 8-28 13 0 18-38 9-61-15zM2824 2548c3-13 5-27 5-33 1-5 8-2 18 7 13 14 14 20 3 32-18 23-31 20-26-6zM3698 2470c-9-16-13-32-8-35s11 3 15 14c3 11 12 22 20 25 18 7 20 26 3 26-7 0-21-13-30-30zM2865 2459c7-22 28-49 38-49 2 0 1 15-2 32-4 20-14 34-25 36-15 3-17 0-11-19zM4350 2319c0-7-11-9-26-6-34 6-108-17-112-35-5-23 41-42 68-28 12 6 31 9 43 6s27 0 34 6c15 12 18 68 3 68-5 0-10-5-10-11zM2853 2281c-9-14-9-21 0-30 20-20 39-13 35 16-4 33-19 39-35 14zM4754 2172c-6-4-13-16-16-27s-9-28-13-37c-5-13-3-18 8-18 8 0 18 7 21 16 4 10 13 13 26 9 15-5 21 0 26 20 6 26-5 51-13 28-6-18-21-16-25 2-2 8-8 11-14 7zM4734 1716c-10-8-16-17-13-20 3-4 17 2 30 13 27 23 13 28-17 7zM4114 1604c-15-8-33-13-40-10s-18-2-24-10c-7-8-29-14-49-14-53 0-86-32-82-80 0-8-5-35-13-60-15-51-5-87 41-149 21-27 23-35 12-42-11-6-11-13-3-26 13-22 30-15 26 10-5 38 23 9 36-36 11-38 18-47 42-52 17-4 30-10 30-14 0-11 49-6 62 7 17 17 31 15 25-2-4-10-1-13 9-9 8 3 14-1 14-10 0-8-6-18-12-20-8-4-7-6 4-6 9-1 18 5 21 12 3 9 7 9 20-2 19-15 22-5 7 33-11 30-12 30 32 11 26-10 38-11 46-3 6 6 22 12 34 14 13 1 26 3 31 3 4 1 7 8 7 16s7 15 15 15 15 5 15 10c0 6-4 10-9 10-6 0-13-4-16-10-3-5-17-10-30-10s-25-6-27-12c-3-8-23-13-53-13s-50 5-52 13c-3 6-14 12-26 12-39 1-101 36-146 85-44 47-44 48-43 117 2 61 5 73 27 89 13 11 26 27 29 37 8 25 71 17 112-14 34-26 82-32 90-11 2 7-2 27-11 43-8 16-15 34-15 39-2 44-81 67-136 39zM4455 1265c-4-16-15-35-24-42s-11-12-6-12c25 0 46 28 43 56l-4 28-9-30zM5939 2628c-1-7-2-40-3-73-1-58-2-60-27-57-22 2-26-1-26-28 0-16 6-30 12-30 14 0 39 28 48 53 4 9 14 17 24 17 28 1 53 25 53 51-1 44-77 107-81 67zM961 1003c-14-50-14-53 4-47 8 4 15 17 15 31 0 15 5 23 13 20 6-2 11-10 10-16-2-6 6-11 17-11s20 6 20 14c0 31-13 46-41 46-24 0-30-5-38-37zM1047 950c-4-17-1-21 16-18 25 3 30 31 6 36-10 2-19-6-22-18z" />
  </g>
</svg>