<svg version="1.0" xmlns="http://www.w3.org/2000/svg" width="500" height="500" viewBox="0 0 6300 6070">
  <style>
    @media (prefers-color-scheme: light) {
      path {
        fill: #8b0000;
      }
    }

    @media (prefers-color-scheme: dark) {
      path {
        fill: #daa520;
      }
    }
  </style>
  <g>
    <path
      d="M2968 5965c-4-4-80-12-140-15-5 0-8-9-8-20 0-13-7-20-19-20-10 0-24-6-31-14-9-12-17-13-38-3-15 6-30 16-33 21-10 14-29-3-29-26 0-12-10-37-22-55-30-43-76-56-194-51-77 2-95 0-111-15-32-29-53-22-47 16 7 45-9 66-36 50-11-7-27-13-35-13-9 0-18-7-22-16-3-9-12-13-21-9-8 3-19 1-22-6-4-6-35-12-69-14s-69-9-77-16c-7-6-22-9-33-6-23 6-51-10-51-29 0-8-9-33-20-54-34-67-126-100-187-69-12 7-29 9-37 6-18-7-22-37-6-37s-16-56-42-74c-31-22-41-20-28 5 7 11 9 23 6 26s-34 0-70-8l-66-13-19-50c-10-28-15-53-11-56 5-3 12-18 15-33 4-15 11-30 16-33 14-8 10-24-6-24-8 0-15 5-15 10 0 6-9 10-20 10-12 0-20-7-20-16 0-12-6-15-22-10-13 3-28 6-33 6-6 0-16 9-22 19-10 15-9 20 2 25 8 3 14 0 12-6-3-18 26-16 40 2 16 20 17 80 0 80-6 0-25-13-40-30-16-16-33-30-38-30-25 0-99-43-118-67-11-16-25-32-30-36-5-5-20-19-34-31-14-13-32-26-41-29-21-8-20-34 1-46 14-8 15-12 4-25-7-9-22-16-32-16-22 0-25-22-6-38 20-17 67-26 67-13 0 6 7 11 15 11 26 0 17-18-22-45-43-29-53-31-53-10 0 10-11 15-35 15-25 0-35 4-35 16 0 10-7 14-22 12-17-2-25-13-32-41-9-35-12-37-38-32-23 5-28 3-28-12 0-11 6-28 14-38 13-18 11-23-17-52-25-25-40-33-69-33-33 0-38-3-38-24 0-22-43-76-61-76s-8-40 13-51 21-12 3-25c-10-8-31-14-47-14-22 0-28-5-28-21 0-18-4-20-25-15-34 9-40-10-25-86 16-89 16-90 3-95-8-3-13 5-13 22 0 14-7 40-16 57-16 30-17 31-30 13-16-22-18-51-4-60 17-11 11-27-8-21-14 5-23-4-40-44-12-27-26-50-32-50-5 0-10-7-10-15 0-9-7-18-15-21-8-4-15-16-15-28-1-42-26-113-51-147-25-33-25-35-11-81 14-43 14-49-5-85-18-34-24-38-53-35-33 4-64-21-55-45 2-6-3-19-10-30-8-10-15-32-15-50 0-22-7-36-20-43-15-8-20-21-20-50 0-36 3-40 24-40 14 0 28 5 32 11 4 8 9 7 15-2 11-19-48-79-77-79-23 0-30-24-39-139-1-15-5-33-10-40-8-14 13-61 27-61s9-19-11-37c-10-10-21-29-23-43-1-14-9-29-15-35-10-8-10-26-3-77 7-49 6-83-3-125-17-79-12-111 19-119 13-3 33-4 44-1 15 4 22-1 26-18 10-42 1-60-29-57-17 2-27-1-28-10-6-60-4-68 14-68 12 0 23-11 30-30 6-17 15-30 20-30s6-11 3-25c-4-14-2-25 3-25 10 0 7-51-3-69-4-5 4-18 17-28s23-22 23-28c-1-5 20-14 46-19 55-11 66-32 12-23-40 7-64 0-64-17 0-6-5-18-10-26-8-13-11-13-19-1-5 7-14 10-20 7-18-11-12-69 9-96 11-14 20-30 20-36 0-18 30-73 44-81 24-15 46-92 41-143-3-34 0-53 10-63 7-8 11-24 9-35-3-11 2-32 11-46 14-21 25-26 61-26 38 0 46-4 53-24 9-23 62-43 82-30 5 3 9-1 9-9 0-23-43-45-91-49-37-3-45-7-47-26-2-13 2-30 10-39 7-9 22-39 34-67l21-51 47 2c57 3 67-12 37-60-15-25-19-44-15-68 10-59 12-63 29-49 13 11 20 9 38-7 12-11 30-23 41-27 12-4 16-12 11-24-13-33-10-37 25-37 50 0 50 26 0 59-24 16-40 34-40 46 0 15-7 20-25 20-29 0-33 20-7 42 22 20 47 11 87-32 17-18 40-43 53-55 29-29 37-75 13-75-21 0-59-69-44-78 6-4 13-16 17-28 5-16 12-20 31-16 28 5 35 31 8 28-10 0-19 7-21 17s3 17 13 17c8 0 20 11 25 25 11 28 30 34 30 8 0-19 37-100 55-123 19-23 26-53 15-70-9-13-14-11-31 12-31 42-54 37-55-13-1-34 3-42 22-51 13-6 24-17 24-25 0-7 7-13 16-13 13 0 15 6 9 27-4 16-3 25 1 20 4-4 15 0 25 9 11 10 23 13 31 8 15-10 48-6 64 7 17 13 44 0 44-21 0-11 5-22 10-25 6-3 10-14 10-24s22-40 50-67c27-27 50-55 50-61 0-7-18-22-40-33-41-21-45-27-34-54 8-21 23-20 49 4 11 11 35 23 53 26 26 5 33 3 38-12 3-11 10-27 15-36 12-24 12-24-13-48l-22-20 24-25c29-31 70-34 70-5 0 11 7 20 15 20 18 0 19-5 3-30-10-15-9-22 6-39 10-11 24-17 30-15 7 3 24-6 37-20s34-26 47-26c14 0 27-9 34-25 10-21 16-25 39-20 15 3 30 2 33-4 4-6 13-8 21-5 8 4 29-6 46-20s34-24 38-22c4 3 15-8 25-25 9-16 24-29 33-29s27-10 39-21c25-24 37-31 110-70 114-60 245-77 268-34 14 25 26 34 40 29 13-5 18-54 5-54-21 0-8-41 17-50 37-15 54-12 54 8 0 26 34 44 55 28 15-11 15-15 4-33-17-27 2-53 38-53 14 0 38-8 53-17 24-14 31-14 44-4 9 8 16 22 16 33 0 30 23 31 81 4 63-29 89-48 89-66 0-9 13-11 49-6 43 6 49 4 54-14 5-20 11-20 113-16 81 3 111 8 119 20 10 13 16 13 51 1 36-13 40-12 53 6 13 19 48 28 36 10-5-10 7-15 61-26 44-9 63 16 35 44-27 27-26 37 1 52 18 10 24 8 38-11 14-18 24-22 58-18 40 3 42 2 42-24 0-27 1-28 48-25 35 3 47 7 46 19s8 16 32 16c19 0 34-4 34-9s22-9 48-9c36 0 54 5 67 20s31 20 66 20c26 0 50-4 54-9 3-5 31-7 63-4 53 4 80 12 124 34 9 4 40 11 70 15 29 4 58 10 63 14 6 4 35 13 65 20s68 21 85 32c16 10 42 18 56 18s36 11 49 25c17 18 30 23 47 19 19-5 23-2 23 15 0 18 4 20 25 15 39-10 74 3 81 31 5 22 9 23 55 18 41-5 49-3 49 11 0 9-7 16-15 16s-15 4-15 9 19 8 41 8c26-1 46 5 53 14 6 8 19 13 28 11s25 6 35 17c9 12 24 21 33 21 18 1 50 24 50 36 0 5 10 14 23 19 12 6 26 25 32 43 9 33 10 33 55 27 36-5 49-3 59 9 8 9 19 16 26 16s25 13 38 30c14 16 32 30 39 30 8 0 21 8 30 18 9 9 34 30 57 46 23 17 41 38 41 48 0 12 8 18 24 18s35 15 60 47c31 39 36 54 32 79-4 21-2 31 6 32 7 1 32 5 56 8 49 7 63 26 72 94 4 37 9 46 28 48 21 3 32 22 12 22-13 0-13 37 0 45 5 3 12-6 16-20 9-34 24-31 60 13 47 58 71 104 57 109-24 8-15 53 12 65 22 10 25 16 20 40-7 31 3 36 35 16 15-10 22-10 31-1 10 10 8 21-6 53-21 47-17 54 30 53 29-1 37 4 55 34 11 19 20 40 20 47 0 20-25 37-57 39-25 2-28 7-31 40-3 31 0 37 17 37 25 0 71 20 71 31 0 4-6 12-14 16-7 4-16 24-20 43-7 38-7 40-1 117 2 35-1 55-10 63-18 15-7 50 27 78 15 13 28 33 28 44 0 10 5 28 10 39 7 13 7 25 1 38-13 23 4 90 25 98s17 30-6 36c-15 4-20 14-20 41 0 20-7 47-15 60-21 31-11 54 21 48 15-3 24-11 24-23 0-28 23-23 50 11 33 38 40 37 40-5 0-40 19-46 58-19 27 19 28 55 2 79-11 10-20 24-20 32 0 23-36 14-48-12-6-14-20-25-30-25s-23-5-29-11c-8-8-13-5-18 11-4 12-2 27 4 33 14 14 14 54 1 70-41 49-50 62-50 77 0 19 40 60 58 60 7 0 22 11 34 25 26 30 44 32 53 5 4-11 15-20 27-20 17 0 19 5 14 33-5 29-2 33 29 48 26 12 37 13 42 5 11-16 3-127-10-151-23-43-17-65 24-90 21-14 43-25 48-25 23 0 30 37 35 184 3 86 11 166 17 177 6 12 8 37 3 62-4 23-6 54-6 69s-4 30-9 33c-14 9-11 25 6 25 12 0 15 14 15 65 0 76-15 118-40 110-14-4-19 3-23 32-4 24-2 40 6 46 9 7 9 10 0 14-9 3-10 10-3 24 8 14 7 28-4 52-8 17-17 59-20 93-9 89-35 145-95 209-54 59-55 61-35 128 4 13-1 17-20 17s-25-6-28-25c-2-14-7-26-13-26-13 0-23 35-24 88-1 32 4 45 21 57l22 16-32 64c-17 35-39 67-48 70-11 4-14 13-11 27 3 13-2 28-14 40-10 10-19 23-19 28s-7 14-15 21-13 16-10 20-3 18-13 31c-9 13-25 40-35 60-11 20-30 42-43 48s-24 18-24 27c0 36-51 122-76 128-17 5-24 13-24 31 0 49-96 175-132 175-10 0-21 7-24 15-4 8-14 15-24 15-13 0-19 11-23 40-6 50-73 121-130 140-21 6-36 14-33 17 9 9-36 82-55 88-10 4-19 13-19 21 0 9-11 14-36 14-31 0-35 2-29 21 4 13 0 27-11 40-21 23-44 25-44 4 0-24-29-29-51-9-14 12-18 25-14 41 8 33-16 30-55-7-18-17-38-29-43-27-19 6-19 27 0 34 21 7 62 53 63 69 0 15-44 44-67 44-10 0-28 16-41 35-21 33-52 48-52 25 0-17-36-11-53 8-10 11-14 26-10 40 4 19-2 25-40 42-64 28-104 35-122 20-9-7-19-10-23-6s1 12 11 17c28 16 20 37-25 63-73 41-90 41-170-2-4-2-2 10 5 27 14 39 3 51-54 58-39 4-71 15-131 44-9 5-30 4-48-3-27-9-36-7-60 11-16 11-34 21-41 21-13 0-49-38-49-52s-39-52-46-45c-3 3 3 19 15 35 30 43 28 64-5 52-34-13-34-13-34 10 0 31-34 42-126 38-75-3-85-1-90 16-5 16-13 18-59 12-67-8-85-14-85-32 0-22-41-17-47 6-6 22-38 27-46 8-4-10-8-10-15 1-6 8-17 11-32 6-19-6-22-4-17 9s0 16-28 16c-24 0-33-4-29-13 8-21-14-67-31-67-12 0-14 4-7 17 6 11 6 25-1 40-9 20-18 23-60 23-28 0-48-3-44-6 3-4-1-13-10-22-13-13-18-14-37-2-47 30-72 40-102 40-17 0-33-2-36-5zm569-142c4-12-25-26-38-17-5 3-9 17-9 31 0 24 1 25 22 11 12-8 23-19 25-25zm196 0c-3-10-12-25-20-34-9-11-12-26-7-44s2-30-7-36c-10-6-17 1-26 28-12 33-11 37 12 57 14 12 25 27 25 34s7 12 15 12c9 0 12-6 8-17zm371-48c11-8 17-17 14-20-10-11-58 7-58 21 0 18 20 17 44-1zm-1124-15c0-5-7-10-15-10s-15 5-15 10c0 6 7 10 15 10s15-4 15-10zm-342-18c2-7-3-12-12-12s-16 7-16 16c0 17 22 14 28-4zm242-61c0-9-23-21-41-21-4 0-6 7-3 15 7 16 44 21 44 6zm1210-43c0-4-7-8-15-8-10 0-15 10-15 28 1 26 1 26 15 8 8-11 15-23 15-28zm-1810-143c0-8-4-15-10-15-5 0-10 7-10 15s5 15 10 15c6 0 10-7 10-15zm471-22c1-10 1-22 0-27-4-19 24-36 59-36 20 0 40 3 44 7 9 9 33 13 86 14 24 0 49 3 54 7 6 3 32 4 58 3s48 1 48 6c0 9 143 9 157 0 5-3 36-2 71 2 34 4 62 4 62-1 0-4 11-8 25-8s25-5 25-11c0-5 4-7 10-4 5 3 35-2 65-11 31-9 59-13 62-10s15-1 27-9c11-8 35-15 52-15 18 0 46-8 63-17 38-22 57-9 42 29-5 14-6 31-1 39 7 10 13 4 25-25 9-21 24-46 34-57 22-23 90-48 144-51 23-2 48-9 55-15 7-7 25-15 40-19 15-3 45-13 67-24 22-10 59-26 83-36 23-9 47-23 53-31 6-7 17-13 24-13s36-16 65-35 60-35 70-35c11 0 25-9 33-20s25-23 38-25c13-3 34-19 47-36 14-17 35-35 48-39 14-6 24-18 24-29s22-35 53-59c28-22 92-78 142-126 49-47 97-88 106-91s21-16 27-30c6-13 23-27 37-31 16-4 25-13 25-25 0-10 4-19 9-19 11 0 97-110 104-135 4-11 17-31 30-45s22-31 19-38c-2-6 1-12 6-12 6 0 20-19 32-42 34-65 79-150 95-178 8-14 25-49 37-77l23-53 52 7c52 6 53 5 53-21 0-21-5-26-24-26-14 0-28 5-31 10-3 6-10 10-16 10-13 0-11-28 2-32 7-2 7-11-1-30-8-17-10-43-6-73 6-38 10-45 25-40 16 5 19-1 19-37 2-78 7-115 18-129 16-21 44-150 38-179-3-14 1-49 9-77 10-39 11-53 2-53-7 0-16-34-23-89-15-114-16-108 13-115 28-7 32-27 10-46-22-18-18-47 11-85 14-19 23-39 19-45-11-17-25-11-35 15-5 14-16 25-25 25-11 0-13-5-5-25 12-30 7-111-12-215-12-65-18-77-41-88-21-10-27-20-27-44 0-28 2-30 26-24 22 6 25 4 20-9-3-9-2-23 3-33 37-76 43-93 38-98-4-4-13-1-21 5-8 7-27 11-43 9-39-4-44-41-9-64 35-22 35-54 0-54-17 0-28-6-31-20-3-11-11-20-18-20-22 0-28-33-8-48 17-13 17-14-1-28-11-8-26-14-33-14s-13-7-13-15 5-15 10-15c6 0 10-11 10-25 0-17-5-25-18-25-37 0-59-51-27-64 26-10 17-36-12-36-30-1-63-20-63-37 0-11-44-72-85-116-14-15-25-33-25-40 0-6-12-21-27-33-20-16-24-25-18-40 4-10 7-25 6-32-1-8 3-20 9-27 7-8 9-19 5-25-10-16-45-12-45 5 0 32-37 13-97-50-59-62-92-82-79-50 7 19-40 121-59 129-8 3-15 11-15 18-1 40-108 118-262 192-162 77-303 126-468 161-69 14-177 38-240 52-112 25-209 62-232 90-15 18-18 92-4 100 21 14 49 13 65-1 9-7 39-17 66-20 88-13 109-17 120-25 5-5 28-11 50-15 22-3 55-9 73-12 25-5 32-3 32 10 0 25 29 19 61-14 24-23 36-28 58-24 17 4 47-2 77-15 27-11 92-34 144-51 150-48 278-116 318-170 35-46 77-80 100-80 16 0 15 45-3 79-38 74-212 191-285 191-20 0-53 11-75 25-22 13-53 25-70 25-16 0-38 7-48 14-10 8-27 12-37 9-13-4-20 0-20 10 0 15-36 24-125 32-22 1-53 8-70 15-40 16-220 59-270 64-23 2-70 18-105 34-36 16-74 32-86 36-11 3-31 17-43 30l-22 24 32 16c41 21 46 20 52-4 3-13 14-20 30-20 37 0 42 17 11 33-49 25 8 36 126 23 78-9 120-24 120-42 0-17 37-19 42-2 4 10 10 10 32 0 15-6 47-12 71-12s47-4 50-10c3-5 15-10 25-10s25-6 32-14c8-7 30-17 49-21s43-14 54-21c11-8 29-14 40-14s37-11 57-25 43-25 51-25c23 0 38-26 32-52-6-22-4-24 22-21 20 3 34-2 47-16 11-12 25-21 33-21 7 0 13-4 13-9 0-12 57-34 69-27 16 10 1 37-56 101-30 33-58 64-61 68-25 29-106 66-167 77-101 18-334 76-450 112-55 17-122 37-150 44-27 7-68 19-90 28-52 20-94 20-101 1-4-10-13-13-27-9-18 6-19 3-13-35 7-45-1-51-29-21-11 12-31 20-49 20h-31l32-16c19-10 43-35 58-62 25-45 26-55 10-94-5-14-2-18 14-18 15 0 27-13 43-44 21-43 21-45 3-72-17-27-17-28 9-46 17-13 26-29 26-48 0-30 23-56 40-45 6 4 17 1 25-5 9-7 28-10 44-7 21 4 31 2 35-9 3-8 10-13 14-10 5 3 20-1 33-8 14-7 33-12 44-10 10 1 38-4 62-12 31-11 48-12 62-4 31 16 61 12 61-8 0-28 8-31 47-20 30 8 38 7 55-12 18-19 29-22 73-18 46 4 55 2 70-19 10-13 25-23 34-23s59-20 111-45 107-45 121-45c18 0 28-6 32-20 3-14 14-20 31-20 14 0 26-5 26-11 0-17 63-69 85-69 47 0 88-64 55-85-6-3-10 1-10 9 0 20-19 21-34 1-14-19-29-15-271 68-129 45-247 77-368 101-97 20-194 43-215 52-42 17-217 59-337 80-160 28-200 38-226 56-45 33-108 23-109-17 0-6 55-23 121-39 92-22 123-33 126-46 4-14 13-16 49-12 35 4 44 2 42-9-2-8 7-15 20-17 20-3 23 0 17 18-6 20-4 21 32 14 50-9 55-12 48-35-5-15-1-19 17-19 13 0 34 7 46 16 33 23 92 10 144-31 27-22 46-31 52-25 13 13 52 13 76 0 10-5 55-16 101-24 76-13 128-30 169-56 8-5 60-21 115-35 233-61 320-97 406-168 25-20 50-37 56-37 5 0 14-5 20-11 14-14-32-85-60-95-36-12-87-68-87-96 0-34-16-44-38-25-18 15-38 12-60-9-19-19-19-20 3-44 19-21 19-23 2-35-9-6-17-17-17-24 0-14-27-15-35 0-5 7-15 4-29-9-11-11-42-33-67-49-26-15-64-41-86-56s-58-31-79-34c-21-4-45-13-52-20-8-8-23-11-33-8-12 4-44-5-82-24-34-16-91-37-127-45-70-17-172-51-205-69-11-6-34-10-52-9-17 2-34-2-38-8-3-5-19-10-34-10-16 0-48-9-72-20-39-17-66-20-236-20h-192l-37 61c-27 44-55 72-97 100-73 49-122 60-224 52-61-4-81-3-90 9-10 11-7 20 13 43 18 22 23 36 19 55-11 42-21 44-72 13-67-41-79-45-158-48-71-4-71-4-94 31-13 19-32 34-43 34-15 0-17 4-9 18 5 10 11 30 13 43 2 16 31 50 76 92 67 61 75 66 105 59 52-11 110-8 115 6 3 10-5 12-33 6-23-4-45-2-61 6-20 11-24 21-24 62 0 26 4 48 9 48s12 8 16 18c8 23 84 75 101 68 7-3 16-1 19 4 4 6 33 10 66 10s69 5 79 10c14 7 25 7 38-1s28-8 58 0c43 11 64 40 64 86 0 28-34 52-53 37-7-5-33-16-59-26-39-14-54-15-90-6-138 37-193 68-158 90 12 7 12 12 3 21-10 10-20 8-47-6-34-19-35-19-56 0-12 11-32 19-45 17s-26 2-30 7c-6 11-40 7-88-11-19-7-31-7-40 1-8 6-17 8-21 4-3-4-56-6-117-4-87 1-116-1-135-14-21-14-27-14-52-1-18 9-34 11-42 6-10-6-20-3-33 11-28 30-87 23-87-12 0-10-7-19-15-19s-14 3-14 8c4 24-3 33-21 27-12-4-28-1-37 7-11 9-47 13-112 13-80 0-96-3-99-16-2-11 14-24 50-41 74-35 85-51 57-77s-19-65 21-86c42-22 37-35-10-30-24 2-62 18-96 41-54 36-57 37-70 19-16-22-17-25-4-45 8-12 13-13 29-3 23 15 32 7 25-22-6-24 5-36 56-55 19-7 42-19 51-27 8-7 30-16 49-19 31-7 130-54 157-76 22-17 41-1 48 41 4 23 11 41 16 41 9 0 13-15 10-34-1-5 6-5 16-1s25 9 34 12c20 6 89-22 89-36 0-6 6-11 14-11 9 0 12-8 8-25-2-14 0-25 5-25 6 0 27-11 47-25 21-14 41-23 45-21 14 9 72-60 65-77-6-16 5-22 29-18 9 1 9 0-4-38-6-17-8-39-3-49 9-21 11-28 13-46 1-18 77-63 156-95 55-22 76-24 245-26 191-2 235-9 276-46 11-11 26-19 33-19 20 0 40-62 34-108-5-37-8-40-24-31-11 5-24 7-29 4-6-3-10 3-10 14 0 22-11 26-67 22-17-1-41 3-53 9-12 7-47 14-79 16-95 7-196 24-216 36-5 3-44 11-85 18s-88 20-105 28c-16 8-50 21-75 28-98 28-140 47-145 65-8 25-30 24-49-2-15-22-36-18-36 7 0 8-7 14-15 14s-15 9-15 20c0 18-7 20-57 20-53 0-59 3-74 28-17 31-117 92-149 92-11 0-20 5-20 10 0 6-7 10-15 10s-15 6-15 14-16 28-35 45c-36 31-68 40-80 21-9-15-25-12-25 5 0 8 5 15 10 15 6 0 10 6 10 14 0 18-47 56-70 56-10 0-20 8-22 18-3 11-22 23-47 30-30 10-41 18-41 33 0 21-66 89-87 89-7 0-13 5-13 11 0 18-41 70-50 64-5-3-21-3-34 1-21 5-25 11-20 29 3 14-3 35-20 60-14 21-26 48-26 60s-11 34-25 49-25 33-25 40-8 23-19 35c-10 11-21 39-25 61-4 25-14 43-27 51-16 8-20 18-17 45 4 35-5 44-44 44-15 0-19 6-16 24 1 13-4 31-11 40-17 21-21 64-9 89 7 13 5 24-8 38-13 15-14 22-5 33 10 12 8 19-8 35s-19 28-14 51c5 29 4 31-20 24-23-5-28-2-38 22-8 21-7 34 1 48 15 23 5 87-22 144-32 68-57 443-31 470 9 10 10 19 3 32-6 10-10 34-10 52s-7 46-15 62c-19 37-19 43 3 48 25 7 45 81 40 152-2 40 1 57 11 61 7 3 11 12 8 19-3 8 1 20 10 27 11 10 14 25 10 57-4 35-1 47 16 63 11 10 18 19 14 19s0 14 9 32c10 19 14 44 11 64-4 24 0 37 13 49 21 19 70 135 70 166 0 23 30 79 42 79 4 0 8 13 8 29 0 26 15 51 84 140 8 11 8 13-2 7-7-4-12-1-12 9 0 24 19 55 33 55 8 0 20 16 27 36 8 20 27 45 42 56 15 10 28 25 28 32 0 19 40 53 40 35 1-10 4-9 11 4 5 9 7 21 4 27-3 5 3 14 14 19 11 6 22 24 26 41 4 20 14 32 30 36 22 6 87 64 70 64-4 0 0 9 10 20s24 20 32 20c7 0 13 6 13 13s14 21 30 30c17 10 30 27 30 38 0 12 7 19 19 19 11 0 32 15 46 34 16 21 32 33 41 29 7-3 17 2 20 11s14 16 24 16c11 0 22 5 25 10 4 6 23 19 44 29 20 11 56 38 79 60 50 49 122 99 179 126 24 11 46 28 49 38 3 9 14 17 25 17 10 0 19 5 19 10 0 6 7 10 16 10 8 0 12-4 9-10-10-16 31-11 45 5 7 8 19 15 28 15 8 0 37 14 63 31 30 19 55 28 67 25 11-4 25 1 36 12 22 25 137 30 156 7 28-33 55-7 44 43l-5 27 19-22c21-24 42-30 42-13 0 25 45 50 91 50 59 0 74 16 65 70-4 25-2 40 4 40 5 0 11-8 11-17zm1355-10c-4-25-26-28-26-4 0 12 6 21 14 21s13-8 12-17zm-2078-15c-6-18-28-21-28-4 0 9 7 16 16 16s14-5 12-12zm2146-103c-4-10 0-15 11-15 9 0 13-4 10-10-3-5-15-10-27-10-14 0-18 5-14 16 3 9 6 20 6 25s4 9 10 9c5 0 7-7 4-15zm204-46c-2-6-8-10-13-10s-11 4-13 10 4 11 13 11 15-5 13-11zm-86-29c3-17 1-33-4-36-4-3-8 4-8 15 0 10-3 26-6 35s-2 16 4 16c5 0 12-14 14-30zm228-50c0-5-9-14-20-20-22-12-23-10-14 14 7 17 34 22 34 6zm540-5c0-8-4-15-10-15-5 0-10 7-10 15s5 15 10 15c6 0 10-7 10-15zm-467-39c24-19 21-26-11-26-35 0-45 9-31 27 14 16 19 16 42-1zm-3243-11c0-8-7-15-15-15s-15 7-15 15 7 15 15 15 15-7 15-15zm3789-40c1-5-6-2-15 7-10 9-13 21-8 29 5 9 9 8 15-7 4-10 8-23 8-29zm-581 4c-2-6-8-10-13-10s-11 4-13 10 4 11 13 11 15-5 13-11zm-3008-3c0-16-14-36-26-36-14 0-19 22-7 33 7 8 33 10 33 3zm-206-54c2-4 0-14-5-22-8-13-10-13-18 0-10 15-6 30 9 30 5 0 11-4 14-8zm3487-46c-8-10-9-21-1-40 20-54 8-123-15-85-5 6-12 4-20-8-21-28-28-9-14 36 9 32 9 43 0 55-13 16-7 36 10 36 6 0 17 7 26 15 19 19 31 11 14-9zm-3611-186c12-7 12-13 4-27-15-24-52-29-60-9-14 37 20 59 56 36zm3777-60c-1-44-27-58-27-15 0 14-4 25-10 25-5 0-10 7-10 15 0 9 9 15 24 15 23 0 25-4 23-40zM810 4580c0-5-7-10-15-10s-15 5-15 10c0 6 7 10 15 10s15-4 15-10zm228-18c10-7 8-12-6-25-20-18-52-14-52 7 0 25 31 35 58 18zm-238-380c0-13-12-22-22-16s-1 24 13 24c5 0 9-4 9-8zm-240-57c0-8-7-15-15-15s-15 7-15 15 7 15 15 15 15-7 15-15zm5026-118c7-7-38-27-61-27-16 0-28 16-21 28 5 9 73 8 82-1zM369 3699c28-36 22-46-18-28-29 13-40 37-24 52 10 11 17 8 42-24zm5182-161c25-31 24-38-7-38-19 0-25 4-21 15 4 8 2 17-3 20-6 4-10 10-10 16 0 16 21 10 41-13zm109 7c-14-16-50-21-50-6 0 9 20 17 49 20 11 1 11-2 1-14zm389-24c20-13-4-24-46-23-39 2-56 9-48 23 8 11 75 12 94 0zm-5699-26c-7-8-17-15-22-15-6 0-5 7 2 15s17 15 22 15c6 0 5-7-2-15zm10-86c0-16-35-37-46-27-2 2 2 18 8 36 9 24 15 29 25 20 7-6 13-19 13-29zm-120-18c0-6-4-12-9-15-5-4-17-32-27-63-13-42-15-58-6-61 17-5 15-33-4-47-13-9-14-16-5-33s9-26-1-42c-18-29-25-25-31 18-3 20-8 45-12 54-4 10 1 24 12 35 10 10 17 26 15 34-2 9 5 24 14 33 12 13 14 20 5 29-18 18-13 47 12 57 29 12 37 12 37 1zm5908-42c-2-6-8-10-13-10s-11 4-13 10 4 11 13 11 15-5 13-11zm-5798-21c0-16-31-48-47-48-7 0-13 7-13 15s7 15 15 15 15 7 15 15 7 15 15 15 15-5 15-12zm340-58c0-5-7-10-15-10s-15 5-15 10c0 6 7 10 15 10s15-4 15-10zm-410-30c0-5-7-10-15-10s-15 5-15 10c0 6 7 10 15 10s15-4 15-10zm5855-37c10-13 9-22 0-42-7-14-17-39-22-56-5-16-16-31-26-33-14-3-17 4-17 38 0 45 25 110 43 110 5 0 15-7 22-17zm-5585-13c0-12-29-20-35-10-9 15 4 30 20 23 8-3 15-9 15-13zm120-14c0-2-7-9-15-16-12-10-15-10-15 4 0 9 7 16 15 16s15-2 15-4zm-40-78c0-13-19-9-40 9-11 10-20 26-20 37 0 17 4 16 30-10 16-16 30-32 30-36zm-86 1c-10-16-24-9-24 12 0 18 2 19 15 9 8-7 12-16 9-21zm-221-3c6-15-1-26-15-26-4 0-8 9-8 20 0 23 15 27 23 6zm-106-83c19-28 10-61-11-44-8 7-19 25-26 41-10 23-9 32 2 43 11 13 13 13 17-1 2-9 10-26 18-39zm95-5c-12-12-35-1-27 12 3 5 13 6 21 3 10-4 12-9 6-15zm348-17c0-5-7-14-16-22-10-8-14-22-11-38 5-27-7-61-23-61-17 0-33 41-21 53 6 6 11 20 11 32s5 26 12 33c14 14 48 16 48 3zm50-61c0-5-9-10-20-10s-20 5-20 10c0 6 9 10 20 10s20-4 20-10zm4934-22c8-14 6-22-10-38-34-34-76-2-53 41 12 24 47 22 63-3zm-5386-51c5-22-47-44-60-25-12 19-10 24 15 36 28 13 41 10 45-11zm410-131c3-13-1-17-14-14-11 2-20 11-22 22-3 13 1 17 14 14 11-2 20-11 22-22zm-255-18c-7-37-18-48-50-48s-29 24 8 54c40 34 50 33 42-6zm209-42c4-27-18-31-25-5s1 45 13 32c5-4 10-17 12-27zm-307-16c2-4-5-17-16-29l-20-22-25 23c-13 13-24 28-24 33 0 12 77 7 85-5zm365-62c0-11 9-22 20-25 20-5 28-42 13-57-5-4-8-19-8-33 0-49-22-34-41 27-10 33-21 60-26 60-12 0-10 44 4 58 15 15 38-3 38-30zm2850-8c0-19-11-26-23-14-8 8 3 34 14 34 5 0 9-9 9-20zm-3110-92c0-4-9-8-19-8-21 0-31 17-23 38 3 10 9 9 23-4 11-9 19-21 19-26zm94-24c23-9 20-24-4-24-11 0-20 7-20 15 0 17 2 18 24 9zm-230-56c-8-13-33 3-27 17 4 11 8 12 18 2 7-7 11-15 9-19zm345-14c3-16 1-17-13-5-19 16-21 34-3 29 6-3 14-13 16-24zm-314-24c3-5-3-10-14-10-12 0-21 5-21 10 0 6 6 10 14 10s18-4 21-10zm185-78c0-13-12-22-22-16s-1 24 13 24c5 0 9-4 9-8zm-110-115c0-37-24-77-37-63-4 5-2 11 5 13 7 3 12 22 12 44 0 21 5 39 10 39 6 0 10-15 10-33zm122-19c-6-6-8-16-6-22s-5-17-17-25c-20-12-21-11-15 4 3 10 1 24-5 31-9 11-6 16 12 23 28 10 45 3 31-11zm5184-15c-5-12-10-13-18-5s-8 15 3 28c15 18 25 4 15-23zm-4962 2c24-18 12-35-25-35-32 0-34 3-19 31 13 22 19 23 44 4zm86-20c0-8-4-15-9-15-13 0-22 16-14 24 11 11 23 6 23-9zm-250-12c0-7-7-13-15-13s-15 6-15 13c0 8 7 14 15 14s15-6 15-14zm214-78c19-14 18-15-9-37-16-13-31-25-34-28-4-3-14-17-24-32-17-27-67-40-67-18 0 6 3 9 8 9 20-3 32 2 32 15 0 7 11 21 25 30 17 11 25 26 25 46 0 33 14 38 44 15zm4536-62c0-46-14-73-30-57-8 8-7 23 2 53 16 51 28 53 28 4zm-3-120c-9-9-19-14-23-11-10 10 6 28 24 28 15 0 15-1-1-17zM845 1740c11-17-5-32-21-19-7 6-11 15-8 20 7 12 21 11 29-1zm1241-34c11-45 1-60-41-68-103-18-279-38-292-34-12 5-11 10 2 35 8 16 13 36 10 43-10 25 58 40 175 37 60-1 113 0 117 4 12 13 23 7 29-17zm139-4c0-8-15-20-33-28-31-13-33-12-41 9-5 12-7 26-4 30 8 14 78 3 78-11zm-1410-26c52-30 59-67 19-105-16-14-31-26-34-27-3 0-13-4-23-9-27-11-31 0-13 36s21 79 6 79c-5 0-10 11-10 25 0 30 4 30 55 1zm240 14c3-6-3-22-14-36-12-15-21-35-21-46s-5-18-12-15c-17 6-11 67 9 90 18 19 29 22 38 7zm4244-83c6-8 8-16 5-20-10-9-34 4-34 19 0 18 14 18 29 1zm-3169-28c0-6 10-19 21-28 18-15 20-22 12-46-14-44-101-87-104-52-5 44 2 111 12 123 14 16 59 19 59 3zm-1160-19c0-5-5-10-11-10-7 0-9-10-5-25 6-23 4-24-26-18-45 8-46 11-13 38 31 25 55 32 55 15zm4218-20c-26-42-81-50-94-15-8 21-5 23 39 28 21 2 40 7 44 10 13 14 22-5 11-23zm-218-35c13-16 5-71-12-81-19-12-34 15-20 37 7 11 10 29 7 40-7 22 7 25 25 4zm-4179-18c-13-13-26-3-16 12 3 6 11 8 17 5 6-4 6-10-1-17zm99-33c0-9-5-14-12-12-18 6-21 28-4 28 9 0 16-7 16-16zm159 2c6-7 42-16 82-20 60-6 74-5 90 10 20 18 17 19 91-21 41-22 14-51-52-56-32-3-44 0-42 9 1 6-6 12-16 12s-23 5-29 11c-7 7-21 4-47-12-35-20-38-20-55-4-18 15-20 15-30-2s-13-16-36 10c-39 44-32 70 21 76 6 0 17-5 23-13zm4531-50c0-2-7-9-15-16-12-10-15-10-15 4 0 9 7 16 15 16s15-2 15-4zm-462-48c-5-16-58-24-58-9 0 8 13 13 53 20 5 0 7-5 5-11zm-3810-51c5-22-57-50-75-35-20 17-15 27 20 42 38 17 51 15 55-7zm3948 2c20-16 11-54-13-57-17-3-21 0-17 12 4 11 0 16-14 16-12 0-24-4-27-10-9-14-34-12-31 3 1 7 10 22 21 34 20 22 56 23 81 2zm-4286-3c0-8-4-18-10-21-5-3-10 3-10 14 0 12 5 21 10 21 6 0 10-6 10-14zm424-22c7-19-1-34-18-34-8 0-13 11-13 25 0 28 21 34 31 9zm-224-64c-21-14-30-12-30 4 0 18 22 27 35 14 6-6 5-12-5-18zm-52 2c2-7-2-10-12-6-9 3-16 11-16 16 0 13 23 5 28-10zm192-32c0-10-7-23-16-31-13-10-17-10-25 2-12 20-11 43 3 57 15 15 38-2 38-28zm138-59c-2-9-10-16-18-16-10 0-16 12-18 40l-2 40 20-24c12-13 19-31 18-40zm-305 22c3-5 1-19-5-32-8-23-10-23-25-8-13 13-14 19-3 31 14 17 26 20 33 9zm187-38c7-9 9-22 5-32-5-10-7-21-7-25 3-13-15-9-28 7-13 15-6 65 9 65 5 0 14-7 21-15zm390-50c0-8-12-13-35-12-25 1-35 5-35 17 0 9 3 19 6 23 10 9 64-14 64-28zm3497 20c0-8-6-15-13-15-6 0-14-7-18-15-7-19-36-20-36-1 0 10 42 39 66 46 0 0 1-7 1-15zm-2597-9c0-31-119-63-190-51-61 10-50 29 13 22 40-5 59-3 76 9 43 30 101 42 101 20zm-1094-30c3-8-1-34-9-58-8-23-14-55-12-70 2-19-1-28-11-28-8 0-14 5-14 12 0 6-9 22-21 34-17 18-19 26-10 42 15 29 14 31-15 42-33 13-21 33 16 25 16-3 31-2 35 4 9 16 35 13 41-3zm-336-62c0-8-4-12-10-9-5 3-10 13-10 21s5 12 10 9c6-3 10-13 10-21zm433-29c15-14 27-30 27-35 0-15-31-40-51-40-16 0-19 7-19 50 0 28 3 50 8 50 4 0 20-11 35-25zm3387 15c0-5-7-10-15-10s-15 5-15 10c0 6 7 10 15 10s15-4 15-10zm-3645-40c0-7-6-15-12-17-8-3-13 4-13 17s5 20 13 18c6-3 12-11 12-18zm-105-25c0-8-4-15-10-15-5 0-10 7-10 15s5 15 10 15c6 0 10-7 10-15zm574-16c16-23 11-49-9-49-8 0-17 9-20 21-7 21-15 22-72 4-17-5-23-3-23 7 0 9 16 19 43 25 62 15 64 15 81-8zm-486-32c16-13 5-23-35-30-26-5-35-2-43 13-6 11-8 25-5 31 8 12 63 3 83-14zm742-7c0-5-7-10-15-10s-18 0-22-1c-4 0-9 4-11 10s8 11 22 11 26-4 26-10zm69 1c16-10 6-51-14-51-13 0-25 21-25 46 0 16 18 18 39 5zm146-38c-11-7-22-13-27-13-14 0-8 19 9 29 25 13 40 1 18-16zm2422 2c0-9-9-15-21-15-21 1-21 1-2 15 24 18 23 18 23 0zm-2975-12c22-20 23-46 3-63-12-10-22-10-47 1-18 7-35 14-36 15-2 1 4 16 14 33 21 35 39 39 66 14zm-149 1c10-10-42-80-69-93-47-21-46 1 3 49 50 50 56 54 66 44zm255-2c9-7 10-15 3-35-13-32-26-34-41-6-20 37 4 62 38 41zm352-57c0-7 7-16 16-19 15-6 15-8-1-26-26-29-45-25-45 9 0 16 3 36 6 45 7 18 24 12 24-9zm-329-8c-1-12-15-9-19 4-3 6 1 10 8 8 6-3 11-8 11-12zm442-59c-23-24-39-71-34-100 1-10-3-18-9-18-7 0-10 6-7 13 2 6-2 28-10 46-17 42-10 65 17 58 12-3 20 0 20 7 0 20 23 37 34 26 6-6 3-17-11-32zm904 18c-6-17-47-20-47-3 0 9 6 17 13 20 18 6 38-4 34-17zm-1280-1c0-19-24-27-30-10-6 15 1 25 18 25 6 0 12-7 12-15zm-243-10c-4-8-10-12-15-9-14 8-10 24 6 24 9 0 12-6 9-15zm486-95c0-11-7-20-15-20s-15 9-15 20 7 20 15 20 15-9 15-20zm960 5c0-8-7-15-15-15s-15 7-15 15 7 15 15 15 15-7 15-15zm1147-15c1-11-2-20-8-20-10 0-12 23-2 33 9 9 9 10 10-13zm113-2c0-10-4-18-10-18-5 0-10 2-10 4s-2 11-5 19c-4 8 0 14 10 14 8 0 15-9 15-19zm-2503-10c20-22 20-24 5-60-17-40-38-49-49-23-3 9 2 22 13 30 18 13 18 14 1 32-9 11-17 25-17 31 0 19 25 14 47-10zm441 1c-2-6-8-10-13-10s-11 4-13 10 4 11 13 11 15-5 13-11zm439-6c3-7-10-22-29-33-40-24-48-25-48-5 0 8 4 15 9 15s11 9 14 21c4 15 12 20 28 17 12-2 24-8 26-15zm-377-23c-21-14-30-12-30 4 0 18 22 27 35 14 6-6 5-12-5-18zm-165-10c3-5 3-15-1-21-6-11-23 6-24 24 0 10 18 9 25-3zm1733-8c3-9-2-13-14-10-9 1-19 9-22 16-3 9 2 13 14 10 9-1 19-9 22-16zm-1975-70c-3-7-10-11-16-9-15 5-30 55-22 75 5 14 10 11 25-18 10-19 15-40 13-48zm481 32c4-15 4-29 1-32-8-8-25 19-25 41 0 26 17 20 24-9zm-64-3c0-5-7-25-15-45-11-25-21-36-32-34-24 5-24 36 0 64 20 24 47 32 47 15zm-310-16c16-20 10-26-18-18-12 3-22 12-22 19 0 19 24 18 40-1zm1758-28c2-10-3-17-12-17-10 0-16 9-16 21 0 24 23 21 28-4zm-1513-88c0-8-10-15-23-17-21-3-22-2-10 17 14 23 33 23 33 0zm245 6c0-8-4-15-10-15-5 0-10 7-10 15s5 15 10 15c6 0 10-7 10-15zm-200-86c0-6-7-6-20 1-11 6-20 15-20 21s7 6 20-1c11-6 20-15 20-21zm450-15c0-8-4-14-10-14-5 0-10 9-10 21 0 11 5 17 10 14 6-3 10-13 10-21z" />
    <path
      d="M2865 5330c-3-6-50-10-106-10-54 0-99-4-99-9 0-21 146-29 181-10 16 8 30 6 63-10 23-12 47-21 53-21 20 0 73-51 99-95 18-31 24-56 23-87-1-23 3-56 9-73 14-39 36-200 34-245-1-19-2-52-2-73s-7-63-15-94c-8-32-15-80-15-108-1-27-7-61-15-75-22-38-18-49 20-67 28-13 39-14 60-5 57 26 95 9 95-41v-29l-87 7c-49 4-98 12-111 16-24 9-50 1-70-24-9-11-7-19 12-36l24-23 21 21c27 27 121 30 145 5 25-24 25-103 0-141-8-12-14-24-14-26s23 3 50 12c53 16 63 33 30 53-11 7-20 20-20 29s9 19 20 22c17 4 20 14 22 59 0 29 2 58 3 63 2 6 3 15 4 21 0 7 9 14 20 17 12 3 25 23 35 54 20 61 12 87-48 150l-40 43v100c-1 55-4 100-8 100-7 0-15 94-21 241-4 89-3 96 14 92 14-4 16-1 12 17-4 16 0 23 15 27 12 3 24 14 28 25 8 26 68 52 92 40 9-5 22-7 29-5 6 2 25-3 42-11 18-10 56-16 95-16 54 0 69 4 93 24l28 24-55 1c-30 1-86 1-125 1-38 0-98 5-131 11-52 9-66 8-93-5-38-20-143-13-207 14-22 10-66 24-98 31-31 7-59 16-62 21-7 11-21 10-29-2zm389-835c30-27 33-40 11-49-19-7-125 14-125 26 0 10 60 48 76 48 6 0 23-11 38-25z" />
    <path
      d="M2788 5253c-20-3-28-10-28-24 0-10 5-19 10-19 6 0 10 5 10 10 0 16 27 12 34-6 8-21 24-9 22 17-1 25-8 28-48 22zM2553 5217c-47-12-61-34-15-23 64 15 103 13 127-6 16-12 32-17 45-13 31 10 24 23-18 34-63 18-95 19-139 8zM2746 5158c-10-5-25-11-33-12-14-2-33-24-33-38 0-19 49-5 74 21 29 30 24 47-8 29zM4050 4880c-8-6-31-14-50-20-47-13-66-44-47-74 13-20 23-22 93-22 45 1 79 5 79 11 1 6 4 20 9 33 6 17 1 29-23 52-32 33-38 35-61 20zM4171 4807c-8-10-4-20 17-40 27-26 27-28 21-114-3-50-1-99 5-115 8-20 6-36-9-70-26-59-48-86-107-130-84-64-93-47-18 35 55 60 60 72 30 62-27-9-25-2 9 33 31 31 54 96 49 140-2 22-9 12-32-48-21-53-45-91-80-129-60-64-145-121-180-121-14 0-28-5-31-10-4-7-24-8-51-4-50 7-61-9-19-28 19-8 31-8 50 0 40 19 62 14 100-19 31-28 35-37 35-79 0-37-6-56-24-77l-24-27 23-36c17-27 20-41 13-54-20-36 30-62 81-40 32 14 43 44 15 44-9 0-34 14-55 31-32 25-37 34-29 49 5 10 23 23 40 28 16 6 30 16 30 23 0 6 7 8 15 5 19-7 55 14 55 32 0 7-13 18-30 23-16 6-30 17-30 24 0 8-7 11-18 8-20-5-47 20-38 36 3 5 32 7 65 4 58-5 58-5 87 32 58 76 110 173 136 256 17 54 15 159-3 170-10 6-10 13-2 32 13 28 8 37-19 37-11 0-23 11-28 25-10 27-31 32-49 12zm77-176c-2-28-7-52-13-54-13-3-18 47-10 91 10 52 27 25 23-37z" />
    <path
      d="M4135 4729c-13-19 4-59 25-59 23 0 23-2 9 39-11 32-23 39-34 20zM4554 4645c-3-8-7-29-8-46-1-27 3-32 34-42 21-8 41-25 53-45l19-33-32-62c-18-34-44-72-59-85-51-45-222-122-253-114-16 4-7-14 25-52 33-38 34-39 70-27 21 7 50 23 65 35s41 28 59 35 38 19 44 27c19 24-17 17-67-12-60-35-56-14 5 28 59 40 88 75 130 153 35 68 37 91 15 155-8 24-13 52-10 63 8 31-79 53-90 22zm-134-454c0-9-24-21-41-21-5 0-9 7-9 15 0 9 9 15 25 15 14 0 25-4 25-9z" />
    <path
      d="M4670 4628c0-2 11-33 24-70 30-84 27-123-12-181-35-51-39-67-17-67 28 0 15-23-46-80-65-63-181-130-223-130-14 0-36 9-48 20-13 12-30 27-39 35-22 21-46 20-29 0 10-13 9-15-8-15s-21 7-24 38c-3 34-5 37-30 34-14-1-29 2-33 8-5 8-12 7-23-2-12-10-16-10-19 0-6 16-28 15-42-1-8-10-6-19 10-35 11-12 26-22 34-22 7 0 15-10 17-22 3-19 8-23 38-21 19 2 44 1 56-2 23-5 44-43 44-80 0-21 5-25 30-25 16 0 45-8 64-17 33-17 36-22 36-63 0-33-7-56-26-83-23-34-29-38-56-32-29 7-30 6-24-16 21-75 20-79-20-120-33-33-44-39-81-39-36 0-43-3-43-19 0-44-110-78-161-50-14 7-29 7-54-2-27-10-40-10-61 0-15 6-29 9-32 7-11-12 57-30 118-32 36-1 82-9 103-18s46-14 56-11c9 3 26-2 37-10 10-8 34-15 52-15 25 0 32-4 32-20 0-11 5-20 11-20 16 0 95-75 147-140 31-39 38-15 8 28-14 21-26 44-26 50 0 7-16 22-35 33-20 12-40 30-46 40-5 11-16 19-24 19s-15 9-15 20c0 39 44 23 131-49 72-58 90-80 126-149 23-44 44-90 47-103 2-13 11-51 20-84 20-76 20-187 0-275-13-58-28-87-90-174-71-100-91-145-59-132 8 3 15 0 15-6s12-9 33-5c52 9 87 25 87 42 0 8 18 54 40 101 38 84 50 134 31 134-5 0-11-6-14-12-8-23-20 1-13 27 4 15 13 25 25 25 25 0 31 26 31 137 0 68-4 95-15 107-18 18-19 33-2 39 9 3 10 12 1 43-26 86-77 202-96 215-5 3-24 29-42 58-19 29-53 66-75 83-32 23-41 36-41 59 0 36 8 36 63 1 64-40 104-76 111-99 4-12 13-23 20-26s24-27 39-54c14-27 34-65 45-85 47-82 64-166 69-325 6-189-15-292-91-457-19-42-32-84-29-94 3-14-2-21-16-25-12-3-28-20-35-39-17-39-13-47 12-25 10 10 25 17 33 17 13 1 57 54 86 106 7 12 14 48 16 79 2 41 8 60 20 67 9 5 17 16 17 23 0 8 4 15 10 15 5 0 7 7 4 15-4 8-1 22 6 30 10 13 9 19-6 36-19 21-18 21 10 44 28 22 28 25 18 66-9 36-8 48 4 68 17 25 16 32-10 181-27 154-80 276-156 355-26 28-54 62-61 77-17 31-122 144-150 158-20 11-26 30-9 30 5 0 38-13 72-29 71-33 191-146 235-221 14-25 34-54 44-65s21-32 24-47c4-16 11-28 17-28 5 0 7-4 3-9-3-5-1-12 3-15 22-13 52-178 60-321s7-157-20-294c-16-79-36-157-44-172-8-16-14-31-14-34s-1-8-1-12c-1-5 0-16 0-26 1-9-7-30-17-45-37-51-56-249-33-330 13-42 88-132 111-132 10 0 30-7 46-15 42-22 107-9 149 29 31 29 33 35 28 74-4 33-13 48-42 71-20 15-44 30-53 34-29 10-42 83-29 152 27 141 38 220 31 225-13 8-40 129-40 178 0 58-12 81-33 64-12-10-16-9-20 8-3 13 3 25 20 38l25 18-1 200c0 109-1 218-1 241s-4 45-10 48c-15 9-40 73-40 102 0 31-25 79-45 86-8 4-15 13-15 22 0 8-7 15-15 15s-15 9-15 20c0 22-8 24-44 11-31-12-51 8-42 44 4 14 2 25-3 25s-14 14-20 30c-11 32-74 68-136 80-36 6-45 34-15 50 33 18 196-76 266-153 59-66 138-214 151-282 2-11 7-31 13-45 9-25 34-248 33-305 0-16-1-89-2-160-2-114 0-139 21-200 26-79 52-103 143-131 49-16 53-16 96 3 35 16 46 27 55 56 11 37-1 87-25 102-17 10-41-14-41-42 0-33-24-39-73-17-54 23-77 43-77 66 0 10-9 34-19 54-18 32-19 50-14 148 7 134 7 131-1 231-4 44-9 109-12 145-12 168-27 232-68 286-20 26-36 51-36 56s-16 27-36 48c-29 31-42 38-60 34-22-6-29 2-25 29 0 4-6 7-14 7-21 0-75 40-75 56 0 22-31 37-78 36-44 0-112 20-112 33 0 4 18 4 40 0 71-12 98 42 40 80-16 11-30 24-30 28 0 17 32 18 50 2 25-23 122-17 148 9 16 15 15 16-18 10-19-3-41-7-48-10-17-5-66 15-58 24 4 4 29 8 54 9 52 2 65 5 105 21 16 7 32 12 37 12s21 10 37 23c15 12 37 27 48 33 15 9 19 21 18 49-2 27 3 42 15 51 15 11 18 9 23-18 11-52-8-93-67-146-31-28-80-62-109-77-29-14-56-32-59-40-3-10-15-12-41-8-39 6-55-5-55-40 0-29 29-32 56-6 21 19 27 21 34 9s17-10 57 10c26 14 62 34 78 46 17 11 38 24 48 27 9 4 17 11 17 17 0 10 8 22 40 57 8 9 16 32 17 52s5 52 8 71c13 81 12 95-12 92-14-2-23 4-28 18-15 49-93-8-81-60 17-71 17-82-1-102-32-35-84-49-208-55-84-4-125-10-137-20-13-11-21-12-37-3-24 12-41 6-41-14 0-8-6-19-14-25-12-10-18-7-31 13-10 14-27 26-39 26-11 0-28 4-36 10-22 14 7 41 85 79 59 28 194 131 204 154 2 6 19 27 38 48 28 31 34 45 32 76-1 21 2 45 5 55 4 9 0 30-9 48-12 24-14 35-5 40 19 12-44 110-72 110-4 0-8-1-8-2zm-59-672c-11-27-41-36-41-12 0 14 40 49 47 42 2-2-1-15-6-30zm315-1603c-7-25-7-112 0-150 4-21 2-33-5-33-27 0-2-65 51-132 33-42 26-53-19-32-76 38-115 123-93 206 6 21 9 42 6 47s1 32 10 60c11 40 19 51 35 51 15 0 19-5 15-17zM2742 4589c-13-16-31-29-40-29s-30-9-47-20c-16-11-43-20-58-20-16 0-41-6-55-14-15-8-56-25-92-38-40-15-64-30-62-38 4-17-16-30-46-30-12 0-30-9-40-21-9-11-42-32-72-47s-59-32-65-38c-5-6-42-29-82-50-55-30-75-36-84-27-14 14 19 85 61 130 29 31 53 123 32 123-13 0-72-67-72-82 0-6-9-20-20-32s-34-38-51-58c-21-26-41-39-67-44-20-3-42-13-49-21-12-15-60-15-55 1 6 15-18 23-63 20-35-2-44 1-48 17-3 13-14 19-31 19-14 0-26 5-26 10 0 6-5 10-11 10s-17 7-25 15c-20 20-33 19-41-2s51-73 83-73c22 0 39-24 28-41-12-19-35-6-110 62-49 44-81 81-84 98-4 20-7 22-12 9-13-33 13-92 63-141 27-26 49-52 49-57 0-4 20-20 45-34 37-20 64-26 144-30 53-3 104-8 113-11 8-3 35-1 59 5s54 13 67 15 38 15 57 29c18 14 36 26 40 26 3 0 51 23 106 50 55 28 105 50 111 50 20 0 118 50 118 60 0 6 9 10 21 10 25 0 111 35 161 67 47 29 56 29 70-2 6-14 19-25 29-25s31 11 47 25c17 14 38 25 48 25 40 1 71 48 43 65-9 6-8 24 8 93 5 20 2 22-33 21-31 0-44-6-62-30zM3453 4280c-11-5-36-10-55-12-47-6-41-29 12-44 25-7 58-26 73-42 25-26 26-30 12-42-8-7-15-21-15-32 0-19 1-19 30 2 17 12 37 35 45 50 15 28 14 30-10 46-17 11-36 14-55 10-32-6-37 2-20 35 6 11 21 19 36 19 14 0 22 4 19 10-7 12-42 12-72 0zM3576 4282c-13-12-5-22 17-22 41 0 60-22 55-63-4-33-1-37 18-37 25 0 54 24 54 45 0 8-9 19-19 25-11 5-25 16-33 23-16 15-85 37-92 29zM2658 4223c-37-41-11-68 57-57 36 5 49 12 57 30 15 33 7 38-46 26-37-8-46-7-48 5s-6 11-20-4zM3809 4193c-8-9-13-24-11-34s-8-25-22-35c-25-15-35-48-18-57 17-10 72 15 91 42 17 24 19 33 9 64-12 40-28 46-49 20zM3035 4182c-6-4-23-28-38-53l-26-46 38-18c41-18 81-75 81-115 0-21 3-21 53-15 64 9 111 34 115 63 4 26-4 27-51 7-64-26-89-20-111 27-19 41-19 41 2 59 19 15 20 18 6 30-11 9-14 22-10 41 5 25 3 28-22 28-15 0-32-4-37-8zM2862 4168c6-18 28-21 28-4 0 9-7 16-16 16s-14-5-12-12zM2490 4163c0-5 5-14 12-21 9-9 8-15-7-26-10-7-16-20-12-28 3-9-1-25-9-37-14-19-14-21 5-21 12 0 21 5 21 11 0 7 9 9 22 6 12-4 34 1 51 11 25 15 28 21 23 51-3 19-9 38-14 43-13 13-92 23-92 11zM2816 4163c-3-3-6-26-6-50 0-30 4-43 14-43 7 0 25-9 40-21 21-16 26-29 26-64s-4-47-22-56c-19-10-19-12-4-21 9-5 28-31 41-59 14-27 29-49 33-49 5 0 19 11 32 24 27 29 21 53-15 62-31 8-33 34-2 34 13 0 31 6 41 13 25 18 9 47-46 85-34 23-43 34-41 55 2 29-14 36-35 15-9-9-12-6-12 15 0 15-4 27-10 27-5 0-10 6-10 14 0 17-14 28-24 19zM3352 4148c-16-8-21-17-16-31 3-11 1-23-6-27-17-11-2-50 19-50 20 0 61 51 61 78 0 17-18 43-29 41-4 0-16-5-29-11zM2367 4133c-14-13-7-23 16-23 13 0 32-6 43-14 23-18 44-4 37 24-4 16-14 20-47 20-24 0-46-3-49-7zM2650 4091c-19-21-44-43-55-49-19-10-19-11 0-46 18-34 21-35 67-33 60 4 70 14 29 28-23 8-29 15-22 22 6 6 11 28 11 48 0 21 5 41 10 44 12 7 13 25 3 25-5 0-24-18-43-39zM3586 4092c-3-6 1-27 10-47 8-21 13-44 10-51-9-23 23-16 49 11 41 40 36 46-57 93-3 2-9-1-12-6z" />
    <path
      d="M4139 4078c-7-18-6-33 6-62l16-39 21 20c24 25 17 77-13 93-16 9-21 7-30-12zM2278 4052c-27-9-48-19-48-24 0-4 18-19 41-33 43-27 47-52 9-47-12 1-29-3-37-10-11-9-15-7-20 11-4 15-11 20-23 16-11-3-20 1-24 10-10 28-36 17-36-16 0-30 0-31-42-25-32 5-37 4-21-3 12-5 24-19 28-30 3-12 22-37 41-57 34-37 38-70 4-39-16 15-18 14-23-6-8-31-32-17-32 19 0 25-6 35-29 47-35 19-36 19-36 0 0-12-8-14-39-9-36 6-40 4-53-22-7-16-26-35-41-42-19-9-27-21-27-40 0-33-27-69-55-74-13-2-20-11-20-27 0-14-6-26-13-29-6-2-12-19-12-38s-4-34-10-34c-5 0-10 5-10 10 0 21-18 9-43-29-19-28-23-41-14-50 8-8 8-14-1-23-7-7-12-22-12-34 0-15-7-23-26-27-22-4-25-2-20 18 4 17 1 24-13 28-22 5-71-51-71-84 0-18 4-20 28-15l27 7-24-19c-23-19-23-19-4-33 15-11 18-23 15-61-5-55-15-60-37-19-8 16-24 32-35 36s-20 15-20 26c0 29-53 102-104 143-23 20-47 36-52 36-4 0-17 11-29 25-16 21-32 27-80 32l-60 5 22-22c11-12 33-22 47-22s26-4 26-7c0-4 15-14 33-23 42-20 117-87 117-105 0-7 8-13 19-13 25 0 44-23 30-37-11-11-6-23 40-98 18-30 17-50-5-72-18-19-32-16-39 7-3 11-11 20-17 20s-7-7-3-17c14-34 27-88 32-130 5-41 4-43-21-43-15 0-62 20-106 45s-89 45-101 45-30 7-40 16c-12 11-25 14-36 9-10-5-45-7-78-6-63 2-119-21-132-54-10-28 6-29 56-5 38 17 59 21 89 16 22-3 42-2 44 3 8 23 154-28 212-74 56-44 86-108 46-98-11 3-20 0-20-6s9-11 21-11c14 0 19-6 17-18-4-22 22-102 33-102 15 0 38 68 42 125 2 30 6 57 8 58 33 26 71 47 92 52 26 7 38 25 16 25-15 0-4 72 16 109 8 14 36 50 62 79 41 45 54 54 90 57 35 4 45 0 58-18 14-20 15-19 15 29 0 37-5 56-18 67-24 22-24 22-74-12-52-35-73-58-82-88-5-14-15-23-28-23-17 0-19 4-14 28 4 15 10 39 13 55 3 15 9 27 13 27 5 0 30 20 57 45 26 25 58 48 70 51 14 4 26 19 34 41 12 38 13 38-18 47-17 6-29 1-48-20-15-16-31-24-40-20-19 7-20 36-1 36 17 0 37 23 40 47 2 10 11 20 22 21 10 2 23 8 29 13 19 18 55 10 67-16 13-28 36-33 44-10 10 26 19 17 32-30 13-49 20-53 58-29 21 15 30 15 64 4 37-12 40-11 79 21 47 40 53 70 15 87-29 14-71 7-97-17-17-14-20-14-37 9-14 18-16 29-8 43 5 10 6 37 3 59l-7 41 38-8c48-9 51-11 36-35-19-32-15-35 47-35 58-1 58 0 80 40 27 51 27 91 1 105-23 12-27 40-6 40 24 0 66-59 66-92v-30l48 6c33 5 55 2 76-9 34-18 41-12 51 44 5 27 3 38-11 48-21 15-44 17-44 3 0-5-16-17-35-26-46-21-69-7-54 34 15 39 44 62 79 62 20 0 30 5 30 15 0 8-3 14-7 14-25-4-53 3-53 12 0 6 9 9 20 6 15-4 27 4 46 29 15 19 35 34 46 34 23 0 35-27 19-43-15-15-14-34 4-41 9-3 21 4 30 18 15 22 14 27-6 60-26 44-64 49-105 11-28-26-62-41-72-31-3 3 2 12 11 19 9 6 19 30 23 53 5 37 4 42-17 47-29 8-33 8-91-11zM3435 4020c-11-5-33-11-48-15-15-3-31-13-34-23-3-9-20-32-36-49l-31-33h28c20 0 39-11 63-36 31-33 37-36 59-25 32 14 27 29-17 59-19 13-36 28-38 34-5 15 20 28 57 28 40 0 82 26 82 51 0 15-7 19-32 18-18 0-42-4-53-9zM3756 3983c-8-62 10-85 48-60 39 26 43 57 12 84-40 34-52 29-60-24zM2765 3990c-4-6-1-17 5-25 13-16 11-18-42-29-32-7-37-22-10-30 27-9 96 18 100 38 4 17-24 56-39 56-4 0-11-5-14-10zM1212 3956c-18-7-40-20-49-29-16-16-16-17 2-17 11 0 33 7 50 16 25 13 37 13 73 3 23-6 45-9 49-6 11 11-18 37-41 35-11 0-28 2-36 4-8 3-30 0-48-6zM4232 3935c-31-14-33-17-27-47 10-44 13-46 31-20 9 14 30 24 55 28 33 6 40 10 37 28-4 27-49 32-96 11z" />
    <path
      d="M1360 3927c0-8 19-22 43-33 23-10 56-34 72-54 17-19 42-47 58-62 15-15 25-32 21-41-7-20 64-147 83-147 12 0 14-7 9-35-5-27-4-35 7-35 43 0 34 123-9 134-19 5-24 13-24 40 0 18-11 54-25 79-20 35-30 44-45 40-13-4-20 0-20 9 0 19-34 49-87 78-24 13-43 27-43 32 0 4-9 8-20 8s-20-6-20-13zM3538 3909c-16-10 0-29 25-29 11 0 36-14 54-32 32-31 33-31 53-13 13 12 20 29 18 44-3 24-7 26-71 31-38 3-74 2-79-1zM3054 3852c4-31 3-53-4-57-18-11-11-35 10-35 22 0 100 65 100 84 0 9-26 23-104 55-5 2-6-17-2-47zM3247 3890c-4-8-6-35-5-60s-1-53-6-62c-12-27 23-22 59 7l30 24-32 33c-17 18-33 42-36 53-3 16-5 17-10 5zM4059 3879c-7-4-14-23-16-43-3-32-1-36 21-36 36 0 70 32 62 57-7 22-46 35-67 22z" />
    <path
      d="M1392 3827c31-29 58-63 62-75 9-28 66-61 66-38 0 8-8 17-18 20-10 4-29 24-41 47-22 38-92 99-114 99-5 0 15-24 45-53zM3828 3873c-31-5-53-27-43-43 4-7 16-9 27-6 12 2 27-2 35-10 15-14 59-19 87-8 16 6 22 49 9 57-14 8-87 15-115 10zM1114 3862c-10-6-34-73-34-94 0-13 35-9 54 5 15 11 17 21 11 55-7 43-11 47-31 34zM2534 3845c-4-9-1-28 6-44 6-16 9-39 5-51-6-20-5-22 27-15 51 11 103 56 103 91 0 25-4 29-30 30-16 0-38-3-49-9-12-6-22-5-29 2-15 15-27 14-33-4zM2777 3853c-4-3-7-16-7-29 0-12-16-38-37-58l-38-36 19-34c14-26 16-39 8-53-9-14-6-23 14-44 22-23 29-25 50-15 19 9 24 19 24 49 0 20-4 37-10 37-5 0-19 9-31 21l-20 20 40 44c44 48 47 56 31 86-11 19-31 25-43 12zM3518 3813c-33-39-32-45 6-40 45 6 50 10 41 36-8 26-27 27-47 4zM4847 3823c-3-5 3-19 14-31 15-19 24-22 49-17 16 4 30 11 30 17s-9 8-20 5-30 3-44 14-27 16-29 12zM4182 3772c-41-43-36-62 17-62 34 0 42 4 46 23 7 24-9 78-22 76-5-1-23-17-41-37zM2890 3760c-33-8-35-51-2-65 30-13 31-81 2-118-11-14-20-28-20-31 0-8 43 1 84 17 72 27 115 122 56 122-27 0-100 34-100 47 0 4 15 11 33 16l32 9-30 4c-17 3-41 2-55-1zM3678 3763c-43-5-42-2-26-55 10-35 10-41-5-50-29-16-19-25 36-32 28-4 69-12 90-18 29-9 43-8 65 2 15 7 39 12 54 11 31-3 48 21 48 67 0 33-22 57-44 49-7-3-16-21-20-40s-12-39-19-45c-20-16-77-24-124-17-34 5-43 10-41 23 2 9 12 18 23 20s25 11 32 19c6 8 16 12 22 9 5-4 13 4 17 16 4 15 1 25-12 35-18 13-24 13-96 6zM4018 3738c-3-7-1-30 4-51s5-43 2-49c-8-12 13-28 37-28 23 0 52 47 45 74s-82 73-88 54zM3464 3701c3-20 13-42 23-48 24-18 70-16 77 3 11 28 6 44-13 44-10 0-24 6-30 14s-23 16-37 19c-25 4-26 3-20-32zM3139 3723c-4-34 5-110 13-120 16-20 38-15 38 7 0 11 5 29 12 40 10 16 9 24-8 47-21 27-53 43-55 26z" />
    <path
      d="M3322 3712c-20-15-23-26-20-68 3-46 5-49 33-52 17-2 53-21 82-43 55-41 69-46 75-27 7 21 28-3 28-33 0-32 11-37 34-13 9 8 21 12 27 8 6-3 29-6 52-6 31 1 55-9 109-43 37-25 68-51 68-59 0-23 59-61 73-47 18 18-28 95-84 144-63 54-178 93-271 93-65-1-67 0-72 27s-7 28-53 22c-36-5-53-2-68 9-20 16-19 17 13 45 22 19 30 33 26 44-8 22-23 21-52-1zM4980 3706c0-8 14-26 30-40 24-20 30-32 28-58-3-36 21-50 47-28 13 11 13 15 0 33-8 12-15 29-15 38 0 20-54 69-76 69-8 0-14-6-14-14zM2544 3667c-30-17-74-54-74-61 0-4 17-5 38-2 29 3 42-1 63-20 25-24 26-24 43-5 10 11 16 27 13 34-3 8-1 19 5 25s8 18 5 26c-8 19-62 21-93 3zM1510 3655c0-8 5-15 10-15 6 0 10 7 10 15s-4 15-10 15c-5 0-10-7-10-15zM2275 3636c-16-12-17-16-6-30 11-13 11-19 1-31-23-28-4-45 50-45 47 0 51 2 67 34 19 41 13 63-22 76-36 14-68 12-90-4zM1520 3601c0-20 17-37 27-28 7 8-7 47-18 47-5 0-9-9-9-19zM1570 3571c0-6 5-11 11-11 7 0 9-12 5-35-4-19-3-35 2-35 16 0 34 28 30 46-4 20-48 52-48 35zM5089 3534c-10-12-10-20-1-35 7-10 12-36 12-58s6-46 13-53c18-20 21-35 22-117 1-48 5-76 13-79 7-2 15 3 18 12 8 20 30 21 38 0 3-8 11-12 16-9 8 5 7 11-1 21-7 9-12 37-11 64 1 44-2 49-25 55-21 5-24 10-21 36 3 20 0 33-9 36-8 3-13 21-13 49 0 43-17 94-30 94-4 0-13-7-21-16zM2428 3528c-46-16-32-25 42-27 70-1 88 9 51 29-24 12-57 12-93-2zM1078 3513c-10-3-18-9-18-14 0-15 30-23 43-10 14 14-2 29-25 24zM2623 3498c-16-21-36-78-30-84 3-3 15 1 27 9 16 11 30 13 52 6 17-4 34-6 38-4 10 6 19 56 13 72-7 17-87 17-100 1zM3140 3483c-55-4-69-8-92-32-25-25-84-48-95-37-3 2 0 13 6 25 7 13 8 22 1 26-14 9-59-27-60-47 0-13-8-18-30-18-25 0-30-4-30-23 0-12-13-38-29-57-39-48-54-81-85-181-29-98-32-150-11-229 10-41 23-61 47-80 40-31 70-60 83-84 6-9 18-18 27-20 10-1 28-11 40-23 34-30 78-52 122-61 22-4 41-12 43-17 2-6-20-25-47-44-28-19-50-37-50-40s16-18 35-34c33-27 37-27 97-18 34 6 63 9 64 8s12-26 24-55c22-51 25-54 53-48 47 9 81 30 85 50 5 25-14 36-64 36-41 0-64 13-64 37 0 7 11 13 24 13s37 3 54 6l31 6-29 30c-36 36-63 33-70-7-6-29-6-30-18-8-10 18-18 21-47 16-41-7-44 3-10 35 17 17 38 24 72 26 69 4 252 93 253 123 0 7 20 34 45 60 95 100 127 216 85 308-13 28-29 72-36 99-7 28-22 55-35 64s-30 24-40 35c-9 10-21 23-25 28-16 16-127 99-134 99-4 0-13-12-20-26-18-33-70-54-115-47-39 6-48 23-12 23 14 0 26 9 32 23 8 16 18 22 44 22 19 0 36 5 38 10 4 12-54 36-78 33-8-1-43-3-79-5zm-155-173c10-16-12-37-35-35-28 2-35 12-20 30 14 17 46 20 55 5zM1880 3471c0-14 28-33 40-26 20 12 10 35-15 35-14 0-25-4-25-9zM2220 3461c-53-16-55-18-58-55l-3-38 33 8c32 8 70 9 113 2 28-4 51 46 36 78-13 29-41 30-121 5zM2435 3459c-4-6-5-12-4-13 8-7 69 7 69 15 0 13-57 11-65-2zM988 3430c-18-21-24-38-22-60 10-88 53-86 49 3-2 28 1 60 6 70 15 27-4 20-33-13zM1096 3431c-16-3-31-12-34-18-4-15 14-17 23-3 3 6 29 10 56 10 31 0 48 4 44 10-7 11-43 11-89 1zM1225 3409c-4-5 6-14 22-20 15-6 43-26 61-46s35-33 39-29c9 8-43 62-84 86-19 11-35 15-38 9zM1877 3408c-6-21 4-48 19-48 9 0 14 11 14 30 0 30-24 43-33 18zM2011 3411c-9-6-11-17-6-31 6-19 4-22-11-16-12 5-27-3-51-26-50-48-39-88 16-58 10 5 38 11 63 13s50 7 56 11c14 9 16 56 3 56-5 0-13 9-16 20-8 25-37 41-54 31zM2380 3365c-19-19-34-46-36-62-1-15-4-36-6-46-2-14 7-22 34-31 24-9 69-46 127-106 50-51 91-90 91-88 0 26-28 71-61 97-39 32-50 66-29 87 13 13 2 27-50 57l-44 26 47 21c49 22 57 38 31 64-26 27-67 19-104-19zM2587 3342c-19-21-22-48-6-57 14-9 59 34 59 57 0 24-32 24-53 0zM2158 3287c-43-18-48-23-48-52 0-36 21-59 69-76 27-10 32-16 28-36-5-29 2-34 55-35 23 0 55-9 72-19s39-19 48-19c34 0 188-179 188-218 0-8 8-12 18-10 25 5 19 52-15 103-15 23-65 83-111 133-65 71-92 93-128 105-35 11-54 13-76 5-20-7-33-7-40 0-11 11-9 20 21 67 26 40 25 42-6 58-25 13-33 12-75-6zM3620 3302c0-33 132-104 224-120 29-5 47-17 70-46 21-26 27-40 19-43-23-8-13-23 15-23 15 0 38-7 50-16 29-20 52-11 52 21 0 21-5 25-28 25-22 0-33 8-50 39-12 21-22 48-22 60s-6 21-15 21-38 11-65 25-60 25-74 25c-13 0-43 9-67 20-44 20-109 27-109 12zM4470 3252c0-31 11-52 26-52 20 0 17 18-6 47-19 24-20 24-20 5zM1390 3259c0-3 5-20 11-38 11-32 29-42 29-17 0 13-39 67-40 55zM1945 3197c-61-24-68-32-75-88-4-30-6-56-4-58s15 10 29 27c29 35 85 57 121 48 22-6 24-4 24 28 0 52-33 67-95 43zM5152 3091c5-84-2-132-15-100-3 8-6-12-6-43-1-33 3-58 9-58s10-7 10-15-4-15-10-15c-15 0-12-26 6-41 8-7 13-21 11-31-4-12 5-30 24-49 16-16 29-36 29-45 0-26 27-26 54-1 29 27 33 42 12 54-36 20-77 132-58 156 17 22 25 77 12 92-9 11-9 23-2 44 8 23 7 32-4 42-8 6-14 17-14 24 0 24-32 75-47 75-14 0-15-13-11-89zM4507 3143c-3-5-2-52 2-107 5-82 4-100-9-110-9-6-21-30-28-53s-24-51-38-62-39-37-55-57l-30-38 24-13c19-10 30-10 51 0 14 7 26 18 26 25 0 18 21 52 54 89 21 24 34 54 47 115 23 101 23 138 5 183-14 32-38 46-49 28zM3745 3130c3-5 17-10 31-10s22 4 19 10-17 10-31 10-22-4-19-10zM1742 3101c-20-10-45-37-63-69-31-56-30-70 9-105 19-17 20-17 35 22 9 22 32 52 52 68 37 29 46 68 23 91-14 14-14 14-56-7zM2070 3045c0-30 4-55 9-55 14 0 61 64 61 82 0 17-20 28-51 28-16 0-19-7-19-55zM1924 3026c-15-11-20-23-16-45 2-17 10-31 18-31 7 0 29-8 49-17 19-9 38-14 41-10 11 11 13 80 3 99-12 22-66 24-95 4zM3675 3008c4-18 7-49 6-68-2-43 19-58 104-76 71-16 85-17 85-6s-71 49-108 57c-43 9-58 37-32 60 11 10 27 15 37 12 157-46 273-113 273-159 0-10 4-18 10-18 5 0 31-15 57-34 27-18 54-31 61-29 19 7 14 48-8 68-11 10-20 24-20 30 0 17-29 40-49 40-11 0-15 8-13 26 2 19-3 28-23 37-14 7-33 12-41 12s-22 4-32 9c-41 23-171 55-214 53-26 0-50 3-53 8-4 6-15 10-27 10-18 0-20-4-13-32zM1290 2920c43-38 70-50 70-31 0 11-89 71-104 71-6 0 9-18 34-40zM927 2924c-16-17 45-104 74-104 10 0 19 6 19 14 0 29-20 66-35 66-9 0-18 7-21 15-6 15-26 20-37 9zM1806 2913l-30-16 30-23c35-28 53-30 60-6 3 9 9 24 14 34 6 11 4 18-6 22-23 9-36 7-68-11zM1922 2836c1-31 7-51 20-62 10-10 18-15 19-13 0 2 1 29 2 59 1 49-1 55-20 58s-21-1-21-42zM1578 2838c-17-26-18-42-3-43 30-3 51-25 77-83 16-36 39-73 51-83 31-24 12-37-24-16-38 21-73 22-90 1-11-13-10-17 4-25 9-6 17-19 17-30s11-24 24-31c22-9 28-7 51 21 26 31 67 42 80 21s36-9 42 20c3 17 15 37 27 45 38 28 116 13 147-27 19-25 49-18 49 11 0 20-43 41-86 41-17 0-25 7-30 25l-6 26-37-22c-22-13-60-23-99-27l-64-5 4 29c3 28 5 29 50 27 38-1 48 2 53 18 7 22-8 54-31 63-22 8-54-2-54-18 0-7-6-21-14-31-12-16-16-17-30-6-9 7-16 28-16 45 0 37-7 49-37 65-31 16-39 14-55-11z" />
    <path
      d="M3900 2854c0-7 66-34 85-34 26 0 16 18-16 29-34 12-69 15-69 5zM3605 2796c-19-28-22-101-6-120 8-9 23-16 34-16s29-8 39-17c17-15 20-15 35-1 14 15 12 19-31 45-46 29-50 43-14 43 10 0 26 5 36 11 15 10 27 7 63-14 66-37 87-42 110-21 10 9 20 15 22 13s11-17 21-32c16-26 20-27 75-22 41 4 62 1 77-10 10-8 26-15 34-15s20-8 27-19c6-10 29-28 52-39 22-12 66-41 98-66s73-49 92-52l33-7-15 29c-50 93-74 116-176 170-56 30-109 54-118 54-8 0-48 12-87 26-91 34-167 51-289 68-96 12-99 12-112-8zM2613 2794c-3-9 12-73 35-142 22-70 45-147 52-171 7-28 18-45 31-48 19-5 23-14 20-45-2-15 7-72 23-143 14-65 42-133 65-156 30-29 131-64 160-54 11 3 22 1 26-5 3-5 15-10 26-10 14 0 19 7 19 25 0 20-7 26-42 35-54 14-88 36-88 55 0 11 7 14 23 10 12-3 29-1 37 4 20 13 2 63-27 76-33 14-48 53-28 75 25 27 9 50-35 50-43 0-43 3-6-99 20-55 20-90 1-98-22-8-25-3-34 53-4 27-19 69-33 94s-31 61-37 81-20 53-31 74c-11 22-20 48-20 59s-22 72-49 135c-27 64-52 126-56 139-7 26-23 29-32 6z" />
    <path
      d="M2744 2685c6-53 13-82 23-98 4-6 8-17 9-24s18-39 38-71c20-33 36-67 36-76 0-19 1-19 65 2 43 15 50 21 53 46 3 26 1 28-21 22-13-3-27-2-31 2s-15 7-24 7c-11 0-18 10-20 28-2 19-9 27-22 27-24 0-50 37-50 72 0 16-8 36-17 46-10 10-24 27-31 38-11 17-12 14-8-21zM1533 2693c-28-5-31-38-5-52 14-8 24-4 45 18 35 38 25 47-40 34zM3740 2650c-12-8-12-10 3-16 20-7 47 1 47 16 0 12-30 13-50 0zM3810 2619c0-16 7-19 45-19 26 0 58-6 73-14 15-7 56-19 92-25 36-7 73-14 83-17 9-3 17-1 17 5s-6 11-14 11-61 15-118 34c-56 19-120 37-140 39-33 5-38 3-38-14zM2447 2623c-4-3-7-17-7-31 0-21 4-23 24-18 14 3 28 2 31-4 9-15 25-12 25 4 0 8-12 24-26 35-28 22-37 25-47 14zM2337 2593c-55-42-72-71-72-128 0-55 4-52-78-54-34-1-40-5-53-37-11-26-12-39-4-49s8-15-1-21c-16-10-47 29-54 70-4 18-2 48 2 67 9 31 13 34 46 34 45 0 48 16 9 44-27 19-30 19-65 3-29-13-37-22-37-43 0-34-9-59-21-59-5 0-9 10-9 21 0 20-4 21-41 16-55-7-68-21-44-47 25-28 9-45-30-30-16 6-32 7-37 2-15-15 3-41 38-52 19-6 34-15 34-20 0-7 36-21 65-25 6-1 18-5 28-10 12-5 25-1 38 11 19 17 23 17 47 3 32-17 41-48 18-61-25-14-19-28 11-28 16 0 39 11 55 27 24 23 30 25 39 13 5-8 7-34 4-57-6-43 1-53 22-32 9 9 18 8 37-5 21-13 24-21 19-46-4-23-2-30 10-30 9 0 18 4 22 10 8 14-25 111-37 104-19-12-38 19-38 65 0 58 12 71 68 71 50 0 53-15 7-40-41-23-41-37-1-56 42-21 66-8 66 37 0 15 7 35 16 44 15 15 15 19-1 49-12 21-16 47-14 78 3 35 1 44-8 36-7-5-13-28-15-51-4-52-23-58-45-13-9 20-22 36-29 36s-16 9-19 20c-8 24 27 75 80 117 60 48 34 62-28 16zm-89-233c23 0 12-25-22-52-43-35-54-35-62-3-8 33 21 69 51 61 11-3 26-6 33-6zM1862 2557c-6-7-16-25-21-41-11-26-13-27-64-21-69 8-93-7-75-47 18-38 70-39 94-3 10 15 26 25 40 25 18 0 25 7 30 28 13 52 22 56 97 35 12-3 17 1 17 16 0 19-6 21-54 21-31 0-58-5-64-13z" />
    <path
      d="M2362 2527c-23-23-42-51-42-61 0-14 8-7 29 21 16 22 41 50 56 61 16 13 22 22 13 22-7 0-33-19-56-43zM3630 2470c0-5 9-10 19-10 11 0 23 5 26 10 4 6-5 10-19 10s-26-4-26-10zM3730 2453c8-2 31-12 50-20 45-21 126-30 116-14-4 6-17 11-29 11s-40 7-62 15-51 14-65 14-18-3-10-6zM3040 2401c0-10 6-24 14-30 19-16 66 6 66 31 0 14-8 18-40 18s-40-4-40-19zM4030 2380l-25-7 28-12c16-6 32-11 36-11 5 0 14-7 21-15 7-9 28-15 49-14 21 0 30 3 21 7-8 4-34 19-57 35-24 15-44 27-45 26-2-1-14-4-28-9zM3210 2346c0-7 9-25 20-39 24-30 25-39 5-77-14-27-14-30 10-54 17-17 25-36 25-59 0-19 6-39 13-44 15-13 110-31 202-39 39-3 89-13 112-21 25-9 57-13 78-10 27 5 37 2 45-12 5-10 25-22 45-25 20-4 70-18 113-33 85-28 208-54 262-57 20-1 55-14 80-30 28-18 57-29 78-29 17 1 32-2 32-6 0-6 58-31 73-31 4 0 7 9 7 20 0 23-44 55-65 46-9-3-24 3-35 14s-31 20-44 20c-14 0-31 7-40 15-8 8-30 15-49 15s-54 9-78 20-55 20-68 20c-14 0-45 10-70 23-35 17-64 22-118 22-44 0-73 4-73 10 0 12-38 27-110 45-25 6-62 18-83 27-36 15-40 15-67 0-50-30-181-16-205 23-12 19 9 32 36 22 31-12 79 11 79 38 0 21-17 34-90 73-60 32-63 53-9 60 46 6 65 19 54 37-5 8-21 10-43 7-21-4-45-1-63 8-35 19-59 19-59 1zM3066 2313c-3-8-6-28-6-44 0-25 4-29 29-29 16 0 39 9 52 19 21 17 22 21 9 34-8 8-29 19-47 25-26 8-33 8-37-5zM4240 2305c7-8 17-15 22-15 6 0 5 7-2 15s-17 15-22 15c-6 0-5-7 2-15zM2430 2231c0-11 5-23 10-26 6-3 10-13 10-21 0-10-12-14-40-14-39 0-40-1-40-35 0-28 4-35 20-35 27 0 25-9-11-53-33-41-34-55-1-38 26 14 62 14 62 1 0-19 21-10 32 15 12 27 44 33 78 15 18-10 51-4 49 9 0 3-16 19-35 35-33 27-35 27-59 12-13-9-29-16-35-16-15 0-12 63 5 86 28 37 13 84-27 84-11 0-18-7-18-19zM3746 2212c-3-6-1-14 5-17 15-10 25 3 12 16-7 7-13 7-17 1zM3077 2203c-2-5-7-25-11-45-7-36-6-38 21-38 15 0 45-3 66-7 38-6 39-5 35 23-2 23-12 34-48 51-50 25-57 26-63 16zM3865 2175c17-8 43-14 60-15 46 0 16 18-40 24-49 6-50 6-20-9zM4065 2140c3-5 13-10 21-10s12 5 9 10c-3 6-13 10-21 10s-12-4-9-10zM2523 1997c-35-11-43-31-17-41 12-5 15-14 10-40-7-37 9-60 21-29 15 40 72 46 98 11l17-23-7 25c-11 38-26 51-54 48-22-3-27 2-31 27-5 30-6 31-37 22zM2398 1965c-3-3-3-17 0-31 4-25 5-25 19-4 8 11 21 20 29 20s14 5 14 10c0 10-52 14-62 5zM2582 1841c2-7 7-12 11-12 12 1 9 15-3 20-7 2-11-2-8-8zM3277 1777c-12-12-34-31-50-40-52-34-140-158-152-216-2-9-9-29-15-46-15-36-21-75-12-75 4 0 13-4 20-9 11-7 8-19-13-62-23-45-27-61-22-108 3-30 10-57 14-60s9-13 11-21c19-99 165-258 238-259 10-1 47-3 82-6 66-5 102 5 102 30 0 8 10 21 23 30 15 12 18 19 10 22s-13 24-13 53c0 57-15 77-68 85-111 17-162 51-163 107 0 18-4 42-8 53-5 11-4 29 2 39 5 11 10 34 11 51 0 18 6 38 12 46s28 46 49 84c20 39 56 89 79 111 56 56 70 74 76 98 3 11 17 23 30 26 14 3 26 14 28 24 3 16 0 18-19 11-13-4-37-8-53-10-16-1-33-9-38-18-5-10-15-17-23-17-14 0-79-73-132-150-17-25-41-81-53-125-24-85-35-211-19-220 5-4 9-15 9-25s25-41 55-68c54-47 69-57 128-81 34-13 31-30-9-53-27-16-32-16-81 2-62 22-137 94-166 159-25 58-33 155-17 222 21 91 70 202 104 239 17 19 39 48 47 64 16 33 53 72 93 99 15 11 25 21 23 24-3 2-26 6-51 8-39 4-51 1-69-18zM4460 1770c-8-5-12-11-10-13 13-11 161-59 166-54 15 14-7 35-44 40-22 4-45 14-52 22-14 17-38 19-60 5zM3745 1731c-40-24-100-114-129-192-44-119-51-154-51-247 0-92 0-93 32-117 18-14 34-39 38-56 10-45 84-112 140-127 78-21 117-16 166 22 68 52 91 107 58 143-18 18-33 23-75 23-45 0-59 5-88 30-51 45-60 83-41 165 8 36 15 77 15 90 0 16 9 28 27 37 15 7 30 25 34 41 4 15 19 41 33 58 28 33 31 44 16 54-11 7-64-47-86-87-8-15-21-31-31-36-21-12-53-114-53-171 0-73 20-120 77-177 36-37 63-55 88-60 26-5 35-11 33-23-3-13-15-16-60-15-79 1-156 51-194 125-23 47-25 59-20 138 3 47 6 87 7 89 1 1 2 5 3 10 7 29 22 61 40 87 24 34 56 102 56 119 0 6 9 17 20 24 22 14 26 42 8 60-16 16-28 15-63-7zM4167 1639c-23-14-50-69-77-159-27-89-24-207 6-225 40-24 90-68 96-85 6-16 22-21 98-34 26-4 60 9 72 28 4 6 17 11 29 11 13 0 34 15 52 37 28 35 29 39 17 69-9 20-27 38-54 51-98 47-89 30-83 151 2 59 1 107-4 107s-6-6-3-13c2-7-7-23-21-35-28-25-35-71-21-137 3-11 5-28 5-38 1-10 24-42 51-71 28-29 50-56 50-59 0-14-34-6-95 24-54 26-66 36-80 72-21 53-23 132-5 220 12 58 12 69-1 82-10 10-19 11-32 4zM5880 2500c0-35 12-38 40-10s25 40-10 40c-27 0-30-3-30-30zM966 1068c-19-61-13-86 13-54 6 7 22 11 36 8 26-4 32 9 19 42-7 19-63 22-68 4zM1046 994c-9-24-8-26 16-22 29 4 38 38 10 38-11 0-23-7-26-16z" />
  </g>
</svg>