<?xml version="1.0" encoding="UTF-8" standalone="no"?>
<svg width="500" height="850" version="1.1" id="svg6" sodipodi:docname="uni0308.svg" inkscape:version="1.4.3 (0d15f750, 2025-12-25)" xmlns:inkscape="http://www.inkscape.org/namespaces/inkscape" xmlns:sodipodi="http://sodipodi.sourceforge.net/DTD/sodipodi-0.dtd" xmlns="http://www.w3.org/2000/svg" xmlns:svg="http://www.w3.org/2000/svg">
    <defs id="defs6" />
    <sodipodi:namedview id="namedview6" pagecolor="#ffffff" bordercolor="#000000" borderopacity="0.25" inkscape:showpageshadow="2" inkscape:pageopacity="0.0" inkscape:pagecheckerboard="0" inkscape:deskcolor="#d1d1d1" inkscape:zoom="3.5466667" inkscape:cx="-250.09398" inkscape:cy="312.40601" inkscape:window-width="1440" inkscape:window-height="751" inkscape:window-x="0" inkscape:window-y="25" inkscape:window-maximized="0" inkscape:current-layer="svg6" />
    <path id="path5" d="M -275 300 A 12.5 12.5 0 0 0 -287.5 312.5 A 12.5 12.5 0 0 0 -275 325 A 12.5 12.5 0 0 0 -262.5 312.5 A 12.5 12.5 0 0 0 -275 300 z M -225 300 A 12.5 12.5 0 0 0 -237.5 312.5 A 12.5 12.5 0 0 0 -225 325 A 12.5 12.5 0 0 0 -212.5 312.5 A 12.5 12.5 0 0 0 -225 300 z " />
</svg>
