<svg width="500" height="850" xmlns="http://www.w3.org/2000/svg">
    <path
        d="M 50 400 A 25 25 0 0 0 25 425 A 25 25 0 0 0 50 450 L 450 450 A 25 25 0 0 0 475 425 A 25 25 0 0 0 450 400 L 50 400 z " />
    <path
        d="m 90.900974,548.74369 a 25,25 0 0 0 0,35.35534 25,25 0 0 0 35.355336,0 L 409.09903,301.25631 a 25,25 0 0 0 0,-35.35534 25,25 0 0 0 -35.35534,0 z" />
    <path
        d="m 126.25631,265.90097 a 25,25 0 0 0 -35.355336,0 25,25 0 0 0 0,35.35534 L 373.74369,584.09903 a 25,25 0 0 0 35.35534,0 25,25 0 0 0 0,-35.35534 z" />
</svg>