<?xml version="1.0" encoding="UTF-8" standalone="no"?>
<svg width="500" height="850" version="1.1" id="svg2" sodipodi:docname="uni0024.svg" inkscape:version="1.4.3 (0d15f750, 2025-12-25)" xmlns:inkscape="http://www.inkscape.org/namespaces/inkscape" xmlns:sodipodi="http://sodipodi.sourceforge.net/DTD/sodipodi-0.dtd" xmlns="http://www.w3.org/2000/svg" xmlns:svg="http://www.w3.org/2000/svg">
    <defs id="defs2" />
    <sodipodi:namedview id="namedview2" pagecolor="#ffffff" bordercolor="#000000" borderopacity="0.25" inkscape:showpageshadow="2" inkscape:pageopacity="0.0" inkscape:pagecheckerboard="0" inkscape:deskcolor="#d1d1d1" inkscape:zoom="0.3484399" inkscape:cx="261.16412" inkscape:cy="424.75044" inkscape:window-width="930" inkscape:window-height="723" inkscape:window-x="0" inkscape:window-y="25" inkscape:window-maximized="0" inkscape:current-layer="svg2" />
    <path id="path7" d="M 108.57812 258.57812 A 25 25 0 0 0 90.900391 265.90039 A 25 25 0 0 0 90.900391 301.25586 L 182.32227 392.67773 A 75 75 0 0 1 217.67773 357.32227 L 126.25586 265.90039 A 25 25 0 0 0 108.57812 258.57812 z M 391.42188 258.57812 A 25 25 0 0 0 373.74414 265.90039 L 282.32227 357.32227 A 75 75 0 0 1 317.67773 392.67773 L 409.09961 301.25586 A 25 25 0 0 0 409.09961 265.90039 A 25 25 0 0 0 391.42188 258.57812 z M 182.32227 457.32227 L 90.900391 548.74414 A 25 25 0 0 0 90.900391 584.09961 A 25 25 0 0 0 126.25586 584.09961 L 217.67773 492.67773 A 75 75 0 0 1 182.32227 457.32227 z M 317.67773 457.32227 A 75 75 0 0 1 282.32227 492.67773 L 373.74414 584.09961 A 25 25 0 0 0 409.09961 584.09961 A 25 25 0 0 0 409.09961 548.74414 L 317.67773 457.32227 z " />
    <path d="M 250 300 A 125 125 0 0 0 125 425 A 125 125 0 0 0 250 550 A 125 125 0 0 0 375 425 A 125 125 0 0 0 250 300 z M 250 350 A 75 75 0 0 1 325 425 A 75 75 0 0 1 250 500 A 75 75 0 0 1 175 425 A 75 75 0 0 1 250 350 z "/>
</svg>