<svg width="500" height="850" xmlns="http://www.w3.org/2000/svg">
    <path
        d="M 250 200 A 225 225 0 0 0 25 425 A 225 225 0 0 0 250 650 A 225 225 0 0 0 475 425 A 225 225 0 0 0 250 200 z M 250 250 A 175 175 0 0 1 425 425 A 175 175 0 0 1 250 600 A 175 175 0 0 1 75 425 A 175 175 0 0 1 250 250 z " />
    <path
        d="M 250 300 A 125 125 0 0 0 125 425 A 125 125 0 0 0 250 550 A 125 125 0 0 0 375 425 A 125 125 0 0 0 250 300 z M 250 350 A 75 75 0 0 1 325 425 A 75 75 0 0 1 250 500 A 75 75 0 0 1 175 425 A 75 75 0 0 1 250 350 z " />
    <path
        d="m 126.25631,265.90097 a 25,25 0 0 0 -35.355336,0 25,25 0 0 0 0,35.35534 L 373.74369,584.09903 a 25,25 0 0 0 35.35534,0 25,25 0 0 0 0,-35.35534 z" />
</svg>