<svg width="500" height="850" xmlns="http://www.w3.org/2000/svg">
    <path
        d="M 250 200 A 225 225 0 0 0 90.900391 265.90039 A 25 25 0 0 0 83.578125 283.57812 A 25 25 0 0 0 108.57812 308.57812 A 25 25 0 0 0 126.25586 301.25586 A 175 175 0 0 1 250 250 A 175 175 0 0 1 425 425 A 175 175 0 0 1 250 600 A 175 175 0 0 1 126.25586 548.74414 A 25 25 0 0 0 108.57812 541.42188 A 25 25 0 0 0 83.578125 566.42188 A 25 25 0 0 0 90.900391 584.09961 A 225 225 0 0 0 250 650 A 225 225 0 0 0 475 425 A 225 225 0 0 0 250 200 z " />
    <path
        d="m 126.25631,265.90097 a 25,25 0 0 0 -35.355336,0 25,25 0 0 0 0,35.35534 L 373.74369,584.09903 a 25,25 0 0 0 35.35534,0 25,25 0 0 0 0,-35.35534 z" />
</svg>