<svg width="500" height="850" xmlns="http://www.w3.org/2000/svg">
    <path
        d="M 250 200 C 125.73593 200 25 300.73593 25 425 C 25 549.26407 125.73593 650 250 650 C 374.26407 650 475 549.26407 475 425 C 475 411.19288 463.80712 400 450 400 C 436.19288 400 425 411.19288 425 425 C 425 521.64983 346.64983 600 250 600 C 153.35017 600 75 521.64983 75 425 C 75 328.35017 153.35017 250 250 250 C 263.80712 250 275 238.80712 275 225 C 275 211.19288 263.80712 200 250 200 z " />
    <path
        d="m 126.25631,265.90097 a 25,25 0 0 0 -35.355336,0 25,25 0 0 0 0,35.35534 L 373.74369,584.09903 a 25,25 0 0 0 35.35534,0 25,25 0 0 0 0,-35.35534 z" />
    <path
        d="M 250 300 A 125 125 0 0 0 125 425 A 125 125 0 0 0 250 550 A 125 125 0 0 0 375 425 A 125 125 0 0 0 250 300 z M 250 350 A 75 75 0 0 1 325 425 A 75 75 0 0 1 250 500 A 75 75 0 0 1 175 425 A 75 75 0 0 1 250 350 z " />
</svg>