<?xml version="1.0" encoding="UTF-8" standalone="no"?>
<svg width="500" height="850" version="1.1" id="svg6" sodipodi:docname="uni032d.svg" inkscape:version="1.4.3 (0d15f750, 2025-12-25)" xmlns:inkscape="http://www.inkscape.org/namespaces/inkscape" xmlns:sodipodi="http://sodipodi.sourceforge.net/DTD/sodipodi-0.dtd" xmlns="http://www.w3.org/2000/svg" xmlns:svg="http://www.w3.org/2000/svg">
    <defs id="defs6" />
    <sodipodi:namedview id="namedview6" pagecolor="#ffffff" bordercolor="#000000" borderopacity="0.25" inkscape:showpageshadow="2" inkscape:pageopacity="0.0" inkscape:pagecheckerboard="0" inkscape:deskcolor="#d1d1d1" inkscape:zoom="0.62588235" inkscape:cx="249.24812" inkscape:cy="425" inkscape:window-width="1440" inkscape:window-height="751" inkscape:window-x="0" inkscape:window-y="25" inkscape:window-maximized="0" inkscape:current-layer="svg6" />
    <path id="path5" d="M -250 500 A 12.5 12.5 0 0 0 -262.5 512.5 A 12.5 12.5 0 0 0 -250 525 A 12.5 12.5 0 0 0 -237.5 512.5 A 12.5 12.5 0 0 0 -250 500 z M -275 525 A 12.5 12.5 0 0 0 -287.5 537.5 A 12.5 12.5 0 0 0 -275 550 A 12.5 12.5 0 0 0 -262.5 537.5 A 12.5 12.5 0 0 0 -275 525 z M -225 525 A 12.5 12.5 0 0 0 -237.5 537.5 A 12.5 12.5 0 0 0 -225 550 A 12.5 12.5 0 0 0 -212.5 537.5 A 12.5 12.5 0 0 0 -225 525 z " />
</svg>
