<svg width="500" height="650" xmlns="http://www.w3.org/2000/svg">
   <path d="M 50 100 A 25 25 0 0 0 32.412109 107.32227 L 32.322266 107.32227 L 32.322266 107.41211 A 25 25 0 0 0 25 125 A 25 25 0 0 0 32.322266 142.58789 L 32.322266 142.67773 L 354.38086 464.73633 A 175 175 0 0 1 250 500 L 0 500 A 25 25 0 0 0 -25 525 A 25 25 0 0 0 0 550 L 250 550 A 225 225 0 0 0 390.10547 500.46094 L 432.32227 542.67773 L 432.41211 542.67773 A 25 25 0 0 0 450 550 A 25 25 0 0 0 467.58789 542.67773 L 467.67773 542.67773 L 467.67773 542.58789 A 25 25 0 0 0 475 525 A 25 25 0 0 0 467.67773 507.32227 L 425.46094 465.10547 A 225 225 0 0 0 475 325 L 475 125 A 25 25 0 0 0 450 100 A 25 25 0 0 0 425 125 L 425 325 A 175 175 0 0 1 389.73633 429.38086 L 67.677734 107.32227 A 25 25 0 0 0 50 100 z "/>
</svg>