<svg width="500" height="650" xmlns="http://www.w3.org/2000/svg">
    <path
        d="m 450,100 a 25,25 0 0 1 25,25 V 325 A 225,225 0 0 1 250,550 225,225 0 0 1 26.39258,350 H 0 c -13.80712,0 -25,-11.19288 -25,-25 0,-13.80712 11.19288,-25 25,-25 h 25 v -75 c 0,-69.03559 55.96441,-125 125,-125 69.03559,0 125,55.96441 125,125 0,69.03559 -55.96441,125 -125,125 H 76.79492 A 175,175 0 0 0 250,500 175,175 0 0 0 425,325 V 125 a 25,25 0 0 1 25,-25 z m -300,50 c -41.42136,0 -75,33.57864 -75,75 v 75 h 75 c 41.42136,0 75,-33.57864 75,-75 0,-41.42136 -33.57864,-75 -75,-75 z" />
    <path
        d="M 50 100 A 25 25 0 0 0 32.412109 107.32227 L 32.322266 107.32227 L 32.322266 107.41211 A 25 25 0 0 0 25 125 A 25 25 0 0 0 32.322266 142.58789 L 32.322266 142.67773 L 432.32227 542.67773 L 432.41211 542.67773 A 25 25 0 0 0 450 550 A 25 25 0 0 0 467.58789 542.67773 L 467.67773 542.67773 L 467.67773 542.58789 A 25 25 0 0 0 475 525 A 25 25 0 0 0 467.67773 507.32227 L 67.677734 107.32227 A 25 25 0 0 0 50 100 z " />
</svg>