<?xml version="1.0" encoding="UTF-8" standalone="no"?>
<svg width="500" height="650" version="1.1" id="svg3" sodipodi:docname="uni0050.fina.svg" inkscape:version="1.4.4 (dcaf3e7d, 2026-05-05)" xmlns:inkscape="http://www.inkscape.org/namespaces/inkscape" xmlns:sodipodi="http://sodipodi.sourceforge.net/DTD/sodipodi-0.dtd" xmlns="http://www.w3.org/2000/svg" xmlns:svg="http://www.w3.org/2000/svg">
    <defs id="defs3" />
    <sodipodi:namedview id="namedview3" pagecolor="#ffffff" bordercolor="#000000" borderopacity="0.25" inkscape:showpageshadow="2" inkscape:pageopacity="0.0" inkscape:pagecheckerboard="0" inkscape:deskcolor="#d1d1d1" inkscape:zoom="1.066" inkscape:cx="250" inkscape:cy="224.67167" inkscape:window-width="1095" inkscape:window-height="752" inkscape:window-x="0" inkscape:window-y="25" inkscape:window-maximized="0" inkscape:current-layer="svg3" />
    <path id="path1" d="M 250 100 A 225 225 0 0 0 26.392578 300 L 0 300 C -13.807119 300 -25 311.19288 -25 325 C -25 338.80712 -13.807119 350 0 350 L 26.392578 350 A 225 225 0 0 0 250 550 L 450 550 A 25 25 0 0 0 475 525 A 25 25 0 0 0 450 500 L 250 500 A 175 175 0 0 1 76.794922 350 L 250 350 C 319.03559 350 375 294.03559 375 225 C 375 196.85985 365.70199 170.89151 350.00977 150 L 450 150 A 25 25 0 0 0 475 125 A 25 25 0 0 0 450 100 L 250 100 z M 250 150 C 291.42136 150 325 183.57864 325 225 C 325 266.42136 291.42136 300 250 300 L 76.794922 300 A 175 175 0 0 1 250 150 z " />
</svg>
