<svg width="500" height="650" xmlns="http://www.w3.org/2000/svg">
    <path
        d="M 50 100 A 25 25 0 0 0 32.412109 107.32227 L 32.322266 107.32227 L 32.322266 107.41211 A 25 25 0 0 0 25 125 A 25 25 0 0 0 32.322266 142.58789 L 32.322266 142.67773 L 145.7207 256.07617 A 125 125 0 0 0 127.52539 300 L 50 300 L 50 300.38086 A 25 25 0 0 0 25 325 A 25 25 0 0 0 50 349.61914 L 50 350 L 127.52539 350 A 125 125 0 0 0 145.7207 393.92383 L 32.322266 507.32227 A 25 25 0 0 0 25 525 A 25 25 0 0 0 32.322266 542.58789 L 32.322266 542.67773 L 32.412109 542.67773 A 25 25 0 0 0 50 550 A 25 25 0 0 0 67.587891 542.67773 L 67.677734 542.67773 L 181.07617 429.2793 A 125 125 0 0 0 250 450 A 125 125 0 0 0 318.92383 429.2793 L 432.32227 542.67773 L 432.41211 542.67773 A 25 25 0 0 0 450 550 A 25 25 0 0 0 467.58789 542.67773 L 467.67773 542.67773 L 467.67773 542.58789 A 25 25 0 0 0 475 525 A 25 25 0 0 0 467.67773 507.32227 L 354.2793 393.92383 A 125 125 0 0 0 372.47461 350 L 450 350 L 450 349.61914 A 25 25 0 0 0 475 325 A 25 25 0 0 0 450 300.38086 L 450 300 L 372.47461 300 A 125 125 0 0 0 354.2793 256.07617 L 467.67773 142.67773 L 467.67773 142.58789 A 25 25 0 0 0 475 125 A 25 25 0 0 0 467.67773 107.41211 L 467.67773 107.32227 L 467.58789 107.32227 A 25 25 0 0 0 450 100 A 25 25 0 0 0 432.32227 107.32227 L 318.92383 220.7207 A 125 125 0 0 0 250 200 A 125 125 0 0 0 181.07617 220.7207 L 67.677734 107.32227 A 25 25 0 0 0 50 100 z M 250 250 A 75 75 0 0 1 285.67773 259.21484 A 75 75 0 0 1 290.06055 261.6875 A 75 75 0 0 1 294.29492 264.67969 A 75 75 0 0 1 298.30273 267.72461 A 75 75 0 0 1 302.07031 271.25 A 75 75 0 0 1 305.64258 274.82227 A 75 75 0 0 1 308.90234 278.83984 A 75 75 0 0 1 311.94336 282.84375 A 75 75 0 0 1 314.62695 287.26758 A 75 75 0 0 1 317.10742 291.66602 A 75 75 0 0 1 320.71094 300 L 179.28906 300 A 75 75 0 0 1 182.89258 291.66602 A 75 75 0 0 1 185.37305 287.26758 A 75 75 0 0 1 188.05664 282.84375 A 75 75 0 0 1 191.09766 278.83984 A 75 75 0 0 1 194.35742 274.82227 A 75 75 0 0 1 197.92969 271.25 A 75 75 0 0 1 201.69727 267.72461 A 75 75 0 0 1 205.70508 264.67969 A 75 75 0 0 1 209.93945 261.6875 A 75 75 0 0 1 214.32227 259.21484 A 75 75 0 0 1 250 250 z M 179.28906 350 L 225 350 L 225 395.71094 A 75 75 0 0 1 217.00195 392.29688 A 75 75 0 0 1 211.59961 389.25 A 75 75 0 0 1 208.43164 387.39062 A 75 75 0 0 1 202.46875 382.86133 A 75 75 0 0 1 200.58594 381.40625 A 75 75 0 0 1 193.59375 374.41406 A 75 75 0 0 1 192.13867 372.53125 A 75 75 0 0 1 187.60938 366.56836 A 75 75 0 0 1 185.75 363.40039 A 75 75 0 0 1 182.70312 357.99805 A 75 75 0 0 1 179.28906 350 z M 275 350 L 320.71094 350 A 75 75 0 0 1 317.29688 357.99805 A 75 75 0 0 1 314.25 363.40039 A 75 75 0 0 1 312.39062 366.56836 A 75 75 0 0 1 307.86133 372.53125 A 75 75 0 0 1 306.40625 374.41406 A 75 75 0 0 1 299.41406 381.40625 A 75 75 0 0 1 297.53125 382.86133 A 75 75 0 0 1 291.56836 387.39062 A 75 75 0 0 1 288.40039 389.25 A 75 75 0 0 1 282.99805 392.29688 A 75 75 0 0 1 275 395.71094 L 275 350 z " />
</svg>