<svg width="500" height="650" xmlns="http://www.w3.org/2000/svg">
   <path d="M 250 100 A 25 25 0 0 0 246.44141 100.25391 L 246.43945 100.25391 L 246.4375 100.25586 A 225 225 0 0 0 25 325 L 25 425 A 125 125 0 0 0 46.066406 494.44531 A 125 125 0 0 0 50.625 500 L 0 500 A 25 25 0 0 0 -25 525 A 25 25 0 0 0 0 550 L 500 550 A 25 25 0 0 0 525 525 A 25 25 0 0 0 500 500 L 150 500 A 75 75 0 0 1 131.86523 497.61328 A 75 75 0 0 1 126.25586 495.65039 A 75 75 0 0 1 114.8125 490.9082 A 75 75 0 0 1 108.9375 487.21875 A 75 75 0 0 1 99.835938 480.23438 A 75 75 0 0 1 94.765625 475.16406 A 75 75 0 0 1 87.78125 466.0625 A 75 75 0 0 1 84.091797 460.1875 A 75 75 0 0 1 79.349609 448.74414 A 75 75 0 0 1 77.386719 443.13477 A 75 75 0 0 1 75 425 L 75 325 A 175 175 0 0 1 77.533203 296.04688 A 175 175 0 0 1 79.761719 286.76562 A 175 175 0 0 1 84.818359 267.89648 A 175 175 0 0 1 89.158203 257.41602 A 175 175 0 0 1 96.65625 241.33789 A 175 175 0 0 1 102.94922 231.06641 A 175 175 0 0 1 112.75195 217.06641 A 175 175 0 0 1 120.74609 207.70703 A 175 175 0 0 1 132.70703 195.74609 A 175 175 0 0 1 142.06641 187.75195 A 175 175 0 0 1 156.06641 177.94922 A 175 175 0 0 1 166.33789 171.65625 A 175 175 0 0 1 182.41602 164.1582 A 175 175 0 0 1 192.89648 159.81836 A 175 175 0 0 1 211.76562 154.76172 A 175 175 0 0 1 221.04688 152.5332 A 175 175 0 0 1 250 150 L 450 150 A 25 25 0 0 0 475 125 A 25 25 0 0 0 450 100 L 250 100 z "/>
</svg>