<svg width="500" height="900" xmlns="http://www.w3.org/2000/svg">
    <path
        d="M 108.57812 283.57812 C 102.18007 283.57812 95.781943 286.01884 90.900391 290.90039 C 81.137282 300.6635 81.137284 316.49275 90.900391 326.25586 L 161.61133 396.9668 C 171.37444 406.72991 187.20369 406.72991 196.9668 396.9668 C 206.72991 387.20369 206.72991 371.37444 196.9668 361.61133 L 126.25586 290.90039 C 121.3743 286.01884 114.97618 283.57812 108.57812 283.57812 z M 391.42188 283.57812 C 385.02382 283.57812 378.6257 286.01884 373.74414 290.90039 L 303.0332 361.61133 C 293.27009 371.37444 293.27009 387.20369 303.0332 396.9668 C 312.79631 406.72991 328.62556 406.72991 338.38867 396.9668 L 409.09961 326.25586 C 418.86272 316.49275 418.86272 300.6635 409.09961 290.90039 C 404.21805 286.01884 397.81993 283.57812 391.42188 283.57812 z M 250 325 A 25 25 0 0 0 225 350 A 25 25 0 0 0 250 375 A 25 25 0 0 0 275 350 A 25 25 0 0 0 250 325 z M 50 425 C 36.192881 425 25 436.19288 25 450 C 25 463.80712 36.192881 475 50 475 L 225 475 L 225 550 C 225 563.80712 236.19288 575 250 575 C 263.80712 575 275 563.80712 275 550 L 275 475 L 450 475 C 463.80712 475 475 463.80712 475 450 C 475 436.19288 463.80712 425 450 425 L 50 425 z M 179.28906 495.71094 C 172.891 495.71094 166.49288 498.15165 161.61133 503.0332 L 90.900391 573.74414 C 81.137282 583.50725 81.137284 599.3365 90.900391 609.09961 C 100.6635 618.86272 116.49275 618.86272 126.25586 609.09961 L 196.9668 538.38867 C 206.72991 528.62556 206.72991 512.79631 196.9668 503.0332 C 192.08524 498.15165 185.68712 495.71094 179.28906 495.71094 z M 320.71094 495.71094 C 314.31288 495.71094 307.91476 498.15165 303.0332 503.0332 C 293.27009 512.79631 293.27009 528.62556 303.0332 538.38867 L 373.74414 609.09961 C 383.50725 618.86272 399.3365 618.86272 409.09961 609.09961 C 418.86272 599.3365 418.86272 583.50725 409.09961 573.74414 L 338.38867 503.0332 C 333.50712 498.15165 327.10899 495.71094 320.71094 495.71094 z " />
</svg>