<svg width="500" height="900" xmlns="http://www.w3.org/2000/svg">
    <path
        d="M 50 425 A 25 25 0 0 0 25 450 A 25 25 0 0 0 50 475 L 450 475 A 25 25 0 0 0 475 450 A 25 25 0 0 0 450 425 L 50 425 z " />
    <path
        d="M 373.74414,290.90039 90.900391,573.74414 c -9.76319,9.76312 -9.76319,25.59235 0,35.35547 9.763119,9.76319 25.592349,9.76319 35.355469,0 L 409.09961,326.25586 c 9.76319,-9.76312 9.76319,-25.59235 0,-35.35547 -9.46114,-9.46152 -25.36444,-9.99129 -35.35547,0 z" />
    <path
        d="m 90.900391,290.90039 c -9.763195,9.76312 -9.763195,25.59235 0,35.35547 L 373.74414,609.09961 c 9.76312,9.76319 25.59235,9.76319 35.35547,0 9.76319,-9.76312 9.76319,-25.59235 0,-35.35547 L 126.25586,290.90039 c -9.98917,-9.98944 -25.87017,-9.48569 -35.355469,0 z" />
</svg>