<svg width="500" height="900" xmlns="http://www.w3.org/2000/svg">
    <path
        d="M 108.57812 283.57812 A 25 25 0 0 0 83.578125 308.57812 A 25 25 0 0 0 108.57812 333.57812 A 25 25 0 0 0 133.57812 308.57812 A 25 25 0 0 0 108.57812 283.57812 z M 179.28906 354.28906 A 25 25 0 0 0 154.28906 379.28906 A 25 25 0 0 0 179.28906 404.28906 A 25 25 0 0 0 204.28906 379.28906 A 25 25 0 0 0 179.28906 354.28906 z M 50 425 A 25 25 0 0 0 25 450 A 25 25 0 0 0 50 475 A 25 25 0 0 0 75 450 A 25 25 0 0 0 50 425 z M 150 425 A 25 25 0 0 0 125 450 A 25 25 0 0 0 150 475 A 25 25 0 0 0 175 450 A 25 25 0 0 0 150 425 z M 250 425 A 25 25 0 0 0 225 450 A 25 25 0 0 0 250 475 A 25 25 0 0 0 275 450 A 25 25 0 0 0 250 425 z M 179.28906 495.71094 A 25 25 0 0 0 154.28906 520.71094 A 25 25 0 0 0 179.28906 545.71094 A 25 25 0 0 0 204.28906 520.71094 A 25 25 0 0 0 179.28906 495.71094 z M 108.57812 566.42188 A 25 25 0 0 0 83.578125 591.42188 A 25 25 0 0 0 108.57812 616.42188 A 25 25 0 0 0 133.57812 591.42188 A 25 25 0 0 0 108.57812 566.42188 z " />
</svg>