<svg xmlns="http://www.w3.org/2000/svg" width="1000" height="1000">
    <style>
        @media (prefers-color-scheme: light) {
            path {
                fill: #000000;
            }
        }

        @media (prefers-color-scheme: dark) {
            path {
                fill: #ffffff;
            }
        }
    </style>
    <path
        d="M75 75v50h300v50H75v750h850V175H625v-50h300V75H75zm350 50h150v50H425v-50zM125 225h250v50H175v150h200v50H125V225zm300 0h150v100h200v50H575v150h300v250H625v-50h200V575H175v150h200v50H125V525h300V375H225v-50h200V225zm200 0h250v250H625v-50h200V275H625v-50zm-150 50v250h50V275h-50zM225 625h550v50H575v150h300v50H125v-50h300V675H225v-50zm250 50v150h50V675h-50z" />
</svg>
