<svg xmlns="http://www.w3.org/2000/svg" width="1000" height="1000">
    <style>
        @media (prefers-color-scheme: light) {
            path {
                fill: #000000;
            }
        }

        @media (prefers-color-scheme: dark) {
            path {
                fill: #ffffff;
            }
        }
    </style>
    <path
        d="M75 75v850h50V125h750v800h50V75H75zm100 100v50h300v350H175v150h200v50H175v150h250v-50H225v-50h200V675H225v-50h550v50H575v150h200v50H575v50h250V775H625v-50h200V575H525V225h300v-50H175zm0 100v250h250v-50H225v-50h200v-50H225v-50h200v-50H175zm400 0v50h200v50H575v50h200v50H575v50h250V275H575zM475 675v250h50V675h-50z" />
</svg>
