<svg xmlns="http://www.w3.org/2000/svg" width="1000" height="1000">
  <style>
    @media (prefers-color-scheme: light) {
      path {
        fill: #000000;
      }
    }

    @media (prefers-color-scheme: dark) {
      path {
        fill: #ffffff;
      }
    }
  </style>
  <path d="M75 75v150h400v400h400v50H475v150h400v50H425V575H75v150h200v50H75v150h250v-50H125v-50h200V675H125v-50h250v300h550V775H525v-50h400V575H525V175H125v-50h750v50H575v50h350V75H75zm0 200v250h350v-50H125v-50h300v-50H125v-50h300v-50H75zm500 0v50h300v50H575v50h300v50H575v50h350V275H575z" />
</svg>