<svg width="500" height="850" xmlns="http://www.w3.org/2000/svg" xmlns:svg="http://www.w3.org/2000/svg">
    <path d="M475 550v-50h-50L325 600v50h50zM25 300v50h50l100-100v-50h-50zm350-100h-50v50l100 100h50v-50z" />
    <path d="M475 300v250h-50V300zM375 650H225v-50h150zM25 450V300h50v150zm100-250h250v50H125z" />
    <path
        d="M 125 300 L 125 350 L 125 500 L 125 550 L 325 550 L 375 550 L 375 500 L 375 350 L 375 300 L 175 300 L 125 300 z M 175 350 L 325 350 L 325 500 L 175 500 L 175 350 z " />
</svg>