<svg width="500" height="850" xmlns="http://www.w3.org/2000/svg">
    <path d="M375 300v50H125v-50z"/>
    <path d="M375 550h-50V300h50z"/>
    <path d="M125 550v-50h250v50z"/>
    <path d="M125 300h50v250h-50z"/>
    <path d="M475 550v-50h-50L325 600v50h50zM125 650h50v-50L75 500H25v50zM25 300v50h50l100-100v-50h-50zm350-100h-50v50l100 100h50v-50z"/>
    <path d="M475 300v250h-50V300zM375 650H125v-50h250zM25 550V300h50v250zm100-350h250v50H125z"/>
    <path d="M175 300v50h-50L25 250v-50h50z"/>
    <path d="M275 400v50h-50L125 350v-50h50zm50 150v-50h50l100 100v50h-50z"/>
    <path d="M225 450v-50h50l100 100v50h-50z"/>
</svg>