<svg width="500" height="850" xmlns="http://www.w3.org/2000/svg">
    <path
        d="M375 200h-50v50l100 100h50v-50zM25 300v50h50l100-100v-50h-50zm100 350h50v-50L75 500H25v50zm350-100v-50h-50L325 600v50h50z" />
    <path d="M125 200h250v50H125Zm250 450H125v-50h250z" />
    <path d="M175 300v50h-50L25 250v-50h50zm150 250v-50h50l100 100v50h-50z" />
    <path d="M275 400v50h-50L125 350v-50h50z" />
    <path d="M225 450v-50h50l100 100v50h-50z" />
    <path d="M225 200h50v450h-50z" />
    <path d="M225 0h50v850h-50z" />
</svg>