<svg width="500" height="850" version="1.1" id="svg7" sodipodi:docname="uni003a.svg"
    inkscape:version="1.4.2 (ebf0e940, 2025-05-08)" xmlns:inkscape="http://www.inkscape.org/namespaces/inkscape"
    xmlns:sodipodi="http://sodipodi.sourceforge.net/DTD/sodipodi-0.dtd" xmlns="http://www.w3.org/2000/svg"
    xmlns:svg="http://www.w3.org/2000/svg">
    <defs id="defs7" />

    <path id="path1"
        d="M 25 200 L 25 250 L 125 350 L 225 450 L 325 550 L 425 650 L 475 650 L 475 600 L 375 500 L 275 400 L 175 300 L 75 200 L 25 200 z M 225 200 L 225 250 L 275 250 L 275 200 L 225 200 z M 25 400 L 25 450 L 75 450 L 75 400 L 25 400 z M 425 400 L 425 450 L 475 450 L 475 400 L 425 400 z M 225 600 L 225 650 L 275 650 L 275 600 L 225 600 z " />
</svg>