<svg width="500" height="850" xmlns="http://www.w3.org/2000/svg">
    <path d="M 25 200 L 25 250 L 50 275 L 25 300 L 25 350 L 75 350 L 100 325 L 125 350 L 125 500 L 125 550 L 325 550 L 350 575 L 325 600 L 175 600 L 125 550 L 75 500 L 25 500 L 25 550 L 125 650 L 175 650 L 375 650 L 400 625 L 425 650 L 475 650 L 475 600 L 450 575 L 475 550 L 475 500 L 425 500 L 400 525 L 375 500 L 375 350 L 375 300 L 175 300 L 150 275 L 175 250 L 325 250 L 375 300 L 425 350 L 475 350 L 475 300 L 375 200 L 325 200 L 175 200 L 125 200 L 100 225 L 75 200 L 25 200 z M 225 350 L 325 350 L 325 450 L 275 400 L 225 350 z M 175 400 L 225 450 L 275 500 L 175 500 L 175 400 z "/>
</svg>