<svg width="500" height="1000" xmlns="http://www.w3.org/2000/svg">
    <path
        d="M 264.05469 200.60938 A 225 225 0 0 0 232.31641 200.84473 A 225 225 0 0 0 232.18359 200.86133 A 225 225 0 0 0 203.15039 205.20996 A 225 225 0 0 0 195.99219 207.00977 A 225 225 0 0 0 174.6582 213.375 A 225 225 0 0 0 165.95703 216.69922 A 225 225 0 0 0 147.14062 225.35645 A 225 225 0 0 0 138.59766 229.84082 A 225 225 0 0 0 120.42383 241.55469 A 225 225 0 0 0 113.5918 246.24805 A 225 225 0 0 0 90.943359 265.86328 A 25 25 0 0 0 90.902344 265.90234 L 90.900391 265.90039 A 25 25 0 0 0 88.744141 268.35938 A 25 25 0 0 0 90.900391 301.25586 A 25 25 0 0 0 126.25586 301.25586 A 175 175 0 0 1 143.4668 286.16211 A 175 175 0 0 1 373.74414 301.25586 A 25 25 0 0 0 409.09961 301.25586 A 25 25 0 0 0 409.29492 266.09863 A 225 225 0 0 0 409.09961 265.90234 A 225 225 0 0 0 408.9082 265.71094 A 25 25 0 0 0 406.39844 263.5625 A 225 225 0 0 0 383.00781 243.90332 A 225 225 0 0 0 379.81055 241.70898 A 225 225 0 0 0 357.34961 227.7002 A 225 225 0 0 0 352.19531 225.01953 A 225 225 0 0 0 329.31055 214.89844 A 225 225 0 0 0 323.69727 212.7998 A 225 225 0 0 0 298.66992 205.73438 A 225 225 0 0 0 294.28711 204.68066 A 225 225 0 0 0 264.05469 200.60938 z M 108.57812 541.42188 A 25 25 0 0 0 90.900391 548.74414 A 25 25 0 0 0 90.705078 583.90137 A 225 225 0 0 0 90.900391 584.09766 A 225 225 0 0 0 91.091797 584.28906 A 25 25 0 0 0 93.601562 586.4375 A 225 225 0 0 0 117.33984 606.38867 A 225 225 0 0 0 120.18164 608.28516 A 225 225 0 0 0 143.33594 622.72656 A 225 225 0 0 0 148.75977 625.40137 A 225 225 0 0 0 171.30664 635.37402 A 225 225 0 0 0 178.48828 637.81738 A 225 225 0 0 0 200.74023 644.09766 A 225 225 0 0 0 209.14453 645.78125 A 225 225 0 0 0 231.10352 648.7373 A 225 225 0 0 0 240.30078 649.35742 A 225 225 0 0 0 261.85742 649.19727 A 225 225 0 0 0 271.46484 648.59082 A 225 225 0 0 0 292.44922 645.44824 A 225 225 0 0 0 302.10938 643.55664 A 225 225 0 0 0 322.4082 637.49902 A 225 225 0 0 0 331.67383 634.39062 A 225 225 0 0 0 351.41797 625.30664 A 225 225 0 0 0 359.64258 621.29297 A 225 225 0 0 0 379.83984 608.27637 A 225 225 0 0 0 385.5293 604.51367 A 225 225 0 0 0 409.05664 584.13672 A 25 25 0 0 0 409.09766 584.09766 L 409.09961 584.09961 A 225 225 0 0 0 411.25586 581.64062 A 25 25 0 0 0 409.09961 548.74414 A 25 25 0 0 0 373.74414 548.74414 A 175 175 0 0 1 272.8418 598.50391 A 175 175 0 0 1 126.25586 548.74414 A 25 25 0 0 0 108.57812 541.42188 z "
        transform="scale(1 2)translate(0,-175)" />
</svg>