<svg width="500" height="850" xmlns="http://www.w3.org/2000/svg">
    <path
        d="M 250 200 A 225 225 0 0 0 91.052734 265.75 A 25 25 0 0 0 90.900391 265.90039 A 25 25 0 0 0 90.748047 266.05273 A 225 225 0 0 0 25 425 C 25 438.80712 36.192881 450 50 450 C 63.807119 450 75 438.80712 75 425 A 175 175 0 0 1 109.84766 320.20312 L 232.32227 442.67773 L 232.36719 442.63281 A 25 25 0 0 0 250 450 A 25 25 0 0 0 275 425 A 25 25 0 0 0 267.67773 407.32227 L 145.20312 284.84766 A 175 175 0 0 1 250 250 A 175 175 0 0 1 425 425 C 425 438.80712 436.19288 450 450 450 C 463.80712 450 475 438.80712 475 425 A 225 225 0 0 0 250 200 z " />
</svg>