<svg width="500" height="850" xmlns="http://www.w3.org/2000/svg">
   <path d="M 250 100 C 202.071 100.306 169.68033 128.72833 161.61133 136.61133 C 151.84833 146.37433 151.84833 162.2038 161.61133 171.9668 C 171.37433 181.7298 187.2038 181.7298 196.9668 171.9668 L 197.16797 172.16797 A 75 75 0 0 1 250 150 C 291.421 150 325 183.579 325 225 L 325 625 C 325 666.421 291.421 700 250 700 A 75 75 0 0 1 197.16797 677.83203 L 196.9668 678.0332 C 187.2038 668.2702 171.37433 668.2702 161.61133 678.0332 C 151.84833 687.7962 151.84833 703.62567 161.61133 713.38867 C 169.69933 721.28867 202.086 749.694 250 750 C 318.173 750 373.49609 695.39964 374.87109 627.55664 C 374.88909 626.69664 375 625.863 375 625 L 375 225 C 375 224.137 374.88909 223.30236 374.87109 222.44336 C 373.49609 154.60036 318.173 100 250 100 z "/>
</svg>