<svg width="500" height="850" xmlns="http://www.w3.org/2000/svg">
    <path d="M 390.86133 258.58594 A 25 25 0 0 0 387.51172 258.88672 A 25 25 0 0 0 373.74414 265.90039 L 318.92383 320.7207 A 125 125 0 0 0 250 300 A 125 125 0 0 0 125 425 A 125 125 0 0 0 145.7207 493.92383 L 90.900391 548.74414 A 25 25 0 0 0 90.900391 584.09961 A 25 25 0 0 0 126.25586 584.09961 L 181.07617 529.2793 A 125 125 0 0 0 250 550 A 125 125 0 0 0 375 425 A 125 125 0 0 0 354.2793 356.07617 L 409.09961 301.25586 A 25 25 0 0 0 409.09961 265.90039 A 25 25 0 0 0 390.86133 258.58594 z M 250 350 A 75 75 0 0 1 282.32227 357.32227 L 182.32227 457.32227 A 75 75 0 0 1 175 425 A 75 75 0 0 1 250 350 z M 317.67773 392.67773 A 75 75 0 0 1 325 425 A 75 75 0 0 1 250 500 A 75 75 0 0 1 217.67773 492.67773 L 317.67773 392.67773 z "/>
</svg>