<svg width="500" height="850" xmlns="http://www.w3.org/2000/svg">
    <path
        d="M 50 400 C 36.192881 400 25 411.19288 25 425 A 225 225 0 0 0 250 650 A 225 225 0 0 0 408.94727 584.25195 A 25 25 0 0 0 409.09961 584.09961 A 25 25 0 0 0 409.25195 583.94727 A 225 225 0 0 0 475 425 C 475 411.19288 463.80712 400 450 400 C 436.19288 400 425 411.19288 425 425 A 175 175 0 0 1 390.15234 529.79688 L 267.67773 407.32227 A 25 25 0 0 0 250 400 A 25 25 0 0 0 225 425 A 25 25 0 0 0 232.36719 442.63281 L 232.32227 442.67773 L 354.79688 565.15234 A 175 175 0 0 1 250 600 A 175 175 0 0 1 75 425 C 75 411.19288 63.807119 400 50 400 z " />
</svg>