<svg width="500" height="1000" xmlns="http://www.w3.org/2000/svg">
    <path transform="scale(1 2)translate(0,-175)"
        d="M 108.57812 258.57812 A 25 25 0 0 0 107.02734 258.88672 A 25 25 0 0 0 100.9375 260.09766 A 25 25 0 0 0 98.310547 260.95117 A 25 25 0 0 0 90.912109 265.89258 L 90.908203 265.89453 L 90.902344 265.90039 L 90.900391 265.90039 L 90.890625 265.91406 A 225 225 0 0 0 89.546875 267.46484 A 25 25 0 0 0 88.5625 268.60156 A 225 225 0 0 0 29.863281 379.41602 L 29.757812 380.13867 A 225 225 0 0 0 25.628906 410.80664 A 225 225 0 0 0 25.623047 412.74414 A 225 225 0 0 0 25.84375 442.48047 A 225 225 0 0 0 26.328125 445.92188 A 225 225 0 0 0 30.496094 473.76562 A 225 225 0 0 0 32.195312 479.63281 A 225 225 0 0 0 39.496094 504.09961 A 225 225 0 0 0 43.304688 512.53516 A 225 225 0 0 0 52.65625 532.86133 A 225 225 0 0 0 60.105469 544.57422 A 225 225 0 0 0 69.712891 559.48242 A 225 225 0 0 0 82.984375 574.95898 A 225 225 0 0 0 90.863281 584.05664 L 90.902344 584.09766 L 90.900391 584.09961 A 25 25 0 0 0 126.25586 584.09961 A 25 25 0 0 0 126.25586 548.74414 A 175 175 0 0 1 109.96875 320.32422 L 373.74414 584.09961 A 25 25 0 0 0 381.15039 589.04688 A 25 25 0 0 0 383.76758 589.89844 A 25 25 0 0 0 389.87695 591.11523 A 25 25 0 0 0 392.95898 591.11523 A 25 25 0 0 0 399.07422 589.89844 A 25 25 0 0 0 401.68555 589.05078 A 25 25 0 0 0 409.08789 584.10742 L 409.0918 584.10547 L 409.09766 584.09961 L 409.11523 584.08203 L 409.11914 584.07812 L 409.14062 584.05469 A 25 25 0 0 0 411.2832 581.57617 L 411.4375 581.39844 A 225 225 0 0 0 447.0957 316.60156 A 225 225 0 0 0 441.89062 307.625 A 225 225 0 0 0 440.98633 306.20117 A 225 225 0 0 0 436.28516 298.90625 A 225 225 0 0 0 434.13477 295.85547 A 225 225 0 0 0 430.29492 290.4707 A 225 225 0 0 0 426.65625 285.79492 A 225 225 0 0 0 423.88086 282.26953 A 225 225 0 0 0 418.49609 275.98828 A 225 225 0 0 0 417.12891 274.4082 A 225 225 0 0 0 409.95508 266.80469 L 409.94531 266.78906 A 25 25 0 0 0 409.09766 265.90234 L 409.09961 265.90039 A 25 25 0 0 0 391.42188 258.57812 A 25 25 0 0 0 373.74414 265.90039 A 25 25 0 0 0 373.74414 301.25586 A 175 175 0 0 1 390.12305 529.76758 L 126.25586 265.90039 A 25 25 0 0 0 118.85156 260.95312 A 25 25 0 0 0 116.21484 260.09766 A 25 25 0 0 0 110.13086 258.88672 A 25 25 0 0 0 108.57812 258.57812 z " />
</svg>