<?xml version="1.0" encoding="UTF-8" standalone="no"?>
<svg width="500" height="1000" inkscape:version="1.4 (e7c3feb1, 2024-10-09)"
  xmlns:inkscape="http://www.inkscape.org/namespaces/inkscape"
  xmlns:sodipodi="http://sodipodi.sourceforge.net/DTD/sodipodi-0.dtd" xmlns="http://www.w3.org/2000/svg"
  xmlns:svg="http://www.w3.org/2000/svg">
  <defs id="defs1" />
  <path
    d="M 250 300 A 25 25 0 0 0 225 325 A 25 25 0 0 0 250 350 A 75 75 0 0 1 325 425 A 125 125 0 0 0 375.13672 525 A 125 125 0 0 0 325 625 A 75 75 0 0 1 250 700 A 25 25 0 0 0 225 725 A 25 25 0 0 0 250 750 A 125 125 0 0 0 375 625 A 75 75 0 0 1 450 550 A 25 25 0 0 0 475 525 A 25 25 0 0 0 450 500 A 75 75 0 0 1 375 425 A 125 125 0 0 0 250 300 z "
    transform="scale(1 2)translate(-100,-275)" />
</svg>