<svg width="500" height="1000" xmlns="http://www.w3.org/2000/svg" xmlns:svg="http://www.w3.org/2000/svg">
  <path
    d="M 250 300 A 25 25 0 0 0 225 325 A 25 25 0 0 0 250 350 A 75 75 0 0 1 325 425 A 125 125 0 0 0 375.13672 525 A 125 125 0 0 0 325 625 A 75 75 0 0 1 250 700 A 25 25 0 0 0 225 725 A 25 25 0 0 0 250 750 A 125 125 0 0 0 375 625 A 75 75 0 0 1 450 550 A 25 25 0 0 0 475 525 A 25 25 0 0 0 450 500 A 75 75 0 0 1 375 425 A 125 125 0 0 0 250 300 z "
    transform="scale(1 2)translate(-100,-275)" />
</svg>