<svg width="500" height="850" xmlns="http://www.w3.org/2000/svg">
    <path
        d="M 250 200 A 225 225 0 0 0 25 425 A 225 225 0 0 0 90.900391 584.09961 A 25 25 0 0 0 108.57812 591.42188 A 25 25 0 0 0 133.57812 566.42188 A 25 25 0 0 0 126.25586 548.74414 A 175 175 0 0 1 75 425 A 175 175 0 0 1 250 250 A 175 175 0 0 1 425 425 A 175 175 0 0 1 373.74414 548.74414 A 25 25 0 0 0 366.42188 566.42188 A 25 25 0 0 0 391.42188 591.42188 A 25 25 0 0 0 409.09961 584.09961 A 225 225 0 0 0 475 425 A 225 225 0 0 0 250 200 z " />
</svg>