<?xml version="1.0" encoding="UTF-8" standalone="no"?>
<svg width="500" height="1000" version="1.1" id="svg2" sodipodi:docname="uni0049.svg"
    inkscape:version="1.4 (e7c3feb1, 2024-10-09)" xmlns:inkscape="http://www.inkscape.org/namespaces/inkscape"
    xmlns:sodipodi="http://sodipodi.sourceforge.net/DTD/sodipodi-0.dtd" xmlns="http://www.w3.org/2000/svg"
    xmlns:svg="http://www.w3.org/2000/svg">
    <defs id="defs2" />
    <sodipodi:namedview id="namedview2" pagecolor="#ffffff" bordercolor="#000000" borderopacity="0.25"
        inkscape:showpageshadow="2" inkscape:pageopacity="0.0" inkscape:pagecheckerboard="0"
        inkscape:deskcolor="#d1d1d1" inkscape:zoom="0.30182609" inkscape:cx="231.92164" inkscape:cy="500.2881"
        inkscape:window-width="1104" inkscape:window-height="733" inkscape:window-x="0" inkscape:window-y="25"
        inkscape:window-maximized="0" inkscape:current-layer="svg2" />
    <path
        d="m 250,200 a 225,225 0 0 0 -29.28516,1.91895 225,225 0 0 0 -17.63672,3.49707 225,225 0 0 0 -11.1582,2.2207 225,225 0 0 0 -18.83789,6.37207 225,225 0 0 0 -8.95898,3.04101 225,225 0 0 0 -18.28321,8.98243 225,225 0 0 0 -8.05664,3.97265 225,225 0 0 0 -17.27539,11.49317 225,225 0 0 0 -7.15234,4.77832 225,225 0 0 0 -15.734376,13.73047 225,225 0 0 0 -6.367188,5.58496 225,225 0 0 0 -13.740234,15.57422 225,225 0 0 0 -5.664063,6.45898 225,225 0 0 0 -11.5,17.08398 225,225 0 0 0 -4.867187,7.28614 225,225 0 0 0 -9.134766,18.34082 225,225 0 0 0 -3.921875,7.9541 225,225 0 0 0 -6.652343,19.32226 225,225 0 0 0 -2.867188,8.44727 225,225 0 0 0 -3.949219,19.36231 225,225 0 0 0 -1.878906,9.44531 225,225 0 0 0 -1.369141,19.33496 A 225,225 0 0 0 25,425 25,25 0 0 0 50,450 25,25 0 0 0 75,425 175,175 0 0 1 76.78125,400.09473 175,175 0 0 1 250,250 a 175,175 0 0 1 175,175 25,25 0 0 0 25,25 25,25 0 0 0 25,-25 25,25 0 0 0 -0.25586,-3.5625 A 225,225 0 0 0 250,200 Z"
        transform="matrix(1,0,0,2,0,-350)" id="path1" />
</svg>