<svg width="500" height="1000" xmlns="http://www.w3.org/2000/svg">
    <path transform="scale(1 2)translate(0,-175)"
        d="M 250 200 A 225 225 0 0 0 25 425 A 225 225 0 0 0 248.75586 649.96875 L 248.77344 649.9707 A 25 25 0 0 0 250 650 A 25 25 0 0 0 275 625 A 25 25 0 0 0 250 600 A 175 175 0 0 1 75 425 A 175 175 0 0 1 250 250 A 175 175 0 0 1 425 425 A 25 25 0 0 0 450 450 A 25 25 0 0 0 475 425 A 25 25 0 0 0 474.74414 421.4375 A 225 225 0 0 0 250 200 z " />
    <path transform="scale(1 2)translate(0,-175)"
        d="M 250 300 A 125 125 0 0 0 125 425 A 125 125 0 0 0 250 550 A 125 125 0 0 0 375 425 A 125 125 0 0 0 250 300 z M 250 350 A 75 75 0 0 1 325 425 A 75 75 0 0 1 250 500 A 75 75 0 0 1 175 425 A 75 75 0 0 1 250 350 z " />
</svg>