<svg width="500" height="850" xmlns="http://www.w3.org/2000/svg">
    <path
        d="m 50,400 a 25,25 0 0 0 -25,25 25,25 0 0 0 0.25586,3.5625 A 225,225 0 0 0 250,650 a 225,225 0 0 0 31.94336,-2.28516 225,225 0 0 0 18.52539,-4.01757 225,225 0 0 0 12.74805,-2.77344 225,225 0 0 0 20.67773,-7.68555 225,225 0 0 0 9.32617,-3.47851 225,225 0 0 0 18.84571,-10.24805 225,225 0 0 0 9.28906,-5.07227 225,225 0 0 0 17.00976,-12.67578 225,225 0 0 0 8.6543,-6.47851 225,225 0 0 0 8.42774,-8.38282 25,25 0 0 0 3.65234,-2.80273 25,25 0 0 0 3.30859,-4.12305 225,225 0 0 0 0.10547,-0.10351 225,225 0 0 0 7.17774,-7.17774 225,225 0 0 0 13.16406,-17.46679 225,225 0 0 0 6.08594,-8.13086 225,225 0 0 0 10.48047,-19.02344 225,225 0 0 0 4.93945,-9.04297 225,225 0 0 0 7.63086,-20.19727 225,225 0 0 0 3.64648,-9.77539 225,225 0 0 0 4.55078,-20.45507 225,225 0 0 0 2.35938,-10.84375 225,225 0 0 0 1.57422,-20.51172 A 225,225 0 0 0 475,425 225,225 0 0 0 474.74609,421.44141 25,25 0 0 0 450,400 25,25 0 0 0 425,425 175,175 0 0 1 390.12305,529.76758 L 267.67773,407.32227 A 25,25 0 0 0 250,400 a 25,25 0 0 0 -25,25 25,25 0 0 0 7.36719,17.63281 l -0.0449,0.0449 122.47265,122.47266 A 175,175 0 0 1 277.37695,597.8457 175,175 0 0 1 250,600 175,175 0 0 1 75,425 25,25 0 0 0 50,400 Z" />
</svg>