<?xml version="1.0" encoding="UTF-8" standalone="no"?>
<svg width="500" height="1000" version="1.1" id="svg2" sodipodi:docname="uni0025.svg" inkscape:version="1.4.2 (ebf0e940, 2025-05-08)" xmlns:inkscape="http://www.inkscape.org/namespaces/inkscape" xmlns:sodipodi="http://sodipodi.sourceforge.net/DTD/sodipodi-0.dtd" xmlns="http://www.w3.org/2000/svg" xmlns:svg="http://www.w3.org/2000/svg">
    <defs id="defs2" />
    <sodipodi:namedview id="namedview2" pagecolor="#ffffff" bordercolor="#000000" borderopacity="0.25" inkscape:showpageshadow="2" inkscape:pageopacity="0.0" inkscape:pagecheckerboard="0" inkscape:deskcolor="#d1d1d1" inkscape:zoom="0.26904348" inkscape:cx="234.1629" inkscape:cy="501.77763" inkscape:window-width="1080" inkscape:window-height="675" inkscape:window-x="0" inkscape:window-y="25" inkscape:window-maximized="0" inkscape:current-layer="svg2" />
    <path id="path1" d="M 390.86133 258.58496 A 25 25 0 0 0 387.51172 258.88672 A 25 25 0 0 0 373.74414 265.90039 L 318.92383 320.71973 A 125 125 0 0 0 250 300 A 125 125 0 0 0 125 425 A 125 125 0 0 0 145.7207 493.92383 A 125 125 0 0 0 145.7207 493.9248 L 90.900391 548.74414 A 25 25 0 0 0 90.900391 584.09961 A 25 25 0 0 0 126.25586 584.09961 L 181.07617 529.28027 A 125 125 0 0 0 250 550 A 125 125 0 0 0 375 425 A 125 125 0 0 0 354.2793 356.07617 A 125 125 0 0 0 354.2793 356.0752 L 409.09961 301.25586 A 25 25 0 0 0 409.09961 265.90039 A 25 25 0 0 0 390.86133 258.58496 z M 250 350 A 75 75 0 0 1 282.32227 357.32227 L 182.32227 457.32227 A 75 75 0 0 1 175 425 A 75 75 0 0 1 250 350 z M 317.67773 392.67773 A 75 75 0 0 1 325 425 A 75 75 0 0 1 250 500 A 75 75 0 0 1 217.67773 492.67773 L 317.67773 392.67773 z " transform="scale(1 2)translate(0,-175)" />
</svg>
