<?xml version="1.0" encoding="UTF-8" standalone="no"?>
<svg width="500" height="850" version="1.1" id="svg2" sodipodi:docname="uni0049.svg" inkscape:version="1.4.2 (ebf0e940, 2025-05-08)" xmlns:inkscape="http://www.inkscape.org/namespaces/inkscape" xmlns:sodipodi="http://sodipodi.sourceforge.net/DTD/sodipodi-0.dtd" xmlns="http://www.w3.org/2000/svg" xmlns:svg="http://www.w3.org/2000/svg">
    <defs id="defs2" />
    <sodipodi:namedview id="namedview2" pagecolor="#ffffff" bordercolor="#000000" borderopacity="0.25" inkscape:showpageshadow="2" inkscape:pageopacity="0.0" inkscape:pagecheckerboard="0" inkscape:deskcolor="#d1d1d1" inkscape:zoom="0.31652174" inkscape:cx="260.6456" inkscape:cy="426.51099" inkscape:window-width="1080" inkscape:window-height="675" inkscape:window-x="0" inkscape:window-y="25" inkscape:window-maximized="0" inkscape:current-layer="svg2" />
    <path d="m 250,200 a 225,225 0 0 0 -31.94336,2.28516 225,225 0 0 0 -18.52539,4.01757 225,225 0 0 0 -12.74805,2.77344 225,225 0 0 0 -20.67773,7.68555 225,225 0 0 0 -9.32617,3.47851 225,225 0 0 0 -18.84571,10.24805 225,225 0 0 0 -9.28906,5.07227 225,225 0 0 0 -17.00976,12.67578 225,225 0 0 0 -8.6543,6.47851 225,225 0 0 0 -15.49414,15.41211 225,225 0 0 0 -7.17774,7.17774 225,225 0 0 0 -13.16406,17.46679 225,225 0 0 0 -6.08594,8.13086 225,225 0 0 0 -10.48046,19.02344 225,225 0 0 0 -4.93946,9.04297 225,225 0 0 0 -7.63086,20.19727 225,225 0 0 0 -3.64648,9.77539 225,225 0 0 0 -4.55078,20.45507 225,225 0 0 0 -2.35938,10.84375 225,225 0 0 0 -1.57422,20.51172 A 225,225 0 0 0 25,425 25,25 0 0 0 50,450 25,25 0 0 0 75,425 175,175 0 0 1 77.1543,397.62305 175,175 0 0 1 250,250 a 175,175 0 0 1 175,175 25,25 0 0 0 25,25 25,25 0 0 0 25,-25 25,25 0 0 0 -0.25586,-3.5625 A 225,225 0 0 0 250,200 Z" id="path1" />
</svg>
