<svg width="500" height="850" xmlns="http://www.w3.org/2000/svg">
    <path
        d="M 250 200 A 225 225 0 0 0 25 425 C 25 438.80712 36.192881 450 50 450 C 63.807119 450 75 438.80712 75 425 A 175 175 0 0 1 250 250 A 175 175 0 0 1 425 425 A 175 175 0 0 1 250 600 C 236.19288 600 225 611.19288 225 625 C 225 638.80712 236.19288 650 250 650 A 225 225 0 0 0 475 425 A 225 225 0 0 0 250 200 z " />
    <path
        d="M 250 300 A 125 125 0 0 0 125 425 A 125 125 0 0 0 250 550 A 125 125 0 0 0 375 425 A 125 125 0 0 0 250 300 z M 250 350 A 75 75 0 0 1 325 425 A 75 75 0 0 1 250 500 A 75 75 0 0 1 175 425 A 75 75 0 0 1 250 350 z " />
</svg>