<svg width="500" height="1000" xmlns="http://www.w3.org/2000/svg" xmlns:svg="http://www.w3.org/2000/svg">
    <path transform="scale(1 2)translate(0,-175)"
        d="M 234.63477 200.54688 A 225 225 0 0 0 91.804688 265.04492 L 91.789062 265.05469 A 25 25 0 0 0 90.902344 265.90234 L 90.900391 265.90039 A 25 25 0 0 0 90.900391 301.25586 A 25 25 0 0 0 126.25586 301.25586 A 175 175 0 0 1 373.74414 301.25586 A 175 175 0 0 1 373.74414 548.74414 A 175 175 0 0 1 126.25586 548.74414 A 25 25 0 0 0 90.900391 548.74414 A 25 25 0 0 0 90.900391 584.09961 A 25 25 0 0 0 93.601562 586.4375 A 225 225 0 0 0 409.09961 584.09961 A 225 225 0 0 0 409.09961 265.90234 A 225 225 0 0 0 234.63477 200.54688 z M 250 300 C 202.071 300.306 169.68033 328.72833 161.61133 336.61133 C 151.84833 346.37433 151.84833 362.2038 161.61133 371.9668 C 171.37433 381.7298 187.2038 381.7298 196.9668 371.9668 L 197.16797 372.16797 A 75 75 0 0 1 250 350 C 291.421 350 325 383.579 325 425 C 325 466.421 291.421 500 250 500 A 75 75 0 0 1 197.16797 477.83203 L 196.9668 478.0332 C 187.2038 468.2702 171.37433 468.2702 161.61133 478.0332 C 151.84833 487.7962 151.84833 503.62567 161.61133 513.38867 C 169.69933 521.28867 202.086 549.694 250 550 C 319.036 550 375 494.036 375 425 C 375 355.964 319.036 300 250 300 z M 250 400 A 25 25 0 0 0 225 425 A 25 25 0 0 0 250 450 A 25 25 0 0 0 275 425 A 25 25 0 0 0 250 400 z " />
</svg>