<svg width="500" height="1000" xmlns="http://www.w3.org/2000/svg">
    <path transform="scale(1 2)translate(0,-175)"
        d="M 387.51172 258.88672 A 25 25 0 0 0 373.74414 265.90039 L 90.900391 548.74414 A 25 25 0 0 0 90.900391 584.09961 A 25 25 0 0 0 126.25586 584.09961 L 409.09961 301.25586 A 25 25 0 0 0 409.09961 265.90039 A 25 25 0 0 0 387.51172 258.88672 z " />
    <path transform="scale(1 2)translate(0,-175)"
        d="M 104.66797 258.88672 A 25 25 0 0 0 90.900391 265.90039 A 25 25 0 0 0 90.900391 301.25586 L 373.74414 584.09961 A 25 25 0 0 0 409.09961 584.09961 A 25 25 0 0 0 409.09961 548.74414 L 126.25586 265.90039 A 25 25 0 0 0 104.66797 258.88672 z " />
    <path transform="scale(1 2)translate(0,-175)"
        d="M 250 300 C 202.071 300.306 169.68033 328.72833 161.61133 336.61133 C 151.84833 346.37433 151.84833 362.2038 161.61133 371.9668 C 171.37433 381.7298 187.2038 381.7298 196.9668 371.9668 C 210.5388 358.3938 229.289 350 250 350 C 270.711 350 289.4602 358.3938 303.0332 371.9668 C 312.7962 381.7298 328.62567 381.7298 338.38867 371.9668 C 348.15167 362.2038 348.15167 346.37433 338.38867 336.61133 C 330.29967 328.71133 297.914 300.306 250 300 z M 179.28906 470.71094 A 24.92 24.92 0 0 0 161.61133 478.0332 C 151.84833 487.7962 151.84833 503.62567 161.61133 513.38867 C 169.69933 521.28867 202.086 549.694 250 550 C 297.929 549.694 330.31967 521.27167 338.38867 513.38867 C 348.15167 503.62567 348.15167 487.7962 338.38867 478.0332 C 328.62567 468.2702 312.7962 468.2702 303.0332 478.0332 C 289.4612 491.6062 270.711 500 250 500 C 229.289 500 210.5398 491.6062 196.9668 478.0332 A 24.92 24.92 0 0 0 179.28906 470.71094 z " />
</svg>