<svg width="500" height="850" xmlns="http://www.w3.org/2000/svg">
    <path d="M 234.63477 200.54688 A 225 225 0 0 0 91.804688 265.04492 L 91.789062 265.05469 A 25 25 0 0 0 90.902344 265.90234 L 90.900391 265.90039 A 25 25 0 0 0 90.900391 301.25586 A 25 25 0 0 0 126.25586 301.25586 A 175 175 0 0 1 373.74414 301.25586 A 175 175 0 0 1 373.74414 548.74414 A 175 175 0 0 1 126.25586 548.74414 A 25 25 0 0 0 90.900391 548.74414 A 25 25 0 0 0 90.900391 584.09961 A 25 25 0 0 0 93.601562 586.4375 A 225 225 0 0 0 409.09961 584.09961 A 225 225 0 0 0 409.09961 265.90234 A 225 225 0 0 0 234.63477 200.54688 z "/>
    <path d="M 104.66797 258.88672 A 25 25 0 0 0 90.900391 265.90039 A 25 25 0 0 0 90.900391 301.25586 L 373.74414 584.09961 A 25 25 0 0 0 409.09961 584.09961 A 25 25 0 0 0 409.09961 548.74414 L 126.25586 265.90039 A 25 25 0 0 0 104.66797 258.88672 z "/>
</svg>