<?xml version="1.0" encoding="UTF-8" standalone="no"?>
<svg width="500" height="1000" inkscape:version="1.4 (e7c3feb1, 2024-10-09)"
    xmlns:inkscape="http://www.inkscape.org/namespaces/inkscape"
    xmlns:sodipodi="http://sodipodi.sourceforge.net/DTD/sodipodi-0.dtd" xmlns="http://www.w3.org/2000/svg"
    xmlns:svg="http://www.w3.org/2000/svg">
    <path id="path2"
        d="M 50 400 A 25 25 0 0 0 25 425 A 25 25 0 0 0 25.255859 428.5625 A 225 225 0 0 0 250 650 A 225 225 0 0 0 279.28516 648.08105 A 225 225 0 0 0 296.92188 644.58398 A 225 225 0 0 0 308.08008 642.36328 A 225 225 0 0 0 326.91797 635.99121 A 225 225 0 0 0 335.87695 632.9502 A 225 225 0 0 0 354.16016 623.96777 A 225 225 0 0 0 362.2168 619.99512 A 225 225 0 0 0 379.49219 608.50195 A 225 225 0 0 0 386.64453 603.72363 A 225 225 0 0 0 402.37891 589.99316 A 225 225 0 0 0 408.74609 584.4082 A 225 225 0 0 0 408.84766 584.29297 A 25 25 0 0 0 409.09961 584.09961 A 25 25 0 0 0 411.47852 581.31055 A 225 225 0 0 0 422.48633 568.83398 A 225 225 0 0 0 428.15039 562.375 A 225 225 0 0 0 439.65039 545.29102 A 225 225 0 0 0 444.51758 538.00488 A 225 225 0 0 0 453.65234 519.66406 A 225 225 0 0 0 457.57422 511.70996 A 225 225 0 0 0 464.22656 492.3877 A 225 225 0 0 0 467.09375 483.94043 A 225 225 0 0 0 471.04297 464.57812 A 225 225 0 0 0 472.92188 455.13281 A 225 225 0 0 0 474.29102 435.79785 A 225 225 0 0 0 475 425 A 25 25 0 0 0 450 400 A 25 25 0 0 0 425 425 A 175 175 0 0 1 389.94141 529.58496 L 267.67773 407.32227 A 25 25 0 0 0 250 400 A 25 25 0 0 0 225 425 A 25 25 0 0 0 232.36719 442.63281 L 232.32227 442.67773 L 354.6582 565.01367 A 175 175 0 0 1 274.9043 598.21875 A 175 175 0 0 1 250 600 A 175 175 0 0 1 75 425 A 25 25 0 0 0 50 400 z "
        transform="matrix(1,0,0,2,0,-350)" />
</svg>