<svg width="500" height="1000" xmlns="http://www.w3.org/2000/svg">
    <path d="m 50,400 a 25,25 0 0 0 -25,25 25,25 0 0 0 0.255859,3.5625 A 225,225 0 0 0 250,650 a 225,225 0 0 0 29.28516,-1.91895 225,225 0 0 0 17.63672,-3.49707 225,225 0 0 0 11.1582,-2.2207 225,225 0 0 0 18.83789,-6.37207 225,225 0 0 0 8.95898,-3.04101 225,225 0 0 0 18.28321,-8.98243 225,225 0 0 0 8.05664,-3.97265 225,225 0 0 0 17.27539,-11.49317 225,225 0 0 0 7.15234,-4.77832 225,225 0 0 0 15.73438,-13.73047 225,225 0 0 0 6.36718,-5.58496 225,225 0 0 0 13.74024,-15.57422 225,225 0 0 0 5.66406,-6.45898 225,225 0 0 0 11.5,-17.08398 225,225 0 0 0 4.86719,-7.28614 225,225 0 0 0 9.13476,-18.34082 225,225 0 0 0 3.92188,-7.9541 225,225 0 0 0 6.65234,-19.32226 225,225 0 0 0 2.86719,-8.44727 225,225 0 0 0 3.94922,-19.36231 225,225 0 0 0 1.87891,-9.44531 225,225 0 0 0 1.36914,-19.33496 A 225,225 0 0 0 475,425 25,25 0 0 0 450,400 25,25 0 0 0 425,425 175,175 0 0 1 274.9043,598.21875 175,175 0 0 1 250,600 175,175 0 0 1 75,425 25,25 0 0 0 50,400 Z" transform="matrix(1,0,0,2,0,-350)"/>
</svg>