<?xml version="1.0" encoding="UTF-8" standalone="no"?>
<svg width="500" height="1000" version="1.1" id="svg2" sodipodi:docname="uni0041.svg"
    inkscape:version="1.4 (e7c3feb1, 2024-10-09)" xmlns:inkscape="http://www.inkscape.org/namespaces/inkscape"
    xmlns:sodipodi="http://sodipodi.sourceforge.net/DTD/sodipodi-0.dtd" xmlns="http://www.w3.org/2000/svg"
    xmlns:svg="http://www.w3.org/2000/svg">
    <defs id="defs2" />
    <sodipodi:namedview id="namedview2" pagecolor="#ffffff" bordercolor="#000000" borderopacity="0.25"
        inkscape:showpageshadow="2" inkscape:pageopacity="0.0" inkscape:pagecheckerboard="0"
        inkscape:deskcolor="#d1d1d1" inkscape:zoom="0.514" inkscape:cx="249.02724" inkscape:cy="500"
        inkscape:window-width="1104" inkscape:window-height="733" inkscape:window-x="0" inkscape:window-y="25"
        inkscape:window-maximized="0" inkscape:current-layer="svg2" />
    <path id="path1"
        d="M 250 200 A 225 225 0 0 0 220.71484 201.91895 A 225 225 0 0 0 203.07812 205.41602 A 225 225 0 0 0 191.91992 207.63672 A 225 225 0 0 0 173.08203 214.00879 A 225 225 0 0 0 164.12305 217.0498 A 225 225 0 0 0 145.83984 226.03223 A 225 225 0 0 0 137.7832 230.00488 A 225 225 0 0 0 120.50781 241.49805 A 225 225 0 0 0 113.35547 246.27637 A 225 225 0 0 0 97.621094 260.00684 A 225 225 0 0 0 91.253906 265.5918 A 225 225 0 0 0 91.166016 265.69141 A 25 25 0 0 0 90.900391 265.90039 A 25 25 0 0 0 90.357422 266.60742 A 225 225 0 0 0 77.513672 281.16602 A 225 225 0 0 0 71.849609 287.625 A 225 225 0 0 0 60.349609 304.70898 A 225 225 0 0 0 55.482422 311.99512 A 225 225 0 0 0 46.347656 330.33594 A 225 225 0 0 0 42.425781 338.29004 A 225 225 0 0 0 35.773438 357.6123 A 225 225 0 0 0 32.90625 366.05957 A 225 225 0 0 0 28.957031 385.42188 A 225 225 0 0 0 27.078125 394.86719 A 225 225 0 0 0 25.708984 414.20215 A 225 225 0 0 0 25 425 A 25 25 0 0 0 50 450 A 25 25 0 0 0 75 425 A 175 175 0 0 1 76.78125 400.09473 A 175 175 0 0 1 109.98633 320.3418 L 232.32227 442.67773 L 232.36719 442.63281 A 25 25 0 0 0 250 450 A 25 25 0 0 0 275 425 A 25 25 0 0 0 267.67773 407.32227 L 145.41602 285.05957 A 175 175 0 0 1 250 250 A 175 175 0 0 1 425 425 A 25 25 0 0 0 450 450 A 25 25 0 0 0 475 425 A 25 25 0 0 0 474.74414 421.4375 A 225 225 0 0 0 250 200 z "
        transform="matrix(1,0,0,2,0,-350)" />
</svg>