<svg width="500" height="850" xmlns="http://www.w3.org/2000/svg">
    <path
        d="M 250 300 A 5 5 0 0 0 245 305 A 5 5 0 0 0 250 310 A 5 5 0 0 0 255 305 A 5 5 0 0 0 250 300 z M 230 320 A 5 5 0 0 0 225 325 A 5 5 0 0 0 230 330 A 5 5 0 0 0 235 325 A 5 5 0 0 0 230 320 z M 250 320 A 5 5 0 0 0 245 325 A 5 5 0 0 0 250 330 A 5 5 0 0 0 255 325 A 5 5 0 0 0 250 320 z M 270 320 A 5 5 0 0 0 265 325 A 5 5 0 0 0 270 330 A 5 5 0 0 0 275 325 A 5 5 0 0 0 270 320 z M 250 340 A 5 5 0 0 0 245 345 A 5 5 0 0 0 250 350 A 5 5 0 0 0 255 345 A 5 5 0 0 0 250 340 z " />
</svg>