<svg width="500" height="1000" xmlns="http://www.w3.org/2000/svg">
   <path transform="scale(1 2)translate(0,-175)" d="M 250 300 C 202.071 300.306 169.68033 328.72833 161.61133 336.61133 C 151.84833 346.37433 151.84833 362.2038 161.61133 371.9668 C 171.37433 381.7298 187.2038 381.7298 196.9668 371.9668 L 197.16797 372.16797 A 75 75 0 0 1 250 350 C 291.421 350 325 383.579 325 425 C 325 466.421 291.421 500 250 500 A 75 75 0 0 1 197.16797 477.83203 L 196.9668 478.0332 C 187.2038 468.2702 171.37433 468.2702 161.61133 478.0332 C 151.84833 487.7962 151.84833 503.62567 161.61133 513.38867 C 169.69933 521.28867 202.086 549.694 250 550 C 319.036 550 375 494.036 375 425 C 375 355.964 319.036 300 250 300 z "/>
</svg>