<svg width="500" height="1000" xmlns="http://www.w3.org/2000/svg">
    <path transform="scale(1 2)translate(0,-175)"
        d="M 234.63477 200.54688 A 225 225 0 0 0 232.51953 200.84375 A 225 225 0 0 0 229.07812 201.32812 A 225 225 0 0 0 201.23438 205.49609 A 225 225 0 0 0 195.36719 207.19531 A 225 225 0 0 0 170.90039 214.49609 A 225 225 0 0 0 162.46484 218.30469 A 225 225 0 0 0 142.13867 227.65625 A 225 225 0 0 0 130.42578 235.10547 A 225 225 0 0 0 115.51758 244.71289 A 225 225 0 0 0 100.04102 257.98438 A 225 225 0 0 0 91.804688 265.04492 L 91.789062 265.05469 A 25 25 0 0 0 90.943359 265.86328 L 90.900391 265.90039 A 225 225 0 0 0 90.894531 584.0918 L 90.900391 584.09766 L 90.900391 584.09961 A 25 25 0 0 0 92.464844 585.45312 A 25 25 0 0 0 93.601562 586.4375 A 225 225 0 0 0 204.41602 645.13672 L 205.13867 645.24219 A 225 225 0 0 0 235.80664 649.37109 A 225 225 0 0 0 237.74414 649.37695 A 225 225 0 0 0 267.48047 649.15625 A 225 225 0 0 0 270.92188 648.67188 A 225 225 0 0 0 298.76562 644.50391 A 225 225 0 0 0 304.63281 642.80469 A 225 225 0 0 0 329.09961 635.50391 A 225 225 0 0 0 337.53516 631.69531 A 225 225 0 0 0 357.86133 622.34375 A 225 225 0 0 0 369.57422 614.89453 A 225 225 0 0 0 384.48242 605.28711 A 225 225 0 0 0 399.95898 592.01562 A 225 225 0 0 0 408.19531 584.95508 L 408.21094 584.94531 A 25 25 0 0 0 409.05664 584.13672 L 409.09961 584.09961 A 225 225 0 0 0 409.11719 265.92188 L 409.09961 265.90234 L 409.09961 265.90039 A 25 25 0 0 0 407.53516 264.54688 A 25 25 0 0 0 406.39844 263.5625 A 225 225 0 0 0 295.58398 204.86328 L 294.86133 204.75781 A 225 225 0 0 0 264.19336 200.62891 A 225 225 0 0 0 262.25586 200.62305 A 225 225 0 0 0 234.63477 200.54688 z M 250 250 A 175 175 0 0 1 373.74414 301.25586 A 175 175 0 0 1 373.74414 548.74414 A 175 175 0 0 1 277.37695 597.8457 A 175 175 0 0 1 126.25586 548.74414 A 175 175 0 0 1 126.25586 301.25586 A 175 175 0 0 1 147.13672 283.42188 A 175 175 0 0 1 250 250 z " />
    <path transform="scale(1 2)translate(0,-175)"
        d="M 104.66797 258.88672 A 25 25 0 0 0 90.900391 265.90039 A 25 25 0 0 0 90.900391 301.25586 L 373.74414 584.09961 A 25 25 0 0 0 409.09961 584.09961 A 25 25 0 0 0 409.09961 548.74414 L 126.25586 265.90039 A 25 25 0 0 0 104.66797 258.88672 z " />
</svg>