<svg width="500" height="1000" xmlns="http://www.w3.org/2000/svg">
    <path transform="scale(1 2)translate(0,-175)"
        d="M 250 200 A 225 225 0 0 0 25.03125 423.75586 L 25.029297 423.77344 A 25 25 0 0 0 25 425 A 25 25 0 0 0 50 450 A 25 25 0 0 0 75 425 A 175 175 0 0 1 250 250 A 175 175 0 0 1 425 425 A 175 175 0 0 1 250 600 A 25 25 0 0 0 225 625 A 25 25 0 0 0 250 650 A 25 25 0 0 0 253.5625 649.74414 A 225 225 0 0 0 475 425 A 225 225 0 0 0 250 200 z " />
    <path transform="scale(1 2)translate(0,-175)"
        d="M 104.66797 258.88672 A 25 25 0 0 0 90.900391 265.90039 A 25 25 0 0 0 90.900391 301.25586 L 373.74414 584.09961 A 25 25 0 0 0 409.09961 584.09961 A 25 25 0 0 0 409.09961 548.74414 L 126.25586 265.90039 A 25 25 0 0 0 104.66797 258.88672 z " />
</svg>