<svg width="500" height="850" xmlns="http://www.w3.org/2000/svg">
    <path
        d="M 50 400 C 36.192881 400 25 411.19288 25 425 A 225 225 0 0 0 250 650 A 225 225 0 0 0 475 425 C 475 411.19288 463.80712 400 450 400 C 436.19288 400 425 411.19288 425 425 A 175 175 0 0 1 250 600 A 175 175 0 0 1 75 425 C 75 411.19288 63.807119 400 50 400 z " />

    <path
        d="m 250,400 a 25,25 0 0 0 -25,25 25,25 0 0 0 7.36719,17.63281 l -0.0449,0.0449 141.42187,141.42188 a 25,25 0 0 0 35.35547,0 25,25 0 0 0 0,-35.35547 L 267.67773,407.32227 A 25,25 0 0 0 250,400 Z" />
</svg>