<?xml version="1.0" encoding="UTF-8" standalone="no"?>
<svg width="500" height="850" version="1.1" id="svg2" sodipodi:docname="uni0052.svg"
    inkscape:version="1.4.2 (ebf0e940, 2025-05-08)" xmlns:inkscape="http://www.inkscape.org/namespaces/inkscape"
    xmlns:sodipodi="http://sodipodi.sourceforge.net/DTD/sodipodi-0.dtd" xmlns="http://www.w3.org/2000/svg"
    xmlns:svg="http://www.w3.org/2000/svg">
    <defs id="defs2" />
    <sodipodi:namedview id="namedview2" pagecolor="#ffffff" bordercolor="#000000" borderopacity="0.25"
        inkscape:showpageshadow="2" inkscape:pageopacity="0.0" inkscape:pagecheckerboard="0"
        inkscape:deskcolor="#d1d1d1" inkscape:zoom="0.62588235" inkscape:cx="249.24812" inkscape:cy="425"
        inkscape:window-width="888" inkscape:window-height="751" inkscape:window-x="0" inkscape:window-y="25"
        inkscape:window-maximized="0" inkscape:current-layer="svg2" />
    <path id="ellipse1"
        d="M 250 0 A 225 425 0 0 0 25 425 A 225 425 0 0 0 250 850 A 225 425 0 0 0 475 425 A 225 425 0 0 0 250 0 z M 250 50 A 175 375 0 0 1 425 425 A 175 375 0 0 1 250 800 A 175 375 0 0 1 75 425 A 175 375 0 0 1 250 50 z " />
    <polygon points="
		     250,425
		     050,025
		     450,025
		     " fill="aliceblue"/>
    <path style="stroke:#ff0000"
        d="M 475,0 V 850 M 425,0 V 850 M 375,0 V 850 M 325,0 V 850 M 275,0 V 850 M 225,0 V 850 M 175,0 V 850 M 125,0 V 850 M 75,0 V 850 M 25,0 V 850 M 0,850 H 500 M 0,800 H 500 M 0,750 H 500 M 0,700 H 500 M 0,650 H 500 M 0,600 H 500 M 0,550 H 500 M 0,500 H 500 M 0,450 H 500 M 0,400 H 500 M 0,350 H 500 M 0,300 H 500 M 0,250 H 500 M 0,200 H 500 M 0,150 H 500 M 0,100 H 500 M 0,50 H 500 M 0,0 h 500" />
</svg>
