<svg width="500" height="850" xmlns="http://www.w3.org/2000/svg">
    <path
        d="M 250 200 A 225 225 0 0 0 25 425 C 25 438.80712 36.192881 450 50 450 C 63.807119 450 75 438.80712 75 425 A 175 175 0 0 1 250 250 A 175 175 0 0 1 425 425 C 425 438.80712 436.19288 450 450 450 C 463.80712 450 475 438.80712 475 425 A 225 225 0 0 0 250 200 z " />
    <path
        d="m 106.79492,258.64258 a 25,25 0 0 0 -15.89453,7.25781 25,25 0 0 0 0,35.35547 l 141.42188,141.42187 0.0449,-0.0449 A 25,25 0 0 0 250,450 25,25 0 0 0 275,425 25,25 0 0 0 267.67773,407.32227 L 126.25586,265.90039 a 25,25 0 0 0 -19.46094,-7.25781 z" />
</svg>