<?xml version="1.0" encoding="UTF-8" standalone="no"?>
<svg width="500" height="1000" inkscape:version="1.4 (e7c3feb1, 2024-10-09)"
    xmlns:inkscape="http://www.inkscape.org/namespaces/inkscape"
    xmlns:sodipodi="http://sodipodi.sourceforge.net/DTD/sodipodi-0.dtd" xmlns="http://www.w3.org/2000/svg"
    xmlns:svg="http://www.w3.org/2000/svg">
    <path transform="scale(1 2)"
        d="M 250 25 A 25 25 0 0 0 225 50 L 225 450 A 25 25 0 0 0 250 475 A 25 25 0 0 0 275 450 L 275 50 A 25 25 0 0 0 250 25 z " />
    <path transform="scale(1 2)translate(0,-175)"
        d="M 264.05469 200.60938 A 225 225 0 0 0 90.900391 265.90039 A 225 225 0 0 0 90.900391 584.09766 A 225 225 0 0 0 408.19531 584.95508 L 408.21094 584.94531 A 25 25 0 0 0 409.09766 584.09766 L 409.09961 584.09961 A 25 25 0 0 0 409.09961 548.74414 A 25 25 0 0 0 373.74414 548.74414 A 175 175 0 0 1 126.25586 548.74414 A 175 175 0 0 1 126.25586 301.25586 A 175 175 0 0 1 373.74414 301.25586 A 25 25 0 0 0 409.09961 301.25586 A 25 25 0 0 0 409.09961 265.90039 A 25 25 0 0 0 406.39844 263.5625 A 225 225 0 0 0 264.05469 200.60938 z " />
    <path transform="scale(1 2)translate(0,-175)"
        d="M 104.66797 258.88672 A 25 25 0 0 0 90.900391 265.90039 A 25 25 0 0 0 90.900391 301.25586 L 373.74414 584.09961 A 25 25 0 0 0 409.09961 584.09961 A 25 25 0 0 0 409.09961 548.74414 L 126.25586 265.90039 A 25 25 0 0 0 104.66797 258.88672 z " />
</svg>