<?xml version="1.0" encoding="UTF-8" standalone="no"?>
<svg width="500" height="1000" version="1.1" id="svg2" sodipodi:docname="uni007c.svg"
    inkscape:version="1.4 (e7c3feb1, 2024-10-09)" xmlns:inkscape="http://www.inkscape.org/namespaces/inkscape"
    xmlns:sodipodi="http://sodipodi.sourceforge.net/DTD/sodipodi-0.dtd" xmlns="http://www.w3.org/2000/svg"
    xmlns:svg="http://www.w3.org/2000/svg">
    <defs id="defs2" />
    <sodipodi:namedview id="namedview2" pagecolor="#ffffff" bordercolor="#000000" borderopacity="0.25"
        inkscape:showpageshadow="2" inkscape:pageopacity="0.0" inkscape:pagecheckerboard="0"
        inkscape:deskcolor="#d1d1d1" inkscape:zoom="0.514" inkscape:cx="249.02724" inkscape:cy="500"
        inkscape:window-width="1440" inkscape:window-height="733" inkscape:window-x="0" inkscape:window-y="25"
        inkscape:window-maximized="1" inkscape:current-layer="svg2" />
    <path id="circle1" transform="scale(1 2)"
        d="M 250 25 A 25 25 0 0 0 225 50 L 225 450 A 25 25 0 0 0 250 475 A 25 25 0 0 0 275 450 L 275 50 A 25 25 0 0 0 250 25 z " />
    <path transform="scale(1 2)translate(0,-175)"
        d="M 104.66797 258.88672 A 25 25 0 0 0 90.900391 265.90039 A 25 25 0 0 0 90.900391 301.25586 L 373.74414 584.09961 A 25 25 0 0 0 409.09961 584.09961 A 25 25 0 0 0 409.09961 548.74414 L 126.25586 265.90039 A 25 25 0 0 0 104.66797 258.88672 z " />
    <path transform="scale(1 2)translate(0,-175)"
        d="M262.256 200.623a225 225 0 0 0-29.736.22 225 225 0 0 0-3.442.485 225 225 0 0 0-27.844 4.168 225 225 0 0 0-5.867 1.7 225 225 0 0 0-24.467 7.3 225 225 0 0 0-8.435 3.809 225 225 0 0 0-20.326 9.351 225 225 0 0 0-11.713 7.45 225 225 0 0 0-14.908 9.607 225 225 0 0 0-15.477 13.271 225 225 0 0 0-9.098 7.88l-.04.038-.003-.002a25 25 0 0 0 0 35.356 25 25 0 0 0 35.356 0 175 175 0 0 1 20.88-17.834 175 175 0 0 1 226.608 17.834 25 25 0 0 0 35.356 0 25 25 0 0 0 .017-35.334l-.017-.02a225 225 0 0 0-1.565-1.355 25 25 0 0 0-1.137-.984 225 225 0 0 0-110.814-58.7l-.723-.105a225 225 0 0 0-30.668-4.13 225 225 0 0 0-1.937-.005z" />
    <path transform="scale(1 2)translate(0,-175)"
        d="M108.578 541.422a25 25 0 0 0-17.678 7.322 25 25 0 0 0-.006 35.348l.006.006a225 225 0 0 0 1.565 1.355 25 25 0 0 0 1.137.985 225 225 0 0 0 110.814 58.699l.723.105a225 225 0 0 0 30.668 4.13 225 225 0 0 0 1.937.005 225 225 0 0 0 29.736-.22 225 225 0 0 0 3.442-.485 225 225 0 0 0 27.844-4.168 225 225 0 0 0 5.867-1.699 225 225 0 0 0 24.467-7.3 225 225 0 0 0 8.435-3.81 225 225 0 0 0 20.326-9.351 225 225 0 0 0 11.713-7.45 225 225 0 0 0 14.908-9.607 225 225 0 0 0 15.477-13.271 225 225 0 0 0 9.098-7.879l.04-.04.003.003a25 25 0 0 0 0-35.356 25 25 0 0 0-35.356 0 175 175 0 0 1-96.367 49.102 175 175 0 0 1-151.121-49.102 25 25 0 0 0-17.678-7.322z" />
</svg>