<?xml version="1.0" encoding="UTF-8" standalone="no"?>
<svg width="500" height="850" version="1.1" id="svg10" sodipodi:docname="uni02d9.svg" inkscape:version="1.4.3 (0d15f750, 2025-12-25)" xmlns:inkscape="http://www.inkscape.org/namespaces/inkscape" xmlns:sodipodi="http://sodipodi.sourceforge.net/DTD/sodipodi-0.dtd" xmlns="http://www.w3.org/2000/svg" xmlns:svg="http://www.w3.org/2000/svg">
    <defs id="defs10" />
    <sodipodi:namedview id="namedview10" pagecolor="#ffffff" bordercolor="#000000" borderopacity="0.25" inkscape:showpageshadow="2" inkscape:pageopacity="0.0" inkscape:pagecheckerboard="0" inkscape:deskcolor="#d1d1d1" inkscape:zoom="0.53647059" inkscape:cx="250.71272" inkscape:cy="425" inkscape:window-width="1095" inkscape:window-height="675" inkscape:window-x="0" inkscape:window-y="25" inkscape:window-maximized="0" inkscape:current-layer="svg10" />
    <path id="circle1" d="M 250 300 A 5 5 0 0 0 245 305 A 5 5 0 0 0 250 310 A 5 5 0 0 0 255 305 A 5 5 0 0 0 250 300 z M 230 320 A 5 5 0 0 0 225 325 A 5 5 0 0 0 230 330 A 5 5 0 0 0 235 325 A 5 5 0 0 0 230 320 z M 250 320 A 5 5 0 0 0 245 325 A 5 5 0 0 0 250 330 A 5 5 0 0 0 255 325 A 5 5 0 0 0 250 320 z M 270 320 A 5 5 0 0 0 265 325 A 5 5 0 0 0 270 330 A 5 5 0 0 0 275 325 A 5 5 0 0 0 270 320 z M 250 340 A 5 5 0 0 0 245 345 A 5 5 0 0 0 250 350 A 5 5 0 0 0 255 345 A 5 5 0 0 0 250 340 z " />
</svg>
