<svg width="500" height="1000" inkscape:version="1.4 (e7c3feb1, 2024-10-09)"
  xmlns:inkscape="http://www.inkscape.org/namespaces/inkscape"
  xmlns:sodipodi="http://sodipodi.sourceforge.net/DTD/sodipodi-0.dtd" xmlns="http://www.w3.org/2000/svg"
  xmlns:svg="http://www.w3.org/2000/svg">
  <defs id="defs1" />
  <path
    d="M 250 300 A 125 125 0 0 0 125 425 L 125 625 A 125 125 0 0 0 250 750 L 350 750 A 25 25 0 0 0 375 725 A 25 25 0 0 0 350 700 L 250 700 A 75 75 0 0 1 175 625 L 175 425 A 75 75 0 0 1 250 350 L 350 350 A 25 25 0 0 0 375 325 A 25 25 0 0 0 350 300 L 250 300 z "
    transform="scale(1 2)translate(0,-275)" />
</svg>