<svg width="500" height="1000" xmlns="http://www.w3.org/2000/svg" xmlns:svg="http://www.w3.org/2000/svg">
  <path
    d="M 250 300 A 125 125 0 0 0 125 425 A 75 75 0 0 1 50 500 A 25 25 0 0 0 25 525 A 25 25 0 0 0 50 550 A 75 75 0 0 1 125 625 A 125 125 0 0 0 250 750 A 25 25 0 0 0 275 725 A 25 25 0 0 0 250 700 A 75 75 0 0 1 175 625 A 125 125 0 0 0 124.91406 524.95898 A 125 125 0 0 0 175 425 A 75 75 0 0 1 250 350 A 25 25 0 0 0 275 325 A 25 25 0 0 0 250 300 z "
    transform="scale(1 2)translate(100,-275)" />
</svg>