<svg width="500" height="1000" xmlns="http://www.w3.org/2000/svg" xmlns:svg="http://www.w3.org/2000/svg">
   <path transform="scale(1 2)translate(0,-175)"
      d="M 250 200 A 25 25 0 0 0 225 225 L 225 364.64453 L 126.25586 265.90039 A 25 25 0 0 0 90.900391 265.90039 A 25 25 0 0 0 90.900391 301.25586 L 214.64453 425 L 90.900391 548.74414 A 25 25 0 0 0 90.900391 584.09961 A 25 25 0 0 0 126.25586 584.09961 L 225 485.35547 L 225 625 A 25 25 0 0 0 250 650 A 25 25 0 0 0 275 625 L 275 485.35547 L 373.74414 584.09961 A 25 25 0 0 0 409.09961 584.09961 A 25 25 0 0 0 409.09961 548.74414 L 285.35547 425 L 409.09961 301.25586 A 25 25 0 0 0 409.09961 265.90039 A 25 25 0 0 0 373.74414 265.90039 L 275 364.64453 L 275 225 A 25 25 0 0 0 250 200 z " />
</svg>