<?xml version="1.0" encoding="UTF-8" standalone="no"?>
<svg width="500" height="850" version="1.1" id="svg8" sodipodi:docname="uni25cc.svg" inkscape:version="1.4.2 (ebf0e940, 2025-05-08)" xmlns:inkscape="http://www.inkscape.org/namespaces/inkscape" xmlns:sodipodi="http://sodipodi.sourceforge.net/DTD/sodipodi-0.dtd" xmlns="http://www.w3.org/2000/svg" xmlns:svg="http://www.w3.org/2000/svg">
    <defs id="defs8" />
    <sodipodi:namedview id="namedview8" pagecolor="#ffffff" bordercolor="#000000" borderopacity="0.25" inkscape:showpageshadow="2" inkscape:pageopacity="0.0" inkscape:pagecheckerboard="0" inkscape:deskcolor="#d1d1d1" inkscape:zoom="0.31652174" inkscape:cx="259.06593" inkscape:cy="426.51099" inkscape:window-width="1080" inkscape:window-height="675" inkscape:window-x="0" inkscape:window-y="25" inkscape:window-maximized="0" inkscape:current-layer="svg8" />
    <path id="circle1" d="M 275,25 A 25,25 0 0 1 250,50 25,25 0 0 1 225,25 25,25 0 0 1 250,0 25,25 0 0 1 275,25 Z" />
    <path id="circle2" d="m 416.42136,142.15729 a 25,25 0 0 1 -25,25 25,25 0 0 1 -25,-25 25,25 0 0 1 25,-25 25,25 0 0 1 25,25 z" />
    <path id="circle3" d="m 475,425 a 25,25 0 0 1 -25,25 25,25 0 0 1 -25,-25 25,25 0 0 1 25,-25 25,25 0 0 1 25,25 z" />
    <path id="circle4" d="m 416.42136,707.84271 a 25,25 0 0 1 -25,25 25,25 0 0 1 -25,-25 25,25 0 0 1 25,-25 25,25 0 0 1 25,25 z" />
    <path id="circle5" d="m 275,825 a 25,25 0 0 1 -25,25 25,25 0 0 1 -25,-25 25,25 0 0 1 25,-25 25,25 0 0 1 25,25 z" />
    <path id="circle6" d="m 133.57864,707.84271 a 25,25 0 0 1 -25,25 25,25 0 0 1 -24.999996,-25 25,25 0 0 1 24.999996,-25 25,25 0 0 1 25,25 z" />
    <path id="circle7" d="M 75,425 A 25,25 0 0 1 50,450 25,25 0 0 1 25,425 25,25 0 0 1 50,400 25,25 0 0 1 75,425 Z" />
    <path id="circle8" d="m 133.57864,142.15729 a 25,25 0 0 1 -25,25 25,25 0 0 1 -24.999996,-25 25,25 0 0 1 24.999996,-25 25,25 0 0 1 25,25 z" />
</svg>
