<svg width="500" height="1000" xmlns="http://www.w3.org/2000/svg">
    <path d="M 264.05469 200.60938 A 225 225 0 0 0 232.31641 200.84473 A 225 225 0 0 0 232.18359 200.86133 A 225 225 0 0 0 203.15039 205.20996 A 225 225 0 0 0 195.99219 207.00977 A 225 225 0 0 0 174.6582 213.375 A 225 225 0 0 0 165.95703 216.69922 A 225 225 0 0 0 147.14062 225.35645 A 225 225 0 0 0 138.59766 229.84082 A 225 225 0 0 0 120.42383 241.55469 A 225 225 0 0 0 113.5918 246.24805 A 225 225 0 0 0 91.341797 265.46973 A 25 25 0 0 0 90.900391 265.90039 A 25 25 0 0 0 85.480469 274.01074 A 25 25 0 0 0 85.480469 274.01172 A 25 25 0 0 0 83.578125 283.57812 A 25 25 0 0 0 84.429688 290.04883 A 25 25 0 0 0 90.900391 301.25586 L 145.7207 356.07617 A 125 125 0 0 0 125 425 A 125 125 0 0 0 250 550 A 125 125 0 0 0 318.92383 529.28027 L 354.79688 565.15234 A 175 175 0 0 1 272.8418 598.50391 A 175 175 0 0 1 126.25586 548.74414 A 25 25 0 0 0 108.57812 541.42188 A 25 25 0 0 0 90.900391 548.74414 A 25 25 0 0 0 90.705078 583.90137 A 225 225 0 0 0 90.900391 584.09766 A 225 225 0 0 0 91.091797 584.28906 A 25 25 0 0 0 93.601562 586.4375 A 225 225 0 0 0 117.33984 606.38867 A 225 225 0 0 0 120.18164 608.28516 A 225 225 0 0 0 143.33594 622.72656 A 225 225 0 0 0 148.75977 625.40137 A 225 225 0 0 0 171.30664 635.37402 A 225 225 0 0 0 178.48828 637.81738 A 225 225 0 0 0 200.74023 644.09766 A 225 225 0 0 0 209.14453 645.78125 A 225 225 0 0 0 231.10352 648.7373 A 225 225 0 0 0 240.30078 649.35742 A 225 225 0 0 0 261.85742 649.19727 A 225 225 0 0 0 271.46484 648.59082 A 225 225 0 0 0 292.44922 645.44824 A 225 225 0 0 0 302.10938 643.55664 A 225 225 0 0 0 322.4082 637.49902 A 225 225 0 0 0 331.67383 634.39062 A 225 225 0 0 0 351.41797 625.30664 A 225 225 0 0 0 359.64258 621.29297 A 225 225 0 0 0 379.83984 608.27637 A 225 225 0 0 0 385.5293 604.51367 A 225 225 0 0 0 408.71289 584.47754 A 25 25 0 0 0 409.09961 584.09961 A 25 25 0 0 0 414.51953 575.98828 A 25 25 0 0 0 415.57031 572.89258 A 25 25 0 0 0 416.42188 566.42188 A 25 25 0 0 0 415.57031 559.95117 A 25 25 0 0 0 409.09961 548.74414 L 354.2793 493.9248 A 125 125 0 0 0 375 425 A 125 125 0 0 0 250 300 A 125 125 0 0 0 181.07617 320.71973 L 145.20312 284.84766 A 175 175 0 0 1 373.74414 301.25586 A 25 25 0 0 0 409.09961 301.25586 A 25 25 0 0 0 409.29492 266.09863 A 225 225 0 0 0 409.09961 265.90234 A 225 225 0 0 0 408.9082 265.71094 A 25 25 0 0 0 406.39844 263.5625 A 225 225 0 0 0 383.00781 243.90332 A 225 225 0 0 0 379.81055 241.70898 A 225 225 0 0 0 357.34961 227.7002 A 225 225 0 0 0 352.19531 225.01953 A 225 225 0 0 0 329.31055 214.89844 A 225 225 0 0 0 323.69727 212.7998 A 225 225 0 0 0 298.66992 205.73438 A 225 225 0 0 0 294.28711 204.68066 A 225 225 0 0 0 264.05469 200.60938 z M 250 350 A 75 75 0 0 1 325 425 A 75 75 0 0 1 317.67773 457.32227 L 217.67773 357.32227 A 75 75 0 0 1 250 350 z M 182.32227 392.67773 L 282.32227 492.67773 A 75 75 0 0 1 250 500 A 75 75 0 0 1 175 425 A 75 75 0 0 1 182.32227 392.67773 z " transform="scale(1 2)translate(0,-175)"/>
</svg>