<svg width="500" height="850" xmlns="http://www.w3.org/2000/svg">
    <path
        d="M 250 300 A 125 125 0 0 0 161.61133 336.61133 A 25 25 0 0 0 154.28906 354.28906 A 25 25 0 0 0 179.28906 379.28906 A 25 25 0 0 0 196.9668 371.9668 A 75 75 0 0 1 250 350 A 75 75 0 0 1 325 425 A 75 75 0 0 1 250 500 A 75 75 0 0 1 196.9668 478.0332 A 25 25 0 0 0 179.28906 470.71094 A 25 25 0 0 0 154.28906 495.71094 A 25 25 0 0 0 161.61133 513.38867 A 125 125 0 0 0 250 550 A 125 125 0 0 0 375 425 A 125 125 0 0 0 250 300 z " />
</svg>