<svg width="500" height="850" xmlns="http://www.w3.org/2000/svg">
    <path
        d="M 108.57812 258.57812 A 25 25 0 0 0 90.900391 265.90039 A 25 25 0 0 0 88.5625 268.60156 A 225 225 0 0 0 90.900391 584.09961 A 225 225 0 0 0 409.09766 584.09961 A 225 225 0 0 0 409.95508 266.80469 L 409.94531 266.78906 A 25 25 0 0 0 409.09766 265.90234 L 409.09961 265.90039 A 25 25 0 0 0 373.74414 265.90039 A 25 25 0 0 0 373.74414 301.25586 A 175 175 0 0 1 373.74414 548.74414 A 175 175 0 0 1 126.25586 548.74414 A 175 175 0 0 1 126.25586 301.25586 A 25 25 0 0 0 126.25586 265.90039 A 25 25 0 0 0 108.57812 258.57812 z " />
    <path
        d="M 104.66797 258.88672 A 25 25 0 0 0 90.900391 265.90039 A 25 25 0 0 0 90.900391 301.25586 L 373.74414 584.09961 A 25 25 0 0 0 409.09961 584.09961 A 25 25 0 0 0 409.09961 548.74414 L 126.25586 265.90039 A 25 25 0 0 0 104.66797 258.88672 z " />
    <path
        d="M 250 0 A 25 25 0 0 0 225 25 L 225 825 A 25 25 0 0 0 250 850 A 25 25 0 0 0 275 825 L 275 25 A 25 25 0 0 0 250 0 z " />
</svg>