<svg width="500" height="850" xmlns="http://www.w3.org/2000/svg">
    <path
        d="m -250,0 a 225,225 0 0 0 -31.94336,2.28516 225,225 0 0 0 -18.52539,4.01757 225,225 0 0 0 -12.74805,2.77344 225,225 0 0 0 -20.67773,7.68555 225,225 0 0 0 -9.32617,3.47851 225,225 0 0 0 -18.84571,10.24805 225,225 0 0 0 -9.28906,5.07227 225,225 0 0 0 -17.00976,12.67578 225,225 0 0 0 -8.6543,6.47851 225,225 0 0 0 -8.08984,8.04688 25,25 0 0 0 -3.99024,3.13867 25,25 0 0 0 -2.69141,3.50781 225,225 0 0 0 -0.72265,0.71875 225,225 0 0 0 -7.17774,7.17774 225,225 0 0 0 -13.16406,17.46679 225,225 0 0 0 -6.08594,8.13086 225,225 0 0 0 -10.48046,19.02344 225,225 0 0 0 -4.93946,9.04297 225,225 0 0 0 -7.63086,20.19727 225,225 0 0 0 -3.64648,9.77539 225,225 0 0 0 -4.55078,20.45507 225,225 0 0 0 -2.35938,10.84375 225,225 0 0 0 -1.57422,20.51172 A 225,225 0 0 0 -475,225 a 25,25 0 0 0 25,25 25,25 0 0 0 25,-25 175,175 0 0 1 2.1543,-27.37695 175,175 0 0 1 32.99804,-77.11524 l 122.16993,122.16992 0.0449,-0.0449 A 25,25 0 0 0 -250,250 a 25,25 0 0 0 25,-25 25,25 0 0 0 -7.32227,-17.67773 L -354.48633,85.1582 A 175,175 0 0 1 -250,50 a 175,175 0 0 1 175,175 25,25 0 0 0 25,25 25,25 0 0 0 25,-25 25,25 0 0 0 -0.25586,-3.5625 A 225,225 0 0 0 -250,0 Z" />
</svg>