<svg width="500" height="850" xmlns="http://www.w3.org/2000/svg">
   <path
      d="M 250 0 A 25 25 0 0 0 225 25 L 225 201.9375 A 225 225 0 0 0 90.900391 265.90039 A 225 225 0 0 0 90.900391 584.09766 A 225 225 0 0 0 225 648.14258 L 225 825 A 25 25 0 0 0 250 850 A 25 25 0 0 0 275 825 L 275 648.09961 A 225 225 0 0 0 408.19531 584.95508 L 408.21094 584.94531 A 25 25 0 0 0 409.08203 584.11133 A 25 25 0 0 0 409.09961 584.09961 A 25 25 0 0 0 411.27734 581.58398 A 25 25 0 0 0 411.86719 580.73047 A 25 25 0 0 0 413.10938 578.79883 A 25 25 0 0 0 413.67773 577.71484 A 25 25 0 0 0 414.55859 575.78516 A 25 25 0 0 0 415.01367 574.58789 A 25 25 0 0 0 415.61719 572.52539 A 25 25 0 0 0 415.90039 571.37891 A 25 25 0 0 0 416.25781 568.89258 A 25 25 0 0 0 416.35742 568.07617 A 25 25 0 0 0 416.35742 564.76758 A 25 25 0 0 0 416.25781 563.94727 A 25 25 0 0 0 415.90234 561.4707 A 25 25 0 0 0 415.61719 560.31445 A 25 25 0 0 0 415.01367 558.25781 A 25 25 0 0 0 414.55469 557.05078 A 25 25 0 0 0 413.6875 555.14844 A 25 25 0 0 0 413.10156 554.0332 A 25 25 0 0 0 411.88477 552.13867 A 25 25 0 0 0 411.27148 551.25 A 25 25 0 0 0 409.09961 548.74414 L 275 414.64453 L 275 251.9668 A 175 175 0 0 1 373.74414 301.25586 A 25 25 0 0 0 409.09961 301.25586 A 25 25 0 0 0 409.09961 265.90039 A 25 25 0 0 0 406.39844 263.5625 A 225 225 0 0 0 275 202.08398 L 275 25 A 25 25 0 0 0 250 0 z M 225 251.9668 L 225 364.64453 L 145.32422 284.96875 A 175 175 0 0 1 225 251.9668 z M 109.96875 320.32422 L 225 435.35547 L 225 598.0332 A 175 175 0 0 1 126.25586 548.74414 A 175 175 0 0 1 109.96875 320.32422 z M 275 485.35547 L 354.67578 565.03125 A 175 175 0 0 1 275 598.0332 L 275 485.35547 z " />
</svg>