<svg width="500" height="850" xmlns="http://www.w3.org/2000/svg">
    <path
        d="M 108.57812 258.57812 A 25 25 0 0 0 90.900391 265.90039 A 225 225 0 0 0 25 425 A 225 225 0 0 0 250 650 A 225 225 0 0 0 475 425 A 225 225 0 0 0 409.09961 265.90039 A 25 25 0 0 0 391.42188 258.57812 A 25 25 0 0 0 366.42188 283.57812 A 25 25 0 0 0 373.74414 301.25586 A 175 175 0 0 1 425 425 A 175 175 0 0 1 250 600 A 175 175 0 0 1 75 425 A 175 175 0 0 1 126.25586 301.25586 A 25 25 0 0 0 133.57812 283.57812 A 25 25 0 0 0 108.57812 258.57812 z " />
    <path
        d="m 126.25631,265.90097 a 25,25 0 0 0 -35.355336,0 25,25 0 0 0 0,35.35534 L 373.74369,584.09903 a 25,25 0 0 0 35.35534,0 25,25 0 0 0 0,-35.35534 z" />
    <path
        d="M 250 0 A 25 25 0 0 0 225 25 L 225 825 A 25 25 0 0 0 250 850 A 25 25 0 0 0 275 825 L 275 25 A 25 25 0 0 0 250 0 z " />
</svg>