<svg width="500" height="850" xmlns="http://www.w3.org/2000/svg">
    <path
        d="M 250 100 A 5 5 0 0 0 245 105 A 5 5 0 0 0 250 110 A 5 5 0 0 0 255 105 A 5 5 0 0 0 250 100 z M 230 120 A 5 5 0 0 0 225 125 A 5 5 0 0 0 230 130 A 5 5 0 0 0 235 125 A 5 5 0 0 0 230 120 z M 250 120 A 5 5 0 0 0 245 125 A 5 5 0 0 0 250 130 A 5 5 0 0 0 255 125 A 5 5 0 0 0 250 120 z M 270 120 A 5 5 0 0 0 265 125 A 5 5 0 0 0 270 130 A 5 5 0 0 0 275 125 A 5 5 0 0 0 270 120 z M 250 140 A 5 5 0 0 0 245 145 A 5 5 0 0 0 250 150 A 5 5 0 0 0 255 145 A 5 5 0 0 0 250 140 z " />
</svg>