<svg width="500" height="850" inkscape:version="1.4 (e7c3feb1, 2024-10-09)"
  xmlns:sodipodi="http://sodipodi.sourceforge.net/DTD/sodipodi-0.dtd" xmlns="http://www.w3.org/2000/svg"
  xmlns:svg="http://www.w3.org/2000/svg">
  <defs id="defs2" />
  <path id="path2"
    d="M 50 400 A 25 25 0 0 0 25 425 A 25 25 0 0 0 25.255859 428.5625 A 225 225 0 0 0 250 650 A 225 225 0 0 0 281.94336 647.71484 A 225 225 0 0 0 300.46875 643.69727 A 225 225 0 0 0 313.2168 640.92383 A 225 225 0 0 0 333.89453 633.23828 A 225 225 0 0 0 343.2207 629.75977 A 225 225 0 0 0 362.06641 619.51172 A 225 225 0 0 0 371.35547 614.43945 A 225 225 0 0 0 388.36523 601.76367 A 225 225 0 0 0 397.01953 595.28516 A 225 225 0 0 0 405.44727 586.90234 A 25 25 0 0 0 409.09961 584.09961 A 25 25 0 0 0 412.4082 579.97656 A 225 225 0 0 0 412.51367 579.87305 A 225 225 0 0 0 419.69141 572.69531 A 225 225 0 0 0 432.85547 555.22852 A 225 225 0 0 0 438.94141 547.09766 A 225 225 0 0 0 449.42188 528.07422 A 225 225 0 0 0 454.36133 519.03125 A 225 225 0 0 0 461.99219 498.83398 A 225 225 0 0 0 465.63867 489.05859 A 225 225 0 0 0 470.18945 468.60352 A 225 225 0 0 0 472.54883 457.75977 A 225 225 0 0 0 474.12305 437.24805 A 225 225 0 0 0 475 425 A 225 225 0 0 0 474.74609 421.44141 A 25 25 0 0 0 450 400 A 25 25 0 0 0 425 425 A 175 175 0 0 1 390.12305 529.76758 L 267.67773 407.32227 A 25 25 0 0 0 250 400 A 25 25 0 0 0 225 425 A 25 25 0 0 0 232.36719 442.63281 L 232.32227 442.67773 L 354.79492 565.15039 A 175 175 0 0 1 277.37695 597.8457 A 175 175 0 0 1 250 600 A 175 175 0 0 1 75 425 A 25 25 0 0 0 50 400 z "
    transform="translate(-500,0200)" />
</svg>