<svg width="500" height="850" xmlns="http://www.w3.org/2000/svg">
   <path
      d="M 250 100 C 181.827 100 126.50391 154.60036 125.12891 222.44336 C 125.04291 223.28403 125 224.136 125 225 L 125 625 C 125 625.86333 125.04291 626.71531 125.12891 627.55664 C 126.50391 695.39964 181.827 750 250 750 C 297.929 749.694 330.31967 721.27167 338.38867 713.38867 C 348.15167 703.62567 348.15167 687.7962 338.38867 678.0332 C 328.62567 668.2702 312.7962 668.2702 303.0332 678.0332 L 302.83203 677.83203 A 75 75 0 0 1 250 700 C 208.579 700 175 666.421 175 625 L 175 225 C 175 183.579 208.579 150 250 150 A 75 75 0 0 1 302.83203 172.16797 L 303.0332 171.9668 C 312.7962 181.7298 328.62567 181.7298 338.38867 171.9668 C 348.15167 162.2038 348.15167 146.37433 338.38867 136.61133 C 330.29967 128.71133 297.914 100.306 250 100 z " />
</svg>