<svg width="500" height="850" xmlns="http://www.w3.org/2000/svg">
   <path d="M 150 99.998047 C 136.193 99.998047 125 111.19205 125 124.99805 C 125 138.80405 136.193 150 150 150 L 150 150.2832 A 75 75 0 0 1 203.0332 171.9668 C 217.6782 186.6118 225 205.806 225 225 L 225 325 L 225.01172 325 C 225.01172 356.99 237.20233 388.97967 261.61133 413.38867 A 121 121 0 0 0 275.28125 425 A 121 121 0 0 0 261.60938 436.61133 C 237.20238 461.02033 225 493.01 225 525 L 225 625 C 225 644.194 217.6782 663.3892 203.0332 678.0332 A 75 75 0 0 1 150 699.7168 L 150 700 C 136.193 700 125 711.193 125 725 C 125 738.807 136.193 750 150 750 C 161.305 749.868 204.29267 747.05267 238.38867 713.38867 C 262.79667 688.97967 275 656.99 275 625 L 275 525 C 275 505.806 282.3218 486.6108 296.9668 471.9668 A 75 75 0 0 1 350 450.2832 L 350 450.00195 A 24.92 24.92 0 0 0 367.67773 442.67773 A 24.939 24.939 0 0 0 374.49219 430.03906 A 25 25 0 0 0 375 425.00195 L 375 425 C 375 423.275 374.82519 421.58989 374.49219 419.96289 L 374.49219 419.96094 A 25 25 0 0 0 373.03516 415.27148 L 373.03516 415.26953 A 25 25 0 0 0 370.73047 411.02344 L 370.73047 411.02148 A 25 25 0 0 0 367.67773 407.32422 A 24.916 24.916 0 0 0 350 400 L 350 399.7168 A 75 75 0 0 1 296.9668 378.0332 C 282.3218 363.3882 275 344.194 275 325 L 275 225 C 275 193.01 262.79667 161.02033 238.38867 136.61133 C 204.28167 102.93633 161.28 100.13005 150 99.998047 z "/>
</svg>