<svg width="500" height="850" xmlns="http://www.w3.org/2000/svg" xmlns:svg="http://www.w3.org/2000/svg">
   <path
      d="M 250 0 A 25 25 0 0 0 225 25 L 225 201.93945 A 225 225 0 0 0 201.23438 205.49609 A 225 225 0 0 0 195.36719 207.19531 A 225 225 0 0 0 170.90039 214.49609 A 225 225 0 0 0 162.46484 218.30469 A 225 225 0 0 0 142.13867 227.65625 A 225 225 0 0 0 130.42578 235.10547 A 225 225 0 0 0 115.51758 244.71289 A 225 225 0 0 0 100.04102 257.98438 A 225 225 0 0 0 90.943359 265.86328 L 90.917969 265.88867 A 25 25 0 0 0 90.900391 265.90039 A 25 25 0 0 0 85.955078 273.30078 A 25 25 0 0 0 85.095703 275.94531 A 25 25 0 0 0 83.886719 282.02539 A 25 25 0 0 0 83.886719 285.13086 A 25 25 0 0 0 85.097656 291.21484 A 25 25 0 0 0 85.953125 293.85156 A 25 25 0 0 0 90.900391 301.25586 L 225 435.35547 L 225 598.0332 A 175 175 0 0 1 126.25586 548.74414 A 25 25 0 0 0 108.57812 541.42188 A 25 25 0 0 0 90.900391 548.74414 A 25 25 0 0 0 90.894531 584.0918 L 90.900391 584.09766 A 225 225 0 0 0 92.464844 585.45312 A 25 25 0 0 0 93.601562 586.4375 A 225 225 0 0 0 204.41602 645.13672 L 205.13867 645.24219 A 225 225 0 0 0 225 647.91602 L 225 825 A 25 25 0 0 0 250 850 A 25 25 0 0 0 275 825 L 275 648.06055 A 225 225 0 0 0 298.76562 644.50391 A 225 225 0 0 0 304.63281 642.80469 A 225 225 0 0 0 329.09961 635.50586 A 225 225 0 0 0 337.53516 631.69531 A 225 225 0 0 0 357.86133 622.34375 A 225 225 0 0 0 369.57422 614.89453 A 225 225 0 0 0 384.48242 605.28711 A 225 225 0 0 0 399.95898 592.01562 A 225 225 0 0 0 409.05664 584.13672 L 409.08203 584.11133 A 25 25 0 0 0 409.09961 584.09961 A 25 25 0 0 0 411.17773 581.73047 A 25 25 0 0 0 411.76172 580.88281 A 25 25 0 0 0 412.93945 579.11914 A 25 25 0 0 0 413.51953 578.01562 A 25 25 0 0 0 414.35547 576.32227 A 25 25 0 0 0 414.84375 575.0332 A 25 25 0 0 0 415.41406 573.35547 A 25 25 0 0 0 415.75 571.99219 A 25 25 0 0 0 416.08984 570.28125 A 25 25 0 0 0 416.26367 568.85352 A 25 25 0 0 0 416.375 567.14062 A 25 25 0 0 0 416.375 565.70312 A 25 25 0 0 0 416.26367 563.99023 A 25 25 0 0 0 416.08984 562.55859 A 25 25 0 0 0 415.75 560.85742 A 25 25 0 0 0 415.41406 559.48828 A 25 25 0 0 0 414.8418 557.80664 A 25 25 0 0 0 414.35547 556.52344 A 25 25 0 0 0 413.52344 554.83594 A 25 25 0 0 0 412.93945 553.72461 A 25 25 0 0 0 411.76172 551.96094 A 25 25 0 0 0 411.17773 551.11328 A 25 25 0 0 0 409.09961 548.74414 L 275 414.64453 L 275 251.9668 A 175 175 0 0 1 373.74414 301.25586 A 25 25 0 0 0 409.09961 301.25586 A 25 25 0 0 0 409.11719 265.92188 L 409.09961 265.90234 A 225 225 0 0 0 407.53516 264.54688 A 25 25 0 0 0 406.39844 263.5625 A 225 225 0 0 0 295.58398 204.86328 L 294.86133 204.75781 A 225 225 0 0 0 275 202.08398 L 275 25 A 25 25 0 0 0 250 0 z M 225 251.9668 L 225 364.64453 L 145.32422 284.96875 A 175 175 0 0 1 147.13672 283.42188 A 175 175 0 0 1 225 251.9668 z M 275 485.35547 L 354.67578 565.03125 A 175 175 0 0 1 277.37695 597.8457 A 175 175 0 0 1 275 598.0332 L 275 485.35547 z " />
</svg>