<svg width="500" height="850" xmlns="http://www.w3.org/2000/svg" xmlns:svg="http://www.w3.org/2000/svg">
   <path
      d="M 350 100 C 338.695 100.132 295.70733 102.94733 261.61133 136.61133 C 237.20333 161.02033 225 193.01 225 225 L 225 625 C 225 656.99 237.20333 688.97967 261.61133 713.38867 C 295.71833 747.06367 338.72 749.86995 350 750.00195 C 363.807 750.00195 375 738.80795 375 725.00195 C 375 711.19595 363.807 700 350 700 L 350 699.7168 A 75 75 0 0 1 296.9668 678.0332 C 282.3218 663.3882 275 644.194 275 625 L 275 225 C 275 205.806 282.3218 186.6108 296.9668 171.9668 A 75 75 0 0 1 350 150.2832 L 350 150 C 363.807 150 375 138.807 375 125 C 375 111.193 363.807 100 350 100 z M 253.40039 200.25195 A 25 25 0 0 1 255.72461 200.67969 A 25 25 0 0 0 253.40039 200.25195 z M 256.04883 200.74805 A 25 25 0 0 1 258.58594 201.53711 A 25 25 0 0 0 256.04883 200.74805 z M 273.46094 216.41211 L 273.46289 216.41406 A 25 25 0 0 1 274.25195 218.94922 A 25 25 0 0 0 273.46094 216.41211 z " />
</svg>