<svg width="500" height="850" xmlns="http://www.w3.org/2000/svg" xmlns:svg="http://www.w3.org/2000/svg">
   <path
      d="M 250 200 A 25 25 0 0 0 225 225 A 25 25 0 0 0 250 250 A 175 175 0 0 1 366.61133 294.51172 A 175 175 0 0 1 373.74414 301.25586 A 175 175 0 0 1 424.72461 415.1875 A 175 175 0 0 1 425 425 A 25 25 0 0 0 450 450 A 25 25 0 0 0 475 425 A 25 25 0 0 0 474.74414 421.4375 A 225 225 0 0 0 437.88477 301.56055 L 437.57031 301.13867 A 225 225 0 0 0 418.66992 276.35547 A 225 225 0 0 0 417.625 275.30664 A 225 225 0 0 0 396.13477 254.13086 A 225 225 0 0 0 393.47461 252.12695 A 225 225 0 0 0 370.71875 235.29883 A 225 225 0 0 0 365.62109 232.49023 A 225 225 0 0 0 342.89258 220.20898 A 225 225 0 0 0 334.64062 217.0918 A 225 225 0 0 0 313.25977 209.18555 A 225 225 0 0 0 300.17969 206.27344 A 225 225 0 0 0 282.35938 202.41992 A 225 225 0 0 0 262.78711 200.91797 A 225 225 0 0 0 250 200 z " />
</svg>