<svg width="500" height="850" xmlns="http://www.w3.org/2000/svg" xmlns:svg="http://www.w3.org/2000/svg">
    <path
        d="M 250 200 A 25 25 0 0 0 246.4375 200.25586 A 225 225 0 0 0 25 425 A 225 225 0 0 0 250 650 A 225 225 0 0 0 474.96875 426.24414 L 474.9707 426.22656 A 25 25 0 0 0 475 425 A 25 25 0 0 0 450 400 A 25 25 0 0 0 425 425 A 175 175 0 0 1 250 600 A 175 175 0 0 1 75 425 A 175 175 0 0 1 250 250 A 25 25 0 0 0 275 225 A 25 25 0 0 0 250 200 z " />
    <path
        d="M 104.66797 258.88672 A 25 25 0 0 0 90.900391 265.90039 A 25 25 0 0 0 90.900391 301.25586 L 373.74414 584.09961 A 25 25 0 0 0 409.09961 584.09961 A 25 25 0 0 0 409.09961 548.74414 L 126.25586 265.90039 A 25 25 0 0 0 104.66797 258.88672 z " />
    <path
        d="M 250 300 A 125 125 0 0 0 125 425 A 125 125 0 0 0 250 550 A 125 125 0 0 0 375 425 A 125 125 0 0 0 250 300 z M 250 350 A 75 75 0 0 1 325 425 A 75 75 0 0 1 250 500 A 75 75 0 0 1 175 425 A 75 75 0 0 1 250 350 z " />
</svg>