<svg width="500" height="850" xmlns="http://www.w3.org/2000/svg" xmlns:svg="http://www.w3.org/2000/svg">
   <path
      d="M 250 300 C 180.964 300 125 355.964 125 425 C 125 494.036 180.964 550 250 550 C 297.929 549.694 330.31967 521.27167 338.38867 513.38867 C 348.15167 503.62567 348.15167 487.7962 338.38867 478.0332 C 328.62567 468.2702 312.7962 468.2702 303.0332 478.0332 L 302.83203 477.83203 A 75 75 0 0 1 250 500 C 208.579 500 175 466.421 175 425 C 175 383.579 208.579 350 250 350 A 75 75 0 0 1 302.83203 372.16797 L 303.0332 371.9668 C 312.7962 381.7298 328.62567 381.7298 338.38867 371.9668 C 348.15167 362.2038 348.15167 346.37433 338.38867 336.61133 C 330.30067 328.71133 297.914 300.306 250 300 z " />
</svg>