<svg width="500" height="850" xmlns="http://www.w3.org/2000/svg">
   <path
      d="M 350 100 C 338.695 100.132 295.70733 102.94733 261.61133 136.61133 C 237.20333 161.02033 225 193.01 225 225 L 225 325 C 225 344.194 217.6782 363.3892 203.0332 378.0332 A 75 75 0 0 1 150 399.7168 L 150 399.99805 L 149.96094 400.00195 C 148.26294 400.00495 146.60205 400.17595 144.99805 400.50195 L 144.92383 400.51758 C 143.32183 400.84758 141.77869 401.33117 140.30469 401.95117 L 140.23828 401.98047 A 25 25 0 0 0 136.05273 404.25195 L 135.99609 404.28906 A 25 25 0 0 0 132.3457 407.30078 L 132.32227 407.32227 L 132.30469 407.3418 A 24.956 24.956 0 0 0 126.97266 415.25195 L 126.96484 415.26758 L 126.96484 415.26953 L 126.96094 415.28125 A 25 25 0 0 0 125.50781 419.96094 A 25 25 0 0 0 125 424.99609 L 125 425 C 125 426.725 125.17481 428.41011 125.50781 430.03711 L 125.50781 430.03906 A 25 25 0 0 0 126.96484 434.72852 L 126.96484 434.73047 A 25 25 0 0 0 129.26953 438.97656 L 129.26953 438.97852 A 25 25 0 0 0 132.32227 442.67578 A 25 25 0 0 0 140.26953 448.03516 A 25 25 0 0 0 144.96094 449.49219 A 25 25 0 0 0 150 450 L 150 450.2832 A 75 75 0 0 1 203.0332 471.9668 C 217.6782 486.6118 225 505.806 225 525 L 225 625 C 225 656.99 237.20333 688.97967 261.61133 713.38867 C 295.71833 747.06367 338.72 749.86995 350 750.00195 C 363.807 750.00195 375 738.80795 375 725.00195 C 375 711.19595 363.807 700 350 700 L 350 699.7168 A 75 75 0 0 1 296.9668 678.0332 C 282.3218 663.3882 275 644.194 275 625 L 275 525 C 275 493.01 262.79667 461.02033 238.38867 436.61133 A 121 121 0 0 0 224.71484 424.99805 A 121 121 0 0 0 238.38867 413.38867 C 262.79667 388.98267 275 356.99 275 325 L 275 225 C 275 205.806 282.3218 186.6108 296.9668 171.9668 A 75 75 0 0 1 350 150.2832 L 350 150 C 363.807 150 375 138.807 375 125 C 375 111.193 363.807 100 350 100 z " />
</svg>