<svg width="500" height="850" inkscape:version="1.4 (e7c3feb1, 2024-10-09)"
    xmlns:sodipodi="http://sodipodi.sourceforge.net/DTD/sodipodi-0.dtd" xmlns="http://www.w3.org/2000/svg"
    xmlns:svg="http://www.w3.org/2000/svg">
    <path
        d="M 250 200 A 225 225 0 0 0 218.05664 202.28516 A 225 225 0 0 0 199.53125 206.30273 A 225 225 0 0 0 186.7832 209.07617 A 225 225 0 0 0 166.10547 216.76172 A 225 225 0 0 0 156.7793 220.24023 A 225 225 0 0 0 137.93359 230.48828 A 225 225 0 0 0 128.64453 235.56055 A 225 225 0 0 0 111.63477 248.23633 A 225 225 0 0 0 102.98047 254.71484 A 225 225 0 0 0 94.890625 262.76172 A 25 25 0 0 0 90.900391 265.90039 A 25 25 0 0 0 88.208984 269.4082 A 225 225 0 0 0 87.486328 270.12695 A 225 225 0 0 0 80.308594 277.30469 A 225 225 0 0 0 67.144531 294.77148 A 225 225 0 0 0 61.058594 302.90234 A 225 225 0 0 0 50.578125 321.92578 A 225 225 0 0 0 45.638672 330.96875 A 225 225 0 0 0 38.007812 351.16602 A 225 225 0 0 0 34.361328 360.94141 A 225 225 0 0 0 29.810547 381.39648 A 225 225 0 0 0 27.451172 392.24023 A 225 225 0 0 0 25.876953 412.75195 A 225 225 0 0 0 25 425 A 25 25 0 0 0 50 450 A 25 25 0 0 0 75 425 A 175 175 0 0 1 77.154297 397.62305 A 175 175 0 0 1 110.15234 320.50781 L 232.32227 442.67773 L 232.36719 442.63281 A 25 25 0 0 0 250 450 A 25 25 0 0 0 275 425 A 25 25 0 0 0 267.67773 407.32227 L 145.51367 285.1582 A 175 175 0 0 1 250 250 A 175 175 0 0 1 425 425 A 25 25 0 0 0 450 450 A 25 25 0 0 0 475 425 A 25 25 0 0 0 474.74414 421.4375 A 225 225 0 0 0 250 200 z "
        transform="translate(-500,-200)" />
</svg>