<svg width="500" height="850" xmlns="http://www.w3.org/2000/svg">
    <path
        d="M -450 600 C -463.80712 600 -475 611.19288 -475 625 A 225 225 0 0 0 -250 850 A 225 225 0 0 0 -91.052734 784.25195 A 25 25 0 0 0 -90.900391 784.09961 A 25 25 0 0 0 -90.748047 783.94727 A 225 225 0 0 0 -25 625 C -25 611.19288 -36.19288 600 -50 600 C -63.80712 600 -75 611.19288 -75 625 A 175 175 0 0 1 -109.84766 729.79688 L -232.32227 607.32227 A 25 25 0 0 0 -250 600 A 25 25 0 0 0 -275 625 A 25 25 0 0 0 -267.63281 642.63281 L -267.67773 642.67773 L -145.20312 765.15234 A 175 175 0 0 1 -250 800 A 175 175 0 0 1 -425 625 C -425 611.19288 -436.19288 600 -450 600 z " />
</svg>