<?xml version="1.0" encoding="UTF-8" standalone="no"?>
<svg width="500" height="850" version="1.1" id="svg10" sodipodi:docname="uni02d9.svg" inkscape:version="1.4.3 (0d15f750, 2025-12-25)" xmlns:inkscape="http://www.inkscape.org/namespaces/inkscape" xmlns:sodipodi="http://sodipodi.sourceforge.net/DTD/sodipodi-0.dtd" xmlns="http://www.w3.org/2000/svg" xmlns:svg="http://www.w3.org/2000/svg">
    <defs id="defs10" />
    <sodipodi:namedview id="namedview10" pagecolor="#ffffff" bordercolor="#000000" borderopacity="0.25" inkscape:showpageshadow="2" inkscape:pageopacity="0.0" inkscape:pagecheckerboard="0" inkscape:deskcolor="#d1d1d1" inkscape:zoom="0.53647059" inkscape:cx="249.7807" inkscape:cy="425" inkscape:window-width="1080" inkscape:window-height="675" inkscape:window-x="0" inkscape:window-y="25" inkscape:window-maximized="0" inkscape:current-layer="svg10" />
    <path id="circle1" d="M 250 100 A 5 5 0 0 0 245 105 A 5 5 0 0 0 250 110 A 5 5 0 0 0 255 105 A 5 5 0 0 0 250 100 z M 230 120 A 5 5 0 0 0 225 125 A 5 5 0 0 0 230 130 A 5 5 0 0 0 235 125 A 5 5 0 0 0 230 120 z M 250 120 A 5 5 0 0 0 245 125 A 5 5 0 0 0 250 130 A 5 5 0 0 0 255 125 A 5 5 0 0 0 250 120 z M 270 120 A 5 5 0 0 0 265 125 A 5 5 0 0 0 270 130 A 5 5 0 0 0 275 125 A 5 5 0 0 0 270 120 z M 250 140 A 5 5 0 0 0 245 145 A 5 5 0 0 0 250 150 A 5 5 0 0 0 255 145 A 5 5 0 0 0 250 140 z " />
</svg>
