<svg width="500" height="850" xmlns="http://www.w3.org/2000/svg">
   <path
      d="M 150 99.998047 C 136.193 99.998047 125 111.19205 125 124.99805 C 125 138.80405 136.193 150 150 150 L 150 150.2832 A 75 75 0 0 1 203.0332 171.9668 C 217.6782 186.6118 225 205.806 225 225 L 225 625 C 225 644.194 217.6782 663.3892 203.0332 678.0332 A 75 75 0 0 1 150 699.7168 L 150 700 C 136.193 700 125 711.193 125 725 C 125 738.807 136.193 750 150 750 C 161.305 749.868 204.29267 747.05267 238.38867 713.38867 C 262.79667 688.97967 275 656.99 275 625 L 275 225 C 275 193.01 262.79667 161.02033 238.38867 136.61133 C 204.28167 102.93633 161.28 100.13005 150 99.998047 z M 253.40039 200.25195 A 25 25 0 0 1 255.72461 200.67969 A 25 25 0 0 0 253.40039 200.25195 z M 256.04883 200.74805 A 25 25 0 0 1 258.58594 201.53711 A 25 25 0 0 0 256.04883 200.74805 z M 273.46094 216.41211 L 273.46289 216.41406 A 25 25 0 0 1 274.25195 218.94922 A 25 25 0 0 0 273.46094 216.41211 z " />
</svg>