<svg width="500" height="850" xmlns="http://www.w3.org/2000/svg">
    <path
        d="M 250 300 A 125 125 0 0 0 125 425 A 125 125 0 0 0 250 550 A 125 125 0 0 0 338.38867 513.38867 A 25 25 0 0 0 345.71094 495.71094 A 25 25 0 0 0 320.71094 470.71094 A 25 25 0 0 0 303.0332 478.0332 A 75 75 0 0 1 250 500 A 75 75 0 0 1 175 425 A 75 75 0 0 1 250 350 A 75 75 0 0 1 303.0332 371.9668 A 25 25 0 0 0 320.71094 379.28906 A 25 25 0 0 0 345.71094 354.28906 A 25 25 0 0 0 338.38867 336.61133 A 125 125 0 0 0 250 300 z " />
</svg>