<svg width="500" height="850" inkscape:version="1.4 (e7c3feb1, 2024-10-09)"
    xmlns:sodipodi="http://sodipodi.sourceforge.net/DTD/sodipodi-0.dtd" xmlns="http://www.w3.org/2000/svg"
    xmlns:svg="http://www.w3.org/2000/svg">
    <path
        d="m 250,200 a 225,225 0 0 0 -31.94336,2.28516 225,225 0 0 0 -18.52539,4.01757 225,225 0 0 0 -12.74805,2.77344 225,225 0 0 0 -20.67773,7.68555 225,225 0 0 0 -9.32617,3.47851 225,225 0 0 0 -18.84571,10.24805 225,225 0 0 0 -9.28906,5.07227 225,225 0 0 0 -17.00976,12.67578 225,225 0 0 0 -8.6543,6.47851 225,225 0 0 0 -15.494142,15.41211 225,225 0 0 0 -7.177734,7.17774 225,225 0 0 0 -13.164063,17.46679 225,225 0 0 0 -6.085937,8.13086 225,225 0 0 0 -10.480469,19.02344 225,225 0 0 0 -4.939453,9.04297 225,225 0 0 0 -7.63086,20.19727 225,225 0 0 0 -3.646484,9.77539 225,225 0 0 0 -4.550781,20.45507 225,225 0 0 0 -2.359375,10.84375 225,225 0 0 0 -1.574219,20.51172 A 225,225 0 0 0 25,425 25,25 0 0 0 50,450 25,25 0 0 0 75,425 175,175 0 0 1 77.154297,397.62305 175,175 0 0 1 250,250 a 175,175 0 0 1 175,175 25,25 0 0 0 25,25 25,25 0 0 0 25,-25 25,25 0 0 0 -0.25586,-3.5625 A 225,225 0 0 0 250,200 Z"
        transform="translate(-500,-200)" />
</svg>