<svg width="500" height="850" xmlns="http://www.w3.org/2000/svg" xmlns:svg="http://www.w3.org/2000/svg">
    <path
        d="M 233.94922 200.57227 A 225 225 0 0 0 90.902344 265.90039 A 225 225 0 0 0 90.044922 583.19531 L 90.054688 583.21094 A 25 25 0 0 0 90.902344 584.09766 L 90.900391 584.09961 A 25 25 0 0 0 126.25586 584.09961 A 25 25 0 0 0 126.25586 548.74414 A 175 175 0 0 1 126.25586 301.25586 A 175 175 0 0 1 373.74414 301.25586 A 175 175 0 0 1 373.74414 548.74414 A 25 25 0 0 0 373.74414 584.09961 A 25 25 0 0 0 409.09961 584.09961 A 25 25 0 0 0 411.4375 581.39844 A 225 225 0 0 0 409.09961 265.90039 A 225 225 0 0 0 233.94922 200.57227 z " />
    <path
        d="M 250 300 A 125 125 0 0 0 125 425 A 125 125 0 0 0 250 550 A 125 125 0 0 0 375 425 A 125 125 0 0 0 250 300 z M 250 350 A 75 75 0 0 1 325 425 A 75 75 0 0 1 250 500 A 75 75 0 0 1 175 425 A 75 75 0 0 1 250 350 z " />
</svg>