<svg width="500" height="850" xmlns="http://www.w3.org/2000/svg">
    <path
        d="m -450,600 c -13.80712,0 -25,11.19288 -25,25 a 225,225 0 0 0 225,225 225,225 0 0 0 225,-225 c 0,-13.80712 -11.19288,-25 -25,-25 -13.80712,0 -25,11.19288 -25,25 A 175,175 0 0 1 -250,800 175,175 0 0 1 -425,625 c 0,-13.80712 -11.19288,-25 -25,-25 z" />
    <path d="M -250 600 A 25 25 0 0 0 -275 625 A 25 25 0 0 0 -267.63281 642.63281 L -267.67773 642.67773 L -126.25586 784.09961 A 25 25 0 0 0 -90.900391 784.09961 A 25 25 0 0 0 -90.900391 748.74414 L -232.32227 607.32227 A 25 25 0 0 0 -250 600 z "/>
</svg>