<svg width="500" height="850" xmlns="http://www.w3.org/2000/svg">
    <path
        d="M 250 200 A 225 225 0 0 0 25 425 A 225 225 0 0 0 250 650 A 225 225 0 0 0 409.09961 584.09961 A 25 25 0 0 0 416.42188 566.42188 A 25 25 0 0 0 391.42188 541.42188 A 25 25 0 0 0 373.74414 548.74414 A 175 175 0 0 1 250 600 A 175 175 0 0 1 75 425 A 175 175 0 0 1 250 250 A 175 175 0 0 1 373.74414 301.25586 A 25 25 0 0 0 391.42188 308.57812 A 25 25 0 0 0 416.42188 283.57812 A 25 25 0 0 0 409.09961 265.90039 A 225 225 0 0 0 250 200 z " />
    <path
        d="m 126.25631,265.90097 a 25,25 0 0 0 -35.355336,0 25,25 0 0 0 0,35.35534 L 373.74369,584.09903 a 25,25 0 0 0 35.35534,0 25,25 0 0 0 0,-35.35534 z" />
</svg>