<svg width="500" height="850" xmlns="http://www.w3.org/2000/svg">
    <path
        d="M -250 687.5 A 12.5 12.5 0 0 0 -262.5 700 A 12.5 12.5 0 0 0 -250 712.5 A 12.5 12.5 0 0 0 -237.5 700 A 12.5 12.5 0 0 0 -250 687.5 z M -250 712.5 A 12.5 12.5 0 0 0 -262.5 725 A 12.5 12.5 0 0 0 -250 737.5 A 12.5 12.5 0 0 0 -237.5 725 A 12.5 12.5 0 0 0 -250 712.5 z M -237.5 725 A 12.5 12.5 0 0 0 -225 737.5 A 12.5 12.5 0 0 0 -212.5 725 A 12.5 12.5 0 0 0 -225 712.5 A 12.5 12.5 0 0 0 -237.5 725 z M -250 737.5 A 12.5 12.5 0 0 0 -262.5 750 A 12.5 12.5 0 0 0 -250 762.5 A 12.5 12.5 0 0 0 -237.5 750 A 12.5 12.5 0 0 0 -250 737.5 z M -262.5 725 A 12.5 12.5 0 0 0 -275 712.5 A 12.5 12.5 0 0 0 -287.5 725 A 12.5 12.5 0 0 0 -275 737.5 A 12.5 12.5 0 0 0 -262.5 725 z " />
</svg>