<svg width="500" height="850" xmlns="http://www.w3.org/2000/svg" xmlns:svg="http://www.w3.org/2000/svg">
    <path
        d="M262.256 200.623a225 225 0 0 0-29.736.22 225 225 0 0 0-3.442.485 225 225 0 0 0-27.844 4.168 225 225 0 0 0-5.867 1.7 225 225 0 0 0-24.467 7.3 225 225 0 0 0-8.435 3.809 225 225 0 0 0-20.326 9.351 225 225 0 0 0-11.713 7.45 225 225 0 0 0-14.908 9.607 225 225 0 0 0-15.477 13.271 225 225 0 0 0-9.098 7.88l-.04.038-.003-.002a25 25 0 0 0 0 35.356 25 25 0 0 0 35.356 0 175 175 0 0 1 20.88-17.834 175 175 0 0 1 226.608 17.834 25 25 0 0 0 35.356 0 25 25 0 0 0 .017-35.334l-.017-.02a225 225 0 0 0-1.565-1.355 25 25 0 0 0-1.137-.984 225 225 0 0 0-110.814-58.7l-.723-.105a225 225 0 0 0-30.668-4.13 225 225 0 0 0-1.937-.005z" />
</svg>