<svg width="500" height="850" xmlns="http://www.w3.org/2000/svg">
    <path
        d="M 264.05469 200.60938 A 225 225 0 0 0 232.30859 200.8457 A 225 225 0 0 0 232.22852 200.85547 A 225 225 0 0 0 203.14844 205.21094 A 225 225 0 0 0 196.00195 207.00586 A 225 225 0 0 0 174.65039 213.37695 A 225 225 0 0 0 165.96094 216.69727 A 225 225 0 0 0 147.13281 225.35938 A 225 225 0 0 0 138.60547 229.83594 A 225 225 0 0 0 120.38281 241.58203 A 225 225 0 0 0 113.60352 246.24023 A 225 225 0 0 0 91.341797 265.46875 A 25 25 0 0 0 90.900391 265.90039 A 25 25 0 0 0 83.578125 283.57812 A 25 25 0 0 0 84.429688 290.04883 A 25 25 0 0 0 90.900391 301.25586 L 145.7207 356.07617 A 125 125 0 0 0 125 425 A 125 125 0 0 0 250 550 A 125 125 0 0 0 318.92383 529.2793 L 354.79688 565.15234 A 175 175 0 0 1 272.8418 598.50391 A 175 175 0 0 1 126.25586 548.74414 A 25 25 0 0 0 108.57812 541.42188 A 25 25 0 0 0 90.900391 548.74414 A 25 25 0 0 0 90.705078 583.90234 A 225 225 0 0 0 90.900391 584.09766 A 25 25 0 0 0 90.900391 584.09961 A 25 25 0 0 0 91.091797 584.28906 A 25 25 0 0 0 93.601562 586.4375 A 225 225 0 0 0 117.33594 606.38477 A 225 225 0 0 0 120.19727 608.29492 A 225 225 0 0 0 143.33594 622.72656 A 225 225 0 0 0 148.75977 625.40234 A 225 225 0 0 0 171.30664 635.37305 A 225 225 0 0 0 178.49219 637.81836 A 225 225 0 0 0 200.72852 644.0957 A 225 225 0 0 0 209.16016 645.7832 A 225 225 0 0 0 231.0957 648.73828 A 225 225 0 0 0 240.30273 649.35742 A 225 225 0 0 0 261.86523 649.19727 A 225 225 0 0 0 271.46094 648.5918 A 225 225 0 0 0 292.47656 645.44336 A 225 225 0 0 0 302.09375 643.56055 A 225 225 0 0 0 322.4082 637.5 A 225 225 0 0 0 331.67969 634.38867 A 225 225 0 0 0 351.41016 625.31055 A 225 225 0 0 0 359.64258 621.29297 A 225 225 0 0 0 379.88477 608.24609 A 225 225 0 0 0 385.52344 604.51562 A 225 225 0 0 0 408.71289 584.47852 A 25 25 0 0 0 409.09961 584.09961 A 25 25 0 0 0 416.42188 566.42188 A 25 25 0 0 0 415.57031 559.95117 A 25 25 0 0 0 409.09961 548.74414 L 354.2793 493.92383 A 125 125 0 0 0 375 425 A 125 125 0 0 0 250 300 A 125 125 0 0 0 181.07617 320.7207 L 145.20312 284.84766 A 175 175 0 0 1 373.74414 301.25586 A 25 25 0 0 0 409.09961 301.25586 A 25 25 0 0 0 409.29492 266.09766 A 225 225 0 0 0 409.09961 265.90234 A 225 225 0 0 0 409.09961 265.90039 A 25 25 0 0 0 408.9082 265.71094 A 25 25 0 0 0 406.39844 263.5625 A 225 225 0 0 0 383.00781 243.9043 A 225 225 0 0 0 379.81055 241.71094 A 225 225 0 0 0 357.33789 227.69336 A 225 225 0 0 0 352.21484 225.0293 A 225 225 0 0 0 329.30859 214.89844 A 225 225 0 0 0 323.69141 212.79883 A 225 225 0 0 0 298.67773 205.73633 A 225 225 0 0 0 294.28516 204.67969 A 225 225 0 0 0 264.05469 200.60938 z M 250 350 A 75 75 0 0 1 325 425 A 75 75 0 0 1 317.67773 457.32227 L 217.67773 357.32227 A 75 75 0 0 1 250 350 z M 182.32227 392.67773 L 282.32227 492.67773 A 75 75 0 0 1 250 500 A 75 75 0 0 1 175 425 A 75 75 0 0 1 182.32227 392.67773 z " />
</svg>