<?xml version="1.0" encoding="UTF-8" standalone="no"?>
<svg width="500" height="850" version="1.1" id="svg4" sodipodi:docname="uni25cc.svg" inkscape:version="1.4.2 (ebf0e940, 2025-05-08)" xmlns:inkscape="http://www.inkscape.org/namespaces/inkscape" xmlns:sodipodi="http://sodipodi.sourceforge.net/DTD/sodipodi-0.dtd" xmlns="http://www.w3.org/2000/svg" xmlns:svg="http://www.w3.org/2000/svg">
    <defs id="defs4" />
    <sodipodi:namedview id="namedview4" pagecolor="#ffffff" bordercolor="#000000" borderopacity="0.25" inkscape:showpageshadow="2" inkscape:pageopacity="0.0" inkscape:pagecheckerboard="0" inkscape:deskcolor="#d1d1d1" inkscape:zoom="0.31652174" inkscape:cx="259.06593" inkscape:cy="426.51099" inkscape:window-width="1080" inkscape:window-height="675" inkscape:window-x="0" inkscape:window-y="25" inkscape:window-maximized="0" inkscape:current-layer="svg4" />
    <path id="path1" d="M 250 200 A 25 25 0 0 0 225 225 A 25 25 0 0 0 250 250 A 25 25 0 0 0 275 225 A 25 25 0 0 0 250 200 z M 108.01758 258.58594 A 25 25 0 0 0 104.66797 258.88672 A 25 25 0 0 0 90.900391 265.90039 A 25 25 0 0 0 90.900391 301.25586 L 145.7207 356.07617 A 125 125 0 0 0 125 425 A 125 125 0 0 0 250 550 A 125 125 0 0 0 318.92383 529.2793 L 373.74414 584.09961 A 25 25 0 0 0 409.09961 584.09961 A 25 25 0 0 0 409.09961 548.74414 L 354.2793 493.92383 A 125 125 0 0 0 375 425 A 125 125 0 0 0 250 300 A 125 125 0 0 0 181.07617 320.7207 L 126.25586 265.90039 A 25 25 0 0 0 108.01758 258.58594 z M 250 350 A 75 75 0 0 1 325 425 A 75 75 0 0 1 317.67773 457.32227 L 217.67773 357.32227 A 75 75 0 0 1 250 350 z M 182.32227 392.67773 L 282.32227 492.67773 A 75 75 0 0 1 250 500 A 75 75 0 0 1 175 425 A 75 75 0 0 1 182.32227 392.67773 z M 50 400 A 25 25 0 0 0 25 425 A 25 25 0 0 0 50 450 A 25 25 0 0 0 75 425 A 25 25 0 0 0 50 400 z M 450 400 A 25 25 0 0 0 425 425 A 25 25 0 0 0 450 450 A 25 25 0 0 0 475 425 A 25 25 0 0 0 450 400 z M 250 600 A 25 25 0 0 0 225 625 A 25 25 0 0 0 250 650 A 25 25 0 0 0 275 625 A 25 25 0 0 0 250 600 z " />
</svg>
