<svg width="500" height="850" xmlns="http://www.w3.org/2000/svg">
    <path
        d="M 250 200 A 25 25 0 0 0 225 225 A 25 25 0 0 0 250 250 A 25 25 0 0 0 275 225 A 25 25 0 0 0 250 200 z M 108.57812 258.57812 A 25 25 0 0 0 91.349609 265.46094 A 225 225 0 0 0 90.943359 265.86328 A 25 25 0 0 0 90.902344 265.90234 L 90.900391 265.90039 A 25 25 0 0 0 89.824219 267.12891 A 25 25 0 0 0 88.5625 268.60156 A 225 225 0 0 0 88.554688 268.60938 A 25 25 0 0 0 90.900391 301.25586 A 25 25 0 0 0 126.25586 301.25586 A 25 25 0 0 0 126.25586 265.90039 A 25 25 0 0 0 108.57812 258.57812 z M 391.42188 258.57812 A 25 25 0 0 0 373.74414 265.90039 A 25 25 0 0 0 373.74414 301.25586 A 25 25 0 0 0 409.09961 301.25586 A 25 25 0 0 0 409.48438 266.29297 A 225 225 0 0 0 409.13672 265.94336 A 25 25 0 0 0 409.09766 265.90234 L 409.09961 265.90234 L 409.09961 265.90039 A 25 25 0 0 0 408.75977 265.58398 A 25 25 0 0 0 406.39844 263.5625 A 225 225 0 0 0 406.38867 263.55273 A 25 25 0 0 0 391.42188 258.57812 z M 50 400 A 25 25 0 0 0 25 425 A 25 25 0 0 0 50 450 A 25 25 0 0 0 75 425 A 25 25 0 0 0 50 400 z M 450 400 A 25 25 0 0 0 425 425 A 25 25 0 0 0 450 450 A 25 25 0 0 0 475 425 A 25 25 0 0 0 450 400 z M 108.57812 541.42188 A 25 25 0 0 0 90.900391 548.74414 A 25 25 0 0 0 90.515625 583.70508 A 225 225 0 0 0 90.863281 584.05664 A 25 25 0 0 0 90.902344 584.09766 L 90.900391 584.09766 A 25 25 0 0 0 90.900391 584.09961 A 25 25 0 0 0 92.128906 585.17578 A 25 25 0 0 0 93.601562 586.4375 A 225 225 0 0 0 93.609375 586.44531 A 25 25 0 0 0 126.25586 584.09961 A 25 25 0 0 0 126.25586 548.74414 A 25 25 0 0 0 108.57812 541.42188 z M 391.42188 541.42188 A 25 25 0 0 0 373.74414 548.74414 A 25 25 0 0 0 373.74414 584.09961 A 25 25 0 0 0 408.70703 584.48438 A 225 225 0 0 0 409.05664 584.13672 A 25 25 0 0 0 409.09766 584.09766 L 409.09766 584.09961 L 409.09961 584.09961 A 225 225 0 0 0 409.11523 584.08203 A 225 225 0 0 0 411.24023 581.6582 A 25 25 0 0 0 411.4375 581.39844 A 225 225 0 0 0 411.44531 581.39062 A 25 25 0 0 0 409.09961 548.74414 A 25 25 0 0 0 391.42188 541.42188 z M 250 600 A 25 25 0 0 0 225 625 A 25 25 0 0 0 250 650 A 25 25 0 0 0 275 625 A 25 25 0 0 0 250 600 z " />
</svg>