<?xml version="1.0" encoding="UTF-8" standalone="no"?>
<svg width="500" height="850" version="1.1" id="svg2" sodipodi:docname="tmp.svg" inkscape:version="1.4.2 (ebf0e940, 2025-05-08)" xmlns:inkscape="http://www.inkscape.org/namespaces/inkscape" xmlns:sodipodi="http://sodipodi.sourceforge.net/DTD/sodipodi-0.dtd" xmlns="http://www.w3.org/2000/svg" xmlns:svg="http://www.w3.org/2000/svg">
    <defs id="defs2" />
    <sodipodi:namedview id="namedview2" pagecolor="#ffffff" bordercolor="#000000" borderopacity="0.25" inkscape:showpageshadow="2" inkscape:pageopacity="0.0" inkscape:pagecheckerboard="0" inkscape:deskcolor="#d1d1d1" inkscape:zoom="0.31652174" inkscape:cx="259.06593" inkscape:cy="426.51099" inkscape:window-width="1080" inkscape:window-height="675" inkscape:window-x="0" inkscape:window-y="25" inkscape:window-maximized="0" inkscape:current-layer="svg2" />
    <path id="path1" d="M 108.57812 258.57812 A 25 25 0 0 0 91.097656 265.70508 A 25 25 0 0 0 90.900391 265.90039 A 25 25 0 0 0 90.710938 266.0918 A 25 25 0 0 0 88.5625 268.60156 A 225 225 0 0 0 68.613281 292.33789 A 225 225 0 0 0 66.710938 295.1875 A 225 225 0 0 0 52.273438 318.33594 A 225 225 0 0 0 49.597656 323.75977 A 225 225 0 0 0 39.626953 346.30664 A 225 225 0 0 0 37.181641 353.49219 A 225 225 0 0 0 30.904297 375.72852 A 225 225 0 0 0 29.216797 384.16016 A 225 225 0 0 0 26.261719 406.0957 A 225 225 0 0 0 25.642578 415.30273 A 225 225 0 0 0 25.802734 436.86523 A 225 225 0 0 0 26.408203 446.46094 A 225 225 0 0 0 29.556641 467.47656 A 225 225 0 0 0 31.439453 477.09375 A 225 225 0 0 0 37.5 497.4082 A 225 225 0 0 0 40.611328 506.67969 A 225 225 0 0 0 49.689453 526.41016 A 225 225 0 0 0 53.707031 534.64258 A 225 225 0 0 0 66.753906 554.88477 A 225 225 0 0 0 70.484375 560.52344 A 225 225 0 0 0 90.863281 584.05664 A 25 25 0 0 0 90.902344 584.09766 L 90.900391 584.09961 A 25 25 0 0 0 93.359375 586.25586 A 25 25 0 0 0 126.25586 584.09961 A 25 25 0 0 0 126.25586 548.74414 A 175 175 0 0 1 126.25586 301.25586 A 25 25 0 0 0 126.25586 265.90039 A 25 25 0 0 0 108.57812 258.57812 z M 391.42188 258.57812 A 25 25 0 0 0 373.74414 265.90039 A 25 25 0 0 0 373.74414 301.25586 A 175 175 0 0 1 373.74414 548.74414 A 25 25 0 0 0 373.74414 584.09961 A 25 25 0 0 0 408.90234 584.29492 A 225 225 0 0 0 409.09766 584.09961 A 225 225 0 0 0 409.28906 583.9082 A 25 25 0 0 0 411.4375 581.39844 A 225 225 0 0 0 431.38477 557.66406 A 225 225 0 0 0 433.29492 554.80273 A 225 225 0 0 0 447.72656 531.66406 A 225 225 0 0 0 450.40234 526.24023 A 225 225 0 0 0 460.37305 503.69336 A 225 225 0 0 0 462.81836 496.50781 A 225 225 0 0 0 469.0957 474.27148 A 225 225 0 0 0 470.7832 465.83984 A 225 225 0 0 0 473.73828 443.9043 A 225 225 0 0 0 474.35742 434.69727 A 225 225 0 0 0 474.19727 413.13477 A 225 225 0 0 0 473.5918 403.53906 A 225 225 0 0 0 470.44336 382.52344 A 225 225 0 0 0 468.56055 372.90625 A 225 225 0 0 0 462.5 352.5918 A 225 225 0 0 0 459.38867 343.32031 A 225 225 0 0 0 450.31055 323.58984 A 225 225 0 0 0 446.29297 315.35742 A 225 225 0 0 0 433.24609 295.11523 A 225 225 0 0 0 429.51562 289.47656 A 225 225 0 0 0 409.13672 265.94336 A 25 25 0 0 0 409.09766 265.90234 L 409.09961 265.90039 A 25 25 0 0 0 391.42188 258.57812 z " />
</svg>
