<svg width="500" height="850" version="1.1" id="svg3" sodipodi:docname="uni002a.svg"
    inkscape:version="1.4.2 (ebf0e940, 2025-05-08)" xmlns:inkscape="http://www.inkscape.org/namespaces/inkscape"
    xmlns:sodipodi="http://sodipodi.sourceforge.net/DTD/sodipodi-0.dtd" xmlns="http://www.w3.org/2000/svg"
    xmlns:svg="http://www.w3.org/2000/svg">
    <defs id="defs3" />

    <path id="path1"
        d="M 250 200 L 225 225 L 225 375 L 175 325 L 162.5 312.5 L 150 300 L 125 325 L 137.5 337.5 L 150 350 L 225 425 L 150 500 L 137.5 512.5 L 125 525 L 150 550 L 162.5 537.5 L 175 525 L 225 475 L 225 625 L 250 650 L 275 625 L 275 475 L 325 525 L 337.5 537.5 L 350 550 L 375 525 L 362.5 512.5 L 350 500 L 275 425 L 350 350 L 362.5 337.5 L 375 325 L 350 300 L 337.5 312.5 L 325 325 L 275 375 L 275 225 L 250 200 z " />
</svg>