<svg width="500" height="850" xmlns="http://www.w3.org/2000/svg">
    <path
        d="m250 200-25 25-87.5 87.5L125 325l25 25 12.5-12.5L250 250l175 175-75 75-25 25-75 75-75-75-25-25-25 25 12.5 12.5L250 650l100-100 25-25 75-75 25-25-200-200z" />
    <path
        d="M 250 300 L 200 350 L 187.5 362.5 L 175 375 L 200 400 L 212.5 387.5 L 225 375 L 250 350 L 325 425 L 250 500 L 225 475 L 212.5 462.5 L 200 450 L 175 475 L 187.5 487.5 L 200 500 L 250 550 L 375 425 L 250 300 z " />
    <polygon points="250 400 275 425 250 450 225 425" style="" />
</svg>