<svg width="500" height="850" version="1.1" id="svg5" sodipodi:docname="uni003a.svg"
    inkscape:version="1.4.2 (ebf0e940, 2025-05-08)" xmlns:inkscape="http://www.inkscape.org/namespaces/inkscape"
    xmlns:sodipodi="http://sodipodi.sourceforge.net/DTD/sodipodi-0.dtd" xmlns="http://www.w3.org/2000/svg"
    xmlns:svg="http://www.w3.org/2000/svg">
    <defs id="defs5" />

    <path id="path1"
        d="M 250 200 L 225 225 L 250 250 L 275 225 L 250 200 z M 150 300 L 125 325 L 137.5 337.5 L 150 350 L 225 425 L 250 450 L 325 525 L 337.5 537.5 L 350 550 L 375 525 L 362.5 512.5 L 350 500 L 275 425 L 250 400 L 175 325 L 162.5 312.5 L 150 300 z M 50 400 L 25 425 L 50 450 L 75 425 L 50 400 z M 450 400 L 425 425 L 450 450 L 475 425 L 450 400 z M 250 600 L 225 625 L 250 650 L 275 625 L 250 600 z " />
</svg>