<svg width="500" height="850" xmlns="http://www.w3.org/2000/svg">
    <path
        d="M 350 300 L 337.5 312.5 L 325 325 L 150 500 L 137.5 512.5 L 125 525 L 150 550 L 162.5 537.5 L 175 525 L 350 350 L 362.5 337.5 L 375 325 L 350 300 z " />

    <path
        d="M 150 300 L 125 325 L 137.5 337.5 L 150 350 L 325 525 L 337.5 537.5 L 350 550 L 375 525 L 362.5 512.5 L 350 500 L 175 325 L 162.5 312.5 L 150 300 z " />

    <path
        d="M 250 300 L 200 350 L 187.5 362.5 L 175 375 L 200 400 L 212.5 387.5 L 225 375 L 250 350 L 300 400 L 325 375 L 312.5 362.5 L 300 350 L 250 300 z M 200 450 L 175 475 L 187.5 487.5 L 200 500 L 250 550 L 300 500 L 312.5 487.5 L 325 475 L 300 450 L 250 500 L 212.5 462.5 L 200 450 z " />
</svg>