<svg width="500" height="850" xmlns="http://www.w3.org/2000/svg">
    <path
        d="M 250 0 L 225 25 L 225 225 L 150 300 L 137.5 312.5 L 125 325 L 137.5 337.5 L 150 350 L 225 425 L 225 575 L 150 500 L 125 525 L 137.5 537.5 L 150 550 L 225 625 L 225 825 L 250 850 L 275 825 L 275 625 L 350 550 L 375 525 L 362.5 512.5 L 350 500 L 275 425 L 275 275 L 325 325 L 350 350 L 375 325 L 362.5 312.5 L 275 225 L 275 25 L 250 0 z M 225 275 L 225 375 L 175 325 L 225 275 z M 275 475 L 325 525 L 275 575 L 275 475 z " />
</svg>