<svg width="500" height="850" version="1.1" id="svg2" sodipodi:docname="uni0026.svg"
    inkscape:version="1.4.2 (ebf0e940, 2025-05-08)" xmlns:inkscape="http://www.inkscape.org/namespaces/inkscape"
    xmlns:sodipodi="http://sodipodi.sourceforge.net/DTD/sodipodi-0.dtd" xmlns="http://www.w3.org/2000/svg"
    xmlns:svg="http://www.w3.org/2000/svg">
    <defs id="defs2" />

    <path id="path1"
        d="M 250 200 L 225 225 L 137.5 312.5 L 125 325 L 150 350 L 162.5 337.5 L 250 250 L 425 425 L 350 500 L 325 525 L 250 600 L 175 525 L 150 500 L 125 525 L 137.5 537.5 L 250 650 L 350 550 L 375 525 L 450 450 L 475 425 L 275 225 L 250 200 z M 250 300 L 200 350 L 187.5 362.5 L 175 375 L 200 400 L 212.5 387.5 L 225 375 L 250 350 L 325 425 L 250 500 L 225 475 L 212.5 462.5 L 200 450 L 175 475 L 187.5 487.5 L 200 500 L 250 550 L 375 425 L 250 300 z M 250 400 L 225 425 L 250 450 L 275 425 L 250 400 z " />
</svg>