<svg width="500" height="850" xmlns="http://www.w3.org/2000/svg" xmlns:svg="http://www.w3.org/2000/svg">
    <path
        d="m250 200-25 25-87.5 87.5L125 325l25 25 12.5-12.5L250 250l175 175-75 75-25 25-75 75-75-75-25-25-25 25 12.5 12.5L250 650l100-100 25-25 75-75 25-25-200-200z" />
    <path
        d="M 150 300 L 125 325 L 137.5 337.5 L 150 350 L 325 525 L 337.5 537.5 L 350 550 L 375 525 L 362.5 512.5 L 350 500 L 175 325 L 162.5 312.5 L 150 300 z " />
    <path
        d="M 250 300 L 125 425 L 250 550 L 375 425 L 250 300 z M 250 350 L 325 425 L 250 500 L 175 425 L 250 350 z " />
</svg>