<svg width="500" height="850" xmlns="http://www.w3.org/2000/svg">
    <path d="M 250 200 L 225 225 L 150 300 L 137.5 312.5 L 125 325 L 137.5 337.5 L 150 350 L 175 375 L 125 425 L 250 550 L 300 500 L 325 525 L 250 600 L 175 525 L 150 500 L 125 525 L 137.5 537.5 L 150 550 L 250 650 L 350 550 L 375 525 L 362.5 512.5 L 350 500 L 325 475 L 375 425 L 250 300 L 200 350 L 175 325 L 250 250 L 350 350 L 375 325 L 362.5 312.5 L 275 225 L 250 200 z M 250 350 L 325 425 L 300 450 L 225 375 L 250 350 z M 200 400 L 275 475 L 250 500 L 175 425 L 200 400 z "/>
</svg>