<svg width="500" height="850" xmlns="http://www.w3.org/2000/svg">
    <path
        d="M 25 200 L 25 250 L 125 350 L 125 400 L 25 400 L 25 450 L 125 450 L 125 500 L 25 600 L 25 650 L 75 650 L 175 550 L 325 550 L 425 650 L 475 650 L 475 600 L 375 500 L 375 450 L 475 450 L 475 400 L 375 400 L 375 350 L 475 250 L 475 200 L 425 200 L 325 300 L 175 300 L 75 200 L 25 200 z M 175 350 L 225 350 L 275 350 L 325 350 L 325 400 L 175 400 L 175 350 z M 175 450 L 225 450 L 225 500 L 175 500 L 175 450 z M 275 450 L 325 450 L 325 500 L 275 500 L 275 450 z " />
</svg>