<?xml-stylesheet href="../../style/figure.css" type="text/css"?>
<?xml-stylesheet href="../../style/fonts.css" type="text/css"?>
<?xml-stylesheet href="../../style/pages.css" type="text/css"?>
<svg xmlns="http://www.w3.org/2000/svg" width="512" height="512">
    <line x1="256" y1="511.99999999999994" x2="329.9008344562721" y2="384" stroke-width="1" stroke-linecap="round" />
    <line x1="256" y1="511.99999999999994" x2="256" y2="341.3333333333333" stroke-width="1" stroke-linecap="round" />
    <line x1="329.9008344562721" y1="469.3333333333333" x2="256" y2="341.3333333333333" stroke-width="1" stroke-linecap="round" />
    <line x1="329.9008344562721" y1="469.3333333333333" x2="182.0991655437279" y2="383.99999999999994" stroke-width="1" stroke-linecap="round" />
    <line x1="329.9008344562721" y1="384" x2="182.0991655437279" y2="383.99999999999994" stroke-width="1" stroke-linecap="round" />
    <line x1="329.9008344562721" y1="384" x2="182.0991655437279" y2="469.3333333333333" stroke-width="1" stroke-linecap="round" />
    <line x1="256" y1="341.3333333333333" x2="182.0991655437279" y2="469.3333333333333" stroke-width="1" stroke-linecap="round" />
    <line x1="256" y1="341.3333333333333" x2="255.99999999999997" y2="511.99999999999994" stroke-width="1" stroke-linecap="round" />
    <line x1="182.0991655437279" y1="383.99999999999994" x2="255.99999999999997" y2="511.99999999999994" stroke-width="1" stroke-linecap="round" />
    <line x1="182.0991655437279" y1="383.99999999999994" x2="329.90083445627204" y2="469.33333333333337" stroke-width="1" stroke-linecap="round" />
    <line x1="182.0991655437279" y1="469.3333333333333" x2="329.90083445627204" y2="469.33333333333337" stroke-width="1" stroke-linecap="round" />
    <line x1="182.0991655437279" y1="469.3333333333333" x2="329.90083445627215" y2="384" stroke-width="1" stroke-linecap="round" />
    <line x1="403.8016689125442" y1="426.6666666666667" x2="477.7025033688163" y2="298.66666666666674" stroke-width="1" stroke-linecap="round" />
    <line x1="403.8016689125442" y1="426.6666666666667" x2="403.8016689125442" y2="256.00000000000006" stroke-width="1" stroke-linecap="round" />
    <line x1="477.7025033688163" y1="384.00000000000006" x2="403.8016689125442" y2="256.00000000000006" stroke-width="1" stroke-linecap="round" />
    <line x1="477.7025033688163" y1="384.00000000000006" x2="329.9008344562721" y2="298.6666666666667" stroke-width="1" stroke-linecap="round" />
    <line x1="477.7025033688163" y1="298.66666666666674" x2="329.9008344562721" y2="298.6666666666667" stroke-width="1" stroke-linecap="round" />
    <line x1="477.7025033688163" y1="298.66666666666674" x2="329.9008344562721" y2="384.00000000000006" stroke-width="1" stroke-linecap="round" />
    <line x1="403.8016689125442" y1="256.00000000000006" x2="329.9008344562721" y2="384.00000000000006" stroke-width="1" stroke-linecap="round" />
    <line x1="403.8016689125442" y1="256.00000000000006" x2="403.8016689125442" y2="426.6666666666667" stroke-width="1" stroke-linecap="round" />
    <line x1="329.9008344562721" y1="298.6666666666667" x2="403.8016689125442" y2="426.6666666666667" stroke-width="1" stroke-linecap="round" />
    <line x1="329.9008344562721" y1="298.6666666666667" x2="477.7025033688162" y2="384.0000000000001" stroke-width="1" stroke-linecap="round" />
    <line x1="329.9008344562721" y1="384.00000000000006" x2="477.7025033688162" y2="384.0000000000001" stroke-width="1" stroke-linecap="round" />
    <line x1="329.9008344562721" y1="384.00000000000006" x2="477.70250336881634" y2="298.66666666666674" stroke-width="1" stroke-linecap="round" />
    <line x1="403.8016689125442" y1="256.00000000000006" x2="477.7025033688163" y2="128.00000000000006" stroke-width="1" stroke-linecap="round" />
    <line x1="403.8016689125442" y1="256.00000000000006" x2="403.8016689125442" y2="85.33333333333339" stroke-width="1" stroke-linecap="round" />
    <line x1="477.7025033688163" y1="213.33333333333337" x2="403.8016689125442" y2="85.33333333333339" stroke-width="1" stroke-linecap="round" />
    <line x1="477.7025033688163" y1="213.33333333333337" x2="329.9008344562721" y2="128" stroke-width="1" stroke-linecap="round" />
    <line x1="477.7025033688163" y1="128.00000000000006" x2="329.9008344562721" y2="128" stroke-width="1" stroke-linecap="round" />
    <line x1="477.7025033688163" y1="128.00000000000006" x2="329.9008344562721" y2="213.33333333333337" stroke-width="1" stroke-linecap="round" />
    <line x1="403.8016689125442" y1="85.33333333333339" x2="329.9008344562721" y2="213.33333333333337" stroke-width="1" stroke-linecap="round" />
    <line x1="403.8016689125442" y1="85.33333333333339" x2="403.8016689125442" y2="256.00000000000006" stroke-width="1" stroke-linecap="round" />
    <line x1="329.9008344562721" y1="128" x2="403.8016689125442" y2="256.00000000000006" stroke-width="1" stroke-linecap="round" />
    <line x1="329.9008344562721" y1="128" x2="477.7025033688162" y2="213.33333333333343" stroke-width="1" stroke-linecap="round" />
    <line x1="329.9008344562721" y1="213.33333333333337" x2="477.7025033688162" y2="213.33333333333343" stroke-width="1" stroke-linecap="round" />
    <line x1="329.9008344562721" y1="213.33333333333337" x2="477.70250336881634" y2="128.0000000000001" stroke-width="1" stroke-linecap="round" />
    <line x1="256" y1="170.66666666666669" x2="329.9008344562721" y2="42.6666666666667" stroke-width="1" stroke-linecap="round" />
    <line x1="256" y1="170.66666666666669" x2="256" y2="1.4210854715202004e-14" stroke-width="1" stroke-linecap="round" />
    <line x1="329.9008344562721" y1="128" x2="256" y2="1.4210854715202004e-14" stroke-width="1" stroke-linecap="round" />
    <line x1="329.9008344562721" y1="128" x2="182.0991655437279" y2="42.66666666666664" stroke-width="1" stroke-linecap="round" />
    <line x1="329.9008344562721" y1="42.6666666666667" x2="182.0991655437279" y2="42.66666666666664" stroke-width="1" stroke-linecap="round" />
    <line x1="329.9008344562721" y1="42.6666666666667" x2="182.0991655437279" y2="128" stroke-width="1" stroke-linecap="round" />
    <line x1="256" y1="1.4210854715202004e-14" x2="182.0991655437279" y2="128" stroke-width="1" stroke-linecap="round" />
    <line x1="256" y1="1.4210854715202004e-14" x2="255.99999999999997" y2="170.66666666666669" stroke-width="1" stroke-linecap="round" />
    <line x1="182.0991655437279" y1="42.66666666666664" x2="255.99999999999997" y2="170.66666666666669" stroke-width="1" stroke-linecap="round" />
    <line x1="182.0991655437279" y1="42.66666666666664" x2="329.90083445627204" y2="128.00000000000006" stroke-width="1" stroke-linecap="round" />
    <line x1="182.0991655437279" y1="128" x2="329.90083445627204" y2="128.00000000000006" stroke-width="1" stroke-linecap="round" />
    <line x1="182.0991655437279" y1="128" x2="329.90083445627215" y2="42.66666666666674" stroke-width="1" stroke-linecap="round" />
    <line x1="108.19833108745584" y1="255.99999999999994" x2="182.09916554372793" y2="127.99999999999996" stroke-width="1" stroke-linecap="round" />
    <line x1="108.19833108745584" y1="255.99999999999994" x2="108.19833108745586" y2="85.33333333333327" stroke-width="1" stroke-linecap="round" />
    <line x1="182.09916554372793" y1="213.33333333333326" x2="108.19833108745586" y2="85.33333333333327" stroke-width="1" stroke-linecap="round" />
    <line x1="182.09916554372793" y1="213.33333333333326" x2="34.29749663118376" y2="127.9999999999999" stroke-width="1" stroke-linecap="round" />
    <line x1="182.09916554372793" y1="127.99999999999996" x2="34.29749663118376" y2="127.9999999999999" stroke-width="1" stroke-linecap="round" />
    <line x1="182.09916554372793" y1="127.99999999999996" x2="34.29749663118375" y2="213.33333333333326" stroke-width="1" stroke-linecap="round" />
    <line x1="108.19833108745586" y1="85.33333333333327" x2="34.29749663118375" y2="213.33333333333326" stroke-width="1" stroke-linecap="round" />
    <line x1="108.19833108745586" y1="85.33333333333327" x2="108.19833108745583" y2="255.99999999999994" stroke-width="1" stroke-linecap="round" />
    <line x1="34.29749663118376" y1="127.9999999999999" x2="108.19833108745583" y2="255.99999999999994" stroke-width="1" stroke-linecap="round" />
    <line x1="34.29749663118376" y1="127.9999999999999" x2="182.0991655437279" y2="213.33333333333331" stroke-width="1" stroke-linecap="round" />
    <line x1="34.29749663118375" y1="213.33333333333326" x2="182.0991655437279" y2="213.33333333333331" stroke-width="1" stroke-linecap="round" />
    <line x1="34.29749663118375" y1="213.33333333333326" x2="182.09916554372796" y2="128" stroke-width="1" stroke-linecap="round" />
    <line x1="108.19833108745581" y1="426.6666666666667" x2="182.0991655437279" y2="298.66666666666674" stroke-width="1" stroke-linecap="round" />
    <line x1="108.19833108745581" y1="426.6666666666667" x2="108.19833108745583" y2="256.00000000000006" stroke-width="1" stroke-linecap="round" />
    <line x1="182.0991655437279" y1="384.00000000000006" x2="108.19833108745583" y2="256.00000000000006" stroke-width="1" stroke-linecap="round" />
    <line x1="182.0991655437279" y1="384.00000000000006" x2="34.29749663118373" y2="298.6666666666667" stroke-width="1" stroke-linecap="round" />
    <line x1="182.0991655437279" y1="298.66666666666674" x2="34.29749663118373" y2="298.6666666666667" stroke-width="1" stroke-linecap="round" />
    <line x1="182.0991655437279" y1="298.66666666666674" x2="34.29749663118372" y2="384.00000000000006" stroke-width="1" stroke-linecap="round" />
    <line x1="108.19833108745583" y1="256.00000000000006" x2="34.29749663118372" y2="384.00000000000006" stroke-width="1" stroke-linecap="round" />
    <line x1="108.19833108745583" y1="256.00000000000006" x2="108.1983310874558" y2="426.6666666666667" stroke-width="1" stroke-linecap="round" />
    <line x1="34.29749663118373" y1="298.6666666666667" x2="108.1983310874558" y2="426.6666666666667" stroke-width="1" stroke-linecap="round" />
    <line x1="34.29749663118373" y1="298.6666666666667" x2="182.09916554372788" y2="384.0000000000001" stroke-width="1" stroke-linecap="round" />
    <line x1="34.29749663118372" y1="384.00000000000006" x2="182.09916554372788" y2="384.0000000000001" stroke-width="1" stroke-linecap="round" />
    <line x1="34.29749663118372" y1="384.00000000000006" x2="182.09916554372796" y2="298.66666666666674" stroke-width="1" stroke-linecap="round" />
    <line x1="255.99999999999997" y1="511.99999999999994" x2="329.90083445627204" y2="384" stroke-width="1" stroke-linecap="round" />
    <line x1="255.99999999999997" y1="511.99999999999994" x2="255.99999999999997" y2="341.3333333333333" stroke-width="1" stroke-linecap="round" />
    <line x1="329.90083445627204" y1="469.3333333333333" x2="255.99999999999997" y2="341.3333333333333" stroke-width="1" stroke-linecap="round" />
    <line x1="329.90083445627204" y1="469.3333333333333" x2="182.0991655437279" y2="383.99999999999994" stroke-width="1" stroke-linecap="round" />
    <line x1="329.90083445627204" y1="384" x2="182.0991655437279" y2="383.99999999999994" stroke-width="1" stroke-linecap="round" />
    <line x1="329.90083445627204" y1="384" x2="182.09916554372788" y2="469.3333333333333" stroke-width="1" stroke-linecap="round" />
    <line x1="255.99999999999997" y1="341.3333333333333" x2="182.09916554372788" y2="469.3333333333333" stroke-width="1" stroke-linecap="round" />
    <line x1="255.99999999999997" y1="341.3333333333333" x2="255.99999999999994" y2="511.99999999999994" stroke-width="1" stroke-linecap="round" />
    <line x1="182.0991655437279" y1="383.99999999999994" x2="255.99999999999994" y2="511.99999999999994" stroke-width="1" stroke-linecap="round" />
    <line x1="182.0991655437279" y1="383.99999999999994" x2="329.90083445627204" y2="469.33333333333337" stroke-width="1" stroke-linecap="round" />
    <line x1="182.09916554372788" y1="469.3333333333333" x2="329.90083445627204" y2="469.33333333333337" stroke-width="1" stroke-linecap="round" />
    <line x1="182.09916554372788" y1="469.3333333333333" x2="329.9008344562721" y2="384" stroke-width="1" stroke-linecap="round" />
</svg>