<?xml-stylesheet href="../../style/figure.css" type="text/css"?>
<?xml-stylesheet href="../../style/fonts.css" type="text/css"?>
<?xml-stylesheet href="../../style/pages.css" type="text/css"?>
<svg xmlns="http://www.w3.org/2000/svg" width="512" height="512">
    <line x1="256" y1="511.99999999999994" x2="329.9008344562721" y2="469.3333333333333" stroke-width="1" stroke-linecap="round" />
    <line x1="329.9008344562721" y1="469.3333333333333" x2="329.9008344562721" y2="384" stroke-width="1" stroke-linecap="round" />
    <line x1="329.9008344562721" y1="384" x2="256" y2="341.3333333333333" stroke-width="1" stroke-linecap="round" />
    <line x1="256" y1="341.3333333333333" x2="182.0991655437279" y2="383.99999999999994" stroke-width="1" stroke-linecap="round" />
    <line x1="182.0991655437279" y1="383.99999999999994" x2="182.0991655437279" y2="469.3333333333333" stroke-width="1" stroke-linecap="round" />
    <line x1="182.0991655437279" y1="469.3333333333333" x2="255.99999999999997" y2="511.99999999999994" stroke-width="1" stroke-linecap="round" /><text x="256" y="426.66666666666663" class="zosokw">◌a</text><text x="256" y="426.66666666666663" class="cases">否格</text><text x="209.81197846482996" y="399.99999999999994" class="zosokw">◌a◌a◌</text><text x="209.81197846482996" y="399.99999999999994" class="cases">否否格</text><text x="209.81197846482996" y="453.3333333333333" class="zosokw">◌a◌e◌</text><text x="209.81197846482996" y="453.3333333333333" class="cases">否与格</text><text x="256" y="479.99999999999994" class="zosokw">◌a◌i◌</text><text x="256" y="479.99999999999994" class="cases">否属格</text><text x="302.18802153517004" y="453.3333333333333" class="zosokw">◌a◌o◌</text><text x="302.18802153517004" y="453.3333333333333" class="cases">否対格</text><text x="302.1880215351701" y="400" class="zosokw">◌a◌u◌</text><text x="302.1880215351701" y="400" class="cases">否主格</text><text x="256" y="373.3333333333333" class="zosokw">◌a◌w◌</text><text x="256" y="373.3333333333333" class="cases">否流格</text>
    <line x1="403.8016689125442" y1="426.6666666666667" x2="477.7025033688163" y2="384.00000000000006" stroke-width="1" stroke-linecap="round" />
    <line x1="477.7025033688163" y1="384.00000000000006" x2="477.7025033688163" y2="298.66666666666674" stroke-width="1" stroke-linecap="round" />
    <line x1="477.7025033688163" y1="298.66666666666674" x2="403.8016689125442" y2="256.00000000000006" stroke-width="1" stroke-linecap="round" />
    <line x1="403.8016689125442" y1="256.00000000000006" x2="329.9008344562721" y2="298.6666666666667" stroke-width="1" stroke-linecap="round" />
    <line x1="329.9008344562721" y1="298.6666666666667" x2="329.9008344562721" y2="384.00000000000006" stroke-width="1" stroke-linecap="round" />
    <line x1="329.9008344562721" y1="384.00000000000006" x2="403.8016689125442" y2="426.6666666666667" stroke-width="1" stroke-linecap="round" /><text x="403.8016689125442" y="341.33333333333337" class="zosokw">◌e</text><text x="403.8016689125442" y="341.33333333333337" class="cases">与格</text><text x="357.61364737737415" y="314.6666666666667" class="zosokw">◌e◌a◌</text><text x="357.61364737737415" y="314.6666666666667" class="cases">与否格</text><text x="357.61364737737415" y="368.00000000000006" class="zosokw">◌e◌e◌</text><text x="357.61364737737415" y="368.00000000000006" class="cases">与与格</text><text x="403.8016689125442" y="394.6666666666667" class="zosokw">◌e◌i◌</text><text x="403.8016689125442" y="394.6666666666667" class="cases">与属格</text><text x="449.9896904477142" y="368.00000000000006" class="zosokw">◌e◌o◌</text><text x="449.9896904477142" y="368.00000000000006" class="cases">与対格</text><text x="449.9896904477143" y="314.66666666666674" class="zosokw">◌e◌u◌</text><text x="449.9896904477143" y="314.66666666666674" class="cases">与主格</text><text x="403.8016689125442" y="288.00000000000006" class="zosokw">◌e◌w◌</text><text x="403.8016689125442" y="288.00000000000006" class="cases">与流格</text>
    <line x1="403.8016689125442" y1="256.00000000000006" x2="477.7025033688163" y2="213.33333333333337" stroke-width="1" stroke-linecap="round" />
    <line x1="477.7025033688163" y1="213.33333333333337" x2="477.7025033688163" y2="128.00000000000006" stroke-width="1" stroke-linecap="round" />
    <line x1="477.7025033688163" y1="128.00000000000006" x2="403.8016689125442" y2="85.33333333333339" stroke-width="1" stroke-linecap="round" />
    <line x1="403.8016689125442" y1="85.33333333333339" x2="329.9008344562721" y2="128" stroke-width="1" stroke-linecap="round" />
    <line x1="329.9008344562721" y1="128" x2="329.9008344562721" y2="213.33333333333337" stroke-width="1" stroke-linecap="round" />
    <line x1="329.9008344562721" y1="213.33333333333337" x2="403.8016689125442" y2="256.00000000000006" stroke-width="1" stroke-linecap="round" /><text x="403.8016689125442" y="170.6666666666667" class="zosokw">◌i</text><text x="403.8016689125442" y="170.6666666666667" class="cases">属格</text><text x="357.61364737737415" y="144.00000000000003" class="zosokw">◌i◌a◌</text><text x="357.61364737737415" y="144.00000000000003" class="cases">属否格</text><text x="357.61364737737415" y="197.33333333333337" class="zosokw">◌i◌e◌</text><text x="357.61364737737415" y="197.33333333333337" class="cases">属与格</text><text x="403.8016689125442" y="224.00000000000006" class="zosokw">◌i◌i◌</text><text x="403.8016689125442" y="224.00000000000006" class="cases">属属格</text><text x="449.9896904477142" y="197.3333333333334" class="zosokw">◌i◌o◌</text><text x="449.9896904477142" y="197.3333333333334" class="cases">属対格</text><text x="449.9896904477143" y="144.00000000000009" class="zosokw">◌i◌u◌</text><text x="449.9896904477143" y="144.00000000000009" class="cases">属主格</text><text x="403.8016689125442" y="117.33333333333339" class="zosokw">◌i◌w◌</text><text x="403.8016689125442" y="117.33333333333339" class="cases">属流格</text>
    <line x1="256" y1="170.66666666666669" x2="329.9008344562721" y2="128" stroke-width="1" stroke-linecap="round" />
    <line x1="329.9008344562721" y1="128" x2="329.9008344562721" y2="42.6666666666667" stroke-width="1" stroke-linecap="round" />
    <line x1="329.9008344562721" y1="42.6666666666667" x2="256" y2="1.4210854715202004e-14" stroke-width="1" stroke-linecap="round" />
    <line x1="256" y1="1.4210854715202004e-14" x2="182.0991655437279" y2="42.66666666666664" stroke-width="1" stroke-linecap="round" />
    <line x1="182.0991655437279" y1="42.66666666666664" x2="182.0991655437279" y2="128" stroke-width="1" stroke-linecap="round" />
    <line x1="182.0991655437279" y1="128" x2="255.99999999999997" y2="170.66666666666669" stroke-width="1" stroke-linecap="round" /><text x="256" y="85.33333333333334" class="zosokw">◌o</text><text x="256" y="85.33333333333334" class="cases">対格</text><text x="209.81197846482996" y="58.66666666666666" class="zosokw">◌o◌a◌</text><text x="209.81197846482996" y="58.66666666666666" class="cases">対否格</text><text x="209.81197846482996" y="112.00000000000001" class="zosokw">◌o◌e◌</text><text x="209.81197846482996" y="112.00000000000001" class="cases">対与格</text><text x="256" y="138.66666666666669" class="zosokw">◌o◌i◌</text><text x="256" y="138.66666666666669" class="cases">対属格</text><text x="302.18802153517004" y="112.00000000000003" class="zosokw">◌o◌o◌</text><text x="302.18802153517004" y="112.00000000000003" class="cases">対対格</text><text x="302.1880215351701" y="58.66666666666672" class="zosokw">◌o◌u◌</text><text x="302.1880215351701" y="58.66666666666672" class="cases">対主格</text><text x="256" y="32.000000000000014" class="zosokw">◌o◌w◌</text><text x="256" y="32.000000000000014" class="cases">対流格</text>
    <line x1="108.19833108745584" y1="255.99999999999994" x2="182.09916554372793" y2="213.33333333333326" stroke-width="1" stroke-linecap="round" />
    <line x1="182.09916554372793" y1="213.33333333333326" x2="182.09916554372793" y2="127.99999999999996" stroke-width="1" stroke-linecap="round" />
    <line x1="182.09916554372793" y1="127.99999999999996" x2="108.19833108745586" y2="85.33333333333327" stroke-width="1" stroke-linecap="round" />
    <line x1="108.19833108745586" y1="85.33333333333327" x2="34.29749663118376" y2="127.9999999999999" stroke-width="1" stroke-linecap="round" />
    <line x1="34.29749663118376" y1="127.9999999999999" x2="34.29749663118375" y2="213.33333333333326" stroke-width="1" stroke-linecap="round" />
    <line x1="34.29749663118375" y1="213.33333333333326" x2="108.19833108745583" y2="255.99999999999994" stroke-width="1" stroke-linecap="round" /><text x="108.19833108745584" y="170.6666666666666" class="zosokw">◌u</text><text x="108.19833108745584" y="170.6666666666666" class="cases">主格</text><text x="62.01030955228579" y="143.99999999999991" class="zosokw">◌u◌a◌</text><text x="62.01030955228579" y="143.99999999999991" class="cases">主否格</text><text x="62.01030955228579" y="197.33333333333326" class="zosokw">◌u◌e◌</text><text x="62.01030955228579" y="197.33333333333326" class="cases">主与格</text><text x="108.19833108745583" y="223.99999999999994" class="zosokw">◌u◌i◌</text><text x="108.19833108745583" y="223.99999999999994" class="cases">主属格</text><text x="154.38635262262588" y="197.3333333333333" class="zosokw">◌u◌o◌</text><text x="154.38635262262588" y="197.3333333333333" class="cases">主対格</text><text x="154.38635262262594" y="143.99999999999997" class="zosokw">◌u◌u◌</text><text x="154.38635262262594" y="143.99999999999997" class="cases">主主格</text><text x="108.19833108745586" y="117.33333333333327" class="zosokw">◌u◌w◌</text><text x="108.19833108745586" y="117.33333333333327" class="cases">主流格</text>
    <line x1="108.19833108745581" y1="426.6666666666667" x2="182.0991655437279" y2="384.00000000000006" stroke-width="1" stroke-linecap="round" />
    <line x1="182.0991655437279" y1="384.00000000000006" x2="182.0991655437279" y2="298.66666666666674" stroke-width="1" stroke-linecap="round" />
    <line x1="182.0991655437279" y1="298.66666666666674" x2="108.19833108745583" y2="256.00000000000006" stroke-width="1" stroke-linecap="round" />
    <line x1="108.19833108745583" y1="256.00000000000006" x2="34.29749663118373" y2="298.6666666666667" stroke-width="1" stroke-linecap="round" />
    <line x1="34.29749663118373" y1="298.6666666666667" x2="34.29749663118372" y2="384.00000000000006" stroke-width="1" stroke-linecap="round" />
    <line x1="34.29749663118372" y1="384.00000000000006" x2="108.1983310874558" y2="426.6666666666667" stroke-width="1" stroke-linecap="round" /><text x="108.19833108745581" y="341.33333333333337" class="zosokw">◌w</text><text x="108.19833108745581" y="341.33333333333337" class="cases">流格</text><text x="62.01030955228576" y="314.6666666666667" class="zosokw">◌w◌a◌</text><text x="62.01030955228576" y="314.6666666666667" class="cases">流否格</text><text x="62.01030955228576" y="368.00000000000006" class="zosokw">◌w◌e◌</text><text x="62.01030955228576" y="368.00000000000006" class="cases">流与格</text><text x="108.1983310874558" y="394.6666666666667" class="zosokw">◌w◌i◌</text><text x="108.1983310874558" y="394.6666666666667" class="cases">流属格</text><text x="154.38635262262585" y="368.00000000000006" class="zosokw">◌w◌o◌</text><text x="154.38635262262585" y="368.00000000000006" class="cases">流対格</text><text x="154.3863526226259" y="314.66666666666674" class="zosokw">◌w◌u◌</text><text x="154.3863526226259" y="314.66666666666674" class="cases">流主格</text><text x="108.19833108745583" y="288.00000000000006" class="zosokw">◌w◌w◌</text><text x="108.19833108745583" y="288.00000000000006" class="cases">流流格</text>
</svg>