<?xml-stylesheet href="../../style/figure.css" type="text/css"?>
<?xml-stylesheet href="../../style/fonts.css" type="text/css"?>
<svg xmlns="http://www.w3.org/2000/svg" width="512" height="512">
    <polyline points="256,511.99999999999994 329.9008344562721,469.3333333333333 329.9008344562721,384 256,341.3333333333333 182.0991655437279,383.99999999999994 182.0991655437279,469.3333333333333 255.99999999999997,511.99999999999994" fill="none" stroke-width="1" />
    <polyline points="403.8016689125442,426.6666666666667 477.7025033688163,384.00000000000006 477.7025033688163,298.66666666666674 403.8016689125442,256.00000000000006 329.9008344562721,298.6666666666667 329.9008344562721,384.00000000000006 403.8016689125442,426.6666666666667" fill="none" stroke-width="1" />
    <polyline points="403.8016689125442,256.00000000000006 477.7025033688163,213.33333333333337 477.7025033688163,128.00000000000006 403.8016689125442,85.33333333333339 329.9008344562721,128 329.9008344562721,213.33333333333337 403.8016689125442,256.00000000000006" fill="none" stroke-width="1" />
    <polyline points="256,170.66666666666669 329.9008344562721,128 329.9008344562721,42.6666666666667 256,1.4210854715202004e-14 182.0991655437279,42.66666666666664 182.0991655437279,128 255.99999999999997,170.66666666666669" fill="none" stroke-width="1" />
    <polyline points="108.19833108745584,255.99999999999994 182.09916554372793,213.33333333333326 182.09916554372793,127.99999999999996 108.19833108745586,85.33333333333327 34.29749663118376,127.9999999999999 34.29749663118375,213.33333333333326 108.19833108745583,255.99999999999994" fill="none" stroke-width="1" />
    <polyline points="108.19833108745581,426.6666666666667 182.0991655437279,384.00000000000006 182.0991655437279,298.66666666666674 108.19833108745583,256.00000000000006 34.29749663118373,298.6666666666667 34.29749663118372,384.00000000000006 108.1983310874558,426.6666666666667" fill="none" stroke-width="1" />
    <polyline points="255.99999999999997,511.99999999999994 329.90083445627204,469.3333333333333 329.90083445627204,384 255.99999999999997,341.3333333333333 182.0991655437279,383.99999999999994 182.09916554372788,469.3333333333333 255.99999999999994,511.99999999999994" fill="none" stroke-width="1" /><text x="256" y="426.66666666666663" class="zosokw">◌a</text><text x="256" y="511.99999999999994" class="zosokw">◌a◌a◌</text><text x="329.9008344562721" y="469.3333333333333" class="zosokw">◌a◌o◌</text><text x="329.9008344562721" y="384" class="zosokw">◌a◌u◌</text><text x="256" y="341.3333333333333" class="zosokw">◌a◌w◌</text><text x="182.0991655437279" y="383.99999999999994" class="zosokw">◌a◌i◌</text><text x="182.0991655437279" y="469.3333333333333" class="zosokw">◌a◌e◌</text><text x="403.8016689125442" y="341.33333333333337" class="zosokw">◌o</text><text x="403.8016689125442" y="426.6666666666667" class="zosokw">◌o◌a◌</text><text x="477.7025033688163" y="384.00000000000006" class="zosokw">◌o◌o◌</text><text x="477.7025033688163" y="298.66666666666674" class="zosokw">◌o◌u◌</text><text x="403.8016689125442" y="256.00000000000006" class="zosokw">◌o◌w◌</text><text x="329.9008344562721" y="298.6666666666667" class="zosokw">◌o◌i◌</text><text x="329.9008344562721" y="384.00000000000006" class="zosokw">◌o◌e◌</text><text x="403.8016689125442" y="170.6666666666667" class="zosokw">◌u</text><text x="403.8016689125442" y="256.00000000000006" class="zosokw">◌u◌a◌</text><text x="477.7025033688163" y="213.33333333333337" class="zosokw">◌u◌o◌</text><text x="477.7025033688163" y="128.00000000000006" class="zosokw">◌u◌u◌</text><text x="403.8016689125442" y="85.33333333333339" class="zosokw">◌u◌w◌</text><text x="329.9008344562721" y="128" class="zosokw">◌u◌i◌</text><text x="329.9008344562721" y="213.33333333333337" class="zosokw">◌u◌e◌</text><text x="256" y="85.33333333333334" class="zosokw">◌w</text><text x="256" y="170.66666666666669" class="zosokw">◌w◌a◌</text><text x="329.9008344562721" y="128" class="zosokw">◌w◌o◌</text><text x="329.9008344562721" y="42.6666666666667" class="zosokw">◌w◌u◌</text><text x="256" y="1.4210854715202004e-14" class="zosokw">◌w◌w◌</text><text x="182.0991655437279" y="42.66666666666664" class="zosokw">◌w◌i◌</text><text x="182.0991655437279" y="128" class="zosokw">◌w◌e◌</text><text x="108.19833108745584" y="170.6666666666666" class="zosokw">◌i</text><text x="108.19833108745584" y="255.99999999999994" class="zosokw">◌i◌a◌</text><text x="182.09916554372793" y="213.33333333333326" class="zosokw">◌i◌o◌</text><text x="182.09916554372793" y="127.99999999999996" class="zosokw">◌i◌u◌</text><text x="108.19833108745586" y="85.33333333333327" class="zosokw">◌i◌w◌</text><text x="34.29749663118376" y="127.9999999999999" class="zosokw">◌i◌i◌</text><text x="34.29749663118375" y="213.33333333333326" class="zosokw">◌i◌e◌</text><text x="108.19833108745581" y="341.33333333333337" class="zosokw">◌e</text><text x="108.19833108745581" y="426.6666666666667" class="zosokw">◌e◌a◌</text><text x="182.0991655437279" y="384.00000000000006" class="zosokw">◌e◌o◌</text><text x="182.0991655437279" y="298.66666666666674" class="zosokw">◌e◌u◌</text><text x="108.19833108745583" y="256.00000000000006" class="zosokw">◌e◌w◌</text><text x="34.29749663118373" y="298.6666666666667" class="zosokw">◌e◌i◌</text><text x="34.29749663118372" y="384.00000000000006" class="zosokw">◌e◌e◌</text><text x="256" y="426.66666666666663" class="cases">否格</text><text x="256" y="511.99999999999994" class="cases">否否格</text><text x="329.9008344562721" y="469.3333333333333" class="cases">否対格</text><text x="329.9008344562721" y="384" class="cases">否主格</text><text x="256" y="341.3333333333333" class="cases">否流格</text><text x="182.0991655437279" y="383.99999999999994" class="cases">否属格</text><text x="182.0991655437279" y="469.3333333333333" class="cases">否与格</text><text x="403.8016689125442" y="341.33333333333337" class="cases">対格</text><text x="403.8016689125442" y="426.6666666666667" class="cases">対否格</text><text x="477.7025033688163" y="384.00000000000006" class="cases">対対格</text><text x="477.7025033688163" y="298.66666666666674" class="cases">対主格</text><text x="403.8016689125442" y="256.00000000000006" class="cases">対流格</text><text x="329.9008344562721" y="298.6666666666667" class="cases">対属格</text><text x="329.9008344562721" y="384.00000000000006" class="cases">対与格</text><text x="403.8016689125442" y="170.6666666666667" class="cases">主格</text><text x="403.8016689125442" y="256.00000000000006" class="cases">主否格</text><text x="477.7025033688163" y="213.33333333333337" class="cases">主対格</text><text x="477.7025033688163" y="128.00000000000006" class="cases">主主格</text><text x="403.8016689125442" y="85.33333333333339" class="cases">主流格</text><text x="329.9008344562721" y="128" class="cases">主属格</text><text x="329.9008344562721" y="213.33333333333337" class="cases">主与格</text><text x="256" y="85.33333333333334" class="cases">流格</text><text x="256" y="170.66666666666669" class="cases">流否格</text><text x="329.9008344562721" y="128" class="cases">流対格</text><text x="329.9008344562721" y="42.6666666666667" class="cases">流主格</text><text x="256" y="1.4210854715202004e-14" class="cases">流流格</text><text x="182.0991655437279" y="42.66666666666664" class="cases">流属格</text><text x="182.0991655437279" y="128" class="cases">流与格</text><text x="108.19833108745584" y="170.6666666666666" class="cases">属格</text><text x="108.19833108745584" y="255.99999999999994" class="cases">属否格</text><text x="182.09916554372793" y="213.33333333333326" class="cases">属対格</text><text x="182.09916554372793" y="127.99999999999996" class="cases">属主格</text><text x="108.19833108745586" y="85.33333333333327" class="cases">属流格</text><text x="34.29749663118376" y="127.9999999999999" class="cases">属属格</text><text x="34.29749663118375" y="213.33333333333326" class="cases">属与格</text><text x="108.19833108745581" y="341.33333333333337" class="cases">与格</text><text x="108.19833108745581" y="426.6666666666667" class="cases">与否格</text><text x="182.0991655437279" y="384.00000000000006" class="cases">与対格</text><text x="182.0991655437279" y="298.66666666666674" class="cases">与主格</text><text x="108.19833108745583" y="256.00000000000006" class="cases">与流格</text><text x="34.29749663118373" y="298.6666666666667" class="cases">与属格</text><text x="34.29749663118372" y="384.00000000000006" class="cases">与与格</text>
</svg>