<svg width="500" height="650" xmlns="http://www.w3.org/2000/svg">
    <path
        d="M 150 100 C 109.10456 100 72.795393 119.63883 49.990234 150 C 49.993285 150 49.996949 150 50 150 L 150 150 L 350 150 L 450 150 C 450.00305 150 450.00672 150 450.00977 150 C 427.20461 119.63885 390.89543 100 350 100 L 150 100 z M 49.990234 500 C 72.795393 530.36117 109.10456 550 150 550 L 350 550 C 390.89544 550 427.20461 530.36117 450.00977 500 C 450.00672 500 450.00305 500 450 500 L 350 500 L 150 500 L 50 500 C 49.996949 500 49.993285 500 49.990234 500 z " />
</svg>