<svg width="500" height="650" xmlns="http://www.w3.org/2000/svg">
   <path
      d="M 50 100 L 50 100.07031 A 25 25 0 0 0 47.177734 100.63086 A 25 25 0 0 0 42.511719 101.55664 A 25 25 0 0 0 37.296875 104.06836 A 25 25 0 0 0 33.503906 106.59766 A 25 25 0 0 0 29.486328 111.63477 A 25 25 0 0 0 27.3125 114.87695 A 25 25 0 0 0 25 125 A 25 25 0 0 0 32.417969 142.67969 L 32.320312 142.67969 L 245.76367 356.12305 A 125 125 0 0 0 225 425 A 125 125 0 0 0 350 550 A 125 125 0 0 0 418.87695 529.23633 L 432.32031 542.67969 L 432.32031 541.91992 A 25 25 0 0 0 475 525 A 25 25 0 0 0 467.08008 507.32031 L 467.67969 507.32031 L 454.23633 493.87695 A 125 125 0 0 0 475 425 L 475 350 L 500 350 L 500 349.92969 A 25 25 0 0 0 525 325 A 25 25 0 0 0 500 300.07031 L 500 300 L 475 300 L 475 225 A 125 125 0 0 0 350 100 L 50 100 z M 110.35938 150 L 350 150 A 75 75 0 0 1 425 225 L 425 300 L 350 300 A 125 125 0 0 0 281.12305 320.76367 L 110.35938 150 z M 350 350 L 425 350 L 425 425 A 75 75 0 0 1 417.26758 456.9082 L 318.0918 357.73242 A 75 75 0 0 1 350 350 z M 282.73242 393.0918 L 381.9082 492.26758 A 75 75 0 0 1 350 500 A 75 75 0 0 1 275 425 A 75 75 0 0 1 282.73242 393.0918 z " />
</svg>