<svg width="500" height="650" xmlns="http://www.w3.org/2000/svg">
   <path
      d="M 150 100 A 125 125 0 0 0 81.123047 120.76367 L 67.679688 107.32031 L 67.679688 108.07031 A 25 25 0 0 0 55.560547 100.63086 A 25 25 0 0 0 25 125 A 25 25 0 0 0 32.919922 142.67969 L 32.320312 142.67969 L 45.763672 156.12305 A 125 125 0 0 0 25 225 L 25 300 L 0 300 L 0 300.07031 A 25 25 0 0 0 -25 325 A 25 25 0 0 0 0 349.92969 L 0 350 L 25 350 L 25 425 A 125 125 0 0 0 150 550 L 350 550 A 125 125 0 0 0 418.87695 529.23633 L 432.32031 542.67969 L 432.32031 541.91992 A 25 25 0 0 0 475 525 A 25 25 0 0 0 467.08008 507.32031 L 467.67969 507.32031 L 454.23633 493.87695 A 125 125 0 0 0 475 425 A 125 125 0 0 0 449.96094 350 L 500 350 A 25 25 0 0 0 525 325 A 25 25 0 0 0 500 300 L 449.38086 300 A 125 125 0 0 0 475 225 A 125 125 0 0 0 350 100 L 150 100 z M 150 150 L 350 150 A 75 75 0 0 1 356.36914 150.2793 L 358.53906 150.55078 A 75 75 0 0 1 362.66992 151.08984 A 75 75 0 0 1 365.26953 151.64062 A 75 75 0 0 1 368.91016 152.43945 A 75 75 0 0 1 371.58008 153.24023 A 75 75 0 0 1 375 154.32031 A 75 75 0 0 1 377.64062 155.34961 A 75 75 0 0 1 380.93945 156.71094 A 75 75 0 0 1 383.49023 157.96094 A 75 75 0 0 1 386.63086 159.58984 A 75 75 0 0 1 389.08984 161.06055 A 75 75 0 0 1 392.06055 162.96094 A 75 75 0 0 1 394.40039 164.61914 A 75 75 0 0 1 397.17969 166.75977 A 75 75 0 0 1 399.39062 168.63086 A 75 75 0 0 1 401.96094 170.98047 A 75 75 0 0 1 404.01953 173.03906 A 75 75 0 0 1 406.36914 175.60938 A 75 75 0 0 1 408.24023 177.81055 A 75 75 0 0 1 410.38086 180.60938 A 75 75 0 0 1 412.05078 182.93945 A 75 75 0 0 1 413.93945 185.91016 A 75 75 0 0 1 415.41016 188.36914 A 75 75 0 0 1 417.03906 191.50977 A 75 75 0 0 1 418.28906 194.06055 A 75 75 0 0 1 419.65039 197.35938 A 75 75 0 0 1 420.67969 200 A 75 75 0 0 1 421.75977 203.41992 A 75 75 0 0 1 422.56055 206.08984 A 75 75 0 0 1 423.35938 209.73047 A 75 75 0 0 1 423.91016 212.33008 A 75 75 0 0 1 424.44922 216.46094 L 424.7207 218.63086 A 75 75 0 0 1 425 225 A 75 75 0 0 1 350 300 L 260.35938 300 L 118.0918 157.73242 A 75 75 0 0 1 126.25977 154.34961 A 75 75 0 0 1 131.85938 152.39062 A 75 75 0 0 1 150 150 z M 82.732422 193.0918 L 189.64062 300 L 75 300 L 75 225 A 75 75 0 0 1 77.390625 206.85938 A 75 75 0 0 1 79.349609 201.25977 A 75 75 0 0 1 82.732422 193.0918 z M 75 350 L 239.64062 350 L 381.9082 492.26758 A 75 75 0 0 1 373.74023 495.65039 A 75 75 0 0 1 368.14062 497.60938 A 75 75 0 0 1 350 500 L 150 500 A 75 75 0 0 1 131.85938 497.60938 A 75 75 0 0 1 126.25977 495.65039 A 75 75 0 0 1 114.81055 490.91016 A 75 75 0 0 1 108.93945 487.21094 A 75 75 0 0 1 99.839844 480.23047 A 75 75 0 0 1 94.769531 475.16016 A 75 75 0 0 1 87.779297 466.06055 A 75 75 0 0 1 84.089844 460.18945 A 75 75 0 0 1 79.349609 448.74023 A 75 75 0 0 1 77.390625 443.14062 A 75 75 0 0 1 75 425 L 75 350 z M 310.35938 350 L 350 350 A 75 75 0 0 1 425 425 A 75 75 0 0 1 422.60938 443.14062 A 75 75 0 0 1 420.65039 448.74023 A 75 75 0 0 1 417.26758 456.9082 L 310.35938 350 z " />
</svg>