<svg width="500" height="650" xmlns="http://www.w3.org/2000/svg">
    <path
        d="M 150 100 A 125 125 0 0 0 25 225 L 25 300 L 0 300 L 0 300.07031 A 25 25 0 0 0 -25 325 A 25 25 0 0 0 0 349.92969 L 0 350 L 25 350 L 25 425 A 125 125 0 0 0 150 550 L 350 550 A 125 125 0 0 0 475 425 A 125 125 0 0 0 449.96094 350 L 500 350 A 25 25 0 0 0 525 325 A 25 25 0 0 0 500 300 L 449.38086 300 A 125 125 0 0 0 475 225 A 125 125 0 0 0 350 100 L 150 100 z M 150 150 L 350 150 A 75 75 0 0 1 356.36914 150.2793 L 358.53906 150.55078 A 75 75 0 0 1 362.66992 151.08984 A 75 75 0 0 1 365.26953 151.64062 A 75 75 0 0 1 368.91016 152.43945 A 75 75 0 0 1 371.58008 153.24023 A 75 75 0 0 1 375 154.32031 A 75 75 0 0 1 377.64062 155.34961 A 75 75 0 0 1 380.93945 156.71094 A 75 75 0 0 1 383.49023 157.96094 A 75 75 0 0 1 386.63086 159.58984 A 75 75 0 0 1 389.08984 161.06055 A 75 75 0 0 1 392.06055 162.96094 A 75 75 0 0 1 394.40039 164.61914 A 75 75 0 0 1 397.17969 166.75977 A 75 75 0 0 1 399.39062 168.63086 A 75 75 0 0 1 401.96094 170.98047 A 75 75 0 0 1 404.01953 173.03906 A 75 75 0 0 1 406.36914 175.60938 A 75 75 0 0 1 408.24023 177.81055 A 75 75 0 0 1 410.38086 180.60938 A 75 75 0 0 1 412.05078 182.93945 A 75 75 0 0 1 413.93945 185.91016 A 75 75 0 0 1 415.41016 188.36914 A 75 75 0 0 1 417.03906 191.50977 A 75 75 0 0 1 418.28906 194.06055 A 75 75 0 0 1 419.65039 197.35938 A 75 75 0 0 1 420.67969 200 A 75 75 0 0 1 421.75977 203.41992 A 75 75 0 0 1 422.56055 206.08984 A 75 75 0 0 1 423.35938 209.73047 A 75 75 0 0 1 423.91016 212.33008 A 75 75 0 0 1 424.44922 216.46094 L 424.7207 218.63086 A 75 75 0 0 1 425 225 A 75 75 0 0 1 350 300 L 75 300 L 75 225 A 75 75 0 0 1 77.390625 206.85938 A 75 75 0 0 1 79.349609 201.25977 A 75 75 0 0 1 84.089844 189.81055 A 75 75 0 0 1 87.789062 183.93945 A 75 75 0 0 1 94.769531 174.83984 A 75 75 0 0 1 99.839844 169.76953 A 75 75 0 0 1 108.93945 162.7793 A 75 75 0 0 1 114.81055 159.08984 A 75 75 0 0 1 126.25977 154.34961 A 75 75 0 0 1 131.85938 152.39062 A 75 75 0 0 1 150 150 z M 75 350 L 350 350 A 75 75 0 0 1 425 425 A 75 75 0 0 1 422.60938 443.14062 A 75 75 0 0 1 420.65039 448.74023 A 75 75 0 0 1 415.91016 460.18945 A 75 75 0 0 1 412.21094 466.06055 A 75 75 0 0 1 405.23047 475.16016 A 75 75 0 0 1 400.16016 480.23047 A 75 75 0 0 1 391.06055 487.2207 A 75 75 0 0 1 385.18945 490.91016 A 75 75 0 0 1 373.74023 495.65039 A 75 75 0 0 1 368.14062 497.60938 A 75 75 0 0 1 350 500 L 150 500 A 75 75 0 0 1 131.85938 497.60938 A 75 75 0 0 1 126.25977 495.65039 A 75 75 0 0 1 114.81055 490.91016 A 75 75 0 0 1 108.93945 487.21094 A 75 75 0 0 1 99.839844 480.23047 A 75 75 0 0 1 94.769531 475.16016 A 75 75 0 0 1 87.779297 466.06055 A 75 75 0 0 1 84.089844 460.18945 A 75 75 0 0 1 79.349609 448.74023 A 75 75 0 0 1 77.390625 443.14062 A 75 75 0 0 1 75 425 L 75 350 z "
        style="fill:red" />
</svg>
<?xml version="1.0" encoding="UTF-8" standalone="no"?>
<svg width="500" height="650" version="1.1" id="svg12" sodipodi:docname="uni0050.svg"
    inkscape:version="1.4.2 (ebf0e940, 2025-05-08)" xmlns:inkscape="http://www.inkscape.org/namespaces/inkscape"
    xmlns:sodipodi="http://sodipodi.sourceforge.net/DTD/sodipodi-0.dtd" xmlns="http://www.w3.org/2000/svg"
    xmlns:svg="http://www.w3.org/2000/svg">
    <defs id="defs12" />
    <sodipodi:namedview id="namedview12" pagecolor="#ffffff" bordercolor="#000000" borderopacity="0.25"
        inkscape:showpageshadow="2" inkscape:pageopacity="0.0" inkscape:pagecheckerboard="0"
        inkscape:deskcolor="#d1d1d1" inkscape:zoom="0.81846154" inkscape:cx="250.46992" inkscape:cy="325"
        inkscape:window-width="1080" inkscape:window-height="751" inkscape:window-x="0" inkscape:window-y="25"
        inkscape:window-maximized="0" inkscape:current-layer="svg12" />
    <path
        d="M 150,100 C 80.964406,100 25,155.96441 25,225 v 200 c 0,69.03559 55.964406,125 125,125 h 300 c 13.80712,0 25,-11.19288 25,-25 0,-13.80712 -11.19288,-25 -25,-25 H 150 C 108.57864,500 75,466.42136 75,425 V 225 c 0,-41.42136 33.57864,-75 75,-75 h 300 c 13.80712,0 25,-11.19288 25,-25 0,-13.80712 -11.19288,-25 -25,-25 z"
        sodipodi:nodetypes="sssssssssssssss" />
    <path
        d="M0-.5v1h24.5v49H0v1h24.5v49H0v1h24.5v49H0v1h24.5v49H0v1h24.5v49H0v1h24.5v49H0v1h24.5v49H0v1h24.5v49H0v1h24.5v49H0v1h24.5v49H0v1h24.5v49H0v1h24.5v49H0v1h24.5v49H0v1h500v-1h-24.5v-49H500v-1h-24.5v-49H500v-1h-24.5v-49H500v-1h-24.5v-49H500v-1h-24.5v-49H500v-1h-24.5v-49H500v-1h-24.5v-49H500v-1h-24.5v-49H500v-1h-24.5v-49H500v-1h-24.5v-49H500v-1h-24.5v-49H500v-1h-24.5v-49H500v-1h-24.5V.5H500v-1zm25.5 1h49v49h-49zm50 0h49v49h-49zm50 0h49v49h-49zm50 0h49v49h-49zm50 0h49v49h-49zm50 0h49v49h-49zm50 0h49v49h-49zm50 0h49v49h-49zm50 0h49v49h-49zm-400 50h49v49h-49zm50 0h49v49h-49zm50 0h49v49h-49zm50 0h49v49h-49zm50 0h49v49h-49zm50 0h49v49h-49zm50 0h49v49h-49zm50 0h49v49h-49zm50 0h49v49h-49zm-400 50h49v49h-49zm50 0h49v49h-49zm50 0h49v49h-49zm50 0h49v49h-49zm50 0h49v49h-49zm50 0h49v49h-49zm50 0h49v49h-49zm50 0h49v49h-49zm50 0h49v49h-49zm-400 50h49v49h-49zm50 0h49v49h-49zm50 0h49v49h-49zm50 0h49v49h-49zm50 0h49v49h-49zm50 0h49v49h-49zm50 0h49v49h-49zm50 0h49v49h-49zm50 0h49v49h-49zm-400 50h49v49h-49zm50 0h49v49h-49zm50 0h49v49h-49zm50 0h49v49h-49zm50 0h49v49h-49zm50 0h49v49h-49zm50 0h49v49h-49zm50 0h49v49h-49zm50 0h49v49h-49zm-400 50h49v49h-49zm50 0h49v49h-49zm50 0h49v49h-49zm50 0h49v49h-49zm50 0h49v49h-49zm50 0h49v49h-49zm50 0h49v49h-49zm50 0h49v49h-49zm50 0h49v49h-49zm-400 50h49v49h-49zm50 0h49v49h-49zm50 0h49v49h-49zm50 0h49v49h-49zm50 0h49v49h-49zm50 0h49v49h-49zm50 0h49v49h-49zm50 0h49v49h-49zm50 0h49v49h-49zm-400 50h49v49h-49zm50 0h49v49h-49zm50 0h49v49h-49zm50 0h49v49h-49zm50 0h49v49h-49zm50 0h49v49h-49zm50 0h49v49h-49zm50 0h49v49h-49zm50 0h49v49h-49zm-400 50h49v49h-49zm50 0h49v49h-49zm50 0h49v49h-49zm50 0h49v49h-49zm50 0h49v49h-49zm50 0h49v49h-49zm50 0h49v49h-49zm50 0h49v49h-49zm50 0h49v49h-49zm-400 50h49v49h-49zm50 0h49v49h-49zm50 0h49v49h-49zm50 0h49v49h-49zm50 0h49v49h-49zm50 0h49v49h-49zm50 0h49v49h-49zm50 0h49v49h-49zm50 0h49v49h-49zm-400 50h49v49h-49zm50 0h49v49h-49zm50 0h49v49h-49zm50 0h49v49h-49zm50 0h49v49h-49zm50 0h49v49h-49zm50 0h49v49h-49zm50 0h49v49h-49zm50 0h49v49h-49zm-400 50h49v49h-49zm50 0h49v49h-49zm50 0h49v49h-49zm50 0h49v49h-49zm50 0h49v49h-49zm50 0h49v49h-49zm50 0h49v49h-49zm50 0h49v49h-49zm50 0h49v49h-49zm-400 50h49v49h-49zm50 0h49v49h-49zm50 0h49v49h-49zm50 0h49v49h-49zm50 0h49v49h-49zm50 0h49v49h-49zm50 0h49v49h-49zm50 0h49v49h-49zm50 0h49v49h-49z"
        style="fill:red" />
</svg>