<svg width="500" height="650" xmlns="http://www.w3.org/2000/svg">
    <path
        d="M 150 100 A 125 125 0 0 0 25 225 L 25 300 L 0 300 L 0 300.07031 A 25 25 0 0 0 -25 325 A 25 25 0 0 0 0 349.92969 L 0 350 L 25 350 L 25 425 A 125 125 0 0 0 150 550 L 350 550 A 125 125 0 0 0 475 425 L 475 225 A 125 125 0 0 0 350 100 L 150 100 z M 150 150 L 350 150 A 75 75 0 0 1 425 225 A 75 75 0 0 1 350 300 L 75 300 L 75 225 A 75 75 0 0 1 150 150 z M 425 324.5 L 425 425 A 75 75 0 0 1 350 500 L 150 500 A 75 75 0 0 1 75 425 L 75 350 L 350 350 A 125 125 0 0 0 425 324.5 z " />
    <path
        d="M 444.43945 50.630859 A 25 25 0 0 0 425 75 L 425 425 A 75 75 0 0 1 350 500 L 150 500 A 75 75 0 0 1 75 425 A 75 75 0 0 1 150 350 A 25 25 0 0 0 175 325 A 25 25 0 0 0 150 300 L 0 300 L 0 300.63086 A 25 25 0 0 0 -25 325 A 25 25 0 0 0 0 349.36914 L 0 350 L 50.189453 350 A 125 125 0 0 0 25 425 A 125 125 0 0 0 150 550 L 350 550 A 125 125 0 0 0 475 425 L 475 75 A 25 25 0 0 0 444.43945 50.630859 z "
        style="fill:none;stroke:red;" />
    <path
        d="M 450 50 A 25 25 0 0 0 425 75 L 425 425 A 75 75 0 0 1 350 500 L 150 500 A 75 75 0 0 1 75 425 L 75 350 L 150 350 A 125 125 0 0 0 275 225 A 125 125 0 0 0 150 100 A 125 125 0 0 0 25 225 L 25 300 L 0 300 A 25 25 0 0 0 -25 325 A 25 25 0 0 0 0 350 L 25 350 L 25 425 A 125 125 0 0 0 150 550 L 350 550 A 125 125 0 0 0 475 425 L 475 75 A 25 25 0 0 0 450 50 z M 150 150 A 75 75 0 0 1 225 225 A 75 75 0 0 1 150 300 L 75 300 L 75 225 A 75 75 0 0 1 150 150 z "
        style="fill:none;stroke:red;" />
    <path
        d="M 150 100 A 125 125 0 0 0 25 225 L 25 300 L 0 300 A 25 25 0 0 0 -25 325 A 25 25 0 0 0 0 350 L 25 350 L 25 425 A 125 125 0 0 0 150 550 L 450 550 A 25 25 0 0 0 475 525 A 25 25 0 0 0 450 500 L 150 500 A 75 75 0 0 1 75 425 L 75 350 L 150 350 A 125 125 0 0 0 275 225 A 125 125 0 0 0 150 100 z M 150 150 A 75 75 0 0 1 225 225 A 75 75 0 0 1 150 300 L 75 300 L 75 225 A 75 75 0 0 1 150 150 z "
        style="fill:none;stroke:red;" />
    <path
        d="M 150 100 A 125 125 0 0 0 128.16992 102.15039 A 125 125 0 0 0 122.07031 103.48047 A 125 125 0 0 0 105.82031 108.41016 A 125 125 0 0 0 100.58984 110.35938 A 125 125 0 0 0 81.369141 120.63086 A 125 125 0 0 0 78.150391 123.03906 A 125 125 0 0 0 64.130859 134.53906 A 125 125 0 0 0 59.550781 139.13086 A 125 125 0 0 0 48.050781 153.15039 A 125 125 0 0 0 45.630859 156.36914 A 125 125 0 0 0 35.359375 175.58984 A 125 125 0 0 0 33.410156 180.82031 A 125 125 0 0 0 28.480469 197.07031 A 125 125 0 0 0 27.150391 203.16992 A 125 125 0 0 0 25 225 A 25 25 0 0 0 26.740234 233.73047 A 25 25 0 0 0 27.990234 236.19922 A 25 25 0 0 0 31.449219 241.36914 A 25 25 0 0 0 33.640625 243.56055 A 25 25 0 0 0 38.800781 247 A 25 25 0 0 0 41.269531 248.25 A 25 25 0 0 0 50 250 A 25 25 0 0 0 58.730469 248.25977 A 25 25 0 0 0 61.199219 247.00977 A 25 25 0 0 0 66.359375 243.56055 A 25 25 0 0 0 68.560547 241.35938 A 25 25 0 0 0 72 236.19922 A 25 25 0 0 0 73.259766 233.73047 A 25 25 0 0 0 75 225 A 75 75 0 0 1 76.769531 209.2793 A 75 75 0 0 1 78.269531 204.33984 A 75 75 0 0 1 81.800781 194.26953 A 75 75 0 0 1 84.669922 188.90039 A 75 75 0 0 1 89.869141 180.61914 A 75 75 0 0 1 93.910156 175.68945 A 75 75 0 0 1 100.68945 168.91016 A 75 75 0 0 1 105.61914 164.86914 A 75 75 0 0 1 113.90039 159.66992 A 75 75 0 0 1 119.26953 156.78906 A 75 75 0 0 1 129.33984 153.26953 A 75 75 0 0 1 134.2793 151.76953 A 75 75 0 0 1 150 150 L 350 150 A 75 75 0 0 1 425 225 L 425 425 A 75 75 0 0 1 350 500 L 150 500 A 75 75 0 0 1 75 425 A 75 75 0 0 1 150 350 A 25 25 0 0 0 175 325 A 25 25 0 0 0 150 300 L 0 300 L 0 300.07031 A 25 25 0 0 0 -25 325 A 25 25 0 0 0 0 349.92969 L 0 350 L 50.400391 350 A 125 125 0 0 0 25 425 A 125 125 0 0 0 150 550 L 350 550 A 125 125 0 0 0 475 425 L 475 225 A 125 125 0 0 0 350 100 L 150 100 z "
        style="fill:none;stroke:red;" />
    <path
        d="M 150 100 A 125 125 0 0 0 25 225 L 25 300 L 0 300 L 0 300.07031 A 25 25 0 0 0 -25 325 A 25 25 0 0 0 0 349.92969 L 0 350 L 25 350 L 25 425 A 125 125 0 0 0 150 550 L 350 550 A 125 125 0 0 0 475 425 L 475 225 A 125 125 0 0 0 350 100 L 150 100 z M 150 150 L 350 150 A 75 75 0 0 1 425 225 A 75 75 0 0 1 350 300 L 75 300 L 75 225 A 75 75 0 0 1 150 150 z M 425 324.5 L 425 425 A 75 75 0 0 1 350 500 L 150 500 A 75 75 0 0 1 75 425 L 75 350 L 350 350 A 125 125 0 0 0 425 324.5 z "
        style="fill:none;stroke:red;" />
    <path
        d="M 150 100 A 125 125 0 0 0 25 225 L 25 300 L 0 300 L 0 300.07031 A 25 25 0 0 0 -25 325 A 25 25 0 0 0 0 349.92969 L 0 350 L 25 350 L 25 425 A 125 125 0 0 0 150 550 L 350 550 A 125 125 0 0 0 475 425 A 25 25 0 0 0 450 400 A 25 25 0 0 0 425 425 A 75 75 0 0 1 350 500 L 150 500 A 75 75 0 0 1 75 425 L 75 350 L 350 350 A 125 125 0 0 0 475 225 A 125 125 0 0 0 350 100 L 150 100 z M 150 150 L 350 150 A 75 75 0 0 1 425 225 A 75 75 0 0 1 350 300 L 75 300 L 75 225 A 75 75 0 0 1 150 150 z "
        style="fill:none;stroke:red;" />
    <path
        d="M 150 100 A 125 125 0 0 0 25 225 A 125 125 0 0 0 50.189453 300 L 0 300 L 0 300.07031 A 25 25 0 0 0 -25 325 A 25 25 0 0 0 0 349.92969 L 0 350 L 150 350 A 25 25 0 0 0 175 325 A 25 25 0 0 0 150 300 A 75 75 0 0 1 75 225 A 75 75 0 0 1 150 150 L 350 150 A 75 75 0 0 1 425 225 L 425 575 A 25 25 0 0 0 475 575 L 475 225 A 125 125 0 0 0 350 100 L 150 100 z "
        style="fill:none;stroke:red;" />
    <path
        d="M 150 100 A 125 125 0 0 0 25 225 L 25 300 L 0 300 L 0 300.07031 A 25 25 0 0 0 -25 325 A 25 25 0 0 0 0 349.92969 L 0 350 L 25 350 L 25 425 A 125 125 0 0 0 150 550 A 125 125 0 0 0 275 425 A 125 125 0 0 0 150 300 L 75 300 L 75 225 A 75 75 0 0 1 150 150 L 350 150 A 75 75 0 0 1 425 225 L 425 575 A 25 25 0 0 0 475 575 L 475 225 A 125 125 0 0 0 350 100 L 150 100 z M 75 350 L 150 350 A 75 75 0 0 1 225 425 A 75 75 0 0 1 150 500 A 75 75 0 0 1 75 425 L 75 350 z "
        style="fill:none;stroke:red;" />
    <path
        d="M 150 100 A 125 125 0 0 0 25 225 L 25 300 L 0 300 L 0 300.07031 A 25 25 0 0 0 -25 325 A 25 25 0 0 0 0 349.92969 L 0 350 L 25 350 L 25 425 A 125 125 0 0 0 150 550 A 125 125 0 0 0 275 425 A 125 125 0 0 0 150 300 L 75 300 L 75 225 A 75 75 0 0 1 150 150 L 450 150 L 450 149.36914 A 25 25 0 0 0 475 125 A 25 25 0 0 0 450 100.63086 L 450 100 L 150 100 z M 75 350 L 150 350 A 75 75 0 0 1 225 425 A 75 75 0 0 1 150 500 A 75 75 0 0 1 75 425 L 75 350 z "
        style="fill:none;stroke:red;" />
    <path
        d="M0-.5v1h24.5v49H0v1h24.5v49H0v1h24.5v49H0v1h24.5v49H0v1h24.5v49H0v1h24.5v49H0v1h24.5v49H0v1h24.5v49H0v1h24.5v49H0v1h24.5v49H0v1h24.5v49H0v1h24.5v49H0v1h24.5v49H0v1h500v-1h-24.5v-49H500v-1h-24.5v-49H500v-1h-24.5v-49H500v-1h-24.5v-49H500v-1h-24.5v-49H500v-1h-24.5v-49H500v-1h-24.5v-49H500v-1h-24.5v-49H500v-1h-24.5v-49H500v-1h-24.5v-49H500v-1h-24.5v-49H500v-1h-24.5v-49H500v-1h-24.5V.5H500v-1zm25.5 1h49v49h-49zm50 0h49v49h-49zm50 0h49v49h-49zm50 0h49v49h-49zm50 0h49v49h-49zm50 0h49v49h-49zm50 0h49v49h-49zm50 0h49v49h-49zm50 0h49v49h-49zm-400 50h49v49h-49zm50 0h49v49h-49zm50 0h49v49h-49zm50 0h49v49h-49zm50 0h49v49h-49zm50 0h49v49h-49zm50 0h49v49h-49zm50 0h49v49h-49zm50 0h49v49h-49zm-400 50h49v49h-49zm50 0h49v49h-49zm50 0h49v49h-49zm50 0h49v49h-49zm50 0h49v49h-49zm50 0h49v49h-49zm50 0h49v49h-49zm50 0h49v49h-49zm50 0h49v49h-49zm-400 50h49v49h-49zm50 0h49v49h-49zm50 0h49v49h-49zm50 0h49v49h-49zm50 0h49v49h-49zm50 0h49v49h-49zm50 0h49v49h-49zm50 0h49v49h-49zm50 0h49v49h-49zm-400 50h49v49h-49zm50 0h49v49h-49zm50 0h49v49h-49zm50 0h49v49h-49zm50 0h49v49h-49zm50 0h49v49h-49zm50 0h49v49h-49zm50 0h49v49h-49zm50 0h49v49h-49zm-400 50h49v49h-49zm50 0h49v49h-49zm50 0h49v49h-49zm50 0h49v49h-49zm50 0h49v49h-49zm50 0h49v49h-49zm50 0h49v49h-49zm50 0h49v49h-49zm50 0h49v49h-49zm-400 50h49v49h-49zm50 0h49v49h-49zm50 0h49v49h-49zm50 0h49v49h-49zm50 0h49v49h-49zm50 0h49v49h-49zm50 0h49v49h-49zm50 0h49v49h-49zm50 0h49v49h-49zm-400 50h49v49h-49zm50 0h49v49h-49zm50 0h49v49h-49zm50 0h49v49h-49zm50 0h49v49h-49zm50 0h49v49h-49zm50 0h49v49h-49zm50 0h49v49h-49zm50 0h49v49h-49zm-400 50h49v49h-49zm50 0h49v49h-49zm50 0h49v49h-49zm50 0h49v49h-49zm50 0h49v49h-49zm50 0h49v49h-49zm50 0h49v49h-49zm50 0h49v49h-49zm50 0h49v49h-49zm-400 50h49v49h-49zm50 0h49v49h-49zm50 0h49v49h-49zm50 0h49v49h-49zm50 0h49v49h-49zm50 0h49v49h-49zm50 0h49v49h-49zm50 0h49v49h-49zm50 0h49v49h-49zm-400 50h49v49h-49zm50 0h49v49h-49zm50 0h49v49h-49zm50 0h49v49h-49zm50 0h49v49h-49zm50 0h49v49h-49zm50 0h49v49h-49zm50 0h49v49h-49zm50 0h49v49h-49zm-400 50h49v49h-49zm50 0h49v49h-49zm50 0h49v49h-49zm50 0h49v49h-49zm50 0h49v49h-49zm50 0h49v49h-49zm50 0h49v49h-49zm50 0h49v49h-49zm50 0h49v49h-49zm-400 50h49v49h-49zm50 0h49v49h-49zm50 0h49v49h-49zm50 0h49v49h-49zm50 0h49v49h-49zm50 0h49v49h-49zm50 0h49v49h-49zm50 0h49v49h-49zm50 0h49v49h-49z"
        style="fill:none;stroke:red;" />
</svg>