<svg width="500" height="650" xmlns="http://www.w3.org/2000/svg" xmlns:xlink="http://www.w3.org/1999/xlink">
    <path
        d="M 350 50 A 125 125 0 0 0 225 175 L 225 225 A 75 75 0 0 1 150 300 A 25 25 0 0 0 141.26953 301.74023 L 140.03906 302.16992 A 25 25 0 0 0 132.99023 306.86914 A 25 25 0 0 0 131.86914 307.99023 A 25 25 0 0 0 127.16992 315.03906 L 126.74023 316.26953 A 25 25 0 0 0 125 325 A 25 25 0 0 0 126.74023 333.73047 L 127.16992 334.96094 A 25 25 0 0 0 131.86914 342.00977 A 25 25 0 0 0 132.99023 343.13086 A 25 25 0 0 0 140.03906 347.83008 L 141.26953 348.25977 A 25 25 0 0 0 150 350 A 75 75 0 0 1 225 425 L 225 475 A 125 125 0 0 0 350 600 A 25 25 0 0 0 375 575 A 25 25 0 0 0 350 550 A 75 75 0 0 1 275 475 L 275 425 A 125 125 0 0 0 224.83984 324.92969 A 125 125 0 0 0 275 225 L 275 175 A 75 75 0 0 1 350 100 A 25 25 0 0 0 375 75 A 25 25 0 0 0 350 50 z " />
</svg>