<svg width="500" height="650" xmlns="http://www.w3.org/2000/svg" xmlns:svg="http://www.w3.org/2000/svg">
    <path
        d="M 50,550 A 25,25 0 0 1 25,525 V 225 A 125,125 0 0 1 150,100 h 200 a 125,125 0 0 1 16.31641,1.07031 A 125,125 0 0 1 475,225 v 75 h 25 a 25,25 0 0 1 25,25 25,25 0 0 1 -25,25 h -25 v 75 A 125,125 0 0 1 350,550 125,125 0 0 1 225,425 125,125 0 0 1 350,300 h 75 V 225 A 75,75 0 0 0 350,150 H 150 a 75,75 0 0 0 -75,75 v 300 a 25,25 0 0 1 -25,25 z m 300,-50 a 75,75 0 0 0 75,-75 v -75 h -75 a 75,75 0 0 0 -75,75 75,75 0 0 0 75,75 z" />
    <path
        d="M 150 100 A 125 125 0 0 0 25 225 L 25 300 L 0 300 A 25 25 0 0 0 -25 325 A 25 25 0 0 0 0 350 L 25 350 L 25 425 A 125 125 0 0 0 150 550 A 125 125 0 0 0 275 425 A 125 125 0 0 0 150 300 L 75 300 L 75 225 A 75 75 0 0 1 150 150 L 350 150 A 75 75 0 0 1 425 225 L 425 525 A 25 25 0 0 0 450 550 A 25 25 0 0 0 475 525 L 475 225 A 125 125 0 0 0 350 100 L 150 100 z M 75 350 L 150 350 A 75 75 0 0 1 225 425 A 75 75 0 0 1 150 500 A 75 75 0 0 1 75 425 L 75 350 z " />
</svg>