<svg width="500" height="650" xmlns:inkscape="http://www.inkscape.org/namespaces/inkscape"
    xmlns="http://www.w3.org/2000/svg">
    <path
        d="M 150,100 C 80.964406,100 25,155.96441 25,225 v 200 c 0,69.03559 55.964406,125 125,125 h 300 c 13.80712,0 25,-11.19288 25,-25 0,-13.80712 -11.19288,-25 -25,-25 H 150 C 108.57864,500 75,466.42136 75,425 V 225 c 0,-41.42136 33.57864,-75 75,-75 h 300 c 13.80712,0 25,-11.19288 25,-25 0,-13.80712 -11.19288,-25 -25,-25 z" />
    <path
        d="M50 100a25 25 0 0 0-6.47.852 25 25 0 0 0-11.208 6.47 25 25 0 0 0 0 35.356l400 400a25 25 0 0 0 35.356 0 25 25 0 0 0 0-35.356l-400-400A25 25 0 0 0 50 100" />
</svg>