<svg width="500" height="650" xmlns="http://www.w3.org/2000/svg">
   <path
      d="M 150 100 A 125 125 0 0 0 81.123047 120.76367 L 67.679688 107.32031 L 67.679688 108.07031 A 25 25 0 0 0 55.560547 100.63086 A 25 25 0 0 0 25 125 A 25 25 0 0 0 32.919922 142.67969 L 32.320312 142.67969 L 45.763672 156.12305 A 125 125 0 0 0 25 225 L 25 300 L 0 300 A 25 25 0 0 0 -25 325 A 25 25 0 0 0 0 350 L 25 350 L 25 425 A 125 125 0 0 0 150 550 L 450 550 A 25 25 0 0 0 475 525 A 25 25 0 0 0 467.58594 507.32031 L 467.67969 507.32031 L 254.23633 293.87695 A 125 125 0 0 0 275 225 A 125 125 0 0 0 150 100 z M 150 150 A 75 75 0 0 1 225 225 A 75 75 0 0 1 217.26758 256.9082 L 118.0918 157.73242 A 75 75 0 0 1 150 150 z M 82.732422 193.0918 L 181.9082 292.26758 A 75 75 0 0 1 150 300 L 75 300 L 75 225 A 75 75 0 0 1 82.732422 193.0918 z M 218.87695 329.23633 L 389.64062 500 L 150 500 A 75 75 0 0 1 75 425 L 75 350 L 150 350 A 125 125 0 0 0 218.87695 329.23633 z " />
</svg>