<svg width="500" height="650" xmlns="http://www.w3.org/2000/svg" xmlns:xlink="http://www.w3.org/1999/xlink">
    <path
        d="M 250 0 A 25 25 0 0 0 225 25 L 225 625 A 25 25 0 0 0 250 650 A 25 25 0 0 0 275 625 L 275 25 A 25 25 0 0 0 250 0 z " />
    <path
        d="M50 100a25 25 0 0 0-6.47.852 25 25 0 0 0-11.208 6.47 25 25 0 0 0 0 35.356l400 400a25 25 0 0 0 35.356 0 25 25 0 0 0 0-35.356l-400-400A25 25 0 0 0 50 100" />
    <path
        d="M 50 100 A 25 25 0 0 0 25 125 A 25 25 0 0 0 50 150 L 450 150 A 25 25 0 0 0 475 125 A 25 25 0 0 0 450 100 L 50 100 z " />
    <path
        d="M 50 500 A 25 25 0 0 0 25 525 A 25 25 0 0 0 50 550 L 450 550 A 25 25 0 0 0 475 525 A 25 25 0 0 0 450 500 L 50 500 z " />
</svg>