<svg width="500" height="650" xmlns="http://www.w3.org/2000/svg" xmlns:svg="http://www.w3.org/2000/svg">
    <path
        d="M 50 100 A 25 25 0 0 0 25 125 L 25 425 A 125 125 0 0 0 150 550 L 350 550 A 125 125 0 0 0 366.31641 548.92969 A 125 125 0 0 0 475 425 L 475 350 L 500 350 A 25 25 0 0 0 525 325 A 25 25 0 0 0 500 300 L 475 300 L 475 225 A 125 125 0 0 0 350 100 A 125 125 0 0 0 225 225 A 125 125 0 0 0 350 350 L 425 350 L 425 425 A 75 75 0 0 1 350 500 L 150 500 A 75 75 0 0 1 75 425 L 75 125 A 25 25 0 0 0 50 100 z M 350 150 A 75 75 0 0 1 425 225 L 425 300 L 350 300 A 75 75 0 0 1 275 225 A 75 75 0 0 1 350 150 z " />
    <path
        d="M50 100a25 25 0 0 0-6.47.852 25 25 0 0 0-11.208 6.47 25 25 0 0 0 0 35.356l400 400a25 25 0 0 0 35.356 0 25 25 0 0 0 0-35.356l-400-400A25 25 0 0 0 50 100" />
</svg>