<svg width="500" height="650" xmlns="http://www.w3.org/2000/svg">
   <path
      d="M 150 100 A 125 125 0 0 0 81.123047 120.76367 L 67.679688 107.32031 L 67.679688 108.07031 A 25 25 0 0 0 55.560547 100.63086 A 25 25 0 0 0 25 125 A 25 25 0 0 0 32.919922 142.67969 L 32.320312 142.67969 L 45.763672 156.12305 A 125 125 0 0 0 25 225 L 25 300 L 0 300 A 25 25 0 0 0 -25 325 A 25 25 0 0 0 0 350 L 25 350 L 25 425 A 125 125 0 0 0 150 550 L 350 550 A 125 125 0 0 0 418.87695 529.23633 L 432.32031 542.67969 L 432.32031 541.91992 A 25 25 0 0 0 475 525 A 25 25 0 0 0 467.08008 507.32031 L 467.67969 507.32031 L 454.23633 493.87695 A 125 125 0 0 0 475 425 L 475 350 L 500 350 A 25 25 0 0 0 525 325 A 25 25 0 0 0 500 300 L 475 300 L 475 225 A 125 125 0 0 0 350 100 A 125 125 0 0 0 250.28906 150.41016 A 125 125 0 0 0 150 100 z M 150 150 A 75 75 0 0 1 225 225 A 75 75 0 0 1 217.26758 256.9082 L 118.0918 157.73242 A 75 75 0 0 1 150 150 z M 350 150 A 75 75 0 0 1 425 225 L 425 300 L 350 300 A 75 75 0 0 1 275 225 A 75 75 0 0 1 350 150 z M 82.732422 193.0918 L 181.9082 292.26758 A 75 75 0 0 1 150 300 L 75 300 L 75 225 A 75 75 0 0 1 82.732422 193.0918 z M 218.5332 328.89258 L 381.9082 492.26758 A 75 75 0 0 1 373.74023 495.65039 A 75 75 0 0 1 368.14062 497.60938 A 75 75 0 0 1 350 500 L 150 500 A 75 75 0 0 1 131.85938 497.60938 A 75 75 0 0 1 126.25977 495.65039 A 75 75 0 0 1 114.81055 490.91016 A 75 75 0 0 1 108.93945 487.21094 A 75 75 0 0 1 99.839844 480.23047 A 75 75 0 0 1 94.769531 475.16016 A 75 75 0 0 1 87.779297 466.06055 A 75 75 0 0 1 84.089844 460.18945 A 75 75 0 0 1 79.349609 448.74023 A 75 75 0 0 1 77.390625 443.14062 A 75 75 0 0 1 75 425 L 75 350 L 150 350 A 125 125 0 0 0 218.5332 328.89258 z M 298.54688 338.18945 A 125 125 0 0 0 350 350 L 425 350 L 425 425 A 75 75 0 0 1 422.60938 443.14062 A 75 75 0 0 1 420.65039 448.74023 A 75 75 0 0 1 417.26758 456.9082 L 298.54688 338.18945 z " />
</svg>