<?xml version="1.0" encoding="UTF-8" standalone="no"?>
<svg width="500" height="650" version="1.1" id="svg12" sodipodi:docname="uni004b.fina.svg" inkscape:version="1.4.2 (ebf0e940, 2025-05-08)" xmlns:inkscape="http://www.inkscape.org/namespaces/inkscape" xmlns:sodipodi="http://sodipodi.sourceforge.net/DTD/sodipodi-0.dtd" xmlns="http://www.w3.org/2000/svg" xmlns:svg="http://www.w3.org/2000/svg">
    <defs id="defs12" />
    <sodipodi:namedview id="namedview12" pagecolor="#ffffff" bordercolor="#000000" borderopacity="0.25" inkscape:showpageshadow="2" inkscape:pageopacity="0.0" inkscape:pagecheckerboard="0" inkscape:deskcolor="#d1d1d1" inkscape:zoom="0.81846154" inkscape:cx="250.46992" inkscape:cy="325" inkscape:window-width="888" inkscape:window-height="751" inkscape:window-x="0" inkscape:window-y="25" inkscape:window-maximized="0" inkscape:current-layer="svg12" />
    <path id="path2" d="M 150,550 A 125,125 0 0 1 25,425 125,125 0 0 1 50,350 H 0 A 25,25 0 0 1 -25,325 25,25 0 0 1 0,300 h 150 a 25,25 0 0 1 25,25 25,25 0 0 1 -25,25 75,75 0 0 0 -75,75 75,75 0 0 0 75,75 h 200 a 75,75 0 0 0 75,-75 V 125 a 25,25 0 0 1 25,-25 25,25 0 0 1 25,25 V 425 A 125,125 0 0 1 350,550 Z" />
</svg>
