<?xml version="1.0" encoding="UTF-8" standalone="no"?>
<svg width="500" height="650" version="1.1" id="svg6" sodipodi:docname="uni0051.init.svg"
    inkscape:version="1.4.2 (ebf0e940, 2025-05-08)" xmlns:inkscape="http://www.inkscape.org/namespaces/inkscape"
    xmlns:sodipodi="http://sodipodi.sourceforge.net/DTD/sodipodi-0.dtd" xmlns="http://www.w3.org/2000/svg"
    xmlns:svg="http://www.w3.org/2000/svg">
    <defs id="defs6" />
    <sodipodi:namedview id="namedview6" pagecolor="#ffffff" bordercolor="#000000" borderopacity="0.25"
        inkscape:showpageshadow="2" inkscape:pageopacity="0.0" inkscape:pagecheckerboard="0"
        inkscape:deskcolor="#d1d1d1" inkscape:zoom="0.70153846" inkscape:cx="249.45175" inkscape:cy="325"
        inkscape:window-width="1080" inkscape:window-height="675" inkscape:window-x="0" inkscape:window-y="25"
        inkscape:window-maximized="0" inkscape:current-layer="svg6" />
    <path id="path2"
        d="M 150 100 L 150 150 L 350 150 C 391.42136 150 425 183.57864 425 225 L 425 425 C 425 466.42136 391.42136 500 350 500 L 50 500 C 36.19288 500 25 511.19288 25 525 C 25 538.80712 36.19288 550 50 550 L 350 550 C 419.03559 550 475 494.03559 475 425 L 475 225 C 475 155.96441 419.03559 100 350 100 L 150 100 z " />
    <path id="circle2"
        d="M 150 100 A 125 125 0 0 0 25 225 A 125 125 0 0 0 150 350 L 500 350 A 25 25 0 0 0 525 325 A 25 25 0 0 0 500 300 L 150 300 A 75 75 0 0 1 75 225 A 75 75 0 0 1 150 150 L 150 100 z " />
    <!-- <path -->
    <!-- d="M0-.5v1h24.5v49H0v1h24.5v49H0v1h24.5v49H0v1h24.5v49H0v1h24.5v49H0v1h24.5v49H0v1h24.5v49H0v1h24.5v49H0v1h24.5v49H0v1h24.5v49H0v1h24.5v49H0v1h24.5v49H0v1h24.5v49H0v1h500v-1h-24.5v-49H500v-1h-24.5v-49H500v-1h-24.5v-49H500v-1h-24.5v-49H500v-1h-24.5v-49H500v-1h-24.5v-49H500v-1h-24.5v-49H500v-1h-24.5v-49H500v-1h-24.5v-49H500v-1h-24.5v-49H500v-1h-24.5v-49H500v-1h-24.5v-49H500v-1h-24.5V.5H500v-1zm25.5 1h49v49h-49zm50 0h49v49h-49zm50 0h49v49h-49zm50 0h49v49h-49zm50 0h49v49h-49zm50 0h49v49h-49zm50 0h49v49h-49zm50 0h49v49h-49zm50 0h49v49h-49zm-400 50h49v49h-49zm50 0h49v49h-49zm50 0h49v49h-49zm50 0h49v49h-49zm50 0h49v49h-49zm50 0h49v49h-49zm50 0h49v49h-49zm50 0h49v49h-49zm50 0h49v49h-49zm-400 50h49v49h-49zm50 0h49v49h-49zm50 0h49v49h-49zm50 0h49v49h-49zm50 0h49v49h-49zm50 0h49v49h-49zm50 0h49v49h-49zm50 0h49v49h-49zm50 0h49v49h-49zm-400 50h49v49h-49zm50 0h49v49h-49zm50 0h49v49h-49zm50 0h49v49h-49zm50 0h49v49h-49zm50 0h49v49h-49zm50 0h49v49h-49zm50 0h49v49h-49zm50 0h49v49h-49zm-400 50h49v49h-49zm50 0h49v49h-49zm50 0h49v49h-49zm50 0h49v49h-49zm50 0h49v49h-49zm50 0h49v49h-49zm50 0h49v49h-49zm50 0h49v49h-49zm50 0h49v49h-49zm-400 50h49v49h-49zm50 0h49v49h-49zm50 0h49v49h-49zm50 0h49v49h-49zm50 0h49v49h-49zm50 0h49v49h-49zm50 0h49v49h-49zm50 0h49v49h-49zm50 0h49v49h-49zm-400 50h49v49h-49zm50 0h49v49h-49zm50 0h49v49h-49zm50 0h49v49h-49zm50 0h49v49h-49zm50 0h49v49h-49zm50 0h49v49h-49zm50 0h49v49h-49zm50 0h49v49h-49zm-400 50h49v49h-49zm50 0h49v49h-49zm50 0h49v49h-49zm50 0h49v49h-49zm50 0h49v49h-49zm50 0h49v49h-49zm50 0h49v49h-49zm50 0h49v49h-49zm50 0h49v49h-49zm-400 50h49v49h-49zm50 0h49v49h-49zm50 0h49v49h-49zm50 0h49v49h-49zm50 0h49v49h-49zm50 0h49v49h-49zm50 0h49v49h-49zm50 0h49v49h-49zm50 0h49v49h-49zm-400 50h49v49h-49zm50 0h49v49h-49zm50 0h49v49h-49zm50 0h49v49h-49zm50 0h49v49h-49zm50 0h49v49h-49zm50 0h49v49h-49zm50 0h49v49h-49zm50 0h49v49h-49zm-400 50h49v49h-49zm50 0h49v49h-49zm50 0h49v49h-49zm50 0h49v49h-49zm50 0h49v49h-49zm50 0h49v49h-49zm50 0h49v49h-49zm50 0h49v49h-49zm50 0h49v49h-49zm-400 50h49v49h-49zm50 0h49v49h-49zm50 0h49v49h-49zm50 0h49v49h-49zm50 0h49v49h-49zm50 0h49v49h-49zm50 0h49v49h-49zm50 0h49v49h-49zm50 0h49v49h-49zm-400 50h49v49h-49zm50 0h49v49h-49zm50 0h49v49h-49zm50 0h49v49h-49zm50 0h49v49h-49zm50 0h49v49h-49zm50 0h49v49h-49zm50 0h49v49h-49zm50 0h49v49h-49z" -->
    <!-- style="fill:none;stroke:red;" /> -->
</svg>