<svg width="500" height="650" xmlns="http://www.w3.org/2000/svg">
    <path
        d="M 150 100 A 125 125 0 0 0 126.88086 102.2793 A 125 125 0 0 0 119.53906 104.25 A 125 125 0 0 0 104.58008 108.7793 A 125 125 0 0 0 96.400391 112.59961 A 125 125 0 0 0 83.830078 119.31055 A 125 125 0 0 0 76.039062 124.76953 A 125 125 0 0 0 65.369141 133.5293 A 125 125 0 0 0 58.529297 140.36914 A 125 125 0 0 0 49.769531 151.03906 A 125 125 0 0 0 44.310547 158.83984 A 125 125 0 0 0 37.599609 171.40039 A 125 125 0 0 0 33.779297 179.58008 A 125 125 0 0 0 29.25 194.53906 A 125 125 0 0 0 27.279297 201.88086 A 125 125 0 0 0 25 225 L 25 300 L 0 300 A 25 25 0 0 0 -25 325 A 25 25 0 0 0 0 350 L 25 350 L 25 425 A 125 125 0 0 0 150 550 A 125 125 0 0 0 250.08984 499.34961 A 125 125 0 0 0 350 550 A 125 125 0 0 0 475 425 L 475 350 L 500 350 A 25 25 0 0 0 525 325 A 25 25 0 0 0 500 300 L 475 300 L 475 225 A 125 125 0 0 0 474.74023 216.98047 L 474.49023 214.41992 A 125 125 0 0 0 473.96094 209 A 125 125 0 0 0 473.46094 205.82031 A 125 125 0 0 0 472.67969 201.09961 A 125 125 0 0 0 471.91992 197.7207 A 125 125 0 0 0 470.88086 193.26953 A 125 125 0 0 0 469.90039 189.88086 A 125 125 0 0 0 468.59961 185.58008 A 125 125 0 0 0 467.38086 182.17969 A 125 125 0 0 0 465.82031 178.03906 A 125 125 0 0 0 464.38086 174.7207 A 125 125 0 0 0 462.56055 170.7207 A 125 125 0 0 0 460.89062 167.43945 A 125 125 0 0 0 458.84961 163.61914 A 125 125 0 0 0 456.94922 160.41016 A 125 125 0 0 0 454.67969 156.75977 A 125 125 0 0 0 452.58008 153.66016 A 125 125 0 0 0 450.09961 150.21094 A 125 125 0 0 0 447.76953 147.18945 A 125 125 0 0 0 445.08984 143.92969 A 125 125 0 0 0 442.58984 141.08984 A 125 125 0 0 0 439.68945 137.99023 A 125 125 0 0 0 437 135.31055 A 125 125 0 0 0 433.91016 132.41016 A 125 125 0 0 0 431.07031 129.91016 A 125 125 0 0 0 427.81055 127.23047 A 125 125 0 0 0 424.78906 124.90039 A 125 125 0 0 0 421.33984 122.41992 A 125 125 0 0 0 418.24023 120.32031 A 125 125 0 0 0 414.58984 118.05078 A 125 125 0 0 0 411.38086 116.15039 A 125 125 0 0 0 407.56055 114.10938 A 125 125 0 0 0 404.2793 112.43945 A 125 125 0 0 0 400.2793 110.61914 A 125 125 0 0 0 396.96094 109.17969 A 125 125 0 0 0 392.81055 107.61914 A 125 125 0 0 0 389.41016 106.40039 A 125 125 0 0 0 385.10938 105.09961 A 125 125 0 0 0 381.73047 104.10938 A 125 125 0 0 0 377.28906 103.08008 A 125 125 0 0 0 373.91016 102.32031 A 125 125 0 0 0 369.17969 101.53906 A 125 125 0 0 0 366 101.03906 A 125 125 0 0 0 360.58008 100.50977 L 358.01953 100.25977 A 125 125 0 0 0 350 100 L 150 100 z M 150 150 L 350 150 A 75 75 0 0 1 356.05078 150.25 L 357.99023 150.48047 A 75 75 0 0 1 362.05078 150.98047 L 364.40039 151.46094 A 75 75 0 0 1 367.9707 152.19922 A 75 75 0 0 1 370.41992 152.90039 A 75 75 0 0 1 373.80078 153.90039 A 75 75 0 0 1 376.24023 154.80078 A 75 75 0 0 1 379.42969 156.03906 A 75 75 0 0 1 381.90039 157.17969 A 75 75 0 0 1 384.90039 158.65039 A 75 75 0 0 1 387.30078 160 A 75 75 0 0 1 390.11914 161.67969 A 75 75 0 0 1 392.43945 163.23047 A 75 75 0 0 1 395.08984 165.13086 A 75 75 0 0 1 397.28906 166.84961 A 75 75 0 0 1 399.78906 168.96094 A 75 75 0 0 1 401.83984 170.85938 A 75 75 0 0 1 404.14062 173.16016 A 75 75 0 0 1 406.03906 175.2207 A 75 75 0 0 1 408.15039 177.7207 A 75 75 0 0 1 409.88086 179.90039 A 75 75 0 0 1 411.76953 182.55078 A 75 75 0 0 1 413.32031 184.88086 A 75 75 0 0 1 415 187.69922 A 75 75 0 0 1 416.34961 190.09961 A 75 75 0 0 1 417.82031 193.09961 A 75 75 0 0 1 418.96094 195.57031 A 75 75 0 0 1 420.19922 198.76953 A 75 75 0 0 1 421.09961 201.19922 A 75 75 0 0 1 422.09961 204.58008 A 75 75 0 0 1 422.80078 207.0293 A 75 75 0 0 1 423.55078 210.59961 L 424.00977 212.94922 A 75 75 0 0 1 424.51953 217.00977 L 424.75 218.94922 A 75 75 0 0 1 425 225 L 425 300 L 350 300 A 125 125 0 0 0 250.25977 350.34961 A 125 125 0 0 0 150 300 L 75 300 L 75 225 A 75 75 0 0 1 76.880859 208.31055 A 75 75 0 0 1 150 150 z M 75 350 L 150 350 A 75 75 0 0 1 225 425 A 75 75 0 0 1 150 500 A 75 75 0 0 1 75 425 L 75 350 z M 350 350 L 425 350 L 425 425 A 75 75 0 0 1 350 500 A 75 75 0 0 1 275 425 A 75 75 0 0 1 350 350 z " />
    <path
        d="M 350 100 A 125 125 0 0 0 225 225 A 125 125 0 0 0 350 350 L 425 350 L 425 425 A 75 75 0 0 1 423.94922 436.98047 A 75 75 0 0 1 423.15039 440.71094 A 75 75 0 0 1 420.99023 448.74023 A 75 75 0 0 1 419.4707 452.80078 A 75 75 0 0 1 416.07031 460.08008 A 75 75 0 0 1 414.07031 463.75 A 75 75 0 0 1 408.80078 471.2793 A 75 75 0 0 1 407.08008 473.58008 A 75 75 0 0 1 398.58008 482.08008 A 75 75 0 0 1 396.2793 483.80078 A 75 75 0 0 1 388.75 489.08008 A 75 75 0 0 1 385.08008 491.08008 A 75 75 0 0 1 377.80078 494.48047 A 75 75 0 0 1 373.74023 495.98047 A 75 75 0 0 1 365.71094 498.14062 A 75 75 0 0 1 361.98047 498.94922 A 75 75 0 0 1 350 500 L 150 500 A 75 75 0 0 1 75 425 A 75 75 0 0 1 150 350 A 25 25 0 0 0 175 325 A 25 25 0 0 0 150 300 L 0 300 A 25 25 0 0 0 -25 325 A 25 25 0 0 0 0 350 L 50.189453 350 A 125 125 0 0 0 25 425 A 125 125 0 0 0 150 550 L 350 550 A 125 125 0 0 0 365.26953 549 A 125 125 0 0 0 370.10938 548.17969 A 125 125 0 0 0 380.31055 546.15039 A 125 125 0 0 0 385.88086 544.55078 A 125 125 0 0 0 395.00977 541.44922 A 125 125 0 0 0 400.51953 539.15039 A 125 125 0 0 0 409.14062 534.91016 A 125 125 0 0 0 414.24023 532.08984 A 125 125 0 0 0 422.81055 526.35938 A 125 125 0 0 0 426.91016 523.46094 A 125 125 0 0 0 438.39062 513.39062 A 125 125 0 0 0 448.46094 501.91016 A 125 125 0 0 0 451.35938 497.81055 A 125 125 0 0 0 457.08984 489.24023 A 125 125 0 0 0 459.91016 484.14062 A 125 125 0 0 0 464.16016 475.51953 A 125 125 0 0 0 466.43945 470.00977 A 125 125 0 0 0 469.53906 460.88086 A 125 125 0 0 0 471.14062 455.31055 A 125 125 0 0 0 473.17969 445.10938 A 125 125 0 0 0 474 440.26953 A 125 125 0 0 0 475 425 L 475 350 L 500 350 A 25 25 0 0 0 525 325 A 25 25 0 0 0 500 300 L 475 300 L 475 225 A 125 125 0 0 0 350 100 z M 350 150 A 75 75 0 0 1 425 225 L 425 300 L 350 300 A 75 75 0 0 1 275 225 A 75 75 0 0 1 350 150 z "
        style="fill:none;stroke:red;" />
    <path
        d="M 150 100 A 125 125 0 0 0 25 225 L 25 300 L 0 300 A 25 25 0 0 0 -25 325 A 25 25 0 0 0 0 350 L 25 350 L 25 425 A 125 125 0 0 0 150 550 L 350 550 A 125 125 0 0 0 475 425 L 475 350 L 500 350 A 25 25 0 0 0 525 325 A 25 25 0 0 0 500 300 L 475 300 L 475 225 A 125 125 0 0 0 350 100 A 125 125 0 0 0 250.28906 150.41016 A 125 125 0 0 0 150 100 z M 150 150 A 75 75 0 0 1 225 225 A 75 75 0 0 1 150 300 L 75 300 L 75 225 A 75 75 0 0 1 150 150 z M 350 150 A 75 75 0 0 1 425 225 L 425 300 L 350 300 A 75 75 0 0 1 275 225 A 75 75 0 0 1 350 150 z M 250 299.28906 A 125 125 0 0 0 350 350 L 425 350 L 425 425 A 75 75 0 0 1 422.60938 443.14062 A 75 75 0 0 1 420.65039 448.74023 A 75 75 0 0 1 415.91016 460.18945 A 75 75 0 0 1 412.21094 466.06055 A 75 75 0 0 1 405.23047 475.16016 A 75 75 0 0 1 400.16016 480.23047 A 75 75 0 0 1 391.06055 487.2207 A 75 75 0 0 1 385.18945 490.91016 A 75 75 0 0 1 373.74023 495.65039 A 75 75 0 0 1 368.14062 497.60938 A 75 75 0 0 1 350 500 L 150 500 A 75 75 0 0 1 131.85938 497.60938 A 75 75 0 0 1 126.25977 495.65039 A 75 75 0 0 1 114.81055 490.91016 A 75 75 0 0 1 108.93945 487.21094 A 75 75 0 0 1 99.839844 480.23047 A 75 75 0 0 1 94.769531 475.16016 A 75 75 0 0 1 87.779297 466.06055 A 75 75 0 0 1 84.089844 460.18945 A 75 75 0 0 1 79.349609 448.74023 A 75 75 0 0 1 77.390625 443.14062 A 75 75 0 0 1 75 425 L 75 350 L 150 350 A 125 125 0 0 0 250 299.28906 z "
        style="fill:none;stroke:red;" />
    <path
        d="M 150 100 A 125 125 0 0 0 25 225 L 25 300 L 0 300 A 25 25 0 0 0 -25 325 A 25 25 0 0 0 0 350 L 25 350 L 25 425 A 125 125 0 0 0 26.380859 442.46094 A 125 125 0 0 0 27.199219 447.28906 A 125 125 0 0 0 30.460938 460.89062 A 125 125 0 0 0 31.550781 464.66016 A 125 125 0 0 0 38.199219 480.7207 A 125 125 0 0 0 40.080078 484.11914 A 125 125 0 0 0 47.410156 496.08008 A 125 125 0 0 0 50.240234 500.08008 A 125 125 0 0 0 61.609375 513.38086 A 125 125 0 0 0 74.919922 524.75977 A 125 125 0 0 0 78.919922 527.58984 A 125 125 0 0 0 90.880859 534.91992 A 125 125 0 0 0 94.279297 536.80078 A 125 125 0 0 0 110.33984 543.44922 A 125 125 0 0 0 114.10938 544.53906 A 125 125 0 0 0 127.71094 547.81055 A 125 125 0 0 0 132.53906 548.63086 A 125 125 0 0 0 150 550 L 350 550 A 125 125 0 0 0 475 425 A 125 125 0 0 0 449.98047 350 L 500 350 A 25 25 0 0 0 525 325 A 25 25 0 0 0 500 300 L 350 300 A 25 25 0 0 0 325 325 A 25 25 0 0 0 350 350 A 75 75 0 0 1 425 425 A 75 75 0 0 1 350 500 L 150 500 A 75 75 0 0 1 135.13086 498.32031 A 75 75 0 0 1 131.86914 497.61914 A 75 75 0 0 1 118 492.75977 L 116.16992 491.75977 A 75 75 0 0 1 104.84961 484.65039 A 75 75 0 0 1 102.4707 482.86914 A 75 75 0 0 1 92.130859 472.5293 A 75 75 0 0 1 90.349609 470.15039 A 75 75 0 0 1 83.240234 458.83008 L 82.240234 457 A 75 75 0 0 1 77.390625 443.13086 A 75 75 0 0 1 76.679688 439.86914 A 75 75 0 0 1 75 425 L 75 350 L 150 350 A 125 125 0 0 0 275 225 A 125 125 0 0 0 150 100 z M 150 150 A 75 75 0 0 1 225 225 A 75 75 0 0 1 150 300 L 75 300 L 75 225 A 75 75 0 0 1 150 150 z "
        style="fill:none;stroke:red;" />
    <path
        d="M 150 100 A 125 125 0 0 0 128.16992 102.15039 A 125 125 0 0 0 122.07031 103.48047 A 125 125 0 0 0 105.82031 108.41016 A 125 125 0 0 0 100.58984 110.35938 A 125 125 0 0 0 81.369141 120.63086 A 125 125 0 0 0 78.150391 123.03906 A 125 125 0 0 0 64.130859 134.53906 A 125 125 0 0 0 59.550781 139.13086 A 125 125 0 0 0 48.050781 153.15039 A 125 125 0 0 0 45.630859 156.36914 A 125 125 0 0 0 35.359375 175.58008 A 125 125 0 0 0 33.410156 180.82031 A 125 125 0 0 0 28.480469 197.06055 A 125 125 0 0 0 27.150391 203.16992 A 125 125 0 0 0 25 225 A 125 125 0 0 0 50.630859 300 L 0 300 L 0 300.07031 A 25 25 0 0 0 -25 325 A 25 25 0 0 0 0 349.92969 L 0 350 L 50.400391 350 A 125 125 0 0 0 25 425 A 125 125 0 0 0 150 550 L 350 550 A 125 125 0 0 0 475 425 L 475 350 L 500 350 A 25 25 0 0 0 525 325 A 25 25 0 0 0 500 300 L 475 300 L 475 225 A 125 125 0 0 0 350 100 L 150 100 z M 150 150 L 350 150 A 75 75 0 0 1 356.36914 150.2793 L 358.53906 150.55078 A 75 75 0 0 1 362.66992 151.08984 A 75 75 0 0 1 365.26953 151.64062 A 75 75 0 0 1 368.91016 152.43945 A 75 75 0 0 1 371.58008 153.24023 A 75 75 0 0 1 375 154.32031 A 75 75 0 0 1 377.64062 155.34961 A 75 75 0 0 1 380.93945 156.71094 A 75 75 0 0 1 383.49023 157.96094 A 75 75 0 0 1 386.63086 159.58984 A 75 75 0 0 1 389.08984 161.06055 A 75 75 0 0 1 392.06055 162.96094 A 75 75 0 0 1 394.40039 164.61914 A 75 75 0 0 1 397.17969 166.75977 A 75 75 0 0 1 399.39062 168.63086 A 75 75 0 0 1 401.96094 170.98047 A 75 75 0 0 1 404.01953 173.03906 A 75 75 0 0 1 406.36914 175.60938 A 75 75 0 0 1 408.24023 177.81055 A 75 75 0 0 1 410.38086 180.60938 A 75 75 0 0 1 412.05078 182.93945 A 75 75 0 0 1 413.93945 185.91016 A 75 75 0 0 1 415.41016 188.36914 A 75 75 0 0 1 417.03906 191.50977 A 75 75 0 0 1 418.28906 194.06055 A 75 75 0 0 1 419.65039 197.35938 A 75 75 0 0 1 420.67969 200 A 75 75 0 0 1 421.75977 203.41992 A 75 75 0 0 1 422.56055 206.08984 A 75 75 0 0 1 423.35938 209.73047 A 75 75 0 0 1 423.91016 212.33008 A 75 75 0 0 1 424.44922 216.46094 L 424.7207 218.63086 A 75 75 0 0 1 425 225 L 425 300 L 150 300 A 75 75 0 0 1 75 225 A 75 75 0 0 1 77.300781 207.55078 A 75 75 0 0 1 78.269531 204.33008 A 75 75 0 0 1 79.349609 201.25977 A 75 75 0 0 1 83.800781 190.5293 L 84.669922 188.90039 A 75 75 0 0 1 87.779297 183.93945 A 75 75 0 0 1 94.769531 174.83984 A 75 75 0 0 1 99.839844 169.76953 A 75 75 0 0 1 108.93945 162.7793 A 75 75 0 0 1 113.90039 159.66016 L 115.5293 158.78906 A 75 75 0 0 1 126.25977 154.34961 A 75 75 0 0 1 129.33008 153.26953 A 75 75 0 0 1 132.55078 152.30078 A 75 75 0 0 1 150 150 z M 150 350 L 425 350 L 425 425 A 75 75 0 0 1 422.60938 443.14062 A 75 75 0 0 1 420.65039 448.74023 A 75 75 0 0 1 415.91016 460.18945 A 75 75 0 0 1 412.21094 466.06055 A 75 75 0 0 1 405.23047 475.16016 A 75 75 0 0 1 400.16016 480.23047 A 75 75 0 0 1 391.06055 487.2207 A 75 75 0 0 1 385.18945 490.91016 A 75 75 0 0 1 373.74023 495.65039 A 75 75 0 0 1 368.14062 497.60938 A 75 75 0 0 1 350 500 L 150 500 A 75 75 0 0 1 131.85938 497.60938 A 75 75 0 0 1 126.25977 495.65039 A 75 75 0 0 1 114.81055 490.91016 A 75 75 0 0 1 108.93945 487.21094 A 75 75 0 0 1 99.839844 480.23047 A 75 75 0 0 1 94.769531 475.16016 A 75 75 0 0 1 87.779297 466.06055 A 75 75 0 0 1 84.089844 460.18945 A 75 75 0 0 1 79.349609 448.74023 A 75 75 0 0 1 77.390625 443.14062 A 75 75 0 0 1 75 425 A 75 75 0 0 1 150 350 z "
        style="fill:none;stroke:red;" />
    <path
        d="M 150 100 A 125 125 0 0 0 25 225 L 25 300 L 0 300 L 0 300.07031 A 25 25 0 0 0 -25 325 A 25 25 0 0 0 0 349.92969 L 0 350 L 25 350 L 25 425 A 125 125 0 0 0 150 550 L 350 550 A 125 125 0 0 0 475 425 L 475 350 L 500 350 L 500 349.92969 A 25 25 0 0 0 525 325 A 25 25 0 0 0 500 300.07031 L 500 300 L 475 300 L 475 225 A 125 125 0 0 0 350 100 L 150 100 z M 150 150 L 350 150 A 75 75 0 0 1 424.91016 221.32031 A 75 75 0 0 1 425 225 A 75 75 0 0 1 350 300 L 150 300 A 75 75 0 0 1 75 225 A 75 75 0 0 1 75.759766 214.33008 A 75 75 0 0 1 150 150 z M 75 350 L 425 350 L 425 425 A 75 75 0 0 1 350 500 L 150 500 A 75 75 0 0 1 75 425 L 75 350 z "
        style="fill:none;stroke:red;" />
    <path
        d="M 150 100 A 125 125 0 0 0 25 225 L 25 300 L 0 300 L 0 300.07031 A 25 25 0 0 0 -25 325 A 25 25 0 0 0 0 349.92969 L 0 350 L 25 350 L 25 425 A 125 125 0 0 0 150 550 L 350 550 A 125 125 0 0 0 475 425 A 125 125 0 0 0 449.96094 350 L 500 350 A 25 25 0 0 0 525 325 A 25 25 0 0 0 500 300 L 449.38086 300 A 125 125 0 0 0 475 225 A 125 125 0 0 0 350 100 L 150 100 z M 150 150 L 350 150 A 75 75 0 0 1 356.36914 150.2793 L 358.53906 150.55078 A 75 75 0 0 1 362.66992 151.08984 A 75 75 0 0 1 365.26953 151.64062 A 75 75 0 0 1 368.91016 152.43945 A 75 75 0 0 1 371.58008 153.24023 A 75 75 0 0 1 375 154.32031 A 75 75 0 0 1 377.64062 155.34961 A 75 75 0 0 1 380.93945 156.71094 A 75 75 0 0 1 383.49023 157.96094 A 75 75 0 0 1 386.63086 159.58984 A 75 75 0 0 1 389.08984 161.06055 A 75 75 0 0 1 392.06055 162.96094 A 75 75 0 0 1 394.40039 164.61914 A 75 75 0 0 1 397.17969 166.75977 A 75 75 0 0 1 399.39062 168.63086 A 75 75 0 0 1 401.96094 170.98047 A 75 75 0 0 1 404.01953 173.03906 A 75 75 0 0 1 406.36914 175.60938 A 75 75 0 0 1 408.24023 177.81055 A 75 75 0 0 1 410.38086 180.60938 A 75 75 0 0 1 412.05078 182.93945 A 75 75 0 0 1 413.93945 185.91016 A 75 75 0 0 1 415.41016 188.36914 A 75 75 0 0 1 417.03906 191.50977 A 75 75 0 0 1 418.28906 194.06055 A 75 75 0 0 1 419.65039 197.35938 A 75 75 0 0 1 420.67969 200 A 75 75 0 0 1 421.75977 203.41992 A 75 75 0 0 1 422.56055 206.08984 A 75 75 0 0 1 423.35938 209.73047 A 75 75 0 0 1 423.91016 212.33008 A 75 75 0 0 1 424.44922 216.46094 L 424.7207 218.63086 A 75 75 0 0 1 425 225 A 75 75 0 0 1 350 300 L 75 300 L 75 225 A 75 75 0 0 1 77.390625 206.85938 A 75 75 0 0 1 79.349609 201.25977 A 75 75 0 0 1 84.089844 189.81055 A 75 75 0 0 1 87.789062 183.93945 A 75 75 0 0 1 94.769531 174.83984 A 75 75 0 0 1 99.839844 169.76953 A 75 75 0 0 1 108.93945 162.7793 A 75 75 0 0 1 114.81055 159.08984 A 75 75 0 0 1 126.25977 154.34961 A 75 75 0 0 1 131.85938 152.39062 A 75 75 0 0 1 150 150 z M 75 350 L 350 350 A 75 75 0 0 1 425 425 A 75 75 0 0 1 422.60938 443.14062 A 75 75 0 0 1 420.65039 448.74023 A 75 75 0 0 1 415.91016 460.18945 A 75 75 0 0 1 412.21094 466.06055 A 75 75 0 0 1 405.23047 475.16016 A 75 75 0 0 1 400.16016 480.23047 A 75 75 0 0 1 391.06055 487.2207 A 75 75 0 0 1 385.18945 490.91016 A 75 75 0 0 1 373.74023 495.65039 A 75 75 0 0 1 368.14062 497.60938 A 75 75 0 0 1 350 500 L 150 500 A 75 75 0 0 1 131.85938 497.60938 A 75 75 0 0 1 126.25977 495.65039 A 75 75 0 0 1 114.81055 490.91016 A 75 75 0 0 1 108.93945 487.21094 A 75 75 0 0 1 99.839844 480.23047 A 75 75 0 0 1 94.769531 475.16016 A 75 75 0 0 1 87.779297 466.06055 A 75 75 0 0 1 84.089844 460.18945 A 75 75 0 0 1 79.349609 448.74023 A 75 75 0 0 1 77.390625 443.14062 A 75 75 0 0 1 75 425 L 75 350 z "
        style="fill:none;stroke:red;" />
    <path
        d="M 150 100 A 125 125 0 0 0 25 225 A 125 125 0 0 0 50.189453 300 L 0 300 L 0 300.07031 A 25 25 0 0 0 -25 325 A 25 25 0 0 0 0 349.92969 L 0 350 L 150 350 A 25 25 0 0 0 175 325 A 25 25 0 0 0 150 300 A 75 75 0 0 1 75 225 A 75 75 0 0 1 150 150 L 350 150 A 75 75 0 0 1 355.24023 150.19922 L 356.39062 150.28906 A 75 75 0 0 1 361.46094 150.89062 L 362.32031 151.03906 A 75 75 0 0 1 366.91992 151.96094 L 367.76953 152.15039 A 75 75 0 0 1 372.71094 153.53906 L 373.7793 153.89062 A 75 75 0 0 1 378.69922 155.71094 A 75 75 0 0 1 383.4707 157.91016 L 384.4707 158.41016 A 75 75 0 0 1 388.9707 160.92969 L 389.65039 161.35938 A 75 75 0 0 1 393.59961 164 L 394.30078 164.49023 A 75 75 0 0 1 398.33008 167.66992 L 399.16992 168.40039 A 75 75 0 0 1 403.0293 171.9707 A 75 75 0 0 1 406.60938 175.83008 L 407.33008 176.66992 A 75 75 0 0 1 410.50977 180.71094 L 411 181.41016 A 75 75 0 0 1 413.64062 185.34961 L 414.07031 186.0293 A 75 75 0 0 1 416.58984 190.5293 L 417.08984 191.5293 A 75 75 0 0 1 419.28906 196.30078 A 75 75 0 0 1 421.10938 201.2207 L 421.46094 202.28906 A 75 75 0 0 1 422.85938 207.23047 L 423.03906 208.08008 A 75 75 0 0 1 423.96094 212.67969 L 424.10938 213.53906 A 75 75 0 0 1 424.71094 218.60938 L 424.78906 219.75977 A 75 75 0 0 1 425 225 L 425 300 L 350 300 A 125 125 0 0 0 225 425 A 125 125 0 0 0 350 550 A 125 125 0 0 0 475 425 L 475 350 L 500 350 A 25 25 0 0 0 525 325 A 25 25 0 0 0 500 300 L 475 300 L 475 225 A 125 125 0 0 0 474.80078 218.26953 L 474.71094 216.7793 A 125 125 0 0 0 474.10938 210.17969 L 473.99023 209.30078 A 125 125 0 0 0 473.08984 203.33008 L 472.84961 201.99023 A 125 125 0 0 0 471.4707 195.56055 L 471.15039 194.30078 A 125 125 0 0 0 469.50977 188.41016 L 469.26953 187.60938 A 125 125 0 0 0 467.10938 181.35938 L 466.57031 179.92969 A 125 125 0 0 0 464.01953 173.78906 L 463.83984 173.39062 A 125 125 0 0 0 461.03906 167.63086 L 460.39062 166.39062 A 125 125 0 0 0 457.15039 160.65039 L 456.50977 159.61914 A 125 125 0 0 0 453.34961 154.7207 L 452.61914 153.65039 A 125 125 0 0 0 448.75 148.38086 L 447.83984 147.24023 A 125 125 0 0 0 443.90039 142.51953 L 443.44922 141.99023 A 125 125 0 0 0 438.91992 137.17969 L 437.82031 136.08008 A 125 125 0 0 0 433.00977 131.55078 L 432.48047 131.09961 A 125 125 0 0 0 427.75977 127.16016 L 426.61914 126.25977 A 125 125 0 0 0 421.34961 122.38086 L 420.2793 121.65039 A 125 125 0 0 0 415.38086 118.49023 L 414.34961 117.84961 A 125 125 0 0 0 408.60938 114.60938 L 407.36914 113.9707 A 125 125 0 0 0 401.60938 111.16992 L 401.21094 110.9707 A 125 125 0 0 0 395.08008 108.42969 L 393.64062 107.89062 A 125 125 0 0 0 387.39062 105.73047 L 386.58984 105.49023 A 125 125 0 0 0 380.68945 103.84961 L 379.43945 103.5293 A 125 125 0 0 0 373.00977 102.15039 L 371.66992 101.91992 A 125 125 0 0 0 365.69922 101.00977 L 364.83008 100.89062 A 125 125 0 0 0 358.2207 100.28906 L 356.73047 100.19922 A 125 125 0 0 0 350 100 L 150 100 z M 350 350 L 425 350 L 425 425 A 75 75 0 0 1 350 500 A 75 75 0 0 1 275 425 A 75 75 0 0 1 350 350 z "
        style="fill:none;stroke:red;" />
    <path
        d="M 150 100 A 125 125 0 0 0 126.88086 102.2793 A 125 125 0 0 0 119.53906 104.25 A 125 125 0 0 0 104.58008 108.7793 A 125 125 0 0 0 96.400391 112.59961 A 125 125 0 0 0 83.830078 119.31055 A 125 125 0 0 0 76.039062 124.76953 A 125 125 0 0 0 65.369141 133.5293 A 125 125 0 0 0 58.529297 140.36914 A 125 125 0 0 0 49.769531 151.03906 A 125 125 0 0 0 44.310547 158.83984 A 125 125 0 0 0 37.599609 171.40039 A 125 125 0 0 0 33.779297 179.58008 A 125 125 0 0 0 29.25 194.53906 A 125 125 0 0 0 27.279297 201.88086 A 125 125 0 0 0 25 225 L 25 300 L 0 300 A 25 25 0 0 0 -25 325 A 25 25 0 0 0 0 350 L 25 350 L 25 425 A 125 125 0 0 0 150 550 A 125 125 0 0 0 250.08984 499.34961 A 125 125 0 0 0 350 550 A 125 125 0 0 0 475 425 L 475 350 L 500 350 A 25 25 0 0 0 525 325 A 25 25 0 0 0 500 300 L 475 300 L 475 225 A 125 125 0 0 0 474.74023 216.98047 L 474.49023 214.41992 A 125 125 0 0 0 473.96094 209 A 125 125 0 0 0 473.46094 205.82031 A 125 125 0 0 0 472.67969 201.09961 A 125 125 0 0 0 471.91992 197.7207 A 125 125 0 0 0 470.88086 193.26953 A 125 125 0 0 0 469.90039 189.88086 A 125 125 0 0 0 468.59961 185.58008 A 125 125 0 0 0 467.38086 182.17969 A 125 125 0 0 0 465.82031 178.03906 A 125 125 0 0 0 464.38086 174.7207 A 125 125 0 0 0 462.56055 170.7207 A 125 125 0 0 0 460.89062 167.43945 A 125 125 0 0 0 458.84961 163.61914 A 125 125 0 0 0 456.94922 160.41016 A 125 125 0 0 0 454.67969 156.75977 A 125 125 0 0 0 452.58008 153.66016 A 125 125 0 0 0 450.09961 150.21094 A 125 125 0 0 0 447.76953 147.18945 A 125 125 0 0 0 445.08984 143.92969 A 125 125 0 0 0 442.58984 141.08984 A 125 125 0 0 0 439.68945 137.99023 A 125 125 0 0 0 437 135.31055 A 125 125 0 0 0 433.91016 132.41016 A 125 125 0 0 0 431.07031 129.91016 A 125 125 0 0 0 427.81055 127.23047 A 125 125 0 0 0 424.78906 124.90039 A 125 125 0 0 0 421.33984 122.41992 A 125 125 0 0 0 418.24023 120.32031 A 125 125 0 0 0 414.58984 118.05078 A 125 125 0 0 0 411.38086 116.15039 A 125 125 0 0 0 407.56055 114.10938 A 125 125 0 0 0 404.2793 112.43945 A 125 125 0 0 0 400.2793 110.61914 A 125 125 0 0 0 396.96094 109.17969 A 125 125 0 0 0 392.81055 107.61914 A 125 125 0 0 0 389.41016 106.40039 A 125 125 0 0 0 385.10938 105.09961 A 125 125 0 0 0 381.73047 104.10938 A 125 125 0 0 0 377.28906 103.08008 A 125 125 0 0 0 373.91016 102.32031 A 125 125 0 0 0 369.17969 101.53906 A 125 125 0 0 0 366 101.03906 A 125 125 0 0 0 360.58008 100.50977 L 358.01953 100.25977 A 125 125 0 0 0 350 100 L 150 100 z M 150 150 L 350 150 A 75 75 0 0 1 356.05078 150.25 L 357.99023 150.48047 A 75 75 0 0 1 362.05078 150.98047 L 364.40039 151.46094 A 75 75 0 0 1 367.9707 152.19922 A 75 75 0 0 1 370.41992 152.90039 A 75 75 0 0 1 373.80078 153.90039 A 75 75 0 0 1 376.24023 154.80078 A 75 75 0 0 1 379.42969 156.03906 A 75 75 0 0 1 381.90039 157.17969 A 75 75 0 0 1 384.90039 158.65039 A 75 75 0 0 1 387.30078 160 A 75 75 0 0 1 390.11914 161.67969 A 75 75 0 0 1 392.43945 163.23047 A 75 75 0 0 1 395.08984 165.13086 A 75 75 0 0 1 397.28906 166.84961 A 75 75 0 0 1 399.78906 168.96094 A 75 75 0 0 1 401.83984 170.85938 A 75 75 0 0 1 404.14062 173.16016 A 75 75 0 0 1 406.03906 175.2207 A 75 75 0 0 1 408.15039 177.7207 A 75 75 0 0 1 409.88086 179.90039 A 75 75 0 0 1 411.76953 182.55078 A 75 75 0 0 1 413.32031 184.88086 A 75 75 0 0 1 415 187.69922 A 75 75 0 0 1 416.34961 190.09961 A 75 75 0 0 1 417.82031 193.09961 A 75 75 0 0 1 418.96094 195.57031 A 75 75 0 0 1 420.19922 198.76953 A 75 75 0 0 1 421.09961 201.19922 A 75 75 0 0 1 422.09961 204.58008 A 75 75 0 0 1 422.80078 207.0293 A 75 75 0 0 1 423.55078 210.59961 L 424.00977 212.94922 A 75 75 0 0 1 424.51953 217.00977 L 424.75 218.94922 A 75 75 0 0 1 425 225 L 425 300 L 350 300 A 125 125 0 0 0 250.25977 350.34961 A 125 125 0 0 0 150 300 L 75 300 L 75 225 A 75 75 0 0 1 76.880859 208.31055 A 75 75 0 0 1 150 150 z M 75 350 L 150 350 A 75 75 0 0 1 225 425 A 75 75 0 0 1 150 500 A 75 75 0 0 1 75 425 L 75 350 z M 350 350 L 425 350 L 425 425 A 75 75 0 0 1 350 500 A 75 75 0 0 1 275 425 A 75 75 0 0 1 350 350 z "
        style="fill:none;stroke:red;" />
    <path
        d="M 150 100 A 125 125 0 0 0 130.68945 101.68945 A 125 125 0 0 0 126.2793 102.43945 A 125 125 0 0 0 107.81055 107.39062 L 105.66016 108.2793 A 125 125 0 0 0 89.820312 115.66016 A 125 125 0 0 0 86.140625 117.69922 A 125 125 0 0 0 70.599609 128.58008 A 125 125 0 0 0 67.939453 130.96094 A 125 125 0 0 0 55.960938 142.93945 A 125 125 0 0 0 53.580078 145.59961 A 125 125 0 0 0 42.699219 161.14062 A 125 125 0 0 0 40.660156 164.82031 A 125 125 0 0 0 33.279297 180.66016 L 32.380859 182.81055 A 125 125 0 0 0 27.439453 201.2793 A 125 125 0 0 0 26.689453 205.67969 A 125 125 0 0 0 25 225 L 25 300 L 0 300 A 25 25 0 0 0 -25 325 A 25 25 0 0 0 0 350 L 25 350 L 25 425 A 125 125 0 0 0 150 550 A 125 125 0 0 0 275 425 A 125 125 0 0 0 150 300 L 75 300 L 75 225 A 75 75 0 0 1 76.679688 210.13086 A 75 75 0 0 1 77.380859 206.86914 A 75 75 0 0 1 82.25 193 L 83.25 191.16992 A 75 75 0 0 1 90.359375 179.84961 A 75 75 0 0 1 92.140625 177.4707 A 75 75 0 0 1 102.48047 167.13086 A 75 75 0 0 1 104.85938 165.34961 A 75 75 0 0 1 116.17969 158.24023 L 118.00977 157.24023 A 75 75 0 0 1 131.88086 152.38086 A 75 75 0 0 1 135.14062 151.67969 A 75 75 0 0 1 150 150 L 350 150 A 75 75 0 0 1 425 225 A 75 75 0 0 1 350 300 A 25 25 0 0 0 325 325 A 25 25 0 0 0 350 350 L 500 350 A 25 25 0 0 0 525 325 A 25 25 0 0 0 500 300 L 449.81055 300 A 125 125 0 0 0 475 225 A 125 125 0 0 0 350 100 L 150 100 z M 75 350 L 150 350 A 75 75 0 0 1 225 425 A 75 75 0 0 1 150 500 A 75 75 0 0 1 75 425 L 75 350 z "
        style="fill:none;stroke:red;" />
    <path
        d="M0-.5v1h24.5v49H0v1h24.5v49H0v1h24.5v49H0v1h24.5v49H0v1h24.5v49H0v1h24.5v49H0v1h24.5v49H0v1h24.5v49H0v1h24.5v49H0v1h24.5v49H0v1h24.5v49H0v1h24.5v49H0v1h24.5v49H0v1h500v-1h-24.5v-49H500v-1h-24.5v-49H500v-1h-24.5v-49H500v-1h-24.5v-49H500v-1h-24.5v-49H500v-1h-24.5v-49H500v-1h-24.5v-49H500v-1h-24.5v-49H500v-1h-24.5v-49H500v-1h-24.5v-49H500v-1h-24.5v-49H500v-1h-24.5v-49H500v-1h-24.5V.5H500v-1zm25.5 1h49v49h-49zm50 0h49v49h-49zm50 0h49v49h-49zm50 0h49v49h-49zm50 0h49v49h-49zm50 0h49v49h-49zm50 0h49v49h-49zm50 0h49v49h-49zm50 0h49v49h-49zm-400 50h49v49h-49zm50 0h49v49h-49zm50 0h49v49h-49zm50 0h49v49h-49zm50 0h49v49h-49zm50 0h49v49h-49zm50 0h49v49h-49zm50 0h49v49h-49zm50 0h49v49h-49zm-400 50h49v49h-49zm50 0h49v49h-49zm50 0h49v49h-49zm50 0h49v49h-49zm50 0h49v49h-49zm50 0h49v49h-49zm50 0h49v49h-49zm50 0h49v49h-49zm50 0h49v49h-49zm-400 50h49v49h-49zm50 0h49v49h-49zm50 0h49v49h-49zm50 0h49v49h-49zm50 0h49v49h-49zm50 0h49v49h-49zm50 0h49v49h-49zm50 0h49v49h-49zm50 0h49v49h-49zm-400 50h49v49h-49zm50 0h49v49h-49zm50 0h49v49h-49zm50 0h49v49h-49zm50 0h49v49h-49zm50 0h49v49h-49zm50 0h49v49h-49zm50 0h49v49h-49zm50 0h49v49h-49zm-400 50h49v49h-49zm50 0h49v49h-49zm50 0h49v49h-49zm50 0h49v49h-49zm50 0h49v49h-49zm50 0h49v49h-49zm50 0h49v49h-49zm50 0h49v49h-49zm50 0h49v49h-49zm-400 50h49v49h-49zm50 0h49v49h-49zm50 0h49v49h-49zm50 0h49v49h-49zm50 0h49v49h-49zm50 0h49v49h-49zm50 0h49v49h-49zm50 0h49v49h-49zm50 0h49v49h-49zm-400 50h49v49h-49zm50 0h49v49h-49zm50 0h49v49h-49zm50 0h49v49h-49zm50 0h49v49h-49zm50 0h49v49h-49zm50 0h49v49h-49zm50 0h49v49h-49zm50 0h49v49h-49zm-400 50h49v49h-49zm50 0h49v49h-49zm50 0h49v49h-49zm50 0h49v49h-49zm50 0h49v49h-49zm50 0h49v49h-49zm50 0h49v49h-49zm50 0h49v49h-49zm50 0h49v49h-49zm-400 50h49v49h-49zm50 0h49v49h-49zm50 0h49v49h-49zm50 0h49v49h-49zm50 0h49v49h-49zm50 0h49v49h-49zm50 0h49v49h-49zm50 0h49v49h-49zm50 0h49v49h-49zm-400 50h49v49h-49zm50 0h49v49h-49zm50 0h49v49h-49zm50 0h49v49h-49zm50 0h49v49h-49zm50 0h49v49h-49zm50 0h49v49h-49zm50 0h49v49h-49zm50 0h49v49h-49zm-400 50h49v49h-49zm50 0h49v49h-49zm50 0h49v49h-49zm50 0h49v49h-49zm50 0h49v49h-49zm50 0h49v49h-49zm50 0h49v49h-49zm50 0h49v49h-49zm50 0h49v49h-49zm-400 50h49v49h-49zm50 0h49v49h-49zm50 0h49v49h-49zm50 0h49v49h-49zm50 0h49v49h-49zm50 0h49v49h-49zm50 0h49v49h-49zm50 0h49v49h-49zm50 0h49v49h-49z"
        style="fill:none;stroke:red;" />
</svg>