<svg width="500" height="650" xmlns="http://www.w3.org/2000/svg" xmlns:xlink="http://www.w3.org/1999/xlink">
    <path
        d="M 50,550 A 25,25 0 0 1 25,525 V 225 A 125,125 0 0 1 150,100 h 200 a 125,125 0 0 1 16.31641,1.07031 A 125,125 0 0 1 475,225 v 75 h 25 a 25,25 0 0 1 25,25 25,25 0 0 1 -25,25 h -25 v 75 A 125,125 0 0 1 350,550 125,125 0 0 1 225,425 125,125 0 0 1 350,300 h 75 V 225 A 75,75 0 0 0 350,150 H 150 a 75,75 0 0 0 -75,75 v 300 a 25,25 0 0 1 -25,25 z m 300,-50 a 75,75 0 0 0 75,-75 v -75 h -75 a 75,75 0 0 0 -75,75 75,75 0 0 0 75,75 z" />
    <path
        d="M 50 100 A 25 25 0 0 0 43.529297 100.85156 A 25 25 0 0 0 32.322266 107.32227 A 25 25 0 0 0 32.322266 142.67773 L 432.32227 542.67773 A 25 25 0 0 0 467.67773 542.67773 A 25 25 0 0 0 467.67773 507.32227 L 67.677734 107.32227 A 25 25 0 0 0 50 100 z " />
</svg>