<svg width="500" height="650" xmlns="http://www.w3.org/2000/svg" xmlns:svg="http://www.w3.org/2000/svg">
    <path
        d="M 150 100 A 125 125 0 0 0 25 225 A 25 25 0 0 0 50 250 A 25 25 0 0 0 75 225 A 75 75 0 0 1 150 150 L 350 150 A 75 75 0 0 1 425 225 L 425 425 A 75 75 0 0 1 350 500 L 150 500 A 75 75 0 0 1 75 425 A 25 25 0 0 0 50 400 A 25 25 0 0 0 25 425 A 125 125 0 0 0 150 550 L 350 550 A 125 125 0 0 0 475 425 L 475 225 A 125 125 0 0 0 350 100 L 150 100 z " />
    <path
        d="M55.56 100.63a25 25 0 0 1 12.12 7.44v-.75l400 400h-.6A25 25 0 0 1 475 525a25 25 0 0 1-42.68 16.92v.76l-400-400h.6A25 25 0 0 1 25 125a25 25 0 0 1 30.56-24.37m12.12 41.3-.6.75h.6zm365.24 365.4h-.6v.75z" />
    <path
        d="M 250 200 A 125 125 0 0 0 232.96094 201.26172 A 125 125 0 0 0 222.18164 203.5 A 125 125 0 0 0 216.29688 204.81641 A 125 125 0 0 0 204.45312 208.99219 A 125 125 0 0 0 200.38477 210.55078 A 125 125 0 0 0 188.42578 216.66602 A 125 125 0 0 0 185.45312 218.33398 A 125 125 0 0 0 149.46094 251.41797 A 125 125 0 0 0 149.45898 251.41992 A 125 125 0 0 0 147.04297 255.07422 A 125 125 0 0 0 143.37305 260.62305 A 125 125 0 0 0 143.37109 260.62695 A 125 125 0 0 0 137.48633 271.73242 A 125 125 0 0 0 133.13672 281.73242 A 125 125 0 0 0 128.41992 297.38086 A 125 125 0 0 0 127.04492 304.24609 A 125 125 0 0 0 125.58984 314.58008 A 125 125 0 0 0 125 325 A 125 125 0 0 0 125.58984 335.41992 A 125 125 0 0 0 127.04492 345.75391 A 125 125 0 0 0 128.41992 352.61914 A 125 125 0 0 0 133.13672 368.26758 A 125 125 0 0 0 137.48633 378.26758 A 125 125 0 0 0 143.37109 389.37305 A 125 125 0 0 0 143.37305 389.37695 A 125 125 0 0 0 147.04297 394.92578 A 125 125 0 0 0 149.45898 398.58008 A 125 125 0 0 0 149.46094 398.58203 A 125 125 0 0 0 185.45312 431.66602 A 125 125 0 0 0 188.42578 433.33398 A 125 125 0 0 0 200.38477 439.44922 A 125 125 0 0 0 204.45312 441.00781 A 125 125 0 0 0 216.29688 445.18359 A 125 125 0 0 0 222.18164 446.5 A 125 125 0 0 0 232.96094 448.73828 A 125 125 0 0 0 250 450 A 125 125 0 0 0 267.59766 448.68164 A 125 125 0 0 0 271.51953 447.88672 A 125 125 0 0 0 284.88672 444.88672 A 125 125 0 0 0 289.31445 443.35547 A 125 125 0 0 0 301.51367 438.67383 A 125 125 0 0 0 305.82812 436.50391 A 125 125 0 0 0 317.14844 430.13477 A 125 125 0 0 0 349.89844 400 L 349.60156 400 A 125 125 0 0 0 356.25781 389.93555 A 125 125 0 0 0 363.70898 375.9043 A 125 125 0 0 0 366.42188 369.58984 A 125 125 0 0 0 371.64062 352.32227 A 125 125 0 0 0 372.91602 345.94922 A 125 125 0 0 0 374.25195 336.55859 A 125 125 0 0 0 375 325 A 125 125 0 0 0 374.25195 313.44141 A 125 125 0 0 0 372.91602 304.05078 A 125 125 0 0 0 371.64062 297.67773 A 125 125 0 0 0 366.42188 280.41016 A 125 125 0 0 0 363.70898 274.0957 A 125 125 0 0 0 356.25781 260.06445 A 125 125 0 0 0 349.60156 250 L 349.89844 250 A 125 125 0 0 0 317.15234 219.86719 A 125 125 0 0 0 305.82812 213.49609 A 125 125 0 0 0 301.51367 211.32617 A 125 125 0 0 0 289.31445 206.64453 A 125 125 0 0 0 284.88672 205.11328 A 125 125 0 0 0 271.51953 202.11328 A 125 125 0 0 0 267.59766 201.31836 A 125 125 0 0 0 250 200 z M 250 250 A 75 75 0 0 1 255.57617 250.23047 A 75 75 0 0 1 257.27734 250.39062 A 75 75 0 0 1 261.32227 250.89648 A 75 75 0 0 1 263.01172 251.16406 A 75 75 0 0 1 267.91406 252.19141 A 75 75 0 0 1 268.50391 252.32227 A 75 75 0 0 1 273.88477 253.92578 A 75 75 0 0 1 275.33789 254.44922 A 75 75 0 0 1 279.17969 255.94727 A 75 75 0 0 1 280.84766 256.66797 A 75 75 0 0 1 284.90039 258.65039 A 75 75 0 0 1 285.88477 259.15234 A 75 75 0 0 1 290.66602 262.00195 A 75 75 0 0 1 291.89062 262.83398 A 75 75 0 0 1 295.30273 265.26953 A 75 75 0 0 1 296.72461 266.37305 A 75 75 0 0 1 300.01562 269.1582 A 75 75 0 0 1 301.02734 270.05078 A 75 75 0 0 1 304.94922 273.97266 A 75 75 0 0 1 305.8418 274.98438 A 75 75 0 0 1 308.62695 278.27539 A 75 75 0 0 1 309.73047 279.69727 A 75 75 0 0 1 312.16602 283.10938 A 75 75 0 0 1 312.99805 284.33398 A 75 75 0 0 1 315.84766 289.11523 A 75 75 0 0 1 316.34961 290.09961 A 75 75 0 0 1 318.33203 294.15234 A 75 75 0 0 1 319.05273 295.82031 A 75 75 0 0 1 320.55078 299.66211 A 75 75 0 0 1 321.07422 301.11523 A 75 75 0 0 1 322.67773 306.49609 A 75 75 0 0 1 322.80859 307.08594 A 75 75 0 0 1 323.83594 311.98828 A 75 75 0 0 1 324.10352 313.67773 A 75 75 0 0 1 324.60938 317.72266 A 75 75 0 0 1 324.76953 319.42383 A 75 75 0 0 1 325 325 A 75 75 0 0 1 324.76953 330.57617 A 75 75 0 0 1 324.60938 332.27734 A 75 75 0 0 1 324.10352 336.32227 A 75 75 0 0 1 323.83594 338.01172 A 75 75 0 0 1 322.80859 342.91406 A 75 75 0 0 1 322.67773 343.50391 A 75 75 0 0 1 321.07422 348.88477 A 75 75 0 0 1 320.55078 350.33789 A 75 75 0 0 1 319.05273 354.17969 A 75 75 0 0 1 318.33203 355.84766 A 75 75 0 0 1 316.34961 359.90039 A 75 75 0 0 1 315.84766 360.88477 A 75 75 0 0 1 312.99805 365.66602 A 75 75 0 0 1 312.16602 366.89062 A 75 75 0 0 1 309.73047 370.30273 A 75 75 0 0 1 308.62695 371.72461 A 75 75 0 0 1 305.8418 375.01562 A 75 75 0 0 1 304.94922 376.02734 A 75 75 0 0 1 301.02734 379.94922 A 75 75 0 0 1 300.01562 380.8418 A 75 75 0 0 1 296.72461 383.62695 A 75 75 0 0 1 295.30273 384.73047 A 75 75 0 0 1 291.89062 387.16602 A 75 75 0 0 1 290.66602 387.99805 A 75 75 0 0 1 285.88477 390.84766 A 75 75 0 0 1 284.90039 391.34961 A 75 75 0 0 1 280.84766 393.33203 A 75 75 0 0 1 279.17969 394.05273 A 75 75 0 0 1 275.33789 395.55078 A 75 75 0 0 1 273.88477 396.07422 A 75 75 0 0 1 268.50391 397.67773 A 75 75 0 0 1 267.91406 397.80859 A 75 75 0 0 1 263.01172 398.83594 A 75 75 0 0 1 261.32227 399.10352 A 75 75 0 0 1 257.27734 399.60938 A 75 75 0 0 1 255.57617 399.76953 A 75 75 0 0 1 250 400 A 75 75 0 0 1 234.86523 398.29492 A 75 75 0 0 1 234.85742 398.29297 A 75 75 0 0 1 234.13086 398.09766 A 75 75 0 0 1 230.66406 397.16992 A 75 75 0 0 1 230.65625 397.16797 A 75 75 0 0 1 230.375 397.0918 A 75 75 0 0 1 220.18359 393.52539 A 75 75 0 0 1 220.10742 393.49805 A 75 75 0 0 1 220.0957 393.49414 A 75 75 0 0 1 217.69922 392.66016 L 217.89258 392.4668 A 75 75 0 0 1 217.88672 392.46289 A 75 75 0 0 1 215.55469 391.37695 A 75 75 0 0 1 208.82031 387.14453 A 75 75 0 0 1 206.54102 385.71289 A 75 75 0 0 1 205.60938 385.12695 A 75 75 0 0 1 202.66992 383.06836 A 75 75 0 0 1 191.93164 372.33008 A 75 75 0 0 1 189.87305 369.39062 A 75 75 0 0 1 189.28711 368.45898 A 75 75 0 0 1 187.85547 366.17969 A 75 75 0 0 1 183.62305 359.44531 A 75 75 0 0 1 182.53711 357.11328 A 75 75 0 0 1 182.5332 357.10742 L 182.33984 357.30078 A 75 75 0 0 1 181.50586 354.9043 A 75 75 0 0 1 181.50195 354.89258 A 75 75 0 0 1 181.47461 354.81641 A 75 75 0 0 1 177.9082 344.625 A 75 75 0 0 1 177.83203 344.34375 A 75 75 0 0 1 177.83008 344.33594 A 75 75 0 0 1 176.90234 340.86914 A 75 75 0 0 1 176.70703 340.14258 A 75 75 0 0 1 176.70703 340.14062 A 75 75 0 0 1 176.70508 340.13477 A 75 75 0 0 1 175 325 A 75 75 0 0 1 176.70508 309.86523 A 75 75 0 0 1 176.70703 309.85938 A 75 75 0 0 1 176.70703 309.85742 A 75 75 0 0 1 176.90234 309.13086 A 75 75 0 0 1 177.83008 305.66406 A 75 75 0 0 1 177.83203 305.65625 A 75 75 0 0 1 177.9082 305.375 A 75 75 0 0 1 181.47461 295.18359 A 75 75 0 0 1 181.50195 295.10742 A 75 75 0 0 1 181.50586 295.0957 A 75 75 0 0 1 182.33984 292.69922 L 182.5332 292.89258 A 75 75 0 0 1 182.53711 292.88672 A 75 75 0 0 1 183.62305 290.55469 A 75 75 0 0 1 187.85547 283.82031 A 75 75 0 0 1 189.28711 281.54102 A 75 75 0 0 1 189.87305 280.60938 A 75 75 0 0 1 191.93164 277.66992 A 75 75 0 0 1 202.66992 266.93164 A 75 75 0 0 1 205.60938 264.87305 A 75 75 0 0 1 206.54102 264.28711 A 75 75 0 0 1 208.82031 262.85547 A 75 75 0 0 1 215.55469 258.62305 A 75 75 0 0 1 217.88672 257.53711 A 75 75 0 0 1 217.89258 257.5332 L 217.69922 257.33984 A 75 75 0 0 1 220.0957 256.50586 A 75 75 0 0 1 220.10742 256.50195 A 75 75 0 0 1 220.18359 256.47461 A 75 75 0 0 1 230.375 252.9082 A 75 75 0 0 1 230.65625 252.83203 A 75 75 0 0 1 230.66406 252.83008 A 75 75 0 0 1 234.13086 251.90234 A 75 75 0 0 1 234.85742 251.70703 A 75 75 0 0 1 234.86523 251.70508 A 75 75 0 0 1 250 250 z " />
</svg>