<svg width="500" height="650" xmlns="http://www.w3.org/2000/svg">
    <path
        d="M 250 0 A 25 25 0 0 0 225 25 L 225 625 A 25 25 0 0 0 250 650 A 25 25 0 0 0 275 625 L 275 25 A 25 25 0 0 0 250 0 z " />
    <path
        d="M 150,100 C 80.964406,100 25,155.96441 25,225 v 200 c 0,69.03559 55.964406,125 125,125 h 300 c 13.80712,0 25,-11.19288 25,-25 0,-13.80712 -11.19288,-25 -25,-25 H 150 C 108.57864,500 75,466.42136 75,425 V 225 c 0,-41.42136 33.57864,-75 75,-75 h 300 c 13.80712,0 25,-11.19288 25,-25 0,-13.80712 -11.19288,-25 -25,-25 z" />
    <path
        d="M 50 100 A 25 25 0 0 0 43.529297 100.85156 A 25 25 0 0 0 32.322266 107.32227 A 25 25 0 0 0 32.322266 142.67773 L 432.32227 542.67773 A 25 25 0 0 0 467.67773 542.67773 A 25 25 0 0 0 467.67773 507.32227 L 67.677734 107.32227 A 25 25 0 0 0 50 100 z " />
</svg>