<svg width="500" height="650" xmlns="http://www.w3.org/2000/svg" xmlns:svg="http://www.w3.org/2000/svg">
   <path
      d="M 150 100 A 125 125 0 0 0 130.68945 101.68945 A 125 125 0 0 0 126.2793 102.43945 A 125 125 0 0 0 107.81055 107.39062 L 105.66016 108.2793 A 125 125 0 0 0 89.820312 115.66016 A 125 125 0 0 0 86.140625 117.69922 A 125 125 0 0 0 70.599609 128.58008 A 125 125 0 0 0 67.939453 130.96094 A 125 125 0 0 0 55.960938 142.93945 A 125 125 0 0 0 53.580078 145.59961 A 125 125 0 0 0 42.699219 161.14062 A 125 125 0 0 0 40.660156 164.82031 A 125 125 0 0 0 33.279297 180.66016 L 32.380859 182.81055 A 125 125 0 0 0 27.439453 201.2793 A 125 125 0 0 0 26.689453 205.67969 A 125 125 0 0 0 25 225 L 25 300 L 0 300 A 25 25 0 0 0 -25 325 A 25 25 0 0 0 0 350 L 25 350 L 25 425 A 125 125 0 0 0 150 550 A 125 125 0 0 0 275 425 A 125 125 0 0 0 150 300 L 75 300 L 75 225 A 75 75 0 0 1 76.679688 210.13086 A 75 75 0 0 1 77.380859 206.86914 A 75 75 0 0 1 82.25 193 L 83.25 191.16992 A 75 75 0 0 1 90.359375 179.84961 A 75 75 0 0 1 92.140625 177.4707 A 75 75 0 0 1 102.48047 167.13086 A 75 75 0 0 1 104.85938 165.34961 A 75 75 0 0 1 116.17969 158.24023 L 118.00977 157.24023 A 75 75 0 0 1 131.88086 152.38086 A 75 75 0 0 1 135.14062 151.67969 A 75 75 0 0 1 150 150 L 350 150 A 75 75 0 0 1 425 225 A 75 75 0 0 1 350 300 A 25 25 0 0 0 325 325 A 25 25 0 0 0 350 350 L 500 350 A 25 25 0 0 0 525 325 A 25 25 0 0 0 500 300 L 449.81055 300 A 125 125 0 0 0 475 225 A 125 125 0 0 0 350 100 L 150 100 z M 75 350 L 150 350 A 75 75 0 0 1 225 425 A 75 75 0 0 1 150 500 A 75 75 0 0 1 75 425 L 75 350 z " />
</svg>