<svg width="500" height="650" xmlns="http://www.w3.org/2000/svg">
    <path d="m 50,100 a 25,25 0 0 1 25,25 v 300 a 75,75 0 0 0 75,75 h 300 a 25,25 0 0 1 25,25 25,25 0 0 1 -25,25 H 150 A 125,125 0 0 1 25,425 V 125 a 25,25 0 0 1 25,-25 z"/>
    <path d="M 50 100 A 25 25 0 0 0 43.529297 100.85156 A 25 25 0 0 0 32.322266 107.32227 A 25 25 0 0 0 32.322266 142.67773 L 432.32227 542.67773 A 25 25 0 0 0 467.67773 542.67773 A 25 25 0 0 0 467.67773 507.32227 L 67.677734 107.32227 A 25 25 0 0 0 50 100 z "/>
</svg>