<svg width="500" height="650" xmlns="http://www.w3.org/2000/svg">
    <path fill="green"
        d="M 150 100 A 125 125 0 0 0 126.88086 102.2793 A 125 125 0 0 0 119.53906 104.25 A 125 125 0 0 0 104.58008 108.7793 A 125 125 0 0 0 96.400391 112.59961 A 125 125 0 0 0 83.830078 119.31055 A 125 125 0 0 0 76.039062 124.76953 A 125 125 0 0 0 65.369141 133.5293 A 125 125 0 0 0 58.529297 140.36914 A 125 125 0 0 0 49.769531 151.03906 A 125 125 0 0 0 44.310547 158.83984 A 125 125 0 0 0 37.599609 171.40039 A 125 125 0 0 0 33.779297 179.58008 A 125 125 0 0 0 29.25 194.53906 A 125 125 0 0 0 27.279297 201.88086 A 125 125 0 0 0 25 225 L 25 300 L 0 300 A 25 25 0 0 0 -25 325 A 25 25 0 0 0 0 350 L 25 350 L 25 425 A 125 125 0 0 0 150 550 A 125 125 0 0 0 250.08984 499.34961 A 125 125 0 0 0 350 550 A 125 125 0 0 0 475 425 L 475 350 L 500 350 A 25 25 0 0 0 525 325 A 25 25 0 0 0 500 300 L 475 300 L 475 225 A 125 125 0 0 0 474.74023 216.98047 L 474.49023 214.41992 A 125 125 0 0 0 473.96094 209 A 125 125 0 0 0 473.46094 205.82031 A 125 125 0 0 0 472.67969 201.09961 A 125 125 0 0 0 471.91992 197.7207 A 125 125 0 0 0 470.88086 193.26953 A 125 125 0 0 0 469.90039 189.88086 A 125 125 0 0 0 468.59961 185.58008 A 125 125 0 0 0 467.38086 182.17969 A 125 125 0 0 0 465.82031 178.03906 A 125 125 0 0 0 464.38086 174.7207 A 125 125 0 0 0 462.56055 170.7207 A 125 125 0 0 0 460.89062 167.43945 A 125 125 0 0 0 458.84961 163.61914 A 125 125 0 0 0 456.94922 160.41016 A 125 125 0 0 0 454.67969 156.75977 A 125 125 0 0 0 452.58008 153.66016 A 125 125 0 0 0 450.09961 150.21094 A 125 125 0 0 0 447.76953 147.18945 A 125 125 0 0 0 445.08984 143.92969 A 125 125 0 0 0 442.58984 141.08984 A 125 125 0 0 0 439.68945 137.99023 A 125 125 0 0 0 437 135.31055 A 125 125 0 0 0 433.91016 132.41016 A 125 125 0 0 0 431.07031 129.91016 A 125 125 0 0 0 427.81055 127.23047 A 125 125 0 0 0 424.78906 124.90039 A 125 125 0 0 0 421.33984 122.41992 A 125 125 0 0 0 418.24023 120.32031 A 125 125 0 0 0 414.58984 118.05078 A 125 125 0 0 0 411.38086 116.15039 A 125 125 0 0 0 407.56055 114.10938 A 125 125 0 0 0 404.2793 112.43945 A 125 125 0 0 0 400.2793 110.61914 A 125 125 0 0 0 396.96094 109.17969 A 125 125 0 0 0 392.81055 107.61914 A 125 125 0 0 0 389.41016 106.40039 A 125 125 0 0 0 385.10938 105.09961 A 125 125 0 0 0 381.73047 104.10938 A 125 125 0 0 0 377.28906 103.08008 A 125 125 0 0 0 373.91016 102.32031 A 125 125 0 0 0 369.17969 101.53906 A 125 125 0 0 0 366 101.03906 A 125 125 0 0 0 360.58008 100.50977 L 358.01953 100.25977 A 125 125 0 0 0 350 100 L 150 100 z M 150 150 L 350 150 A 75 75 0 0 1 356.05078 150.25 L 357.99023 150.48047 A 75 75 0 0 1 362.05078 150.98047 L 364.40039 151.46094 A 75 75 0 0 1 367.9707 152.19922 A 75 75 0 0 1 370.41992 152.90039 A 75 75 0 0 1 373.80078 153.90039 A 75 75 0 0 1 376.24023 154.80078 A 75 75 0 0 1 379.42969 156.03906 A 75 75 0 0 1 381.90039 157.17969 A 75 75 0 0 1 384.90039 158.65039 A 75 75 0 0 1 387.30078 160 A 75 75 0 0 1 390.11914 161.67969 A 75 75 0 0 1 392.43945 163.23047 A 75 75 0 0 1 395.08984 165.13086 A 75 75 0 0 1 397.28906 166.84961 A 75 75 0 0 1 399.78906 168.96094 A 75 75 0 0 1 401.83984 170.85938 A 75 75 0 0 1 404.14062 173.16016 A 75 75 0 0 1 406.03906 175.2207 A 75 75 0 0 1 408.15039 177.7207 A 75 75 0 0 1 409.88086 179.90039 A 75 75 0 0 1 411.76953 182.55078 A 75 75 0 0 1 413.32031 184.88086 A 75 75 0 0 1 415 187.69922 A 75 75 0 0 1 416.34961 190.09961 A 75 75 0 0 1 417.82031 193.09961 A 75 75 0 0 1 418.96094 195.57031 A 75 75 0 0 1 420.19922 198.76953 A 75 75 0 0 1 421.09961 201.19922 A 75 75 0 0 1 422.09961 204.58008 A 75 75 0 0 1 422.80078 207.0293 A 75 75 0 0 1 423.55078 210.59961 L 424.00977 212.94922 A 75 75 0 0 1 424.51953 217.00977 L 424.75 218.94922 A 75 75 0 0 1 425 225 L 425 300 L 350 300 A 125 125 0 0 0 250.25977 350.34961 A 125 125 0 0 0 150 300 L 75 300 L 75 225 A 75 75 0 0 1 76.880859 208.31055 A 75 75 0 0 1 150 150 z M 75 350 L 150 350 A 75 75 0 0 1 225 425 A 75 75 0 0 1 150 500 A 75 75 0 0 1 75 425 L 75 350 z M 350 350 L 425 350 L 425 425 A 75 75 0 0 1 350 500 A 75 75 0 0 1 275 425 A 75 75 0 0 1 350 350 z " />
    <path
        d="M0-.5v1h24.5v49H0v1h24.5v49H0v1h24.5v49H0v1h24.5v49H0v1h24.5v49H0v1h24.5v49H0v1h24.5v49H0v1h24.5v49H0v1h24.5v49H0v1h24.5v49H0v1h24.5v49H0v1h24.5v49H0v1h24.5v49H0v1h500v-1h-24.5v-49H500v-1h-24.5v-49H500v-1h-24.5v-49H500v-1h-24.5v-49H500v-1h-24.5v-49H500v-1h-24.5v-49H500v-1h-24.5v-49H500v-1h-24.5v-49H500v-1h-24.5v-49H500v-1h-24.5v-49H500v-1h-24.5v-49H500v-1h-24.5v-49H500v-1h-24.5V.5H500v-1zm25.5 1h49v49h-49zm50 0h49v49h-49zm50 0h49v49h-49zm50 0h49v49h-49zm50 0h49v49h-49zm50 0h49v49h-49zm50 0h49v49h-49zm50 0h49v49h-49zm50 0h49v49h-49zm-400 50h49v49h-49zm50 0h49v49h-49zm50 0h49v49h-49zm50 0h49v49h-49zm50 0h49v49h-49zm50 0h49v49h-49zm50 0h49v49h-49zm50 0h49v49h-49zm50 0h49v49h-49zm-400 50h49v49h-49zm50 0h49v49h-49zm50 0h49v49h-49zm50 0h49v49h-49zm50 0h49v49h-49zm50 0h49v49h-49zm50 0h49v49h-49zm50 0h49v49h-49zm50 0h49v49h-49zm-400 50h49v49h-49zm50 0h49v49h-49zm50 0h49v49h-49zm50 0h49v49h-49zm50 0h49v49h-49zm50 0h49v49h-49zm50 0h49v49h-49zm50 0h49v49h-49zm50 0h49v49h-49zm-400 50h49v49h-49zm50 0h49v49h-49zm50 0h49v49h-49zm50 0h49v49h-49zm50 0h49v49h-49zm50 0h49v49h-49zm50 0h49v49h-49zm50 0h49v49h-49zm50 0h49v49h-49zm-400 50h49v49h-49zm50 0h49v49h-49zm50 0h49v49h-49zm50 0h49v49h-49zm50 0h49v49h-49zm50 0h49v49h-49zm50 0h49v49h-49zm50 0h49v49h-49zm50 0h49v49h-49zm-400 50h49v49h-49zm50 0h49v49h-49zm50 0h49v49h-49zm50 0h49v49h-49zm50 0h49v49h-49zm50 0h49v49h-49zm50 0h49v49h-49zm50 0h49v49h-49zm50 0h49v49h-49zm-400 50h49v49h-49zm50 0h49v49h-49zm50 0h49v49h-49zm50 0h49v49h-49zm50 0h49v49h-49zm50 0h49v49h-49zm50 0h49v49h-49zm50 0h49v49h-49zm50 0h49v49h-49zm-400 50h49v49h-49zm50 0h49v49h-49zm50 0h49v49h-49zm50 0h49v49h-49zm50 0h49v49h-49zm50 0h49v49h-49zm50 0h49v49h-49zm50 0h49v49h-49zm50 0h49v49h-49zm-400 50h49v49h-49zm50 0h49v49h-49zm50 0h49v49h-49zm50 0h49v49h-49zm50 0h49v49h-49zm50 0h49v49h-49zm50 0h49v49h-49zm50 0h49v49h-49zm50 0h49v49h-49zm-400 50h49v49h-49zm50 0h49v49h-49zm50 0h49v49h-49zm50 0h49v49h-49zm50 0h49v49h-49zm50 0h49v49h-49zm50 0h49v49h-49zm50 0h49v49h-49zm50 0h49v49h-49zm-400 50h49v49h-49zm50 0h49v49h-49zm50 0h49v49h-49zm50 0h49v49h-49zm50 0h49v49h-49zm50 0h49v49h-49zm50 0h49v49h-49zm50 0h49v49h-49zm50 0h49v49h-49zm-400 50h49v49h-49zm50 0h49v49h-49zm50 0h49v49h-49zm50 0h49v49h-49zm50 0h49v49h-49zm50 0h49v49h-49zm50 0h49v49h-49zm50 0h49v49h-49zm50 0h49v49h-49z"
        style="fill:none;stroke:red;" />
</svg>