<svg width="500" height="650" xmlns="http://www.w3.org/2000/svg" xmlns:svg="http://www.w3.org/2000/svg">
    <path
        d="M 350,550 A 125,125 0 0 1 225,425 125,125 0 0 1 350,300 h 75 V 225 A 75,75 0 0 0 350,150 H 50 A 25,25 0 0 1 25,125 25,25 0 0 1 50,100 h 300 a 125,125 0 0 1 125,125 v 75 h 25 a 25,25 0 0 1 25,25 25,25 0 0 1 -25,25 h -25 v 75 A 125,125 0 0 1 350,550 Z m 0,-50 a 75,75 0 0 0 75,-75 v -75 h -75 a 75,75 0 0 0 -75,75 75,75 0 0 0 75,75 z" />
    <path
        d="M 150 100 A 125 125 0 0 0 25 225 A 125 125 0 0 0 50 300 L 0 300 A 25 25 0 0 0 -25 325 A 25 25 0 0 0 0 350 L 150 350 A 25 25 0 0 0 175 325 A 25 25 0 0 0 150 300 A 75 75 0 0 1 75 225 A 75 75 0 0 1 150 150 L 350 150 A 75 75 0 0 1 425 225 L 425 525 A 25 25 0 0 0 450 550 A 25 25 0 0 0 475 525 L 475 225 A 125 125 0 0 0 350 100 L 150 100 z " />
    <rect x="0" y="0" width="225" height="650" style="" />
    <rect x="0" y="0" width="275" height="650" style="" />
</svg>