<svg width="500" height="650" xmlns="http://www.w3.org/2000/svg">
    <path fill="green"
        d="M 150 100 A 125 125 0 0 0 25 225 A 125 125 0 0 0 50.189453 300 L 0 300 L 0 300.07031 A 25 25 0 0 0 -25 325 A 25 25 0 0 0 0 349.92969 L 0 350 L 150 350 A 25 25 0 0 0 175 325 A 25 25 0 0 0 150 300 A 75 75 0 0 1 75 225 A 75 75 0 0 1 150 150 L 350 150 A 75 75 0 0 1 355.24023 150.19922 L 356.39062 150.28906 A 75 75 0 0 1 361.46094 150.89062 L 362.32031 151.03906 A 75 75 0 0 1 366.91992 151.96094 L 367.76953 152.15039 A 75 75 0 0 1 372.71094 153.53906 L 373.7793 153.89062 A 75 75 0 0 1 378.69922 155.71094 A 75 75 0 0 1 383.4707 157.91016 L 384.4707 158.41016 A 75 75 0 0 1 388.9707 160.92969 L 389.65039 161.35938 A 75 75 0 0 1 393.59961 164 L 394.30078 164.49023 A 75 75 0 0 1 398.33008 167.66992 L 399.16992 168.40039 A 75 75 0 0 1 403.0293 171.9707 A 75 75 0 0 1 406.60938 175.83008 L 407.33008 176.66992 A 75 75 0 0 1 410.50977 180.71094 L 411 181.41016 A 75 75 0 0 1 413.64062 185.34961 L 414.07031 186.0293 A 75 75 0 0 1 416.58984 190.5293 L 417.08984 191.5293 A 75 75 0 0 1 419.28906 196.30078 A 75 75 0 0 1 421.10938 201.2207 L 421.46094 202.28906 A 75 75 0 0 1 422.85938 207.23047 L 423.03906 208.08008 A 75 75 0 0 1 423.96094 212.67969 L 424.10938 213.53906 A 75 75 0 0 1 424.71094 218.60938 L 424.78906 219.75977 A 75 75 0 0 1 425 225 L 425 300 L 350 300 A 125 125 0 0 0 225 425 A 125 125 0 0 0 350 550 A 125 125 0 0 0 475 425 L 475 350 L 500 350 A 25 25 0 0 0 525 325 A 25 25 0 0 0 500 300 L 475 300 L 475 225 A 125 125 0 0 0 474.80078 218.26953 L 474.71094 216.7793 A 125 125 0 0 0 474.10938 210.17969 L 473.99023 209.30078 A 125 125 0 0 0 473.08984 203.33008 L 472.84961 201.99023 A 125 125 0 0 0 471.4707 195.56055 L 471.15039 194.30078 A 125 125 0 0 0 469.50977 188.41016 L 469.26953 187.60938 A 125 125 0 0 0 467.10938 181.35938 L 466.57031 179.92969 A 125 125 0 0 0 464.01953 173.78906 L 463.83984 173.39062 A 125 125 0 0 0 461.03906 167.63086 L 460.39062 166.39062 A 125 125 0 0 0 457.15039 160.65039 L 456.50977 159.61914 A 125 125 0 0 0 453.34961 154.7207 L 452.61914 153.65039 A 125 125 0 0 0 448.75 148.38086 L 447.83984 147.24023 A 125 125 0 0 0 443.90039 142.51953 L 443.44922 141.99023 A 125 125 0 0 0 438.91992 137.17969 L 437.82031 136.08008 A 125 125 0 0 0 433.00977 131.55078 L 432.48047 131.09961 A 125 125 0 0 0 427.75977 127.16016 L 426.61914 126.25977 A 125 125 0 0 0 421.34961 122.38086 L 420.2793 121.65039 A 125 125 0 0 0 415.38086 118.49023 L 414.34961 117.84961 A 125 125 0 0 0 408.60938 114.60938 L 407.36914 113.9707 A 125 125 0 0 0 401.60938 111.16992 L 401.21094 110.9707 A 125 125 0 0 0 395.08008 108.42969 L 393.64062 107.89062 A 125 125 0 0 0 387.39062 105.73047 L 386.58984 105.49023 A 125 125 0 0 0 380.68945 103.84961 L 379.43945 103.5293 A 125 125 0 0 0 373.00977 102.15039 L 371.66992 101.91992 A 125 125 0 0 0 365.69922 101.00977 L 364.83008 100.89062 A 125 125 0 0 0 358.2207 100.28906 L 356.73047 100.19922 A 125 125 0 0 0 350 100 L 150 100 z M 350 350 L 425 350 L 425 425 A 75 75 0 0 1 350 500 A 75 75 0 0 1 275 425 A 75 75 0 0 1 350 350 z " />
    <path
        d="M0-.5v1h24.5v49H0v1h24.5v49H0v1h24.5v49H0v1h24.5v49H0v1h24.5v49H0v1h24.5v49H0v1h24.5v49H0v1h24.5v49H0v1h24.5v49H0v1h24.5v49H0v1h24.5v49H0v1h24.5v49H0v1h24.5v49H0v1h500v-1h-24.5v-49H500v-1h-24.5v-49H500v-1h-24.5v-49H500v-1h-24.5v-49H500v-1h-24.5v-49H500v-1h-24.5v-49H500v-1h-24.5v-49H500v-1h-24.5v-49H500v-1h-24.5v-49H500v-1h-24.5v-49H500v-1h-24.5v-49H500v-1h-24.5v-49H500v-1h-24.5V.5H500v-1zm25.5 1h49v49h-49zm50 0h49v49h-49zm50 0h49v49h-49zm50 0h49v49h-49zm50 0h49v49h-49zm50 0h49v49h-49zm50 0h49v49h-49zm50 0h49v49h-49zm50 0h49v49h-49zm-400 50h49v49h-49zm50 0h49v49h-49zm50 0h49v49h-49zm50 0h49v49h-49zm50 0h49v49h-49zm50 0h49v49h-49zm50 0h49v49h-49zm50 0h49v49h-49zm50 0h49v49h-49zm-400 50h49v49h-49zm50 0h49v49h-49zm50 0h49v49h-49zm50 0h49v49h-49zm50 0h49v49h-49zm50 0h49v49h-49zm50 0h49v49h-49zm50 0h49v49h-49zm50 0h49v49h-49zm-400 50h49v49h-49zm50 0h49v49h-49zm50 0h49v49h-49zm50 0h49v49h-49zm50 0h49v49h-49zm50 0h49v49h-49zm50 0h49v49h-49zm50 0h49v49h-49zm50 0h49v49h-49zm-400 50h49v49h-49zm50 0h49v49h-49zm50 0h49v49h-49zm50 0h49v49h-49zm50 0h49v49h-49zm50 0h49v49h-49zm50 0h49v49h-49zm50 0h49v49h-49zm50 0h49v49h-49zm-400 50h49v49h-49zm50 0h49v49h-49zm50 0h49v49h-49zm50 0h49v49h-49zm50 0h49v49h-49zm50 0h49v49h-49zm50 0h49v49h-49zm50 0h49v49h-49zm50 0h49v49h-49zm-400 50h49v49h-49zm50 0h49v49h-49zm50 0h49v49h-49zm50 0h49v49h-49zm50 0h49v49h-49zm50 0h49v49h-49zm50 0h49v49h-49zm50 0h49v49h-49zm50 0h49v49h-49zm-400 50h49v49h-49zm50 0h49v49h-49zm50 0h49v49h-49zm50 0h49v49h-49zm50 0h49v49h-49zm50 0h49v49h-49zm50 0h49v49h-49zm50 0h49v49h-49zm50 0h49v49h-49zm-400 50h49v49h-49zm50 0h49v49h-49zm50 0h49v49h-49zm50 0h49v49h-49zm50 0h49v49h-49zm50 0h49v49h-49zm50 0h49v49h-49zm50 0h49v49h-49zm50 0h49v49h-49zm-400 50h49v49h-49zm50 0h49v49h-49zm50 0h49v49h-49zm50 0h49v49h-49zm50 0h49v49h-49zm50 0h49v49h-49zm50 0h49v49h-49zm50 0h49v49h-49zm50 0h49v49h-49zm-400 50h49v49h-49zm50 0h49v49h-49zm50 0h49v49h-49zm50 0h49v49h-49zm50 0h49v49h-49zm50 0h49v49h-49zm50 0h49v49h-49zm50 0h49v49h-49zm50 0h49v49h-49zm-400 50h49v49h-49zm50 0h49v49h-49zm50 0h49v49h-49zm50 0h49v49h-49zm50 0h49v49h-49zm50 0h49v49h-49zm50 0h49v49h-49zm50 0h49v49h-49zm50 0h49v49h-49zm-400 50h49v49h-49zm50 0h49v49h-49zm50 0h49v49h-49zm50 0h49v49h-49zm50 0h49v49h-49zm50 0h49v49h-49zm50 0h49v49h-49zm50 0h49v49h-49zm50 0h49v49h-49z"
        style="fill:none;stroke:red;" />
</svg>