<svg width="500" height="650" xmlns="http://www.w3.org/2000/svg">
   <path
      d="M 244.43945 0.63085938 A 25 25 0 0 0 225 25 L 225 100 L 150 100 A 125 125 0 0 0 81.119141 120.76953 L 67.679688 107.32031 L 67.080078 107.32031 A 25 25 0 0 0 32.919922 107.32031 L 32.320312 107.32031 L 32.320312 108.08008 A 25 25 0 0 0 25 125 A 25 25 0 0 0 32.320312 141.91992 L 32.320312 142.67969 L 45.759766 156.11914 A 125 125 0 0 0 25 225 A 25 25 0 0 0 50 250 A 25 25 0 0 0 75 225 A 75 75 0 0 1 82.339844 192.69922 L 225 335.35938 L 225 500 L 150 500 A 75 75 0 0 1 75 425 A 25 25 0 0 0 50 400 A 25 25 0 0 0 25 425 A 125 125 0 0 0 150 550 L 225 550 L 225 625 A 25 25 0 0 0 275 625 L 275 550 L 350 550 A 125 125 0 0 0 418.88086 529.24023 L 432.32031 542.67969 L 432.91992 542.67969 A 25 25 0 0 0 467.08008 542.67969 L 467.67969 542.67969 L 467.67969 541.91992 A 25 25 0 0 0 475 525 A 25 25 0 0 0 467.67969 508.08008 L 467.67969 507.32031 L 454.23047 493.88086 A 125 125 0 0 0 475 425 A 25 25 0 0 0 450 400 A 25 25 0 0 0 425 425 A 75 75 0 0 1 417.66016 457.30078 L 275 314.65039 L 275 150 L 350 150 A 75 75 0 0 1 425 225 A 25 25 0 0 0 450 250 A 25 25 0 0 0 475 225 A 125 125 0 0 0 350 100 L 275 100 L 275 25 A 25 25 0 0 0 244.43945 0.63085938 z M 150 150 L 225 150 L 225 264.65039 L 117.69922 157.34961 A 75 75 0 0 1 150 150 z M 275 385.35938 L 382.30078 492.66016 A 75 75 0 0 1 350 500 L 275 500 L 275 385.35938 z " />
</svg>