<svg width="500" height="650" xmlns="http://www.w3.org/2000/svg" xmlns:xlink="http://www.w3.org/1999/xlink">
    <path
        d="M 350,550 A 125,125 0 0 1 225,425 125,125 0 0 1 350,300 h 75 V 225 A 75,75 0 0 0 350,150 H 50 A 25,25 0 0 1 25,125 25,25 0 0 1 50,100 h 300 a 125,125 0 0 1 125,125 v 75 h 25 a 25,25 0 0 1 25,25 25,25 0 0 1 -25,25 h -25 v 75 A 125,125 0 0 1 350,550 Z m 0,-50 a 75,75 0 0 0 75,-75 v -75 h -75 a 75,75 0 0 0 -75,75 75,75 0 0 0 75,75 z" />
    <path
        d="M50 100a25 25 0 0 0-6.47.852 25 25 0 0 0-11.208 6.47 25 25 0 0 0 0 35.356l400 400a25 25 0 0 0 35.356 0 25 25 0 0 0 0-35.356l-400-400A25 25 0 0 0 50 100" />
</svg>