<svg width="500" height="650" xmlns="http://www.w3.org/2000/svg" xmlns:svg="http://www.w3.org/2000/svg">
   <path
      d="M 350 100 A 125 125 0 0 0 225 225 A 125 125 0 0 0 236.03125 275.67188 L 67.679688 107.32031 L 67.679688 108.07031 A 25 25 0 0 0 55.560547 100.63086 A 25 25 0 0 0 25 125 A 25 25 0 0 0 32.919922 142.67969 L 32.320312 142.67969 L 382.10938 492.46875 A 75 75 0 0 1 377.80078 494.48047 A 75 75 0 0 1 373.74023 495.98047 A 75 75 0 0 1 365.71094 498.14062 A 75 75 0 0 1 361.98047 498.94922 A 75 75 0 0 1 350 500 L 150 500 A 75 75 0 0 1 75 425 A 75 75 0 0 1 150 350 A 25 25 0 0 0 175 325 A 25 25 0 0 0 150 300 L 0 300 A 25 25 0 0 0 -25 325 A 25 25 0 0 0 0 350 L 50.189453 350 A 125 125 0 0 0 25 425 A 125 125 0 0 0 150 550 L 350 550 A 125 125 0 0 0 365.26953 549 A 125 125 0 0 0 370.10938 548.17969 A 125 125 0 0 0 380.31055 546.15039 A 125 125 0 0 0 385.88086 544.55078 A 125 125 0 0 0 395.00977 541.44922 A 125 125 0 0 0 400.51953 539.15039 A 125 125 0 0 0 409.14062 534.91016 A 125 125 0 0 0 414.24023 532.08984 A 125 125 0 0 0 418.72852 529.08789 L 432.32031 542.67969 L 432.32031 541.91992 A 25 25 0 0 0 475 525 A 25 25 0 0 0 467.08008 507.32031 L 467.67969 507.32031 L 454.08789 493.72852 A 125 125 0 0 0 457.08984 489.24023 A 125 125 0 0 0 459.91016 484.14062 A 125 125 0 0 0 464.16016 475.51953 A 125 125 0 0 0 466.43945 470.00977 A 125 125 0 0 0 469.53906 460.88086 A 125 125 0 0 0 471.14062 455.31055 A 125 125 0 0 0 473.17969 445.10938 A 125 125 0 0 0 474 440.26953 A 125 125 0 0 0 475 425 L 475 350 L 500 350 A 25 25 0 0 0 525 325 A 25 25 0 0 0 500 300 L 475 300 L 475 225 A 125 125 0 0 0 350 100 z M 67.679688 141.92969 L 67.679688 142.67969 L 67.080078 142.67969 L 67.679688 141.92969 z M 350 150 A 75 75 0 0 1 425 225 L 425 300 L 350 300 A 75 75 0 0 1 275 225 A 75 75 0 0 1 350 150 z M 299.32812 338.96875 A 125 125 0 0 0 350 350 L 425 350 L 425 425 A 75 75 0 0 1 423.94922 436.98047 A 75 75 0 0 1 423.15039 440.71094 A 75 75 0 0 1 420.99023 448.74023 A 75 75 0 0 1 419.4707 452.80078 A 75 75 0 0 1 417.46094 457.10156 L 299.32812 338.96875 z " />
</svg>