<svg width="500" height="650" xmlns="http://www.w3.org/2000/svg">
    <path
        d="M 150 100 A 125 125 0 0 0 25 225 A 25 25 0 0 0 50 250 A 25 25 0 0 0 75 225 A 75 75 0 0 1 150 150 L 350 150 A 75 75 0 0 1 425 225 L 425 425 A 75 75 0 0 1 350 500 L 150 500 A 75 75 0 0 1 75 425 A 25 25 0 0 0 50 400 A 25 25 0 0 0 25 425 A 125 125 0 0 0 150 550 L 350 550 A 125 125 0 0 0 475 425 L 475 225 A 125 125 0 0 0 350 100 L 150 100 z M 150 200 L 150 200.25 A 25 25 0 0 0 125 225 A 25 25 0 0 0 150 249.75 L 150 250 L 250 250 A 75 75 0 0 1 325 325 A 75 75 0 0 1 250 400 L 150 400 L 150 400.25 A 25 25 0 0 0 125 425 A 25 25 0 0 0 150 449.75 L 150 450 L 250 450 A 125 125 0 0 0 375 325 A 125 125 0 0 0 250 200 L 150 200 z M 250 300 A 25 25 0 0 0 226.22266 317.27539 A 25 25 0 0 0 225 325 A 25 25 0 0 0 250 350 A 25 25 0 0 0 275 325 A 25 25 0 0 0 250 300 z " />
</svg>