<?xml version="1.0" encoding="UTF-8" standalone="no"?>
<svg width="500" height="650" version="1.1" id="svg1" sodipodi:docname="uni007c.svg" inkscape:version="1.4.2 (ebf0e940, 2025-05-08)" xmlns:inkscape="http://www.inkscape.org/namespaces/inkscape" xmlns:sodipodi="http://sodipodi.sourceforge.net/DTD/sodipodi-0.dtd" xmlns="http://www.w3.org/2000/svg" xmlns:svg="http://www.w3.org/2000/svg">
    <defs id="defs1" />
    <sodipodi:namedview id="namedview1" pagecolor="#ffffff" bordercolor="#000000" borderopacity="0.25" inkscape:showpageshadow="2" inkscape:pageopacity="0.0" inkscape:pagecheckerboard="0" inkscape:deskcolor="#d1d1d1" inkscape:zoom="0.30206423" inkscape:cx="-96.006071" inkscape:cy="473.40924" inkscape:window-width="1080" inkscape:window-height="675" inkscape:window-x="0" inkscape:window-y="25" inkscape:window-maximized="0" inkscape:current-layer="svg1" />
    <path id="path1" d="M 251.29492 0.0390625 A 25 25 0 0 0 249.91602 0.0625 A 25 25 0 0 0 248.06445 0.09375 A 25 25 0 0 0 246.46484 0.31445312 A 25 25 0 0 0 244.67773 0.59375 A 25 25 0 0 0 244.43945 0.63085938 A 25 25 0 0 0 242.98242 1.0683594 A 25 25 0 0 0 241.42578 1.5351562 A 25 25 0 0 0 239.82617 2.2304688 A 25 25 0 0 0 238.32617 2.9101562 A 25 25 0 0 0 236.84961 3.8085938 A 25 25 0 0 0 235.44531 4.6914062 A 25 25 0 0 0 234.0625 5.8164062 A 25 25 0 0 0 232.83789 6.8378906 A 25 25 0 0 0 231.59375 8.171875 A 25 25 0 0 0 230.53711 9.328125 A 25 25 0 0 0 229.50195 10.792969 A 25 25 0 0 0 228.5918 12.107422 A 25 25 0 0 0 227.72656 13.779297 A 25 25 0 0 0 227.04688 15.109375 A 25 25 0 0 0 226.33789 17.105469 A 25 25 0 0 0 225.91797 18.302734 A 25 25 0 0 0 225.45898 20.513672 A 25 25 0 0 0 225.23047 21.625 A 25 25 0 0 0 225 25 A 25 25 0 0 0 225 25.003906 L 225 625 L 225 625.00391 A 25 25 0 0 0 225.23047 628.37891 A 25 25 0 0 0 225.45898 629.49023 A 25 25 0 0 0 225.91797 631.70117 A 25 25 0 0 0 226.33594 632.89648 A 25 25 0 0 0 227.04688 634.89648 A 25 25 0 0 0 227.72656 636.22656 A 25 25 0 0 0 228.5918 637.89844 A 25 25 0 0 0 229.50586 639.21875 A 25 25 0 0 0 230.53516 640.67578 A 25 25 0 0 0 231.63086 641.87305 A 25 25 0 0 0 232.83008 643.1582 A 25 25 0 0 0 234.11523 644.23047 A 25 25 0 0 0 235.44531 645.3125 A 25 25 0 0 0 236.84961 646.19531 A 25 25 0 0 0 238.32617 647.09375 A 25 25 0 0 0 239.82617 647.77344 A 25 25 0 0 0 241.42578 648.46875 A 25 25 0 0 0 242.98242 648.93555 A 25 25 0 0 0 244.43945 649.37305 A 25 25 0 0 0 244.67773 649.41016 A 25 25 0 0 0 246.46484 649.68945 A 25 25 0 0 0 248.06445 649.91016 A 25 25 0 0 0 249.84961 649.94141 A 25 25 0 0 0 251.50391 649.94141 A 25 25 0 0 0 253.24414 649.73047 A 25 25 0 0 0 254.9043 649.50195 A 25 25 0 0 0 256.5957 649.05273 A 25 25 0 0 0 258.21289 648.60156 A 25 25 0 0 0 259.85742 647.91211 A 25 25 0 0 0 261.36328 647.25781 A 25 25 0 0 0 262.9668 646.30664 A 25 25 0 0 0 264.29883 645.49609 A 25 25 0 0 0 265.81836 644.28516 A 25 25 0 0 0 266.9707 643.34766 A 25 25 0 0 0 268.26367 641.98633 A 25 25 0 0 0 269.33203 640.84375 A 25 25 0 0 0 270.45312 639.27539 A 25 25 0 0 0 271.3125 638.05859 A 25 25 0 0 0 272.21094 636.34961 A 25 25 0 0 0 272.90625 635.00586 A 25 25 0 0 0 273.55273 633.20898 A 25 25 0 0 0 274.05859 631.78125 A 25 25 0 0 0 274.5332 629.5332 A 25 25 0 0 0 274.76367 628.42578 A 25 25 0 0 0 274.98047 625.2793 A 25 25 0 0 0 275 625 L 275 25.003906 A 25 25 0 0 0 274.98047 24.724609 A 25 25 0 0 0 274.76367 21.578125 A 25 25 0 0 0 274.5332 20.470703 A 25 25 0 0 0 274.05859 18.222656 A 25 25 0 0 0 273.55078 16.791016 A 25 25 0 0 0 272.90625 15 A 25 25 0 0 0 272.17969 13.595703 A 25 25 0 0 0 271.31641 11.953125 A 25 25 0 0 0 270.40039 10.654297 A 25 25 0 0 0 269.33203 9.1621094 A 25 25 0 0 0 268.21094 7.9628906 A 25 25 0 0 0 266.97852 6.6640625 A 25 25 0 0 0 265.75586 5.6699219 A 25 25 0 0 0 264.29883 4.5078125 A 25 25 0 0 0 262.9668 3.6972656 A 25 25 0 0 0 261.36328 2.7460938 A 25 25 0 0 0 259.91211 2.1152344 A 25 25 0 0 0 258.19922 1.3984375 A 25 25 0 0 0 256.67188 0.97070312 A 25 25 0 0 0 254.9043 0.50195312 A 25 25 0 0 0 253.29492 0.28125 A 25 25 0 0 0 251.48828 0.0625 A 25 25 0 0 0 251.29492 0.0390625 z " />
</svg>
