<svg width="500" height="650" xmlns="http://www.w3.org/2000/svg" xmlns:svg="http://www.w3.org/2000/svg">
   <path
      d="M 150 100 A 125 125 0 0 0 128.16992 102.15039 A 125 125 0 0 0 122.07031 103.48047 A 125 125 0 0 0 105.82031 108.41016 A 125 125 0 0 0 100.58984 110.35938 A 125 125 0 0 0 81.369141 120.63086 L 81.152344 120.79297 L 67.679688 107.32031 L 67.679688 108.07031 A 25 25 0 0 0 55.560547 100.63086 A 25 25 0 0 0 25 125 A 25 25 0 0 0 32.919922 142.67969 L 32.320312 142.67969 L 45.792969 156.15234 L 45.630859 156.36914 A 125 125 0 0 0 35.359375 175.58984 A 125 125 0 0 0 33.410156 180.82031 A 125 125 0 0 0 28.480469 197.07031 A 125 125 0 0 0 27.150391 203.16992 A 125 125 0 0 0 25 225 A 25 25 0 0 0 26.740234 233.73047 A 25 25 0 0 0 27.990234 236.19922 A 25 25 0 0 0 31.449219 241.36914 A 25 25 0 0 0 33.640625 243.56055 A 25 25 0 0 0 38.800781 247 A 25 25 0 0 0 41.269531 248.25 A 25 25 0 0 0 50 250 A 25 25 0 0 0 58.730469 248.25977 A 25 25 0 0 0 61.199219 247.00977 A 25 25 0 0 0 66.359375 243.56055 A 25 25 0 0 0 68.560547 241.35938 A 25 25 0 0 0 72 236.19922 A 25 25 0 0 0 73.259766 233.73047 A 25 25 0 0 0 75 225 A 75 75 0 0 1 76.769531 209.2793 A 75 75 0 0 1 78.269531 204.33984 A 75 75 0 0 1 81.800781 194.26953 A 75 75 0 0 1 82.535156 192.89453 L 381.9082 492.26758 A 75 75 0 0 1 350 500 L 150 500 A 75 75 0 0 1 75 425 A 75 75 0 0 1 150 350 A 25 25 0 0 0 175 325 A 25 25 0 0 0 150 300 L 0 300 L 0 300.07031 A 25 25 0 0 0 -25 325 A 25 25 0 0 0 0 349.92969 L 0 350 L 50.400391 350 A 125 125 0 0 0 25 425 A 125 125 0 0 0 150 550 L 350 550 A 125 125 0 0 0 418.87695 529.23633 L 432.32031 542.67969 L 432.32031 541.91992 A 25 25 0 0 0 475 525 A 25 25 0 0 0 467.08008 507.32031 L 467.67969 507.32031 L 454.23633 493.87695 A 125 125 0 0 0 475 425 L 475 225 A 125 125 0 0 0 350 100 L 150 100 z M 150 150 L 350 150 A 75 75 0 0 1 425 225 L 425 425 A 75 75 0 0 1 417.26758 456.9082 L 117.88867 157.5293 A 75 75 0 0 1 119.26953 156.78906 A 75 75 0 0 1 129.33984 153.26953 A 75 75 0 0 1 134.2793 151.76953 A 75 75 0 0 1 150 150 z " />
</svg>