<svg width="500" height="650" xmlns="http://www.w3.org/2000/svg">
    <path
        d="M 150 100 A 125 125 0 0 0 128.16992 102.15039 A 125 125 0 0 0 122.07031 103.48047 A 125 125 0 0 0 105.82031 108.41016 A 125 125 0 0 0 100.58984 110.35938 A 125 125 0 0 0 81.369141 120.63086 A 125 125 0 0 0 78.150391 123.03906 A 125 125 0 0 0 64.130859 134.53906 A 125 125 0 0 0 59.550781 139.13086 A 125 125 0 0 0 48.050781 153.15039 A 125 125 0 0 0 45.630859 156.36914 A 125 125 0 0 0 35.359375 175.58984 A 125 125 0 0 0 33.410156 180.82031 A 125 125 0 0 0 28.480469 197.07031 A 125 125 0 0 0 27.150391 203.16992 A 125 125 0 0 0 25 225 A 25 25 0 0 0 26.740234 233.73047 A 25 25 0 0 0 27.990234 236.19922 A 25 25 0 0 0 31.449219 241.36914 A 25 25 0 0 0 33.640625 243.56055 A 25 25 0 0 0 38.800781 247 A 25 25 0 0 0 41.269531 248.25 A 25 25 0 0 0 50 250 A 25 25 0 0 0 58.730469 248.25977 A 25 25 0 0 0 61.199219 247.00977 A 25 25 0 0 0 66.359375 243.56055 A 25 25 0 0 0 68.560547 241.35938 A 25 25 0 0 0 72 236.19922 A 25 25 0 0 0 73.259766 233.73047 A 25 25 0 0 0 75 225 A 75 75 0 0 1 76.769531 209.2793 A 75 75 0 0 1 78.269531 204.33984 A 75 75 0 0 1 81.800781 194.26953 A 75 75 0 0 1 84.669922 188.90039 A 75 75 0 0 1 89.869141 180.61914 A 75 75 0 0 1 93.910156 175.68945 A 75 75 0 0 1 100.68945 168.91016 A 75 75 0 0 1 105.61914 164.86914 A 75 75 0 0 1 113.90039 159.66992 A 75 75 0 0 1 119.26953 156.78906 A 75 75 0 0 1 129.33984 153.26953 A 75 75 0 0 1 134.2793 151.76953 A 75 75 0 0 1 150 150 L 350 150 A 75 75 0 0 1 425 225 L 425 425 A 75 75 0 0 1 350 500 L 150 500 A 75 75 0 0 1 75 425 A 75 75 0 0 1 150 350 A 25 25 0 0 0 175 325 A 25 25 0 0 0 150 300 L 0 300 L 0 300.07031 A 25 25 0 0 0 -25 325 A 25 25 0 0 0 0 349.92969 L 0 350 L 50.400391 350 A 125 125 0 0 0 25 425 A 125 125 0 0 0 150 550 L 350 550 A 125 125 0 0 0 475 425 L 475 225 A 125 125 0 0 0 350 100 L 150 100 z "
        style="fill:red" />
</svg>
<?xml version="1.0" encoding="UTF-8" standalone="no"?>
<svg width="500" height="650" version="1.1" id="svg12" sodipodi:docname="uni0051.svg"
    inkscape:version="1.4.2 (ebf0e940, 2025-05-08)" xmlns:inkscape="http://www.inkscape.org/namespaces/inkscape"
    xmlns:sodipodi="http://sodipodi.sourceforge.net/DTD/sodipodi-0.dtd" xmlns="http://www.w3.org/2000/svg"
    xmlns:svg="http://www.w3.org/2000/svg">
    <defs id="defs12" />
    <sodipodi:namedview id="namedview12" pagecolor="#ffffff" bordercolor="#000000" borderopacity="0.25"
        inkscape:showpageshadow="2" inkscape:pageopacity="0.0" inkscape:pagecheckerboard="0"
        inkscape:deskcolor="#d1d1d1" inkscape:zoom="0.81846154" inkscape:cx="250.46992" inkscape:cy="325"
        inkscape:window-width="1080" inkscape:window-height="751" inkscape:window-x="0" inkscape:window-y="25"
        inkscape:window-maximized="0" inkscape:current-layer="svg12" />
    <path
        d="m 350,100 c 69.03559,0 125,55.96441 125,125 v 200 c 0,69.03559 -55.96441,125 -125,125 H 50 c -13.80712,0 -25,-11.19288 -25,-25 0,-13.80712 11.19288,-25 25,-25 h 300 c 41.42136,0 75,-33.57864 75,-75 V 225 c 0,-41.42136 -33.57864,-75 -75,-75 H 50 c -13.80712,0 -25,-11.19288 -25,-25 0,-13.80712 11.19288,-25 25,-25 z"
        sodipodi:nodetypes="sssssssssssssss" />
    <path
        d="M0-.5v1h24.5v49H0v1h24.5v49H0v1h24.5v49H0v1h24.5v49H0v1h24.5v49H0v1h24.5v49H0v1h24.5v49H0v1h24.5v49H0v1h24.5v49H0v1h24.5v49H0v1h24.5v49H0v1h24.5v49H0v1h24.5v49H0v1h500v-1h-24.5v-49H500v-1h-24.5v-49H500v-1h-24.5v-49H500v-1h-24.5v-49H500v-1h-24.5v-49H500v-1h-24.5v-49H500v-1h-24.5v-49H500v-1h-24.5v-49H500v-1h-24.5v-49H500v-1h-24.5v-49H500v-1h-24.5v-49H500v-1h-24.5v-49H500v-1h-24.5V.5H500v-1zm25.5 1h49v49h-49zm50 0h49v49h-49zm50 0h49v49h-49zm50 0h49v49h-49zm50 0h49v49h-49zm50 0h49v49h-49zm50 0h49v49h-49zm50 0h49v49h-49zm50 0h49v49h-49zm-400 50h49v49h-49zm50 0h49v49h-49zm50 0h49v49h-49zm50 0h49v49h-49zm50 0h49v49h-49zm50 0h49v49h-49zm50 0h49v49h-49zm50 0h49v49h-49zm50 0h49v49h-49zm-400 50h49v49h-49zm50 0h49v49h-49zm50 0h49v49h-49zm50 0h49v49h-49zm50 0h49v49h-49zm50 0h49v49h-49zm50 0h49v49h-49zm50 0h49v49h-49zm50 0h49v49h-49zm-400 50h49v49h-49zm50 0h49v49h-49zm50 0h49v49h-49zm50 0h49v49h-49zm50 0h49v49h-49zm50 0h49v49h-49zm50 0h49v49h-49zm50 0h49v49h-49zm50 0h49v49h-49zm-400 50h49v49h-49zm50 0h49v49h-49zm50 0h49v49h-49zm50 0h49v49h-49zm50 0h49v49h-49zm50 0h49v49h-49zm50 0h49v49h-49zm50 0h49v49h-49zm50 0h49v49h-49zm-400 50h49v49h-49zm50 0h49v49h-49zm50 0h49v49h-49zm50 0h49v49h-49zm50 0h49v49h-49zm50 0h49v49h-49zm50 0h49v49h-49zm50 0h49v49h-49zm50 0h49v49h-49zm-400 50h49v49h-49zm50 0h49v49h-49zm50 0h49v49h-49zm50 0h49v49h-49zm50 0h49v49h-49zm50 0h49v49h-49zm50 0h49v49h-49zm50 0h49v49h-49zm50 0h49v49h-49zm-400 50h49v49h-49zm50 0h49v49h-49zm50 0h49v49h-49zm50 0h49v49h-49zm50 0h49v49h-49zm50 0h49v49h-49zm50 0h49v49h-49zm50 0h49v49h-49zm50 0h49v49h-49zm-400 50h49v49h-49zm50 0h49v49h-49zm50 0h49v49h-49zm50 0h49v49h-49zm50 0h49v49h-49zm50 0h49v49h-49zm50 0h49v49h-49zm50 0h49v49h-49zm50 0h49v49h-49zm-400 50h49v49h-49zm50 0h49v49h-49zm50 0h49v49h-49zm50 0h49v49h-49zm50 0h49v49h-49zm50 0h49v49h-49zm50 0h49v49h-49zm50 0h49v49h-49zm50 0h49v49h-49zm-400 50h49v49h-49zm50 0h49v49h-49zm50 0h49v49h-49zm50 0h49v49h-49zm50 0h49v49h-49zm50 0h49v49h-49zm50 0h49v49h-49zm50 0h49v49h-49zm50 0h49v49h-49zm-400 50h49v49h-49zm50 0h49v49h-49zm50 0h49v49h-49zm50 0h49v49h-49zm50 0h49v49h-49zm50 0h49v49h-49zm50 0h49v49h-49zm50 0h49v49h-49zm50 0h49v49h-49zm-400 50h49v49h-49zm50 0h49v49h-49zm50 0h49v49h-49zm50 0h49v49h-49zm50 0h49v49h-49zm50 0h49v49h-49zm50 0h49v49h-49zm50 0h49v49h-49zm50 0h49v49h-49z"
        style="fill:red" />
</svg>