<svg width="500" height="650" xmlns="http://www.w3.org/2000/svg">
    <path d="M 250 0 A 25 25 0 0 0 225 25 L 225 625 A 25 25 0 0 0 250 650 A 25 25 0 0 0 275 625 L 275 25 A 25 25 0 0 0 250 0 z "/>
    <path d="M 50 100 A 25 25 0 0 0 43.529297 100.85156 A 25 25 0 0 0 32.322266 107.32227 A 25 25 0 0 0 32.322266 142.67773 L 432.32227 542.67773 A 25 25 0 0 0 467.67773 542.67773 A 25 25 0 0 0 467.67773 507.32227 L 67.677734 107.32227 A 25 25 0 0 0 50 100 z "/>
    <path d="M 50 100 A 25 25 0 0 0 25 125 A 25 25 0 0 0 50 150 L 450 150 A 25 25 0 0 0 475 125 A 25 25 0 0 0 450 100 L 50 100 z "/>
    <path d="M 50 500 A 25 25 0 0 0 25 525 A 25 25 0 0 0 50 550 L 450 550 A 25 25 0 0 0 475 525 A 25 25 0 0 0 450 500 L 50 500 z "/>
</svg>