<svg width="500" height="650" xmlns="http://www.w3.org/2000/svg" xmlns:svg="http://www.w3.org/2000/svg">
   <path
      d="M 150 100 A 125 125 0 0 0 25 225 L 25 300 L 0 300 A 25 25 0 0 0 -25 325 A 25 25 0 0 0 0 350 L 25 350 L 25 425 A 125 125 0 0 0 150 550 L 350 550 A 125 125 0 0 0 475 425 L 475 350 L 500 350 A 25 25 0 0 0 525 325 A 25 25 0 0 0 500 300 L 475 300 L 475 225 A 125 125 0 0 0 350 100 A 125 125 0 0 0 250.28906 150.41016 A 125 125 0 0 0 150 100 z M 150 150 A 75 75 0 0 1 225 225 A 75 75 0 0 1 150 300 L 75 300 L 75 225 A 75 75 0 0 1 150 150 z M 350 150 A 75 75 0 0 1 425 225 L 425 300 L 350 300 A 75 75 0 0 1 275 225 A 75 75 0 0 1 350 150 z M 250 299.28906 A 125 125 0 0 0 350 350 L 425 350 L 425 425 A 75 75 0 0 1 422.60938 443.14062 A 75 75 0 0 1 420.65039 448.74023 A 75 75 0 0 1 415.91016 460.18945 A 75 75 0 0 1 412.21094 466.06055 A 75 75 0 0 1 405.23047 475.16016 A 75 75 0 0 1 400.16016 480.23047 A 75 75 0 0 1 391.06055 487.2207 A 75 75 0 0 1 385.18945 490.91016 A 75 75 0 0 1 373.74023 495.65039 A 75 75 0 0 1 368.14062 497.60938 A 75 75 0 0 1 350 500 L 150 500 A 75 75 0 0 1 131.85938 497.60938 A 75 75 0 0 1 126.25977 495.65039 A 75 75 0 0 1 114.81055 490.91016 A 75 75 0 0 1 108.93945 487.21094 A 75 75 0 0 1 99.839844 480.23047 A 75 75 0 0 1 94.769531 475.16016 A 75 75 0 0 1 87.779297 466.06055 A 75 75 0 0 1 84.089844 460.18945 A 75 75 0 0 1 79.349609 448.74023 A 75 75 0 0 1 77.390625 443.14062 A 75 75 0 0 1 75 425 L 75 350 L 150 350 A 125 125 0 0 0 250 299.28906 z " />
</svg>