<svg width="500" height="650" xmlns="http://www.w3.org/2000/svg" xmlns:svg="http://www.w3.org/2000/svg">
    <path
        d="M 450,550 A 25,25 0 0 1 425,525 V 225 A 75,75 0 0 0 350,150 H 50 A 25,25 0 0 1 25,125 25,25 0 0 1 50,100 h 300 a 125,125 0 0 1 125,125 v 300 a 25,25 0 0 1 -25,25 z" />
    <path
        d="M 250 200 A 125 125 0 0 0 125 325 A 125 125 0 0 0 250 450 A 125 125 0 0 0 375 325 A 125 125 0 0 0 250 200 z M 250 250 A 75 75 0 0 1 325 325 A 75 75 0 0 1 250 400 A 75 75 0 0 1 175 325 A 75 75 0 0 1 250 250 z " />
</svg>