<svg width="500" height="650" xmlns="http://www.w3.org/2000/svg" xmlns:svg="http://www.w3.org/2000/svg">
    <path
        d="M 450 100 A 25 25 0 0 0 425 125 L 425 425 A 75 75 0 0 1 350 500 L 50 500 A 25 25 0 0 0 25 525 A 25 25 0 0 0 50 550 L 350 550 A 125 125 0 0 0 475 425 L 475 125 A 25 25 0 0 0 450 100 z " />
    <path
        d="M 250 200 A 125 125 0 0 0 125 325 A 125 125 0 0 0 250 450 A 125 125 0 0 0 375 325 A 125 125 0 0 0 250 200 z M 250 250 A 75 75 0 0 1 325 325 A 75 75 0 0 1 250 400 A 75 75 0 0 1 175 325 A 75 75 0 0 1 250 250 z " />
</svg>