<svg width="500" height="650" xmlns="http://www.w3.org/2000/svg">
   <path
      d="M 444.43945 50.630859 A 25 25 0 0 0 425 75 L 425 425 A 75 75 0 0 1 417.26758 456.9082 L 67.679688 107.32031 L 67.679688 108.07031 A 25 25 0 0 0 55.560547 100.63086 A 25 25 0 0 0 25 125 A 25 25 0 0 0 32.919922 142.67969 L 32.320312 142.67969 L 381.9082 492.26758 A 75 75 0 0 1 350 500 L 150 500 A 75 75 0 0 1 75 425 A 75 75 0 0 1 150 350 A 25 25 0 0 0 175 325 A 25 25 0 0 0 150 300 L 0 300 L 0 300.63086 A 25 25 0 0 0 -25 325 A 25 25 0 0 0 0 349.36914 L 0 350 L 50.189453 350 A 125 125 0 0 0 25 425 A 125 125 0 0 0 150 550 L 350 550 A 125 125 0 0 0 418.87695 529.23633 L 432.32031 542.67969 L 432.32031 541.91992 A 25 25 0 0 0 475 525 A 25 25 0 0 0 467.08008 507.32031 L 467.67969 507.32031 L 454.23633 493.87695 A 125 125 0 0 0 475 425 L 475 75 A 25 25 0 0 0 444.43945 50.630859 z M 67.679688 141.92969 L 67.679688 142.67969 L 67.080078 142.67969 L 67.679688 141.92969 z " />
</svg>