<svg width="500" height="650" xmlns="http://www.w3.org/2000/svg">
    <path
        d="M 450 100 A 25 25 0 0 0 432.32227 107.32227 L 32.322266 507.32227 A 25 25 0 0 0 32.322266 542.67773 A 25 25 0 0 0 67.677734 542.67773 L 467.67773 142.67773 A 25 25 0 0 0 467.67773 107.32227 A 25 25 0 0 0 456.4707 100.85156 A 25 25 0 0 0 450 100 z " />

    <path
        d="M 50 100 A 25 25 0 0 0 43.529297 100.85156 A 25 25 0 0 0 32.322266 107.32227 A 25 25 0 0 0 32.322266 142.67773 L 432.32227 542.67773 A 25 25 0 0 0 467.67773 542.67773 A 25 25 0 0 0 467.67773 507.32227 L 67.677734 107.32227 A 25 25 0 0 0 50 100 z " />

    <path
        d="M150 200a25 25 0 0 0-25 25 25 25 0 0 0 25 25h200a25 25 0 0 0 25-25 25 25 0 0 0-25-25zm0 200a25 25 0 0 0-25 25 25 25 0 0 0 25 25h200a25 25 0 0 0 25-25 25 25 0 0 0-25-25z" />
</svg>