<svg width="500" height="650" xmlns="http://www.w3.org/2000/svg" xmlns:xlink="http://www.w3.org/1999/xlink">
    <path
        d="M 150 100 C 80.964406 100 25 155.96441 25 225 L 25 425 C 25 430.07069 25.391661 435.04242 25.978516 439.95508 A 125 125 0 0 0 26.560547 443.78125 C 27.145356 447.65172 27.896914 451.45761 28.828125 455.20312 A 125 125 0 0 0 29.742188 458.76562 C 31.054175 463.446 32.562708 468.03946 34.388672 472.48047 A 125 125 0 0 0 34.505859 472.80078 C 36.453904 477.50208 38.7204 482.02659 41.205078 486.41797 A 125 125 0 0 0 42.904297 489.2207 C 44.927317 492.58666 47.096659 495.84218 49.417969 498.99219 A 125 125 0 0 0 51.798828 502.1875 C 54.834954 506.04483 58.015318 509.78014 61.476562 513.25195 C 61.566757 513.34242 61.657577 513.43324 61.748047 513.52344 C 65.219857 516.98469 68.95517 520.16504 72.8125 523.20117 A 125 125 0 0 0 76.007812 525.58203 C 79.157821 527.90335 82.413342 530.07268 85.779297 532.0957 A 125 125 0 0 0 88.582031 533.79492 C 92.973416 536.27961 97.497911 538.54609 102.19922 540.49414 A 125 125 0 0 0 102.51953 540.61133 C 106.96054 542.4373 111.55399 543.94582 116.23438 545.25781 A 125 125 0 0 0 119.79688 546.17188 C 123.5424 547.10309 127.34827 547.85464 131.21875 548.43945 A 125 125 0 0 0 135.04492 549.02148 C 139.95758 549.60834 144.9293 550 150 550 L 350 550 A 125 125 0 0 0 475 425 A 125 125 0 0 0 450 350 L 500 350 A 25 25 0 0 0 525 325 A 25 25 0 0 0 500 300 L 350 300 A 25 25 0 0 0 325 325 A 25 25 0 0 0 350 350 A 75 75 0 0 1 425 425 A 75 75 0 0 1 350 500 L 150 500 A 75 75 0 0 1 141.01172 499.41211 C 140.23423 499.31907 139.47312 499.17524 138.70312 499.05859 A 75 75 0 0 1 131.84375 497.69531 C 131.12914 497.51729 130.41337 497.34289 129.70703 497.14453 A 75 75 0 0 1 121.43164 494.33594 C 121.37927 494.31433 121.32379 494.29906 121.27148 494.27734 A 75 75 0 0 1 113.08984 490.24219 C 112.51122 489.91409 111.95562 489.55189 111.38672 489.20898 A 75 75 0 0 1 105.54102 485.30273 C 104.89304 484.82417 104.2392 484.35416 103.60742 483.85547 A 75 75 0 0 1 96.96875 478.03516 A 75 75 0 0 1 91.136719 471.38281 C 90.645311 470.76004 90.182791 470.11507 89.710938 469.47656 A 75 75 0 0 1 85.791016 463.61328 C 85.448862 463.04561 85.087175 462.4914 84.759766 461.91406 A 75 75 0 0 1 80.724609 453.73047 C 80.702889 453.67816 80.687621 453.62268 80.666016 453.57031 A 75 75 0 0 1 77.855469 445.29492 C 77.658713 444.59438 77.487303 443.88447 77.310547 443.17578 A 75 75 0 0 1 75.933594 436.25977 C 75.820401 435.50996 75.682615 434.76863 75.591797 434.01172 A 75 75 0 0 1 75 425.00391 L 75 425 L 75 225 C 75 183.57864 108.57864 150 150 150 L 450 150 C 463.80712 150 475 138.80712 475 125 C 475 111.19288 463.80712 100 450 100 L 150 100 z " />
    <path
        d="M50 100a25 25 0 0 0-6.47.852 25 25 0 0 0-11.208 6.47 25 25 0 0 0 0 35.356l400 400a25 25 0 0 0 35.356 0 25 25 0 0 0 0-35.356l-400-400A25 25 0 0 0 50 100" />
</svg>