<svg width="500" height="650" xmlns="http://www.w3.org/2000/svg" xmlns:xlink="http://www.w3.org/1999/xlink">
    <path
        d="M 50 100 A 25 25 0 0 0 43.529297 100.85156 A 25 25 0 0 0 32.322266 107.32227 A 25 25 0 0 0 32.322266 142.67773 L 432.32227 542.67773 A 25 25 0 0 0 467.67773 542.67773 A 25 25 0 0 0 467.67773 507.32227 L 67.677734 107.32227 A 25 25 0 0 0 50 100 z " />
    <path
        d="M 50 300 A 25 25 0 0 0 25 325 A 25 25 0 0 0 50 350 A 25 25 0 0 0 75 325 A 25 25 0 0 0 50 300 z M 250 300 A 25 25 0 0 0 225 325 A 25 25 0 0 0 250 350 A 25 25 0 0 0 275 325 A 25 25 0 0 0 250 300 z M 450 300 A 25 25 0 0 0 425 325 A 25 25 0 0 0 450 350 A 25 25 0 0 0 475 325 A 25 25 0 0 0 450 300 z " />
</svg>