<svg width="500" height="650" xmlns="http://www.w3.org/2000/svg" xmlns:xlink="http://www.w3.org/1999/xlink">
    <path
        d="M 50,550 A 25,25 0 0 1 25,525 V 225 A 125,125 0 0 1 150,100 h 200 a 125,125 0 0 1 125,125 v 300 a 25,25 0 0 1 -25,25 25,25 0 0 1 -25,-25 V 225 A 75,75 0 0 0 350,150 H 150 a 75,75 0 0 0 -75,75 v 300 a 25,25 0 0 1 -25,25 z" />
    <path
        d="M50 100a25 25 0 0 0-6.47.852 25 25 0 0 0-11.208 6.47 25 25 0 0 0 0 35.356l400 400a25 25 0 0 0 35.356 0 25 25 0 0 0 0-35.356l-400-400A25 25 0 0 0 50 100" />
</svg>