<svg width="500" height="650" xmlns="http://www.w3.org/2000/svg" xmlns:xlink="http://www.w3.org/1999/xlink">
    <path
        d="M 150 50 A 25 25 0 0 0 125 75 A 25 25 0 0 0 150 100 A 75 75 0 0 1 225 175 L 225 225 A 125 125 0 0 0 275.48047 324.76953 A 125 125 0 0 0 225 425 L 225 475 A 75 75 0 0 1 150 550 A 25 25 0 0 0 125 575 A 25 25 0 0 0 150 600 A 125 125 0 0 0 275 475 L 275 425 A 75 75 0 0 1 350 350 A 25 25 0 0 0 358.73047 348.25977 A 25 25 0 0 0 361.19922 347.00977 A 25 25 0 0 0 366.35938 343.56055 A 25 25 0 0 0 368.56055 341.35938 A 25 25 0 0 0 372.00977 336.19922 A 25 25 0 0 0 373.25977 333.73047 A 25 25 0 0 0 375 325 A 25 25 0 0 0 374.76953 321.82031 L 374.61914 320.88086 A 25 25 0 0 0 374.10938 318.5293 L 373.89062 317.68945 A 25 25 0 0 0 372.76953 314.71094 L 372.55078 314.26953 A 25 25 0 0 0 371.24023 311.86914 L 370.7207 311.07031 A 25 25 0 0 0 369.2207 309.07031 L 368.75 308.49023 A 25 25 0 0 0 366.50977 306.25 L 365.92969 305.76953 A 25 25 0 0 0 363.92969 304.26953 L 363.13086 303.75 A 25 25 0 0 0 360.73047 302.44922 L 360.28906 302.2207 A 25 25 0 0 0 357.31055 301.10938 L 356.4707 300.89062 A 25 25 0 0 0 354.11914 300.36914 L 353.17969 300.23047 A 25 25 0 0 0 350 300 A 75 75 0 0 1 275 225 L 275 175 A 125 125 0 0 0 150 50 z " />
</svg>