<?xml version="1.0" encoding="UTF-8" standalone="no"?>
<svg width="500" height="650" version="1.1" id="svg2" sodipodi:docname="uni004B.medi.svg" inkscape:version="1.4.2 (ebf0e940, 2025-05-08)" xmlns:inkscape="http://www.inkscape.org/namespaces/inkscape" xmlns:sodipodi="http://sodipodi.sourceforge.net/DTD/sodipodi-0.dtd" xmlns="http://www.w3.org/2000/svg" xmlns:svg="http://www.w3.org/2000/svg">
    <defs id="defs2" />
    <sodipodi:namedview id="namedview2" pagecolor="#ffffff" bordercolor="#000000" borderopacity="0.25" inkscape:showpageshadow="2" inkscape:pageopacity="0.0" inkscape:pagecheckerboard="0" inkscape:deskcolor="#d1d1d1" inkscape:zoom="0.41391304" inkscape:cx="248.84454" inkscape:cy="326.15546" inkscape:window-width="1080" inkscape:window-height="675" inkscape:window-x="0" inkscape:window-y="25" inkscape:window-maximized="0" inkscape:current-layer="svg2" />
    <path id="path1" d="M 350 100 A 125 125 0 0 0 225 225 A 125 125 0 0 0 350 350 L 425 350 L 425 425 A 75 75 0 0 1 350 500 L 275 500 L 225 500 L 150 500 A 75 75 0 0 1 75 425 A 75 75 0 0 1 150 350 A 25 25 0 0 0 175 325 A 25 25 0 0 0 150 300 L 0 300 A 25 25 0 0 0 -25 325 A 25 25 0 0 0 0 350 L 50 350 A 125 125 0 0 0 25 425 A 125 125 0 0 0 150 550 L 225 550 L 275 550 L 350 550 A 125 125 0 0 0 475 425 L 475 350 L 500 350 A 25 25 0 0 0 525 325 A 25 25 0 0 0 500 300 L 475 300 L 475 225 A 125 125 0 0 0 350 100 z M 350 150 A 75 75 0 0 1 425 225 L 425 300 L 350 300 A 75 75 0 0 1 275 225 A 75 75 0 0 1 350 150 z " />
</svg>
