<svg width="500" height="650" xmlns="http://www.w3.org/2000/svg">
    <path
        d="m 350,100 c 69.03559,0 125,55.96441 125,125 v 200 c 0,69.03559 -55.96441,125 -125,125 H 50 c -13.80712,0 -25,-11.19288 -25,-25 0,-13.80712 11.19288,-25 25,-25 h 300 c 41.42136,0 75,-33.57864 75,-75 V 225 c 0,-41.42136 -33.57864,-75 -75,-75 H 50 c -13.80712,0 -25,-11.19288 -25,-25 0,-13.80712 11.19288,-25 25,-25 z" />
    <path
        d="M 50 100 A 25 25 0 0 0 43.529297 100.85156 A 25 25 0 0 0 32.322266 107.32227 A 25 25 0 0 0 32.322266 142.67773 L 432.32227 542.67773 A 25 25 0 0 0 467.67773 542.67773 A 25 25 0 0 0 467.67773 507.32227 L 67.677734 107.32227 A 25 25 0 0 0 50 100 z " />
    <path
        d="M 250 200 A 125 125 0 0 0 125 325 A 125 125 0 0 0 250 450 A 125 125 0 0 0 375 325 A 125 125 0 0 0 250 200 z M 250 250 A 75 75 0 0 1 325 325 A 75 75 0 0 1 250 400 A 75 75 0 0 1 175 325 A 75 75 0 0 1 250 250 z " />
</svg>