<svg xmlns="http://www.w3.org/2000/svg" width="500" height="650">
    <path
        d="M245.66 100.38A25 25 0 0 0 225 125v139.65L67.68 107.32h-.6a25 25 0 0 0-34.16 0h-.6v.76A25 25 0 0 0 25 125a25 25 0 0 0 7.32 16.92v.76L214.65 325 32.33 507.32h.6A25 25 0 0 0 25 525a25 25 0 0 0 42.68 16.92v.76L225 385.36V525a25 25 0 0 0 50 0V385.36l157.32 157.32h.6a25 25 0 0 0 34.16 0h.6v-.76A25 25 0 0 0 475 525a25 25 0 0 0-7.32-16.92v-.76L285.36 325l182.32-182.32h-.6A25 25 0 0 0 475 125a25 25 0 0 0-42.68-16.93v-.75L275 264.65V125a25 25 0 0 0-29.34-24.62m186.66 41.55.6.75h-.6zM67.08 507.33h.6v.75z" />
</svg>