<svg width="500" height="650" xmlns="http://www.w3.org/2000/svg" xmlns:svg="http://www.w3.org/2000/svg">
   <path
      d="M 150 100 A 125 125 0 0 0 81.123047 120.76367 L 67.679688 107.32031 L 67.679688 108.07031 A 25 25 0 0 0 55.560547 100.63086 A 25 25 0 0 0 25 125 A 25 25 0 0 0 32.919922 142.67969 L 32.320312 142.67969 L 45.763672 156.12305 A 125 125 0 0 0 25 225 L 25 300 L 0 300 A 25 25 0 0 0 -25 325 A 25 25 0 0 0 0 350 L 25 350 L 25 425 A 125 125 0 0 0 26.380859 442.46094 A 125 125 0 0 0 27.199219 447.28906 A 125 125 0 0 0 30.460938 460.89062 A 125 125 0 0 0 31.550781 464.66016 A 125 125 0 0 0 38.199219 480.7207 A 125 125 0 0 0 40.080078 484.11914 A 125 125 0 0 0 47.410156 496.08008 A 125 125 0 0 0 50.240234 500.08008 A 125 125 0 0 0 61.609375 513.38086 A 125 125 0 0 0 74.919922 524.75977 A 125 125 0 0 0 78.919922 527.58984 A 125 125 0 0 0 90.880859 534.91992 A 125 125 0 0 0 94.279297 536.80078 A 125 125 0 0 0 110.33984 543.44922 A 125 125 0 0 0 114.10938 544.53906 A 125 125 0 0 0 127.71094 547.81055 A 125 125 0 0 0 132.53906 548.63086 A 125 125 0 0 0 150 550 L 350 550 A 125 125 0 0 0 418.87695 529.23633 L 432.32031 542.67969 L 432.32031 541.91992 A 25 25 0 0 0 475 525 A 25 25 0 0 0 467.08008 507.32031 L 467.67969 507.32031 L 454.23633 493.87695 A 125 125 0 0 0 475 425 A 125 125 0 0 0 449.98047 350 L 500 350 A 25 25 0 0 0 525 325 A 25 25 0 0 0 500 300 L 350 300 A 25 25 0 0 0 325 325 A 25 25 0 0 0 350 350 A 75 75 0 0 1 425 425 A 75 75 0 0 1 417.26758 456.9082 L 254.23633 293.87695 A 125 125 0 0 0 275 225 A 125 125 0 0 0 150 100 z M 150 150 A 75 75 0 0 1 225 225 A 75 75 0 0 1 217.26758 256.9082 L 118.0918 157.73242 A 75 75 0 0 1 150 150 z M 82.732422 193.0918 L 181.9082 292.26758 A 75 75 0 0 1 150 300 L 75 300 L 75 225 A 75 75 0 0 1 82.732422 193.0918 z M 218.87695 329.23633 L 381.9082 492.26758 A 75 75 0 0 1 350 500 L 150 500 A 75 75 0 0 1 135.13086 498.32031 A 75 75 0 0 1 131.86914 497.61914 A 75 75 0 0 1 118 492.75977 L 116.16992 491.75977 A 75 75 0 0 1 104.84961 484.65039 A 75 75 0 0 1 102.4707 482.86914 A 75 75 0 0 1 92.130859 472.5293 A 75 75 0 0 1 90.349609 470.15039 A 75 75 0 0 1 83.240234 458.83008 L 82.240234 457 A 75 75 0 0 1 77.390625 443.13086 A 75 75 0 0 1 76.679688 439.86914 A 75 75 0 0 1 75 425 L 75 350 L 150 350 A 125 125 0 0 0 218.87695 329.23633 z " />
</svg>