<svg width="500" height="650" xmlns="http://www.w3.org/2000/svg">
    <path
        d="M 150 100 C 80.964406 100 25 155.96441 25 225 L 25 300 L 0 300 C -13.807119 300 -25 311.19288 -25 325 C -25 338.80712 -13.807119 350 0 350 L 25 350 L 25 425 C 25 494.03559 80.964406 550 150 550 L 350 550 C 419.03559 550 475 494.03559 475 425 L 475 225 C 475 155.96441 419.03559 100 350 100 L 150 100 z M 150 150 L 350 150 C 391.42136 150 425 183.57864 425 225 C 425 266.42136 391.42136 300 350 300 L 75 300 L 75 225 C 75 183.57864 108.57864 150 150 150 z M 425 325.00977 L 425 425 C 425 466.42136 391.42136 500 350 500 L 150 500 C 108.57864 500 75 466.42136 75 425 L 75 350 L 350 350 C 378.14015 350 404.10849 340.70199 425 325.00977 z " />
    <path
        d="M 50 100 A 25 25 0 0 0 43.529297 100.85156 A 25 25 0 0 0 32.322266 107.32227 A 25 25 0 0 0 32.322266 142.67773 L 432.32227 542.67773 A 25 25 0 0 0 467.67773 542.67773 A 25 25 0 0 0 467.67773 507.32227 L 67.677734 107.32227 A 25 25 0 0 0 50 100 z " />
</svg>