<svg width="500" height="650" xmlns="http://www.w3.org/2000/svg" xmlns:svg="http://www.w3.org/2000/svg">
    <path
        d="M 50 100 A 25 25 0 0 0 25 125 L 25 425 A 125 125 0 0 0 150 550 L 350 550 A 125 125 0 0 0 475 425 A 125 125 0 0 0 450 350 L 500 350 A 25 25 0 0 0 525 325 A 25 25 0 0 0 500 300 L 350 300 A 25 25 0 0 0 325 325 A 25 25 0 0 0 350 350 A 75 75 0 0 1 425 425 A 75 75 0 0 1 350 500 L 150 500 A 75 75 0 0 1 75 425 L 75 125 A 25 25 0 0 0 50 100 z " />
</svg><svg width="500" height="650" xmlns="http://www.w3.org/2000/svg" xmlns:svg="http://www.w3.org/2000/svg">
    <path
        d="M 150,550 A 125,125 0 0 1 25,425 V 350 H 0 A 25,25 0 0 1 -25,325 25,25 0 0 1 0,300 H 25 V 225 A 125,125 0 0 1 150,100 125,125 0 0 1 275,225 125,125 0 0 1 150,350 H 75 v 75 a 75,75 0 0 0 75,75 h 300 a 25,25 0 0 1 25,25 25,25 0 0 1 -25,25 z M 75,300 h 75 a 75,75 0 0 0 75,-75 75,75 0 0 0 -75,-75 75,75 0 0 0 -75,75 z" />
</svg><svg width="500" height="650" xmlns="http://www.w3.org/2000/svg" xmlns:svg="http://www.w3.org/2000/svg">
    <path
        d="M0-.5v1h24.5v49H0v1h24.5v49H0v1h24.5v49H0v1h24.5v49H0v1h24.5v49H0v1h24.5v49H0v1h24.5v49H0v1h24.5v49H0v1h24.5v49H0v1h24.5v49H0v1h24.5v49H0v1h24.5v49H0v1h24.5v49H0v1h500v-1h-24.5v-49H500v-1h-24.5v-49H500v-1h-24.5v-49H500v-1h-24.5v-49H500v-1h-24.5v-49H500v-1h-24.5v-49H500v-1h-24.5v-49H500v-1h-24.5v-49H500v-1h-24.5v-49H500v-1h-24.5v-49H500v-1h-24.5v-49H500v-1h-24.5v-49H500v-1h-24.5V.5H500v-1zm25.5 1h49v49h-49zm50 0h49v49h-49zm50 0h49v49h-49zm50 0h49v49h-49zm50 0h49v49h-49zm50 0h49v49h-49zm50 0h49v49h-49zm50 0h49v49h-49zm50 0h49v49h-49zm-400 50h49v49h-49zm50 0h49v49h-49zm50 0h49v49h-49zm50 0h49v49h-49zm50 0h49v49h-49zm50 0h49v49h-49zm50 0h49v49h-49zm50 0h49v49h-49zm50 0h49v49h-49zm-400 50h49v49h-49zm50 0h49v49h-49zm50 0h49v49h-49zm50 0h49v49h-49zm50 0h49v49h-49zm50 0h49v49h-49zm50 0h49v49h-49zm50 0h49v49h-49zm50 0h49v49h-49zm-400 50h49v49h-49zm50 0h49v49h-49zm50 0h49v49h-49zm50 0h49v49h-49zm50 0h49v49h-49zm50 0h49v49h-49zm50 0h49v49h-49zm50 0h49v49h-49zm50 0h49v49h-49zm-400 50h49v49h-49zm50 0h49v49h-49zm50 0h49v49h-49zm50 0h49v49h-49zm50 0h49v49h-49zm50 0h49v49h-49zm50 0h49v49h-49zm50 0h49v49h-49zm50 0h49v49h-49zm-400 50h49v49h-49zm50 0h49v49h-49zm50 0h49v49h-49zm50 0h49v49h-49zm50 0h49v49h-49zm50 0h49v49h-49zm50 0h49v49h-49zm50 0h49v49h-49zm50 0h49v49h-49zm-400 50h49v49h-49zm50 0h49v49h-49zm50 0h49v49h-49zm50 0h49v49h-49zm50 0h49v49h-49zm50 0h49v49h-49zm50 0h49v49h-49zm50 0h49v49h-49zm50 0h49v49h-49zm-400 50h49v49h-49zm50 0h49v49h-49zm50 0h49v49h-49zm50 0h49v49h-49zm50 0h49v49h-49zm50 0h49v49h-49zm50 0h49v49h-49zm50 0h49v49h-49zm50 0h49v49h-49zm-400 50h49v49h-49zm50 0h49v49h-49zm50 0h49v49h-49zm50 0h49v49h-49zm50 0h49v49h-49zm50 0h49v49h-49zm50 0h49v49h-49zm50 0h49v49h-49zm50 0h49v49h-49zm-400 50h49v49h-49zm50 0h49v49h-49zm50 0h49v49h-49zm50 0h49v49h-49zm50 0h49v49h-49zm50 0h49v49h-49zm50 0h49v49h-49zm50 0h49v49h-49zm50 0h49v49h-49zm-400 50h49v49h-49zm50 0h49v49h-49zm50 0h49v49h-49zm50 0h49v49h-49zm50 0h49v49h-49zm50 0h49v49h-49zm50 0h49v49h-49zm50 0h49v49h-49zm50 0h49v49h-49zm-400 50h49v49h-49zm50 0h49v49h-49zm50 0h49v49h-49zm50 0h49v49h-49zm50 0h49v49h-49zm50 0h49v49h-49zm50 0h49v49h-49zm50 0h49v49h-49zm50 0h49v49h-49zm-400 50h49v49h-49zm50 0h49v49h-49zm50 0h49v49h-49zm50 0h49v49h-49zm50 0h49v49h-49zm50 0h49v49h-49zm50 0h49v49h-49zm50 0h49v49h-49zm50 0h49v49h-49z"
        style="fill:none;stroke:red;" />
    <rect x="0" y="0" width="225" height="650" style="" />
    <rect x="0" y="0" width="275" height="650" style="" />
</svg>