<svg width="500" height="650" xmlns="http://www.w3.org/2000/svg" xmlns:xlink="http://www.w3.org/1999/xlink">
    <path
        d="M 106.79492 158.64258 A 25 25 0 0 0 90.900391 165.90039 A 25 25 0 0 0 90.900391 201.25586 A 25 25 0 0 0 126.25586 201.25586 A 25 25 0 0 0 126.25586 165.90039 A 25 25 0 0 0 106.79492 158.64258 z M 389.63867 158.64258 A 25 25 0 0 0 373.74414 165.90039 A 25 25 0 0 0 373.74414 201.25586 A 25 25 0 0 0 409.09961 201.25586 A 25 25 0 0 0 409.09961 165.90039 A 25 25 0 0 0 389.63867 158.64258 z " />
</svg>