<svg width="500" height="650" xmlns="http://www.w3.org/2000/svg" xmlns:svg="http://www.w3.org/2000/svg">
    <path
        d="M 150 100 A 125 125 0 0 0 25 225 A 125 125 0 0 0 150 350 L 425 350 L 425 425 C 425 466.42136 391.42136 500 350 500 L 50 500 C 36.19288 500 25 511.19288 25 525 C 25 538.80712 36.19288 550 50 550 L 350 550 C 419.03559 550 475 494.03559 475 425 L 475 350 L 500 350 A 25 25 0 0 0 525 325 A 25 25 0 0 0 500 300 L 475 300 L 475 225 C 475 155.96441 419.03559 100 350 100 L 150 100 z M 150 150 L 350 150 C 391.42136 150 425 183.57864 425 225 L 425 300 L 150 300 A 75 75 0 0 1 75 225 A 75 75 0 0 1 150 150 z " />
    <path
        d="M50 100a25 25 0 0 0-6.47.852 25 25 0 0 0-11.208 6.47 25 25 0 0 0 0 35.356l400 400a25 25 0 0 0 35.356 0 25 25 0 0 0 0-35.356l-400-400A25 25 0 0 0 50 100" />
</svg>