<svg width="500" height="650" xmlns="http://www.w3.org/2000/svg">
   <path
      d="M 50 100 L 50 100.63086 A 25 25 0 0 0 40.640625 102.45898 L 40.46875 102.54102 A 25 25 0 0 0 32.666016 107.64648 A 25 25 0 0 0 32.152344 108.29102 A 25 25 0 0 0 27.169922 115.49609 A 25 25 0 0 0 25 125 A 25 25 0 0 0 27.136719 134.45312 A 25 25 0 0 0 29.880859 138.42383 A 25 25 0 0 0 32.705078 142.37891 L 32.919922 142.67969 L 32.320312 142.67969 L 425 535.35938 L 425 575 A 25 25 0 0 0 475 575 L 475 225 A 125 125 0 0 0 350 100 L 50 100 z M 110.35938 150 L 350 150 A 75 75 0 0 1 425 225 L 425 464.64062 L 110.35938 150 z " />
</svg>