<svg width="500" height="650" xmlns="http://www.w3.org/2000/svg">
    <path fill="green"
        d="M 150 100 A 125 125 0 0 0 128.16992 102.15039 A 125 125 0 0 0 122.07031 103.48047 A 125 125 0 0 0 105.82031 108.41016 A 125 125 0 0 0 100.58984 110.35938 A 125 125 0 0 0 81.369141 120.63086 A 125 125 0 0 0 78.150391 123.03906 A 125 125 0 0 0 64.130859 134.53906 A 125 125 0 0 0 59.550781 139.13086 A 125 125 0 0 0 48.050781 153.15039 A 125 125 0 0 0 45.630859 156.36914 A 125 125 0 0 0 35.359375 175.58008 A 125 125 0 0 0 33.410156 180.82031 A 125 125 0 0 0 28.480469 197.06055 A 125 125 0 0 0 27.150391 203.16992 A 125 125 0 0 0 25 225 A 125 125 0 0 0 50.630859 300 L 0 300 L 0 300.07031 A 25 25 0 0 0 -25 325 A 25 25 0 0 0 0 349.92969 L 0 350 L 50.400391 350 A 125 125 0 0 0 25 425 A 125 125 0 0 0 150 550 L 350 550 A 125 125 0 0 0 475 425 L 475 350 L 500 350 A 25 25 0 0 0 525 325 A 25 25 0 0 0 500 300 L 475 300 L 475 225 A 125 125 0 0 0 350 100 L 150 100 z M 150 150 L 350 150 A 75 75 0 0 1 356.36914 150.2793 L 358.53906 150.55078 A 75 75 0 0 1 362.66992 151.08984 A 75 75 0 0 1 365.26953 151.64062 A 75 75 0 0 1 368.91016 152.43945 A 75 75 0 0 1 371.58008 153.24023 A 75 75 0 0 1 375 154.32031 A 75 75 0 0 1 377.64062 155.34961 A 75 75 0 0 1 380.93945 156.71094 A 75 75 0 0 1 383.49023 157.96094 A 75 75 0 0 1 386.63086 159.58984 A 75 75 0 0 1 389.08984 161.06055 A 75 75 0 0 1 392.06055 162.96094 A 75 75 0 0 1 394.40039 164.61914 A 75 75 0 0 1 397.17969 166.75977 A 75 75 0 0 1 399.39062 168.63086 A 75 75 0 0 1 401.96094 170.98047 A 75 75 0 0 1 404.01953 173.03906 A 75 75 0 0 1 406.36914 175.60938 A 75 75 0 0 1 408.24023 177.81055 A 75 75 0 0 1 410.38086 180.60938 A 75 75 0 0 1 412.05078 182.93945 A 75 75 0 0 1 413.93945 185.91016 A 75 75 0 0 1 415.41016 188.36914 A 75 75 0 0 1 417.03906 191.50977 A 75 75 0 0 1 418.28906 194.06055 A 75 75 0 0 1 419.65039 197.35938 A 75 75 0 0 1 420.67969 200 A 75 75 0 0 1 421.75977 203.41992 A 75 75 0 0 1 422.56055 206.08984 A 75 75 0 0 1 423.35938 209.73047 A 75 75 0 0 1 423.91016 212.33008 A 75 75 0 0 1 424.44922 216.46094 L 424.7207 218.63086 A 75 75 0 0 1 425 225 L 425 300 L 150 300 A 75 75 0 0 1 75 225 A 75 75 0 0 1 77.300781 207.55078 A 75 75 0 0 1 78.269531 204.33008 A 75 75 0 0 1 79.349609 201.25977 A 75 75 0 0 1 83.800781 190.5293 L 84.669922 188.90039 A 75 75 0 0 1 87.779297 183.93945 A 75 75 0 0 1 94.769531 174.83984 A 75 75 0 0 1 99.839844 169.76953 A 75 75 0 0 1 108.93945 162.7793 A 75 75 0 0 1 113.90039 159.66016 L 115.5293 158.78906 A 75 75 0 0 1 126.25977 154.34961 A 75 75 0 0 1 129.33008 153.26953 A 75 75 0 0 1 132.55078 152.30078 A 75 75 0 0 1 150 150 z M 150 350 L 425 350 L 425 425 A 75 75 0 0 1 422.60938 443.14062 A 75 75 0 0 1 420.65039 448.74023 A 75 75 0 0 1 415.91016 460.18945 A 75 75 0 0 1 412.21094 466.06055 A 75 75 0 0 1 405.23047 475.16016 A 75 75 0 0 1 400.16016 480.23047 A 75 75 0 0 1 391.06055 487.2207 A 75 75 0 0 1 385.18945 490.91016 A 75 75 0 0 1 373.74023 495.65039 A 75 75 0 0 1 368.14062 497.60938 A 75 75 0 0 1 350 500 L 150 500 A 75 75 0 0 1 131.85938 497.60938 A 75 75 0 0 1 126.25977 495.65039 A 75 75 0 0 1 114.81055 490.91016 A 75 75 0 0 1 108.93945 487.21094 A 75 75 0 0 1 99.839844 480.23047 A 75 75 0 0 1 94.769531 475.16016 A 75 75 0 0 1 87.779297 466.06055 A 75 75 0 0 1 84.089844 460.18945 A 75 75 0 0 1 79.349609 448.74023 A 75 75 0 0 1 77.390625 443.14062 A 75 75 0 0 1 75 425 A 75 75 0 0 1 150 350 z " />
    <path
        d="M0-.5v1h24.5v49H0v1h24.5v49H0v1h24.5v49H0v1h24.5v49H0v1h24.5v49H0v1h24.5v49H0v1h24.5v49H0v1h24.5v49H0v1h24.5v49H0v1h24.5v49H0v1h24.5v49H0v1h24.5v49H0v1h24.5v49H0v1h500v-1h-24.5v-49H500v-1h-24.5v-49H500v-1h-24.5v-49H500v-1h-24.5v-49H500v-1h-24.5v-49H500v-1h-24.5v-49H500v-1h-24.5v-49H500v-1h-24.5v-49H500v-1h-24.5v-49H500v-1h-24.5v-49H500v-1h-24.5v-49H500v-1h-24.5v-49H500v-1h-24.5V.5H500v-1zm25.5 1h49v49h-49zm50 0h49v49h-49zm50 0h49v49h-49zm50 0h49v49h-49zm50 0h49v49h-49zm50 0h49v49h-49zm50 0h49v49h-49zm50 0h49v49h-49zm50 0h49v49h-49zm-400 50h49v49h-49zm50 0h49v49h-49zm50 0h49v49h-49zm50 0h49v49h-49zm50 0h49v49h-49zm50 0h49v49h-49zm50 0h49v49h-49zm50 0h49v49h-49zm50 0h49v49h-49zm-400 50h49v49h-49zm50 0h49v49h-49zm50 0h49v49h-49zm50 0h49v49h-49zm50 0h49v49h-49zm50 0h49v49h-49zm50 0h49v49h-49zm50 0h49v49h-49zm50 0h49v49h-49zm-400 50h49v49h-49zm50 0h49v49h-49zm50 0h49v49h-49zm50 0h49v49h-49zm50 0h49v49h-49zm50 0h49v49h-49zm50 0h49v49h-49zm50 0h49v49h-49zm50 0h49v49h-49zm-400 50h49v49h-49zm50 0h49v49h-49zm50 0h49v49h-49zm50 0h49v49h-49zm50 0h49v49h-49zm50 0h49v49h-49zm50 0h49v49h-49zm50 0h49v49h-49zm50 0h49v49h-49zm-400 50h49v49h-49zm50 0h49v49h-49zm50 0h49v49h-49zm50 0h49v49h-49zm50 0h49v49h-49zm50 0h49v49h-49zm50 0h49v49h-49zm50 0h49v49h-49zm50 0h49v49h-49zm-400 50h49v49h-49zm50 0h49v49h-49zm50 0h49v49h-49zm50 0h49v49h-49zm50 0h49v49h-49zm50 0h49v49h-49zm50 0h49v49h-49zm50 0h49v49h-49zm50 0h49v49h-49zm-400 50h49v49h-49zm50 0h49v49h-49zm50 0h49v49h-49zm50 0h49v49h-49zm50 0h49v49h-49zm50 0h49v49h-49zm50 0h49v49h-49zm50 0h49v49h-49zm50 0h49v49h-49zm-400 50h49v49h-49zm50 0h49v49h-49zm50 0h49v49h-49zm50 0h49v49h-49zm50 0h49v49h-49zm50 0h49v49h-49zm50 0h49v49h-49zm50 0h49v49h-49zm50 0h49v49h-49zm-400 50h49v49h-49zm50 0h49v49h-49zm50 0h49v49h-49zm50 0h49v49h-49zm50 0h49v49h-49zm50 0h49v49h-49zm50 0h49v49h-49zm50 0h49v49h-49zm50 0h49v49h-49zm-400 50h49v49h-49zm50 0h49v49h-49zm50 0h49v49h-49zm50 0h49v49h-49zm50 0h49v49h-49zm50 0h49v49h-49zm50 0h49v49h-49zm50 0h49v49h-49zm50 0h49v49h-49zm-400 50h49v49h-49zm50 0h49v49h-49zm50 0h49v49h-49zm50 0h49v49h-49zm50 0h49v49h-49zm50 0h49v49h-49zm50 0h49v49h-49zm50 0h49v49h-49zm50 0h49v49h-49zm-400 50h49v49h-49zm50 0h49v49h-49zm50 0h49v49h-49zm50 0h49v49h-49zm50 0h49v49h-49zm50 0h49v49h-49zm50 0h49v49h-49zm50 0h49v49h-49zm50 0h49v49h-49z"
        style="fill:none;stroke:red;" />
</svg>