<svg width="500" height="650" xmlns="http://www.w3.org/2000/svg">
   <path
      d="M 150 100 A 125 125 0 0 0 130.68945 101.68945 A 125 125 0 0 0 126.2793 102.43945 A 125 125 0 0 0 107.81055 107.39062 L 105.66016 108.2793 A 125 125 0 0 0 89.820312 115.66016 A 125 125 0 0 0 86.140625 117.69922 A 125 125 0 0 0 81.386719 121.02734 L 67.679688 107.32031 L 67.679688 108.07031 A 25 25 0 0 0 55.560547 100.63086 A 25 25 0 0 0 25 125 A 25 25 0 0 0 32.919922 142.67969 L 32.320312 142.67969 L 46.027344 156.38672 A 125 125 0 0 0 42.699219 161.14062 A 125 125 0 0 0 40.660156 164.82031 A 125 125 0 0 0 33.279297 180.66016 L 32.380859 182.81055 A 125 125 0 0 0 27.439453 201.2793 A 125 125 0 0 0 26.689453 205.67969 A 125 125 0 0 0 25 225 L 25 300 L 0 300 A 25 25 0 0 0 -25 325 A 25 25 0 0 0 0 350 L 25 350 L 25 425 A 125 125 0 0 0 150 550 A 125 125 0 0 0 275 425 A 125 125 0 0 0 264.48242 374.8418 L 432.32031 542.67969 L 432.32031 541.91992 A 25 25 0 0 0 475 525 A 25 25 0 0 0 467.08008 507.32031 L 467.67969 507.32031 L 117.74414 157.38477 L 118.00977 157.24023 A 75 75 0 0 1 131.88086 152.38086 A 75 75 0 0 1 135.14062 151.67969 A 75 75 0 0 1 150 150 L 350 150 A 75 75 0 0 1 425 225 A 75 75 0 0 1 350 300 A 25 25 0 0 0 325 325 A 25 25 0 0 0 350 350 L 500 350 A 25 25 0 0 0 525 325 A 25 25 0 0 0 500 300 L 449.81055 300 A 125 125 0 0 0 475 225 A 125 125 0 0 0 350 100 L 150 100 z M 82.388672 192.74805 L 200.1582 310.51758 A 125 125 0 0 0 150 300 L 75 300 L 75 225 A 75 75 0 0 1 76.679688 210.13086 A 75 75 0 0 1 77.380859 206.86914 A 75 75 0 0 1 82.25 193 L 82.388672 192.74805 z M 75 350 L 150 350 A 75 75 0 0 1 225 425 A 75 75 0 0 1 150 500 A 75 75 0 0 1 75 425 L 75 350 z M 432.32031 507.33008 L 432.91992 507.33008 L 432.32031 508.08008 L 432.32031 507.33008 z " />
</svg>