<svg width="500" height="650" xmlns="http://www.w3.org/2000/svg" xmlns:xlink="http://www.w3.org/1999/xlink">
    <path
        d="M 150,550 A 125,125 0 0 1 25,425 V 350 H 0 A 25,25 0 0 1 -25,325 25,25 0 0 1 0,300 H 25 V 225 A 125,125 0 0 1 150,100 125,125 0 0 1 275,225 125,125 0 0 1 150,350 H 75 v 75 a 75,75 0 0 0 75,75 h 200 a 75,75 0 0 0 75,-75 V 125 a 25,25 0 0 1 25,-25 25,25 0 0 1 25,25 V 425 A 125,125 0 0 1 350,550 Z M 75,300 h 75 a 75,75 0 0 0 75,-75 75,75 0 0 0 -75,-75 75,75 0 0 0 -75,75 z" />
    <path
        d="M50 100a25 25 0 0 0-6.47.852 25 25 0 0 0-11.208 6.47 25 25 0 0 0 0 35.356l400 400a25 25 0 0 0 35.356 0 25 25 0 0 0 0-35.356l-400-400A25 25 0 0 0 50 100" />
</svg>