<svg width="500" height="650" xmlns="http://www.w3.org/2000/svg">
   <path
      d="M 150 100 A 125 125 0 0 0 81.123047 120.76367 L 67.679688 107.32031 L 67.679688 108.07031 A 25 25 0 0 0 55.560547 100.63086 A 25 25 0 0 0 25 125 A 25 25 0 0 0 32.919922 142.67969 L 32.320312 142.67969 L 45.763672 156.12305 A 125 125 0 0 0 25 225 L 25 575 A 25 25 0 0 0 75 575 L 75 225 A 75 75 0 0 1 82.732422 193.0918 L 432.32031 542.67969 L 432.32031 541.91992 A 25 25 0 0 0 475 525 A 25 25 0 0 0 467.08008 507.32031 L 467.67969 507.32031 L 118.0918 157.73242 A 75 75 0 0 1 150 150 L 350 150 A 75 75 0 0 1 425 225 A 75 75 0 0 1 350 300 A 25 25 0 0 0 325 325 A 25 25 0 0 0 350 350 L 500 350 L 500 349.92969 A 25 25 0 0 0 525 325 A 25 25 0 0 0 500 300.07031 L 500 300 L 449.81055 300 A 125 125 0 0 0 475 225 A 125 125 0 0 0 350 100 L 150 100 z M 432.32031 507.33008 L 432.91992 507.33008 L 432.32031 508.08008 L 432.32031 507.33008 z " />
</svg>