<?xml version="1.0" encoding="UTF-8" standalone="no"?>
<svg width="500" height="650" version="1.1" id="svg11" sodipodi:docname="uni0048.init.svg" inkscape:version="1.4.2 (ebf0e940, 2025-05-08)" xmlns:inkscape="http://www.inkscape.org/namespaces/inkscape" xmlns:sodipodi="http://sodipodi.sourceforge.net/DTD/sodipodi-0.dtd" xmlns="http://www.w3.org/2000/svg" xmlns:svg="http://www.w3.org/2000/svg">
    <defs id="defs11" />
    <sodipodi:namedview id="namedview11" pagecolor="#ffffff" bordercolor="#000000" borderopacity="0.25" inkscape:showpageshadow="2" inkscape:pageopacity="0.0" inkscape:pagecheckerboard="0" inkscape:deskcolor="#d1d1d1" inkscape:zoom="0.70153846" inkscape:cx="249.45175" inkscape:cy="325" inkscape:window-width="1080" inkscape:window-height="675" inkscape:window-x="0" inkscape:window-y="25" inkscape:window-maximized="0" inkscape:current-layer="svg11" />
    <path id="path1" d="M 350,550 A 125,125 0 0 1 225,425 125,125 0 0 1 350,300 h 75 V 225 A 75,75 0 0 0 350,150 H 50 A 25,25 0 0 1 25,125 25,25 0 0 1 50,100 h 300 a 125,125 0 0 1 125,125 v 75 h 25 a 25,25 0 0 1 25,25 25,25 0 0 1 -25,25 h -25 v 75 A 125,125 0 0 1 350,550 Z m 0,-50 a 75,75 0 0 0 75,-75 v -75 h -75 a 75,75 0 0 0 -75,75 75,75 0 0 0 75,75 z" />
</svg>
