<svg width="500" height="650" xmlns="http://www.w3.org/2000/svg">
   <path
      d="M 150 100 A 125 125 0 0 0 81.123047 120.76367 L 67.679688 107.32031 L 67.679688 108.07031 A 25 25 0 0 0 55.560547 100.63086 A 25 25 0 0 0 25 125 A 25 25 0 0 0 32.919922 142.67969 L 32.320312 142.67969 L 45.763672 156.12305 A 125 125 0 0 0 25 225 L 25 425 A 125 125 0 0 0 150 550 L 350 550 A 125 125 0 0 0 418.87695 529.23633 L 432.32031 542.67969 L 432.32031 541.91992 A 25 25 0 0 0 475 525 A 25 25 0 0 0 467.08008 507.32031 L 467.67969 507.32031 L 454.23633 493.87695 A 125 125 0 0 0 475 425 A 25 25 0 0 0 450 400 A 25 25 0 0 0 425 425 A 75 75 0 0 1 417.6582 457.29883 L 117.70117 157.3418 A 75 75 0 0 1 150 150 L 350 150 A 75 75 0 0 1 425 225 A 25 25 0 0 0 450 250 A 25 25 0 0 0 475 225 A 125 125 0 0 0 350 100 L 150 100 z M 82.341797 192.70117 L 382.29883 492.6582 A 75 75 0 0 1 350 500 L 150 500 A 75 75 0 0 1 75 425 L 75 225 A 75 75 0 0 1 82.341797 192.70117 z " />
</svg>