<?xml version="1.0" encoding="UTF-8" standalone="no"?>
<svg width="500" height="650" version="1.1" id="svg2" sodipodi:docname="uni25cc.svg"
    inkscape:version="1.4.2 (ebf0e940, 2025-05-08)" xmlns:inkscape="http://www.inkscape.org/namespaces/inkscape"
    xmlns:sodipodi="http://sodipodi.sourceforge.net/DTD/sodipodi-0.dtd" xmlns="http://www.w3.org/2000/svg"
    xmlns:svg="http://www.w3.org/2000/svg">
    <defs id="defs2" />
    <path id="path1"
        d="M 75 125.24414 C 73.941602 126.0412 72.85219 126.79742 71.820312 127.62695 A 125 125 0 0 0 67.972656 130.80859 C 65.715882 132.77565 63.559005 134.8486 61.449219 136.9707 A 125 125 0 0 0 58.472656 139.94727 C 55.656332 142.97663 52.97646 146.13396 50.46875 149.43164 A 125 125 0 0 0 50 150 L 75 150 L 75 125.24414 z M 425 125.24414 L 425 150 L 450 150 A 125 125 0 0 0 449.53125 149.43164 C 447.02354 146.13396 444.34367 142.97663 441.52734 139.94727 A 125 125 0 0 0 438.55078 136.9707 C 436.44099 134.8486 434.28412 132.77565 432.02734 130.80859 A 125 125 0 0 0 428.17969 127.62695 C 427.14781 126.79742 426.0584 126.0412 425 125.24414 z M 50 500 A 125 125 0 0 0 50.46875 500.56836 C 52.97646 503.86604 55.656332 507.02337 58.472656 510.05273 A 125 125 0 0 0 61.449219 513.0293 C 63.559005 515.1514 65.715882 517.22435 67.972656 519.19141 A 125 125 0 0 0 71.820312 522.37305 C 72.85219 523.20258 73.941602 523.9588 75 524.75586 L 75 500 L 50 500 z M 425 500 L 425 524.75586 C 426.0584 523.9588 427.14781 523.20258 428.17969 522.37305 A 125 125 0 0 0 432.02734 519.19141 C 434.28412 517.22435 436.44099 515.1514 438.55078 513.0293 A 125 125 0 0 0 441.52734 510.05273 C 444.34367 507.02337 447.02354 503.86604 449.53125 500.56836 A 125 125 0 0 0 450 500 L 425 500 z " />
</svg>