<svg width="500" height="650" xmlns="http://www.w3.org/2000/svg">
    <path
        d="M 50 100 A 25 25 0 0 0 43.529297 100.85156 A 25 25 0 0 0 32.322266 107.32227 A 25 25 0 0 0 25.851562 118.5293 A 25 25 0 0 0 25 125 A 25 25 0 0 0 25.851562 131.4707 A 25 25 0 0 0 32.322266 142.67773 L 145.7207 256.07617 A 125 125 0 0 0 125 325 A 125 125 0 0 0 250 450 A 125 125 0 0 0 318.92383 429.2793 L 389.64453 500 L 50 500 A 25 25 0 0 0 25 525 A 25 25 0 0 0 50 550 L 449.92188 550 L 450 550 A 25 25 0 0 0 451.50195 549.90039 A 25 25 0 0 0 453.24219 549.78711 A 25 25 0 0 0 454.67383 549.50586 A 25 25 0 0 0 456.44531 549.1543 A 25 25 0 0 0 458.51172 548.45508 A 25 25 0 0 0 459.54297 548.10547 A 25 25 0 0 0 461.13672 547.32422 A 25 25 0 0 0 462.49609 546.65234 A 25 25 0 0 0 462.5 546.65039 A 25 25 0 0 0 465.20898 544.8418 A 25 25 0 0 0 465.21875 544.83398 A 25 25 0 0 0 469.83398 540.21875 A 25 25 0 0 0 474.14844 531.4707 A 25 25 0 0 0 475 525 A 25 25 0 0 0 474.14844 518.5293 A 25 25 0 0 0 467.67773 507.32227 L 354.2793 393.92383 A 125 125 0 0 0 375 325 A 125 125 0 0 0 250 200 A 125 125 0 0 0 181.07617 220.7207 L 110.35547 150 L 450 150 A 25 25 0 0 0 475 125 A 25 25 0 0 0 450 100 L 50 100 z M 250 250 A 75 75 0 0 1 325 325 A 75 75 0 0 1 317.67773 357.32227 L 217.67773 257.32227 A 75 75 0 0 1 250 250 z M 182.32227 292.67773 L 282.32227 392.67773 A 75 75 0 0 1 250 400 A 75 75 0 0 1 175 325 A 75 75 0 0 1 182.32227 292.67773 z " />
</svg>