<?xml version="1.0" encoding="UTF-8" standalone="no"?>
<svg width="500" height="650" version="1.1" id="svg4" sodipodi:docname="uni25cc.svg" inkscape:version="1.4.2 (ebf0e940, 2025-05-08)" xmlns:inkscape="http://www.inkscape.org/namespaces/inkscape" xmlns:sodipodi="http://sodipodi.sourceforge.net/DTD/sodipodi-0.dtd" xmlns="http://www.w3.org/2000/svg" xmlns:svg="http://www.w3.org/2000/svg">
    <defs id="defs4" />
    <sodipodi:namedview id="namedview4" pagecolor="#ffffff" bordercolor="#000000" borderopacity="0.25" inkscape:showpageshadow="2" inkscape:pageopacity="0.0" inkscape:pagecheckerboard="0" inkscape:deskcolor="#d1d1d1" inkscape:zoom="0.41391304" inkscape:cx="248.84454" inkscape:cy="326.15546" inkscape:window-width="1080" inkscape:window-height="675" inkscape:window-x="0" inkscape:window-y="25" inkscape:window-maximized="0" inkscape:current-layer="svg4" />
    <path id="path1" d="M 50 100 A 25 25 0 0 0 43.529297 100.85156 A 25 25 0 0 0 32.322266 107.32227 A 25 25 0 0 0 32.322266 142.67773 L 145.7207 256.07617 A 125 125 0 0 0 125 325 A 125 125 0 0 0 250 450 A 125 125 0 0 0 318.92383 429.2793 L 432.32227 542.67773 A 25 25 0 0 0 467.67773 542.67773 A 25 25 0 0 0 467.67773 507.32227 L 354.2793 393.92383 A 125 125 0 0 0 375 325 A 125 125 0 0 0 250 200 A 125 125 0 0 0 181.07617 220.7207 L 67.677734 107.32227 A 25 25 0 0 0 50 100 z M 250 100 A 25 25 0 0 0 225 125 A 25 25 0 0 0 250 150 A 25 25 0 0 0 275 125 A 25 25 0 0 0 250 100 z M 250 250 A 75 75 0 0 1 325 325 A 75 75 0 0 1 317.67773 357.32227 L 217.67773 257.32227 A 75 75 0 0 1 250 250 z M 182.32227 292.67773 L 282.32227 392.67773 A 75 75 0 0 1 250 400 A 75 75 0 0 1 175 325 A 75 75 0 0 1 182.32227 292.67773 z M 50 300 A 25 25 0 0 0 25 325 A 25 25 0 0 0 50 350 A 25 25 0 0 0 75 325 A 25 25 0 0 0 50 300 z M 450 300 A 25 25 0 0 0 425 325 A 25 25 0 0 0 450 350 A 25 25 0 0 0 475 325 A 25 25 0 0 0 450 300 z M 250 500 A 25 25 0 0 0 225 525 A 25 25 0 0 0 250 550 A 25 25 0 0 0 275 525 A 25 25 0 0 0 250 500 z " />
</svg>
