<?xml version="1.0" encoding="UTF-8" standalone="no"?>
<svg width="500" height="650" version="1.1" id="svg4" sodipodi:docname="uni25cc.svg" inkscape:version="1.4.2 (ebf0e940, 2025-05-08)" xmlns:inkscape="http://www.inkscape.org/namespaces/inkscape" xmlns:sodipodi="http://sodipodi.sourceforge.net/DTD/sodipodi-0.dtd" xmlns="http://www.w3.org/2000/svg" xmlns:svg="http://www.w3.org/2000/svg">
    <defs id="defs4" />
    <sodipodi:namedview id="namedview4" pagecolor="#ffffff" bordercolor="#000000" borderopacity="0.25" inkscape:showpageshadow="2" inkscape:pageopacity="0.0" inkscape:pagecheckerboard="0" inkscape:deskcolor="#d1d1d1" inkscape:zoom="0.41391304" inkscape:cx="250.05252" inkscape:cy="326.15546" inkscape:window-width="1080" inkscape:window-height="675" inkscape:window-x="0" inkscape:window-y="25" inkscape:window-maximized="0" inkscape:current-layer="svg4" />
    <path id="path1" d="M 50 100 A 25 25 0 0 0 25 125 A 25 25 0 0 0 50 150 A 25 25 0 0 0 75 125 A 25 25 0 0 0 50 100 z M 250 100 A 25 25 0 0 0 225 125 A 25 25 0 0 0 250 150 A 25 25 0 0 0 275 125 A 25 25 0 0 0 250 100 z M 450 100 A 25 25 0 0 0 425 125 A 25 25 0 0 0 450 150 A 25 25 0 0 0 475 125 A 25 25 0 0 0 450 100 z M 50 300 A 25 25 0 0 0 25 325 A 25 25 0 0 0 50 350 A 25 25 0 0 0 75 325 A 25 25 0 0 0 50 300 z M 450 300 A 25 25 0 0 0 425 325 A 25 25 0 0 0 450 350 A 25 25 0 0 0 475 325 A 25 25 0 0 0 450 300 z M 50 500 A 25 25 0 0 0 25 525 A 25 25 0 0 0 50 550 A 25 25 0 0 0 75 525 A 25 25 0 0 0 50 500 z M 250 500 A 25 25 0 0 0 225 525 A 25 25 0 0 0 250 550 A 25 25 0 0 0 275 525 A 25 25 0 0 0 250 500 z M 450 500 A 25 25 0 0 0 425 525 A 25 25 0 0 0 450 550 A 25 25 0 0 0 475 525 A 25 25 0 0 0 450 500 z " />
</svg>
