<svg xmlns="http://www.w3.org/2000/svg" width="1000" height="1000">
    <style>
        @media (prefers-color-scheme:light) {
            path {
                fill: #000
            }
        }

        @media (prefers-color-scheme:dark) {
            path {
                fill: #c99410
            }
        }
    </style>
    <path
        d="M500 0a500 500 0 0 0-195.354 40.834l-.072-.23a500 500 0 0 0-2.79 1.394 500 500 0 0 0-14.284 5.803v1.33a500 500 0 0 0-28.521 14.244A250 250 0 0 0 500 250 250 250 0 0 0 741.408 62.273 500 500 0 0 0 712.5 48.187v-.748a500 500 0 0 0-9.027-3.65 500 500 0 0 0-7.97-3.883l-.18.588A500 500 0 0 0 500 0m0 250a250 250 0 0 0-250 250 250 250 0 0 0 250 250 250 250 0 0 0 250-250 250 250 0 0 0-250-250m0 500a250 250 0 0 0-241.021 186.625 500 500 0 0 0 28.521 14.244v1.33a500 500 0 0 0 14.283 5.803 500 500 0 0 0 2.791 1.394l.072-.23A500 500 0 0 0 500 1000a500 500 0 0 0 195.57-40.922l.075.238a500 500 0 0 0 2.85-1.425 500 500 0 0 0 14.005-5.692v-1.32a500 500 0 0 0 29.076-14.557A250 250 0 0 0 500 750m0-700a450 450 0 0 1 178.326 37.783A200 200 0 0 1 500 200 200 200 0 0 1 321.799 88.187 450 450 0 0 1 500 50m0 250a200 200 0 0 1 200 200 200 200 0 0 1-42.293 122.352L377.648 342.293A200 200 0 0 1 500 300m-157.707 77.648 280.059 280.059A200 200 0 0 1 500 700a200 200 0 0 1-200-200 200 200 0 0 1 42.293-122.352M500 800a200 200 0 0 1 178.393 111.725A450 450 0 0 1 500 950a450 450 0 0 1-178.201-38.188A200 200 0 0 1 500 800" />
</svg>