<svg xmlns="http://www.w3.org/2000/svg" width="1000" height="1000">
    <style>
        @media (prefers-color-scheme:light) {
            path {
                fill: #000
            }
        }

        @media (prefers-color-scheme:dark) {
            path {
                fill: #c99410
            }
        }
    </style>
    <path
        d="m500 0-35.355 14.645-268.198 111.091-50 20.711-20.71 50L14.644 464.645 0 500l14.645 35.355 131.802 318.198 318.198 131.802L500 1000l35.355-14.645 268.198-111.091 50-20.711 20.71-50 111.092-268.198L1000 500l-14.645-35.355L950 450l-35.355 14.645L900 500l-96.447 232.842-536.395-536.395L500 100l35.355-14.645L550 50l-14.645-35.355zM196.447 267.158l536.395 536.395L500 900 217.158 782.842 100 500z" />
</svg>