<svg width="500" height="900" version="1.1" id="svg8" sodipodi:docname="uni0049.svg"
    inkscape:version="1.4.2 (ebf0e940, 2025-05-08)" xmlns:inkscape="http://www.inkscape.org/namespaces/inkscape"
    xmlns:sodipodi="http://sodipodi.sourceforge.net/DTD/sodipodi-0.dtd" xmlns="http://www.w3.org/2000/svg"
    xmlns:svg="http://www.w3.org/2000/svg">
    <defs id="defs8" />
    <path
        d="M -250 0 A 50 50 0 0 0 -300 50 A 50 50 0 0 0 -250 100 A 50 50 0 0 0 -200 50 A 50 50 0 0 0 -250 0 z M -391.42188 58.578125 A 50 50 0 0 0 -441.42188 108.57812 A 50 50 0 0 0 -391.42188 158.57812 A 50 50 0 0 0 -341.42188 108.57812 A 50 50 0 0 0 -391.42188 58.578125 z M -108.57812 58.578125 A 50 50 0 0 0 -158.57812 108.57812 A 50 50 0 0 0 -108.57812 158.57812 A 50 50 0 0 0 -58.578125 108.57812 A 50 50 0 0 0 -108.57812 58.578125 z " />
</svg>