<svg width="500" height="900" xmlns="http://www.w3.org/2000/svg">
    <path
        d="M 250 225 C 236.19288 225 225 236.19288 225 250 L 225 389.64453 L 126.25586 290.90039 C 116.26669 280.91095 100.38569 281.4147 90.900391 290.90039 C 81.137196 300.66351 81.137196 316.49274 90.900391 326.25586 L 214.64453 450 L 90.900391 573.74414 C 81.137196 583.50726 81.137196 599.33649 90.900391 609.09961 C 100.66351 618.8628 116.49274 618.8628 126.25586 609.09961 L 225 510.35547 L 225 650 C 225 663.80712 236.19288 675 250 675 C 263.80712 675 275 663.80712 275 650 L 275 510.35547 L 373.74414 609.09961 C 383.50726 618.8628 399.33649 618.8628 409.09961 609.09961 C 418.8628 599.33649 418.8628 583.50726 409.09961 573.74414 L 285.35547 450 L 409.09961 326.25586 C 418.8628 316.49274 418.8628 300.66351 409.09961 290.90039 C 399.11044 280.91095 383.22943 281.4147 373.74414 290.90039 L 275 389.64453 L 275 250 C 275 236.19288 263.80712 225 250 225 z " />
</svg>