<svg xmlns="http://www.w3.org/2000/svg" width="500" height="900">
    <path
        d="M150 125a25 25 0 0 0-25 25 25 25 0 0 0 25 25 25 25 0 0 0 7.389-1.17 25 25 0 0 0 2.238-1.021 25 25 0 0 0 4.465-2.276 25 25 0 0 0 2.215-1.92 25 25 0 0 0 2.588-2.242 25 25 0 0 0 1.33-1.676 25 25 0 0 0 3.55-6.966 25 25 0 0 0 .002-.008A25 25 0 0 0 175 150a25 25 0 0 0-.977-6.783 25 25 0 0 0-.173-.559 25 25 0 0 0-2.688-5.887 25 25 0 0 0-.271-.449 25 25 0 0 0-4.473-5.16 25 25 0 0 0-.047-.055 25 25 0 0 0-.092-.054 25 25 0 0 0-7.511-4.46 25 25 0 0 0-.098-.029A25 25 0 0 0 150 125zm70.15 29.297a25 25 0 0 0-3.35.3 25 25 0 0 0-13.767 7.014 25 25 0 0 0 0 35.356 25 25 0 0 0 35.356 0 25 25 0 0 0 0-35.356 25 25 0 0 0-18.239-7.314zM250 225a25 25 0 0 0-25 25v400a25 25 0 0 0 1.17 7.389 25 25 0 0 0 1.021 2.238 25 25 0 0 0 2.276 4.465 25 25 0 0 0 1.92 2.215 25 25 0 0 0 2.242 2.588 25 25 0 0 0 .85.503 25 25 0 0 0 4.845 2.875 25 25 0 0 0 2.432 1.239A25 25 0 0 0 250 675a25 25 0 0 0 7.383-1.168 25 25 0 0 0 2.265-1.035 25 25 0 0 0 4.444-2.264 25 25 0 0 0 2.222-1.928 25 25 0 0 0 2.579-2.234 25 25 0 0 0 .502-.846 25 25 0 0 0 2.88-4.855 25 25 0 0 0 1.237-2.426A25 25 0 0 0 275 650V250a25 25 0 0 0-25-25zm-29.852 470.719a25 25 0 0 0-3.35.3 25 25 0 0 0-13.765 7.014 25 25 0 0 0 0 35.356 25 25 0 0 0 35.356 0 25 25 0 0 0 0-35.356 25 25 0 0 0-18.24-7.314zM150 725a25 25 0 0 0-7.389 1.17 25 25 0 0 0-2.238 1.021 25 25 0 0 0-4.465 2.276 25 25 0 0 0-2.215 1.92 25 25 0 0 0-2.588 2.242 25 25 0 0 0-.503.85 25 25 0 0 0-2.875 4.845 25 25 0 0 0-1.239 2.432A25 25 0 0 0 125 750a25 25 0 0 0 1.168 7.383 25 25 0 0 0 1.035 2.265 25 25 0 0 0 2.264 4.444 25 25 0 0 0 1.928 2.222 25 25 0 0 0 2.234 2.579 25 25 0 0 0 .846.502 25 25 0 0 0 4.855 2.88 25 25 0 0 0 2.426 1.237A25 25 0 0 0 150 775a25 25 0 0 0 25-25 25 25 0 0 0-25-25z" />
</svg>