<svg width="500" height="900" xmlns="http://www.w3.org/2000/svg">
    <path
        d="M -250 700 A 50 50 0 0 0 -300 750 A 50 50 0 0 0 -250 800 A 50 50 0 0 0 -200 750 A 50 50 0 0 0 -250 700 z M -250 800 A 50 50 0 0 0 -300 850 A 50 50 0 0 0 -250 900 A 50 50 0 0 0 -200 850 A 50 50 0 0 0 -250 800 z M -391.42188 741.42188 A 50 50 0 0 0 -441.42188 791.42188 A 50 50 0 0 0 -391.42188 841.42188 A 50 50 0 0 0 -341.42188 791.42188 A 50 50 0 0 0 -391.42188 741.42188 z M -108.57812 741.42188 A 50 50 0 0 0 -158.57812 791.42188 A 50 50 0 0 0 -108.57812 841.42188 A 50 50 0 0 0 -58.578125 791.42188 A 50 50 0 0 0 -108.57812 741.42188 z " />
</svg>