<svg xmlns="http://www.w3.org/2000/svg" width="500" height="900">
    <path
        d="M50 400a50 50 0 0 0-50 50 50 50 0 0 0 50 50 50 50 0 0 0 50-50 50 50 0 0 0-50-50zm400 0a50 50 0 0 0-48.746 38.873A50 50 0 0 0 400 450a50 50 0 0 0 50 50 50 50 0 0 0 50-50 50 50 0 0 0-50-50zM110.447 541.457a50 50 0 0 0-7.467.28 50 50 0 0 0-29.757 14.33 50 50 0 0 0-14.518 38.921 50 50 0 0 0 14.518 31.79 50 50 0 0 0 70.71 0 50 50 0 0 0 0-70.712 50 50 0 0 0-33.486-14.609zm282.844 0a50 50 0 0 0-7.467.28 50 50 0 0 0-29.758 14.33 50 50 0 0 0 0 70.71 50 50 0 0 0 38.922 14.518 50 50 0 0 0 31.79-14.518 50 50 0 0 0 0-70.71 50 50 0 0 0-33.487-14.61zM250 600a50 50 0 0 0-50 50 50 50 0 0 0 50 50 50 50 0 0 0 50-50 50 50 0 0 0-50-50z" />
</svg>