<svg width="500" height="900" xmlns="http://www.w3.org/2000/svg">
    <path
        d="M385.824 258.895a50 50 0 0 0-29.758 14.33 50 50 0 0 0 0 70.709 50 50 0 0 0 70.71 0h.001a50 50 0 0 0 0-70.71 50 50 0 0 0-40.953-14.33zm-29.758 85.039A150 150 0 0 0 250 300a150 150 0 0 0-150 150 150 150 0 0 0 150 150 150 150 0 0 0 150-150 150 150 0 0 0-43.934-106.066zm93.936 56.064a50 50 0 0 0-50 50.004 50 50 0 0 0 50 50 50 50 0 0 0 37.785-17.258 50 50 0 0 0 12.215-32.746 50 50 0 0 0-50-50zm-64.178 141.738a50 50 0 0 0-29.758 14.33 50 50 0 0 0 0 70.71 50 50 0 0 0 70.71 0l.001.001a50 50 0 0 0 0-70.71 50 50 0 0 0-40.953-14.33z" />
</svg>