<svg width="500" height="900" xmlns="http://www.w3.org/2000/svg">
    <path
        d="M350 125a25 25 0 0 0-25 25 25 25 0 0 0 25 25 25 25 0 0 0 7.389-1.17 25 25 0 0 0 2.238-1.021 25 25 0 0 0 4.465-2.276 25 25 0 0 0 2.215-1.92 25 25 0 0 0 2.588-2.242 25 25 0 0 0 1.33-1.676 25 25 0 0 0 3.55-6.966 25 25 0 0 0 .002-.008A25 25 0 0 0 375 150a25 25 0 0 0-.977-6.783 25 25 0 0 0-.173-.559 25 25 0 0 0-2.688-5.887 25 25 0 0 0-.271-.449 25 25 0 0 0-4.473-5.16 25 25 0 0 0-.047-.055 25 25 0 0 0-.092-.054 25 25 0 0 0-7.511-4.46 25 25 0 0 0-.098-.029A25 25 0 0 0 350 125zm-71.271 29.295a25 25 0 0 0-3.35.3 25 25 0 0 0-13.768 7.016 25 25 0 0 0 0 35.356 25 25 0 0 0 35.356 0 25 25 0 0 0 0-35.356 25 25 0 0 0-18.238-7.316zM250 225a25 25 0 0 0-7.383 1.168 25 25 0 0 0-2.265 1.035 25 25 0 0 0-4.444 2.264 25 25 0 0 0-2.222 1.928 25 25 0 0 0-2.579 2.234 25 25 0 0 0-.502.846 25 25 0 0 0-2.88 4.855 25 25 0 0 0-1.237 2.426A25 25 0 0 0 225 250v100a25 25 0 0 0 1.17 7.389 25 25 0 0 0 1.021 2.238 25 25 0 0 0 2.276 4.465 25 25 0 0 0 1.92 2.215 25 25 0 0 0 2.242 2.588 25 25 0 0 0 .85.503 25 25 0 0 0 4.845 2.875 25 25 0 0 0 2.432 1.239A25 25 0 0 0 250 375a25 25 0 0 0 7.383-1.168 25 25 0 0 0 2.265-1.035 25 25 0 0 0 4.444-2.264 25 25 0 0 0 2.222-1.928 25 25 0 0 0 2.579-2.234 25 25 0 0 0 .502-.846 25 25 0 0 0 2.88-4.855 25 25 0 0 0 1.237-2.426A25 25 0 0 0 275 350V250a25 25 0 0 0-.18-2.965 25 25 0 0 0-.021-.15 25 25 0 0 0-.508-2.77 25 25 0 0 0-.064-.25 25 25 0 0 0-.817-2.617 25 25 0 0 0-.1-.256 25 25 0 0 0-1.113-2.474 25 25 0 0 0-.142-.272 25 25 0 0 0-1.399-2.31 25 25 0 0 0-.164-.243 25 25 0 0 0-1.68-2.144 25 25 0 0 0-.177-.205 25 25 0 0 0-1.953-1.953 25 25 0 0 0-.166-.153 25 25 0 0 0-.145-.133 25 25 0 0 0-.103-.06 25 25 0 0 0-7.5-4.451 25 25 0 0 0-.098-.03A25 25 0 0 0 250 225zm-29.852 170.719a25 25 0 0 0-3.35.3 25 25 0 0 0-13.765 7.014 25 25 0 0 0 0 35.356 25 25 0 0 0 35.356 0 25 25 0 0 0 0-35.356 25 25 0 0 0-18.24-7.314zM150 425a25 25 0 0 0-7.389 1.17 25 25 0 0 0-1.162.531 25 25 0 0 0-2.644 1.29 25 25 0 0 0-2.897 1.476 25 25 0 0 0-2.215 1.92 25 25 0 0 0-.097.084 25 25 0 0 0-1.674 1.45 25 25 0 0 0-.817.708 25 25 0 0 0-.503.85 25 25 0 0 0-2.22 3.738 25 25 0 0 0-1.646 3.053 25 25 0 0 0-.248.486A25 25 0 0 0 125 450a25 25 0 0 0 1.168 7.383 25 25 0 0 0 .531 1.164 25 25 0 0 0 1.293 2.65 25 25 0 0 0 1.475 2.895 25 25 0 0 0 1.928 2.222 25 25 0 0 0 .074.084 25 25 0 0 0 1.457 1.682 25 25 0 0 0 .703.813 25 25 0 0 0 .846.502 25 25 0 0 0 3.72 2.207 25 25 0 0 0 3.075 1.662 25 25 0 0 0 .486.248A25 25 0 0 0 150 475a25 25 0 0 0 7.389-1.17 25 25 0 0 0 1.162-.531 25 25 0 0 0 2.644-1.29 25 25 0 0 0 2.897-1.476 25 25 0 0 0 2.215-1.92 25 25 0 0 0 .097-.084 25 25 0 0 0 1.674-1.45 25 25 0 0 0 .817-.708 25 25 0 0 0 1.33-1.676 25 25 0 0 0 1.78-3.496 25 25 0 0 0 1.259-2.467 25 25 0 0 0 .511-1.003 25 25 0 0 0 .002-.008A25 25 0 0 0 175 450a25 25 0 0 0-15.951-23.238 25 25 0 0 0-.281-.168 25 25 0 0 0-.098-.03 25 25 0 0 0-.285-.05A25 25 0 0 0 150 425zm70.15 29.297a25 25 0 0 0-3.35.3 25 25 0 0 0-13.767 7.014 25 25 0 0 0 0 35.356 25 25 0 0 0 35.356 0 25 25 0 0 0 0-35.356 25 25 0 0 0-18.239-7.314zM250 525a25 25 0 0 0-25 25v100a25 25 0 0 0 25 25 25 25 0 0 0 25-25V550a25 25 0 0 0-25-25zm28.727 170.719a25 25 0 0 0-3.35.3 25 25 0 0 0-13.766 7.014 25 25 0 0 0 0 35.356 25 25 0 0 0 35.356 0 25 25 0 0 0 0-35.356 25 25 0 0 0-18.24-7.314zM350 725a25 25 0 0 0-7.389 1.17 25 25 0 0 0-2.238 1.021 25 25 0 0 0-4.465 2.276 25 25 0 0 0-2.215 1.92 25 25 0 0 0-2.588 2.242 25 25 0 0 0-.503.85 25 25 0 0 0-2.875 4.845 25 25 0 0 0-1.239 2.432A25 25 0 0 0 325 750a25 25 0 0 0 1.168 7.383 25 25 0 0 0 1.035 2.265 25 25 0 0 0 2.264 4.444 25 25 0 0 0 1.928 2.222 25 25 0 0 0 2.234 2.579 25 25 0 0 0 .846.502 25 25 0 0 0 4.855 2.88 25 25 0 0 0 2.426 1.237A25 25 0 0 0 350 775a25 25 0 0 0 25-25 25 25 0 0 0-25-25z" />
</svg>