<?xml version="1.0" encoding="UTF-8" standalone="no"?>
<svg width="500" height="900" version="1.1" id="svg8" sodipodi:docname="uni0030.svg" inkscape:version="1.4.2 (ebf0e940, 2025-05-08)" xmlns:inkscape="http://www.inkscape.org/namespaces/inkscape" xmlns:sodipodi="http://sodipodi.sourceforge.net/DTD/sodipodi-0.dtd" xmlns="http://www.w3.org/2000/svg" xmlns:svg="http://www.w3.org/2000/svg">
    <defs id="defs8" />
    <sodipodi:namedview id="namedview8" pagecolor="#ffffff" bordercolor="#000000" borderopacity="0.25" inkscape:showpageshadow="2" inkscape:pageopacity="0.0" inkscape:pagecheckerboard="0" inkscape:deskcolor="#d1d1d1" inkscape:zoom="0.56" inkscape:cx="250" inkscape:cy="450" inkscape:window-width="1080" inkscape:window-height="723" inkscape:window-x="0" inkscape:window-y="25" inkscape:window-maximized="0" inkscape:current-layer="svg8" />
    <path id="circle1" d="M 338.38835 361.61165 A 25 25 0 0 0 303.03301 361.61165 A 25 25 0 0 0 303.03301 396.96699 A 25 25 0 0 0 338.38835 396.96699 A 25 25 0 0 0 338.38835 361.61165 z M 267.67767 332.32196 A 25 25 0 0 0 250 324.99954 A 25 25 0 0 0 224.99991 349.99963 A 25 25 0 0 0 250 374.99972 A 25 25 0 0 0 275.00009 349.99963 A 25 25 0 0 0 267.67767 332.32196 z M 367.67804 432.32233 A 25 25 0 0 0 350.00037 424.99991 A 25 25 0 0 0 325.00028 450 A 25 25 0 0 0 350.00037 475.00009 A 25 25 0 0 0 375.00046 450 A 25 25 0 0 0 367.67804 432.32233 z M 196.96699 361.61165 A 25 25 0 0 0 161.61165 361.61165 A 25 25 0 0 0 161.61165 396.96699 A 25 25 0 0 0 196.96699 396.96699 A 25 25 0 0 0 196.96699 361.61165 z M 338.38835 503.03301 A 25 25 0 0 0 303.03301 503.03301 A 25 25 0 0 0 303.03301 538.38835 A 25 25 0 0 0 338.38835 538.38835 A 25 25 0 0 0 338.38835 503.03301 z M 167.6773 432.32233 A 25 25 0 0 0 149.99963 424.99991 A 25 25 0 0 0 124.99954 450 A 25 25 0 0 0 149.99963 475.00009 A 25 25 0 0 0 174.99972 450 A 25 25 0 0 0 167.6773 432.32233 z M 267.67767 532.3227 A 25 25 0 0 0 250 525.00028 A 25 25 0 0 0 224.99991 550.00037 A 25 25 0 0 0 250 575.00046 A 25 25 0 0 0 275.00009 550.00037 A 25 25 0 0 0 267.67767 532.3227 z M 196.96699 503.03301 A 25 25 0 0 0 161.61165 503.03301 A 25 25 0 0 0 161.61165 538.38835 A 25 25 0 0 0 196.96699 538.38835 A 25 25 0 0 0 196.96699 503.03301 z " transform="rotate(-45,250,450)" />
</svg>
