<svg xmlns="http://www.w3.org/2000/svg" width="500" height="900">
    <path
        d="M250 125a25 25 0 0 0-25 25 25 25 0 0 0 25 25 25 25 0 0 0 25-25 25 25 0 0 0-7.723-18.07 25 25 0 0 0-2.58-2.157A25 25 0 0 0 250 125zm-72.494 29.354a25 25 0 0 0-.953.244 25 25 0 0 0-5.469 1.396 25 25 0 0 0-2.59.84 25 25 0 0 0-6.883 4.777 25 25 0 0 0 0 35.356 25 25 0 0 0 35.356 0 25 25 0 0 0 1.969-2.225 25 25 0 0 0 .091-.119 25 25 0 0 0 1.6-2.318 25 25 0 0 0 .13-.223 25 25 0 0 0 1.274-2.428 25 25 0 0 0 .11-.252 25 25 0 0 0 .963-2.537 25 25 0 0 0 .091-.293 25 25 0 0 0 .645-2.62 25 25 0 0 0 .056-.29 25 25 0 0 0 .329-2.703 25 25 0 0 0 .02-.27 25 25 0 0 0 0-2.763 25 25 0 0 0-.01-.225 25 25 0 0 0-.008-.197 25 25 0 0 0-.032-.115 25 25 0 0 0-2.156-8.45 25 25 0 0 0-.047-.091 25 25 0 0 0-5.025-7.237 25 25 0 0 0-6.047-4.394 25 25 0 0 0-2.332-.87 25 25 0 0 0-4.744-1.54 25 25 0 0 0-2.934-.21 25 25 0 0 0-3.404-.243zm141.422 0a25 25 0 0 0-15.895 7.257 25 25 0 0 0 0 35.356 25 25 0 0 0 6.053 4.398 25 25 0 0 0 2.303.86 25 25 0 0 0 4.767 1.548 25 25 0 0 0 2.924.21 25 25 0 0 0 3.416.244 25 25 0 0 0 2.125-.245 25 25 0 0 0 7.436-2.416 25 25 0 0 0 .007-.003 25 25 0 0 0 6.325-4.596 25 25 0 0 0 4.105-5.487 25 25 0 0 0 .274-.517 25 25 0 0 0 2.261-6.065 25 25 0 0 0 .125-.507 25 25 0 0 0 .487-6.813 25 25 0 0 0 .005-.072 25 25 0 0 0-.027-.104 25 25 0 0 0-2.158-8.464 25 25 0 0 0-.049-.09 25 25 0 0 0-5.023-7.237 25 25 0 0 0-19.461-7.257zM150 225a25 25 0 0 0-25 25v400a25 25 0 0 0 25 25 25 25 0 0 0 25-25V250a25 25 0 0 0-7.727-18.07 25 25 0 0 0-2.58-2.157A25 25 0 0 0 150 225zm200 0a25 25 0 0 0-25 25 25 25 0 0 0 25 25 25 25 0 0 0 25-25 25 25 0 0 0-7.725-18.068 25 25 0 0 0-2.58-2.157A25 25 0 0 0 350 225zm0 400a25 25 0 0 0-18.068 7.725l-.002.002a25 25 0 0 0-2.157 2.58A25 25 0 0 0 325 650a25 25 0 0 0 25 25 25 25 0 0 0 25-25 25 25 0 0 0-25-25zm-172.074 70.756a25 25 0 0 0-.225.01 25 25 0 0 0-.197.007 25 25 0 0 0-.115.032 25 25 0 0 0-8.45 2.156 25 25 0 0 0-.091.047 25 25 0 0 0-7.237 5.025 25 25 0 0 0-4.394 6.047 25 25 0 0 0-.87 2.332 25 25 0 0 0-1.54 4.744 25 25 0 0 0-.21 2.934 25 25 0 0 0-.243 3.404 25 25 0 0 0 .244.953 25 25 0 0 0 1.396 5.469 25 25 0 0 0 .84 2.59 25 25 0 0 0 4.777 6.883 25 25 0 0 0 35.356 0 25 25 0 0 0 0-35.356 25 25 0 0 0-2.225-1.969 25 25 0 0 0-.119-.091 25 25 0 0 0-2.318-1.6 25 25 0 0 0-.223-.13 25 25 0 0 0-2.428-1.274 25 25 0 0 0-.252-.11 25 25 0 0 0-2.537-.963 25 25 0 0 0-.293-.091 25 25 0 0 0-2.62-.645 25 25 0 0 0-.29-.056 25 25 0 0 0-2.703-.329 25 25 0 0 0-.27-.02 25 25 0 0 0-2.763 0zm141.002.017a25 25 0 0 0-15.895 7.26 25 25 0 0 0-4.398 6.053 25 25 0 0 0-.86 2.303 25 25 0 0 0-1.548 4.767 25 25 0 0 0-.21 2.924 25 25 0 0 0-.244 3.416 25 25 0 0 0 .247.955 25 25 0 0 0 1.392 5.46 25 25 0 0 0 .844 2.595 25 25 0 0 0 4.777 6.883 25 25 0 0 0 6.047 4.394 25 25 0 0 0 2.332.87 25 25 0 0 0 4.744 1.54 25 25 0 0 0 2.934.21 25 25 0 0 0 3.404.243 25 25 0 0 0 .953-.244 25 25 0 0 0 5.469-1.396 25 25 0 0 0 2.59-.84 25 25 0 0 0 6.883-4.777 25 25 0 0 0 0-35.356 25 25 0 0 0-19.461-7.26zM250 725a25 25 0 0 0-18.07 7.727 25 25 0 0 0-2.157 2.58A25 25 0 0 0 225 750a25 25 0 0 0 25 25 25 25 0 0 0 25-25 25 25 0 0 0-25-25z" />
</svg>