<svg xmlns="http://www.w3.org/2000/svg" width="500" height="900">
    <path
        d="M102.98 258.895a50 50 0 0 0-29.755 14.33l-.002-.002a50 50 0 0 0 0 70.71 50 50 0 0 0 70.71 0 50 50 0 0 0 0-70.708 50 50 0 0 0-40.953-14.33zM250 300a150 150 0 0 0-150 150 150 150 0 0 0 150 150 150 150 0 0 0 150-150 150 150 0 0 0-150-150zM49.998 399.998a50 50 0 0 0-37.785 17.258A50 50 0 0 0-.002 450.002a50 50 0 0 0 50 50 50 50 0 0 0 50-50.004 50 50 0 0 0-50-50zm52.982 141.738a50 50 0 0 0-29.755 14.33h-.002a50 50 0 0 0 0 70.71 50 50 0 0 0 70.71 0 50 50 0 0 0 0-70.71 50 50 0 0 0-40.953-14.33z" />
</svg>