<?xml version="1.0" encoding="UTF-8" standalone="no"?>
<svg width="500" height="900" version="1.1" id="svg8" sodipodi:docname="uni0052.svg" inkscape:version="1.4.2 (ebf0e940, 2025-05-08)" xmlns:inkscape="http://www.inkscape.org/namespaces/inkscape" xmlns:sodipodi="http://sodipodi.sourceforge.net/DTD/sodipodi-0.dtd" xmlns="http://www.w3.org/2000/svg" xmlns:svg="http://www.w3.org/2000/svg">
    <defs id="defs8" />
    <sodipodi:namedview id="namedview8" pagecolor="#ffffff" bordercolor="#000000" borderopacity="0.25" inkscape:showpageshadow="2" inkscape:pageopacity="0.0" inkscape:pagecheckerboard="0" inkscape:deskcolor="#d1d1d1" inkscape:zoom="0.47555556" inkscape:cx="250.23364" inkscape:cy="450" inkscape:window-width="1080" inkscape:window-height="647" inkscape:window-x="0" inkscape:window-y="25" inkscape:window-maximized="0" inkscape:current-layer="svg8" />
    <path id="circle1" d="M 426.7767 273.2233 A 50 50 45 0 0 356.06602 273.2233 A 50 50 45 0 0 356.06602 343.93398 A 50 50 45 0 0 426.7767 343.93398 A 50 50 45 0 0 426.7767 273.2233 z M 285.35534 214.64393 A 50 50 45 0 0 250 199.99908 A 50 50 45 0 0 199.99982 249.99927 A 50 50 45 0 0 250 299.99945 A 50 50 45 0 0 300.00018 249.99927 A 50 50 45 0 0 285.35534 214.64393 z M 485.35607 414.64466 A 50 50 45 0 0 450.00073 399.99982 A 50 50 45 0 0 400.00055 450 A 50 50 45 0 0 450.00073 500.00018 A 50 50 45 0 0 500.00092 450 A 50 50 45 0 0 485.35607 414.64466 z M 143.93398 273.2233 A 50 50 45 0 0 73.223305 273.2233 A 50 50 45 0 0 73.223305 343.93398 A 50 50 45 0 0 143.93398 343.93398 A 50 50 45 0 0 143.93398 273.2233 z M 426.7767 556.06602 A 50 50 45 0 0 356.06602 556.06602 A 50 50 45 0 0 356.06602 626.7767 A 50 50 45 0 0 426.7767 626.7767 A 50 50 45 0 0 426.7767 556.06602 z M 85.354605 414.64466 A 50 50 9.2174744 0 0 49.999266 399.99982 A 50 50 9.2174744 0 0 -0.00091705154 450 A 50 50 9.2174744 0 0 49.999266 500.00018 A 50 50 9.2174744 0 0 99.99945 450 A 50 50 9.2174744 0 0 85.354605 414.64466 z M 285.35534 614.64539 A 50 50 9.2174744 0 0 250 600.00055 A 50 50 9.2174744 0 0 199.99982 650.00073 A 50 50 9.2174744 0 0 250 700.00092 A 50 50 9.2174744 0 0 300.00018 650.00073 A 50 50 9.2174744 0 0 285.35534 614.64539 z M 143.93398 556.06602 A 50 50 45 0 0 73.223305 556.06602 A 50 50 45 0 0 73.223305 626.7767 A 50 50 45 0 0 143.93398 626.7767 A 50 50 45 0 0 143.93398 556.06602 z " transform="rotate(315 250 450)" />
</svg>
