<svg width="500" height="900" xmlns="http://www.w3.org/2000/svg">
    <path
        d="m 450.00195,400 a 50,50 0 0 0 -11.12695,1.25391 50,50 0 0 0 -20.04883,9.65429 50,50 0 0 0 -7.91601,7.91797 50,50 0 0 0 -8.69727,17.3086 50,50 0 0 0 -0.95898,2.73828 50,50 0 0 0 0,0.002 A 50,50 0 0 0 401.12695,440 50,50 0 0 0 400,450 a 50,50 0 0 0 1.25391,11.125 50,50 0 0 0 9.65625,20.04883 50,50 0 0 0 7.91601,7.91601 50,50 0 0 0 0,0.002 A 50,50 0 0 0 449.99805,500 l 0.004,0.002 a 50,50 0 0 0 49.99805,-50 50,50 0 0 0 0,-0.002 h 0.002 A 50,50 0 0 0 495.04883,428.30664 50,50 0 0 0 489.0918,418.82617 50,50 0 0 0 461.12695,401.25391 50,50 0 0 0 450.00195,400 Z" />
</svg>