<svg width="500" height="900" xmlns="http://www.w3.org/2000/svg">
    <path
        d="M 250 200 A 50 50 0 0 0 200 250 A 50 50 0 0 0 250 300 A 50 50 0 0 0 300 250 A 50 50 0 0 0 250 200 z M 392.22266 258.58398 A 50 50 0 0 0 385.82422 258.89258 A 50 50 0 0 0 356.06641 273.22266 A 50 50 0 0 0 356.06641 343.93359 A 50 50 0 0 0 426.77734 343.93359 A 50 50 0 0 0 441.29492 305.01172 A 50 50 0 0 0 426.77734 273.22266 A 50 50 0 0 0 392.22266 258.58398 z M 250 325 A 25 25 0 0 0 225 350 A 25 25 0 0 0 250 375 A 25 25 0 0 0 257.38867 373.83008 A 25 25 0 0 0 259.62695 372.80859 A 25 25 0 0 0 264.0918 370.5332 A 25 25 0 0 0 266.30664 368.61328 A 25 25 0 0 0 268.89453 366.37109 A 25 25 0 0 0 270.22461 364.69531 A 25 25 0 0 0 273.77539 357.72852 A 25 25 0 0 0 273.77734 357.7207 A 25 25 0 0 0 275 350 A 25 25 0 0 0 274.02344 343.2168 A 25 25 0 0 0 273.84961 342.6582 A 25 25 0 0 0 271.16211 336.77148 A 25 25 0 0 0 270.89062 336.32227 A 25 25 0 0 0 266.41797 331.16211 A 25 25 0 0 0 266.37109 331.10742 A 25 25 0 0 0 266.2793 331.05273 A 25 25 0 0 0 258.76758 326.59375 A 25 25 0 0 0 258.66992 326.56445 A 25 25 0 0 0 250 325 z M 178.72852 354.29492 A 25 25 0 0 0 175.37891 354.5957 A 25 25 0 0 0 161.61133 361.61133 A 25 25 0 0 0 161.61133 396.9668 A 25 25 0 0 0 196.9668 396.9668 A 25 25 0 0 0 196.9668 361.61133 A 25 25 0 0 0 178.72852 354.29492 z M 320.15039 354.29688 A 25 25 0 0 0 316.80078 354.59766 A 25 25 0 0 0 303.0332 361.61133 A 25 25 0 0 0 298.43555 367.93945 A 25 25 0 0 0 303.0332 396.9668 A 25 25 0 0 0 316.80078 403.98242 A 25 25 0 0 0 324.62109 403.98242 A 25 25 0 0 0 332.06055 401.56445 A 25 25 0 0 0 338.38867 396.9668 A 25 25 0 0 0 338.38867 361.61133 A 25 25 0 0 0 320.15039 354.29688 z M 250 400 A 50 50 0 0 0 244.40234 400.31445 A 50 50 0 0 0 241.91016 400.88281 A 50 50 0 0 0 233.48633 402.80664 A 50 50 0 0 0 233.48438 402.80664 A 50 50 0 0 0 223.40039 407.66406 A 50 50 0 0 0 223.39844 407.66406 A 50 50 0 0 0 214.64648 414.64453 A 50 50 0 0 0 214.64453 414.64453 A 50 50 0 0 0 214.64453 414.64648 A 50 50 0 0 0 207.66406 423.39844 A 50 50 0 0 0 207.66406 423.40039 A 50 50 0 0 0 202.80664 433.48438 A 50 50 0 0 0 202.80664 433.48633 A 50 50 0 0 0 200.88281 441.91016 A 50 50 0 0 0 200.31445 444.40039 A 50 50 0 0 0 200.31445 444.40234 A 50 50 0 0 0 200.31445 455.59766 A 50 50 0 0 0 202.80664 466.51367 A 50 50 0 0 0 205.32422 471.74219 A 50 50 0 0 0 207.66406 476.59961 A 50 50 0 0 0 207.66406 476.60156 A 50 50 0 0 0 214.64453 485.35352 A 50 50 0 0 0 214.64648 485.35547 A 50 50 0 0 0 217.68359 488.1543 A 50 50 0 0 0 217.68555 488.1543 A 50 50 0 0 0 220.22266 490.12891 A 50 50 0 0 0 220.94531 490.69141 A 50 50 0 0 0 220.94727 490.69141 A 50 50 0 0 0 222.56641 491.75 A 50 50 0 0 0 223.46094 492.33594 A 50 50 0 0 0 224.4043 492.95312 A 50 50 0 0 0 224.40625 492.95312 A 50 50 0 0 0 228.03906 494.91992 A 50 50 0 0 0 228.04102 494.91992 A 50 50 0 0 0 229.19336 495.42578 A 50 50 0 0 0 238.92969 498.73047 A 50 50 0 0 0 239.73828 498.93555 A 50 50 0 0 0 239.74023 498.93555 A 50 50 0 0 0 240.51172 499.06445 A 50 50 0 0 0 247.93359 499.95703 A 50 50 0 0 0 247.93555 499.95703 A 50 50 0 0 0 252.06445 499.95703 A 50 50 0 0 0 252.06641 499.95703 A 50 50 0 0 0 259.58008 499.04883 A 50 50 0 0 0 260.26172 498.93555 A 50 50 0 0 0 261.07031 498.73047 A 50 50 0 0 0 270.80664 495.42578 A 50 50 0 0 0 271.95898 494.91992 A 50 50 0 0 0 271.96094 494.91992 A 50 50 0 0 0 275.59375 492.95312 A 50 50 0 0 0 275.5957 492.95312 A 50 50 0 0 0 279.05273 490.69336 A 50 50 0 0 0 279.05469 490.69141 A 50 50 0 0 0 279.77734 490.12891 A 50 50 0 0 0 282.31445 488.1543 A 50 50 0 0 0 282.31641 488.1543 A 50 50 0 0 0 285.35352 485.35547 A 50 50 0 0 0 285.35547 485.35547 A 50 50 0 0 0 285.35547 485.35352 A 50 50 0 0 0 292.33594 476.60156 A 50 50 0 0 0 292.33594 476.59961 A 50 50 0 0 0 297.19336 466.51562 A 50 50 0 0 0 297.19336 466.51367 A 50 50 0 0 0 299.22266 457.62695 A 50 50 0 0 0 299.68555 455.59961 A 50 50 0 0 0 299.68555 455.59766 A 50 50 0 0 0 300 450 A 50 50 0 0 0 299.68555 444.40039 A 50 50 0 0 0 299.22266 442.37305 A 50 50 0 0 0 297.19336 433.48633 A 50 50 0 0 0 285.35547 414.64453 A 50 50 0 0 0 276.60156 407.66406 A 50 50 0 0 0 276.59961 407.66406 A 50 50 0 0 0 266.51562 402.80664 A 50 50 0 0 0 258.08984 400.88281 A 50 50 0 0 0 255.59961 400.31445 A 50 50 0 0 0 250 400 z M 450 400 A 50 50 0 0 0 400 450 A 50 50 0 0 0 450 500 A 50 50 0 0 0 500 450 A 50 50 0 0 0 450 400 z M 150 425 A 25 25 0 0 0 142.61719 426.16797 A 25 25 0 0 0 140.35156 427.20312 A 25 25 0 0 0 135.9082 429.4668 A 25 25 0 0 0 133.68555 431.39453 A 25 25 0 0 0 131.10742 433.62891 A 25 25 0 0 0 130.60547 434.47461 A 25 25 0 0 0 127.72461 439.33008 A 25 25 0 0 0 126.48828 441.75586 A 25 25 0 0 0 125 450 A 25 25 0 0 0 150 475 A 25 25 0 0 0 175 450 A 25 25 0 0 0 174.82031 447.03516 A 25 25 0 0 0 174.79883 446.88477 A 25 25 0 0 0 174.29102 444.11523 A 25 25 0 0 0 174.22656 443.86523 A 25 25 0 0 0 173.41016 441.24805 A 25 25 0 0 0 173.31055 440.99219 A 25 25 0 0 0 172.19727 438.51758 A 25 25 0 0 0 172.05469 438.24609 A 25 25 0 0 0 170.65625 435.93555 A 25 25 0 0 0 170.49219 435.69336 A 25 25 0 0 0 168.8125 433.54883 A 25 25 0 0 0 168.63477 433.34375 A 25 25 0 0 0 166.68164 431.39062 A 25 25 0 0 0 166.51562 431.23828 A 25 25 0 0 0 166.37109 431.10547 A 25 25 0 0 0 166.26758 431.04492 A 25 25 0 0 0 158.76758 426.59375 A 25 25 0 0 0 158.66992 426.56445 A 25 25 0 0 0 150 425 z M 350 425 A 25 25 0 0 0 325 450 A 25 25 0 0 0 326.16992 457.38867 A 25 25 0 0 0 327.19141 459.62695 A 25 25 0 0 0 329.4668 464.0918 A 25 25 0 0 0 331.38672 466.30664 A 25 25 0 0 0 333.62891 468.89453 A 25 25 0 0 0 334.47852 469.39844 A 25 25 0 0 0 339.32422 472.27344 A 25 25 0 0 0 341.75586 473.51172 A 25 25 0 0 0 350 475 A 25 25 0 0 0 357.38281 473.83203 A 25 25 0 0 0 359.64844 472.79688 A 25 25 0 0 0 364.0918 470.5332 A 25 25 0 0 0 366.31445 468.60547 A 25 25 0 0 0 368.89258 466.37109 A 25 25 0 0 0 369.39453 465.52539 A 25 25 0 0 0 372.27539 460.66992 A 25 25 0 0 0 373.51172 458.24414 A 25 25 0 0 0 375 450 A 25 25 0 0 0 350 425 z M 178.72656 495.71875 A 25 25 0 0 0 175.37695 496.01953 A 25 25 0 0 0 161.61133 503.0332 A 25 25 0 0 0 161.61133 538.38867 A 25 25 0 0 0 196.9668 538.38867 A 25 25 0 0 0 196.9668 503.0332 A 25 25 0 0 0 178.72656 495.71875 z M 320.14844 495.71875 A 25 25 0 0 0 316.79883 496.01953 A 25 25 0 0 0 309.35938 498.43555 A 25 25 0 0 0 303.0332 503.0332 A 25 25 0 0 0 298.43555 509.36133 A 25 25 0 0 0 296.01758 516.80078 A 25 25 0 0 0 296.01758 524.62109 A 25 25 0 0 0 303.0332 538.38867 A 25 25 0 0 0 338.38867 538.38867 A 25 25 0 0 0 338.38867 503.0332 A 25 25 0 0 0 320.14844 495.71875 z M 250 525 A 25 25 0 0 0 242.61133 526.16992 A 25 25 0 0 0 240.37305 527.19141 A 25 25 0 0 0 235.9082 529.4668 A 25 25 0 0 0 233.69336 531.38672 A 25 25 0 0 0 231.10547 533.62891 A 25 25 0 0 0 230.60156 534.47852 A 25 25 0 0 0 227.72656 539.32422 A 25 25 0 0 0 226.48828 541.75586 A 25 25 0 0 0 225 550 A 25 25 0 0 0 226.16797 557.38281 A 25 25 0 0 0 227.20312 559.64844 A 25 25 0 0 0 229.4668 564.0918 A 25 25 0 0 0 231.39453 566.31445 A 25 25 0 0 0 233.62891 568.89258 A 25 25 0 0 0 234.47461 569.39453 A 25 25 0 0 0 239.33008 572.27539 A 25 25 0 0 0 241.75586 573.51172 A 25 25 0 0 0 250 575 A 25 25 0 0 0 275 550 A 25 25 0 0 0 250 525 z " />
</svg>