<svg width="500" height="900" xmlns="http://www.w3.org/2000/svg">
    <path
        d="M 373.74414,290.90039 90.900391,573.74414 c -9.76319,9.76312 -9.76319,25.59235 0,35.35547 9.763119,9.76319 25.592349,9.76319 35.355469,0 L 409.09961,326.25586 c 9.76319,-9.76312 9.76319,-25.59235 0,-35.35547 -9.46114,-9.46152 -25.36444,-9.99129 -35.35547,0 z" />
    <path
        d="m 90.900391,290.90039 c -9.763195,9.76312 -9.763195,25.59235 0,35.35547 L 373.74414,609.09961 c 9.76312,9.76319 25.59235,9.76319 35.35547,0 9.76319,-9.76312 9.76319,-25.59235 0,-35.35547 L 126.25586,290.90039 c -9.98917,-9.98944 -25.87017,-9.48569 -35.355469,0 z" />
    <path
        d="M 250 325 A 25 25 0 0 0 225 350 A 25 25 0 0 0 250 375 A 25 25 0 0 0 275 350 A 25 25 0 0 0 250 325 z M 179.28906 354.28906 A 25 25 0 0 0 154.28906 379.28906 A 25 25 0 0 0 179.28906 404.28906 A 25 25 0 0 0 204.28906 379.28906 A 25 25 0 0 0 179.28906 354.28906 z M 320.71094 354.28906 A 25 25 0 0 0 295.71094 379.28906 A 25 25 0 0 0 320.71094 404.28906 A 25 25 0 0 0 345.71094 379.28906 A 25 25 0 0 0 320.71094 354.28906 z M 179.28906 495.71094 A 25 25 0 0 0 154.28906 520.71094 A 25 25 0 0 0 179.28906 545.71094 A 25 25 0 0 0 204.28906 520.71094 A 25 25 0 0 0 179.28906 495.71094 z M 320.71094 495.71094 A 25 25 0 0 0 295.71094 520.71094 A 25 25 0 0 0 320.71094 545.71094 A 25 25 0 0 0 345.71094 520.71094 A 25 25 0 0 0 320.71094 495.71094 z M 250 525 A 25 25 0 0 0 225 550 A 25 25 0 0 0 250 575 A 25 25 0 0 0 275 550 A 25 25 0 0 0 250 525 z " />
</svg>