<svg xmlns="http://www.w3.org/2000/svg" width="500" height="900">
    <path
        d="M250 200a50 50 0 0 0-50 50 50 50 0 0 0 50 50 50 50 0 0 0 50-50 50 50 0 0 0-50-50zm143.291 58.613a50 50 0 0 0-7.467.28 50 50 0 0 0-29.758 14.33 50 50 0 0 0 0 70.71 50 50 0 0 0 70.711 0 50 50 0 0 0 14.518-38.921 50 50 0 0 0-14.518-31.79 50 50 0 0 0-33.486-14.609zm-288.28.092a50 50 0 0 0-31.788 14.518 50 50 0 0 0 0 70.71 50 50 0 0 0 70.71 0 50 50 0 0 0 0-70.71 50 50 0 0 0-38.921-14.518zM50 400a50 50 0 0 0-50 50 50 50 0 0 0 50 50 50 50 0 0 0 50-50 50 50 0 0 0-50-50zm400 0a50 50 0 0 0-48.746 38.873A50 50 0 0 0 400 450a50 50 0 0 0 50 50 50 50 0 0 0 50-50 50 50 0 0 0-50-50z" />
</svg>