<svg xmlns="http://www.w3.org/2000/svg" width="500" height="900">
    <path
        d="M250 300a150 150 0 0 0-150 150 150 150 0 0 0 150 150 150 150 0 0 0 150-150 150 150 0 0 0-150-150zm0 300a50 50 0 0 0-50 50 50 50 0 0 0 50 50 50 50 0 0 0 50-50 50 50 0 0 0-50-50zM100 450a50 50 0 0 0-50-50 50 50 0 0 0-50 50 50 50 0 0 0 50 50 50 50 0 0 0 50-50zm2.98 91.736a50 50 0 0 0-29.757 14.33 50 50 0 0 0-14.518 38.922 50 50 0 0 0 14.518 31.79 50 50 0 0 0 70.71 0 50 50 0 0 0 0-70.712 50 50 0 0 0-40.953-14.33z" />
</svg>