<?xml version="1.0" encoding="UTF-8" standalone="no"?>
<svg width="500" height="900" version="1.1" id="svg8" sodipodi:docname="uni0046.svg" inkscape:version="1.4.2 (ebf0e940, 2025-05-08)" xmlns:inkscape="http://www.inkscape.org/namespaces/inkscape" xmlns:sodipodi="http://sodipodi.sourceforge.net/DTD/sodipodi-0.dtd" xmlns="http://www.w3.org/2000/svg" xmlns:svg="http://www.w3.org/2000/svg">
    <sodipodi:namedview id="namedview1" pagecolor="#ffffff" bordercolor="#000000" borderopacity="0.25" inkscape:showpageshadow="2" inkscape:pageopacity="0.0" inkscape:pagecheckerboard="0" inkscape:deskcolor="#d1d1d1" inkscape:zoom="0.34666667" inkscape:cx="242.30769" inkscape:cy="450" inkscape:window-width="1080" inkscape:window-height="751" inkscape:window-x="0" inkscape:window-y="25" inkscape:window-maximized="0" inkscape:current-layer="svg8" />
    <defs id="defs8" />
    <path id="path7" d="M 108.57812 541.42188 A 50 50 0 0 0 58.578125 591.42188 A 50 50 0 0 0 108.57812 641.42188 A 50 50 0 0 0 158.57812 591.42188 A 50 50 0 0 0 108.57812 541.42188 z M 391.42188 541.42188 A 50 50 0 0 0 341.42188 591.42188 A 50 50 0 0 0 391.42188 641.42188 A 50 50 0 0 0 441.42188 591.42188 A 50 50 0 0 0 391.42188 541.42188 z M 250 600 A 50 50 0 0 0 200 650 A 50 50 0 0 0 250 700 A 50 50 0 0 0 300 650 A 50 50 0 0 0 250 600 z " />
</svg>
