<svg width="500" height="900" xmlns="http://www.w3.org/2000/svg">
    <path
        d="M500.002 450a50 50 0 0 0-4.953-21.693 50 50 0 0 0-5.957-9.48 50 50 0 0 0-27.965-17.573A50 50 0 0 0 450.002 400a50 50 0 0 0-11.127 1.254 50 50 0 0 0-20.049 9.654 50 50 0 0 0-7.916 7.918 50 50 0 0 0-8.697 17.309 50 50 0 0 0-.96 2.738 50 50 0 0 0 0 .002 50 50 0 0 0-.126 1.125A50 50 0 0 0 400 450a50 50 0 0 0 1.254 11.125 50 50 0 0 0 9.656 20.049 50 50 0 0 0 7.916 7.916 50 50 0 0 0 0 .002A50 50 0 0 0 449.998 500l.004.002a50 50 0 0 0 49.998-50 50 50 0 0 0 0-.002h.002zM300 450a50 50 0 0 0-.314-5.6 50 50 0 0 0-.463-2.027 50 50 0 0 0-2.03-8.887 50 50 0 0 0-11.838-18.841 50 50 0 0 0-8.753-6.98 50 50 0 0 0-.002 0 50 50 0 0 0-10.084-4.858 50 50 0 0 0-8.426-1.924 50 50 0 0 0-2.49-.569 50 50 0 0 0-11.198 0 50 50 0 0 0-2.492.569 50 50 0 0 0-8.424 1.924 50 50 0 0 0-.002 0 50 50 0 0 0-10.084 4.857 50 50 0 0 0-.002 0 50 50 0 0 0-8.752 6.98 50 50 0 0 0-.001 0 50 50 0 0 0 0 .002 50 50 0 0 0-6.98 8.752 50 50 0 0 0 0 .002 50 50 0 0 0-4.858 10.084 50 50 0 0 0 0 .002 50 50 0 0 0-1.924 8.424 50 50 0 0 0-.569 2.49 50 50 0 0 0 0 .002 50 50 0 0 0 0 11.196 50 50 0 0 0 2.493 10.916 50 50 0 0 0 2.517 5.228 50 50 0 0 0 2.34 4.858 50 50 0 0 0 0 .002 50 50 0 0 0 6.98 8.752 50 50 0 0 0 .002.001 50 50 0 0 0 3.038 2.8 50 50 0 0 0 .002 0 50 50 0 0 0 2.537 1.974 50 50 0 0 0 .722.562 50 50 0 0 0 .002 0 50 50 0 0 0 1.62 1.059 50 50 0 0 0 .894.586 50 50 0 0 0 .943.617 50 50 0 0 0 .002 0 50 50 0 0 0 3.633 1.967 50 50 0 0 0 .002 0 50 50 0 0 0 1.152.506 50 50 0 0 0 9.737 3.304 50 50 0 0 0 .808.206 50 50 0 0 0 .002 0 50 50 0 0 0 .772.128 50 50 0 0 0 7.422.893 50 50 0 0 0 .002 0 50 50 0 0 0 4.128 0 50 50 0 0 0 .002 0 50 50 0 0 0 7.514-.908 50 50 0 0 0 .682-.113 50 50 0 0 0 .808-.206 50 50 0 0 0 9.737-3.304 50 50 0 0 0 1.152-.506 50 50 0 0 0 .002 0 50 50 0 0 0 3.633-1.967 50 50 0 0 0 .002 0 50 50 0 0 0 3.457-2.26 50 50 0 0 0 .002-.002 50 50 0 0 0 .722-.562 50 50 0 0 0 2.537-1.975 50 50 0 0 0 .002 0 50 50 0 0 0 3.038-2.799 50 50 0 0 0 .001 0 50 50 0 0 0 0-.001 50 50 0 0 0 6.98-8.752 50 50 0 0 0 0-.002 50 50 0 0 0 4.858-10.084 50 50 0 0 0 0-.002 50 50 0 0 0 2.03-8.887 50 50 0 0 0 .463-2.027 50 50 0 0 0 0-.002A50 50 0 0 0 300 450zm-200 0a50 50 0 0 0-18.826-39.092A50 50 0 0 0 50.002 400l-.004-.002a50 50 0 0 0-49.998 50A50 50 0 0 0 0 450h-.002a50 50 0 0 0 4.953 21.693 50 50 0 0 0 5.957 9.48A50 50 0 0 0 49.998 500a50 50 0 0 0 27.35-8.143 50 50 0 0 0 3.361-2.4 50 50 0 0 0 .002 0 50 50 0 0 0 1.445-1.225 50 50 0 0 0 1.707-1.447A50 50 0 0 0 100 450z" />
</svg>