<svg xmlns="http://www.w3.org/2000/svg" width="500" height="900">
    <path
        d="M250 200a50 50 0 0 0-50 50 50 50 0 0 0 50 50 50 50 0 0 0 50-50 50 50 0 0 0-50-50zm-144.988 58.705a50 50 0 0 0-31.79 14.518 50 50 0 0 0 0 70.71 50 50 0 0 0 70.712 0 50 50 0 0 0 0-70.71 50 50 0 0 0-38.922-14.518zm280.812.188a50 50 0 0 0-29.758 14.33 50 50 0 0 0 0 70.71 50 50 0 0 0 70.711 0 50 50 0 0 0 14.518-38.921 50 50 0 0 0-14.518-31.79 50 50 0 0 0-40.953-14.33zM50 400a50 50 0 0 0-50 50 50 50 0 0 0 50 50 50 50 0 0 0 50-50 50 50 0 0 0-50-50zm400 0a50 50 0 0 0-48.746 38.873A50 50 0 0 0 400 450a50 50 0 0 0 50 50 50 50 0 0 0 50-50 50 50 0 0 0-50-50zM102.98 541.736a50 50 0 0 0-29.757 14.33 50 50 0 0 0-14.518 38.922 50 50 0 0 0 14.518 31.79 50 50 0 0 0 70.71 0 50 50 0 0 0 0-70.712 50 50 0 0 0-40.953-14.33zm282.844 0a50 50 0 0 0-29.758 14.33 50 50 0 0 0 0 70.711 50 50 0 0 0 38.922 14.518 50 50 0 0 0 31.79-14.518 50 50 0 0 0 0-70.71 50 50 0 0 0-40.954-14.33zM250 600a50 50 0 0 0-50 50 50 50 0 0 0 50 50 50 50 0 0 0 50-50 50 50 0 0 0-50-50z" />
</svg>