<?xml version="1.0" encoding="UTF-8" standalone="no"?>
<svg width="500" height="900" version="1.1" id="svg1" sodipodi:docname="uni005f.svg" inkscape:version="1.4.2 (ebf0e940, 2025-05-08)" xmlns:inkscape="http://www.inkscape.org/namespaces/inkscape" xmlns:sodipodi="http://sodipodi.sourceforge.net/DTD/sodipodi-0.dtd" xmlns="http://www.w3.org/2000/svg" xmlns:svg="http://www.w3.org/2000/svg">
    <defs id="defs1" />
    <sodipodi:namedview id="namedview1" pagecolor="#ffffff" bordercolor="#000000" borderopacity="0.25" inkscape:showpageshadow="2" inkscape:pageopacity="0.0" inkscape:pagecheckerboard="0" inkscape:deskcolor="#d1d1d1" inkscape:zoom="0.2989372" inkscape:cx="244.19845" inkscape:cy="451.59987" inkscape:window-width="1080" inkscape:window-height="675" inkscape:window-x="0" inkscape:window-y="25" inkscape:window-maximized="0" inkscape:current-layer="svg1" />
    <path d="M 250,600 A 50,50 0 0 0 210.908,618.826 50,50 0 0 0 200,649.998 l -0.002,0.004 a 50,50 0 0 0 50,49.998 50,50 0 0 0 0.002,0 v 0.002 a 50,50 0 0 0 21.693,-4.953 50,50 0 0 0 9.48,-5.957 50,50 0 0 0 18.827,-39.09 50,50 0 0 0 -8.143,-27.35 50,50 0 0 0 -2.4,-3.361 50,50 0 0 0 0,-0.002 50,50 0 0 0 -1.225,-1.445 50,50 0 0 0 -1.447,-1.707 A 50,50 0 0 0 250,600 Z" id="path2" />
</svg>
