<svg width="500" height="900" xmlns="http://www.w3.org/2000/svg">
    <path
        d="M 49.998047 399.99805 A 50 50 0 0 0 0 449.99805 A 50 50 0 0 0 0 450 L -0.001953125 450 A 50 50 0 0 0 4.9511719 471.69336 A 50 50 0 0 0 10.908203 481.17383 A 50 50 0 0 0 49.998047 500 A 50 50 0 0 0 77.347656 491.85742 A 50 50 0 0 0 80.708984 489.45703 A 50 50 0 0 0 80.710938 489.45703 A 50 50 0 0 0 82.15625 488.23242 A 50 50 0 0 0 83.863281 486.78516 A 50 50 0 0 0 100 450 A 50 50 0 0 0 81.173828 410.9082 A 50 50 0 0 0 50.001953 400 L 49.998047 399.99805 z M 250.00195 400 A 50 50 0 0 0 244.40234 400.31445 A 50 50 0 0 0 241.91016 400.88281 A 50 50 0 0 0 233.48633 402.80664 A 50 50 0 0 0 233.48438 402.80664 A 50 50 0 0 0 223.40039 407.66406 A 50 50 0 0 0 223.39844 407.66406 A 50 50 0 0 0 214.64648 414.64453 A 50 50 0 0 0 214.64453 414.64453 A 50 50 0 0 0 214.64453 414.64648 A 50 50 0 0 0 207.66406 423.39844 A 50 50 0 0 0 207.66406 423.40039 A 50 50 0 0 0 202.80664 433.48438 A 50 50 0 0 0 202.80664 433.48633 A 50 50 0 0 0 200.88281 441.91016 A 50 50 0 0 0 200.31445 444.40039 A 50 50 0 0 0 200.31445 444.40234 A 50 50 0 0 0 200.31445 455.59766 A 50 50 0 0 0 202.80664 466.51367 A 50 50 0 0 0 205.32422 471.74219 A 50 50 0 0 0 207.66406 476.59961 A 50 50 0 0 0 207.66406 476.60156 A 50 50 0 0 0 214.64453 485.35352 A 50 50 0 0 0 214.64648 485.35547 A 50 50 0 0 0 217.68359 488.1543 A 50 50 0 0 0 217.68555 488.1543 A 50 50 0 0 0 220.22266 490.12891 A 50 50 0 0 0 220.94531 490.69141 A 50 50 0 0 0 220.94727 490.69141 A 50 50 0 0 0 222.56641 491.75 A 50 50 0 0 0 223.46094 492.33594 A 50 50 0 0 0 224.4043 492.95312 A 50 50 0 0 0 224.40625 492.95312 A 50 50 0 0 0 228.03906 494.91992 A 50 50 0 0 0 228.04102 494.91992 A 50 50 0 0 0 229.19336 495.42578 A 50 50 0 0 0 238.92969 498.73047 A 50 50 0 0 0 239.73828 498.93555 A 50 50 0 0 0 239.74023 498.93555 A 50 50 0 0 0 240.51172 499.06445 A 50 50 0 0 0 247.93359 499.95703 A 50 50 0 0 0 247.93555 499.95703 A 50 50 0 0 0 252.06445 499.95703 A 50 50 0 0 0 252.06641 499.95703 A 50 50 0 0 0 259.58008 499.04883 A 50 50 0 0 0 260.26172 498.93555 A 50 50 0 0 0 261.07031 498.73047 A 50 50 0 0 0 270.80664 495.42578 A 50 50 0 0 0 271.95898 494.91992 A 50 50 0 0 0 271.96094 494.91992 A 50 50 0 0 0 275.59375 492.95312 A 50 50 0 0 0 275.5957 492.95312 A 50 50 0 0 0 279.05273 490.69336 A 50 50 0 0 0 279.05469 490.69141 A 50 50 0 0 0 279.77734 490.12891 A 50 50 0 0 0 282.31445 488.1543 A 50 50 0 0 0 282.31641 488.1543 A 50 50 0 0 0 285.35352 485.35547 A 50 50 0 0 0 285.35547 485.35547 A 50 50 0 0 0 285.35547 485.35352 A 50 50 0 0 0 292.33594 476.60156 A 50 50 0 0 0 292.33594 476.59961 A 50 50 0 0 0 297.19336 466.51562 A 50 50 0 0 0 297.19336 466.51367 A 50 50 0 0 0 299.22266 457.62695 A 50 50 0 0 0 299.68555 455.59961 A 50 50 0 0 0 299.68555 455.59766 A 50 50 0 0 0 300 450 A 50 50 0 0 0 299.68555 444.40039 A 50 50 0 0 0 299.22266 442.37305 A 50 50 0 0 0 297.19336 433.48633 A 50 50 0 0 0 285.35547 414.64453 A 50 50 0 0 0 276.60156 407.66406 A 50 50 0 0 0 276.59961 407.66406 A 50 50 0 0 0 266.51562 402.80664 A 50 50 0 0 0 258.08984 400.88281 A 50 50 0 0 0 255.59961 400.31445 A 50 50 0 0 0 250.00195 400 z " />
</svg>