<svg width="500" height="900" xmlns="http://www.w3.org/2000/svg">
    <path d="M250 199.998a50 50 0 0 0-21.693 4.953 50 50 0 0 0-9.48 5.957 50 50 0 0 0-17.573 27.965A50 50 0 0 0 200 249.998a50 50 0 0 0 1.254 11.127 50 50 0 0 0 9.654 20.049 50 50 0 0 0 7.918 7.916 50 50 0 0 0 17.309 8.697 50 50 0 0 0 2.738.96 50 50 0 0 0 .002 0 50 50 0 0 0 1.125.126A50 50 0 0 0 250 300a50 50 0 0 0 11.125-1.254 50 50 0 0 0 20.049-9.656 50 50 0 0 0 7.916-7.916 50 50 0 0 0 .002 0A50 50 0 0 0 300 250.002l.002-.004a50 50 0 0 0-50-49.998 50 50 0 0 0-.002 0v-.002zM250 400a50 50 0 0 0-5.6.314 50 50 0 0 0-2.027.463 50 50 0 0 0-8.887 2.03 50 50 0 0 0-18.841 11.838 50 50 0 0 0-6.98 8.753 50 50 0 0 0 0 .002 50 50 0 0 0-4.858 10.084 50 50 0 0 0-1.924 8.426 50 50 0 0 0-.569 2.49 50 50 0 0 0 0 11.198 50 50 0 0 0 .569 2.492 50 50 0 0 0 1.924 8.424 50 50 0 0 0 0 .002 50 50 0 0 0 4.857 10.084 50 50 0 0 0 0 .002 50 50 0 0 0 6.98 8.752 50 50 0 0 0 0 .001 50 50 0 0 0 .002 0 50 50 0 0 0 8.752 6.98 50 50 0 0 0 .002 0 50 50 0 0 0 10.084 4.858 50 50 0 0 0 .002 0 50 50 0 0 0 8.424 1.924 50 50 0 0 0 2.49.569 50 50 0 0 0 .002 0 50 50 0 0 0 11.196 0 50 50 0 0 0 10.916-2.493 50 50 0 0 0 5.228-2.517 50 50 0 0 0 4.858-2.34 50 50 0 0 0 .002 0 50 50 0 0 0 8.752-6.98 50 50 0 0 0 .001-.002 50 50 0 0 0 2.8-3.038 50 50 0 0 0 0-.002 50 50 0 0 0 1.974-2.537 50 50 0 0 0 .562-.722 50 50 0 0 0 0-.002 50 50 0 0 0 1.059-1.62 50 50 0 0 0 .586-.894 50 50 0 0 0 .617-.943 50 50 0 0 0 0-.002 50 50 0 0 0 1.967-3.633 50 50 0 0 0 0-.002 50 50 0 0 0 .506-1.152 50 50 0 0 0 3.304-9.737 50 50 0 0 0 .206-.808 50 50 0 0 0 0-.002 50 50 0 0 0 .128-.772 50 50 0 0 0 .893-7.422 50 50 0 0 0 0-.002 50 50 0 0 0 0-4.128 50 50 0 0 0 0-.002 50 50 0 0 0-.908-7.514 50 50 0 0 0-.113-.682 50 50 0 0 0-.206-.808 50 50 0 0 0-3.304-9.737 50 50 0 0 0-.506-1.152 50 50 0 0 0 0-.002 50 50 0 0 0-1.967-3.633 50 50 0 0 0 0-.002 50 50 0 0 0-2.26-3.457 50 50 0 0 0-.002-.002 50 50 0 0 0-.562-.722 50 50 0 0 0-1.975-2.537 50 50 0 0 0 0-.002 50 50 0 0 0-2.799-3.038 50 50 0 0 0 0-.001 50 50 0 0 0-.001 0 50 50 0 0 0-8.752-6.98 50 50 0 0 0-.002 0 50 50 0 0 0-10.084-4.858 50 50 0 0 0-.002 0 50 50 0 0 0-8.887-2.03 50 50 0 0 0-2.027-.463 50 50 0 0 0-.002 0A50 50 0 0 0 250 400zm0 200a50 50 0 0 0-39.092 18.826A50 50 0 0 0 200 649.998l-.002.004a50 50 0 0 0 50 49.998 50 50 0 0 0 .002 0v.002a50 50 0 0 0 21.693-4.953 50 50 0 0 0 9.48-5.957A50 50 0 0 0 300 650.002a50 50 0 0 0-8.143-27.35 50 50 0 0 0-2.4-3.361 50 50 0 0 0 0-.002 50 50 0 0 0-1.225-1.445 50 50 0 0 0-1.447-1.707A50 50 0 0 0 250 600z"/>
</svg>