<?xml version="1.0" encoding="UTF-8" standalone="no"?>
<svg width="500" height="900" version="1.1" id="svg1" sodipodi:docname="uni00b4.svg" inkscape:version="1.4.2 (ebf0e940, 2025-05-08)" xmlns:inkscape="http://www.inkscape.org/namespaces/inkscape" xmlns:sodipodi="http://sodipodi.sourceforge.net/DTD/sodipodi-0.dtd" xmlns="http://www.w3.org/2000/svg" xmlns:svg="http://www.w3.org/2000/svg">
    <defs id="defs1" />
    <sodipodi:namedview id="namedview1" pagecolor="#ffffff" bordercolor="#000000" borderopacity="0.25" inkscape:showpageshadow="2" inkscape:pageopacity="0.0" inkscape:pagecheckerboard="0" inkscape:deskcolor="#d1d1d1" inkscape:zoom="0.59111111" inkscape:cx="250.37594" inkscape:cy="450" inkscape:window-width="1080" inkscape:window-height="751" inkscape:window-x="0" inkscape:window-y="25" inkscape:window-maximized="0" inkscape:current-layer="svg1" />
    <path d="m 450.00195,400 a 50,50 0 0 0 -11.12695,1.25391 50,50 0 0 0 -20.04883,9.65429 50,50 0 0 0 -7.91601,7.91797 50,50 0 0 0 -8.69727,17.3086 50,50 0 0 0 -0.95898,2.73828 50,50 0 0 0 0,0.002 A 50,50 0 0 0 401.12695,440 50,50 0 0 0 400,450 a 50,50 0 0 0 1.25391,11.125 50,50 0 0 0 9.65625,20.04883 50,50 0 0 0 7.91601,7.91601 50,50 0 0 0 0,0.002 A 50,50 0 0 0 449.99805,500 l 0.004,0.002 a 50,50 0 0 0 49.99805,-50 50,50 0 0 0 0,-0.002 h 0.002 A 50,50 0 0 0 495.04883,428.30664 50,50 0 0 0 489.0918,418.82617 50,50 0 0 0 461.12695,401.25391 50,50 0 0 0 450.00195,400 Z" id="path2" />
</svg>
