<svg width="500" height="900" xmlns="http://www.w3.org/2000/svg">
    <path d="M249.998 199.998a50 50 0 0 0-50 50 50 50 0 0 0 50.004 50 50 50 0 0 0 50-50 50 50 0 0 0-17.258-37.785 50 50 0 0 0-32.746-12.215zM102.98 258.893a50 50 0 0 0-29.755 14.33 50 50 0 0 0 0 70.71 50 50 0 0 0 70.709 0 50 50 0 0 0 0-70.708v-.002a50 50 0 0 0-40.954-14.33zm282.844 0a50 50 0 0 0-29.758 14.33 50 50 0 0 0 0 70.71 50 50 0 0 0 70.71 0 50 50 0 0 0 0-70.708l.001-.002a50 50 0 0 0-40.953-14.33zm-29.758 85.04A150 150 0 0 0 250 300a150 150 0 0 0-150 150 150 150 0 0 0 150 150 150 150 0 0 0 150-150 150 150 0 0 0-43.934-106.066z"/>
</svg>