<?xml version="1.0" encoding="UTF-8" standalone="no"?>
<svg width="500" height="900" version="1.1" id="svg2" sodipodi:docname="uni0041.svg" inkscape:version="1.4.2 (ebf0e940, 2025-05-08)" xmlns:inkscape="http://www.inkscape.org/namespaces/inkscape" xmlns:sodipodi="http://sodipodi.sourceforge.net/DTD/sodipodi-0.dtd" xmlns="http://www.w3.org/2000/svg" xmlns:svg="http://www.w3.org/2000/svg">
    <defs id="defs2" />
    <sodipodi:namedview id="namedview2" pagecolor="#ffffff" bordercolor="#000000" borderopacity="0.25" inkscape:showpageshadow="2" inkscape:pageopacity="0.0" inkscape:pagecheckerboard="0" inkscape:deskcolor="#d1d1d1" inkscape:zoom="0.2989372" inkscape:cx="244.19845" inkscape:cy="451.59987" inkscape:window-width="1080" inkscape:window-height="675" inkscape:window-x="0" inkscape:window-y="25" inkscape:window-maximized="0" inkscape:current-layer="svg2" />
    <path id="path1" d="M -250 0 A 50 50 0 0 0 -300 50 A 50 50 0 0 0 -250 100 A 50 50 0 0 0 -200 50 A 50 50 0 0 0 -250 0 z M -250 100 A 50 50 0 0 0 -300 150 A 50 50 0 0 0 -250 200 A 50 50 0 0 0 -200 150 A 50 50 0 0 0 -250 100 z M -391.42188 58.578125 A 50 50 0 0 0 -441.42188 108.57812 A 50 50 0 0 0 -391.42188 158.57812 A 50 50 0 0 0 -341.42188 108.57812 A 50 50 0 0 0 -391.42188 58.578125 z M -108.57812 58.578125 A 50 50 0 0 0 -158.57812 108.57812 A 50 50 0 0 0 -108.57812 158.57812 A 50 50 0 0 0 -58.578125 108.57812 A 50 50 0 0 0 -108.57812 58.578125 z " />
</svg>
