<svg width="500" height="900" xmlns="http://www.w3.org/2000/svg">
    <path
        d="M -250 0 A 50 50 0 0 0 -300 50 A 50 50 0 0 0 -250 100 A 50 50 0 0 0 -200 50 A 50 50 0 0 0 -250 0 z M -391.42188 58.578125 A 50 50 0 0 0 -441.42188 108.57812 A 50 50 0 0 0 -391.42188 158.57812 A 50 50 0 0 0 -341.42188 108.57812 A 50 50 0 0 0 -391.42188 58.578125 z M -108.57812 58.578125 A 50 50 0 0 0 -158.57812 108.57812 A 50 50 0 0 0 -108.57812 158.57812 A 50 50 0 0 0 -58.578125 108.57812 A 50 50 0 0 0 -108.57812 58.578125 z " />
</svg>