<svg width="500" height="900" xmlns="http://www.w3.org/2000/svg">
    <path
        d="M 391.42188 258.57812 A 50 50 0 0 0 341.42188 308.57812 A 50 50 0 0 0 391.42188 358.57812 A 50 50 0 0 0 441.42188 308.57812 A 50 50 0 0 0 391.42188 258.57812 z M 450 400 A 50 50 0 0 0 400 450 A 50 50 0 0 0 450 500 A 50 50 0 0 0 500 450 A 50 50 0 0 0 450 400 z M 391.42188 541.42188 A 50 50 0 0 0 341.42188 591.42188 A 50 50 0 0 0 391.42188 641.42188 A 50 50 0 0 0 441.42188 591.42188 A 50 50 0 0 0 391.42188 541.42188 z " />
</svg>