<svg width="500" height="900" xmlns="http://www.w3.org/2000/svg">
    <path d="M 49.998047 399.99805 A 50 50 0 0 0 0 449.99805 A 50 50 0 0 0 0 450 L -0.001953125 450 A 50 50 0 0 0 4.9511719 471.69336 A 50 50 0 0 0 10.908203 481.17383 A 50 50 0 0 0 49.998047 500 A 50 50 0 0 0 77.347656 491.85742 A 50 50 0 0 0 80.708984 489.45703 A 50 50 0 0 0 80.710938 489.45703 A 50 50 0 0 0 82.15625 488.23242 A 50 50 0 0 0 83.863281 486.78516 A 50 50 0 0 0 100 450 A 50 50 0 0 0 81.173828 410.9082 A 50 50 0 0 0 50.001953 400 L 49.998047 399.99805 z M 450.00195 400 A 50 50 0 0 0 438.875 401.25391 A 50 50 0 0 0 418.82617 410.9082 A 50 50 0 0 0 410.91016 418.82617 A 50 50 0 0 0 402.21289 436.13477 A 50 50 0 0 0 401.25391 438.87305 A 50 50 0 0 0 401.25391 438.875 A 50 50 0 0 0 401.12695 440 A 50 50 0 0 0 400 450 A 50 50 0 0 0 401.25391 461.125 A 50 50 0 0 0 410.91016 481.17383 A 50 50 0 0 0 418.82617 489.08984 A 50 50 0 0 0 418.82617 489.0918 A 50 50 0 0 0 449.99805 500 L 450.00195 500.00195 A 50 50 0 0 0 500 450.00195 A 50 50 0 0 0 500 450 L 500.00195 450 A 50 50 0 0 0 495.04883 428.30664 A 50 50 0 0 0 489.0918 418.82617 A 50 50 0 0 0 461.12695 401.25391 A 50 50 0 0 0 450.00195 400 z "/>
</svg>