<svg width="500" height="900" xmlns="http://www.w3.org/2000/svg">
    <path d="M 109.37891 258.58789 A 50 50 0 0 0 102.98047 258.89453 A 50 50 0 0 0 73.224609 273.22461 L 73.222656 273.22266 A 50 50 0 0 0 73.222656 343.93359 A 50 50 0 0 0 143.93359 343.93359 A 50 50 0 0 0 143.93359 273.22461 A 50 50 0 0 0 109.37891 258.58789 z M 250 325 A 25 25 0 0 0 225 350 A 25 25 0 0 0 250 375 A 25 25 0 0 0 257.38867 373.83008 A 25 25 0 0 0 259.62695 372.80859 A 25 25 0 0 0 264.0918 370.5332 A 25 25 0 0 0 266.30664 368.61328 A 25 25 0 0 0 268.89453 366.37109 A 25 25 0 0 0 270.22461 364.69531 A 25 25 0 0 0 273.77539 357.72852 A 25 25 0 0 0 273.77734 357.7207 A 25 25 0 0 0 275 350 A 25 25 0 0 0 274.74414 346.57422 A 25 25 0 0 0 274.02344 343.2168 A 25 25 0 0 0 273.84961 342.6582 A 25 25 0 0 0 271.16211 336.77148 A 25 25 0 0 0 270.89062 336.32227 A 25 25 0 0 0 266.41797 331.16211 A 25 25 0 0 0 266.37109 331.10742 A 25 25 0 0 0 266.2793 331.05273 A 25 25 0 0 0 258.76758 326.59375 A 25 25 0 0 0 258.66992 326.56445 A 25 25 0 0 0 250 325 z M 178.72852 354.29492 A 25 25 0 0 0 178.14844 354.34766 A 25 25 0 0 0 177.50586 354.35352 A 25 25 0 0 0 176.28906 354.51367 A 25 25 0 0 0 175.37891 354.5957 A 25 25 0 0 0 174.95898 354.68945 A 25 25 0 0 0 173.41211 355.03516 A 25 25 0 0 0 171.98242 355.39844 A 25 25 0 0 0 170.44531 355.95312 A 25 25 0 0 0 169.13086 356.46094 A 25 25 0 0 0 167.60938 357.23633 A 25 25 0 0 0 166.41211 357.87109 A 25 25 0 0 0 164.85742 358.92969 A 25 25 0 0 0 163.89844 359.5957 A 25 25 0 0 0 161.61133 361.61133 A 25 25 0 0 0 157.63867 366.78906 A 25 25 0 0 0 154.28906 379.28906 A 25 25 0 0 0 156.19141 388.85547 A 25 25 0 0 0 156.19336 388.85742 A 25 25 0 0 0 161.61133 396.9668 A 25 25 0 0 0 176.02539 404.07617 A 25 25 0 0 0 179.28906 404.28906 A 25 25 0 0 0 196.9668 396.9668 A 25 25 0 0 0 202.38672 388.85547 A 25 25 0 0 0 204.07617 376.02539 A 25 25 0 0 0 196.9668 361.61133 A 25 25 0 0 0 194.54688 359.49805 A 25 25 0 0 0 193.63281 358.86914 A 25 25 0 0 0 191.87891 357.71094 A 25 25 0 0 0 190.68555 357.0918 A 25 25 0 0 0 189.00586 356.2832 A 25 25 0 0 0 187.69141 355.79102 A 25 25 0 0 0 185.94531 355.22461 A 25 25 0 0 0 184.56445 354.89453 A 25 25 0 0 0 182.81055 354.57617 A 25 25 0 0 0 181.36523 354.41211 A 25 25 0 0 0 179.56641 354.33203 A 25 25 0 0 0 178.72852 354.29492 z M 320.15039 354.29688 A 25 25 0 0 0 316.80078 354.59766 A 25 25 0 0 0 303.0332 361.61133 A 25 25 0 0 0 301.05859 363.86328 A 25 25 0 0 0 300.52344 364.59961 A 25 25 0 0 0 300.52148 364.60156 A 25 25 0 0 0 299.3457 366.36133 A 25 25 0 0 0 298.83203 367.25391 A 25 25 0 0 0 298.82617 367.26367 A 25 25 0 0 0 298.43555 367.93945 A 25 25 0 0 0 298.08008 368.77539 A 25 25 0 0 0 297.35352 370.48828 A 25 25 0 0 0 297.35352 370.49023 A 25 25 0 0 0 296.86133 371.9375 A 25 25 0 0 0 296.37891 373.73633 A 25 25 0 0 0 296.08203 375.22656 A 25 25 0 0 0 295.85547 377.07812 A 25 25 0 0 0 295.85547 377.08398 A 25 25 0 0 0 295.75586 378.60742 A 25 25 0 0 0 295.71094 379.28906 A 25 25 0 0 0 295.78906 380.48633 A 25 25 0 0 0 295.88477 381.96875 A 25 25 0 0 0 296.18945 383.88281 A 25 25 0 0 0 296.19141 383.90039 A 25 25 0 0 0 296.47266 385.30859 A 25 25 0 0 0 296.5625 385.75977 A 25 25 0 0 0 297.04492 387.18359 A 25 25 0 0 0 297.50391 388.53125 A 25 25 0 0 0 297.61328 388.85547 A 25 25 0 0 0 298.36328 390.37695 A 25 25 0 0 0 298.96289 391.58984 A 25 25 0 0 0 299.06055 391.78906 A 25 25 0 0 0 300.16797 393.44727 A 25 25 0 0 0 300.81641 394.41602 A 25 25 0 0 0 303.0332 396.9668 A 25 25 0 0 0 305.44336 399.08008 A 25 25 0 0 0 305.49219 399.12305 A 25 25 0 0 0 306.29102 399.65625 A 25 25 0 0 0 306.33203 399.68359 A 25 25 0 0 0 308.11328 400.875 A 25 25 0 0 0 309.17188 401.41406 A 25 25 0 0 0 310.97656 402.30469 A 25 25 0 0 0 312.24219 402.75977 A 25 25 0 0 0 314 403.35547 A 25 25 0 0 0 314.24023 403.4375 A 25 25 0 0 0 315.37695 403.66406 A 25 25 0 0 0 316.80078 403.98242 A 25 25 0 0 0 317.12109 404.01172 A 25 25 0 0 0 318.90039 404.17188 A 25 25 0 0 0 320.42969 404.27148 A 25 25 0 0 0 322.2207 404.19141 A 25 25 0 0 0 323.73828 404.0918 A 25 25 0 0 0 325.5625 403.75977 A 25 25 0 0 0 326.99219 403.47461 A 25 25 0 0 0 326.99414 403.47461 A 25 25 0 0 0 327.18164 403.4375 A 25 25 0 0 0 328.79297 402.89062 A 25 25 0 0 0 330.14648 402.43164 A 25 25 0 0 0 330.27734 402.38672 A 25 25 0 0 0 331.87305 401.59961 A 25 25 0 0 0 333.13086 400.97852 A 25 25 0 0 0 333.21094 400.93945 A 25 25 0 0 0 334.93945 399.78516 A 25 25 0 0 0 335.89062 399.15039 A 25 25 0 0 0 338.38867 396.9668 A 25 25 0 0 0 338.38867 361.61133 A 25 25 0 0 0 320.15039 354.29688 z M 49.996094 399.99609 L 49.998047 399.99805 A 50 50 0 0 0 12.212891 417.25586 A 50 50 0 0 0 -0.00390625 450.00195 A 50 50 0 0 0 49.996094 500.00195 A 50 50 0 0 0 99.996094 449.99609 A 50 50 0 0 0 49.996094 399.99609 z M 249.99805 399.99805 L 249.99805 400 A 50 50 0 0 0 199.99805 450 A 50 50 0 0 0 249.99805 499.99805 A 50 50 0 0 0 299.99805 449.99805 A 50 50 0 0 0 249.99805 399.99805 z M 149.99805 425 A 25 25 0 0 0 131.36328 433.40625 A 25 25 0 0 0 131.10742 433.62891 A 25 25 0 0 0 131.0293 433.76172 A 25 25 0 0 0 125.19531 447.15234 A 25 25 0 0 0 125.04883 449.26367 A 25 25 0 0 0 124.99805 450 A 25 25 0 0 0 125.85156 456.4707 A 25 25 0 0 0 126.90234 459.56641 A 25 25 0 0 0 130.16602 465.21875 A 25 25 0 0 0 132.32227 467.67773 A 25 25 0 0 0 134.7793 469.83398 A 25 25 0 0 0 134.78125 469.83398 A 25 25 0 0 0 137.49805 471.65039 A 25 25 0 0 0 137.5 471.65039 A 25 25 0 0 0 140.43164 473.09766 A 25 25 0 0 0 150 475 A 25 25 0 0 0 167.67578 467.67773 A 25 25 0 0 0 171.65039 462.5 A 25 25 0 0 0 174.78516 453.26367 A 25 25 0 0 0 175 450 A 25 25 0 0 0 174.82031 447.03516 A 25 25 0 0 0 174.79883 446.88477 A 25 25 0 0 0 174.79297 446.85156 A 25 25 0 0 0 174.61523 445.87891 A 25 25 0 0 0 174.29102 444.11523 A 25 25 0 0 0 174.22656 443.86523 A 25 25 0 0 0 174.18945 443.74805 A 25 25 0 0 0 173.8418 442.63086 A 25 25 0 0 0 173.41016 441.24805 A 25 25 0 0 0 173.31055 440.99219 A 25 25 0 0 0 173.20703 440.76367 A 25 25 0 0 0 172.67578 439.58203 A 25 25 0 0 0 172.19727 438.51758 A 25 25 0 0 0 172.05469 438.24609 A 25 25 0 0 0 171.85742 437.91992 A 25 25 0 0 0 171.15234 436.75586 A 25 25 0 0 0 170.65625 435.93555 A 25 25 0 0 0 170.49219 435.69336 A 25 25 0 0 0 170.14844 435.25586 A 25 25 0 0 0 169.32422 434.20117 A 25 25 0 0 0 168.8125 433.54883 A 25 25 0 0 0 168.63477 433.34375 A 25 25 0 0 0 168.12109 432.83008 A 25 25 0 0 0 167.16602 431.875 A 25 25 0 0 0 166.68164 431.39062 A 25 25 0 0 0 166.51562 431.23828 A 25 25 0 0 0 166.37109 431.10547 A 25 25 0 0 0 166.26758 431.04492 A 25 25 0 0 0 165.90039 430.76562 A 25 25 0 0 0 164.41992 429.63281 A 25 25 0 0 0 163.33203 428.90625 A 25 25 0 0 0 161.875 428.04297 A 25 25 0 0 0 160.5332 427.37891 A 25 25 0 0 0 159.12305 426.75195 A 25 25 0 0 0 158.76758 426.59375 A 25 25 0 0 0 158.66992 426.56445 A 25 25 0 0 0 157.65625 426.25391 A 25 25 0 0 0 156.09961 425.7793 A 25 25 0 0 0 154.35938 425.43359 A 25 25 0 0 0 153.08789 425.20312 A 25 25 0 0 0 150 425 A 25 25 0 0 0 149.99805 425 z M 350 425 A 25 25 0 0 0 325 450 A 25 25 0 0 0 326.16992 457.38867 A 25 25 0 0 0 327.19141 459.62695 A 25 25 0 0 0 329.4668 464.0918 A 25 25 0 0 0 331.38672 466.30664 A 25 25 0 0 0 333.62891 468.89453 A 25 25 0 0 0 334.47852 469.39844 A 25 25 0 0 0 339.32422 472.27344 A 25 25 0 0 0 341.75586 473.51172 A 25 25 0 0 0 350 475 A 25 25 0 0 0 357.38281 473.83203 A 25 25 0 0 0 359.64844 472.79688 A 25 25 0 0 0 364.0918 470.5332 A 25 25 0 0 0 366.31445 468.60547 A 25 25 0 0 0 368.89258 466.37109 A 25 25 0 0 0 369.39453 465.52539 A 25 25 0 0 0 372.27539 460.66992 A 25 25 0 0 0 373.51172 458.24414 A 25 25 0 0 0 375 450 A 25 25 0 0 0 350 425 z M 178.72656 495.71875 A 25 25 0 0 0 178.19531 495.76562 A 25 25 0 0 0 177.50586 495.77344 A 25 25 0 0 0 176.19727 495.94531 A 25 25 0 0 0 175.37695 496.01953 A 25 25 0 0 0 175 496.10352 A 25 25 0 0 0 173.28711 496.48633 A 25 25 0 0 0 172.01758 496.80859 A 25 25 0 0 0 170.30859 497.42578 A 25 25 0 0 0 169.1543 497.87109 A 25 25 0 0 0 167.44141 498.74414 A 25 25 0 0 0 166.4375 499.27734 A 25 25 0 0 0 164.68164 500.4707 A 25 25 0 0 0 163.91016 501.00781 A 25 25 0 0 0 161.61133 503.0332 A 25 25 0 0 0 157.63867 508.21094 A 25 25 0 0 0 156.19336 511.14258 A 25 25 0 0 0 156.19141 511.14453 A 25 25 0 0 0 154.28906 520.71094 A 25 25 0 0 0 157.63867 533.21094 A 25 25 0 0 0 161.61133 538.38867 A 25 25 0 0 0 166.78906 542.36133 A 25 25 0 0 0 179.28906 545.71094 A 25 25 0 0 0 188.85547 543.80859 A 25 25 0 0 0 188.85742 543.80664 A 25 25 0 0 0 196.9668 538.38867 A 25 25 0 0 0 204.07617 523.97461 A 25 25 0 0 0 204.07617 523.97266 A 25 25 0 0 0 204.28906 520.71094 A 25 25 0 0 0 202.38672 511.14453 A 25 25 0 0 0 202.38672 511.14258 A 25 25 0 0 0 196.9668 503.0332 A 25 25 0 0 0 194.53711 500.91016 A 25 25 0 0 0 193.70703 500.33984 A 25 25 0 0 0 191.86523 499.12305 A 25 25 0 0 0 190.75781 498.54883 A 25 25 0 0 0 188.97461 497.68945 A 25 25 0 0 0 187.75977 497.23633 A 25 25 0 0 0 185.90625 496.63477 A 25 25 0 0 0 184.63867 496.33203 A 25 25 0 0 0 182.73242 495.98633 A 25 25 0 0 0 181.43164 495.83984 A 25 25 0 0 0 179.49414 495.75391 A 25 25 0 0 0 178.72656 495.71875 z M 320.14844 495.71875 A 25 25 0 0 0 316.79883 496.01953 A 25 25 0 0 0 313.96094 496.65234 A 25 25 0 0 0 313.08203 496.9375 A 25 25 0 0 0 311.19141 497.61914 A 25 25 0 0 0 310.24023 498.04297 A 25 25 0 0 0 309.35938 498.43555 A 25 25 0 0 0 308.52148 498.91992 A 25 25 0 0 0 307.62695 499.43555 A 25 25 0 0 0 305.94922 500.57617 A 25 25 0 0 0 305.2168 501.10938 A 25 25 0 0 0 305.21094 501.11328 A 25 25 0 0 0 303.0332 503.0332 A 25 25 0 0 0 300.87695 505.49219 A 25 25 0 0 0 300.84961 505.53125 A 25 25 0 0 0 300.21484 506.48242 A 25 25 0 0 0 299.02148 508.29102 A 25 25 0 0 0 299.01953 508.29297 A 25 25 0 0 0 298.40039 509.54883 A 25 25 0 0 0 297.56836 511.27539 A 25 25 0 0 0 297.10938 512.62891 A 25 25 0 0 0 296.52539 514.42773 A 25 25 0 0 0 296.52539 514.42969 A 25 25 0 0 0 296.24219 515.85156 A 25 25 0 0 0 295.92383 517.44727 A 25 25 0 0 0 295.9082 517.68555 A 25 25 0 0 0 295.81055 519.19922 A 25 25 0 0 0 295.71094 520.71094 A 25 25 0 0 0 295.72852 520.99219 A 25 25 0 0 0 295.82812 522.52148 A 25 25 0 0 0 295.98828 524.30078 A 25 25 0 0 0 296.01758 524.62109 A 25 25 0 0 0 296.33594 526.04492 A 25 25 0 0 0 296.64453 527.42188 A 25 25 0 0 0 296.64453 527.42578 A 25 25 0 0 0 297.24023 529.17969 A 25 25 0 0 0 297.69531 530.44531 A 25 25 0 0 0 298.58594 532.25 A 25 25 0 0 0 299.125 533.30859 A 25 25 0 0 0 300.34375 535.13086 A 25 25 0 0 0 300.91992 535.97852 A 25 25 0 0 0 303.0332 538.38867 A 25 25 0 0 0 338.38867 538.38867 A 25 25 0 0 0 338.38867 503.0332 A 25 25 0 0 0 320.14844 495.71875 z M 250 525 A 25 25 0 0 0 242.61133 526.16992 A 25 25 0 0 0 240.37305 527.19141 A 25 25 0 0 0 235.9082 529.4668 A 25 25 0 0 0 233.69336 531.38672 A 25 25 0 0 0 231.10547 533.62891 A 25 25 0 0 0 230.60156 534.47852 A 25 25 0 0 0 227.72656 539.32422 A 25 25 0 0 0 226.48828 541.75586 A 25 25 0 0 0 225 550 A 25 25 0 0 0 226.16797 557.38281 A 25 25 0 0 0 227.20312 559.64844 A 25 25 0 0 0 229.4668 564.0918 A 25 25 0 0 0 231.39453 566.31445 A 25 25 0 0 0 233.62891 568.89258 A 25 25 0 0 0 234.47461 569.39453 A 25 25 0 0 0 239.33008 572.27539 A 25 25 0 0 0 241.75586 573.51172 A 25 25 0 0 0 250 575 A 25 25 0 0 0 275 550 A 25 25 0 0 0 250 525 z M 109.37891 541.42773 A 50 50 0 0 0 102.98047 541.73633 A 50 50 0 0 0 73.224609 556.06641 L 73.222656 556.06641 A 50 50 0 0 0 73.222656 626.77539 A 50 50 0 0 0 143.93359 626.77539 A 50 50 0 0 0 143.93359 556.06641 A 50 50 0 0 0 109.37891 541.42773 z "/>
</svg>