<svg width="500" height="900" xmlns="http://www.w3.org/2000/svg">
   <path
      d="M 250 200 A 50 50 0 0 0 237.9043 201.5918 A 50 50 0 0 0 234.1875 202.89258 A 50 50 0 0 0 226.54102 206.06055 A 50 50 0 0 0 222.62695 208.51953 A 50 50 0 0 0 200 250 A 50 50 0 0 0 201.58984 262.08789 A 50 50 0 0 0 201.94141 263.08984 A 50 50 0 0 0 202.90039 265.83008 A 50 50 0 0 0 206.06055 273.45898 A 50 50 0 0 0 208.51953 277.37305 A 50 50 0 0 0 213.17383 283.43945 A 50 50 0 0 0 216.56445 286.82812 A 50 50 0 0 0 236.13477 297.78711 A 50 50 0 0 0 237.91016 298.4082 A 50 50 0 0 0 250 300 A 50 50 0 0 0 262.08789 298.41016 A 50 50 0 0 0 262.60352 298.23047 A 50 50 0 0 0 273.45117 293.94336 A 50 50 0 0 0 283.43359 286.83008 A 50 50 0 0 0 286.83008 283.43359 A 50 50 0 0 0 300 250 A 50 50 0 0 0 250 200 z M 250 300 A 150 150 0 0 0 100 450 A 150 150 0 0 0 250 600 A 150 150 0 0 0 400 450 A 150 150 0 0 0 356.06641 343.93359 A 150 150 0 0 0 250 300 z M 356.06641 343.93359 A 50 50 0 0 0 365.74414 351.35938 A 50 50 0 0 0 369.30469 353.07227 A 50 50 0 0 0 376.93164 356.23438 A 50 50 0 0 0 381.45898 357.26758 A 50 50 0 0 0 389.0332 358.26367 A 50 50 0 0 0 393.81055 358.26367 A 50 50 0 0 0 401.38477 357.26758 A 50 50 0 0 0 405.91211 356.23438 A 50 50 0 0 0 413.53906 353.07227 A 50 50 0 0 0 417.09961 351.35938 A 50 50 0 0 0 426.77734 343.93359 A 50 50 0 0 0 428.22656 342.41797 A 50 50 0 0 0 428.91016 341.64648 A 50 50 0 0 0 429.66797 340.7793 A 50 50 0 0 0 430.24609 340.06836 A 50 50 0 0 0 431.03516 339.07812 A 50 50 0 0 0 431.60742 338.3125 A 50 50 0 0 0 432.28125 337.38281 A 50 50 0 0 0 432.86523 336.5332 A 50 50 0 0 0 433.49805 335.57422 A 50 50 0 0 0 434.03906 334.71094 A 50 50 0 0 0 434.61328 333.75 A 50 50 0 0 0 435.125 332.85547 A 50 50 0 0 0 435.68359 331.8125 A 50 50 0 0 0 436.11914 330.97461 A 50 50 0 0 0 436.73633 329.6875 A 50 50 0 0 0 437.02734 329.06836 A 50 50 0 0 0 437.67188 327.55078 A 50 50 0 0 0 437.88477 327.04492 A 50 50 0 0 0 438.61523 325.0918 A 50 50 0 0 0 438.62109 325.07422 A 50 50 0 0 0 438.88867 324.25586 A 50 50 0 0 0 439.29102 323.00977 A 50 50 0 0 0 439.52734 322.16992 A 50 50 0 0 0 439.87109 320.91016 A 50 50 0 0 0 440.07227 320.07422 A 50 50 0 0 0 440.35742 318.80664 A 50 50 0 0 0 440.53516 317.90234 A 50 50 0 0 0 440.74805 316.71289 A 50 50 0 0 0 440.89844 315.73828 A 50 50 0 0 0 441.05273 314.5625 A 50 50 0 0 0 441.16016 313.61133 A 50 50 0 0 0 441.26562 312.39062 A 50 50 0 0 0 441.33398 311.4668 A 50 50 0 0 0 441.38672 310.18555 A 50 50 0 0 0 441.41406 309.30859 A 50 50 0 0 0 441.40625 307.84375 A 50 50 0 0 0 441.40039 307.16992 A 50 50 0 0 0 441.29492 305.01172 A 50 50 0 0 0 426.77734 273.22266 A 50 50 0 0 0 415.99219 265.26367 A 50 50 0 0 0 412.43555 263.55078 A 50 50 0 0 0 403.07422 260.27344 A 50 50 0 0 0 399.21289 259.39258 A 50 50 0 0 0 385.82422 258.89258 A 50 50 0 0 0 356.06641 273.22266 A 50 50 0 0 0 348.64062 282.90039 A 50 50 0 0 0 346.93164 286.44727 A 50 50 0 0 0 343.76367 294.09766 A 50 50 0 0 0 342.73438 298.60547 A 50 50 0 0 0 341.73633 306.18945 A 50 50 0 0 0 341.73633 310.9668 A 50 50 0 0 0 342.73438 318.55078 A 50 50 0 0 0 343.76367 323.05859 A 50 50 0 0 0 346.93164 330.70898 A 50 50 0 0 0 348.64062 334.25586 A 50 50 0 0 0 356.06641 343.93359 z M 400 450 A 50 50 0 0 0 401.58984 462.08789 A 50 50 0 0 0 401.76953 462.60352 A 50 50 0 0 0 406.05664 473.45117 A 50 50 0 0 0 413.16992 483.43359 A 50 50 0 0 0 416.56641 486.83008 A 50 50 0 0 0 450 500 A 50 50 0 0 0 463.76562 497.82227 A 50 50 0 0 0 491.47656 477.37695 A 50 50 0 0 0 497.81836 463.7793 A 50 50 0 0 0 499.99805 450.01172 A 50 50 0 0 0 500 450 A 50 50 0 0 0 499.99805 449.96875 A 50 50 0 0 0 498.79102 439.25391 A 50 50 0 0 0 450.00586 400 A 50 50 0 0 0 450 400 A 50 50 0 0 0 437.91211 401.58984 A 50 50 0 0 0 436.91016 401.94141 A 50 50 0 0 0 434.16992 402.90039 A 50 50 0 0 0 426.54102 406.06055 A 50 50 0 0 0 422.62695 408.51953 A 50 50 0 0 0 416.56055 413.17383 A 50 50 0 0 0 413.17188 416.56445 A 50 50 0 0 0 402.21289 436.13477 A 50 50 0 0 0 401.5918 437.91016 A 50 50 0 0 0 400 450 z M 222.69727 291.5332 A 50 50 0 0 0 226.44141 293.89844 A 50 50 0 0 1 222.69727 291.5332 z M 244.40234 400.31445 A 50 50 0 0 1 255.59961 400.31445 A 50 50 0 0 1 258.08984 400.88281 A 50 50 0 0 1 266.51562 402.80664 A 50 50 0 0 1 276.59961 407.66406 A 50 50 0 0 0 276.60156 407.66406 A 50 50 0 0 1 285.35547 414.64453 A 50 50 0 0 1 297.19336 433.48633 A 50 50 0 0 1 299.22266 442.37305 A 50 50 0 0 1 299.68555 444.40039 A 50 50 0 0 1 300 450 A 50 50 0 0 1 299.68555 455.59766 A 50 50 0 0 0 299.68555 455.59961 A 50 50 0 0 1 299.22266 457.62695 A 50 50 0 0 1 297.19336 466.51367 A 50 50 0 0 0 297.19336 466.51562 A 50 50 0 0 1 292.33594 476.59961 A 50 50 0 0 0 292.33594 476.60156 A 50 50 0 0 1 285.35547 485.35352 A 50 50 0 0 0 285.35547 485.35547 A 50 50 0 0 0 285.35352 485.35547 A 50 50 0 0 1 282.31641 488.1543 A 50 50 0 0 0 282.31445 488.1543 A 50 50 0 0 1 279.77734 490.12891 A 50 50 0 0 1 279.05469 490.69141 A 50 50 0 0 0 279.05273 490.69336 A 50 50 0 0 1 275.5957 492.95312 A 50 50 0 0 0 275.59375 492.95312 A 50 50 0 0 1 271.96094 494.91992 A 50 50 0 0 0 271.95898 494.91992 A 50 50 0 0 1 270.80664 495.42578 A 50 50 0 0 1 261.07031 498.73047 A 50 50 0 0 1 260.26172 498.93555 A 50 50 0 0 1 259.58008 499.04883 A 50 50 0 0 1 252.06641 499.95703 A 50 50 0 0 0 252.06445 499.95703 A 50 50 0 0 1 247.93555 499.95703 A 50 50 0 0 0 247.93359 499.95703 A 50 50 0 0 1 240.51172 499.06445 A 50 50 0 0 1 239.74023 498.93555 A 50 50 0 0 0 239.73828 498.93555 A 50 50 0 0 1 238.92969 498.73047 A 50 50 0 0 1 229.19336 495.42578 A 50 50 0 0 1 228.04102 494.91992 A 50 50 0 0 0 228.03906 494.91992 A 50 50 0 0 1 224.40625 492.95312 A 50 50 0 0 0 224.4043 492.95312 A 50 50 0 0 1 223.46094 492.33594 A 50 50 0 0 1 222.56641 491.75 A 50 50 0 0 1 220.94727 490.69141 A 50 50 0 0 0 220.94531 490.69141 A 50 50 0 0 1 220.22266 490.12891 A 50 50 0 0 1 217.68555 488.1543 A 50 50 0 0 0 217.68359 488.1543 A 50 50 0 0 1 214.64648 485.35547 A 50 50 0 0 0 214.64453 485.35352 A 50 50 0 0 1 207.66406 476.60156 A 50 50 0 0 0 207.66406 476.59961 A 50 50 0 0 1 205.32422 471.74219 A 50 50 0 0 1 202.80664 466.51367 A 50 50 0 0 1 200.31445 455.59766 A 50 50 0 0 1 200.31445 444.40234 A 50 50 0 0 0 200.31445 444.40039 A 50 50 0 0 1 200.88281 441.91016 A 50 50 0 0 1 202.80664 433.48633 A 50 50 0 0 0 202.80664 433.48438 A 50 50 0 0 1 207.66406 423.40039 A 50 50 0 0 0 207.66406 423.39844 A 50 50 0 0 1 214.64453 414.64648 A 50 50 0 0 0 214.64453 414.64453 A 50 50 0 0 0 214.64648 414.64453 A 50 50 0 0 1 223.39844 407.66406 A 50 50 0 0 0 223.40039 407.66406 A 50 50 0 0 1 233.48438 402.80664 A 50 50 0 0 0 233.48633 402.80664 A 50 50 0 0 1 241.91016 400.88281 A 50 50 0 0 1 244.40234 400.31445 z M 408.4668 422.69727 A 50 50 0 0 0 406.10156 426.44141 A 50 50 0 0 1 408.4668 422.69727 z " />
</svg>