<svg width="500" height="900" xmlns="http://www.w3.org/2000/svg">
    <path d="M385.824 258.893a50 50 0 0 0-21.005 7.35 50 50 0 0 0-8.75 6.98h-.003L73.223 556.066h-.003a50 50 0 0 0 .003 70.71 50 50 0 0 0 18.84 11.84 50 50 0 0 0 10.917 2.49 50 50 0 0 0 40.953-14.33v.001l282.844-282.843h.003a50 50 0 0 0-.003-70.71 50 50 0 0 0-.001-.001 50 50 0 0 0-18.84-11.84 50 50 0 0 0-10.916-2.49 50 50 0 0 0-11.197 0z"/>
    <path d="M441.107 585.824a50 50 0 0 0-7.35-21.005 50 50 0 0 0-6.98-8.75v-.003L143.934 273.223v-.003a50 50 0 0 0-70.71.003 50 50 0 0 0-11.84 18.84 50 50 0 0 0-2.49 10.917 50 50 0 0 0 14.33 40.953h-.001l282.843 282.844v.003a50 50 0 0 0 70.71-.003 50 50 0 0 0 .001-.001 50 50 0 0 0 11.84-18.84 50 50 0 0 0 2.49-10.916 50 50 0 0 0 0-11.197z"/>
    <path d="M289.091 681.175a50 50 0 0 0 9.655-20.05 50 50 0 0 0 1.253-11.123L300 650V250l.002-.002A50 50 0 0 0 250 200a50 50 0 0 0-21.693 4.95 50 50 0 0 0-9.48 5.959 50 50 0 0 0-18.826 39.09H200V650l-.002.002A50 50 0 0 0 250 700a50 50 0 0 0 .001 0 50 50 0 0 0 21.693-4.95 50 50 0 0 0 9.48-5.959 50 50 0 0 0 7.918-7.916z"/>
</svg>