<svg xmlns="http://www.w3.org/2000/svg" width="500" height="900">
    <path
        d="M250 199.998a50 50 0 0 0-21.693 4.953 50 50 0 0 0-9.48 5.957 50 50 0 0 0-17.573 27.965A50 50 0 0 0 200 249.998a50 50 0 0 0 0 .002v58.852A150 150 0 0 0 100 450a150 150 0 0 0 100 141.148V650l-.002.002a50 50 0 0 0 50 49.998 50 50 0 0 0 .002 0v.002a50 50 0 0 0 21.693-4.953 50 50 0 0 0 9.48-5.957A50 50 0 0 0 300 650.002a50 50 0 0 0 0-.002v-58.852a150 150 0 0 0 56.066-35.082A150 150 0 0 0 400 450a150 150 0 0 0-43.934-106.066A150 150 0 0 0 300 308.852V250l.002-.002a50 50 0 0 0-50-49.998 50 50 0 0 0-.002 0v-.002zm106.066 143.936a50 50 0 0 0 70.71 0h.001a50 50 0 0 0 0-70.71 50 50 0 0 0-40.953-14.33 50 50 0 0 0-29.758 14.33 50 50 0 0 0 0 70.71zm0 212.132a50 50 0 0 0 0 70.71 50 50 0 0 0 70.71 0l.001.001a50 50 0 0 0 0-70.71 50 50 0 0 0-40.953-14.33 50 50 0 0 0-29.758 14.33zm93.936-156.068a50 50 0 0 0-50 50.004 50 50 0 0 0 50 50 50 50 0 0 0 37.785-17.258 50 50 0 0 0 12.215-32.746 50 50 0 0 0-50-50z" />
</svg>