<?xml version="1.0" encoding="UTF-8" standalone="no"?>
<svg width="500" height="900" version="1.1" id="svg1" sodipodi:docname="uni003d.svg" inkscape:version="1.4.2 (ebf0e940, 2025-05-08)" xmlns:inkscape="http://www.inkscape.org/namespaces/inkscape" xmlns:sodipodi="http://sodipodi.sourceforge.net/DTD/sodipodi-0.dtd" xmlns="http://www.w3.org/2000/svg" xmlns:svg="http://www.w3.org/2000/svg">
    <defs id="defs1" />
    <sodipodi:namedview id="namedview1" pagecolor="#ffffff" bordercolor="#000000" borderopacity="0.25" inkscape:showpageshadow="2" inkscape:pageopacity="0.0" inkscape:pagecheckerboard="0" inkscape:deskcolor="#d1d1d1" inkscape:zoom="0.59111111" inkscape:cx="250.37594" inkscape:cy="450" inkscape:window-width="888" inkscape:window-height="751" inkscape:window-x="0" inkscape:window-y="25" inkscape:window-maximized="0" inkscape:current-layer="svg1" />
    <path id="path8" d="M 250 325 A 25 25 0 0 0 225 350 A 25 25 0 0 0 250 375 A 25 25 0 0 0 275 350 A 25 25 0 0 0 250 325 z M 179.28906 354.28906 A 25 25 0 0 0 154.28906 379.28906 A 25 25 0 0 0 179.28906 404.28906 A 25 25 0 0 0 204.28906 379.28906 A 25 25 0 0 0 179.28906 354.28906 z M 320.71094 354.28906 A 25 25 0 0 0 295.71094 379.28906 A 25 25 0 0 0 320.71094 404.28906 A 25 25 0 0 0 345.71094 379.28906 A 25 25 0 0 0 320.71094 354.28906 z M 179.28906 495.71094 A 25 25 0 0 0 154.28906 520.71094 A 25 25 0 0 0 179.28906 545.71094 A 25 25 0 0 0 204.28906 520.71094 A 25 25 0 0 0 179.28906 495.71094 z M 320.71094 495.71094 A 25 25 0 0 0 295.71094 520.71094 A 25 25 0 0 0 320.71094 545.71094 A 25 25 0 0 0 345.71094 520.71094 A 25 25 0 0 0 320.71094 495.71094 z M 250 525 A 25 25 0 0 0 225 550 A 25 25 0 0 0 250 575 A 25 25 0 0 0 275 550 A 25 25 0 0 0 250 525 z " />
</svg>
