<svg xmlns="http://www.w3.org/2000/svg" width="500" height="900">
    <path
        d="M250 199.998a50 50 0 0 0-21.693 4.953 50 50 0 0 0-9.48 5.957 50 50 0 0 0-17.573 27.965A50 50 0 0 0 200 249.998a50 50 0 0 0 1.254 11.127 50 50 0 0 0 9.654 20.049 50 50 0 0 0 7.918 7.916 50 50 0 0 0 17.309 8.697 50 50 0 0 0 2.738.96 50 50 0 0 0 .002 0 50 50 0 0 0 1.125.126A50 50 0 0 0 250 300a50 50 0 0 0 11.125-1.254 50 50 0 0 0 20.049-9.656 50 50 0 0 0 7.916-7.916 50 50 0 0 0 .002 0A50 50 0 0 0 300 250.002l.002-.004a50 50 0 0 0-50-49.998 50 50 0 0 0-.002 0v-.002zM250 600a50 50 0 0 0-39.092 18.826A50 50 0 0 0 200 649.998l-.002.004a50 50 0 0 0 50 49.998 50 50 0 0 0 .002 0v.002a50 50 0 0 0 21.693-4.953 50 50 0 0 0 9.48-5.957A50 50 0 0 0 300 650.002a50 50 0 0 0-8.143-27.35 50 50 0 0 0-2.4-3.361 50 50 0 0 0 0-.002 50 50 0 0 0-1.225-1.445 50 50 0 0 0-1.447-1.707A50 50 0 0 0 250 600z" />
</svg>