<svg width="500" height="900" xmlns="http://www.w3.org/2000/svg">
    <path d="M250 125a25 25 0 0 0-18.068 7.725 25 25 0 0 0-2.157 2.58A25 25 0 0 0 225 150a25 25 0 0 0 25 25 25 25 0 0 0 25-25 25 25 0 0 0-25-25zm-72.494 29.354a25 25 0 0 0-.104.027 25 25 0 0 0-8.465 2.158 25 25 0 0 0-.09.049 25 25 0 0 0-7.236 5.023 25 25 0 0 0 0 35.356 25 25 0 0 0 35.356 0 25 25 0 0 0 4.398-6.053 25 25 0 0 0 .86-2.303 25 25 0 0 0 1.548-4.767 25 25 0 0 0 .21-2.924 25 25 0 0 0 .244-3.416 25 25 0 0 0-.245-2.125 25 25 0 0 0-2.416-7.436 25 25 0 0 0-.004-.007 25 25 0 0 0-4.595-6.325 25 25 0 0 0-5.487-4.105 25 25 0 0 0-.517-.274 25 25 0 0 0-6.065-2.261 25 25 0 0 0-.507-.125 25 25 0 0 0-6.813-.487 25 25 0 0 0-.072-.005zm141.422 0a25 25 0 0 0-15.895 7.257 25 25 0 0 0 0 35.356 25 25 0 0 0 6.053 4.398 25 25 0 0 0 2.303.86 25 25 0 0 0 4.767 1.548 25 25 0 0 0 2.924.21 25 25 0 0 0 3.416.244 25 25 0 0 0 .955-.247 25 25 0 0 0 5.46-1.392 25 25 0 0 0 2.595-.844 25 25 0 0 0 6.883-4.777 25 25 0 0 0 4.394-6.047 25 25 0 0 0 .87-2.332 25 25 0 0 0 1.54-4.744 25 25 0 0 0 .21-2.934 25 25 0 0 0 .243-3.404 25 25 0 0 0-.244-.953 25 25 0 0 0-1.396-5.469 25 25 0 0 0-.84-2.59 25 25 0 0 0-4.777-6.883 25 25 0 0 0-19.461-7.257zM150 225a25 25 0 0 0-18.07 7.723 25 25 0 0 0-2.157 2.58A25 25 0 0 0 125 250a25 25 0 0 0 25 25 25 25 0 0 0 25-25 25 25 0 0 0-25-25zm200 0a25 25 0 0 0-18.068 7.725l-.002.002a25 25 0 0 0-2.157 2.58A25 25 0 0 0 325 250v400a25 25 0 0 0 25 25 25 25 0 0 0 25-25V250a25 25 0 0 0-25-25zM150 625a25 25 0 0 0-25 25 25 25 0 0 0 25 25 25 25 0 0 0 25-25 25 25 0 0 0-7.727-18.07 25 25 0 0 0-2.58-2.157A25 25 0 0 0 150 625zm27.504 70.773a25 25 0 0 0-.955.247 25 25 0 0 0-5.46 1.392 25 25 0 0 0-2.595.844 25 25 0 0 0-6.883 4.777 25 25 0 0 0-4.394 6.047 25 25 0 0 0-.87 2.332 25 25 0 0 0-1.54 4.744 25 25 0 0 0-.21 2.934 25 25 0 0 0-.243 3.404 25 25 0 0 0 .244.953 25 25 0 0 0 1.396 5.469 25 25 0 0 0 .84 2.59 25 25 0 0 0 4.777 6.883 25 25 0 0 0 35.356 0 25 25 0 0 0 0-35.356 25 25 0 0 0-6.053-4.398 25 25 0 0 0-2.303-.86 25 25 0 0 0-4.767-1.548 25 25 0 0 0-2.924-.21 25 25 0 0 0-3.416-.244zm141.424 0a25 25 0 0 0-15.895 7.26 25 25 0 0 0-4.398 6.053 25 25 0 0 0-.86 2.303 25 25 0 0 0-1.548 4.767 25 25 0 0 0-.21 2.924 25 25 0 0 0-.244 3.416 25 25 0 0 0 .247.955 25 25 0 0 0 1.392 5.46 25 25 0 0 0 .844 2.595 25 25 0 0 0 4.777 6.883 25 25 0 0 0 6.047 4.394 25 25 0 0 0 2.332.87 25 25 0 0 0 4.744 1.54 25 25 0 0 0 2.934.21 25 25 0 0 0 3.404.243 25 25 0 0 0 .953-.244 25 25 0 0 0 5.469-1.396 25 25 0 0 0 2.59-.84 25 25 0 0 0 6.883-4.777 25 25 0 0 0 0-35.356 25 25 0 0 0-19.461-7.26zM250 725a25 25 0 0 0-25 25 25 25 0 0 0 25 25 25 25 0 0 0 25-25 25 25 0 0 0-7.725-18.068l-.002-.002a25 25 0 0 0-2.58-2.157A25 25 0 0 0 250 725z"/>
</svg>