<svg width="500" height="900" xmlns="http://www.w3.org/2000/svg">
    <path d="M250 200a50 50 0 0 0-50 50 50 50 0 0 0 50 50 50 50 0 0 0 50-50 50 50 0 0 0-50-50zm0 100a150 150 0 0 0-150 150 150 150 0 0 0 150 150 150 150 0 0 0 150-150 150 150 0 0 0-43.934-106.066A150 150 0 0 0 250 300zm106.066 43.934a50 50 0 0 0 70.711 0 50 50 0 0 0 14.518-38.922 50 50 0 0 0-14.518-31.79 50 50 0 0 0-40.953-14.33 50 50 0 0 0-29.758 14.33 50 50 0 0 0 0 70.712zM400 450a50 50 0 0 0 50 50 50 50 0 0 0 50-50 50 50 0 0 0-50-50 50 50 0 0 0-50 50z"/>
</svg>