<svg width="500" height="900" xmlns="http://www.w3.org/2000/svg">
    <path
        d="M 391.42188 258.58008 A 50 50 0 0 0 385.82422 258.89258 A 50 50 0 0 0 364.82031 266.24219 A 50 50 0 0 0 356.06836 273.22266 L 356.06641 273.22266 L 274.54492 354.74414 A 25 25 0 0 0 275 350 A 25 25 0 0 0 274.74414 346.57422 A 25 25 0 0 0 274.02344 343.2168 A 25 25 0 0 0 273.84961 342.6582 A 25 25 0 0 0 271.16211 336.77148 A 25 25 0 0 0 270.89062 336.32227 A 25 25 0 0 0 266.41797 331.16211 A 25 25 0 0 0 266.37109 331.10742 A 25 25 0 0 0 266.2793 331.05273 A 25 25 0 0 0 258.76758 326.59375 A 25 25 0 0 0 258.66992 326.56445 A 25 25 0 0 0 250 325 A 25 25 0 0 0 225 350 A 25 25 0 0 0 250 375 A 25 25 0 0 0 254.78516 374.50391 L 174.54688 454.74219 A 25 25 0 0 0 175 450 A 25 25 0 0 0 174.82031 447.03516 A 25 25 0 0 0 174.79883 446.88477 A 25 25 0 0 0 174.29102 444.11523 A 25 25 0 0 0 174.22656 443.86523 A 25 25 0 0 0 173.41016 441.24805 A 25 25 0 0 0 173.31055 440.99219 A 25 25 0 0 0 172.19727 438.51758 A 25 25 0 0 0 172.05469 438.24609 A 25 25 0 0 0 170.65625 435.93555 A 25 25 0 0 0 170.49219 435.69336 A 25 25 0 0 0 168.8125 433.54883 A 25 25 0 0 0 168.63477 433.34375 A 25 25 0 0 0 166.68164 431.39062 A 25 25 0 0 0 166.51562 431.23828 A 25 25 0 0 0 166.37109 431.10547 A 25 25 0 0 0 166.26758 431.04492 A 25 25 0 0 0 158.76758 426.59375 A 25 25 0 0 0 158.66992 426.56445 A 25 25 0 0 0 150 425 A 25 25 0 0 0 142.61719 426.16797 A 25 25 0 0 0 140.35156 427.20312 A 25 25 0 0 0 135.9082 429.4668 A 25 25 0 0 0 133.68555 431.39453 A 25 25 0 0 0 131.10742 433.62891 A 25 25 0 0 0 130.60547 434.47461 A 25 25 0 0 0 127.72461 439.33008 A 25 25 0 0 0 126.48828 441.75586 A 25 25 0 0 0 125 450 A 25 25 0 0 0 150 475 A 25 25 0 0 0 154.74219 474.54688 L 73.224609 556.06445 L 73.222656 556.06641 L 73.220703 556.06641 A 50 50 0 0 0 73.222656 626.77539 A 50 50 0 0 0 73.222656 626.77734 A 50 50 0 0 0 92.0625 638.61523 A 50 50 0 0 0 102.97852 641.10547 A 50 50 0 0 0 143.93164 626.77734 L 143.93359 626.77734 L 225.51562 545.19531 A 25 25 0 0 0 225 550 A 25 25 0 0 0 226.16797 557.38281 A 25 25 0 0 0 227.20312 559.64844 A 25 25 0 0 0 229.4668 564.0918 A 25 25 0 0 0 231.39453 566.31445 A 25 25 0 0 0 233.62891 568.89258 A 25 25 0 0 0 234.47461 569.39453 A 25 25 0 0 0 239.33008 572.27539 A 25 25 0 0 0 241.75586 573.51172 A 25 25 0 0 0 250 575 A 25 25 0 0 0 275 550 A 25 25 0 0 0 250 525 A 25 25 0 0 0 245.21484 525.49609 L 325.45312 445.25781 A 25 25 0 0 0 325 450 A 25 25 0 0 0 326.16992 457.38867 A 25 25 0 0 0 327.19141 459.62695 A 25 25 0 0 0 329.4668 464.0918 A 25 25 0 0 0 331.38672 466.30664 A 25 25 0 0 0 333.62891 468.89453 A 25 25 0 0 0 334.47852 469.39844 A 25 25 0 0 0 339.32422 472.27344 A 25 25 0 0 0 341.75586 473.51172 A 25 25 0 0 0 350 475 A 25 25 0 0 0 357.38281 473.83203 A 25 25 0 0 0 359.64844 472.79688 A 25 25 0 0 0 364.0918 470.5332 A 25 25 0 0 0 366.31445 468.60547 A 25 25 0 0 0 368.89258 466.37109 A 25 25 0 0 0 369.39453 465.52539 A 25 25 0 0 0 372.27539 460.66992 A 25 25 0 0 0 373.51172 458.24414 A 25 25 0 0 0 375 450 A 25 25 0 0 0 350 425 A 25 25 0 0 0 345.25781 425.45312 L 426.77539 343.93555 L 426.77734 343.93359 L 426.7793 343.93359 A 50 50 0 0 0 426.77734 273.22461 A 50 50 0 0 0 426.77734 273.22266 A 50 50 0 0 0 407.9375 261.38477 A 50 50 0 0 0 397.02148 258.89453 A 50 50 0 0 0 391.42188 258.58008 z M 178.72852 354.29492 A 25 25 0 0 0 175.37891 354.5957 A 25 25 0 0 0 161.61133 361.61133 A 25 25 0 0 0 161.61133 396.9668 A 25 25 0 0 0 196.9668 396.9668 A 25 25 0 0 0 196.9668 361.61133 A 25 25 0 0 0 178.72852 354.29492 z M 320.14844 495.71875 A 25 25 0 0 0 316.79883 496.01953 A 25 25 0 0 0 313.96094 496.65234 A 25 25 0 0 0 313.08203 496.9375 A 25 25 0 0 0 311.19141 497.61914 A 25 25 0 0 0 310.24023 498.04297 A 25 25 0 0 0 309.35938 498.43555 A 25 25 0 0 0 308.52148 498.91992 A 25 25 0 0 0 307.62695 499.43555 A 25 25 0 0 0 305.94922 500.57617 A 25 25 0 0 0 305.2168 501.10938 A 25 25 0 0 0 305.21094 501.11328 A 25 25 0 0 0 303.0332 503.0332 A 25 25 0 0 0 300.87695 505.49219 A 25 25 0 0 0 300.84961 505.53125 A 25 25 0 0 0 300.21484 506.48242 A 25 25 0 0 0 299.02148 508.29102 A 25 25 0 0 0 299.01953 508.29297 A 25 25 0 0 0 298.40039 509.54883 A 25 25 0 0 0 297.56836 511.27539 A 25 25 0 0 0 297.10938 512.62891 A 25 25 0 0 0 296.52539 514.42773 A 25 25 0 0 0 296.52539 514.42969 A 25 25 0 0 0 296.24219 515.85156 A 25 25 0 0 0 295.92383 517.44727 A 25 25 0 0 0 295.9082 517.68555 A 25 25 0 0 0 295.81055 519.19922 A 25 25 0 0 0 295.71094 520.71094 A 25 25 0 0 0 295.72852 520.99219 A 25 25 0 0 0 295.82812 522.52148 A 25 25 0 0 0 295.98828 524.30078 A 25 25 0 0 0 296.01758 524.62109 A 25 25 0 0 0 296.33594 526.04492 A 25 25 0 0 0 296.64453 527.42188 A 25 25 0 0 0 296.64453 527.42578 A 25 25 0 0 0 297.24023 529.17969 A 25 25 0 0 0 297.69531 530.44531 A 25 25 0 0 0 298.58594 532.25 A 25 25 0 0 0 299.125 533.30859 A 25 25 0 0 0 300.34375 535.13086 A 25 25 0 0 0 300.91992 535.97852 A 25 25 0 0 0 303.0332 538.38867 A 25 25 0 0 0 338.38867 538.38867 A 25 25 0 0 0 338.38867 503.0332 A 25 25 0 0 0 320.14844 495.71875 z " />
</svg>