<?xml version="1.0" encoding="UTF-8" standalone="no"?>
<svg width="500" height="900" version="1.1" id="svg1" sodipodi:docname="uni007e.svg"
    inkscape:version="1.4.2 (ebf0e940, 2025-05-08)" xmlns:inkscape="http://www.inkscape.org/namespaces/inkscape"
    xmlns:sodipodi="http://sodipodi.sourceforge.net/DTD/sodipodi-0.dtd" xmlns="http://www.w3.org/2000/svg"
    xmlns:svg="http://www.w3.org/2000/svg">
    <defs id="defs1" />
    <sodipodi:namedview id="namedview1" pagecolor="#ffffff" bordercolor="#000000" borderopacity="0.25"
        inkscape:showpageshadow="2" inkscape:pageopacity="0.0" inkscape:pagecheckerboard="0"
        inkscape:deskcolor="#d1d1d1" inkscape:zoom="0.59111111" inkscape:cx="250.37594" inkscape:cy="450"
        inkscape:window-width="888" inkscape:window-height="751" inkscape:window-x="0" inkscape:window-y="25"
        inkscape:window-maximized="0" inkscape:current-layer="svg1" />
    <path id="path7"
        d="M 108.57812 283.57812 A 25 25 0 0 0 83.578125 308.57812 A 25 25 0 0 0 108.57812 333.57812 A 25 25 0 0 0 133.57812 308.57812 A 25 25 0 0 0 108.57812 283.57812 z M 391.42188 283.57812 A 25 25 0 0 0 366.42188 308.57812 A 25 25 0 0 0 391.42188 333.57812 A 25 25 0 0 0 416.42188 308.57812 A 25 25 0 0 0 391.42188 283.57812 z M 50 425 A 25 25 0 0 0 25 450 A 25 25 0 0 0 50 475 A 25 25 0 0 0 75 450 A 25 25 0 0 0 50 425 z M 450 425 A 25 25 0 0 0 425 450 A 25 25 0 0 0 450 475 A 25 25 0 0 0 475 450 A 25 25 0 0 0 450 425 z M 108.57812 566.42188 A 25 25 0 0 0 83.578125 591.42188 A 25 25 0 0 0 108.57812 616.42188 A 25 25 0 0 0 133.57812 591.42188 A 25 25 0 0 0 108.57812 566.42188 z M 391.42188 566.42188 A 25 25 0 0 0 366.42188 591.42188 A 25 25 0 0 0 391.42188 616.42188 A 25 25 0 0 0 416.42188 591.42188 A 25 25 0 0 0 391.42188 566.42188 z " />
    <path
        d="m 90.900391,290.90039 c -9.763195,9.76312 -9.763195,25.59235 0,35.35547 L 373.74414,609.09961 c 9.76312,9.76319 25.59235,9.76319 35.35547,0 9.76319,-9.76312 9.76319,-25.59235 0,-35.35547 L 126.25586,290.90039 c -9.98917,-9.98944 -25.87017,-9.48569 -35.355469,0 z" />
</svg>