<svg width="500" height="900" xmlns="http://www.w3.org/2000/svg">
    <path
        d="M102.98 258.895a50 50 0 0 0-29.755 14.33l-.002-.002a50 50 0 0 0 0 70.71 50 50 0 0 0 70.71 0 50 50 0 0 0 .001-70.708 50 50 0 0 0-40.954-14.33zm74.526 95.459a25 25 0 0 0-15.894 7.258 25 25 0 0 0 0 35.355 25 25 0 0 0 35.355 0 25 25 0 0 0 0-35.355 25 25 0 0 0-19.461-7.258zM49.998 399.998a50 50 0 0 0-37.785 17.257A50 50 0 0 0-.003 450.001a50 50 0 0 0 50 50 50 50 0 0 0 50-50.004 50 50 0 0 0-50-50zm200.001.002a50 50 0 0 0-50 50 50 50 0 0 0 50 49.999 50 50 0 0 0 50-50 50 50 0 0 0-50-50zm-100 25a25 25 0 0 0-25 25 25 25 0 0 0 25 25 25 25 0 0 0 25-25 25 25 0 0 0-25-25zm27.506 70.773a25 25 0 0 0-15.893 7.26 25 25 0 0 0 0 35.355 25 25 0 0 0 35.355 0 25 25 0 0 0 0-35.355 25 25 0 0 0-19.461-7.26zm-74.525 45.963a50 50 0 0 0-29.756 14.33h-.002a50 50 0 0 0 0 70.71 50 50 0 0 0 70.711 0 50 50 0 0 0 .001-70.71 50 50 0 0 0-40.954-14.33z" />
</svg>