<svg xmlns="http://www.w3.org/2000/svg" width="500" height="900">
    <path
        d="M250 0a50 50 0 0 0-50 50v199.982a50 50 0 0 0-.002.016 50 50 0 0 0 .002.016v79.275l-56.066-56.064v-.002a50 50 0 0 0-.002 0 50 50 0 0 0-8.752-6.98 50 50 0 0 0-21.004-7.35 50 50 0 0 0-11.196 0 50 50 0 0 0-8.425 1.923 50 50 0 0 0-2.493.569 50 50 0 0 0-18.837 11.838 50 50 0 0 0-.002 0 50 50 0 0 1 0 .002 50 50 0 0 0-.002 70.709h.004v.002L200 470.71v179.275a50 50 0 0 0-.002.016 50 50 0 0 0 .002.018V850a50 50 0 0 0 50 50 50 50 0 0 0 50-50V650.018a50 50 0 0 0 .002-.016 50 50 0 0 0-.002-.043v-79.248l56.066 56.066h.002a50 50 0 0 0 .05.04 50 50 0 0 0 9.622 7.382 50 50 0 0 0 3.57 1.72 50 50 0 0 0 7.627 3.16 50 50 0 0 0 4.52 1.03 50 50 0 0 0 7.563.996 50 50 0 0 0 4.802 0 50 50 0 0 0 3.2 0 50 50 0 0 0 4.374-.998 50 50 0 0 0 4.5-1.027 50 50 0 0 0 2.041-.465 50 50 0 0 0 5.627-2.71 50 50 0 0 0 3.53-1.7 50 50 0 0 0 9.681-7.428 50 50 0 0 0 3.194-3.521 50 50 0 0 0 1.07-1.42 50 50 0 0 0 1.777-2.393 50 50 0 0 0 1.057-1.709 50 50 0 0 0 1.428-2.38 50 50 0 0 0 .914-1.838 50 50 0 0 0 1.16-2.452 50 50 0 0 0 .775-2.003 50 50 0 0 0 .875-2.444 50 50 0 0 0 .612-2.148 50 50 0 0 0 .617-2.467 50 50 0 0 0 .408-2.176 50 50 0 0 0 .375-2.531 50 50 0 0 0 .205-2.22 50 50 0 0 0 .125-2.538 50 50 0 0 0 0-2.23 50 50 0 0 0-.125-2.537 50 50 0 0 0-.205-2.221 50 50 0 0 0-.375-2.528 50 50 0 0 0-.41-2.185 50 50 0 0 0-.613-2.457 50 50 0 0 0-.616-2.158 50 50 0 0 0-.85-2.377 50 50 0 0 0-.812-2.098 50 50 0 0 0-1.09-2.303 50 50 0 0 0-.986-1.982 50 50 0 0 0-1.353-2.258 50 50 0 0 0-1.123-1.814 50 50 0 0 0-1.62-2.182 50 50 0 0 0-1.24-1.643 50 50 0 0 0-2.435-2.689 50 50 0 0 0-.735-.809h-.002l-.002-.002L300 429.29V250.014a50 50 0 0 0 .002-.016 50 50 0 0 0-.002-.018V50a50 50 0 0 0-50-50zm135.824 258.893a50 50 0 0 0-29.758 14.33 50 50 0 0 0 0 70.71 50 50 0 0 0 70.71 0 50 50 0 0 0 0-70.708l.001-.002a50 50 0 0 0-40.953-14.33zM102.98 541.736a50 50 0 0 0-29.755 14.33 50 50 0 0 0 0 70.71l-.002.001a50 50 0 0 0 70.71 0 50 50 0 0 0 0-70.71 50 50 0 0 0-40.953-14.33z" />
</svg>