<svg xmlns="http://www.w3.org/2000/svg" width="500" height="900">
    <path
        d="M73.222 273.222a50 50 0 0 0-11.837 18.841 50 50 0 0 0-2.491 10.916 50 50 0 0 0 7.348 32.2 50 50 0 0 0 6.98 8.754 50 50 0 0 0 8.755 6.98 50 50 0 0 0 21.003 7.351 50 50 0 0 0 11.196-.001 50 50 0 0 0 18.39-6.09 50 50 0 0 0 2.614-1.257 50 50 0 0 0 .001-.001 50 50 0 0 0 .885-.707 50 50 0 0 0 7.868-6.274 50 50 0 0 0 6.98-8.753 50 50 0 0 0 7.349-21.005 50 50 0 0 0 0-11.195 50 50 0 0 0 .001-.001 50 50 0 0 0-14.329-29.755l-.001-.005a50 50 0 0 0-70.71.002 50 50 0 0 0 0 .001l-.002-.001zm282.844 282.844a50 50 0 0 0-14.33 40.954 50 50 0 0 0 14.329 29.755l.001.005a50 50 0 0 0 70.71-.002 50 50 0 0 0 0-.001l.002.001a50 50 0 0 0 11.837-18.841 50 50 0 0 0 2.491-10.916 50 50 0 0 0-14.328-40.954 50 50 0 0 0-25.097-13.581 50 50 0 0 0-4.074-.68 50 50 0 0 0-.001 0 50 50 0 0 0-1.888-.156 50 50 0 0 0-2.23-.184 50 50 0 0 0-37.422 14.6zm29.758-297.173a50 50 0 0 0-21.004 7.35 50 50 0 0 0-8.752 6.98h-.002L73.225 556.064l-.002.002h-.002a50 50 0 0 0 .002 70.71 50 50 0 0 0 0 .001 50 50 0 0 0 18.84 11.838 50 50 0 0 0 10.916 2.49 50 50 0 0 0 40.953-14.328h.002l282.841-282.841.002-.002h.002a50 50 0 0 0-.002-70.71 50 50 0 0 0 0-.001 50 50 0 0 0-18.84-11.838 50 50 0 0 0-10.916-2.49 50 50 0 0 0-11.197-.002z" />
</svg>