<?xml version="1.0" encoding="UTF-8" standalone="no"?>
<svg width="500" height="900" version="1.1" id="svg1" sodipodi:docname="uni0060.svg" inkscape:version="1.4.2 (ebf0e940, 2025-05-08)" xmlns:inkscape="http://www.inkscape.org/namespaces/inkscape" xmlns:sodipodi="http://sodipodi.sourceforge.net/DTD/sodipodi-0.dtd" xmlns="http://www.w3.org/2000/svg" xmlns:svg="http://www.w3.org/2000/svg">
    <defs id="defs1" />
    <sodipodi:namedview id="namedview1" pagecolor="#ffffff" bordercolor="#000000" borderopacity="0.25" inkscape:showpageshadow="2" inkscape:pageopacity="0.0" inkscape:pagecheckerboard="0" inkscape:deskcolor="#d1d1d1" inkscape:zoom="4.5599111" inkscape:cx="50.000975" inkscape:cy="450.00878" inkscape:window-width="1080" inkscape:window-height="675" inkscape:window-x="0" inkscape:window-y="25" inkscape:window-maximized="0" inkscape:current-layer="svg1" />
    <path d="M 49.998047,399.99805 A 50,50 0 0 0 0,449.99805 50,50 0 0 0 0,450 H -0.00195313 A 50,50 0 0 0 4.9511719,471.69336 50,50 0 0 0 10.908203,481.17383 50,50 0 0 0 49.998047,500 a 50,50 0 0 0 27.349609,-8.14258 50,50 0 0 0 3.361328,-2.40039 50,50 0 0 0 0.002,0 50,50 0 0 0 1.445312,-1.22461 50,50 0 0 0 1.707031,-1.44726 A 50,50 0 0 0 100,450 50,50 0 0 0 81.173828,410.9082 50,50 0 0 0 50.001953,400 Z" id="path1" />
</svg>
