<svg width="500" height="900" xmlns="http://www.w3.org/2000/svg">
    <path
        d="M250 199.998a50 50 0 0 0-21.693 4.953 50 50 0 0 0-9.48 5.957 50 50 0 0 0-17.573 27.965A50 50 0 0 0 200 249.998a50 50 0 0 0 1.254 11.127 50 50 0 0 0 9.654 20.049 50 50 0 0 0 7.918 7.916 50 50 0 0 0 17.309 8.697 50 50 0 0 0 2.738.96 50 50 0 0 0 .002 0 50 50 0 0 0 1.125.126A50 50 0 0 0 250 300a50 50 0 0 0 11.125-1.254 50 50 0 0 0 20.049-9.656 50 50 0 0 0 7.916-7.916 50 50 0 0 0 .002 0A50 50 0 0 0 300 250.002l.002-.004a50 50 0 0 0-50-49.998 50 50 0 0 0-.002 0v-.002zm-144.986 58.707a50 50 0 0 0-31.793 14.518 50 50 0 0 0 0 70.71 50 50 0 0 0 70.713-.003 50 50 0 0 0 0-70.71 50 50 0 0 0-38.92-14.515zm280.81.186a50 50 0 0 0-29.758 14.33 50 50 0 0 0 .004 70.713 50 50 0 0 0 70.71 0 50 50 0 0 0 14.515-38.92 50 50 0 0 0-14.518-31.793 50 50 0 0 0-40.953-14.33zM250 325a25 25 0 0 0-25 25 25 25 0 0 0 25 25 25 25 0 0 0 7.389-1.17 25 25 0 0 0 2.238-1.021 25 25 0 0 0 4.465-2.276 25 25 0 0 0 2.215-1.92 25 25 0 0 0 2.588-2.242 25 25 0 0 0 1.33-1.676 25 25 0 0 0 3.55-6.966 25 25 0 0 0 .002-.008A25 25 0 0 0 275 350a25 25 0 0 0-.977-6.783 25 25 0 0 0-.173-.559 25 25 0 0 0-2.688-5.887 25 25 0 0 0-.271-.449 25 25 0 0 0-4.473-5.16 25 25 0 0 0-.047-.055 25 25 0 0 0-.092-.054 25 25 0 0 0-7.511-4.46 25 25 0 0 0-.098-.029A25 25 0 0 0 250 325zm-74.621 29.596a25 25 0 0 0-13.768 7.015 25 25 0 0 0 0 35.356 25 25 0 0 0 35.356 0 25 25 0 0 0 0-35.356 25 25 0 0 0-21.588-7.015zm141.422.002a25 25 0 0 0-13.768 7.013 25 25 0 0 0 0 35.356 25 25 0 0 0 35.356 0 25 25 0 0 0 0-35.356 25 25 0 0 0-21.588-7.013zm-266.803 45.4a50 50 0 0 0-49.998 50A50 50 0 0 0 0 450h-.002a50 50 0 0 0 4.953 21.693 50 50 0 0 0 5.957 9.48 50 50 0 0 0 27.965 17.573A50 50 0 0 0 49.998 500a50 50 0 0 0 11.127-1.254 50 50 0 0 0 20.049-9.654 50 50 0 0 0 7.916-7.918 50 50 0 0 0 8.697-17.309 50 50 0 0 0 .96-2.738 50 50 0 0 0 0-.002 50 50 0 0 0 .126-1.125A50 50 0 0 0 100 450a50 50 0 0 0-1.254-11.125 50 50 0 0 0-9.656-20.049 50 50 0 0 0-7.916-7.916 50 50 0 0 0 0-.002A50 50 0 0 0 50.002 400l-.004-.002zm400.004.002a50 50 0 0 0-31.176 10.908 50 50 0 0 0-16.613 25.227 50 50 0 0 0-.96 2.738 50 50 0 0 0 0 .002 50 50 0 0 0-.126 1.125A50 50 0 0 0 400 450a50 50 0 0 0 10.91 31.174 50 50 0 0 0 7.916 7.916 50 50 0 0 0 0 .002A50 50 0 0 0 449.998 500l.004.002a50 50 0 0 0 49.998-50 50 50 0 0 0 0-.002h.002a50 50 0 0 0-.172-4.129 50 50 0 0 0-.512-4.101 50 50 0 0 0-.847-4.043 50 50 0 0 0-4.496-11.524A50 50 0 0 0 450.002 400zm-205.602.314a50 50 0 0 0-2.027.463 50 50 0 0 0-8.887 2.03 50 50 0 0 0-18.841 11.838 50 50 0 0 0-6.98 8.753 50 50 0 0 0 0 .002 50 50 0 0 0-4.858 10.084 50 50 0 0 0-1.924 8.426 50 50 0 0 0-.569 2.49 50 50 0 0 0 0 11.198 50 50 0 0 0 .569 2.492 50 50 0 0 0 1.924 8.424 50 50 0 0 0 0 .002 50 50 0 0 0 4.857 10.084 50 50 0 0 0 0 .002 50 50 0 0 0 6.98 8.752 50 50 0 0 0 0 .001 50 50 0 0 0 .002 0 50 50 0 0 0 8.752 6.98 50 50 0 0 0 .002 0 50 50 0 0 0 10.084 4.858 50 50 0 0 0 .002 0 50 50 0 0 0 8.424 1.924 50 50 0 0 0 2.49.569 50 50 0 0 0 .002 0 50 50 0 0 0 11.196 0 50 50 0 0 0 10.916-2.493 50 50 0 0 0 5.228-2.517 50 50 0 0 0 4.858-2.34 50 50 0 0 0 .002 0 50 50 0 0 0 8.752-6.98 50 50 0 0 0 .001-.002 50 50 0 0 0 2.8-3.038 50 50 0 0 0 0-.002 50 50 0 0 0 1.974-2.537 50 50 0 0 0 .562-.722 50 50 0 0 0 0-.002 50 50 0 0 0 1.059-1.62 50 50 0 0 0 .586-.894 50 50 0 0 0 .617-.943 50 50 0 0 0 0-.002 50 50 0 0 0 1.967-3.633 50 50 0 0 0 0-.002 50 50 0 0 0 .506-1.152 50 50 0 0 0 3.304-9.737 50 50 0 0 0 .206-.808 50 50 0 0 0 0-.002 50 50 0 0 0 .128-.772 50 50 0 0 0 .893-7.422 50 50 0 0 0 0-.002 50 50 0 0 0 0-4.128 50 50 0 0 0 0-.002 50 50 0 0 0-.908-7.514 50 50 0 0 0-.113-.682 50 50 0 0 0-.206-.808 50 50 0 0 0-3.304-9.737 50 50 0 0 0-.506-1.152 50 50 0 0 0 0-.002 50 50 0 0 0-1.967-3.633 50 50 0 0 0 0-.002 50 50 0 0 0-2.26-3.457 50 50 0 0 0-.002-.002 50 50 0 0 0-.562-.722 50 50 0 0 0-1.975-2.537 50 50 0 0 0 0-.002 50 50 0 0 0-2.799-3.038 50 50 0 0 0 0-.001 50 50 0 0 0-.001 0 50 50 0 0 0-8.752-6.98 50 50 0 0 0-.002 0 50 50 0 0 0-10.084-4.858 50 50 0 0 0-.002 0 50 50 0 0 0-8.887-2.03 50 50 0 0 0-2.027-.463 50 50 0 0 0-.002 0 50 50 0 0 0-11.198 0zM150 425a25 25 0 0 0-7.383 1.168 25 25 0 0 0-2.265 1.035 25 25 0 0 0-4.444 2.264 25 25 0 0 0-2.222 1.928 25 25 0 0 0-2.579 2.234 25 25 0 0 0-.502.846 25 25 0 0 0-2.88 4.855 25 25 0 0 0-1.237 2.426A25 25 0 0 0 125 450a25 25 0 0 0 25 25 25 25 0 0 0 25-25 25 25 0 0 0-.18-2.965 25 25 0 0 0-.021-.15 25 25 0 0 0-.508-2.77 25 25 0 0 0-.064-.25 25 25 0 0 0-.817-2.617 25 25 0 0 0-.1-.256 25 25 0 0 0-1.113-2.474 25 25 0 0 0-.142-.272 25 25 0 0 0-1.399-2.31 25 25 0 0 0-.164-.243 25 25 0 0 0-1.68-2.144 25 25 0 0 0-.177-.205 25 25 0 0 0-1.953-1.953 25 25 0 0 0-.166-.153 25 25 0 0 0-.145-.133 25 25 0 0 0-.103-.06 25 25 0 0 0-7.5-4.451 25 25 0 0 0-.098-.03A25 25 0 0 0 150 425zm200 0a25 25 0 0 0-25 25 25 25 0 0 0 1.17 7.389 25 25 0 0 0 1.021 2.238 25 25 0 0 0 2.276 4.465 25 25 0 0 0 1.92 2.215 25 25 0 0 0 2.242 2.588 25 25 0 0 0 .85.503 25 25 0 0 0 4.845 2.875 25 25 0 0 0 2.432 1.239A25 25 0 0 0 350 475a25 25 0 0 0 7.383-1.168 25 25 0 0 0 2.265-1.035 25 25 0 0 0 4.444-2.264 25 25 0 0 0 2.222-1.928 25 25 0 0 0 2.579-2.234 25 25 0 0 0 .502-.846 25 25 0 0 0 2.88-4.855 25 25 0 0 0 1.237-2.426A25 25 0 0 0 375 450a25 25 0 0 0-25-25zm-174.623 71.02a25 25 0 0 0-13.766 7.013 25 25 0 0 0 0 35.356 25 25 0 0 0 35.356 0 25 25 0 0 0 0-35.356 25 25 0 0 0-21.59-7.013zm141.422 0a25 25 0 0 0-13.766 7.013 25 25 0 0 0 0 35.356 25 25 0 0 0 35.356 0 25 25 0 0 0 0-35.356 25 25 0 0 0-21.59-7.013zM250 525a25 25 0 0 0-7.389 1.17 25 25 0 0 0-2.238 1.021 25 25 0 0 0-4.465 2.276 25 25 0 0 0-2.215 1.92 25 25 0 0 0-2.588 2.242 25 25 0 0 0-.503.85 25 25 0 0 0-2.875 4.845 25 25 0 0 0-1.239 2.432A25 25 0 0 0 225 550a25 25 0 0 0 1.168 7.383 25 25 0 0 0 1.035 2.265 25 25 0 0 0 2.264 4.444 25 25 0 0 0 1.928 2.222 25 25 0 0 0 2.234 2.579 25 25 0 0 0 .846.502 25 25 0 0 0 4.855 2.88 25 25 0 0 0 2.426 1.237A25 25 0 0 0 250 575a25 25 0 0 0 25-25 25 25 0 0 0-25-25zm-147.023 16.736a50 50 0 0 0-29.756 14.33 50 50 0 0 0-14.516 38.92 50 50 0 0 0 14.518 31.793 50 50 0 0 0 70.71 0 50 50 0 0 0-.003-70.713 50 50 0 0 0-40.953-14.33zm294.043 0a50 50 0 0 0-40.954 14.334 50 50 0 0 0 0 70.71 50 50 0 0 0 38.92 14.515 50 50 0 0 0 31.793-14.518 50 50 0 0 0 0-70.71 50 50 0 0 0-29.76-14.33zM250 600a50 50 0 0 0-39.092 18.826A50 50 0 0 0 200 649.998l-.002.004a50 50 0 0 0 50 49.998 50 50 0 0 0 .002 0v.002a50 50 0 0 0 21.693-4.953 50 50 0 0 0 9.48-5.957A50 50 0 0 0 300 650.002a50 50 0 0 0-8.143-27.35 50 50 0 0 0-2.4-3.361 50 50 0 0 0 0-.002 50 50 0 0 0-1.225-1.445 50 50 0 0 0-1.447-1.707A50 50 0 0 0 250 600z" />
</svg>