<svg width="500" height="900" xmlns="http://www.w3.org/2000/svg">
    <path
        d="m 300,450 a 50,50 0 0 0 -0.314,-5.6 50,50 0 0 0 -0.463,-2.027 50,50 0 0 0 -2.03,-8.887 50,50 0 0 0 -11.838,-18.841 50,50 0 0 0 -8.753,-6.98 50,50 0 0 0 -0.002,0 50,50 0 0 0 -10.084,-4.858 50,50 0 0 0 -8.426,-1.924 50,50 0 0 0 -2.49,-0.569 50,50 0 0 0 -11.198,0 50,50 0 0 0 -2.492,0.569 50,50 0 0 0 -8.424,1.924 50,50 0 0 0 -0.002,0 50,50 0 0 0 -10.084,4.857 50,50 0 0 0 -0.002,0 50,50 0 0 0 -8.752,6.98 50,50 0 0 0 -10e-4,0 50,50 0 0 0 0,0.002 50,50 0 0 0 -6.98,8.752 50,50 0 0 0 0,0.002 50,50 0 0 0 -4.858,10.084 50,50 0 0 0 0,0.002 50,50 0 0 0 -1.924,8.424 50,50 0 0 0 -0.569,2.49 50,50 0 0 0 0,0.002 50,50 0 0 0 0,11.196 50,50 0 0 0 2.493,10.916 50,50 0 0 0 2.517,5.228 50,50 0 0 0 2.34,4.858 50,50 0 0 0 0,0.002 50,50 0 0 0 6.98,8.752 50,50 0 0 0 0.002,0.001 50,50 0 0 0 3.038,2.8 50,50 0 0 0 0.002,0 50,50 0 0 0 2.537,1.974 50,50 0 0 0 0.722,0.562 50,50 0 0 0 0.002,0 50,50 0 0 0 1.62,1.059 50,50 0 0 0 0.894,0.586 50,50 0 0 0 0.943,0.617 50,50 0 0 0 0.002,0 50,50 0 0 0 3.633,1.967 50,50 0 0 0 0.002,0 50,50 0 0 0 1.152,0.506 50,50 0 0 0 9.737,3.304 50,50 0 0 0 0.808,0.206 50,50 0 0 0 0.002,0 50,50 0 0 0 0.772,0.128 50,50 0 0 0 7.422,0.893 50,50 0 0 0 0.002,0 50,50 0 0 0 4.128,0 50,50 0 0 0 0.002,0 50,50 0 0 0 7.514,-0.908 50,50 0 0 0 0.682,-0.113 50,50 0 0 0 0.808,-0.206 50,50 0 0 0 9.737,-3.304 50,50 0 0 0 1.152,-0.506 50,50 0 0 0 0.002,0 50,50 0 0 0 3.633,-1.967 50,50 0 0 0 0.002,0 50,50 0 0 0 3.457,-2.26 50,50 0 0 0 0.002,-0.002 50,50 0 0 0 0.722,-0.562 50,50 0 0 0 2.537,-1.975 50,50 0 0 0 0.002,0 50,50 0 0 0 3.038,-2.799 50,50 0 0 0 0.001,0 50,50 0 0 0 0,-0.001 50,50 0 0 0 6.98,-8.752 50,50 0 0 0 0,-0.002 50,50 0 0 0 4.858,-10.084 50,50 0 0 0 0,-0.002 50,50 0 0 0 2.03,-8.887 50,50 0 0 0 0.463,-2.027 50,50 0 0 0 0,-0.002 A 50,50 0 0 0 300,450 Z" />
</svg>