<svg width="500" height="900" xmlns="http://www.w3.org/2000/svg">
    <path d="M-250 0a50 50 0 0 0-50 50 50 50 0 0 0 50 50 50 50 0 0 0 50-50A50 50 0 0 0-250 .002V0zm0 100a50 50 0 0 0-50 50 50 50 0 0 0 50 50 50 50 0 0 0 50-50 50 50 0 0 0-50-50zm-144.988-41.295a50 50 0 0 0-31.79 14.518 50 50 0 0 0 0 70.71 50 50 0 0 0 70.712 0 50 50 0 0 0 0-70.71 50 50 0 0 0-38.922-14.518zm282.842 0a50 50 0 0 0-31.788 14.518 50 50 0 0 0 0 70.71 50 50 0 0 0 70.711 0 50 50 0 0 0 0-70.71 50 50 0 0 0-38.922-14.518h-.001z"/>
</svg>