<svg xmlns="http://www.w3.org/2000/svg" width="500" height="900">
    <path
        d="M481.175 410.909a50 50 0 0 0-20.05-9.655 50 50 0 0 0-11.123-1.253L450 400H50l-.002-.002A50 50 0 0 0 0 450a50 50 0 0 0 4.95 21.693 50 50 0 0 0 5.959 9.48 50 50 0 0 0 39.09 18.826V500H450l.002.002A50 50 0 0 0 500 450a50 50 0 0 0 0-.001 50 50 0 0 0-4.95-21.693 50 50 0 0 0-5.959-9.48 50 50 0 0 0-7.916-7.918z" />
    <path
        d="M289.091 681.175a50 50 0 0 0 9.655-20.05 50 50 0 0 0 1.253-11.123L300 650V250l.002-.002A50 50 0 0 0 250 200a50 50 0 0 0-21.693 4.95 50 50 0 0 0-9.48 5.959 50 50 0 0 0-18.826 39.09H200V650l-.002.002A50 50 0 0 0 250 700a50 50 0 0 0 .001 0 50 50 0 0 0 21.693-4.95 50 50 0 0 0 9.48-5.959 50 50 0 0 0 7.918-7.916z" />
</svg>