<?xml version="1.0" encoding="UTF-8" standalone="no"?>
<svg width="500" height="900" version="1.1" id="svg2" sodipodi:docname="uni0021.svg" inkscape:version="1.4.2 (ebf0e940, 2025-05-08)" xmlns:inkscape="http://www.inkscape.org/namespaces/inkscape" xmlns:sodipodi="http://sodipodi.sourceforge.net/DTD/sodipodi-0.dtd" xmlns="http://www.w3.org/2000/svg" xmlns:svg="http://www.w3.org/2000/svg">
    <defs id="defs2" />
    <sodipodi:namedview id="namedview2" pagecolor="#ffffff" bordercolor="#000000" borderopacity="0.25" inkscape:showpageshadow="2" inkscape:pageopacity="0.0" inkscape:pagecheckerboard="0" inkscape:deskcolor="#d1d1d1" inkscape:zoom="0.59111111" inkscape:cx="250.37594" inkscape:cy="450" inkscape:window-width="1080" inkscape:window-height="751" inkscape:window-x="0" inkscape:window-y="25" inkscape:window-maximized="0" inkscape:current-layer="svg2" />
    <path id="path2" d="M 250 225 A 25 25 0 0 0 225 250 A 25 25 0 0 0 250 275 A 25 25 0 0 0 275 250 A 25 25 0 0 0 250 225 z M 250 625 A 25 25 0 0 0 225 650 A 25 25 0 0 0 250 675 A 25 25 0 0 0 275 650 A 25 25 0 0 0 250 625 z " />
</svg>
