<svg xmlns="http://www.w3.org/2000/svg" width="500" height="900">
    <path
        d="M391.422 258.58a50 50 0 0 0-5.598.313 50 50 0 0 0-21.004 7.35 50 50 0 0 0-8.752 6.98 50 50 0 0 0-6.982 8.754 50 50 0 0 0-7.35 21.003 50 50 0 0 0 0 11.196 50 50 0 0 0 6.09 18.388 50 50 0 0 0 1.258 2.616 50 50 0 0 0 .002.002 50 50 0 0 0 .705.884 50 50 0 0 0 6.275 7.868 50 50 0 0 0 8.752 6.98 50 50 0 0 0 21.006 7.35 50 50 0 0 0 11.196 0 50 50 0 0 0 29.755-14.328l.004-.002a50 50 0 0 0-.002-70.71 50 50 0 0 0 0-.001 50 50 0 0 0-18.84-11.838 50 50 0 0 0-10.916-2.49 50 50 0 0 0-5.6-.315z" />
</svg>