<svg width="500" height="900" xmlns="http://www.w3.org/2000/svg">
   <path
      d="M 102.98047 258.89453 A 50 50 0 0 0 81.978516 266.24414 A 50 50 0 0 0 73.224609 273.22461 L 73.222656 273.22266 A 50 50 0 0 0 65.796875 282.90039 A 50 50 0 0 0 64.083984 286.46094 A 50 50 0 0 0 60.921875 294.08789 A 50 50 0 0 0 59.888672 298.61523 A 50 50 0 0 0 58.892578 306.18945 A 50 50 0 0 0 58.892578 310.9668 A 50 50 0 0 0 59.888672 318.54102 A 50 50 0 0 0 60.921875 323.06836 A 50 50 0 0 0 64.083984 330.69531 A 50 50 0 0 0 65.796875 334.25586 A 50 50 0 0 0 73.222656 343.93359 A 50 50 0 0 0 82.900391 351.35938 A 50 50 0 0 0 86.447266 353.06836 A 50 50 0 0 0 94.097656 356.23633 A 50 50 0 0 0 98.605469 357.26562 A 50 50 0 0 0 106.18945 358.26367 A 50 50 0 0 0 110.9668 358.26367 A 50 50 0 0 0 118.55078 357.26562 A 50 50 0 0 0 123.05859 356.23633 A 50 50 0 0 0 130.70898 353.06836 A 50 50 0 0 0 134.25586 351.35938 A 50 50 0 0 0 143.93359 343.93359 A 50 50 0 0 0 147 340.55078 A 50 50 0 0 0 147.88477 339.41406 A 50 50 0 0 0 149.75391 336.89648 A 50 50 0 0 0 150.67773 335.47852 A 50 50 0 0 0 152.19141 332.95312 A 50 50 0 0 0 152.99805 331.46484 A 50 50 0 0 0 154.30469 328.70117 A 50 50 0 0 0 154.92188 327.29297 A 50 50 0 0 0 156.20117 323.71875 A 50 50 0 0 0 156.44727 322.99609 A 50 50 0 0 0 157.56055 318.56055 A 50 50 0 0 0 157.76367 317.3457 A 50 50 0 0 0 158.25781 314.00977 A 50 50 0 0 0 158.38867 312.42969 A 50 50 0 0 0 158.53516 309.44727 A 50 50 0 0 0 158.53516 307.70898 A 50 50 0 0 0 158.38867 304.72852 A 50 50 0 0 0 158.25781 303.14844 A 50 50 0 0 0 157.76367 299.8125 A 50 50 0 0 0 157.56055 298.59766 A 50 50 0 0 0 156.44727 294.16211 A 50 50 0 0 0 156.20117 293.43945 A 50 50 0 0 0 154.92188 289.86523 A 50 50 0 0 0 154.30469 288.45703 A 50 50 0 0 0 152.99805 285.69336 A 50 50 0 0 0 152.19141 284.20508 A 50 50 0 0 0 150.67773 281.67969 A 50 50 0 0 0 149.75391 280.26172 A 50 50 0 0 0 147.88477 277.74414 A 50 50 0 0 0 147 276.60742 A 50 50 0 0 0 143.93359 273.22461 A 50 50 0 0 0 135.17969 266.24414 A 50 50 0 0 0 114.17773 258.89453 A 50 50 0 0 0 102.98047 258.89453 z M 143.93359 343.93359 A 150 150 0 0 0 100 450 A 150 150 0 0 0 143.93359 556.06641 A 150 150 0 0 0 250 600 A 150 150 0 0 0 400 450 A 150 150 0 0 0 250 300 A 150 150 0 0 0 143.93359 343.93359 z M 143.93359 556.06641 A 50 50 0 0 0 135.17969 549.08594 A 50 50 0 0 0 114.17773 541.73633 A 50 50 0 0 0 102.98047 541.73633 A 50 50 0 0 0 81.978516 549.08594 A 50 50 0 0 0 73.224609 556.06641 L 73.222656 556.06641 A 50 50 0 0 0 65.796875 565.74414 A 50 50 0 0 0 64.085938 569.29688 A 50 50 0 0 0 60.919922 576.94141 A 50 50 0 0 0 59.892578 581.43945 A 50 50 0 0 0 58.892578 589.03516 A 50 50 0 0 0 58.892578 593.80859 A 50 50 0 0 0 59.892578 601.40234 A 50 50 0 0 0 60.919922 605.89844 A 50 50 0 0 0 64.089844 613.55078 A 50 50 0 0 0 65.796875 617.09766 A 50 50 0 0 0 73.222656 626.77539 A 50 50 0 0 0 82.90625 634.20508 A 50 50 0 0 0 86.431641 635.90234 A 50 50 0 0 0 94.097656 639.07812 A 50 50 0 0 0 98.605469 640.10742 A 50 50 0 0 0 106.18945 641.10547 A 50 50 0 0 0 110.9668 641.10547 A 50 50 0 0 0 118.55078 640.10742 A 50 50 0 0 0 123.05859 639.07812 A 50 50 0 0 0 130.72461 635.90234 A 50 50 0 0 0 134.25 634.20508 A 50 50 0 0 0 143.93359 626.77539 A 50 50 0 0 0 147 623.39258 A 50 50 0 0 0 147.88477 622.25586 A 50 50 0 0 0 149.75391 619.73828 A 50 50 0 0 0 150.67773 618.32031 A 50 50 0 0 0 152.19141 615.79492 A 50 50 0 0 0 152.99805 614.30664 A 50 50 0 0 0 154.30469 611.54297 A 50 50 0 0 0 154.92188 610.13477 A 50 50 0 0 0 156.20117 606.56055 A 50 50 0 0 0 156.44727 605.83789 A 50 50 0 0 0 157.56055 601.40234 A 50 50 0 0 0 157.76367 600.1875 A 50 50 0 0 0 158.25781 596.85156 A 50 50 0 0 0 158.38867 595.27148 A 50 50 0 0 0 158.53516 592.29102 A 50 50 0 0 0 158.53516 590.55273 A 50 50 0 0 0 158.38867 587.57031 A 50 50 0 0 0 158.25781 585.99023 A 50 50 0 0 0 157.76367 582.6543 A 50 50 0 0 0 157.56055 581.43945 A 50 50 0 0 0 156.44727 577.00391 A 50 50 0 0 0 156.20117 576.28125 A 50 50 0 0 0 154.92188 572.70703 A 50 50 0 0 0 154.30469 571.29883 A 50 50 0 0 0 152.99805 568.53516 A 50 50 0 0 0 152.19141 567.04688 A 50 50 0 0 0 150.67773 564.52148 A 50 50 0 0 0 149.75391 563.10352 A 50 50 0 0 0 147.88477 560.58594 A 50 50 0 0 0 147 559.44922 A 50 50 0 0 0 143.93359 556.06641 z M 49.998047 399.99805 A 50 50 0 0 0 12.212891 417.25586 A 50 50 0 0 0 10.767578 419.39062 A 50 50 0 0 0 8.3515625 422.96094 A 50 50 0 0 0 3.671875 432.14258 A 50 50 0 0 0 3.6699219 432.14648 A 50 50 0 0 0 2.2050781 436.07617 A 50 50 0 0 0 -0.001953125 449.99414 A 50 50 0 0 0 -0.001953125 450 A 50 50 0 0 0 -0.001953125 450.00195 A 50 50 0 0 0 1.5878906 462.08594 A 50 50 0 0 0 2.9082031 465.85547 A 50 50 0 0 0 6.0527344 473.44727 A 50 50 0 0 0 8.5351562 477.39844 A 50 50 0 0 0 24.072266 492.38867 A 50 50 0 0 0 36.732422 497.99805 A 50 50 0 0 0 36.732422 498 A 50 50 0 0 0 49.998047 500.00195 A 50 50 0 0 0 63.976562 497.96289 A 50 50 0 0 0 64.535156 497.79688 A 50 50 0 0 0 99.996094 450.02344 A 50 50 0 0 0 99.998047 449.99805 A 50 50 0 0 0 99.773438 445.42969 A 50 50 0 0 0 91.560547 422.23633 A 50 50 0 0 0 49.998047 399.99805 z M 244.40234 400.31445 A 50 50 0 0 1 255.59961 400.31445 A 50 50 0 0 1 258.08984 400.88281 A 50 50 0 0 1 266.51562 402.80664 A 50 50 0 0 1 276.59961 407.66406 A 50 50 0 0 0 276.60156 407.66406 A 50 50 0 0 1 285.35547 414.64453 A 50 50 0 0 1 297.19336 433.48633 A 50 50 0 0 1 299.22266 442.37305 A 50 50 0 0 1 299.68555 444.40039 A 50 50 0 0 1 300 450 A 50 50 0 0 1 299.68555 455.59766 A 50 50 0 0 0 299.68555 455.59961 A 50 50 0 0 1 299.22266 457.62695 A 50 50 0 0 1 297.19336 466.51367 A 50 50 0 0 0 297.19336 466.51562 A 50 50 0 0 1 292.33594 476.59961 A 50 50 0 0 0 292.33594 476.60156 A 50 50 0 0 1 285.35547 485.35352 A 50 50 0 0 0 285.35547 485.35547 A 50 50 0 0 0 285.35352 485.35547 A 50 50 0 0 1 282.31641 488.1543 A 50 50 0 0 0 282.31445 488.1543 A 50 50 0 0 1 279.77734 490.12891 A 50 50 0 0 1 279.05469 490.69141 A 50 50 0 0 0 279.05273 490.69336 A 50 50 0 0 1 275.5957 492.95312 A 50 50 0 0 0 275.59375 492.95312 A 50 50 0 0 1 271.96094 494.91992 A 50 50 0 0 0 271.95898 494.91992 A 50 50 0 0 1 270.80664 495.42578 A 50 50 0 0 1 261.07031 498.73047 A 50 50 0 0 1 260.26172 498.93555 A 50 50 0 0 1 259.58008 499.04883 A 50 50 0 0 1 252.06641 499.95703 A 50 50 0 0 0 252.06445 499.95703 A 50 50 0 0 1 247.93555 499.95703 A 50 50 0 0 0 247.93359 499.95703 A 50 50 0 0 1 240.51172 499.06445 A 50 50 0 0 1 239.74023 498.93555 A 50 50 0 0 0 239.73828 498.93555 A 50 50 0 0 1 238.92969 498.73047 A 50 50 0 0 1 229.19336 495.42578 A 50 50 0 0 1 228.04102 494.91992 A 50 50 0 0 0 228.03906 494.91992 A 50 50 0 0 1 224.40625 492.95312 A 50 50 0 0 0 224.4043 492.95312 A 50 50 0 0 1 223.46094 492.33594 A 50 50 0 0 1 222.56641 491.75 A 50 50 0 0 1 220.94727 490.69141 A 50 50 0 0 0 220.94531 490.69141 A 50 50 0 0 1 220.22266 490.12891 A 50 50 0 0 1 217.68555 488.1543 A 50 50 0 0 0 217.68359 488.1543 A 50 50 0 0 1 214.64648 485.35547 A 50 50 0 0 0 214.64453 485.35352 A 50 50 0 0 1 207.66406 476.60156 A 50 50 0 0 0 207.66406 476.59961 A 50 50 0 0 1 205.32422 471.74219 A 50 50 0 0 1 202.80664 466.51367 A 50 50 0 0 1 200.31445 455.59766 A 50 50 0 0 1 200.31445 444.40234 A 50 50 0 0 0 200.31445 444.40039 A 50 50 0 0 1 200.88281 441.91016 A 50 50 0 0 1 202.80664 433.48633 A 50 50 0 0 0 202.80664 433.48438 A 50 50 0 0 1 207.66406 423.40039 A 50 50 0 0 0 207.66406 423.39844 A 50 50 0 0 1 214.64453 414.64648 A 50 50 0 0 0 214.64453 414.64453 A 50 50 0 0 0 214.64648 414.64453 A 50 50 0 0 1 223.39844 407.66406 A 50 50 0 0 0 223.40039 407.66406 A 50 50 0 0 1 233.48438 402.80664 A 50 50 0 0 0 233.48633 402.80664 A 50 50 0 0 1 241.91016 400.88281 A 50 50 0 0 1 244.40234 400.31445 z M 81.53125 411.21094 A 50 50 0 0 1 82.021484 411.62305 A 50 50 0 0 0 81.53125 411.21094 z M 88.394531 417.99805 A 50 50 0 0 1 88.771484 418.44531 A 50 50 0 0 0 88.394531 417.99805 z M 97.703125 435.08789 A 50 50 0 0 1 97.902344 435.71094 A 50 50 0 0 0 97.703125 435.08789 z M 98.947266 439.88477 A 50 50 0 0 1 99.091797 440.61328 A 50 50 0 0 0 98.947266 439.88477 z " />
</svg>