<svg xmlns="http://www.w3.org/2000/svg" width="500" height="900">
    <path
        d="M108.578 258.578a50 50 0 0 0-35.353 14.645 50 50 0 0 0-.002 0 50 50 0 0 0-11.838 18.84 50 50 0 0 0-2.49 10.916 50 50 0 0 0 7.347 32.2 50 50 0 0 0 6.98 8.753 50 50 0 0 0 8.755 6.982 50 50 0 0 0 21.003 7.35 50 50 0 0 0 11.196 0 50 50 0 0 0 18.388-6.09 50 50 0 0 0 2.616-1.258 50 50 0 0 0 .002-.002 50 50 0 0 0 .884-.705 50 50 0 0 0 7.868-6.275 50 50 0 0 0 6.98-8.752 50 50 0 0 0 7.35-21.006 50 50 0 0 0 0-11.196 50 50 0 0 0-14.328-29.755l-.002-.004a50 50 0 0 0-35.356-14.643zm282.844.002a50 50 0 0 0-5.598.313 50 50 0 0 0-21.004 7.35 50 50 0 0 0-8.752 6.98 50 50 0 0 0-6.982 8.754 50 50 0 0 0-7.35 21.003 50 50 0 0 0 0 11.196 50 50 0 0 0 6.09 18.388 50 50 0 0 0 1.258 2.616 50 50 0 0 0 .002.002 50 50 0 0 0 .705.884 50 50 0 0 0 6.275 7.868 50 50 0 0 0 8.752 6.98 50 50 0 0 0 21.006 7.35 50 50 0 0 0 11.196 0 50 50 0 0 0 29.755-14.328l.004-.002a50 50 0 0 0-.002-70.71 50 50 0 0 0 0-.001 50 50 0 0 0-18.84-11.838 50 50 0 0 0-10.916-2.49 50 50 0 0 0-5.6-.315z" />
</svg>