<?xml version="1.0" encoding="UTF-8" standalone="no"?>
<svg width="500" height="900" version="1.1" id="svg8" sodipodi:docname="uni0052.svg" inkscape:version="1.4.2 (ebf0e940, 2025-05-08)" xmlns:inkscape="http://www.inkscape.org/namespaces/inkscape" xmlns:sodipodi="http://sodipodi.sourceforge.net/DTD/sodipodi-0.dtd" xmlns="http://www.w3.org/2000/svg" xmlns:svg="http://www.w3.org/2000/svg">
    <defs id="defs8" />
    <sodipodi:namedview id="namedview8" pagecolor="#ffffff" bordercolor="#000000" borderopacity="0.25" inkscape:showpageshadow="2" inkscape:pageopacity="0.0" inkscape:pagecheckerboard="0" inkscape:deskcolor="#d1d1d1" inkscape:zoom="0.59111111" inkscape:cx="250.37594" inkscape:cy="450" inkscape:window-width="1080" inkscape:window-height="751" inkscape:window-x="0" inkscape:window-y="25" inkscape:window-maximized="0" inkscape:current-layer="svg8" />
    <path id="circle1" d="M 250 200 A 50 50 0 0 0 200 250 A 50 50 0 0 0 250 300 A 50 50 0 0 0 300 250 A 50 50 0 0 0 250 200 z M 108.57812 258.57812 A 50 50 0 0 0 58.578125 308.57812 A 50 50 0 0 0 108.57812 358.57812 A 50 50 0 0 0 158.57812 308.57812 A 50 50 0 0 0 108.57812 258.57812 z M 391.42188 258.57812 A 50 50 0 0 0 341.42188 308.57812 A 50 50 0 0 0 391.42188 358.57812 A 50 50 0 0 0 441.42188 308.57812 A 50 50 0 0 0 391.42188 258.57812 z M 50 400 A 50 50 0 0 0 0 450 A 50 50 0 0 0 50 500 A 50 50 0 0 0 100 450 A 50 50 0 0 0 50 400 z M 450 400 A 50 50 0 0 0 400 450 A 50 50 0 0 0 450 500 A 50 50 0 0 0 500 450 A 50 50 0 0 0 450 400 z M 108.57812 541.42188 A 50 50 0 0 0 58.578125 591.42188 A 50 50 0 0 0 108.57812 641.42188 A 50 50 0 0 0 158.57812 591.42188 A 50 50 0 0 0 108.57812 541.42188 z M 391.42188 541.42188 A 50 50 0 0 0 341.42188 591.42188 A 50 50 0 0 0 391.42188 641.42188 A 50 50 0 0 0 441.42188 591.42188 A 50 50 0 0 0 391.42188 541.42188 z M 250 600 A 50 50 0 0 0 200 650 A 50 50 0 0 0 250 700 A 50 50 0 0 0 300 650 A 50 50 0 0 0 250 600 z " />
</svg>
