<?xml version="1.0" encoding="UTF-8" standalone="no"?>
<svg width="500" height="900" version="1.1" id="svg8" sodipodi:docname="uni25cc.svg" inkscape:version="1.4.2 (ebf0e940, 2025-05-08)" xmlns:inkscape="http://www.inkscape.org/namespaces/inkscape" xmlns:sodipodi="http://sodipodi.sourceforge.net/DTD/sodipodi-0.dtd" xmlns="http://www.w3.org/2000/svg" xmlns:svg="http://www.w3.org/2000/svg">
    <defs id="defs8" />
    <sodipodi:namedview id="namedview8" pagecolor="#ffffff" bordercolor="#000000" borderopacity="0.25" inkscape:showpageshadow="2" inkscape:pageopacity="0.0" inkscape:pagecheckerboard="0" inkscape:deskcolor="#d1d1d1" inkscape:zoom="0.34666667" inkscape:cx="242.30769" inkscape:cy="450" inkscape:window-width="1080" inkscape:window-height="751" inkscape:window-x="0" inkscape:window-y="25" inkscape:window-maximized="0" inkscape:current-layer="svg8" />
    <path id="circle1" d="M 409.09903 290.90097 A 25 25 45 0 0 373.74369 290.90097 A 25 25 45 0 0 373.74369 326.25631 A 25 25 45 0 0 409.09903 326.25631 A 25 25 45 0 0 409.09903 290.90097 z M 267.67767 232.3216 A 25 25 45 0 0 250 224.99917 A 25 25 45 0 0 224.99991 249.99927 A 25 25 45 0 0 250 274.99936 A 25 25 45 0 0 275.00009 249.99927 A 25 25 45 0 0 267.67767 232.3216 z M 467.6784 432.32233 A 25 25 45 0 0 450.00073 424.99991 A 25 25 45 0 0 425.00064 450 A 25 25 45 0 0 450.00073 475.00009 A 25 25 45 0 0 475.00083 450 A 25 25 45 0 0 467.6784 432.32233 z M 126.25631 290.90097 A 25 25 45 0 0 90.900974 290.90097 A 25 25 45 0 0 90.900974 326.25631 A 25 25 45 0 0 126.25631 326.25631 A 25 25 45 0 0 126.25631 290.90097 z M 409.09903 573.74369 A 25 25 45 0 0 373.74369 573.74369 A 25 25 45 0 0 373.74369 609.09903 A 25 25 45 0 0 409.09903 609.09903 A 25 25 45 0 0 409.09903 573.74369 z M 67.676936 432.32233 A 25 25 9.2174744 0 0 49.999266 424.99991 A 25 25 9.2174744 0 0 24.999175 450 A 25 25 9.2174744 0 0 49.999266 475.00009 A 25 25 9.2174744 0 0 74.999358 450 A 25 25 9.2174744 0 0 67.676936 432.32233 z M 267.67767 632.32306 A 25 25 9.2174744 0 0 250 625.00064 A 25 25 9.2174744 0 0 224.99991 650.00073 A 25 25 9.2174744 0 0 250 675.00083 A 25 25 9.2174744 0 0 275.00009 650.00073 A 25 25 9.2174744 0 0 267.67767 632.32306 z M 126.25631 573.74369 A 25 25 45 0 0 90.900974 573.74369 A 25 25 45 0 0 90.900974 609.09903 A 25 25 45 0 0 126.25631 609.09903 A 25 25 45 0 0 126.25631 573.74369 z " transform="rotate(315 250 450)" />
</svg>
