<svg xmlns="http://www.w3.org/2000/svg" width="500" height="900">
    <path
        d="M250 199.998a50 50 0 0 0-21.693 4.953 50 50 0 0 0-9.48 5.957 50 50 0 0 0-17.573 27.965A50 50 0 0 0 200 249.998a50 50 0 0 0 1.254 11.127 50 50 0 0 0 9.654 20.049 50 50 0 0 0 7.918 7.916 50 50 0 0 0 17.309 8.697 50 50 0 0 0 2.738.96 50 50 0 0 0 .002 0 50 50 0 0 0 1.125.126A50 50 0 0 0 250 300a50 50 0 0 0 11.125-1.254 50 50 0 0 0 20.049-9.656 50 50 0 0 0 7.916-7.916 50 50 0 0 0 .002 0A50 50 0 0 0 300 250.002l.002-.004a50 50 0 0 0-50-49.998 50 50 0 0 0-.002 0v-.002zM250 600a50 50 0 0 0-39.092 18.826A50 50 0 0 0 200 649.998l-.002.004a50 50 0 0 0 50 49.998 50 50 0 0 0 .002 0v.002a50 50 0 0 0 21.693-4.953 50 50 0 0 0 9.48-5.957A50 50 0 0 0 300 650.002a50 50 0 0 0-8.143-27.35 50 50 0 0 0-2.4-3.361 50 50 0 0 0 0-.002 50 50 0 0 0-1.225-1.445 50 50 0 0 0-1.447-1.707A50 50 0 0 0 250 600z" />
    <path
        d="M 49.998047 399.99805 A 50 50 0 0 0 0 449.99805 A 50 50 0 0 0 0 450 L -0.001953125 450 A 50 50 0 0 0 4.9511719 471.69336 A 50 50 0 0 0 10.908203 481.17383 A 50 50 0 0 0 49.998047 500 A 50 50 0 0 0 77.347656 491.85742 A 50 50 0 0 0 80.708984 489.45703 A 50 50 0 0 0 80.710938 489.45703 A 50 50 0 0 0 82.15625 488.23242 A 50 50 0 0 0 83.863281 486.78516 A 50 50 0 0 0 100 450 A 50 50 0 0 0 81.173828 410.9082 A 50 50 0 0 0 50.001953 400 L 49.998047 399.99805 z M 450.00195 400 A 50 50 0 0 0 438.875 401.25391 A 50 50 0 0 0 418.82617 410.9082 A 50 50 0 0 0 410.91016 418.82617 A 50 50 0 0 0 402.21289 436.13477 A 50 50 0 0 0 401.25391 438.87305 A 50 50 0 0 0 401.25391 438.875 A 50 50 0 0 0 401.12695 440 A 50 50 0 0 0 400 450 A 50 50 0 0 0 401.25391 461.125 A 50 50 0 0 0 410.91016 481.17383 A 50 50 0 0 0 418.82617 489.08984 A 50 50 0 0 0 418.82617 489.0918 A 50 50 0 0 0 449.99805 500 L 450.00195 500.00195 A 50 50 0 0 0 500 450.00195 A 50 50 0 0 0 500 450 L 500.00195 450 A 50 50 0 0 0 495.04883 428.30664 A 50 50 0 0 0 489.0918 418.82617 A 50 50 0 0 0 461.12695 401.25391 A 50 50 0 0 0 450.00195 400 z " />
</svg>