<?xml version="1.0" encoding="UTF-8" standalone="no"?>
<svg width="500" height="900" version="1.1" id="svg8" sodipodi:docname="uni25cc.svg" inkscape:version="1.4.2 (ebf0e940, 2025-05-08)" xmlns:inkscape="http://www.inkscape.org/namespaces/inkscape" xmlns:sodipodi="http://sodipodi.sourceforge.net/DTD/sodipodi-0.dtd" xmlns="http://www.w3.org/2000/svg" xmlns:svg="http://www.w3.org/2000/svg">
    <defs id="defs8" />
    <sodipodi:namedview id="namedview8" pagecolor="#ffffff" bordercolor="#000000" borderopacity="0.25" inkscape:showpageshadow="2" inkscape:pageopacity="0.0" inkscape:pagecheckerboard="0" inkscape:deskcolor="#d1d1d1" inkscape:zoom="0.28135266" inkscape:cx="241.68956" inkscape:cy="451.3908" inkscape:window-width="1080" inkscape:window-height="647" inkscape:window-x="0" inkscape:window-y="25" inkscape:window-maximized="0" inkscape:current-layer="svg8" />
    <path id="circle1" d="M 250 225 A 25 25 0 0 0 225 250 A 25 25 0 0 0 250 275 A 25 25 0 0 0 275 250 A 25 25 0 0 0 250 225 z M 108.57812 283.57812 A 25 25 0 0 0 83.578125 308.57812 A 25 25 0 0 0 108.57812 333.57812 A 25 25 0 0 0 133.57812 308.57812 A 25 25 0 0 0 108.57812 283.57812 z M 391.42188 283.57812 A 25 25 0 0 0 366.42188 308.57812 A 25 25 0 0 0 391.42188 333.57812 A 25 25 0 0 0 416.42188 308.57812 A 25 25 0 0 0 391.42188 283.57812 z M 50 425 A 25 25 0 0 0 25 450 A 25 25 0 0 0 50 475 A 25 25 0 0 0 75 450 A 25 25 0 0 0 50 425 z M 450 425 A 25 25 0 0 0 425 450 A 25 25 0 0 0 450 475 A 25 25 0 0 0 475 450 A 25 25 0 0 0 450 425 z M 108.57812 566.42188 A 25 25 0 0 0 83.578125 591.42188 A 25 25 0 0 0 108.57812 616.42188 A 25 25 0 0 0 133.57812 591.42188 A 25 25 0 0 0 108.57812 566.42188 z M 391.42188 566.42188 A 25 25 0 0 0 366.42188 591.42188 A 25 25 0 0 0 391.42188 616.42188 A 25 25 0 0 0 416.42188 591.42188 A 25 25 0 0 0 391.42188 566.42188 z M 250 625 A 25 25 0 0 0 225 650 A 25 25 0 0 0 250 675 A 25 25 0 0 0 275 650 A 25 25 0 0 0 250 625 z " />
</svg>
