<?xml version="1.0" encoding="UTF-8" standalone="no"?>
<svg width="500" height="900" version="1.1" id="svg6" sodipodi:docname="uni25cc.svg" inkscape:version="1.4.2 (ebf0e940, 2025-05-08)" xmlns:inkscape="http://www.inkscape.org/namespaces/inkscape" xmlns:sodipodi="http://sodipodi.sourceforge.net/DTD/sodipodi-0.dtd" xmlns="http://www.w3.org/2000/svg" xmlns:svg="http://www.w3.org/2000/svg">
    <defs id="defs6" />
    <sodipodi:namedview id="namedview6" pagecolor="#ffffff" bordercolor="#000000" borderopacity="0.25" inkscape:showpageshadow="2" inkscape:pageopacity="0.0" inkscape:pagecheckerboard="0" inkscape:deskcolor="#d1d1d1" inkscape:zoom="0.2989372" inkscape:cx="244.19845" inkscape:cy="451.59987" inkscape:window-width="1080" inkscape:window-height="675" inkscape:window-x="0" inkscape:window-y="25" inkscape:window-maximized="0" inkscape:current-layer="svg6" />
    <path id="path1" d="M 250 199.99805 A 50 50 0 0 0 228.30664 204.95117 A 50 50 0 0 0 218.82617 210.9082 A 50 50 0 0 0 201.25391 238.87305 A 50 50 0 0 0 200 249.99805 A 50 50 0 0 0 201.25391 261.125 A 50 50 0 0 0 210.9082 281.17383 A 50 50 0 0 0 218.82617 289.08984 A 50 50 0 0 0 236.13477 297.78711 A 50 50 0 0 0 238.87305 298.74609 A 50 50 0 0 0 238.875 298.74609 A 50 50 0 0 0 240 298.87305 A 50 50 0 0 0 250 300 A 50 50 0 0 0 261.125 298.74609 A 50 50 0 0 0 281.17383 289.08984 A 50 50 0 0 0 289.08984 281.17383 A 50 50 0 0 0 289.0918 281.17383 A 50 50 0 0 0 300 250.00195 L 300.00195 249.99805 A 50 50 0 0 0 250.00195 200 A 50 50 0 0 0 250 200 L 250 199.99805 z M 108.57812 258.58008 A 50 50 0 0 0 102.97852 258.89453 A 50 50 0 0 0 92.0625 261.38477 A 50 50 0 0 0 73.222656 273.22266 A 50 50 0 0 1 73.222656 273.22461 A 50 50 0 0 0 73.220703 343.93359 L 73.222656 343.93359 L 73.224609 343.93555 L 154.75195 425.46289 A 25 25 0 0 0 150 425 A 25 25 0 0 0 142.61719 426.16797 A 25 25 0 0 0 140.35156 427.20312 A 25 25 0 0 0 135.9082 429.4668 A 25 25 0 0 0 133.68555 431.39453 A 25 25 0 0 0 131.10742 433.62891 A 25 25 0 0 0 130.60547 434.47461 A 25 25 0 0 0 127.72461 439.33008 A 25 25 0 0 0 126.48828 441.75586 A 25 25 0 0 0 125 450 A 25 25 0 0 0 150 475 A 25 25 0 0 0 175 450 A 25 25 0 0 0 174.82031 447.03516 A 25 25 0 0 0 174.79883 446.88477 A 25 25 0 0 0 174.53711 445.25 L 254.74219 525.45312 A 25 25 0 0 0 250 525 A 25 25 0 0 0 242.61133 526.16992 A 25 25 0 0 0 240.37305 527.19141 A 25 25 0 0 0 235.9082 529.4668 A 25 25 0 0 0 233.69336 531.38672 A 25 25 0 0 0 231.10547 533.62891 A 25 25 0 0 0 230.60156 534.47852 A 25 25 0 0 0 227.72656 539.32422 A 25 25 0 0 0 226.48828 541.75586 A 25 25 0 0 0 225 550 A 25 25 0 0 0 226.16797 557.38281 A 25 25 0 0 0 227.20312 559.64844 A 25 25 0 0 0 229.4668 564.0918 A 25 25 0 0 0 231.39453 566.31445 A 25 25 0 0 0 233.62891 568.89258 A 25 25 0 0 0 234.47461 569.39453 A 25 25 0 0 0 239.33008 572.27539 A 25 25 0 0 0 241.75586 573.51172 A 25 25 0 0 0 250 575 A 25 25 0 0 0 275 550 A 25 25 0 0 0 274.54688 545.25781 L 356.06641 626.77734 L 356.06836 626.77734 A 50 50 0 0 0 397.02148 641.10547 A 50 50 0 0 0 407.9375 638.61523 A 50 50 0 0 0 426.77734 626.77734 A 50 50 0 0 1 426.77734 626.77539 A 50 50 0 0 0 426.7793 556.06641 L 426.77734 556.06641 L 426.77539 556.06445 L 345.19531 474.48438 A 25 25 0 0 0 350 475 A 25 25 0 0 0 357.38281 473.83203 A 25 25 0 0 0 359.64844 472.79688 A 25 25 0 0 0 364.0918 470.5332 A 25 25 0 0 0 366.31445 468.60547 A 25 25 0 0 0 368.89258 466.37109 A 25 25 0 0 0 369.39453 465.52539 A 25 25 0 0 0 372.27539 460.66992 A 25 25 0 0 0 373.51172 458.24414 A 25 25 0 0 0 375 450 A 25 25 0 0 0 350 425 A 25 25 0 0 0 325 450 A 25 25 0 0 0 325.49609 454.78516 L 245.25781 374.54688 A 25 25 0 0 0 250 375 A 25 25 0 0 0 257.38867 373.83008 A 25 25 0 0 0 259.62695 372.80859 A 25 25 0 0 0 264.0918 370.5332 A 25 25 0 0 0 266.30664 368.61328 A 25 25 0 0 0 268.89453 366.37109 A 25 25 0 0 0 270.22461 364.69531 A 25 25 0 0 0 273.77539 357.72852 A 25 25 0 0 0 273.77734 357.7207 A 25 25 0 0 0 275 350 A 25 25 0 0 0 274.74414 346.57422 A 25 25 0 0 0 274.02344 343.2168 A 25 25 0 0 0 273.84961 342.6582 A 25 25 0 0 0 271.16211 336.77148 A 25 25 0 0 0 270.89062 336.32227 A 25 25 0 0 0 266.41797 331.16211 A 25 25 0 0 0 266.37109 331.10742 A 25 25 0 0 0 266.2793 331.05273 A 25 25 0 0 0 258.76758 326.59375 A 25 25 0 0 0 258.66992 326.56445 A 25 25 0 0 0 250 325 A 25 25 0 0 0 225 350 A 25 25 0 0 0 225.45312 354.74219 L 143.93359 273.22266 L 143.93164 273.22266 A 50 50 0 0 0 135.17969 266.24219 A 50 50 0 0 0 114.17578 258.89258 A 50 50 0 0 0 108.57812 258.58008 z M 320.15039 354.29688 A 25 25 0 0 0 316.80078 354.59766 A 25 25 0 0 0 303.0332 361.61133 A 25 25 0 0 0 301.05859 363.86328 A 25 25 0 0 0 300.52344 364.59961 A 25 25 0 0 0 300.52148 364.60156 A 25 25 0 0 0 299.3457 366.36133 A 25 25 0 0 0 298.83203 367.25391 A 25 25 0 0 0 298.82617 367.26367 A 25 25 0 0 0 298.43555 367.93945 A 25 25 0 0 0 298.08008 368.77539 A 25 25 0 0 0 297.35352 370.48828 A 25 25 0 0 0 297.35352 370.49023 A 25 25 0 0 0 296.86133 371.9375 A 25 25 0 0 0 296.37891 373.73633 A 25 25 0 0 0 296.08203 375.22656 A 25 25 0 0 0 295.85547 377.07812 A 25 25 0 0 0 295.85547 377.08398 A 25 25 0 0 0 295.75586 378.60742 A 25 25 0 0 0 295.71094 379.28906 A 25 25 0 0 0 295.78906 380.48633 A 25 25 0 0 0 295.88477 381.96875 A 25 25 0 0 0 296.18945 383.88281 A 25 25 0 0 0 296.19141 383.90039 A 25 25 0 0 0 296.47266 385.30859 A 25 25 0 0 0 296.5625 385.75977 A 25 25 0 0 0 297.04492 387.18359 A 25 25 0 0 0 297.50391 388.53125 A 25 25 0 0 0 297.61328 388.85547 A 25 25 0 0 0 298.36328 390.37695 A 25 25 0 0 0 298.96289 391.58984 A 25 25 0 0 0 299.06055 391.78906 A 25 25 0 0 0 300.16797 393.44727 A 25 25 0 0 0 300.81641 394.41602 A 25 25 0 0 0 303.0332 396.9668 A 25 25 0 0 0 305.44336 399.08008 A 25 25 0 0 0 305.49219 399.12305 A 25 25 0 0 0 306.29102 399.65625 A 25 25 0 0 0 306.33203 399.68359 A 25 25 0 0 0 308.11328 400.875 A 25 25 0 0 0 309.17188 401.41406 A 25 25 0 0 0 310.97656 402.30469 A 25 25 0 0 0 312.24219 402.75977 A 25 25 0 0 0 314 403.35547 A 25 25 0 0 0 314.24023 403.4375 A 25 25 0 0 0 315.37695 403.66406 A 25 25 0 0 0 316.80078 403.98242 A 25 25 0 0 0 317.12109 404.01172 A 25 25 0 0 0 318.90039 404.17188 A 25 25 0 0 0 320.42969 404.27148 A 25 25 0 0 0 322.2207 404.19141 A 25 25 0 0 0 323.73828 404.0918 A 25 25 0 0 0 325.5625 403.75977 A 25 25 0 0 0 326.99219 403.47461 A 25 25 0 0 0 326.99414 403.47461 A 25 25 0 0 0 327.18164 403.4375 A 25 25 0 0 0 328.79297 402.89062 A 25 25 0 0 0 330.14648 402.43164 A 25 25 0 0 0 330.27734 402.38672 A 25 25 0 0 0 331.87305 401.59961 A 25 25 0 0 0 333.13086 400.97852 A 25 25 0 0 0 333.21094 400.93945 A 25 25 0 0 0 334.93945 399.78516 A 25 25 0 0 0 335.89062 399.15039 A 25 25 0 0 0 338.38867 396.9668 A 25 25 0 0 0 338.38867 361.61133 A 25 25 0 0 0 320.15039 354.29688 z M 49.998047 399.99805 A 50 50 0 0 0 0 449.99805 A 50 50 0 0 0 0 450 L -0.001953125 450 A 50 50 0 0 0 4.9511719 471.69336 A 50 50 0 0 0 10.908203 481.17383 A 50 50 0 0 0 49.998047 500 A 50 50 0 0 0 77.347656 491.85742 A 50 50 0 0 0 80.708984 489.45703 A 50 50 0 0 0 80.710938 489.45703 A 50 50 0 0 0 82.15625 488.23242 A 50 50 0 0 0 83.863281 486.78516 A 50 50 0 0 0 100 450 A 50 50 0 0 0 81.173828 410.9082 A 50 50 0 0 0 50.001953 400 L 49.998047 399.99805 z M 450.00195 400 A 50 50 0 0 0 438.875 401.25391 A 50 50 0 0 0 418.82617 410.9082 A 50 50 0 0 0 410.91016 418.82617 A 50 50 0 0 0 402.21289 436.13477 A 50 50 0 0 0 401.25391 438.87305 A 50 50 0 0 0 401.25391 438.875 A 50 50 0 0 0 401.12695 440 A 50 50 0 0 0 400 450 A 50 50 0 0 0 401.25391 461.125 A 50 50 0 0 0 410.91016 481.17383 A 50 50 0 0 0 418.82617 489.08984 A 50 50 0 0 0 418.82617 489.0918 A 50 50 0 0 0 449.99805 500 L 450.00195 500.00195 A 50 50 0 0 0 500 450.00195 A 50 50 0 0 0 500 450 L 500.00195 450 A 50 50 0 0 0 495.04883 428.30664 A 50 50 0 0 0 489.0918 418.82617 A 50 50 0 0 0 461.12695 401.25391 A 50 50 0 0 0 450.00195 400 z M 178.72656 495.71875 A 25 25 0 0 0 175.37695 496.01953 A 25 25 0 0 0 161.61133 503.0332 A 25 25 0 0 0 161.61133 538.38867 A 25 25 0 0 0 196.9668 538.38867 A 25 25 0 0 0 196.9668 503.0332 A 25 25 0 0 0 178.72656 495.71875 z M 250 600 A 50 50 0 0 0 210.9082 618.82617 A 50 50 0 0 0 200 649.99805 L 199.99805 650.00195 A 50 50 0 0 0 249.99805 700 A 50 50 0 0 0 250 700 L 250 700.00195 A 50 50 0 0 0 271.69336 695.04883 A 50 50 0 0 0 281.17383 689.0918 A 50 50 0 0 0 300 650.00195 A 50 50 0 0 0 291.85742 622.65234 A 50 50 0 0 0 289.45703 619.29102 A 50 50 0 0 0 289.45703 619.28906 A 50 50 0 0 0 288.23242 617.84375 A 50 50 0 0 0 286.78516 616.13672 A 50 50 0 0 0 250 600 z " />
</svg>
