<?xml version="1.0" encoding="UTF-8" standalone="no"?>
<svg width="500" height="900" version="1.1" id="svg3" sodipodi:docname="uni25cc.svg" inkscape:version="1.4.2 (ebf0e940, 2025-05-08)" xmlns:inkscape="http://www.inkscape.org/namespaces/inkscape" xmlns:sodipodi="http://sodipodi.sourceforge.net/DTD/sodipodi-0.dtd" xmlns="http://www.w3.org/2000/svg" xmlns:svg="http://www.w3.org/2000/svg">
    <defs id="defs3" />
    <sodipodi:namedview id="namedview3" pagecolor="#ffffff" bordercolor="#000000" borderopacity="0.25" inkscape:showpageshadow="2" inkscape:pageopacity="0.0" inkscape:pagecheckerboard="0" inkscape:deskcolor="#d1d1d1" inkscape:zoom="0.2989372" inkscape:cx="244.19845" inkscape:cy="451.59987" inkscape:window-width="1080" inkscape:window-height="675" inkscape:window-x="0" inkscape:window-y="25" inkscape:window-maximized="0" inkscape:current-layer="svg3" />
    <path id="path1" d="M 250 199.99805 A 50 50 0 0 0 228.30664 204.95117 A 50 50 0 0 0 218.82617 210.9082 A 50 50 0 0 0 201.25391 238.87305 A 50 50 0 0 0 200 249.99805 A 50 50 0 0 0 201.25391 261.125 A 50 50 0 0 0 210.9082 281.17383 A 50 50 0 0 0 218.82617 289.08984 A 50 50 0 0 0 236.13477 297.78711 A 50 50 0 0 0 238.87305 298.74609 A 50 50 0 0 0 238.875 298.74609 A 50 50 0 0 0 240 298.87305 A 50 50 0 0 0 250 300 A 50 50 0 0 0 261.125 298.74609 A 50 50 0 0 0 281.17383 289.08984 A 50 50 0 0 0 289.08984 281.17383 A 50 50 0 0 0 289.0918 281.17383 A 50 50 0 0 0 300 250.00195 L 300.00195 249.99805 A 50 50 0 0 0 250.00195 200 A 50 50 0 0 0 250 200 L 250 199.99805 z M 49.998047 399.99805 A 50 50 0 0 0 0 449.99805 A 50 50 0 0 0 0 450 L -0.001953125 450 A 50 50 0 0 0 4.9511719 471.69336 A 50 50 0 0 0 10.908203 481.17383 A 50 50 0 0 0 49.998047 500 A 50 50 0 0 0 77.347656 491.85742 A 50 50 0 0 0 80.708984 489.45703 A 50 50 0 0 0 80.710938 489.45703 A 50 50 0 0 0 82.15625 488.23242 A 50 50 0 0 0 83.863281 486.78516 A 50 50 0 0 0 100 450 A 50 50 0 0 0 81.173828 410.9082 A 50 50 0 0 0 50.001953 400 L 49.998047 399.99805 z M 450.00195 400 A 50 50 0 0 0 438.875 401.25391 A 50 50 0 0 0 418.82617 410.9082 A 50 50 0 0 0 410.91016 418.82617 A 50 50 0 0 0 402.21289 436.13477 A 50 50 0 0 0 401.25391 438.87305 A 50 50 0 0 0 401.25391 438.875 A 50 50 0 0 0 401.12695 440 A 50 50 0 0 0 400 450 A 50 50 0 0 0 401.25391 461.125 A 50 50 0 0 0 410.91016 481.17383 A 50 50 0 0 0 418.82617 489.08984 A 50 50 0 0 0 418.82617 489.0918 A 50 50 0 0 0 449.99805 500 L 450.00195 500.00195 A 50 50 0 0 0 500 450.00195 A 50 50 0 0 0 500 450 L 500.00195 450 A 50 50 0 0 0 495.04883 428.30664 A 50 50 0 0 0 489.0918 418.82617 A 50 50 0 0 0 461.12695 401.25391 A 50 50 0 0 0 450.00195 400 z M 109.37891 541.42969 A 50 50 0 0 0 102.98047 541.73633 A 50 50 0 0 0 73.224609 556.06641 A 50 50 0 0 0 73.224609 626.77539 L 73.222656 626.77734 A 50 50 0 0 0 143.93359 626.77734 A 50 50 0 0 0 143.93359 556.06641 A 50 50 0 0 0 109.37891 541.42969 z M 392.2207 541.42969 A 50 50 0 0 0 385.82227 541.73633 A 50 50 0 0 0 356.06641 556.06641 A 50 50 0 0 0 356.06641 626.77539 L 356.06641 626.77734 A 50 50 0 0 0 426.77539 626.77734 A 50 50 0 0 0 426.77539 556.06641 A 50 50 0 0 0 392.2207 541.42969 z M 250 600 A 50 50 0 0 0 243.52148 600.42578 A 50 50 0 0 0 241.91406 600.74023 A 50 50 0 0 0 237.17578 601.68164 A 50 50 0 0 0 234.92383 602.42969 A 50 50 0 0 0 231.04102 603.74805 A 50 50 0 0 0 228.7168 604.86719 A 50 50 0 0 0 225.2207 606.5918 A 50 50 0 0 0 222.92773 608.08398 A 50 50 0 0 0 219.83203 610.15234 A 50 50 0 0 0 217.64258 612.01562 A 50 50 0 0 0 214.93555 614.38867 A 50 50 0 0 0 212.94336 616.58398 A 50 50 0 0 0 210.9082 618.82617 A 50 50 0 0 0 210.64844 619.20312 A 50 50 0 0 0 208.51758 622.2793 A 50 50 0 0 0 206.91406 624.67773 A 50 50 0 0 0 205.17383 628.0918 A 50 50 0 0 0 203.93164 630.60938 A 50 50 0 0 0 202.55859 634.53711 A 50 50 0 0 0 201.76953 636.85938 A 50 50 0 0 0 200.80469 641.57227 A 50 50 0 0 0 200.44727 643.36523 A 50 50 0 0 0 199.99805 650.00195 A 50 50 0 0 0 200.41211 656.31445 A 50 50 0 0 0 200.81836 658.49805 A 50 50 0 0 0 201.61719 662.52148 A 50 50 0 0 0 202.40234 665.00586 A 50 50 0 0 0 203.60742 668.55273 A 50 50 0 0 0 204.73047 671.01367 A 50 50 0 0 0 206.33203 674.25977 A 50 50 0 0 0 207.81641 676.67578 A 50 50 0 0 0 209.75586 679.57812 A 50 50 0 0 0 211.54492 681.82422 A 50 50 0 0 0 213.8457 684.44727 A 50 50 0 0 0 215.89062 686.44922 A 50 50 0 0 0 217.25586 687.78711 A 50 50 0 0 0 218.53906 688.77148 A 50 50 0 0 0 220.67969 690.41602 A 50 50 0 0 0 223.69531 692.42969 A 50 50 0 0 0 225.96875 693.7793 A 50 50 0 0 0 229.29688 695.41992 A 50 50 0 0 0 231.64453 696.45703 A 50 50 0 0 0 235.26172 697.6875 A 50 50 0 0 0 237.60547 698.40625 A 50 50 0 0 0 241.79492 699.23828 A 50 50 0 0 0 243.74023 699.58984 A 50 50 0 0 0 250 700.00195 A 50 50 0 0 0 250.00195 700.00195 A 50 50 0 0 0 250.01367 700.00195 A 50 50 0 0 0 256.09961 699.60156 A 50 50 0 0 0 258.08008 699.26562 A 50 50 0 0 0 262.10742 698.46484 A 50 50 0 0 0 264.39453 697.80664 A 50 50 0 0 0 267.97266 696.58984 A 50 50 0 0 0 270.24219 695.65039 A 50 50 0 0 0 271.69336 695.04883 A 50 50 0 0 0 273.60742 693.99023 A 50 50 0 0 0 275.72656 692.81836 A 50 50 0 0 0 279.04688 690.60156 A 50 50 0 0 0 280.78125 689.37109 A 50 50 0 0 0 281.17383 689.0918 A 50 50 0 0 0 283.2793 687.17969 A 50 50 0 0 0 285.63672 685.03906 A 50 50 0 0 0 287.81836 682.55078 A 50 50 0 0 0 289.86523 680.14648 A 50 50 0 0 0 291.72852 677.35742 A 50 50 0 0 0 293.42969 674.74219 A 50 50 0 0 0 294.95117 671.6582 A 50 50 0 0 0 296.26367 668.9375 A 50 50 0 0 0 297.36719 665.6875 A 50 50 0 0 0 298.33203 662.7793 A 50 50 0 0 0 299.04102 659.21094 A 50 50 0 0 0 299.58008 656.45117 A 50 50 0 0 0 299.91016 651.38867 A 50 50 0 0 0 300.00195 650.00195 A 50 50 0 0 0 299.98438 649.74805 A 50 50 0 0 0 299.59766 643.83984 A 50 50 0 0 0 299.23242 641.75195 A 50 50 0 0 0 298.43945 637.76953 A 50 50 0 0 0 297.73047 635.38672 A 50 50 0 0 0 296.53125 631.85742 A 50 50 0 0 0 295.51953 629.49414 A 50 50 0 0 0 293.90234 626.2168 A 50 50 0 0 0 292.60938 623.96094 A 50 50 0 0 0 291.85742 622.65234 A 50 50 0 0 0 289.91797 619.93555 A 50 50 0 0 0 289.57617 619.45703 A 50 50 0 0 0 289.45703 619.29102 A 50 50 0 0 0 289.45703 619.28906 A 50 50 0 0 0 288.23242 617.84375 A 50 50 0 0 0 286.78516 616.13672 A 50 50 0 0 0 286.07227 615.46289 A 50 50 0 0 0 283.35742 612.89258 A 50 50 0 0 0 281.11328 610.92383 A 50 50 0 0 0 278.04688 608.73438 A 50 50 0 0 0 275.5918 607.0957 A 50 50 0 0 0 272.16016 605.29883 A 50 50 0 0 0 269.61523 604.04492 A 50 50 0 0 0 265.85352 602.69336 A 50 50 0 0 0 263.26367 601.81445 A 50 50 0 0 0 259.01562 600.92578 A 50 50 0 0 0 256.68945 600.46289 A 50 50 0 0 0 250.58008 600.04102 A 50 50 0 0 0 250 600 z " />
</svg>
