<?xml version="1.0" encoding="UTF-8" standalone="no"?>
<svg width="500" height="850" version="1.1" id="svg7" sodipodi:docname="kodito.svg" inkscape:version="1.4.3 (0d15f750, 2025-12-25)" xmlns:inkscape="http://www.inkscape.org/namespaces/inkscape" xmlns:sodipodi="http://sodipodi.sourceforge.net/DTD/sodipodi-0.dtd" xmlns="http://www.w3.org/2000/svg" xmlns:svg="http://www.w3.org/2000/svg">
    <defs id="defs7" />
    <sodipodi:namedview id="namedview7" pagecolor="#ffffff" bordercolor="#000000" borderopacity="0.25" inkscape:showpageshadow="2" inkscape:pageopacity="0.0" inkscape:pagecheckerboard="0" inkscape:deskcolor="#d1d1d1" inkscape:zoom="1.2102014" inkscape:cx="210.29557" inkscape:cy="440.42255" inkscape:window-width="1080" inkscape:window-height="675" inkscape:window-x="0" inkscape:window-y="25" inkscape:window-maximized="0" inkscape:current-layer="svg7" />
    <path id="path7" style="fill:#000000;fill-opacity:0;stroke:#ff0000" d="M 250,300 A 125,125 0 0 0 125,425 125,125 0 0 0 250,550 125,125 0 0 0 375,425 125,125 0 0 0 250,300 Z m 0,50 a 75,75 0 0 1 75,75 75,75 0 0 1 -75,75 75,75 0 0 1 -75,-75 75,75 0 0 1 75,-75 z M 250,0 a 25,25 0 0 0 -25,25 v 800 a 25,25 0 0 0 25,25 25,25 0 0 0 25,-25 V 25 A 25,25 0 0 0 250,0 Z m 0,200 A 225,225 0 0 0 25,425 225,225 0 0 0 250,650 225,225 0 0 0 475,425 225,225 0 0 0 250,200 Z m 0,50 A 175,175 0 0 1 425,425 175,175 0 0 1 250,600 175,175 0 0 1 75,425 175,175 0 0 1 250,250 Z m 0,150 a 25,25 0 0 0 -25,25 25,25 0 0 0 7.36719,17.63281 l -0.0449,0.0449 141.42187,141.42188 a 25,25 0 0 0 35.35547,0 25,25 0 0 0 0,-35.35547 L 267.67773,407.32227 A 25,25 0 0 0 250,400 Z m -200,0 a 25,25 0 0 0 -25,25 25,25 0 0 0 0.25586,3.5625 A 225,225 0 0 0 250,650 a 225,225 0 0 0 31.94336,-2.28516 225,225 0 0 0 18.52539,-4.01757 225,225 0 0 0 12.74805,-2.77344 225,225 0 0 0 20.67773,-7.68555 225,225 0 0 0 9.32617,-3.47851 225,225 0 0 0 18.84571,-10.24805 225,225 0 0 0 9.28906,-5.07227 225,225 0 0 0 17.00976,-12.67578 225,225 0 0 0 8.6543,-6.47851 225,225 0 0 0 15.49414,-15.41211 225,225 0 0 0 7.17774,-7.17774 225,225 0 0 0 13.16406,-17.46679 225,225 0 0 0 6.08594,-8.13086 225,225 0 0 0 10.48047,-19.02344 225,225 0 0 0 4.93945,-9.04297 225,225 0 0 0 7.63086,-20.19727 225,225 0 0 0 3.64648,-9.77539 225,225 0 0 0 4.55078,-20.45507 225,225 0 0 0 2.35938,-10.84375 225,225 0 0 0 1.57422,-20.51172 A 225,225 0 0 0 475,425 225,225 0 0 0 474.74609,421.44141 25,25 0 0 0 450,400 25,25 0 0 0 425,425 175,175 0 0 1 277.37695,597.8457 175,175 0 0 1 250,600 175,175 0 0 1 75,425 25,25 0 0 0 50,400 Z m 56.79492,-141.35742 a 25,25 0 0 0 -15.89453,7.25781 25,25 0 0 0 0,35.35547 l 141.42188,141.42187 0.0449,-0.0449 A 25,25 0 0 0 250,450 25,25 0 0 0 275,425 25,25 0 0 0 267.67773,407.32227 L 126.25586,265.90039 a 25,25 0 0 0 -19.46094,-7.25781 z M 250,200 a 225,225 0 0 0 -31.94336,2.28516 225,225 0 0 0 -18.52539,4.01757 225,225 0 0 0 -12.74805,2.77344 225,225 0 0 0 -20.67773,7.68555 225,225 0 0 0 -9.32617,3.47851 225,225 0 0 0 -18.84571,10.24805 225,225 0 0 0 -9.28906,5.07227 225,225 0 0 0 -17.00976,12.67578 225,225 0 0 0 -8.6543,6.47851 225,225 0 0 0 -15.49414,15.41211 225,225 0 0 0 -7.17774,7.17774 225,225 0 0 0 -13.16406,17.46679 225,225 0 0 0 -6.08594,8.13086 225,225 0 0 0 -10.48046,19.02344 225,225 0 0 0 -4.93946,9.04297 225,225 0 0 0 -7.63086,20.19727 225,225 0 0 0 -3.64648,9.77539 225,225 0 0 0 -4.55078,20.45507 225,225 0 0 0 -2.35938,10.84375 225,225 0 0 0 -1.57422,20.51172 A 225,225 0 0 0 25,425 25,25 0 0 0 50,450 25,25 0 0 0 75,425 175,175 0 0 1 77.1543,397.62305 175,175 0 0 1 250,250 a 175,175 0 0 1 175,175 25,25 0 0 0 25,25 25,25 0 0 0 25,-25 25,25 0 0 0 -0.25586,-3.5625 A 225,225 0 0 0 250,200 Z" />
</svg>
