<svg width="500" height="1000" xmlns="http://www.w3.org/2000/svg" xmlns:xlink="http://www.w3.org/1999/xlink">
    <path
        d="M475 250a225 225 0 0 1-225 225A225 225 0 0 1 25 250 225 225 0 0 1 250 25a225 225 0 0 1 225 225Zm-50 0a175 175 0 0 1-175 175A175 175 0 0 1 75 250 175 175 0 0 1 250 75a175 175 0 0 1 175 175Zm-50 0a125 125 0 0 1-125 125 125 125 0 0 1-125-125 125 125 0 0 1 125-125 125 125 0 0 1 125 125Zm-50 0a75 75 0 0 1-75 75 75 75 0 0 1-75-75 75 75 0 0 1 75-75 75 75 0 0 1 75 75zm-50 0a25 25 0 0 1-25 25 25 25 0 0 1-25-25 25 25 0 0 1 25-25 25 25 0 0 1 25 25z"
        style="fill:none;stroke:red" transform="scale(1 2)" />
</svg>