<svg width="500" height="850" xmlns="http://www.w3.org/2000/svg">
    <path style="fill:#000000;fill-opacity:0;stroke:#ff0000"
        d="M 250,300 A 125,125 0 0 0 125,425 125,125 0 0 0 250,550 125,125 0 0 0 375,425 125,125 0 0 0 250,300 Z m 0,50 a 75,75 0 0 1 75,75 75,75 0 0 1 -75,75 75,75 0 0 1 -75,-75 75,75 0 0 1 75,-75 z M 250,0 a 25,25 0 0 0 -25,25 v 800 a 25,25 0 0 0 25,25 25,25 0 0 0 25,-25 V 25 A 25,25 0 0 0 250,0 Z m 0,200 A 225,225 0 0 0 25,425 225,225 0 0 0 250,650 225,225 0 0 0 475,425 225,225 0 0 0 250,200 Z m 0,50 A 175,175 0 0 1 425,425 175,175 0 0 1 250,600 175,175 0 0 1 75,425 175,175 0 0 1 250,250 Z m 0,150 a 25,25 0 0 0 -25,25 25,25 0 0 0 7.36719,17.63281 l -0.0449,0.0449 141.42187,141.42188 a 25,25 0 0 0 35.35547,0 25,25 0 0 0 0,-35.35547 L 267.67773,407.32227 A 25,25 0 0 0 250,400 Z m -200,0 c -13.807119,0 -25,11.19288 -25,25 A 225,225 0 0 0 250,650 225,225 0 0 0 475,425 c 0,-13.80712 -11.19288,-25 -25,-25 -13.80712,0 -25,11.19288 -25,25 A 175,175 0 0 1 250,600 175,175 0 0 1 75,425 C 75,411.19288 63.807119,400 50,400 Z m 56.79492,-141.35742 a 25,25 0 0 0 -15.89453,7.25781 25,25 0 0 0 0,35.35547 l 141.42188,141.42187 0.0449,-0.0449 A 25,25 0 0 0 250,450 25,25 0 0 0 275,425 25,25 0 0 0 267.67773,407.32227 L 126.25586,265.90039 a 25,25 0 0 0 -19.46094,-7.25781 z M 250,200 A 225,225 0 0 0 25,425 c 0,13.80712 11.192881,25 25,25 13.807119,0 25,-11.19288 25,-25 A 175,175 0 0 1 250,250 175,175 0 0 1 425,425 c 0,13.80712 11.19288,25 25,25 13.80712,0 25,-11.19288 25,-25 A 225,225 0 0 0 250,200 Z" />
    <circle cx="250" cy="325" r="25" style="fill:#000000;fill-opacity:0;stroke:#ff0000;" />
    <circle cx="250" cy="325" r="20" style="fill:#000000;fill-opacity:0;stroke:#ff0000;" />
    <circle cx="250" cy="325" r="15" style="fill:#000000;fill-opacity:0;stroke:#ff0000;" />
    <circle cx="250" cy="325" r="10" style="fill:#000000;fill-opacity:0;stroke:#ff0000;" />
    <circle cx="250" cy="325" r="05" style="fill:#000000;fill-opacity:0;stroke:#ff0000;" />
    <circle cx="250" cy="525" r="25" style="fill:#000000;fill-opacity:0;stroke:#ff0000;" />
    <circle cx="250" cy="525" r="20" style="fill:#000000;fill-opacity:0;stroke:#ff0000;" />
    <circle cx="250" cy="525" r="15" style="fill:#000000;fill-opacity:0;stroke:#ff0000;" />
    <circle cx="250" cy="525" r="10" style="fill:#000000;fill-opacity:0;stroke:#ff0000;" />
    <circle cx="250" cy="525" r="05" style="fill:#000000;fill-opacity:0;stroke:#ff0000;" />
    <circle cx="250" cy="305" r="05" />
    <circle cx="250" cy="325" r="05" />
    <circle cx="250" cy="345" r="05" />
    <circle cx="270" cy="325" r="05" />
    <circle cx="230" cy="325" r="05" />
    <circle cx="250" cy="505" r="05" />
    <circle cx="250" cy="525" r="05" />
    <circle cx="250" cy="545" r="05" />
    <circle cx="270" cy="525" r="05" />
    <circle cx="230" cy="525" r="05" />
</svg>