<?xml version="1.0" encoding="UTF-8" standalone="no"?>
<svg width="500" height="1000" version="1.1" id="svg136" sodipodi:docname="kodito.svg" inkscape:version="1.4.2 (ebf0e940, 2025-05-08)" xmlns:inkscape="http://www.inkscape.org/namespaces/inkscape" xmlns:sodipodi="http://sodipodi.sourceforge.net/DTD/sodipodi-0.dtd" xmlns="http://www.w3.org/2000/svg" xmlns:svg="http://www.w3.org/2000/svg">
    <defs id="defs136" />
    <sodipodi:namedview id="namedview136" pagecolor="#ffffff" bordercolor="#000000" borderopacity="0.25" inkscape:showpageshadow="2" inkscape:pageopacity="0.0" inkscape:pagecheckerboard="0" inkscape:deskcolor="#d1d1d1" inkscape:zoom="0.531" inkscape:cx="249.52919" inkscape:cy="500" inkscape:window-width="1440" inkscape:window-height="750" inkscape:window-x="0" inkscape:window-y="25" inkscape:window-maximized="0" inkscape:current-layer="svg136" />
    <path id="path136" style="fill:#000000;fill-opacity:0;stroke:#ff0000" transform="scale(1 2)translate(0,-175)" d="m 108.57812,258.57812 a 25,25 0 0 0 -1.55078,0.3086 25,25 0 0 0 -6.08984,1.21094 25,25 0 0 0 -2.626953,0.85351 25,25 0 0 0 -7.398438,4.94141 l -0.0039,0.002 -0.0059,0.006 h -0.002 l -0.0098,0.0137 a 225,225 0 0 0 -1.34375,1.55078 25,25 0 0 0 -0.984375,1.13672 225,225 0 0 0 -58.699219,110.81446 l -0.105469,0.72265 a 225,225 0 0 0 -4.128906,30.66797 225,225 0 0 0 -0.0059,1.9375 225,225 0 0 0 0.220703,29.73633 225,225 0 0 0 0.484375,3.44141 225,225 0 0 0 4.167969,27.84374 225,225 0 0 0 1.699218,5.86719 225,225 0 0 0 7.300782,24.4668 225,225 0 0 0 3.808594,8.43555 225,225 0 0 0 9.351562,20.32617 225,225 0 0 0 7.449219,11.71289 225,225 0 0 0 9.607422,14.9082 225,225 0 0 0 13.271484,15.47656 225,225 0 0 0 7.878906,9.09766 l 0.03906,0.041 -0.002,0.002 a 25,25 0 0 0 35.355469,0 25,25 0 0 0 0,-35.35547 175,175 0 0 1 -16.28711,-228.41992 l 263.77539,263.77539 a 25,25 0 0 0 7.40625,4.94727 25,25 0 0 0 2.61719,0.85156 25,25 0 0 0 6.10937,1.21679 25,25 0 0 0 3.08203,0 25,25 0 0 0 6.11524,-1.21679 25,25 0 0 0 2.61133,-0.84766 25,25 0 0 0 7.40234,-4.94336 l 0.004,-0.002 0.006,-0.006 0.0176,-0.0176 0.004,-0.004 0.0215,-0.0234 a 25,25 0 0 0 2.14258,-2.47852 l 0.1543,-0.17773 a 225,225 0 0 0 35.6582,-264.79688 225,225 0 0 0 -5.20508,-8.97656 225,225 0 0 0 -0.90429,-1.42383 225,225 0 0 0 -4.70117,-7.29492 225,225 0 0 0 -2.15039,-3.05078 225,225 0 0 0 -3.83985,-5.38477 225,225 0 0 0 -3.63867,-4.67578 225,225 0 0 0 -2.77539,-3.52539 225,225 0 0 0 -5.38477,-6.28125 225,225 0 0 0 -1.36718,-1.58008 225,225 0 0 0 -7.17383,-7.60351 l -0.01,-0.0156 a 25,25 0 0 0 -0.84765,-0.88672 l 0.002,-0.002 a 25,25 0 0 0 -17.67773,-7.32227 25,25 0 0 0 -17.67774,7.32227 25,25 0 0 0 0,35.35547 175,175 0 0 1 16.37891,228.51172 L 126.25586,265.90039 a 25,25 0 0 0 -7.4043,-4.94727 25,25 0 0 0 -2.63672,-0.85546 25,25 0 0 0 -6.08398,-1.21094 25,25 0 0 0 -1.55274,-0.3086 z M 150,200 a 25,25 0 0 0 -25,25 25,25 0 0 0 25,25 75,75 0 0 1 75,75 125,125 0 0 0 50.13672,100 A 125,125 0 0 0 225,525 a 75,75 0 0 1 -75,75 25,25 0 0 0 -25,25 25,25 0 0 0 25,25 125,125 0 0 0 125,-125 75,75 0 0 1 75,-75 25,25 0 0 0 25,-25 25,25 0 0 0 -25,-25 75,75 0 0 1 -75,-75 125,125 0 0 0 -125,-125 z m 100,0 a 25,25 0 0 0 -25,25 v 400 a 25,25 0 0 0 25,25 25,25 0 0 0 25,-25 V 225 a 25,25 0 0 0 -25,-25 z m 100,0 a 125,125 0 0 0 -125,125 75,75 0 0 1 -75,75 25,25 0 0 0 -25,25 25,25 0 0 0 25,25 75,75 0 0 1 75,75 125,125 0 0 0 125,125 25,25 0 0 0 25,-25 A 25,25 0 0 0 350,600 75,75 0 0 1 275,525 125,125 0 0 0 224.91406,424.95898 125,125 0 0 0 275,325 a 75,75 0 0 1 75,-75 25,25 0 0 0 25,-25 25,25 0 0 0 -25,-25 z m -245.33203,58.88672 a 25,25 0 0 0 -13.767579,7.01367 25,25 0 0 0 0,35.35547 L 373.74414,584.09961 a 25,25 0 0 0 35.35547,0 25,25 0 0 0 0,-35.35547 L 126.25586,265.90039 a 25,25 0 0 0 -21.58789,-7.01367 z M 250,200 a 25,25 0 0 0 -3.5625,0.25586 A 225,225 0 0 0 25,425 225,225 0 0 0 250,650 225,225 0 0 0 474.96875,426.24414 l 0.002,-0.0176 A 25,25 0 0 0 475,425 25,25 0 0 0 450,400 25,25 0 0 0 425,425 175,175 0 0 1 250,600 175,175 0 0 1 75,425 175,175 0 0 1 250,250 25,25 0 0 0 275,225 25,25 0 0 0 250,200 Z m 0,100 A 125,125 0 0 0 125,425 125,125 0 0 0 250,550 125,125 0 0 0 375,425 125,125 0 0 0 250,300 Z m 0,50 a 75,75 0 0 1 75,75 75,75 0 0 1 -75,75 75,75 0 0 1 -75,-75 75,75 0 0 1 75,-75 z M 104.66797,258.88672 a 25,25 0 0 0 -13.767579,7.01367 25,25 0 0 0 0,35.35547 L 373.74414,584.09961 a 25,25 0 0 0 35.35547,0 25,25 0 0 0 0,-35.35547 L 126.25586,265.90039 a 25,25 0 0 0 -21.58789,-7.01367 z m 129.9668,-58.33984 A 225,225 0 0 0 91.804688,265.04492 l -0.01563,0.01 a 25,25 0 0 0 -0.886718,0.84765 l -0.002,-0.002 a 25,25 0 0 0 0,35.35547 25,25 0 0 0 35.355469,0 175,175 0 0 1 247.48828,0 175,175 0 0 1 0,247.48828 175,175 0 0 1 -247.48828,0 25,25 0 0 0 -35.355469,0 25,25 0 0 0 0,35.35547 25,25 0 0 0 2.701171,2.33789 225,225 0 0 0 315.498048,-2.33789 225,225 0 0 0 0,-318.19727 225,225 0 0 0 -174.46484,-65.35546 z m -129.9668,58.33984 a 25,25 0 0 0 -13.767579,7.01367 25,25 0 0 0 0,35.35547 L 373.74414,584.09961 a 25,25 0 0 0 35.35547,0 25,25 0 0 0 0,-35.35547 L 126.25586,265.90039 a 25,25 0 0 0 -21.58789,-7.01367 z M 250,200 A 225,225 0 0 0 25.03125,423.75586 l -0.002,0.0176 A 25,25 0 0 0 25,425 25,25 0 0 0 50,450 25,25 0 0 0 75,425 175,175 0 0 1 250,250 175,175 0 0 1 425,425 175,175 0 0 1 250,600 a 25,25 0 0 0 -25,25 25,25 0 0 0 25,25 25,25 0 0 0 3.5625,-0.25586 A 225,225 0 0 0 475,425 225,225 0 0 0 250,200 Z M 50,400 a 25,25 0 0 0 -25,25 25,25 0 0 0 0.255859,3.5625 A 225,225 0 0 0 250,650 a 225,225 0 0 0 29.28516,-1.91895 225,225 0 0 0 17.63672,-3.49707 225,225 0 0 0 11.1582,-2.2207 225,225 0 0 0 18.83789,-6.37207 225,225 0 0 0 8.95898,-3.04101 225,225 0 0 0 18.28321,-8.98243 225,225 0 0 0 8.05664,-3.97265 225,225 0 0 0 17.27539,-11.49317 225,225 0 0 0 7.15234,-4.77832 225,225 0 0 0 15.73438,-13.73047 225,225 0 0 0 6.36718,-5.58496 225,225 0 0 0 13.74024,-15.57422 225,225 0 0 0 5.66406,-6.45898 225,225 0 0 0 11.5,-17.08398 225,225 0 0 0 4.86719,-7.28614 225,225 0 0 0 9.13476,-18.34082 225,225 0 0 0 3.92188,-7.9541 225,225 0 0 0 6.65234,-19.32226 225,225 0 0 0 2.86719,-8.44727 225,225 0 0 0 3.94922,-19.36231 225,225 0 0 0 1.87891,-9.44531 225,225 0 0 0 1.36914,-19.33496 A 225,225 0 0 0 475,425 25,25 0 0 0 450,400 25,25 0 0 0 425,425 175,175 0 0 1 274.9043,598.21875 175,175 0 0 1 250,600 175,175 0 0 1 75,425 25,25 0 0 0 50,400 Z m 54.66797,-141.11328 a 25,25 0 0 0 -13.767579,7.01367 25,25 0 0 0 0,35.35547 L 373.74414,584.09961 a 25,25 0 0 0 35.35547,0 25,25 0 0 0 0,-35.35547 L 126.25586,265.90039 a 25,25 0 0 0 -21.58789,-7.01367 z M 233.94922,200.57227 A 225,225 0 0 0 90.902344,265.90039 225,225 0 0 0 90.044922,583.19531 l 0.0098,0.0156 a 25,25 0 0 0 0.847656,0.88672 l -0.002,0.002 a 25,25 0 0 0 35.355469,0 25,25 0 0 0 0,-35.35547 175,175 0 0 1 0,-247.48828 175,175 0 0 1 247.48828,0 175,175 0 0 1 0,247.48828 25,25 0 0 0 0,35.35547 25,25 0 0 0 35.35547,0 25,25 0 0 0 2.33789,-2.70117 225,225 0 0 0 -2.33789,-315.49805 225,225 0 0 0 -175.15039,-65.32812 z M 250,400 a 25,25 0 0 0 -25,25 25,25 0 0 0 7.36719,17.63281 l -0.0449,0.0449 141.42187,141.42188 a 25,25 0 0 0 35.35547,0 25,25 0 0 0 0,-35.35547 L 267.67773,407.32227 A 25,25 0 0 0 250,400 Z M 108.57812,258.57812 a 25,25 0 0 0 -17.677729,7.32227 25,25 0 0 0 -2.337891,2.70117 225,225 0 0 0 2.337891,315.49805 225,225 0 0 0 318.197269,0 225,225 0 0 0 0.85742,-317.29492 l -0.01,-0.0156 a 25,25 0 0 0 -0.84765,-0.88672 l 0.002,-0.002 a 25,25 0 0 0 -35.35547,0 25,25 0 0 0 0,35.35547 175,175 0 0 1 0,247.48828 175,175 0 0 1 -247.48828,0 175,175 0 0 1 0,-247.48828 25,25 0 0 0 0,-35.35547 25,25 0 0 0 -17.67774,-7.32227 z M 250,200 a 25,25 0 0 0 -3.5625,0.25586 A 225,225 0 0 0 25,425 225,225 0 0 0 250,650 225,225 0 0 0 474.96875,426.24414 l 0.002,-0.0176 A 25,25 0 0 0 475,425 25,25 0 0 0 450,400 25,25 0 0 0 425,425 175,175 0 0 1 250,600 175,175 0 0 1 75,425 175,175 0 0 1 250,250 25,25 0 0 0 275,225 25,25 0 0 0 250,200 Z m -15.36523,0.54688 a 225,225 0 0 0 -2.11524,0.29687 225,225 0 0 0 -3.44141,0.48437 225,225 0 0 0 -27.84374,4.16797 225,225 0 0 0 -5.86719,1.69922 225,225 0 0 0 -24.4668,7.30078 225,225 0 0 0 -8.43555,3.8086 225,225 0 0 0 -20.32617,9.35156 225,225 0 0 0 -11.71289,7.44922 225,225 0 0 0 -14.9082,9.60742 225,225 0 0 0 -15.47656,13.27149 225,225 0 0 0 -8.236332,7.06054 l -0.01563,0.01 a 25,25 0 0 0 -0.845703,0.80859 l -0.04297,0.0371 a 225,225 0 0 0 -0.0059,318.19141 l 0.0059,0.006 v 0.002 a 25,25 0 0 0 1.564453,1.35351 25,25 0 0 0 1.136718,0.98438 225,225 0 0 0 110.814458,58.69922 l 0.72265,0.10547 a 225,225 0 0 0 30.66797,4.1289 225,225 0 0 0 1.9375,0.006 225,225 0 0 0 29.73633,-0.2207 225,225 0 0 0 3.44141,-0.48437 225,225 0 0 0 27.84374,-4.16797 225,225 0 0 0 5.86719,-1.69922 225,225 0 0 0 24.4668,-7.30078 225,225 0 0 0 8.43555,-3.8086 225,225 0 0 0 20.32617,-9.35156 225,225 0 0 0 11.71289,-7.44922 225,225 0 0 0 14.9082,-9.60742 225,225 0 0 0 15.47656,-13.27149 225,225 0 0 0 8.23633,-7.06054 l 0.0156,-0.01 a 25,25 0 0 0 0.8457,-0.80859 l 0.043,-0.0371 a 225,225 0 0 0 0.0176,-318.17773 l -0.0176,-0.0195 v -0.002 a 25,25 0 0 0 -1.56445,-1.35351 25,25 0 0 0 -1.13672,-0.98438 225,225 0 0 0 -110.81446,-58.69922 l -0.72265,-0.10547 a 225,225 0 0 0 -30.66797,-4.1289 225,225 0 0 0 -1.9375,-0.006 225,225 0 0 0 -27.62109,-0.0762 z M 250,250 a 175,175 0 0 1 123.74414,51.25586 175,175 0 0 1 0,247.48828 175,175 0 0 1 -96.36719,49.10156 175,175 0 0 1 -151.12109,-49.10156 175,175 0 0 1 0,-247.48828 175,175 0 0 1 20.88086,-17.83398 A 175,175 0 0 1 250,250 Z M 234.63477,200.54688 A 225,225 0 0 0 91.804688,265.04492 l -0.01563,0.01 a 25,25 0 0 0 -0.886718,0.84765 l -0.002,-0.002 a 25,25 0 0 0 0,35.35547 25,25 0 0 0 35.355469,0 175,175 0 0 1 247.48828,0 175,175 0 0 1 0,247.48828 175,175 0 0 1 -247.48828,0 25,25 0 0 0 -35.355469,0 25,25 0 0 0 0,35.35547 25,25 0 0 0 2.701171,2.33789 225,225 0 0 0 315.498048,-2.33789 225,225 0 0 0 0,-318.19727 225,225 0 0 0 -174.46484,-65.35546 z m 29.41992,0.0625 a 225,225 0 0 0 -173.154299,65.29101 225,225 0 0 0 0,318.19727 225,225 0 0 0 317.294919,0.85742 l 0.0156,-0.01 a 25,25 0 0 0 0.88672,-0.84765 l 0.002,0.002 a 25,25 0 0 0 0,-35.35547 25,25 0 0 0 -35.35547,0 175,175 0 0 1 -247.48828,0 175,175 0 0 1 0,-247.48828 175,175 0 0 1 247.48828,0 25,25 0 0 0 35.35547,0 25,25 0 0 0 0,-35.35547 25,25 0 0 0 -2.70117,-2.33789 225,225 0 0 0 -142.34375,-62.95312 z M 50,400 a 25,25 0 0 0 -25,25 25,25 0 0 0 0.255859,3.5625 A 225,225 0 0 0 250,650 a 225,225 0 0 0 29.28516,-1.91895 225,225 0 0 0 17.63672,-3.49707 225,225 0 0 0 11.1582,-2.2207 225,225 0 0 0 18.83789,-6.37207 225,225 0 0 0 8.95898,-3.04101 225,225 0 0 0 18.28321,-8.98243 225,225 0 0 0 8.05664,-3.97265 225,225 0 0 0 17.27539,-11.49317 225,225 0 0 0 7.15234,-4.77832 225,225 0 0 0 15.73438,-13.73047 225,225 0 0 0 6.36718,-5.58496 225,225 0 0 0 0.10157,-0.11523 25,25 0 0 0 0.25195,-0.19336 25,25 0 0 0 2.37891,-2.78906 225,225 0 0 0 11.00781,-12.47657 225,225 0 0 0 5.66406,-6.45898 225,225 0 0 0 11.5,-17.08398 225,225 0 0 0 4.86719,-7.28614 225,225 0 0 0 9.13476,-18.34082 225,225 0 0 0 3.92188,-7.9541 225,225 0 0 0 6.65234,-19.32226 225,225 0 0 0 2.86719,-8.44727 225,225 0 0 0 3.94922,-19.36231 225,225 0 0 0 1.87891,-9.44531 225,225 0 0 0 1.36914,-19.33496 A 225,225 0 0 0 475,425 25,25 0 0 0 450,400 25,25 0 0 0 425,425 175,175 0 0 1 389.94141,529.58496 L 267.67773,407.32227 A 25,25 0 0 0 250,400 a 25,25 0 0 0 -25,25 25,25 0 0 0 7.36719,17.63281 l -0.0449,0.0449 122.33593,122.33594 A 175,175 0 0 1 274.9043,598.21875 175,175 0 0 1 250,600 175,175 0 0 1 75,425 25,25 0 0 0 50,400 Z m 54.66797,-141.11328 a 25,25 0 0 0 -13.767579,7.01367 25,25 0 0 0 0,35.35547 L 373.74414,584.09961 a 25,25 0 0 0 35.35547,0 25,25 0 0 0 0,-35.35547 L 126.25586,265.90039 a 25,25 0 0 0 -21.58789,-7.01367 z M 250,200 A 225,225 0 0 0 25,425 225,225 0 0 0 248.75586,649.96875 l 0.0176,0.002 A 25,25 0 0 0 250,650 25,25 0 0 0 275,625 25,25 0 0 0 250,600 175,175 0 0 1 75,425 175,175 0 0 1 250,250 a 175,175 0 0 1 175,175 25,25 0 0 0 25,25 25,25 0 0 0 25,-25 25,25 0 0 0 -0.25586,-3.5625 A 225,225 0 0 0 250,200 Z m 0,0 A 225,225 0 0 0 25,425 225,225 0 0 0 248.75586,649.96875 l 0.0176,0.002 A 25,25 0 0 0 250,650 25,25 0 0 0 275,625 25,25 0 0 0 250,600 175,175 0 0 1 75,425 175,175 0 0 1 250,250 a 175,175 0 0 1 175,175 25,25 0 0 0 25,25 25,25 0 0 0 25,-25 25,25 0 0 0 -0.25586,-3.5625 A 225,225 0 0 0 250,200 Z m -145.33203,58.88672 a 25,25 0 0 0 -13.767579,7.01367 25,25 0 0 0 0,35.35547 L 373.74414,584.09961 a 25,25 0 0 0 35.35547,0 25,25 0 0 0 0,-35.35547 L 126.25586,265.90039 a 25,25 0 0 0 -21.58789,-7.01367 z m 129.9668,-58.33984 a 225,225 0 0 0 -2.11524,0.29687 225,225 0 0 0 -3.44141,0.48437 225,225 0 0 0 -27.84374,4.16797 225,225 0 0 0 -5.86719,1.69922 225,225 0 0 0 -24.4668,7.30078 225,225 0 0 0 -8.43555,3.8086 225,225 0 0 0 -20.32617,9.35156 225,225 0 0 0 -11.71289,7.44922 225,225 0 0 0 -14.9082,9.60742 225,225 0 0 0 -15.47656,13.27149 225,225 0 0 0 -8.236332,7.06054 l -0.01563,0.01 a 25,25 0 0 0 -0.845703,0.80859 l -0.04297,0.0371 a 225,225 0 0 0 -0.0059,318.19141 l 0.0059,0.006 v 0.002 a 25,25 0 0 0 1.564453,1.35351 25,25 0 0 0 1.136718,0.98438 225,225 0 0 0 110.814458,58.69922 l 0.72265,0.10547 a 225,225 0 0 0 30.66797,4.1289 225,225 0 0 0 1.9375,0.006 225,225 0 0 0 29.73633,-0.2207 225,225 0 0 0 3.44141,-0.48437 225,225 0 0 0 27.84374,-4.16797 225,225 0 0 0 5.86719,-1.69922 225,225 0 0 0 24.4668,-7.30078 225,225 0 0 0 8.43555,-3.8086 225,225 0 0 0 20.32617,-9.35156 225,225 0 0 0 11.71289,-7.44922 225,225 0 0 0 14.9082,-9.60742 225,225 0 0 0 15.47656,-13.27149 225,225 0 0 0 8.23633,-7.06054 l 0.0156,-0.01 a 25,25 0 0 0 0.8457,-0.80859 l 0.043,-0.0371 a 225,225 0 0 0 0.0176,-318.17773 l -0.0176,-0.0195 v -0.002 a 25,25 0 0 0 -1.56445,-1.35351 25,25 0 0 0 -1.13672,-0.98438 225,225 0 0 0 -110.81446,-58.69922 l -0.72265,-0.10547 a 225,225 0 0 0 -30.66797,-4.1289 225,225 0 0 0 -1.9375,-0.006 225,225 0 0 0 -27.62109,-0.0762 z M 250,250 a 175,175 0 0 1 123.74414,51.25586 175,175 0 0 1 0,247.48828 175,175 0 0 1 -96.36719,49.10156 175,175 0 0 1 -151.12109,-49.10156 175,175 0 0 1 0,-247.48828 175,175 0 0 1 20.88086,-17.83398 A 175,175 0 0 1 250,250 Z m 0,-50 a 25,25 0 0 0 -25,25 25,25 0 0 0 25,25 A 175,175 0 0 1 425,425 175,175 0 0 1 250,600 175,175 0 0 1 75,425 25,25 0 0 0 50,400 25,25 0 0 0 25,425 25,25 0 0 0 25.255859,428.5625 225,225 0 0 0 250,650 225,225 0 0 0 475,425 225,225 0 0 0 251.24414,200.03125 l -0.0176,-0.002 A 25,25 0 0 0 250,200 Z m 0,100 A 125,125 0 0 0 125,425 125,125 0 0 0 250,550 125,125 0 0 0 375,425 125,125 0 0 0 250,300 Z m 0,50 a 75,75 0 0 1 75,75 75,75 0 0 1 -75,75 75,75 0 0 1 -75,-75 75,75 0 0 1 75,-75 z M 104.66797,258.88672 a 25,25 0 0 0 -13.767579,7.01367 25,25 0 0 0 0,35.35547 L 373.74414,584.09961 a 25,25 0 0 0 35.35547,0 25,25 0 0 0 0,-35.35547 L 126.25586,265.90039 a 25,25 0 0 0 -21.58789,-7.01367 z M 250,200 a 25,25 0 0 0 -3.5625,0.25586 A 225,225 0 0 0 25,425 225,225 0 0 0 250,650 225,225 0 0 0 474.96875,426.24414 l 0.002,-0.0176 A 25,25 0 0 0 475,425 25,25 0 0 0 450,400 25,25 0 0 0 425,425 175,175 0 0 1 250,600 175,175 0 0 1 75,425 175,175 0 0 1 250,250 25,25 0 0 0 275,225 25,25 0 0 0 250,200 Z m 0,0 a 225,225 0 0 0 -29.28516,1.91895 225,225 0 0 0 -17.63672,3.49707 225,225 0 0 0 -11.1582,2.2207 225,225 0 0 0 -18.83789,6.37207 225,225 0 0 0 -8.95898,3.04101 225,225 0 0 0 -18.28321,8.98243 225,225 0 0 0 -8.05664,3.97265 225,225 0 0 0 -17.27539,11.49317 225,225 0 0 0 -7.15234,4.77832 225,225 0 0 0 -15.734376,13.73047 225,225 0 0 0 -6.367188,5.58496 225,225 0 0 0 -13.740234,15.57422 225,225 0 0 0 -5.664063,6.45898 225,225 0 0 0 -11.5,17.08398 225,225 0 0 0 -4.867187,7.28614 225,225 0 0 0 -9.134766,18.34082 225,225 0 0 0 -3.921875,7.9541 225,225 0 0 0 -6.652343,19.32226 225,225 0 0 0 -2.867188,8.44727 225,225 0 0 0 -3.949219,19.36231 225,225 0 0 0 -1.878906,9.44531 225,225 0 0 0 -1.369141,19.33496 A 225,225 0 0 0 25,425 25,25 0 0 0 50,450 25,25 0 0 0 75,425 175,175 0 0 1 76.78125,400.09473 175,175 0 0 1 250,250 a 175,175 0 0 1 175,175 25,25 0 0 0 25,25 25,25 0 0 0 25,-25 25,25 0 0 0 -0.25586,-3.5625 A 225,225 0 0 0 250,200 Z m 0,0 A 225,225 0 0 0 25.03125,423.75586 l -0.002,0.0176 A 25,25 0 0 0 25,425 25,25 0 0 0 50,450 25,25 0 0 0 75,425 175,175 0 0 1 250,250 175,175 0 0 1 425,425 175,175 0 0 1 250,600 a 25,25 0 0 0 -25,25 25,25 0 0 0 25,25 25,25 0 0 0 3.5625,-0.25586 A 225,225 0 0 0 475,425 225,225 0 0 0 250,200 Z m -145.33203,58.88672 a 25,25 0 0 0 -13.767579,7.01367 25,25 0 0 0 0,35.35547 L 373.74414,584.09961 a 25,25 0 0 0 35.35547,0 25,25 0 0 0 0,-35.35547 L 126.25586,265.90039 a 25,25 0 0 0 -21.58789,-7.01367 z M 250,200 a 25,25 0 0 0 -25,25 25,25 0 0 0 25,25 A 175,175 0 0 1 425,425 175,175 0 0 1 250,600 175,175 0 0 1 75,425 25,25 0 0 0 50,400 25,25 0 0 0 25,425 25,25 0 0 0 25.255859,428.5625 225,225 0 0 0 250,650 225,225 0 0 0 475,425 225,225 0 0 0 251.24414,200.03125 l -0.0176,-0.002 A 25,25 0 0 0 250,200 Z m -16.05078,0.57227 A 225,225 0 0 0 90.902344,265.90039 225,225 0 0 0 90.044922,583.19531 l 0.0098,0.0156 a 25,25 0 0 0 0.847656,0.88672 l -0.002,0.002 a 25,25 0 0 0 35.355469,0 25,25 0 0 0 0,-35.35547 175,175 0 0 1 0,-247.48828 175,175 0 0 1 247.48828,0 175,175 0 0 1 0,247.48828 25,25 0 0 0 0,35.35547 25,25 0 0 0 35.35547,0 25,25 0 0 0 2.33789,-2.70117 225,225 0 0 0 -2.33789,-315.49805 225,225 0 0 0 -175.15039,-65.32812 z m -127.1543,58.07031 a 25,25 0 0 0 -15.89453,7.25781 25,25 0 0 0 0,35.35547 l 141.42188,141.42187 0.0449,-0.0449 A 25,25 0 0 0 250,450 25,25 0 0 0 275,425 25,25 0 0 0 267.67773,407.32227 L 126.25586,265.90039 a 25,25 0 0 0 -19.46094,-7.25781 z m -2.12695,0.24414 a 25,25 0 0 0 -13.767579,7.01367 25,25 0 0 0 0,35.35547 L 373.74414,584.09961 a 25,25 0 0 0 35.35547,0 25,25 0 0 0 0,-35.35547 L 126.25586,265.90039 a 25,25 0 0 0 -21.58789,-7.01367 z m 3.91015,-0.3086 a 25,25 0 0 0 -17.677729,7.32227 25,25 0 0 0 -2.337891,2.70117 225,225 0 0 0 2.337891,315.49805 225,225 0 0 0 318.197269,0 225,225 0 0 0 0.85742,-317.29492 l -0.01,-0.0156 a 25,25 0 0 0 -0.84765,-0.88672 l 0.002,-0.002 a 25,25 0 0 0 -35.35547,0 25,25 0 0 0 0,35.35547 175,175 0 0 1 0,247.48828 175,175 0 0 1 -247.48828,0 175,175 0 0 1 0,-247.48828 25,25 0 0 0 0,-35.35547 25,25 0 0 0 -17.67774,-7.32227 z m -3.91015,0.3086 a 25,25 0 0 0 -13.767579,7.01367 25,25 0 0 0 0,35.35547 L 373.74414,584.09961 a 25,25 0 0 0 35.35547,0 25,25 0 0 0 0,-35.35547 L 126.25586,265.90039 a 25,25 0 0 0 -21.58789,-7.01367 z m 129.9668,-58.33984 A 225,225 0 0 0 91.804688,265.04492 l -0.01563,0.01 a 25,25 0 0 0 -0.886718,0.84765 l -0.002,-0.002 a 25,25 0 0 0 0,35.35547 25,25 0 0 0 35.355469,0 175,175 0 0 1 247.48828,0 175,175 0 0 1 0,247.48828 175,175 0 0 1 -247.48828,0 25,25 0 0 0 -35.355469,0 25,25 0 0 0 0,35.35547 25,25 0 0 0 2.701171,2.33789 225,225 0 0 0 315.498048,-2.33789 225,225 0 0 0 0,-318.19727 225,225 0 0 0 -174.46484,-65.35546 z m -129.9668,58.33984 a 25,25 0 0 0 -13.767579,7.01367 25,25 0 0 0 0,35.35547 L 373.74414,584.09961 a 25,25 0 0 0 35.35547,0 25,25 0 0 0 0,-35.35547 L 126.25586,265.90039 a 25,25 0 0 0 -21.58789,-7.01367 z m 159.38672,-58.27734 a 225,225 0 0 0 -173.154299,65.29101 225,225 0 0 0 0,318.19727 225,225 0 0 0 317.294919,0.85742 l 0.0156,-0.01 a 25,25 0 0 0 0.88672,-0.84765 l 0.002,0.002 a 25,25 0 0 0 0,-35.35547 25,25 0 0 0 -35.35547,0 175,175 0 0 1 -247.48828,0 175,175 0 0 1 0,-247.48828 175,175 0 0 1 247.48828,0 25,25 0 0 0 35.35547,0 25,25 0 0 0 0,-35.35547 25,25 0 0 0 -2.70117,-2.33789 225,225 0 0 0 -142.34375,-62.95312 z M 250,200 a 225,225 0 0 0 -29.28516,1.91895 225,225 0 0 0 -17.63672,3.49707 225,225 0 0 0 -11.1582,2.2207 225,225 0 0 0 -18.83789,6.37207 225,225 0 0 0 -8.95898,3.04101 225,225 0 0 0 -18.28321,8.98243 225,225 0 0 0 -8.05664,3.97265 225,225 0 0 0 -17.27539,11.49317 225,225 0 0 0 -7.15234,4.77832 225,225 0 0 0 -15.734376,13.73047 225,225 0 0 0 -6.367188,5.58496 225,225 0 0 0 -0.08789,0.0996 25,25 0 0 0 -0.265625,0.20898 25,25 0 0 0 -0.542969,0.70703 225,225 0 0 0 -12.84375,14.5586 225,225 0 0 0 -5.664063,6.45898 225,225 0 0 0 -11.5,17.08398 225,225 0 0 0 -4.867187,7.28614 225,225 0 0 0 -9.134766,18.34082 225,225 0 0 0 -3.921875,7.9541 225,225 0 0 0 -6.652343,19.32226 225,225 0 0 0 -2.867188,8.44727 225,225 0 0 0 -3.949219,19.36231 225,225 0 0 0 -1.878906,9.44531 225,225 0 0 0 -1.369141,19.33496 A 225,225 0 0 0 25,425 a 25,25 0 0 0 25,25 25,25 0 0 0 25,-25 175,175 0 0 1 1.78125,-24.90527 175,175 0 0 1 33.20508,-79.75293 l 122.33594,122.33593 0.0449,-0.0449 A 25,25 0 0 0 250,450 25,25 0 0 0 275,425 25,25 0 0 0 267.67773,407.32227 L 145.41602,285.05957 A 175,175 0 0 1 250,250 a 175,175 0 0 1 175,175 25,25 0 0 0 25,25 25,25 0 0 0 25,-25 25,25 0 0 0 -0.25586,-3.5625 A 225,225 0 0 0 250,200 Z m 0,0 a 25,25 0 0 0 -25,25 25,25 0 0 0 25,25 175,175 0 0 1 116.61133,44.51172 175,175 0 0 1 7.13281,6.74414 A 175,175 0 0 1 424.72461,415.1875 175,175 0 0 1 425,425 a 25,25 0 0 0 25,25 25,25 0 0 0 25,-25 25,25 0 0 0 -0.25586,-3.5625 225,225 0 0 0 -36.85937,-119.87695 l -0.31446,-0.42188 a 225,225 0 0 0 -18.90039,-24.7832 225,225 0 0 0 -1.04492,-1.04883 225,225 0 0 0 -21.49023,-21.17578 225,225 0 0 0 -2.66016,-2.00391 225,225 0 0 0 -22.75586,-16.82812 225,225 0 0 0 -5.09766,-2.8086 225,225 0 0 0 -22.72851,-12.28125 225,225 0 0 0 -8.25196,-3.11718 225,225 0 0 0 -21.38085,-7.90625 225,225 0 0 0 -13.08008,-2.91211 225,225 0 0 0 -17.82031,-3.85352 225,225 0 0 0 -19.57227,-1.50195 A 225,225 0 0 0 250,200 Z M 108.578,541.422 a 25,25 0 0 0 -17.678,7.322 25,25 0 0 0 -0.006,35.348 l 0.006,0.006 a 225,225 0 0 0 1.565,1.355 25,25 0 0 0 1.137,0.985 225,225 0 0 0 110.814,58.699 l 0.723,0.105 a 225,225 0 0 0 30.668,4.13 225,225 0 0 0 1.937,0.005 225,225 0 0 0 29.736,-0.22 225,225 0 0 0 3.442,-0.485 225,225 0 0 0 27.844,-4.168 225,225 0 0 0 5.867,-1.699 225,225 0 0 0 24.467,-7.3 225,225 0 0 0 8.435,-3.81 225,225 0 0 0 20.326,-9.351 225,225 0 0 0 11.713,-7.45 225,225 0 0 0 14.908,-9.607 225,225 0 0 0 15.477,-13.271 225,225 0 0 0 9.098,-7.879 l 0.04,-0.04 0.003,0.003 a 25,25 0 0 0 0,-35.356 25,25 0 0 0 -35.356,0 175,175 0 0 1 -96.367,49.102 175,175 0 0 1 -151.121,-49.102 25,25 0 0 0 -17.678,-7.322 z M 262.256,200.623 a 225,225 0 0 0 -29.736,0.22 225,225 0 0 0 -3.442,0.485 225,225 0 0 0 -27.844,4.168 225,225 0 0 0 -5.867,1.7 225,225 0 0 0 -24.467,7.3 225,225 0 0 0 -8.435,3.809 225,225 0 0 0 -20.326,9.351 225,225 0 0 0 -11.713,7.45 225,225 0 0 0 -14.908,9.607 225,225 0 0 0 -15.477,13.271 225,225 0 0 0 -9.098,7.88 l -0.04,0.038 L 90.9,265.9 a 25,25 0 0 0 0,35.356 25,25 0 0 0 35.356,0 175,175 0 0 1 20.88,-17.834 175,175 0 0 1 226.608,17.834 25,25 0 0 0 35.356,0 25,25 0 0 0 0.017,-35.334 l -0.017,-0.02 a 225,225 0 0 0 -1.565,-1.355 25,25 0 0 0 -1.137,-0.984 225,225 0 0 0 -110.814,-58.7 l -0.723,-0.105 a 225,225 0 0 0 -30.668,-4.13 225,225 0 0 0 -1.937,-0.005 z M 150,200 a 25,25 0 0 0 -25,25 25,25 0 0 0 25,25 h 100 a 75,75 0 0 1 75,75 v 200 a 75,75 0 0 1 -75,75 H 150 a 25,25 0 0 0 -25,25 25,25 0 0 0 25,25 H 250 A 125,125 0 0 0 375,525 V 325 A 125,125 0 0 0 250,200 Z m -45.33203,58.88672 a 25,25 0 0 0 -13.767579,7.01367 25,25 0 0 0 0,35.35547 L 373.74414,584.09961 a 25,25 0 0 0 35.35547,0 25,25 0 0 0 0,-35.35547 L 126.25586,265.90039 a 25,25 0 0 0 -21.58789,-7.01367 z M 250,200 A 125,125 0 0 0 125,325 v 200 a 125,125 0 0 0 125,125 h 100 a 25,25 0 0 0 25,-25 25,25 0 0 0 -25,-25 H 250 A 75,75 0 0 1 175,525 V 325 a 75,75 0 0 1 75,-75 h 100 a 25,25 0 0 0 25,-25 25,25 0 0 0 -25,-25 z m -145.33203,58.88672 a 25,25 0 0 0 -13.767579,7.01367 25,25 0 0 0 0,35.35547 L 373.74414,584.09961 a 25,25 0 0 0 35.35547,0 25,25 0 0 0 0,-35.35547 L 126.25586,265.90039 a 25,25 0 0 0 -21.58789,-7.01367 z M 250,200 a 25,25 0 0 0 -3.5625,0.25586 A 225,225 0 0 0 25,425 225,225 0 0 0 250,650 225,225 0 0 0 474.96875,426.24414 l 0.002,-0.0176 A 25,25 0 0 0 475,425 25,25 0 0 0 450,400 25,25 0 0 0 425,425 175,175 0 0 1 250,600 175,175 0 0 1 75,425 175,175 0 0 1 250,250 25,25 0 0 0 275,225 25,25 0 0 0 250,200 Z m 0,100 A 125,125 0 0 0 125,425 125,125 0 0 0 250,550 125,125 0 0 0 375,425 125,125 0 0 0 250,300 Z m 0,50 a 75,75 0 0 1 75,75 75,75 0 0 1 -75,75 75,75 0 0 1 -75,-75 75,75 0 0 1 75,-75 z M 104.66797,258.88672 a 25,25 0 0 0 -13.767579,7.01367 25,25 0 0 0 0,35.35547 L 373.74414,584.09961 a 25,25 0 0 0 35.35547,0 25,25 0 0 0 0,-35.35547 L 126.25586,265.90039 a 25,25 0 0 0 -21.58789,-7.01367 z m 129.9668,-58.33984 A 225,225 0 0 0 91.804688,265.04492 l -0.01563,0.01 a 25,25 0 0 0 -0.886718,0.84765 l -0.002,-0.002 a 25,25 0 0 0 0,35.35547 25,25 0 0 0 35.355469,0 175,175 0 0 1 247.48828,0 175,175 0 0 1 0,247.48828 175,175 0 0 1 -247.48828,0 25,25 0 0 0 -35.355469,0 25,25 0 0 0 0,35.35547 25,25 0 0 0 2.701171,2.33789 225,225 0 0 0 315.498048,-2.33789 225,225 0 0 0 0,-318.19727 225,225 0 0 0 -174.46484,-65.35546 z m -129.9668,58.33984 a 25,25 0 0 0 -13.767579,7.01367 25,25 0 0 0 0,35.35547 L 373.74414,584.09961 a 25,25 0 0 0 35.35547,0 25,25 0 0 0 0,-35.35547 L 126.25586,265.90039 a 25,25 0 0 0 -21.58789,-7.01367 z M 250,200 A 225,225 0 0 0 25.03125,423.75586 l -0.002,0.0176 A 25,25 0 0 0 25,425 25,25 0 0 0 50,450 25,25 0 0 0 75,425 175,175 0 0 1 250,250 175,175 0 0 1 425,425 175,175 0 0 1 250,600 a 25,25 0 0 0 -25,25 25,25 0 0 0 25,25 25,25 0 0 0 3.5625,-0.25586 A 225,225 0 0 0 475,425 225,225 0 0 0 250,200 Z M 50,400 a 25,25 0 0 0 -25,25 25,25 0 0 0 0.255859,3.5625 A 225,225 0 0 0 250,650 a 225,225 0 0 0 29.28516,-1.91895 225,225 0 0 0 17.63672,-3.49707 225,225 0 0 0 11.1582,-2.2207 225,225 0 0 0 18.83789,-6.37207 225,225 0 0 0 8.95898,-3.04101 225,225 0 0 0 18.28321,-8.98243 225,225 0 0 0 8.05664,-3.97265 225,225 0 0 0 17.27539,-11.49317 225,225 0 0 0 7.15234,-4.77832 225,225 0 0 0 15.73438,-13.73047 225,225 0 0 0 6.36718,-5.58496 225,225 0 0 0 13.74024,-15.57422 225,225 0 0 0 5.66406,-6.45898 225,225 0 0 0 11.5,-17.08398 225,225 0 0 0 4.86719,-7.28614 225,225 0 0 0 9.13476,-18.34082 225,225 0 0 0 3.92188,-7.9541 225,225 0 0 0 6.65234,-19.32226 225,225 0 0 0 2.86719,-8.44727 225,225 0 0 0 3.94922,-19.36231 225,225 0 0 0 1.87891,-9.44531 225,225 0 0 0 1.36914,-19.33496 A 225,225 0 0 0 475,425 25,25 0 0 0 450,400 25,25 0 0 0 425,425 175,175 0 0 1 274.9043,598.21875 175,175 0 0 1 250,600 175,175 0 0 1 75,425 25,25 0 0 0 50,400 Z m 54.66797,-141.11328 a 25,25 0 0 0 -13.767579,7.01367 25,25 0 0 0 0,35.35547 L 373.74414,584.09961 a 25,25 0 0 0 35.35547,0 25,25 0 0 0 0,-35.35547 L 126.25586,265.90039 a 25,25 0 0 0 -21.58789,-7.01367 z M 233.94922,200.57227 A 225,225 0 0 0 90.902344,265.90039 225,225 0 0 0 90.044922,583.19531 l 0.0098,0.0156 a 25,25 0 0 0 0.847656,0.88672 l -0.002,0.002 a 25,25 0 0 0 35.355469,0 25,25 0 0 0 0,-35.35547 175,175 0 0 1 0,-247.48828 175,175 0 0 1 247.48828,0 175,175 0 0 1 0,247.48828 25,25 0 0 0 0,35.35547 25,25 0 0 0 35.35547,0 25,25 0 0 0 2.33789,-2.70117 225,225 0 0 0 -2.33789,-315.49805 225,225 0 0 0 -175.15039,-65.32812 z M 250,400 a 25,25 0 0 0 -25,25 25,25 0 0 0 7.36719,17.63281 l -0.0449,0.0449 141.42187,141.42188 a 25,25 0 0 0 35.35547,0 25,25 0 0 0 0,-35.35547 L 267.67773,407.32227 A 25,25 0 0 0 250,400 Z M 108.57812,258.57812 a 25,25 0 0 0 -17.677729,7.32227 25,25 0 0 0 -2.337891,2.70117 225,225 0 0 0 2.337891,315.49805 225,225 0 0 0 318.197269,0 225,225 0 0 0 0.85742,-317.29492 l -0.01,-0.0156 a 25,25 0 0 0 -0.84765,-0.88672 l 0.002,-0.002 a 25,25 0 0 0 -35.35547,0 25,25 0 0 0 0,35.35547 175,175 0 0 1 0,247.48828 175,175 0 0 1 -247.48828,0 175,175 0 0 1 0,-247.48828 25,25 0 0 0 0,-35.35547 25,25 0 0 0 -17.67774,-7.32227 z M 250,200 a 25,25 0 0 0 -3.5625,0.25586 A 225,225 0 0 0 25,425 225,225 0 0 0 250,650 225,225 0 0 0 474.96875,426.24414 l 0.002,-0.0176 A 25,25 0 0 0 475,425 25,25 0 0 0 450,400 25,25 0 0 0 425,425 175,175 0 0 1 250,600 175,175 0 0 1 75,425 175,175 0 0 1 250,250 25,25 0 0 0 275,225 25,25 0 0 0 250,200 Z m -15.36523,0.54688 a 225,225 0 0 0 -2.11524,0.29687 225,225 0 0 0 -3.44141,0.48437 225,225 0 0 0 -27.84374,4.16797 225,225 0 0 0 -5.86719,1.69922 225,225 0 0 0 -24.4668,7.30078 225,225 0 0 0 -8.43555,3.8086 225,225 0 0 0 -20.32617,9.35156 225,225 0 0 0 -11.71289,7.44922 225,225 0 0 0 -14.9082,9.60742 225,225 0 0 0 -15.47656,13.27149 225,225 0 0 0 -8.236332,7.06054 l -0.01563,0.01 a 25,25 0 0 0 -0.845703,0.80859 l -0.04297,0.0371 a 225,225 0 0 0 -0.0059,318.19141 l 0.0059,0.006 v 0.002 a 25,25 0 0 0 1.564453,1.35351 25,25 0 0 0 1.136718,0.98438 225,225 0 0 0 110.814458,58.69922 l 0.72265,0.10547 a 225,225 0 0 0 30.66797,4.1289 225,225 0 0 0 1.9375,0.006 225,225 0 0 0 29.73633,-0.2207 225,225 0 0 0 3.44141,-0.48437 225,225 0 0 0 27.84374,-4.16797 225,225 0 0 0 5.86719,-1.69922 225,225 0 0 0 24.4668,-7.30078 225,225 0 0 0 8.43555,-3.8086 225,225 0 0 0 20.32617,-9.35156 225,225 0 0 0 11.71289,-7.44922 225,225 0 0 0 14.9082,-9.60742 225,225 0 0 0 15.47656,-13.27149 225,225 0 0 0 8.23633,-7.06054 l 0.0156,-0.01 a 25,25 0 0 0 0.8457,-0.80859 l 0.043,-0.0371 a 225,225 0 0 0 0.0176,-318.17773 l -0.0176,-0.0195 v -0.002 a 25,25 0 0 0 -1.56445,-1.35351 25,25 0 0 0 -1.13672,-0.98438 225,225 0 0 0 -110.81446,-58.69922 l -0.72265,-0.10547 a 225,225 0 0 0 -30.66797,-4.1289 225,225 0 0 0 -1.9375,-0.006 225,225 0 0 0 -27.62109,-0.0762 z M 250,250 a 175,175 0 0 1 123.74414,51.25586 175,175 0 0 1 0,247.48828 175,175 0 0 1 -96.36719,49.10156 175,175 0 0 1 -151.12109,-49.10156 175,175 0 0 1 0,-247.48828 175,175 0 0 1 20.88086,-17.83398 A 175,175 0 0 1 250,250 Z M 234.63477,200.54688 A 225,225 0 0 0 91.804688,265.04492 l -0.01563,0.01 a 25,25 0 0 0 -0.886718,0.84765 l -0.002,-0.002 a 25,25 0 0 0 0,35.35547 25,25 0 0 0 35.355469,0 175,175 0 0 1 247.48828,0 175,175 0 0 1 0,247.48828 175,175 0 0 1 -247.48828,0 25,25 0 0 0 -35.355469,0 25,25 0 0 0 0,35.35547 25,25 0 0 0 2.701171,2.33789 225,225 0 0 0 315.498048,-2.33789 225,225 0 0 0 0,-318.19727 225,225 0 0 0 -174.46484,-65.35546 z m 29.41992,0.0625 a 225,225 0 0 0 -173.154299,65.29101 225,225 0 0 0 0,318.19727 225,225 0 0 0 317.294919,0.85742 l 0.0156,-0.01 a 25,25 0 0 0 0.88672,-0.84765 l 0.002,0.002 a 25,25 0 0 0 0,-35.35547 25,25 0 0 0 -35.35547,0 175,175 0 0 1 -247.48828,0 175,175 0 0 1 0,-247.48828 175,175 0 0 1 247.48828,0 25,25 0 0 0 35.35547,0 25,25 0 0 0 0,-35.35547 25,25 0 0 0 -2.70117,-2.33789 225,225 0 0 0 -142.34375,-62.95312 z M 50,400 a 25,25 0 0 0 -25,25 25,25 0 0 0 0.255859,3.5625 A 225,225 0 0 0 250,650 a 225,225 0 0 0 29.28516,-1.91895 225,225 0 0 0 17.63672,-3.49707 225,225 0 0 0 11.1582,-2.2207 225,225 0 0 0 18.83789,-6.37207 225,225 0 0 0 8.95898,-3.04101 225,225 0 0 0 18.28321,-8.98243 225,225 0 0 0 8.05664,-3.97265 225,225 0 0 0 17.27539,-11.49317 225,225 0 0 0 7.15234,-4.77832 225,225 0 0 0 15.73438,-13.73047 225,225 0 0 0 6.36718,-5.58496 225,225 0 0 0 0.10157,-0.11523 25,25 0 0 0 0.25195,-0.19336 25,25 0 0 0 2.37891,-2.78906 225,225 0 0 0 11.00781,-12.47657 225,225 0 0 0 5.66406,-6.45898 225,225 0 0 0 11.5,-17.08398 225,225 0 0 0 4.86719,-7.28614 225,225 0 0 0 9.13476,-18.34082 225,225 0 0 0 3.92188,-7.9541 225,225 0 0 0 6.65234,-19.32226 225,225 0 0 0 2.86719,-8.44727 225,225 0 0 0 3.94922,-19.36231 225,225 0 0 0 1.87891,-9.44531 225,225 0 0 0 1.36914,-19.33496 A 225,225 0 0 0 475,425 25,25 0 0 0 450,400 25,25 0 0 0 425,425 175,175 0 0 1 389.94141,529.58496 L 267.67773,407.32227 A 25,25 0 0 0 250,400 a 25,25 0 0 0 -25,25 25,25 0 0 0 7.36719,17.63281 l -0.0449,0.0449 122.33593,122.33594 A 175,175 0 0 1 274.9043,598.21875 175,175 0 0 1 250,600 175,175 0 0 1 75,425 25,25 0 0 0 50,400 Z m 54.66797,-141.11328 a 25,25 0 0 0 -13.767579,7.01367 25,25 0 0 0 0,35.35547 L 373.74414,584.09961 a 25,25 0 0 0 35.35547,0 25,25 0 0 0 0,-35.35547 L 126.25586,265.90039 a 25,25 0 0 0 -21.58789,-7.01367 z M 250,200 A 225,225 0 0 0 25,425 225,225 0 0 0 248.75586,649.96875 l 0.0176,0.002 A 25,25 0 0 0 250,650 25,25 0 0 0 275,625 25,25 0 0 0 250,600 175,175 0 0 1 75,425 175,175 0 0 1 250,250 a 175,175 0 0 1 175,175 25,25 0 0 0 25,25 25,25 0 0 0 25,-25 25,25 0 0 0 -0.25586,-3.5625 A 225,225 0 0 0 250,200 Z m 0,0 A 225,225 0 0 0 25,425 225,225 0 0 0 248.75586,649.96875 l 0.0176,0.002 A 25,25 0 0 0 250,650 25,25 0 0 0 275,625 25,25 0 0 0 250,600 175,175 0 0 1 75,425 175,175 0 0 1 250,250 a 175,175 0 0 1 175,175 25,25 0 0 0 25,25 25,25 0 0 0 25,-25 25,25 0 0 0 -0.25586,-3.5625 A 225,225 0 0 0 250,200 Z m -145.33203,58.88672 a 25,25 0 0 0 -13.767579,7.01367 25,25 0 0 0 0,35.35547 L 373.74414,584.09961 a 25,25 0 0 0 35.35547,0 25,25 0 0 0 0,-35.35547 L 126.25586,265.90039 a 25,25 0 0 0 -21.58789,-7.01367 z m 129.9668,-58.33984 a 225,225 0 0 0 -2.11524,0.29687 225,225 0 0 0 -3.44141,0.48437 225,225 0 0 0 -27.84374,4.16797 225,225 0 0 0 -5.86719,1.69922 225,225 0 0 0 -24.4668,7.30078 225,225 0 0 0 -8.43555,3.8086 225,225 0 0 0 -20.32617,9.35156 225,225 0 0 0 -11.71289,7.44922 225,225 0 0 0 -14.9082,9.60742 225,225 0 0 0 -15.47656,13.27149 225,225 0 0 0 -8.236332,7.06054 l -0.01563,0.01 a 25,25 0 0 0 -0.845703,0.80859 l -0.04297,0.0371 a 225,225 0 0 0 -0.0059,318.19141 l 0.0059,0.006 v 0.002 a 25,25 0 0 0 1.564453,1.35351 25,25 0 0 0 1.136718,0.98438 225,225 0 0 0 110.814458,58.69922 l 0.72265,0.10547 a 225,225 0 0 0 30.66797,4.1289 225,225 0 0 0 1.9375,0.006 225,225 0 0 0 29.73633,-0.2207 225,225 0 0 0 3.44141,-0.48437 225,225 0 0 0 27.84374,-4.16797 225,225 0 0 0 5.86719,-1.69922 225,225 0 0 0 24.4668,-7.30078 225,225 0 0 0 8.43555,-3.8086 225,225 0 0 0 20.32617,-9.35156 225,225 0 0 0 11.71289,-7.44922 225,225 0 0 0 14.9082,-9.60742 225,225 0 0 0 15.47656,-13.27149 225,225 0 0 0 8.23633,-7.06054 l 0.0156,-0.01 a 25,25 0 0 0 0.8457,-0.80859 l 0.043,-0.0371 a 225,225 0 0 0 0.0176,-318.17773 l -0.0176,-0.0195 v -0.002 a 25,25 0 0 0 -1.56445,-1.35351 25,25 0 0 0 -1.13672,-0.98438 225,225 0 0 0 -110.81446,-58.69922 l -0.72265,-0.10547 a 225,225 0 0 0 -30.66797,-4.1289 225,225 0 0 0 -1.9375,-0.006 225,225 0 0 0 -27.62109,-0.0762 z M 250,250 a 175,175 0 0 1 123.74414,51.25586 175,175 0 0 1 0,247.48828 175,175 0 0 1 -96.36719,49.10156 175,175 0 0 1 -151.12109,-49.10156 175,175 0 0 1 0,-247.48828 175,175 0 0 1 20.88086,-17.83398 A 175,175 0 0 1 250,250 Z m 0,-50 a 25,25 0 0 0 -25,25 25,25 0 0 0 25,25 A 175,175 0 0 1 425,425 175,175 0 0 1 250,600 175,175 0 0 1 75,425 25,25 0 0 0 50,400 25,25 0 0 0 25,425 25,25 0 0 0 25.255859,428.5625 225,225 0 0 0 250,650 225,225 0 0 0 475,425 225,225 0 0 0 251.24414,200.03125 l -0.0176,-0.002 A 25,25 0 0 0 250,200 Z m 0,100 A 125,125 0 0 0 125,425 125,125 0 0 0 250,550 125,125 0 0 0 375,425 125,125 0 0 0 250,300 Z m 0,50 a 75,75 0 0 1 75,75 75,75 0 0 1 -75,75 75,75 0 0 1 -75,-75 75,75 0 0 1 75,-75 z M 104.66797,258.88672 a 25,25 0 0 0 -13.767579,7.01367 25,25 0 0 0 0,35.35547 L 373.74414,584.09961 a 25,25 0 0 0 35.35547,0 25,25 0 0 0 0,-35.35547 L 126.25586,265.90039 a 25,25 0 0 0 -21.58789,-7.01367 z M 250,200 a 25,25 0 0 0 -3.5625,0.25586 A 225,225 0 0 0 25,425 225,225 0 0 0 250,650 225,225 0 0 0 474.96875,426.24414 l 0.002,-0.0176 A 25,25 0 0 0 475,425 25,25 0 0 0 450,400 25,25 0 0 0 425,425 175,175 0 0 1 250,600 175,175 0 0 1 75,425 175,175 0 0 1 250,250 25,25 0 0 0 275,225 25,25 0 0 0 250,200 Z m 0,0 a 225,225 0 0 0 -29.28516,1.91895 225,225 0 0 0 -17.63672,3.49707 225,225 0 0 0 -11.1582,2.2207 225,225 0 0 0 -18.83789,6.37207 225,225 0 0 0 -8.95898,3.04101 225,225 0 0 0 -18.28321,8.98243 225,225 0 0 0 -8.05664,3.97265 225,225 0 0 0 -17.27539,11.49317 225,225 0 0 0 -7.15234,4.77832 225,225 0 0 0 -15.734376,13.73047 225,225 0 0 0 -6.367188,5.58496 225,225 0 0 0 -13.740234,15.57422 225,225 0 0 0 -5.664063,6.45898 225,225 0 0 0 -11.5,17.08398 225,225 0 0 0 -4.867187,7.28614 225,225 0 0 0 -9.134766,18.34082 225,225 0 0 0 -3.921875,7.9541 225,225 0 0 0 -6.652343,19.32226 225,225 0 0 0 -2.867188,8.44727 225,225 0 0 0 -3.949219,19.36231 225,225 0 0 0 -1.878906,9.44531 225,225 0 0 0 -1.369141,19.33496 A 225,225 0 0 0 25,425 25,25 0 0 0 50,450 25,25 0 0 0 75,425 175,175 0 0 1 76.78125,400.09473 175,175 0 0 1 250,250 a 175,175 0 0 1 175,175 25,25 0 0 0 25,25 25,25 0 0 0 25,-25 25,25 0 0 0 -0.25586,-3.5625 A 225,225 0 0 0 250,200 Z m 0,0 A 225,225 0 0 0 25.03125,423.75586 l -0.002,0.0176 A 25,25 0 0 0 25,425 25,25 0 0 0 50,450 25,25 0 0 0 75,425 175,175 0 0 1 250,250 175,175 0 0 1 425,425 175,175 0 0 1 250,600 a 25,25 0 0 0 -25,25 25,25 0 0 0 25,25 25,25 0 0 0 3.5625,-0.25586 A 225,225 0 0 0 475,425 225,225 0 0 0 250,200 Z m -145.33203,58.88672 a 25,25 0 0 0 -13.767579,7.01367 25,25 0 0 0 0,35.35547 L 373.74414,584.09961 a 25,25 0 0 0 35.35547,0 25,25 0 0 0 0,-35.35547 L 126.25586,265.90039 a 25,25 0 0 0 -21.58789,-7.01367 z M 250,200 a 25,25 0 0 0 -25,25 25,25 0 0 0 25,25 A 175,175 0 0 1 425,425 175,175 0 0 1 250,600 175,175 0 0 1 75,425 25,25 0 0 0 50,400 25,25 0 0 0 25,425 25,25 0 0 0 25.255859,428.5625 225,225 0 0 0 250,650 225,225 0 0 0 475,425 225,225 0 0 0 251.24414,200.03125 l -0.0176,-0.002 A 25,25 0 0 0 250,200 Z m -16.05078,0.57227 A 225,225 0 0 0 90.902344,265.90039 225,225 0 0 0 90.044922,583.19531 l 0.0098,0.0156 a 25,25 0 0 0 0.847656,0.88672 l -0.002,0.002 a 25,25 0 0 0 35.355469,0 25,25 0 0 0 0,-35.35547 175,175 0 0 1 0,-247.48828 175,175 0 0 1 247.48828,0 175,175 0 0 1 0,247.48828 25,25 0 0 0 0,35.35547 25,25 0 0 0 35.35547,0 25,25 0 0 0 2.33789,-2.70117 225,225 0 0 0 -2.33789,-315.49805 225,225 0 0 0 -175.15039,-65.32812 z m -127.1543,58.07031 a 25,25 0 0 0 -15.89453,7.25781 25,25 0 0 0 0,35.35547 l 141.42188,141.42187 0.0449,-0.0449 A 25,25 0 0 0 250,450 25,25 0 0 0 275,425 25,25 0 0 0 267.67773,407.32227 L 126.25586,265.90039 a 25,25 0 0 0 -19.46094,-7.25781 z m -2.12695,0.24414 a 25,25 0 0 0 -13.767579,7.01367 25,25 0 0 0 0,35.35547 L 373.74414,584.09961 a 25,25 0 0 0 35.35547,0 25,25 0 0 0 0,-35.35547 L 126.25586,265.90039 a 25,25 0 0 0 -21.58789,-7.01367 z m 3.91015,-0.3086 a 25,25 0 0 0 -17.677729,7.32227 25,25 0 0 0 -2.337891,2.70117 225,225 0 0 0 2.337891,315.49805 225,225 0 0 0 318.197269,0 225,225 0 0 0 0.85742,-317.29492 l -0.01,-0.0156 a 25,25 0 0 0 -0.84765,-0.88672 l 0.002,-0.002 a 25,25 0 0 0 -35.35547,0 25,25 0 0 0 0,35.35547 175,175 0 0 1 0,247.48828 175,175 0 0 1 -247.48828,0 175,175 0 0 1 0,-247.48828 25,25 0 0 0 0,-35.35547 25,25 0 0 0 -17.67774,-7.32227 z m -3.91015,0.3086 a 25,25 0 0 0 -13.767579,7.01367 25,25 0 0 0 0,35.35547 L 373.74414,584.09961 a 25,25 0 0 0 35.35547,0 25,25 0 0 0 0,-35.35547 L 126.25586,265.90039 a 25,25 0 0 0 -21.58789,-7.01367 z m 129.9668,-58.33984 A 225,225 0 0 0 91.804688,265.04492 l -0.01563,0.01 a 25,25 0 0 0 -0.886718,0.84765 l -0.002,-0.002 a 25,25 0 0 0 0,35.35547 25,25 0 0 0 35.355469,0 175,175 0 0 1 247.48828,0 175,175 0 0 1 0,247.48828 175,175 0 0 1 -247.48828,0 25,25 0 0 0 -35.355469,0 25,25 0 0 0 0,35.35547 25,25 0 0 0 2.701171,2.33789 225,225 0 0 0 315.498048,-2.33789 225,225 0 0 0 0,-318.19727 225,225 0 0 0 -174.46484,-65.35546 z m -129.9668,58.33984 a 25,25 0 0 0 -13.767579,7.01367 25,25 0 0 0 0,35.35547 L 373.74414,584.09961 a 25,25 0 0 0 35.35547,0 25,25 0 0 0 0,-35.35547 L 126.25586,265.90039 a 25,25 0 0 0 -21.58789,-7.01367 z m 159.38672,-58.27734 a 225,225 0 0 0 -173.154299,65.29101 225,225 0 0 0 0,318.19727 225,225 0 0 0 317.294919,0.85742 l 0.0156,-0.01 a 25,25 0 0 0 0.88672,-0.84765 l 0.002,0.002 a 25,25 0 0 0 0,-35.35547 25,25 0 0 0 -35.35547,0 175,175 0 0 1 -247.48828,0 175,175 0 0 1 0,-247.48828 175,175 0 0 1 247.48828,0 25,25 0 0 0 35.35547,0 25,25 0 0 0 0,-35.35547 25,25 0 0 0 -2.70117,-2.33789 225,225 0 0 0 -142.34375,-62.95312 z M 250,200 a 225,225 0 0 0 -29.28516,1.91895 225,225 0 0 0 -17.63672,3.49707 225,225 0 0 0 -11.1582,2.2207 225,225 0 0 0 -18.83789,6.37207 225,225 0 0 0 -8.95898,3.04101 225,225 0 0 0 -18.28321,8.98243 225,225 0 0 0 -8.05664,3.97265 225,225 0 0 0 -17.27539,11.49317 225,225 0 0 0 -7.15234,4.77832 225,225 0 0 0 -15.734376,13.73047 225,225 0 0 0 -6.367188,5.58496 225,225 0 0 0 -0.08789,0.0996 25,25 0 0 0 -0.265625,0.20898 25,25 0 0 0 -0.542969,0.70703 225,225 0 0 0 -12.84375,14.5586 225,225 0 0 0 -5.664063,6.45898 225,225 0 0 0 -11.5,17.08398 225,225 0 0 0 -4.867187,7.28614 225,225 0 0 0 -9.134766,18.34082 225,225 0 0 0 -3.921875,7.9541 225,225 0 0 0 -6.652343,19.32226 225,225 0 0 0 -2.867188,8.44727 225,225 0 0 0 -3.949219,19.36231 225,225 0 0 0 -1.878906,9.44531 225,225 0 0 0 -1.369141,19.33496 A 225,225 0 0 0 25,425 a 25,25 0 0 0 25,25 25,25 0 0 0 25,-25 175,175 0 0 1 1.78125,-24.90527 175,175 0 0 1 33.20508,-79.75293 l 122.33594,122.33593 0.0449,-0.0449 A 25,25 0 0 0 250,450 25,25 0 0 0 275,425 25,25 0 0 0 267.67773,407.32227 L 145.41602,285.05957 A 175,175 0 0 1 250,250 a 175,175 0 0 1 175,175 25,25 0 0 0 25,25 25,25 0 0 0 25,-25 25,25 0 0 0 -0.25586,-3.5625 A 225,225 0 0 0 250,200 Z m -15.36523,0.54688 a 225,225 0 0 0 -2.11524,0.29687 225,225 0 0 0 -3.44141,0.48437 225,225 0 0 0 -27.84374,4.16797 225,225 0 0 0 -5.86719,1.69922 225,225 0 0 0 -24.4668,7.30078 225,225 0 0 0 -8.43555,3.8086 225,225 0 0 0 -20.32617,9.35156 225,225 0 0 0 -11.71289,7.44922 225,225 0 0 0 -14.9082,9.60742 225,225 0 0 0 -15.47656,13.27149 225,225 0 0 0 -8.236332,7.06054 l -0.01563,0.01 a 25,25 0 0 0 -0.845703,0.80859 l -0.04297,0.0371 a 225,225 0 0 0 -0.0059,318.19141 l 0.0059,0.006 v 0.002 a 25,25 0 0 0 1.564453,1.35351 25,25 0 0 0 1.136718,0.98438 225,225 0 0 0 110.814458,58.69922 l 0.72265,0.10547 a 225,225 0 0 0 30.66797,4.1289 225,225 0 0 0 1.9375,0.006 225,225 0 0 0 29.73633,-0.2207 225,225 0 0 0 3.44141,-0.48437 225,225 0 0 0 27.84374,-4.16797 225,225 0 0 0 5.86719,-1.69922 225,225 0 0 0 24.4668,-7.30078 225,225 0 0 0 8.43555,-3.8086 225,225 0 0 0 20.32617,-9.35156 225,225 0 0 0 11.71289,-7.44922 225,225 0 0 0 14.9082,-9.60742 225,225 0 0 0 15.47656,-13.27149 225,225 0 0 0 8.23633,-7.06054 l 0.0156,-0.01 a 25,25 0 0 0 0.8457,-0.80859 l 0.043,-0.0371 a 225,225 0 0 0 0.0176,-318.17773 l -0.0176,-0.0195 v -0.002 a 25,25 0 0 0 -1.56445,-1.35351 25,25 0 0 0 -1.13672,-0.98438 225,225 0 0 0 -110.81446,-58.69922 l -0.72265,-0.10547 a 225,225 0 0 0 -30.66797,-4.1289 225,225 0 0 0 -1.9375,-0.006 225,225 0 0 0 -27.62109,-0.0762 z M 250,250 a 175,175 0 0 1 123.74414,51.25586 175,175 0 0 1 16.35938,228.49219 L 354.20508,493.84961 A 125,125 0 0 0 375,425 125,125 0 0 0 250,300 125,125 0 0 0 181.15039,320.79492 l -35.82617,-35.82617 a 175,175 0 0 1 1.8125,-1.54687 A 175,175 0 0 1 250,250 Z m -140.03125,70.32422 35.82617,35.82617 A 125,125 0 0 0 125,425 125,125 0 0 0 250,550 125,125 0 0 0 318.84961,529.20508 l 35.82617,35.82617 A 175,175 0 0 1 277.37695,597.8457 175,175 0 0 1 126.25586,548.74414 175,175 0 0 1 109.96875,320.32422 Z M 250,350 a 75,75 0 0 1 75,75 75,75 0 0 1 -7.53516,32.10938 L 217.89062,357.53516 A 75,75 0 0 1 250,350 Z m -67.46484,42.89062 99.57422,99.57422 A 75,75 0 0 1 250,500 75,75 0 0 1 175,425 75,75 0 0 1 182.53516,392.89062 Z M 250,200 a 25,25 0 0 0 -25,25 25,25 0 0 0 25,25 25,25 0 0 0 25,-25 25,25 0 0 0 -25,-25 z m 0,200 a 25,25 0 0 0 -25,25 25,25 0 0 0 25,25 25,25 0 0 0 25,-25 25,25 0 0 0 -25,-25 z m 0,200 a 25,25 0 0 0 -25,25 25,25 0 0 0 25,25 25,25 0 0 0 25,-25 25,25 0 0 0 -25,-25 z m 0,-300 c -47.929,0.306 -80.31967,28.72833 -88.38867,36.61133 -9.763,9.763 -9.763,25.59247 0,35.35547 9.763,9.763 25.59247,9.763 35.35547,0 l 0.20117,0.20117 A 75,75 0 0 1 250,350 c 41.421,0 75,33.579 75,75 0,41.421 -33.579,75 -75,75 a 75,75 0 0 1 -52.83203,-22.16797 l -0.20117,0.20117 c -9.763,-9.763 -25.59247,-9.763 -35.35547,0 -9.763,9.763 -9.763,25.59247 0,35.35547 8.088,7.9 40.47467,36.30533 88.38867,36.61133 69.036,0 125,-55.964 125,-125 0,-69.036 -55.964,-125 -125,-125 z m 0,0 c -47.929,0.306 -80.31967,28.72833 -88.38867,36.61133 -9.763,9.763 -9.763,25.59247 0,35.35547 9.763,9.763 25.59247,9.763 35.35547,0 C 210.5388,358.3938 229.289,350 250,350 c 20.711,0 39.4602,8.3938 53.0332,21.9668 9.763,9.763 25.59247,9.763 35.35547,0 9.763,-9.763 9.763,-25.59247 0,-35.35547 C 330.29967,328.71133 297.914,300.306 250,300 Z m -70.71094,170.71094 a 24.92,24.92 0 0 0 -17.67773,7.32226 c -9.763,9.763 -9.763,25.59247 0,35.35547 8.088,7.9 40.47467,36.30533 88.38867,36.61133 47.929,-0.306 80.31967,-28.72833 88.38867,-36.61133 9.763,-9.763 9.763,-25.59247 0,-35.35547 -9.763,-9.763 -25.59247,-9.763 -35.35547,0 C 289.4612,491.6062 270.711,500 250,500 c -20.711,0 -39.4602,-8.3938 -53.0332,-21.9668 a 24.92,24.92 0 0 0 -17.67774,-7.32226 z M 250,300 c -69.036,0 -125,55.964 -125,125 0,69.036 55.964,125 125,125 47.929,-0.306 80.31967,-28.72833 88.38867,-36.61133 9.763,-9.763 9.763,-25.59247 0,-35.35547 -9.763,-9.763 -25.59247,-9.763 -35.35547,0 l -0.20117,-0.20117 A 75,75 0 0 1 250,500 c -41.421,0 -75,-33.579 -75,-75 0,-41.421 33.579,-75 75,-75 a 75,75 0 0 1 52.83203,22.16797 l 0.20117,-0.20117 c 9.763,9.763 25.59247,9.763 35.35547,0 9.763,-9.763 9.763,-25.59247 0,-35.35547 C 330.30067,328.71133 297.914,300.306 250,300 Z M 50,400 a 25,25 0 0 0 -25,25 25,25 0 0 0 25,25 25,25 0 0 0 25,-25 25,25 0 0 0 -25,-25 z m 200,0 a 25,25 0 0 0 -25,25 25,25 0 0 0 25,25 25,25 0 0 0 25,-25 25,25 0 0 0 -25,-25 z m 200,0 a 25,25 0 0 0 -25,25 25,25 0 0 0 25,25 25,25 0 0 0 25,-25 25,25 0 0 0 -25,-25 z M 104.66797,258.88672 a 25,25 0 0 0 -13.767579,7.01367 25,25 0 0 0 0,35.35547 L 373.74414,584.09961 a 25,25 0 0 0 35.35547,0 25,25 0 0 0 0,-35.35547 L 126.25586,265.90039 a 25,25 0 0 0 -21.58789,-7.01367 z M 250,200 a 25,25 0 0 0 -25,25 25,25 0 0 0 25,25 25,25 0 0 0 25,-25 25,25 0 0 0 -25,-25 z M 50,400 a 25,25 0 0 0 -25,25 25,25 0 0 0 25,25 25,25 0 0 0 25,-25 25,25 0 0 0 -25,-25 z m 200,0 a 25,25 0 0 0 -25,25 25,25 0 0 0 25,25 25,25 0 0 0 25,-25 25,25 0 0 0 -25,-25 z m 200,0 a 25,25 0 0 0 -25,25 25,25 0 0 0 25,25 25,25 0 0 0 25,-25 25,25 0 0 0 -25,-25 z M 250,600 a 25,25 0 0 0 -25,25 25,25 0 0 0 25,25 25,25 0 0 0 25,-25 25,25 0 0 0 -25,-25 z M 104.66797,258.88672 a 25,25 0 0 0 -13.767579,7.01367 25,25 0 0 0 0,35.35547 L 373.74414,584.09961 a 25,25 0 0 0 35.35547,0 25,25 0 0 0 0,-35.35547 L 126.25586,265.90039 a 25,25 0 0 0 -21.58789,-7.01367 z M 250,300 A 125,125 0 0 0 125,425 125,125 0 0 0 250,550 125,125 0 0 0 375,425 125,125 0 0 0 250,300 Z m 0,50 a 75,75 0 0 1 75,75 75,75 0 0 1 -75,75 75,75 0 0 1 -75,-75 75,75 0 0 1 75,-75 z m 0,-150 A 225,225 0 0 0 25,425 225,225 0 0 0 248.75586,649.96875 l 0.0176,0.002 A 25,25 0 0 0 250,650 25,25 0 0 0 275,625 25,25 0 0 0 250,600 175,175 0 0 1 75,425 175,175 0 0 1 250,250 a 175,175 0 0 1 175,175 25,25 0 0 0 25,25 25,25 0 0 0 25,-25 25,25 0 0 0 -0.25586,-3.5625 A 225,225 0 0 0 250,200 Z m 0,100 A 125,125 0 0 0 125,425 125,125 0 0 0 250,550 125,125 0 0 0 375,425 125,125 0 0 0 250,300 Z m 0,50 a 75,75 0 0 1 75,75 75,75 0 0 1 -75,75 75,75 0 0 1 -75,-75 75,75 0 0 1 75,-75 z M 233.94922,200.57227 A 225,225 0 0 0 90.902344,265.90039 225,225 0 0 0 90.044922,583.19531 l 0.0098,0.0156 a 25,25 0 0 0 0.847656,0.88672 l -0.002,0.002 a 25,25 0 0 0 35.355469,0 25,25 0 0 0 0,-35.35547 175,175 0 0 1 0,-247.48828 175,175 0 0 1 247.48828,0 175,175 0 0 1 0,247.48828 25,25 0 0 0 0,35.35547 25,25 0 0 0 35.35547,0 25,25 0 0 0 2.33789,-2.70117 225,225 0 0 0 -2.33789,-315.49805 225,225 0 0 0 -175.15039,-65.32812 z M 250,300 A 125,125 0 0 0 125,425 125,125 0 0 0 250,550 125,125 0 0 0 375,425 125,125 0 0 0 250,300 Z m 0,50 a 75,75 0 0 1 75,75 75,75 0 0 1 -75,75 75,75 0 0 1 -75,-75 75,75 0 0 1 75,-75 z m 0,-150 A 225,225 0 0 0 25.03125,423.75586 l -0.002,0.0176 A 25,25 0 0 0 25,425 25,25 0 0 0 50,450 25,25 0 0 0 75,425 175,175 0 0 1 250,250 175,175 0 0 1 425,425 175,175 0 0 1 250,600 a 25,25 0 0 0 -25,25 25,25 0 0 0 25,25 25,25 0 0 0 3.5625,-0.25586 A 225,225 0 0 0 475,425 225,225 0 0 0 250,200 Z m 0,100 A 125,125 0 0 0 125,425 125,125 0 0 0 250,550 125,125 0 0 0 375,425 125,125 0 0 0 250,300 Z m 0,50 a 75,75 0 0 1 75,75 75,75 0 0 1 -75,75 75,75 0 0 1 -75,-75 75,75 0 0 1 75,-75 z m 14.05469,-149.39062 a 225,225 0 0 0 -173.154299,65.29101 225,225 0 0 0 0,318.19727 225,225 0 0 0 317.294919,0.85742 l 0.0156,-0.01 a 25,25 0 0 0 0.88672,-0.84765 l 0.002,0.002 a 25,25 0 0 0 0,-35.35547 25,25 0 0 0 -35.35547,0 175,175 0 0 1 -247.48828,0 175,175 0 0 1 0,-247.48828 175,175 0 0 1 247.48828,0 25,25 0 0 0 35.35547,0 25,25 0 0 0 0,-35.35547 25,25 0 0 0 -2.70117,-2.33789 225,225 0 0 0 -142.34375,-62.95312 z M 250,300 A 125,125 0 0 0 125,425 125,125 0 0 0 250,550 125,125 0 0 0 375,425 125,125 0 0 0 250,300 Z m 0,50 a 75,75 0 0 1 75,75 75,75 0 0 1 -75,75 75,75 0 0 1 -75,-75 75,75 0 0 1 75,-75 z M 234.63477,200.54688 a 225,225 0 0 0 -2.11524,0.29687 225,225 0 0 0 -3.44141,0.48437 225,225 0 0 0 -27.84374,4.16797 225,225 0 0 0 -5.86719,1.69922 225,225 0 0 0 -24.4668,7.30078 225,225 0 0 0 -8.43555,3.8086 225,225 0 0 0 -20.32617,9.35156 225,225 0 0 0 -11.71289,7.44922 225,225 0 0 0 -14.9082,9.60742 225,225 0 0 0 -15.47656,13.27149 225,225 0 0 0 -8.236332,7.06054 l -0.01563,0.01 a 25,25 0 0 0 -0.845703,0.80859 l -0.04297,0.0371 a 225,225 0 0 0 -0.0059,318.19141 l 0.0059,0.006 v 0.002 a 25,25 0 0 0 1.564453,1.35351 25,25 0 0 0 1.136718,0.98438 225,225 0 0 0 110.814458,58.69922 l 0.72265,0.10547 a 225,225 0 0 0 30.66797,4.1289 225,225 0 0 0 1.9375,0.006 225,225 0 0 0 29.73633,-0.2207 225,225 0 0 0 3.44141,-0.48437 225,225 0 0 0 27.84374,-4.16797 225,225 0 0 0 5.86719,-1.69922 225,225 0 0 0 24.4668,-7.30078 225,225 0 0 0 8.43555,-3.8086 225,225 0 0 0 20.32617,-9.35156 225,225 0 0 0 11.71289,-7.44922 225,225 0 0 0 14.9082,-9.60742 225,225 0 0 0 15.47656,-13.27149 225,225 0 0 0 8.23633,-7.06054 l 0.0156,-0.01 a 25,25 0 0 0 0.8457,-0.80859 l 0.043,-0.0371 a 225,225 0 0 0 0.0176,-318.17773 l -0.0176,-0.0195 v -0.002 a 25,25 0 0 0 -1.56445,-1.35351 25,25 0 0 0 -1.13672,-0.98438 225,225 0 0 0 -110.81446,-58.69922 l -0.72265,-0.10547 a 225,225 0 0 0 -30.66797,-4.1289 225,225 0 0 0 -1.9375,-0.006 225,225 0 0 0 -27.62109,-0.0762 z M 250,250 a 175,175 0 0 1 123.74414,51.25586 175,175 0 0 1 0,247.48828 175,175 0 0 1 -96.36719,49.10156 175,175 0 0 1 -151.12109,-49.10156 175,175 0 0 1 0,-247.48828 175,175 0 0 1 20.88086,-17.83398 A 175,175 0 0 1 250,250 Z m 0,50 A 125,125 0 0 0 125,425 125,125 0 0 0 250,550 125,125 0 0 0 375,425 125,125 0 0 0 250,300 Z m 0,50 a 75,75 0 0 1 75,75 75,75 0 0 1 -75,75 75,75 0 0 1 -75,-75 75,75 0 0 1 75,-75 z M 234.63477,200.54688 A 225,225 0 0 0 91.804688,265.04492 l -0.01563,0.01 a 25,25 0 0 0 -0.886718,0.84765 l -0.002,-0.002 a 25,25 0 0 0 0,35.35547 25,25 0 0 0 35.355469,0 175,175 0 0 1 247.48828,0 175,175 0 0 1 0,247.48828 175,175 0 0 1 -247.48828,0 25,25 0 0 0 -35.355469,0 25,25 0 0 0 0,35.35547 25,25 0 0 0 2.701171,2.33789 225,225 0 0 0 315.498048,-2.33789 225,225 0 0 0 0,-318.19727 225,225 0 0 0 -174.46484,-65.35546 z M 250,300 A 125,125 0 0 0 125,425 125,125 0 0 0 250,550 125,125 0 0 0 375,425 125,125 0 0 0 250,300 Z m 0,50 a 75,75 0 0 1 75,75 75,75 0 0 1 -75,75 75,75 0 0 1 -75,-75 75,75 0 0 1 75,-75 z m 0,-150 a 25,25 0 0 0 -3.5625,0.25586 A 225,225 0 0 0 25,425 225,225 0 0 0 250,650 225,225 0 0 0 474.96875,426.24414 l 0.002,-0.0176 A 25,25 0 0 0 475,425 25,25 0 0 0 450,400 25,25 0 0 0 425,425 175,175 0 0 1 250,600 175,175 0 0 1 75,425 175,175 0 0 1 250,250 25,25 0 0 0 275,225 25,25 0 0 0 250,200 Z m 0,100 A 125,125 0 0 0 125,425 125,125 0 0 0 250,550 125,125 0 0 0 375,425 125,125 0 0 0 250,300 Z m 0,50 a 75,75 0 0 1 75,75 75,75 0 0 1 -75,75 75,75 0 0 1 -75,-75 75,75 0 0 1 75,-75 z M 108.57812,258.57812 a 25,25 0 0 0 -17.677729,7.32227 25,25 0 0 0 -2.337891,2.70117 225,225 0 0 0 2.337891,315.49805 225,225 0 0 0 318.197269,0 225,225 0 0 0 0.85742,-317.29492 l -0.01,-0.0156 a 25,25 0 0 0 -0.84765,-0.88672 l 0.002,-0.002 a 25,25 0 0 0 -35.35547,0 25,25 0 0 0 0,35.35547 175,175 0 0 1 0,247.48828 175,175 0 0 1 -247.48828,0 175,175 0 0 1 0,-247.48828 25,25 0 0 0 0,-35.35547 25,25 0 0 0 -17.67774,-7.32227 z M 250,300 A 125,125 0 0 0 125,425 125,125 0 0 0 250,550 125,125 0 0 0 375,425 125,125 0 0 0 250,300 Z m 0,50 a 75,75 0 0 1 75,75 75,75 0 0 1 -75,75 75,75 0 0 1 -75,-75 75,75 0 0 1 75,-75 z m 0,-150 a 25,25 0 0 0 -25,25 25,25 0 0 0 25,25 A 175,175 0 0 1 425,425 175,175 0 0 1 250,600 175,175 0 0 1 75,425 25,25 0 0 0 50,400 25,25 0 0 0 25,425 25,25 0 0 0 25.255859,428.5625 225,225 0 0 0 250,650 225,225 0 0 0 475,425 225,225 0 0 0 251.24414,200.03125 l -0.0176,-0.002 A 25,25 0 0 0 250,200 Z m 0,100 A 125,125 0 0 0 125,425 125,125 0 0 0 250,550 125,125 0 0 0 375,425 125,125 0 0 0 250,300 Z m 0,50 a 75,75 0 0 1 75,75 75,75 0 0 1 -75,75 75,75 0 0 1 -75,-75 75,75 0 0 1 75,-75 z m 137.51172,-91.11328 a 25,25 0 0 0 -13.76758,7.01367 L 90.900391,548.74414 a 25,25 0 0 0 0,35.35547 25,25 0 0 0 35.355469,0 L 409.09961,301.25586 a 25,25 0 0 0 0,-35.35547 25,25 0 0 0 -21.58789,-7.01367 z M 250,200 a 25,25 0 0 0 -25,25 25,25 0 0 0 25,25 25,25 0 0 0 25,-25 25,25 0 0 0 -25,-25 z M 50,400 a 25,25 0 0 0 -25,25 25,25 0 0 0 25,25 25,25 0 0 0 25,-25 25,25 0 0 0 -25,-25 z m 200,0 a 25,25 0 0 0 -25,25 25,25 0 0 0 25,25 25,25 0 0 0 25,-25 25,25 0 0 0 -25,-25 z m 200,0 a 25,25 0 0 0 -25,25 25,25 0 0 0 25,25 25,25 0 0 0 25,-25 25,25 0 0 0 -25,-25 z M 250,600 a 25,25 0 0 0 -25,25 25,25 0 0 0 25,25 25,25 0 0 0 25,-25 25,25 0 0 0 -25,-25 z M 50,400 a 25,25 0 0 0 -25,25 25,25 0 0 0 25,25 h 400 a 25,25 0 0 0 25,-25 25,25 0 0 0 -25,-25 z m 0,0 a 25,25 0 0 0 -25,25 25,25 0 0 0 25,25 25,25 0 0 0 25,-25 25,25 0 0 0 -25,-25 z m 200,0 a 25,25 0 0 0 -25,25 25,25 0 0 0 25,25 25,25 0 0 0 25,-25 25,25 0 0 0 -25,-25 z m 200,0 a 25,25 0 0 0 -25,25 25,25 0 0 0 25,25 25,25 0 0 0 25,-25 25,25 0 0 0 -25,-25 z M 250,200 a 25,25 0 0 0 -25,25 V 400 H 50 a 25,25 0 0 0 -25,25 25,25 0 0 0 25,25 h 175 v 175 a 25,25 0 0 0 25,25 25,25 0 0 0 25,-25 V 450 h 175 a 25,25 0 0 0 25,-25 25,25 0 0 0 -25,-25 H 275 V 225 a 25,25 0 0 0 -25,-25 z m 0,0 a 25,25 0 0 0 -25,25 v 139.64453 l -98.74414,-98.74414 a 25,25 0 0 0 -35.355469,0 25,25 0 0 0 0,35.35547 L 214.64453,425 90.900391,548.74414 a 25,25 0 0 0 0,35.35547 25,25 0 0 0 35.355469,0 L 225,485.35547 V 625 a 25,25 0 0 0 25,25 25,25 0 0 0 25,-25 V 485.35547 l 98.74414,98.74414 a 25,25 0 0 0 35.35547,0 25,25 0 0 0 0,-35.35547 L 285.35547,425 409.09961,301.25586 a 25,25 0 0 0 0,-35.35547 25,25 0 0 0 -35.35547,0 L 275,364.64453 V 225 a 25,25 0 0 0 -25,-25 z m -100,0 a 25,25 0 0 0 -25,25 25,25 0 0 0 25,25 75,75 0 0 1 75,75 v 200 a 75,75 0 0 1 -75,75 25,25 0 0 0 -25,25 25,25 0 0 0 25,25 125,125 0 0 0 125,-125 V 325 A 125,125 0 0 0 150,200 Z m 200,0 A 125,125 0 0 0 225,325 v 200 a 125,125 0 0 0 125,125 25,25 0 0 0 25,-25 25,25 0 0 0 -25,-25 75,75 0 0 1 -75,-75 V 325 a 75,75 0 0 1 75,-75 25,25 0 0 0 25,-25 25,25 0 0 0 -25,-25 z m -100,0 a 25,25 0 0 0 -25,25 25,25 0 0 0 25,25 25,25 0 0 0 25,-25 25,25 0 0 0 -25,-25 z m -15.36523,0.54688 A 225,225 0 0 0 91.804688,265.04492 l -0.01563,0.01 a 25,25 0 0 0 -0.886718,0.84765 l -0.002,-0.002 a 25,25 0 0 0 0,35.35547 25,25 0 0 0 35.355469,0 175,175 0 0 1 247.48828,0 175,175 0 0 1 0,247.48828 175,175 0 0 1 -247.48828,0 25,25 0 0 0 -35.355469,0 25,25 0 0 0 0,35.35547 25,25 0 0 0 2.701171,2.33789 225,225 0 0 0 315.498048,-2.33789 225,225 0 0 0 0,-318.19727 225,225 0 0 0 -174.46484,-65.35546 z M 250,300 c -47.929,0.306 -80.31967,28.72833 -88.38867,36.61133 -9.763,9.763 -9.763,25.59247 0,35.35547 9.763,9.763 25.59247,9.763 35.35547,0 l 0.20117,0.20117 A 75,75 0 0 1 250,350 c 41.421,0 75,33.579 75,75 0,41.421 -33.579,75 -75,75 a 75,75 0 0 1 -52.83203,-22.16797 l -0.20117,0.20117 c -9.763,-9.763 -25.59247,-9.763 -35.35547,0 -9.763,9.763 -9.763,25.59247 0,35.35547 8.088,7.9 40.47467,36.30533 88.38867,36.61133 69.036,0 125,-55.964 125,-125 0,-69.036 -55.964,-125 -125,-125 z m 0,100 a 25,25 0 0 0 -25,25 25,25 0 0 0 25,25 25,25 0 0 0 25,-25 25,25 0 0 0 -25,-25 z M 106.79492,258.64258 a 25,25 0 0 0 -15.894529,7.25781 25,25 0 0 0 0,35.35547 25,25 0 0 0 35.355469,0 25,25 0 0 0 0,-35.35547 25,25 0 0 0 -19.46094,-7.25781 z m 280.7168,0.24414 a 25,25 0 0 0 -13.76758,7.01367 L 90.900391,548.74414 a 25,25 0 0 0 0,35.35547 25,25 0 0 0 35.355469,0 L 409.09961,301.25586 a 25,25 0 0 0 0,-35.35547 25,25 0 0 0 -21.58789,-7.01367 z m 2.12695,282.59766 a 25,25 0 0 0 -15.89453,7.25976 25,25 0 0 0 0,35.35547 25,25 0 0 0 35.35547,0 25,25 0 0 0 0,-35.35547 25,25 0 0 0 -19.46094,-7.25976 z M 108.578,541.422 a 25,25 0 0 0 -17.678,7.322 25,25 0 0 0 -0.006,35.348 l 0.006,0.006 a 225,225 0 0 0 1.565,1.355 25,25 0 0 0 1.137,0.985 225,225 0 0 0 110.814,58.699 l 0.723,0.105 a 225,225 0 0 0 30.668,4.13 225,225 0 0 0 1.937,0.005 225,225 0 0 0 29.736,-0.22 225,225 0 0 0 3.442,-0.485 225,225 0 0 0 27.844,-4.168 225,225 0 0 0 5.867,-1.699 225,225 0 0 0 24.467,-7.3 225,225 0 0 0 8.435,-3.81 225,225 0 0 0 20.326,-9.351 225,225 0 0 0 11.713,-7.45 225,225 0 0 0 14.908,-9.607 225,225 0 0 0 15.477,-13.271 225,225 0 0 0 9.098,-7.879 l 0.04,-0.04 0.003,0.003 a 25,25 0 0 0 0,-35.356 25,25 0 0 0 -35.356,0 175,175 0 0 1 -96.367,49.102 175,175 0 0 1 -151.121,-49.102 25,25 0 0 0 -17.678,-7.322 z M 262.256,200.623 a 225,225 0 0 0 -29.736,0.22 225,225 0 0 0 -3.442,0.485 225,225 0 0 0 -27.844,4.168 225,225 0 0 0 -5.867,1.7 225,225 0 0 0 -24.467,7.3 225,225 0 0 0 -8.435,3.809 225,225 0 0 0 -20.326,9.351 225,225 0 0 0 -11.713,7.45 225,225 0 0 0 -14.908,9.607 225,225 0 0 0 -15.477,13.271 225,225 0 0 0 -9.098,7.88 l -0.04,0.038 L 90.9,265.9 a 25,25 0 0 0 0,35.356 25,25 0 0 0 35.356,0 175,175 0 0 1 20.88,-17.834 175,175 0 0 1 226.608,17.834 25,25 0 0 0 35.356,0 25,25 0 0 0 0.017,-35.334 l -0.017,-0.02 a 225,225 0 0 0 -1.565,-1.355 25,25 0 0 0 -1.137,-0.984 225,225 0 0 0 -110.814,-58.7 l -0.723,-0.105 a 225,225 0 0 0 -30.668,-4.13 225,225 0 0 0 -1.937,-0.005 z m -157.58803,58.26372 a 25,25 0 0 0 -13.767579,7.01367 25,25 0 0 0 0,35.35547 L 373.74414,584.09961 a 25,25 0 0 0 35.35547,0 25,25 0 0 0 0,-35.35547 L 126.25586,265.90039 a 25,25 0 0 0 -21.58789,-7.01367 z M 250,200 a 25,25 0 0 0 -25,25 v 400 a 25,25 0 0 0 25,25 25,25 0 0 0 25,-25 V 225 a 25,25 0 0 0 -25,-25 z m -145.33203,58.88672 a 25,25 0 0 0 -13.767579,7.01367 25,25 0 0 0 0,35.35547 L 373.74414,584.09961 a 25,25 0 0 0 35.35547,0 25,25 0 0 0 0,-35.35547 L 126.25586,265.90039 a 25,25 0 0 0 -21.58789,-7.01367 z m 159.38672,-58.27734 a 225,225 0 0 0 -173.154299,65.29101 225,225 0 0 0 0,318.19727 225,225 0 0 0 317.294919,0.85742 l 0.0156,-0.01 a 25,25 0 0 0 0.88672,-0.84765 l 0.002,0.002 a 25,25 0 0 0 0,-35.35547 25,25 0 0 0 -35.35547,0 175,175 0 0 1 -247.48828,0 175,175 0 0 1 0,-247.48828 175,175 0 0 1 247.48828,0 25,25 0 0 0 35.35547,0 25,25 0 0 0 0,-35.35547 25,25 0 0 0 -2.70117,-2.33789 225,225 0 0 0 -142.34375,-62.95312 z M 250,200 a 25,25 0 0 0 -25,25 v 400 a 25,25 0 0 0 25,25 25,25 0 0 0 25,-25 V 225 a 25,25 0 0 0 -25,-25 z m -143.20508,58.64258 a 25,25 0 0 0 -15.894529,7.25781 25,25 0 0 0 0,35.35547 25,25 0 0 0 35.355469,0 25,25 0 0 0 0,-35.35547 25,25 0 0 0 -19.46094,-7.25781 z m 280.71485,0.24414 a 25,25 0 0 0 -13.76563,7.01367 25,25 0 0 0 0,35.35547 25,25 0 0 0 35.35547,0 25,25 0 0 0 0,-35.35547 25,25 0 0 0 -21.58984,-7.01367 z M 250,200 a 25,25 0 0 0 -25,25 25,25 0 0 0 25,25 25,25 0 0 0 25,-25 25,25 0 0 0 -25,-25 z m 0,400 a 25,25 0 0 0 -25,25 25,25 0 0 0 25,25 25,25 0 0 0 25,-25 25,25 0 0 0 -25,-25 z" />
</svg>
