<svg width="500" height="850" xmlns="http://www.w3.org/2000/svg">
    <path style="fill:#000000;fill-opacity:0;stroke:#ff0000"
        d="m 25,200 v 50 350 50 H 75 V 600 300 l 350,350 h 50 V 600 250 200 h -50 v 50 300 L 75,200 Z M 125,100 h 150 v 50 H 125 Z m 100,300 h 150 v 50 H 225 Z M 125,700 h 150 v 50 H 125 Z M 225,100 h 50 V 750 H 225 Z M 225,0 h 50 v 850 h -50 z m 0,100 h 150 v 50 H 225 Z M 125,400 h 150 v 50 H 125 Z m 100,300 h 150 v 50 H 225 Z m 0,-600 h 50 V 750 H 225 Z M 25,200 v 50 l 400,400 h 50 V 600 L 75,200 Z m 0,0 v 400 50 H 75 475 V 600 H 75 V 200 Z m 100,100 v 50 200 h 50 200 V 500 350 300 H 325 175 Z m 50,50 H 325 V 500 H 175 Z M 25,200 v 50 l 400,400 h 50 V 600 L 75,200 Z m 0,0 v 50 H 425 V 600 H 25 v 50 h 400 50 V 600 250 200 h -50 z m 0,0 v 50 l 400,400 h 50 V 600 L 75,200 Z m 0,0 v 50 h 400 v 400 h 50 V 250 200 h -50 z m -250,600 v 50 H 225 V 800 Z M 25,200 v 50 l 400,400 h 50 V 600 L 75,200 Z m 0,0 v 50 400 H 75 V 250 h 350 v 400 h 50 V 250 200 h -50 z m 0,400 h -50 v 50 l 200,200 h 50 v -50 z m 0,-400 v 400 50 h 400 50 V 600 200 H 425 V 600 H 75 V 200 Z m 0,0 v 400 50 H 75 475 V 600 H 75 V 200 Z m 0,0 v 50 350 50 h 400 50 V 600 250 200 h -50 z m 50,50 H 425 V 600 H 75 Z M 25,200 v 50 H 425 V 600 H 25 v 50 h 400 50 V 600 250 200 h -50 z m 0,0 v 50 350 50 H 75 475 V 600 H 75 V 250 H 475 V 200 H 75 Z m -50,400 v 50 l 150,150 h -350 v 50 h 400 50 V 800 L 25,600 Z M 25,200 v 50 l 400,400 h 50 V 600 L 75,200 Z m 0,0 v 50 400 H 75 V 250 H 475 V 200 H 75 Z m 0,0 v 50 400 H 75 V 250 H 475 V 200 H 75 Z m 0,0 v 50 l 400,400 h 50 V 600 L 75,200 Z m 0,0 v 50 350 50 h 400 50 V 600 250 200 h -50 z m 50,50 H 425 V 600 H 75 Z M 425,200 V 600 H 25 v 50 h 400 50 V 600 200 Z M 125,300 v 50 200 h 50 200 V 500 350 300 H 325 175 Z m 50,50 H 325 V 500 H 175 Z M 25,200 v 50 l 400,400 h 50 V 600 L 75,200 Z m 0,0 v 400 50 H 75 475 V 600 H 75 V 200 Z M -225,0 V 50 H 225 V 0 Z M 25,200 v 50 h 400 v 400 h 50 V 250 200 h -50 z m 0,0 v 50 l 400,400 h 50 V 600 L 75,200 Z m 400,0 V 600 H 25 v 50 h 400 50 V 600 200 Z m -400,0 v 50 400 H 75 V 250 h 350 v 400 h 50 V 250 200 H 425 Z M -225,50 V 0 h 50 L 25,200 v 50 H -25 Z M 25,200 v 50 l 400,400 h 50 V 600 L 75,200 Z m 0,0 v 400 50 h 400 50 V 600 200 H 425 V 600 H 75 V 200 Z m 0,0 v 50 l 400,400 h 50 V 600 L 75,200 Z m 0,0 v 50 H 425 V 600 H 25 v 50 h 400 50 V 600 250 200 h -50 z m 0,0 v 50 l 400,400 h 50 V 600 L 75,200 Z m 0,0 v 50 350 50 H 75 475 V 600 H 75 V 250 H 475 V 200 H 75 Z M -225,0 V 50 L -25,250 H 25 V 200 L -125,50 H 225 V 0 h -400 z m 450,200 h 250 v 50 H 225 Z M 25,600 v 50 h 50 350 50 V 600 H 425 75 Z m 0,-400 v 50 h 50 350 50 V 200 H 425 75 Z M 125,100 h 250 v 50 H 125 Z m 0,600 h 250 v 50 H 125 Z M 325,100 h 50 V 750 H 325 Z M 25,200 v 50 l 400,400 h 50 V 600 L 75,200 Z M 125,100 h 250 v 50 H 125 Z m 0,600 h 250 v 50 H 125 Z m 0,-600 h 50 V 750 H 125 Z M 25,200 v 50 l 400,400 h 50 V 600 L 75,200 Z m 0,0 v 400 50 H 75 475 V 600 H 75 V 200 Z m 100,100 v 50 200 h 50 200 V 500 350 300 H 325 175 Z m 50,50 H 325 V 500 H 175 Z M 25,200 v 50 l 400,400 h 50 V 600 L 75,200 Z m 0,0 v 50 H 425 V 600 H 25 v 50 h 400 50 V 600 250 200 h -50 z m 0,0 v 50 l 400,400 h 50 V 600 L 75,200 Z m 0,0 v 50 h 400 v 400 h 50 V 250 200 h -50 z m -250,600 v 50 H 225 V 800 Z M 25,200 v 50 l 400,400 h 50 V 600 L 75,200 Z m 0,0 v 50 400 H 75 V 250 h 350 v 400 h 50 V 250 200 h -50 z m 0,400 h -50 v 50 l 200,200 h 50 v -50 z m 0,-400 v 400 50 h 400 50 V 600 200 H 425 V 600 H 75 V 200 Z m 0,0 v 400 50 H 75 475 V 600 H 75 V 200 Z m 0,0 v 50 350 50 h 400 50 V 600 250 200 h -50 z m 50,50 H 425 V 600 H 75 Z M 25,200 v 50 H 425 V 600 H 25 v 50 h 400 50 V 600 250 200 h -50 z m 0,0 v 50 350 50 H 75 475 V 600 H 75 V 250 H 475 V 200 H 75 Z m -50,400 v 50 l 150,150 h -350 v 50 h 400 50 V 800 L 25,600 Z M 25,200 v 50 l 400,400 h 50 V 600 L 75,200 Z m 0,0 v 50 400 H 75 V 250 H 475 V 200 H 75 Z m 0,0 v 50 400 H 75 V 250 H 475 V 200 H 75 Z m 0,0 v 50 l 400,400 h 50 V 600 L 75,200 Z m 0,0 v 50 350 50 h 400 50 V 600 250 200 h -50 z m 50,50 H 425 V 600 H 75 Z M 425,200 V 600 H 25 v 50 h 400 50 V 600 200 Z M 125,300 v 50 200 h 50 200 V 500 350 300 H 325 175 Z m 50,50 H 325 V 500 H 175 Z M 25,200 v 50 l 400,400 h 50 V 600 L 75,200 Z m 0,0 v 400 50 H 75 475 V 600 H 75 V 200 Z M -225,0 V 50 H 225 V 0 Z M 25,200 v 50 h 400 v 400 h 50 V 250 200 h -50 z m 0,0 v 50 l 400,400 h 50 V 600 L 75,200 Z m 400,0 V 600 H 25 v 50 h 400 50 V 600 200 Z m -400,0 v 50 400 H 75 V 250 h 350 v 400 h 50 V 250 200 H 425 Z M -225,50 V 0 h 50 L 25,200 v 50 H -25 Z M 25,200 v 50 l 400,400 h 50 V 600 L 75,200 Z m 0,0 v 400 50 h 400 50 V 600 200 H 425 V 600 H 75 V 200 Z m 0,0 v 50 l 400,400 h 50 V 600 L 75,200 Z m 0,0 v 50 H 425 V 600 H 25 v 50 h 400 50 V 600 250 200 h -50 z m 0,0 v 50 l 400,400 h 50 V 600 L 75,200 Z m 0,0 v 50 350 50 H 75 475 V 600 H 75 V 250 H 475 V 200 H 75 Z M -225,0 V 50 L -25,250 H 25 V 200 L -125,50 H 225 V 0 H -175 Z M 25,200 v 50 l 400,400 h 50 V 600 L 75,200 Z m 100,100 v 50 200 h 50 200 V 500 350 300 H 325 175 Z m 50,50 H 325 V 500 H 175 Z M 25,200 v 50 350 50 h 400 50 V 600 250 200 h -50 z m 50,50 H 425 V 600 H 75 Z m 150,150 h 50 v 50 h -50 z m 0,200 h 50 v 50 h -50 z m 0,-400 h 50 v 50 h -50 z m 100,100 h 50 V 550 H 325 Z M 125,500 h 250 v 50 H 125 Z m 0,-200 h 250 v 50 H 125 Z m 0,200 h 250 v 50 H 125 Z m 0,-200 h 250 v 50 H 125 Z m 0,0 h 50 v 250 h -50 z m 0,200 h 250 v 50 H 125 Z m 0,-200 h 250 v 50 H 125 Z m 100,100 h 50 v 50 h -50 z m -200,0 h 50 v 50 H 25 Z m 400,0 h 50 v 50 H 425 Z M 25,200 v 50 l 400,400 h 50 V 600 L 75,200 Z m 200,200 h 50 v 50 h -50 z m -200,0 h 50 v 50 H 25 Z m 400,0 h 50 v 50 H 425 Z M 225,600 h 50 v 50 h -50 z m 0,-400 h 50 v 50 h -50 z m -200,0 v 50 l 400,400 h 50 V 600 L 75,200 Z m 100,100 v 50 200 h 50 200 V 500 350 300 H 325 175 Z m 50,50 H 325 V 500 H 175 Z M 25,200 v 50 400 H 75 V 250 H 475 V 200 H 75 Z m 100,100 v 50 200 h 50 200 V 500 350 300 H 325 175 Z m 50,50 H 325 V 500 H 175 Z M 25,200 v 50 400 H 75 V 250 h 350 v 400 h 50 V 250 200 h -50 z m 100,100 v 50 200 h 50 200 V 500 350 300 H 325 175 Z m 50,50 H 325 V 500 H 175 Z M 25,200 v 50 h 400 v 400 h 50 V 250 200 h -50 z m 100,100 v 50 200 h 50 200 V 500 350 300 H 325 175 Z m 50,50 H 325 V 500 H 175 Z M 25,200 v 50 350 50 H 75 475 V 600 H 75 V 250 H 475 V 200 H 75 Z m 100,100 v 50 200 h 50 200 V 500 350 300 H 325 175 Z m 50,50 H 325 V 500 H 175 Z M 25,200 v 50 350 50 h 400 50 V 600 250 200 h -50 z m 50,50 H 425 V 600 H 75 Z m 50,50 v 50 200 h 50 200 V 500 350 300 H 325 175 Z m 50,50 H 325 V 500 H 175 Z M 25,200 v 50 H 425 V 600 H 25 v 50 h 400 50 V 600 250 200 h -50 z m 100,100 v 50 200 h 50 200 V 500 350 300 H 325 175 Z m 50,50 H 325 V 500 H 175 Z M 25,200 v 400 50 H 75 475 V 600 H 75 V 200 Z m 100,100 v 50 200 h 50 200 V 500 350 300 H 325 175 Z m 50,50 H 325 V 500 H 175 Z M 25,200 v 400 50 h 400 50 V 600 200 H 425 V 600 H 75 V 200 Z m 100,100 v 50 200 h 50 200 V 500 350 300 H 325 175 Z m 50,50 H 325 V 500 H 175 Z M 425,200 V 600 H 25 v 50 h 400 50 V 600 200 Z M 125,300 v 50 200 h 50 200 V 500 350 300 H 325 175 Z m 50,50 H 325 V 500 H 175 Z M 425,200 h 50 v 50 L 75,650 H 25 V 600 Z M 225,400 h 50 v 50 h -50 z m -200,0 h 50 v 50 H 25 Z m 400,0 h 50 v 50 H 425 Z M 225,600 h 50 v 50 h -50 z m 0,-400 h 50 v 50 H 225 Z M 25,400 h 450 v 50 H 25 Z m 200,0 h 50 v 50 h -50 z m -200,0 h 50 v 50 H 25 Z m 400,0 h 50 v 50 H 425 Z M 225,200 h 50 V 650 H 225 Z M 25,400 h 450 v 50 H 25 Z m 0,-200 v 50 l 400,400 h 50 V 600 L 75,200 Z m 400,0 h 50 v 50 L 75,650 H 25 v -50 z m -200,0 h 50 V 650 H 225 Z M 125,100 h 150 v 50 H 125 Z m 0,600 h 150 v 50 H 125 Z M 225,100 h 50 v 650 h -50 z m 0,0 h 150 v 50 H 225 Z m 0,600 h 150 v 50 H 225 Z m 0,-600 h 50 v 650 h -50 z m 0,100 h 50 v 50 h -50 z m 0,200 h 50 v 50 H 225 Z M 325,300 h 50 V 550 H 325 Z M 125,500 h 250 v 50 H 125 Z m 0,-200 h 250 v 50 H 125 Z M 25,200 v 50 H 425 V 600 H 25 v 50 h 400 50 V 600 250 200 h -50 z m 400,0 h 50 v 50 L 75,650 H 25 v -50 z m 0,400 h 50 v 50 H 425 Z M 25,200 h 50 v 50 H 25 Z m 0,400 v 50 h 50 350 50 V 600 H 425 75 Z m 0,-400 v 50 h 50 350 50 V 200 H 425 75 Z m 0,0 v 50 l 400,400 h 50 V 600 L 75,200 Z M 225,0 h 50 V 850 H 225 Z M 25,200 v 50 l 400,400 h 50 V 600 L 75,200 Z m 0,0 v 50 350 50 H 75 475 V 600 H 75 V 250 H 475 V 200 H 75 Z M 225,0 h 50 v 850 h -50 z m 100,300 h 50 v 50 h -50 z m -200,0 h 50 v 50 h -50 z m 100,300 h 50 v 50 h -50 z m 0,-400 h 50 v 50 h -50 z" />
</svg>