<svg width="500" height="850" xmlns="http://www.w3.org/2000/svg">
    <path style="fill:#000000;fill-opacity:0;stroke:#ff0000"
        d="m 125,100 v 50 200 h 50 200 V 300 150 100 H 325 175 Z m 50,50 H 325 V 300 H 175 Z m -50,350 v 50 200 h 50 200 V 700 550 500 H 325 175 Z m 50,50 H 325 V 700 H 175 Z M 225,0 h 50 V 850 H 225 Z M 25,200 v 50 350 50 h 400 50 V 600 250 200 h -50 z m 50,50 H 425 V 600 H 75 Z m 200,350 h -50 v 50 l 200,200 h 50 V 800 Z M 25,800 v 50 H 475 V 800 Z M 25,50 V 0 h 50 l 200,200 v 50 H 225 Z M 25,0 V 50 H 475 V 0 Z" />
    <rect x="230" y="105" width="040" height="040" style="fill:#000000;fill-opacity:0;stroke:#ff0000" />
    <rect x="235" y="110" width="030" height="030" style="fill:#000000;fill-opacity:0;stroke:#ff0000" />
    <rect x="240" y="115" width="020" height="020" style="fill:#000000;fill-opacity:0;stroke:#ff0000" />
    <rect x="245" y="120" width="010" height="010" style="fill:#000000;fill-opacity:0;stroke:#ff0000" />
    <rect x="230" y="705" width="040" height="040" style="fill:#000000;fill-opacity:0;stroke:#ff0000" />
    <rect x="235" y="710" width="030" height="030" style="fill:#000000;fill-opacity:0;stroke:#ff0000" />
    <rect x="240" y="715" width="020" height="020" style="fill:#000000;fill-opacity:0;stroke:#ff0000" />
    <rect x="245" y="720" width="010" height="010" style="fill:#000000;fill-opacity:0;stroke:#ff0000" />
    <rect x="245" y="100" width="010" height="010" />
    <rect x="245" y="120" width="010" height="010" />
    <rect x="245" y="140" width="010" height="010" />
    <rect x="225" y="120" width="010" height="010" />
    <rect x="265" y="120" width="010" height="010" />
    <rect x="245" y="700" width="010" height="010" />
    <rect x="245" y="720" width="010" height="010" />
    <rect x="245" y="740" width="010" height="010" />
    <rect x="225" y="720" width="010" height="010" />
    <rect x="265" y="720" width="010" height="010" />
</svg>