<svg width="500" height="850" xmlns="http://www.w3.org/2000/svg">
    <path style="fill:#000000;fill-opacity:0;stroke:#ff0000"
        d="m 125,100 v 50 200 h 50 200 V 300 150 100 H 325 175 Z m 50,50 H 325 V 300 H 175 Z m -50,350 v 50 200 h 50 200 V 700 550 500 H 325 175 Z m 50,50 H 325 V 700 H 175 Z M 225,0 h 50 V 850 H 225 Z M 25,200 v 50 350 50 h 400 50 V 600 250 200 h -50 z m 50,50 H 425 V 600 H 75 Z m 200,350 h -50 v 50 l 200,200 h 50 V 800 Z M 25,800 v 50 H 475 V 800 Z M 25,50 V 0 h 50 l 200,200 v 50 H 225 Z M 25,0 V 50 H 475 V 0 Z" />
</svg>