<svg width="500" height="850" xmlns="http://www.w3.org/2000/svg">
    <path d="M -475,0 V 50 H -25 V 0 Z" />

    <path d="M -475,50 V 0 h 50 l 200,200 v 50 h -50 z" />

    <path d="m -475,800 v 50 h 450 v -50 z" />

    <path d="m -225,600 h -50 v 50 l 200,200 h 50 v -50 z" />

    <path d="M 25 200 L 25 250 L 25 600 L 25 650 L 425 650 L 475 650 L 475 600 L 475 250 L 475 200 L 425 200 L 25 200 z M 75 250 L 425 250 L 425 600 L 75 600 L 75 250 z "/>

    <path d="M225 0h50v850h-50z"/>

    <path d="M 125 300 L 125 350 L 125 550 L 175 550 L 375 550 L 375 500 L 375 350 L 375 300 L 325 300 L 175 300 L 125 300 z M 175 350 L 325 350 L 325 500 L 175 500 L 175 350 z "/>
</svg>