<svg width="500" height="850" xmlns="http://www.w3.org/2000/svg">
    <polygon points="250,100 245,105 250,110 255,105" />
    <polygon points="250,120 245,125 250,130 255,125" />
    <polygon points="250,140 245,145 250,150 255,145" />
    <polygon points="230,120 225,125 230,130 235,125" />
    <polygon points="270,120 265,125 270,130 275,125" />
    <polygon points="250,700 245,705 250,710 255,705" />
    <polygon points="250,720 245,725 250,730 255,725" />
    <polygon points="250,740 245,745 250,750 255,745" />
    <polygon points="230,720 225,725 230,730 235,725" />
    <polygon points="270,720 265,725 270,730 275,725" />
</svg>