<svg width="500" height="850" xmlns="http://www.w3.org/2000/svg">
    <path d="m -250,0 -25,25 -75,75 -25,25 -75,75 -25,25 25,25 25,-25 75,-75 25,-25 75,-75 175,175 25,25 25,-25 z" />
</svg><svg width="500" height="850" xmlns="http://www.w3.org/2000/svg">
    <path
        d="m -350,100 -25,25 12.5,12.5 12.5,12.5 75,75 12.5,12.5 12.5,12.5 25,-25 -12.5,-12.5 -12.5,-12.5 -75,-75 -12.5,-12.5 z" />
</svg><svg width="500" height="850" xmlns="http://www.w3.org/2000/svg">
    <path
        d="m -450,600 -25,25 25,25 75,75 25,25 100,100 100,-100 25,-25 75,-75 25,-25 -25,-25 -25,25 -75,75 -25,25 -75,75 -175,-175 z" />
</svg><svg width="500" height="850" xmlns="http://www.w3.org/2000/svg">
    <path
        d="m -250,600 -25,25 12.5,12.5 12.5,12.5 75,75 12.5,12.5 12.5,12.5 25,-25 -12.5,-12.5 -12.5,-12.5 -75,-75 -12.5,-12.5 z" />
</svg><svg width="500" height="850" xmlns="http://www.w3.org/2000/svg">
    <path d="m250 200-25 25-75 75-12.5 12.5L125 325l-75 75-25 25 25 25 75 75 25 25 75 75 25 25 25-25 75-75 25-25 75-75 25-25-112.5-112.5L275 225zm0 50 75 75 25 25 75 75-100 100-75 75L75 425l75-75 12.5-12.5L175 325z"/>
</svg><svg width="500" height="850" xmlns="http://www.w3.org/2000/svg">
    <path d="M 250 0 L 225 25 L 225 825 L 250 850 L 275 825 L 275 25 L 250 0 z " />
</svg><svg width="500" height="850" xmlns="http://www.w3.org/2000/svg">
    <path d="M 250 300 L 125 425 L 250 550 L 375 425 L 250 300 z M 250 350 L 325 425 L 250 500 L 175 425 L 250 350 z "/>
</svg>