<svg width="500" height="850" xmlns="http://www.w3.org/2000/svg">
    <path style="fill:#000000;fill-opacity:0;stroke:#ff0000"
        d="M 250,500 125,625 250,750 375,625 Z m 0,50 75,75 -75,75 -75,-75 z M 250,100 125,225 250,350 375,225 Z m 0,50 75,75 -75,75 -75,-75 z M 250,0 225,25 v 800 l 25,25 25,-25 V 25 Z m 0,200 -25,25 -75,75 -12.5,12.5 -12.5,12.5 -75,75 -25,25 25,25 75,75 25,25 75,75 25,25 25,-25 75,-75 25,-25 75,-75 25,-25 L 362.5,312.5 275,225 Z m 0,50 75,75 25,25 75,75 L 325,525 250,600 75,425 150,350 162.5,337.5 175,325 Z m 0,350 -25,25 12.5,12.5 12.5,12.5 75,75 12.5,12.5 L 350,750 375,725 362.5,712.5 350,700 275,625 262.5,612.5 Z m -200,0 -25,25 25,25 75,75 25,25 100,100 100,-100 25,-25 75,-75 25,-25 -25,-25 -25,25 -75,75 -25,25 -75,75 L 75,625 Z m 100,-500 -25,25 12.5,12.5 12.5,12.5 75,75 12.5,12.5 L 250,250 275,225 262.5,212.5 250,200 175,125 162.5,112.5 Z M 250,0 l -25,25 -75,75 -25,25 -75,75 -25,25 25,25 25,-25 75,-75 25,-25 75,-75 175,175 25,25 25,-25 z" />
    <polygon points="250,100 225,125 250,150 275,125" style="fill:#000000;fill-opacity:0;stroke:#ff0000" />
    <polygon points="250,105 230,125 250,145 270,125" style="fill:#000000;fill-opacity:0;stroke:#ff0000" />
    <polygon points="250,110 235,125 250,140 265,125" style="fill:#000000;fill-opacity:0;stroke:#ff0000" />
    <polygon points="250,115 240,125 250,135 260,125" style="fill:#000000;fill-opacity:0;stroke:#ff0000" />
    <polygon points="250,120 245,125 250,130 255,125" style="fill:#000000;fill-opacity:0;stroke:#ff0000" />
    <polygon points="250,100 245,105 250,110 255,105" />
    <polygon points="250,120 245,125 250,130 255,125" />
    <polygon points="250,140 245,145 250,150 255,145" />
    <polygon points="230,120 225,125 230,130 235,125" />
    <polygon points="270,120 265,125 270,130 275,125" />
    <polygon points="250,700 225,725 250,750 275,725" style="fill:#000000;fill-opacity:0;stroke:#ff0000" />
    <polygon points="250,705 230,725 250,745 270,725" style="fill:#000000;fill-opacity:0;stroke:#ff0000" />
    <polygon points="250,710 235,725 250,740 265,725" style="fill:#000000;fill-opacity:0;stroke:#ff0000" />
    <polygon points="250,715 240,725 250,735 260,725" style="fill:#000000;fill-opacity:0;stroke:#ff0000" />
    <polygon points="250,720 245,725 250,730 255,725" style="fill:#000000;fill-opacity:0;stroke:#ff0000" />
    <polygon points="250,700 245,705 250,710 255,705" />
    <polygon points="250,720 245,725 250,730 255,725" />
    <polygon points="250,740 245,745 250,750 255,745" />
    <polygon points="230,720 225,725 230,730 235,725" />
    <polygon points="270,720 265,725 270,730 275,725" />
</svg>