<?xml version="1.0" encoding="UTF-8" standalone="no"?>
<svg width="500" height="850" version="1.1" id="svg20" sodipodi:docname="lozegw.svg" inkscape:version="1.4.3 (0d15f750, 2025-12-25)" xmlns:inkscape="http://www.inkscape.org/namespaces/inkscape" xmlns:sodipodi="http://sodipodi.sourceforge.net/DTD/sodipodi-0.dtd" xmlns="http://www.w3.org/2000/svg" xmlns:svg="http://www.w3.org/2000/svg">
    <defs id="defs20" />
    <sodipodi:namedview id="namedview20" pagecolor="#ffffff" bordercolor="#000000" borderopacity="0.25" inkscape:showpageshadow="2" inkscape:pageopacity="0.0" inkscape:pagecheckerboard="0" inkscape:deskcolor="#d1d1d1" inkscape:zoom="9.8027367" inkscape:cx="250.03222" inkscape:cy="725.00162" inkscape:window-width="930" inkscape:window-height="723" inkscape:window-x="0" inkscape:window-y="25" inkscape:window-maximized="0" inkscape:current-layer="svg20" />
    <polygon points="250,100 245,105 250,110 255,105" id="polygon6" />
    <polygon points="250,120 245,125 250,130 255,125" id="polygon7" />
    <polygon points="250,140 245,145 250,150 255,145" id="polygon8" />
    <polygon points="230,120 225,125 230,130 235,125" id="polygon9" />
    <polygon points="270,120 265,125 270,130 275,125" id="polygon10" />
    <polygon points="250,700 245,705 250,710 255,705" id="polygon16" />
    <polygon points="250,720 245,725 250,730 255,725" id="polygon17" />
    <polygon points="250,740 245,745 250,750 255,745" id="polygon18" />
    <polygon points="230,720 225,725 230,730 235,725" id="polygon19" />
    <polygon points="270,720 265,725 270,730 275,725" id="polygon20" />
</svg>
