<?xml version="1.0" encoding="UTF-8" standalone="no"?>
<svg width="500" height="850" version="1.1" id="svg7" sodipodi:docname="lozegw.svg" inkscape:version="1.4.3 (0d15f750, 2025-12-25)" xmlns:inkscape="http://www.inkscape.org/namespaces/inkscape" xmlns:sodipodi="http://sodipodi.sourceforge.net/DTD/sodipodi-0.dtd" xmlns="http://www.w3.org/2000/svg" xmlns:svg="http://www.w3.org/2000/svg">
    <defs id="defs7" />
    <sodipodi:namedview id="namedview7" pagecolor="#ffffff" bordercolor="#000000" borderopacity="0.25" inkscape:showpageshadow="2" inkscape:pageopacity="0.0" inkscape:pagecheckerboard="0" inkscape:deskcolor="#d1d1d1" inkscape:zoom="0.62588235" inkscape:cx="249.24812" inkscape:cy="425" inkscape:window-width="930" inkscape:window-height="751" inkscape:window-x="0" inkscape:window-y="25" inkscape:window-maximized="0" inkscape:current-layer="svg7" />
    <path id="path8" style="fill:#000000;fill-opacity:0;stroke:#ff0000" d="M 250,500 125,625 250,750 375,625 Z m 0,50 75,75 -75,75 -75,-75 z M 250,100 125,225 250,350 375,225 Z m 0,50 75,75 -75,75 -75,-75 z M 250,0 225,25 v 800 l 25,25 25,-25 V 25 Z m 0,200 -25,25 -75,75 -12.5,12.5 -12.5,12.5 -75,75 -25,25 25,25 75,75 25,25 75,75 25,25 25,-25 75,-75 25,-25 75,-75 25,-25 L 362.5,312.5 275,225 Z m 0,50 75,75 25,25 75,75 L 325,525 250,600 75,425 150,350 162.5,337.5 175,325 Z m 0,350 -25,25 12.5,12.5 12.5,12.5 75,75 12.5,12.5 L 350,750 375,725 362.5,712.5 350,700 275,625 262.5,612.5 Z m -200,0 -25,25 25,25 75,75 25,25 100,100 100,-100 25,-25 75,-75 25,-25 -25,-25 -25,25 -75,75 -25,25 -75,75 L 75,625 Z m 100,-500 -25,25 12.5,12.5 12.5,12.5 75,75 12.5,12.5 L 250,250 275,225 262.5,212.5 250,200 175,125 162.5,112.5 Z M 250,0 l -25,25 -75,75 -25,25 -75,75 -25,25 25,25 25,-25 75,-75 25,-25 75,-75 175,175 25,25 25,-25 z" />
</svg>
