<svg width="500" height="850" xmlns="http://www.w3.org/2000/svg">
    <path style="fill:#000000;fill-opacity:0;stroke:#ff0000"
        d="m 150,300 -25,25 -75,75 -25,25 25,25 75,75 25,25 25,-25 L 162.5,512.5 75,425 l 75,-75 175,175 12.5,12.5 12.5,12.5 25,-25 75,-75 25,-25 -125,-125 -25,25 100,100 -75,75 -175,-175 -12.5,-12.5 z m 125,-75 -125,-125 -25,25 25,25 75,75 V 325 L 325,425 225,525 v 100 l -75,75 -25,25 25,25 125,-125 V 525 L 375,425 275,325 Z M 225,25 250,0 275,25 v 800 l -25,25 -25,-25 z m 0,200 125,-125 25,25 -25,25 -75,75 V 325 L 175,425 275,525 v 100 l 75,75 25,25 -25,25 L 225,625 V 525 L 125,425 225,325 Z m -75,75 -25,25 12.5,12.5 L 150,350 325,525 337.5,537.5 350,550 375,525 362.5,512.5 350,500 175,325 162.5,312.5 Z m 100,-100 -25,25 -75,75 -25,25 -75,75 -25,25 25,25 75,75 25,25 100,100 100,-100 25,-25 75,-75 25,-25 -25,-25 -25,25 -75,75 -25,25 -75,75 -175,-175 75,-75 25,-25 75,-75 25,-25 z m 0,100 -125,125 125,125 125,-125 z m 0,50 75,75 -75,75 -75,-75 z M 150,300 125,325 137.5,337.5 150,350 325,525 337.5,537.5 350,550 375,525 362.5,512.5 350,500 175,325 162.5,312.5 Z m 100,-100 -25,25 -87.5,87.5 -12.5,12.5 25,25 12.5,-12.5 87.5,-87.5 175,175 -75,75 -25,25 -75,75 -75,-75 -25,-25 -25,25 12.5,12.5 L 250,650 350,550 375,525 450,450 475,425 275,225 Z M 150,300 125,325 137.5,337.5 150,350 325,525 337.5,537.5 350,550 375,525 362.5,512.5 350,500 175,325 162.5,312.5 Z m 100,-100 -25,25 -75,75 -25,25 -75,75 -25,25 25,25 25,-25 75,-75 25,-25 75,-75 175,175 -75,75 -25,25 -75,75 -25,25 25,25 25,-25 75,-75 25,-25 75,-75 25,-25 z m -450,400 -25,25 25,25 75,75 25,25 100,100 100,-100 25,-25 75,-75 25,-25 -25,-25 -25,25 -75,75 L 75,725 0,800 -175,625 Z M 150,300 125,325 137.5,337.5 150,350 325,525 337.5,537.5 350,550 375,525 362.5,512.5 350,500 175,325 162.5,312.5 Z m 100,-100 -25,25 -75,75 -25,25 -75,75 -25,25 25,25 75,75 25,25 25,-25 L 162.5,512.5 75,425 150,350 175,325 250,250 425,425 337.5,512.5 325,525 350,550 362.5,537.5 450,450 475,425 Z M 0,600 -25,625 -12.5,637.5 0,650 75,725 87.5,737.5 100,750 125,725 112.5,712.5 100,700 25,625 12.5,612.5 Z m 150,-300 -25,25 -75,75 -25,25 25,25 75,75 25,25 100,100 100,-100 25,-25 75,-75 25,-25 -100,-100 -25,-25 -25,25 25,25 75,75 -75,75 -25,25 -75,75 -175,-175 75,-75 25,-25 z m 100,-100 -25,25 -75,75 -25,25 -75,75 -25,25 25,25 75,75 25,25 100,100 100,-100 25,-25 75,-75 25,-25 -25,-25 -25,25 -75,75 -25,25 -75,75 -175,-175 75,-75 25,-25 75,-75 25,-25 z m 0,0 -25,25 -75,75 -12.5,12.5 -12.5,12.5 -75,75 -25,25 25,25 75,75 25,25 75,75 25,25 25,-25 75,-75 25,-25 75,-75 25,-25 L 362.5,312.5 275,225 Z m 0,50 75,75 25,25 75,75 L 325,525 250,600 75,425 150,350 162.5,337.5 175,325 Z m 0,-50 -25,25 -87.5,87.5 -12.5,12.5 25,25 12.5,-12.5 87.5,-87.5 175,175 -75,75 -25,25 -75,75 -75,-75 -25,-25 -25,25 12.5,12.5 L 250,650 350,550 375,525 450,450 475,425 275,225 Z m 0,0 -25,25 -75,75 -25,25 -75,75 -25,25 25,25 75,75 25,25 100,100 100,-100 25,-25 -25,-25 -25,25 -75,75 -175,-175 75,-75 25,-25 75,-75 75,75 25,25 25,-25 -12.5,-12.5 z m -450,400 -25,25 25,25 75,75 25,25 100,100 100,-100 25,-25 75,-75 25,-25 -25,-25 -25,25 -75,75 L 25,625 12.5,612.5 0,600 -25,625 -12.5,637.5 0,650 75,725 0,800 -175,625 Z M 150,300 125,325 137.5,337.5 150,350 325,525 337.5,537.5 350,550 375,525 362.5,512.5 350,500 175,325 162.5,312.5 Z m 100,-100 -25,25 -75,75 -25,25 -75,75 -25,25 25,25 75,75 25,25 75,75 25,25 25,-25 -25,-25 -175,-175 75,-75 25,-25 75,-75 175,175 25,25 25,-25 z m 0,0 -25,25 -75,75 -25,25 -75,75 -25,25 25,25 75,75 25,25 75,75 25,25 25,-25 -25,-25 -175,-175 75,-75 25,-25 75,-75 175,175 25,25 25,-25 z M 150,300 125,325 137.5,337.5 150,350 325,525 337.5,537.5 350,550 375,525 362.5,512.5 350,500 175,325 162.5,312.5 Z m 100,-100 -25,25 -75,75 -12.5,12.5 -12.5,12.5 -75,75 -25,25 25,25 75,75 25,25 75,75 25,25 25,-25 75,-75 25,-25 75,-75 25,-25 L 362.5,312.5 275,225 Z m 0,50 75,75 25,25 75,75 L 325,525 250,600 75,425 150,350 162.5,337.5 175,325 Z m 0,-50 -25,25 25,25 75,75 25,25 75,75 -75,75 -25,25 -75,75 -175,-175 -25,-25 -25,25 25,25 75,75 25,25 100,100 100,-100 25,-25 75,-75 25,-25 -200,-200 z m 0,100 -125,125 125,125 125,-125 z m 0,50 75,75 -75,75 -75,-75 z M 150,300 125,325 137.5,337.5 150,350 325,525 337.5,537.5 350,550 375,525 362.5,512.5 350,500 175,325 162.5,312.5 Z m 100,-100 -25,25 -75,75 -25,25 -75,75 -25,25 25,25 75,75 25,25 100,100 100,-100 25,-25 75,-75 25,-25 -25,-25 -25,25 -75,75 -25,25 -75,75 -175,-175 75,-75 25,-25 75,-75 25,-25 z M 0,0 l -25,25 -75,75 -25,25 -75,75 -25,25 25,25 25,-25 75,-75 25,-25 75,-75 175,175 25,25 25,-25 z m 250,200 -25,25 -75,75 -25,25 -75,75 -25,25 25,25 25,-25 75,-75 25,-25 75,-75 175,175 -75,75 -25,25 -75,75 -25,25 25,25 25,-25 75,-75 25,-25 75,-75 25,-25 z M 150,300 125,325 137.5,337.5 150,350 325,525 337.5,537.5 350,550 375,525 362.5,512.5 350,500 175,325 162.5,312.5 Z m 100,-100 -25,25 25,25 75,75 25,25 75,75 -75,75 -25,25 -75,75 -175,-175 -25,-25 -25,25 25,25 75,75 25,25 100,100 100,-100 25,-25 75,-75 25,-25 -200,-200 z m 0,0 -25,25 -75,75 -25,25 -75,75 -25,25 25,25 75,75 25,25 25,-25 L 162.5,512.5 75,425 l 75,-75 25,-25 75,-75 175,175 -87.5,87.5 -12.5,12.5 25,25 12.5,-12.5 87.5,-87.5 25,-25 z m -350,-100 -25,25 12.5,12.5 12.5,12.5 75,75 12.5,12.5 L 0,250 25,225 12.5,212.5 0,200 -75,125 -87.5,112.5 Z m 250,200 -25,25 12.5,12.5 L 150,350 325,525 337.5,537.5 350,550 375,525 362.5,512.5 350,500 175,325 162.5,312.5 Z m 0,0 -25,25 -75,75 -25,25 25,25 75,75 25,25 100,100 100,-100 25,-25 75,-75 25,-25 -100,-100 -25,-25 -25,25 25,25 75,75 -75,75 -25,25 -75,75 -175,-175 75,-75 25,-25 z m 0,0 -25,25 12.5,12.5 L 150,350 325,525 337.5,537.5 350,550 375,525 362.5,512.5 350,500 175,325 162.5,312.5 Z m 100,-100 -25,25 -87.5,87.5 -12.5,12.5 25,25 12.5,-12.5 87.5,-87.5 175,175 -75,75 -25,25 -75,75 -75,-75 -25,-25 -25,25 12.5,12.5 L 250,650 350,550 375,525 450,450 475,425 275,225 Z M 150,300 125,325 137.5,337.5 150,350 325,525 337.5,537.5 350,550 375,525 362.5,512.5 350,500 175,325 162.5,312.5 Z m 100,-100 -25,25 -75,75 -25,25 -75,75 -25,25 25,25 75,75 25,25 100,100 100,-100 25,-25 -25,-25 -25,25 -75,75 -175,-175 75,-75 25,-25 75,-75 75,75 25,25 25,-25 -12.5,-12.5 z M 0,0 l -25,25 -75,75 -25,25 -75,75 -25,25 25,25 25,-25 75,-75 75,75 L 0,250 25,225 12.5,212.5 -75,125 0,50 l 175,175 25,25 25,-25 z m 250,200 -25,25 25,25 75,75 25,25 25,-25 L 362.5,312.5 275,225 Z m -100,300 -25,25 12.5,12.5 12.5,12.5 100,100 100,-100 25,-25 -25,-25 -25,25 -75,75 z m 100,-300 -25,25 -75,75 -12.5,12.5 -12.5,12.5 25,25 12.5,-12.5 12.5,-12.5 75,-75 75,75 25,25 25,-25 -12.5,-12.5 z m 125,25 -125,-125 -125,125 25,25 25,-25 75,-75 75,75 v 400 l -75,75 -75,-75 -25,-25 -25,25 125,125 125,-125 z m -225,75 -25,25 12.5,12.5 L 150,350 325,525 337.5,537.5 350,550 375,525 362.5,512.5 350,500 175,325 162.5,312.5 Z m -25,-75 125,-125 125,125 -25,25 -25,-25 -75,-75 -75,75 v 400 l 75,75 75,-75 25,-25 25,25 L 250,750 125,625 Z m 25,75 -25,25 12.5,12.5 L 150,350 325,525 337.5,537.5 350,550 375,525 362.5,512.5 350,500 175,325 162.5,312.5 Z m 100,-100 -25,25 -75,75 -25,25 -75,75 -25,25 25,25 75,75 25,25 100,100 100,-100 25,-25 75,-75 25,-25 -25,-25 -25,25 -75,75 -25,25 -75,75 -175,-175 75,-75 25,-25 75,-75 25,-25 z m 0,100 -125,125 125,125 125,-125 z m 0,50 75,75 -75,75 -75,-75 z M 150,300 125,325 137.5,337.5 150,350 325,525 337.5,537.5 350,550 375,525 362.5,512.5 350,500 175,325 162.5,312.5 Z m 100,-100 -25,25 -87.5,87.5 -12.5,12.5 25,25 12.5,-12.5 87.5,-87.5 175,175 -75,75 -25,25 -75,75 -75,-75 -25,-25 -25,25 12.5,12.5 L 250,650 350,550 375,525 450,450 475,425 275,225 Z M 150,300 125,325 137.5,337.5 150,350 325,525 337.5,537.5 350,550 375,525 362.5,512.5 350,500 175,325 162.5,312.5 Z m 100,-100 -25,25 -75,75 -25,25 -75,75 -25,25 25,25 25,-25 75,-75 25,-25 75,-75 175,175 -75,75 -25,25 -75,75 -25,25 25,25 25,-25 75,-75 25,-25 75,-75 25,-25 z m -450,400 -25,25 25,25 75,75 25,25 100,100 100,-100 25,-25 75,-75 25,-25 -25,-25 -25,25 -75,75 L 75,725 0,800 -175,625 Z M 150,300 125,325 137.5,337.5 150,350 325,525 337.5,537.5 350,550 375,525 362.5,512.5 350,500 175,325 162.5,312.5 Z m 100,-100 -25,25 -75,75 -25,25 -75,75 -25,25 25,25 75,75 25,25 25,-25 L 162.5,512.5 75,425 150,350 175,325 250,250 425,425 337.5,512.5 325,525 350,550 362.5,537.5 450,450 475,425 Z M 0,600 -25,625 -12.5,637.5 0,650 75,725 87.5,737.5 100,750 125,725 112.5,712.5 100,700 25,625 12.5,612.5 Z m 150,-300 -25,25 -75,75 -25,25 25,25 75,75 25,25 100,100 100,-100 25,-25 75,-75 25,-25 -100,-100 -25,-25 -25,25 25,25 75,75 -75,75 -25,25 -75,75 -175,-175 75,-75 25,-25 z m 100,-100 -25,25 -75,75 -25,25 -75,75 -25,25 25,25 75,75 25,25 100,100 100,-100 25,-25 75,-75 25,-25 -25,-25 -25,25 -75,75 -25,25 -75,75 -175,-175 75,-75 25,-25 75,-75 25,-25 z m 0,0 -25,25 -75,75 -12.5,12.5 -12.5,12.5 -75,75 -25,25 25,25 75,75 25,25 75,75 25,25 25,-25 75,-75 25,-25 75,-75 25,-25 L 362.5,312.5 275,225 Z m 0,50 75,75 25,25 75,75 L 325,525 250,600 75,425 150,350 162.5,337.5 175,325 Z m 0,-50 -25,25 -87.5,87.5 -12.5,12.5 25,25 12.5,-12.5 87.5,-87.5 175,175 -75,75 -25,25 -75,75 -75,-75 -25,-25 -25,25 12.5,12.5 L 250,650 350,550 375,525 450,450 475,425 275,225 Z m 0,0 -25,25 -75,75 -25,25 -75,75 -25,25 25,25 75,75 25,25 100,100 100,-100 25,-25 -25,-25 -25,25 -75,75 -175,-175 75,-75 25,-25 75,-75 75,75 25,25 25,-25 -12.5,-12.5 z m -450,400 -25,25 25,25 75,75 25,25 100,100 100,-100 25,-25 75,-75 25,-25 -25,-25 -25,25 -75,75 L 25,625 12.5,612.5 0,600 -25,625 -12.5,637.5 0,650 75,725 0,800 -175,625 Z M 150,300 125,325 137.5,337.5 150,350 325,525 337.5,537.5 350,550 375,525 362.5,512.5 350,500 175,325 162.5,312.5 Z m 100,-100 -25,25 -75,75 -25,25 -75,75 -25,25 25,25 75,75 25,25 75,75 25,25 25,-25 -25,-25 -175,-175 75,-75 25,-25 75,-75 175,175 25,25 25,-25 z m 0,0 -25,25 -75,75 -25,25 -75,75 -25,25 25,25 75,75 25,25 75,75 25,25 25,-25 -25,-25 -175,-175 75,-75 25,-25 75,-75 175,175 25,25 25,-25 z M 150,300 125,325 137.5,337.5 150,350 325,525 337.5,537.5 350,550 375,525 362.5,512.5 350,500 175,325 162.5,312.5 Z m 100,-100 -25,25 -75,75 -12.5,12.5 -12.5,12.5 -75,75 -25,25 25,25 75,75 25,25 75,75 25,25 25,-25 75,-75 25,-25 75,-75 25,-25 L 362.5,312.5 275,225 Z m 0,50 75,75 25,25 75,75 L 325,525 250,600 75,425 150,350 162.5,337.5 175,325 Z m 0,-50 -25,25 25,25 75,75 25,25 75,75 -75,75 -25,25 -75,75 -175,-175 -25,-25 -25,25 25,25 75,75 25,25 100,100 100,-100 25,-25 75,-75 25,-25 -200,-200 z m 0,100 -125,125 125,125 125,-125 z m 0,50 75,75 -75,75 -75,-75 z M 150,300 125,325 137.5,337.5 150,350 325,525 337.5,537.5 350,550 375,525 362.5,512.5 350,500 175,325 162.5,312.5 Z m 100,-100 -25,25 -75,75 -25,25 -75,75 -25,25 25,25 75,75 25,25 100,100 100,-100 25,-25 75,-75 25,-25 -25,-25 -25,25 -75,75 -25,25 -75,75 -175,-175 75,-75 25,-25 75,-75 25,-25 z M 0,0 l -25,25 -75,75 -25,25 -75,75 -25,25 25,25 25,-25 75,-75 25,-25 75,-75 175,175 25,25 25,-25 z m 250,200 -25,25 -75,75 -25,25 -75,75 -25,25 25,25 25,-25 75,-75 25,-25 75,-75 175,175 -75,75 -25,25 -75,75 -25,25 25,25 25,-25 75,-75 25,-25 75,-75 25,-25 z M 150,300 125,325 137.5,337.5 150,350 325,525 337.5,537.5 350,550 375,525 362.5,512.5 350,500 175,325 162.5,312.5 Z m 100,-100 -25,25 25,25 75,75 25,25 75,75 -75,75 -25,25 -75,75 -175,-175 -25,-25 -25,25 25,25 75,75 25,25 100,100 100,-100 25,-25 75,-75 25,-25 -200,-200 z m 0,0 -25,25 -75,75 -25,25 -75,75 -25,25 25,25 75,75 25,25 25,-25 L 162.5,512.5 75,425 l 75,-75 25,-25 75,-75 175,175 -87.5,87.5 -12.5,12.5 25,25 12.5,-12.5 87.5,-87.5 25,-25 z m -350,-100 -25,25 12.5,12.5 12.5,12.5 75,75 12.5,12.5 L 0,250 25,225 12.5,212.5 0,200 -75,125 -87.5,112.5 Z m 250,200 -25,25 12.5,12.5 L 150,350 325,525 337.5,537.5 350,550 375,525 362.5,512.5 350,500 175,325 162.5,312.5 Z m 0,0 -25,25 -75,75 -25,25 25,25 75,75 25,25 100,100 100,-100 25,-25 75,-75 25,-25 -100,-100 -25,-25 -25,25 25,25 75,75 -75,75 -25,25 -75,75 -175,-175 75,-75 25,-25 z m 0,0 -25,25 12.5,12.5 L 150,350 325,525 337.5,537.5 350,550 375,525 362.5,512.5 350,500 175,325 162.5,312.5 Z m 100,-100 -25,25 -87.5,87.5 -12.5,12.5 25,25 12.5,-12.5 87.5,-87.5 175,175 -75,75 -25,25 -75,75 -75,-75 -25,-25 -25,25 12.5,12.5 L 250,650 350,550 375,525 450,450 475,425 275,225 Z M 150,300 125,325 137.5,337.5 150,350 325,525 337.5,537.5 350,550 375,525 362.5,512.5 350,500 175,325 162.5,312.5 Z m 100,-100 -25,25 -75,75 -25,25 -75,75 -25,25 25,25 75,75 25,25 100,100 100,-100 25,-25 -25,-25 -25,25 -75,75 -175,-175 75,-75 25,-25 75,-75 75,75 25,25 25,-25 -12.5,-12.5 z M 0,0 l -25,25 -75,75 -25,25 -75,75 -25,25 25,25 25,-25 75,-75 75,75 L 0,250 25,225 12.5,212.5 -75,125 0,50 l 175,175 25,25 25,-25 z m 150,300 -25,25 12.5,12.5 L 150,350 325,525 337.5,537.5 350,550 375,525 362.5,512.5 350,500 175,325 162.5,312.5 Z m 100,0 -125,125 125,125 125,-125 z m 0,50 75,75 -75,75 -75,-75 z m 0,-150 -25,25 -75,75 -12.5,12.5 -12.5,12.5 -75,75 -25,25 25,25 75,75 25,25 75,75 25,25 25,-25 75,-75 25,-25 75,-75 25,-25 L 362.5,312.5 275,225 Z m 0,50 75,75 25,25 75,75 L 325,525 250,600 75,425 150,350 162.5,337.5 175,325 Z m 0,150 25,25 -25,25 -25,-25 z m 0,200 25,25 -25,25 -25,-25 z m 0,-400 25,25 -25,25 -25,-25 z m 0,100 -50,50 -12.5,12.5 -12.5,12.5 25,25 12.5,-12.5 12.5,-12.5 25,-25 75,75 -75,75 -25,-25 -12.5,-12.5 -12.5,-12.5 -25,25 12.5,12.5 12.5,12.5 50,50 125,-125 z m 0,0 -50,50 -12.5,12.5 -12.5,12.5 25,25 12.5,-12.5 12.5,-12.5 25,-25 50,50 25,-25 L 312.5,362.5 300,350 Z m -50,150 -25,25 12.5,12.5 12.5,12.5 50,50 50,-50 12.5,-12.5 L 325,475 300,450 250,500 212.5,462.5 Z M 250,300 125,425 250,550 300,500 312.5,487.5 325,475 300,450 287.5,462.5 275,475 l -25,25 -75,-75 75,-75 25,25 12.5,12.5 L 300,400 325,375 312.5,362.5 300,350 Z m 0,100 25,25 -25,25 -25,-25 z m 200,0 25,25 -25,25 -25,-25 z M 50,400 75,425 50,450 25,425 Z M 150,300 125,325 137.5,337.5 150,350 325,525 337.5,537.5 350,550 375,525 362.5,512.5 350,500 175,325 162.5,312.5 Z m 100,100 25,25 -25,25 -25,-25 z m 0,200 25,25 -25,25 -25,-25 z m 200,-200 25,25 -25,25 -25,-25 z m -200,-200 25,25 -25,25 -25,-25 z M 50,400 75,425 50,450 25,425 Z M 150,300 125,325 137.5,337.5 150,350 325,525 337.5,537.5 350,550 375,525 362.5,512.5 350,500 175,325 162.5,312.5 Z m 100,0 -125,125 125,125 125,-125 z m 0,50 75,75 -75,75 -75,-75 z m 0,-150 -25,25 -75,75 -25,25 -75,75 -25,25 25,25 75,75 25,25 75,75 25,25 25,-25 -25,-25 -175,-175 75,-75 25,-25 75,-75 175,175 25,25 25,-25 z m 0,100 -125,125 125,125 125,-125 z m 0,50 75,75 -75,75 -75,-75 z m 0,-150 -25,25 -75,75 -25,25 -75,75 -25,25 25,25 75,75 25,25 25,-25 L 162.5,512.5 75,425 l 75,-75 25,-25 75,-75 175,175 -87.5,87.5 -12.5,12.5 25,25 12.5,-12.5 87.5,-87.5 25,-25 z m 0,100 -125,125 125,125 125,-125 z m 0,50 75,75 -75,75 -75,-75 z m 0,-150 -25,25 -75,75 -25,25 -75,75 -25,25 25,25 25,-25 75,-75 25,-25 75,-75 175,175 -75,75 -25,25 -75,75 -25,25 25,25 25,-25 75,-75 25,-25 75,-75 25,-25 z m 0,100 -125,125 125,125 125,-125 z m 0,50 75,75 -75,75 -75,-75 z m 0,-150 -25,25 -75,75 -25,25 -75,75 -25,25 25,25 75,75 25,25 100,100 100,-100 25,-25 -25,-25 -25,25 -75,75 -175,-175 75,-75 25,-25 75,-75 75,75 25,25 25,-25 -12.5,-12.5 z m 0,100 -125,125 125,125 125,-125 z m 0,50 75,75 -75,75 -75,-75 z m 0,-150 -25,25 -75,75 -12.5,12.5 -12.5,12.5 -75,75 -25,25 25,25 75,75 25,25 75,75 25,25 25,-25 75,-75 25,-25 75,-75 25,-25 L 362.5,312.5 275,225 Z m 0,50 75,75 25,25 75,75 L 325,525 250,600 75,425 150,350 162.5,337.5 175,325 Z m 0,50 -125,125 125,125 125,-125 z m 0,50 75,75 -75,75 -75,-75 z m 0,-150 -25,25 -87.5,87.5 -12.5,12.5 25,25 12.5,-12.5 87.5,-87.5 175,175 -75,75 -25,25 -75,75 -75,-75 -25,-25 -25,25 12.5,12.5 L 250,650 350,550 375,525 450,450 475,425 275,225 Z m 0,100 -125,125 125,125 125,-125 z m 0,50 75,75 -75,75 -75,-75 z m 0,-150 -25,25 -75,75 -25,25 -75,75 -25,25 25,25 75,75 25,25 100,100 100,-100 25,-25 75,-75 25,-25 -25,-25 -25,25 -75,75 -25,25 -75,75 -175,-175 75,-75 25,-25 75,-75 25,-25 z m 0,100 -125,125 125,125 125,-125 z m 0,50 75,75 -75,75 -75,-75 z m -100,-50 -25,25 -75,75 -25,25 25,25 75,75 25,25 100,100 100,-100 25,-25 75,-75 25,-25 -100,-100 -25,-25 -25,25 25,25 75,75 -75,75 -25,25 -75,75 -175,-175 75,-75 25,-25 z m 100,0 -125,125 125,125 125,-125 z m 0,50 75,75 -75,75 -75,-75 z m 0,-150 -25,25 25,25 75,75 25,25 75,75 -75,75 -25,25 -75,75 -175,-175 -25,-25 -25,25 25,25 75,75 25,25 100,100 100,-100 25,-25 75,-75 25,-25 -200,-200 z m 0,100 -125,125 125,125 125,-125 z m 0,50 75,75 -75,75 -75,-75 z M 350,300 337.5,312.5 325,325 150,500 137.5,512.5 125,525 150,550 162.5,537.5 175,525 350,350 362.5,337.5 375,325 Z m -100,100 25,25 -25,25 -25,-25 z m 0,200 25,25 -25,25 -25,-25 z m 200,-200 25,25 -25,25 -25,-25 z m -200,-200 25,25 -25,25 -25,-25 z M 50,400 75,425 50,450 25,425 Z m 400,0 25,25 -25,25 H 50 L 25,425 50,400 Z m -200,0 25,25 -25,25 -25,-25 z m 200,0 25,25 -25,25 -25,-25 z m -400,0 25,25 -25,25 -25,-25 z m 225,225 -25,25 -25,-25 V 225 l 25,-25 25,25 z m 175,-225 25,25 -25,25 H 50 L 25,425 50,400 Z M 150,300 125,325 137.5,337.5 150,350 325,525 337.5,537.5 350,550 375,525 362.5,512.5 350,500 175,325 162.5,312.5 Z m 200,0 -12.5,12.5 L 325,325 150,500 137.5,512.5 125,525 150,550 162.5,537.5 175,525 350,350 362.5,337.5 375,325 Z m -75,325 -25,25 -25,-25 V 225 l 25,-25 25,25 z m 0,-400 -125,-125 -25,25 25,25 75,75 v 400 l -75,75 -25,25 25,25 125,-125 z m -50,0 125,-125 25,25 -25,25 -75,75 v 400 l 75,75 25,25 -25,25 -125,-125 z m 25,-25 25,25 -25,25 -25,-25 z m 0,200 25,25 -25,25 -25,-25 z m 0,-100 -50,50 -12.5,12.5 -12.5,12.5 25,25 12.5,-12.5 12.5,-12.5 25,-25 75,75 -75,75 -25,-25 -12.5,-12.5 -12.5,-12.5 -25,25 12.5,12.5 12.5,12.5 50,50 125,-125 z m 0,-100 -25,25 -87.5,87.5 -12.5,12.5 25,25 12.5,-12.5 87.5,-87.5 175,175 -75,75 -25,25 -75,75 -75,-75 -25,-25 -25,25 12.5,12.5 L 250,650 350,550 375,525 450,450 475,425 275,225 Z M 350,300 337.5,312.5 325,325 150,500 137.5,512.5 125,525 150,550 162.5,537.5 175,525 350,350 362.5,337.5 375,325 Z m -200,0 25,25 -25,25 -25,-25 z m 200,200 25,25 -25,25 -25,-25 z M 225,25 250,0 275,25 v 800 l -25,25 -25,-25 z m -75,475 -25,25 12.5,12.5 12.5,12.5 100,100 100,-100 25,-25 -25,-25 -25,25 -75,75 z m 100,-300 -25,25 -75,75 -12.5,12.5 -12.5,12.5 25,25 12.5,-12.5 12.5,-12.5 75,-75 75,75 25,25 25,-25 -12.5,-12.5 z M 150,300 125,325 137.5,337.5 150,350 325,525 337.5,537.5 350,550 375,525 362.5,512.5 350,500 175,325 162.5,312.5 Z M 225,25 250,0 275,25 v 800 l -25,25 -25,-25 z m -75,275 -25,25 12.5,12.5 L 150,350 325,525 337.5,537.5 350,550 375,525 362.5,512.5 350,500 175,325 162.5,312.5 Z m 100,-100 -25,25 -75,75 -25,25 -75,75 -25,25 25,25 75,75 25,25 100,100 100,-100 25,-25 -25,-25 -25,25 -75,75 -175,-175 75,-75 25,-25 75,-75 75,75 25,25 25,-25 -12.5,-12.5 z m -100,100 25,25 -25,25 -25,-25 z m 200,0 25,25 -25,25 -25,-25 z m -100,300 25,25 -25,25 -25,-25 z m 0,-400 25,25 -25,25 -25,-25 z" />
</svg>