<?xml version="1.0" encoding="UTF-8" standalone="no"?>
<svg width="400" height="700" version="1.1" id="svg131" sodipodi:docname="makina.svg"
    inkscape:version="1.4.2 (ebf0e940, 2025-05-08)" xmlns:inkscape="http://www.inkscape.org/namespaces/inkscape"
    xmlns:sodipodi="http://sodipodi.sourceforge.net/DTD/sodipodi-0.dtd" xmlns="http://www.w3.org/2000/svg"
    xmlns:svg="http://www.w3.org/2000/svg">
    <defs id="defs131" />
    <sodipodi:namedview id="namedview131" pagecolor="#ffffff" bordercolor="#000000" borderopacity="0.25"
        inkscape:showpageshadow="2" inkscape:pageopacity="0.0" inkscape:pagecheckerboard="0"
        inkscape:deskcolor="#d1d1d1" inkscape:zoom="0.42229814" inkscape:cx="190.62362" inkscape:cy="349.27931"
        inkscape:window-width="1440" inkscape:window-height="722" inkscape:window-x="0" inkscape:window-y="25"
        inkscape:window-maximized="0" inkscape:current-layer="svg131" />
    <path id="path131" style="fill:#000000;fill-opacity:0;stroke:#ff0000"
        d="m 100,250 v 50 h 50 v -50 z m 50,50 v 50 h 50 v -50 z m 50,50 v 50 h 50 v -50 z m 50,0 h 50 V 300 H 250 Z M 100,300 H 50 v 50 h 50 z M 50,0 V 50 H 150 V 0 Z m 100,50 v 250 h 50 V 50 Z m 50,250 v 50 h 100 v -50 z m 0,50 h -50 v 250 h 50 z M 150,600 H 50 v 50 H 150 Z M 150,0 v 650 h 50 V 0 Z m 50,0 V 50 H 300 V 0 Z m 0,50 h -50 v 250 h 50 z M 150,300 H 50 v 50 h 100 z m 0,50 v 250 h 50 V 350 Z m 50,250 v 50 H 300 V 600 Z M 50,200 v 50 h 50 v -50 z m 50,50 v 50 h 50 v -50 z m 50,50 v 50 h 50 v -50 z m 50,50 v 50 h 50 v -50 z m 50,50 v 50 h 50 V 400 Z M 100,150 v 50 h 100 v -50 z m 0,50 H 50 v 50 h 50 z M 50,250 H 0 v 150 h 50 z m 0,150 v 50 h 50 v -50 z m 50,50 v 50 h 150 v -50 z m 150,0 h 50 v -50 h -50 z m 50,-50 h 50 V 300 H 300 Z M 150,250 v 50 h 50 v -50 z m 50,50 v 50 h 50 v -50 z m 0,50 h -50 v 50 h 50 z m -50,0 v -50 h -50 v 50 z M 50,200 v 50 h 50 v -50 z m 50,50 v 50 h 50 v -50 z m 50,50 v 50 h 50 v -50 z m 50,50 v 50 h 50 v -50 z m 50,50 v 50 h 50 V 400 Z M 100,150 v 50 h 150 v -50 z m 150,50 v 50 h 50 v -50 z m 50,50 v 150 h 50 V 250 Z m 0,150 h -50 v 50 h 50 z m -50,50 H 100 v 50 h 150 z m -150,0 V 400 H 50 v 50 z m 0,-250 H 50 v 50 h 50 z m -50,0 v 50 h 50 v -50 z m 50,50 v 50 h 50 v -50 z m 50,50 v 50 h 50 v -50 z m 50,50 v 50 h 50 v -50 z m 50,50 v 50 h 50 V 400 Z M 100,150 v 50 h 150 v -50 z m 150,50 v 50 h 50 v -50 z m 50,50 v 150 h 50 V 250 Z m 0,150 h -50 v 50 h 50 z m -50,50 H 150 v 50 H 250 Z M 100,200 H 50 v 50 h 50 z M 50,250 H 0 v 100 h 50 z m -200,250 v 50 h 50 v -50 z m 50,50 v 50 h 50 v -50 z m 50,50 v 50 h 150 v -50 z m 150,0 h 50 v -50 h -50 z m 50,-50 h 50 V 500 H 150 Z M 50,200 v 50 h 50 v -50 z m 50,50 v 50 h 50 v -50 z m 50,50 v 50 h 50 v -50 z m 50,50 v 50 h 50 v -50 z m 50,50 v 50 h 50 V 400 Z M 100,150 v 50 h 150 v -50 z m 150,50 v 50 h 50 v -50 z m 50,50 v 150 h 50 V 250 Z m 0,150 h -50 v 50 h 50 z M 100,200 H 50 v 50 h 50 z M 50,250 H 0 v 150 h 50 z m 0,150 v 50 h 50 V 400 Z M 0,450 v 50 h 50 v -50 z m 50,50 v 50 h 50 v -50 z m 50,50 v 50 h 50 V 550 Z M 50,200 v 50 h 50 v -50 z m 0,50 H 0 v 150 h 50 z m 0,150 v 50 h 50 v -50 z m 50,50 v 50 h 150 v -50 z m 150,0 h 50 v -50 h -50 z m 50,-50 h 50 V 250 h -50 z m 0,-150 v -50 h -50 v 50 z M 100,150 v 50 h 100 v -50 z m 0,50 H 50 v 50 h 50 z M 50,250 H 0 v 150 h 50 z m 0,150 v 50 h 50 v -50 z m 50,50 v 50 h 150 v -50 z m 150,0 h 50 v -50 h -50 z m 50,-50 h 50 V 300 H 300 Z M 100,150 v 50 h 150 v -50 z m 150,50 v 50 h 50 v -50 z m 50,50 v 150 h 50 V 250 Z m 0,150 h -50 v 50 h 50 z m -50,50 H 100 v 50 h 150 z m -150,0 V 400 H 50 v 50 z M 50,400 V 250 H 0 v 150 z m 0,-150 h 50 V 200 H 50 Z m 50,-100 v 50 h 150 v -50 z m 150,50 v 50 h 50 v -50 z m 50,50 v 150 h 50 V 250 Z m 0,150 h -50 v 50 h 50 z m -50,50 H 100 v 50 h 150 z m -150,0 V 400 H 50 v 50 z m 0,-250 H 50 v 50 h 50 z m 0,-50 v 50 h 150 v -50 z m 150,50 v 50 h 50 v -50 z m -150,0 H 50 v 50 h 50 z M 50,250 H 0 v 150 h 50 z m 0,150 v 50 h 50 v -50 z m 50,50 v 50 h 150 v -50 z m 150,0 h 50 V 400 H 250 Z M 0,450 v 50 h 50 v -50 z m 50,50 v 50 h 50 v -50 z m 50,50 v 50 h 50 v -50 z m 50,0 h 50 v -50 h -50 z m -50,50 H -50 v 50 h 150 z m -150,0 v -50 h -50 v 50 z m -50,-50 v -50 h -50 v 50 z M 50,200 v 50 h 50 v -50 z m 50,50 v 50 h 50 v -50 z m 50,50 v 50 h 50 v -50 z m 50,50 v 50 h 50 v -50 z m 50,50 v 50 h 50 V 400 Z M 100,150 v 50 h 150 v -50 z m 150,50 v 50 h 50 v -50 z m 50,50 v 100 h 50 V 250 Z M 100,200 H 50 v 50 h 50 z M 50,250 H 0 v 150 h 50 z m 0,150 v 50 h 50 v -50 z m 50,50 v 50 h 100 v -50 z m 0,-300 v 50 h 150 v -50 z m 150,50 v 50 h 50 v -50 z m 50,50 v 100 h 50 V 250 Z M 100,200 H 50 v 50 h 50 z M 50,250 H 0 v 150 h 50 z m 0,150 v 50 h 50 v -50 z m 50,50 v 50 H 200 V 450 Z M 50,200 v 50 h 50 v -50 z m 50,50 v 50 h 50 v -50 z m 50,50 v 50 h 50 v -50 z m 50,50 v 50 h 50 v -50 z m 50,50 v 50 h 50 V 400 Z M 100,150 v 50 h 150 v -50 z m 150,50 v 50 h 50 v -50 z m 50,50 v 150 h 50 V 250 Z m 0,150 h -50 v 50 h 50 z m -50,50 H 100 v 50 h 150 z m -150,0 V 400 H 50 v 50 z M 50,400 V 250 H 0 v 150 z m 0,-150 h 50 V 200 H 50 Z M 150,150 v 50 h 100 v -50 z m 100,50 v 50 h 50 v -50 z m 50,50 v 150 h 50 V 250 Z m 0,150 h -50 v 50 h 50 z m -50,50 H 100 v 50 h 150 z m -150,0 V 400 H 50 v 50 z M 50,400 V 300 H 0 V 400 Z M 150,250 v 50 h 50 v -50 z m 50,50 v 50 h 50 v -50 z m 0,50 h -50 v 50 h 50 z m -50,0 v -50 h -50 v 50 z M 50,200 v 50 h 50 v -50 z m 50,50 v 50 h 50 v -50 z m 50,50 v 50 h 50 v -50 z m 50,50 v 50 h 50 v -50 z m 50,50 v 50 h 50 V 400 Z M 100,150 v 50 h 100 v -50 z m 0,50 H 50 v 50 h 50 z M 50,250 H 0 v 150 h 50 z m 0,150 v 50 h 50 v -50 z m 50,50 v 50 h 150 v -50 z m 150,0 h 50 v -50 h -50 z m 50,-50 h 50 V 300 H 300 Z M -50,0 V 50 H 100 V 0 Z m 150,50 v 50 h 50 V 50 Z m 50,50 v 50 h 50 V 100 Z M -50,50 h -50 v 50 h 50 z m -50,50 h -50 v 50 h 50 z m 200,50 v 50 h 150 v -50 z m 150,50 v 50 h 50 v -50 z m 50,50 v 150 h 50 V 250 Z m 0,150 h -50 v 50 h 50 z m -50,50 H 150 v 50 H 250 Z M 100,200 H 50 v 50 h 50 z M 50,250 H 0 v 100 h 50 z m 0,-50 v 50 h 50 v -50 z m 50,50 v 50 h 50 v -50 z m 50,50 v 50 h 50 v -50 z m 50,50 v 50 h 50 v -50 z m 50,50 v 50 h 50 V 400 Z M 150,150 v 50 h 100 v -50 z m 100,50 v 50 h 50 v -50 z m 50,50 v 150 h 50 V 250 Z m 0,150 h -50 v 50 h 50 z m -50,50 H 100 v 50 h 150 z m -150,0 V 400 H 50 v 50 z M 50,400 V 300 H 0 v 100 z m 50,-250 v 50 h 150 v -50 z m 150,50 v 50 h 50 v -50 z m 50,50 v 150 h 50 V 250 Z m 0,150 h -50 v 50 h 50 z M 100,200 H 50 v 50 h 50 z M 50,250 H 0 v 150 h 50 z m 0,150 v 50 h 50 V 400 Z M -100,50 v 50 h 50 V 50 Z m 50,50 v 50 H 0 v -50 z m 50,50 v 50 h 50 v -50 z m 50,50 v 50 h 50 v -50 z m 50,50 v 50 h 50 v -50 z m 50,50 v 50 h 50 v -50 z m 50,50 v 50 h 50 v -50 z m 50,50 v 50 h 50 V 400 Z M 50,200 v 50 h 50 v -50 z m 0,50 H 0 v 150 h 50 z m 0,150 v 50 h 50 v -50 z m 50,50 v 50 h 150 v -50 z m 150,0 h 50 v -50 h -50 z m 50,-50 h 50 V 250 h -50 z m 0,-150 v -50 h -50 v 50 z M 50,200 v 50 h 50 v -50 z m 50,50 v 50 h 50 v -50 z m 50,50 v 50 h 50 v -50 z m 50,50 v 50 h 50 v -50 z m 50,50 v 50 h 50 V 400 Z M 100,150 v 50 h 150 v -50 z m 150,50 v 50 h 50 v -50 z m 50,50 v 150 h 50 V 250 Z m 0,150 h -50 v 50 h 50 z m -50,50 H 100 v 50 h 150 z m -150,0 V 400 H 50 v 50 z m 0,-250 H 50 v 50 h 50 z m -50,0 v 50 h 50 v -50 z m 50,50 v 50 h 50 v -50 z m 50,50 v 50 h 50 v -50 z m 50,50 v 50 h 50 v -50 z m 50,50 v 50 h 50 V 400 Z M 100,150 v 50 h 150 v -50 z m 150,50 v 50 h 50 v -50 z m -150,0 H 50 v 50 h 50 z M 50,250 H 0 v 150 h 50 z m 0,150 v 50 h 50 v -50 z m 50,50 v 50 h 150 v -50 z m 150,0 h 50 V 400 H 250 Z M -50,0 V 50 H 100 V 0 Z m 150,50 v 50 h 50 V 50 Z m 50,50 v 50 h 50 V 100 Z M -50,50 h -50 v 50 h 50 z m 0,50 v 50 H 0 v -50 z m 50,50 v 50 h 50 v -50 z m -100,-50 h -50 v 50 h 50 z M 50,200 v 50 h 50 v -50 z m 50,50 v 50 h 50 v -50 z m 50,50 v 50 h 50 V 300 Z M 0,350 v 50 h 50 v -50 z m 50,50 v 50 h 50 v -50 z m 50,50 v 50 h 150 v -50 z m 150,0 h 50 v -50 h -50 z m 50,-50 h 50 V 350 H 300 Z M 100,150 v 50 h 150 v -50 z m 150,50 v 50 h 50 v -50 z m 50,50 v 50 h 50 V 250 Z M 100,200 H 50 v 50 h 50 z M 50,250 H 0 v 50 H 50 Z M 50,0 V 50 H 250 V 600 H 50 v 50 H 300 V 0 Z m 0,200 v 50 h 50 v -50 z m 50,50 v 50 h 50 v -50 z m 50,50 v 50 h 50 v -50 z m 50,50 v 50 h 50 v -50 z m 50,50 v 50 h 50 V 400 Z M 50,0 V 650 H 300 V 600 H 100 V 50 H 300 V 0 Z m 0,200 v 50 h 50 v -50 z m 50,50 v 50 h 50 v -50 z m 50,50 v 50 h 50 v -50 z m 50,50 v 50 h 50 v -50 z m 50,50 v 50 h 50 V 400 Z M 100,150 v 50 h 100 v -50 z m 0,50 H 50 v 50 h 50 z M 50,250 H 0 v 150 h 50 z m 0,150 v 50 h 50 v -50 z m 50,50 v 50 h 150 v -50 z m 150,0 h 50 v -50 h -50 z m 50,-50 h 50 V 300 H 300 Z M 150,250 v 50 h 50 v -50 z m 50,50 v 50 h 50 v -50 z m 0,50 h -50 v 50 h 50 z m -50,0 v -50 h -50 v 50 z M 50,200 v 50 h 50 v -50 z m 50,50 v 50 h 50 v -50 z m 50,50 v 50 h 50 v -50 z m 50,50 v 50 h 50 v -50 z m 50,50 v 50 h 50 V 400 Z M 100,150 v 50 h 150 v -50 z m 150,50 v 50 h 50 v -50 z m 50,50 v 150 h 50 V 250 Z m 0,150 h -50 v 50 h 50 z m -50,50 H 100 v 50 h 150 z m -150,0 V 400 H 50 v 50 z m 0,-250 H 50 v 50 h 50 z m -50,0 v 50 h 50 v -50 z m 50,50 v 50 h 50 v -50 z m 50,50 v 50 h 50 v -50 z m 50,50 v 50 h 50 v -50 z m 50,50 v 50 h 50 V 400 Z M 100,150 v 50 h 150 v -50 z m 150,50 v 50 h 50 v -50 z m 50,50 v 150 h 50 V 250 Z m 0,150 h -50 v 50 h 50 z m -50,50 H 150 v 50 H 250 Z M 100,200 H 50 v 50 h 50 z M 50,250 H 0 v 100 h 50 z m -200,250 v 50 h 50 v -50 z m 50,50 v 50 h 50 v -50 z m 50,50 v 50 h 150 v -50 z m 150,0 h 50 v -50 h -50 z m 50,-50 h 50 V 500 H 150 Z M 50,200 v 50 h 50 v -50 z m 50,50 v 50 h 50 v -50 z m 50,50 v 50 h 50 v -50 z m 50,50 v 50 h 50 v -50 z m 50,50 v 50 h 50 V 400 Z M 100,150 v 50 h 150 v -50 z m 150,50 v 50 h 50 v -50 z m 50,50 v 150 h 50 V 250 Z m 0,150 h -50 v 50 h 50 z M 100,200 H 50 v 50 h 50 z M 50,250 H 0 v 150 h 50 z m 0,150 v 50 h 50 V 400 Z M 0,450 v 50 h 50 v -50 z m 50,50 v 50 h 50 v -50 z m 50,50 v 50 h 50 V 550 Z M 50,200 v 50 h 50 v -50 z m 0,50 H 0 v 150 h 50 z m 0,150 v 50 h 50 v -50 z m 50,50 v 50 h 150 v -50 z m 150,0 h 50 v -50 h -50 z m 50,-50 h 50 V 250 h -50 z m 0,-150 v -50 h -50 v 50 z M 100,150 v 50 h 100 v -50 z m 0,50 H 50 v 50 h 50 z M 50,250 H 0 v 150 h 50 z m 0,150 v 50 h 50 v -50 z m 50,50 v 50 h 150 v -50 z m 150,0 h 50 v -50 h -50 z m 50,-50 h 50 V 300 H 300 Z M 100,150 v 50 h 150 v -50 z m 150,50 v 50 h 50 v -50 z m 50,50 v 150 h 50 V 250 Z m 0,150 h -50 v 50 h 50 z m -50,50 H 100 v 50 h 150 z m -150,0 V 400 H 50 v 50 z M 50,400 V 250 H 0 v 150 z m 0,-150 h 50 V 200 H 50 Z m 50,-100 v 50 h 150 v -50 z m 150,50 v 50 h 50 v -50 z m 50,50 v 150 h 50 V 250 Z m 0,150 h -50 v 50 h 50 z m -50,50 H 100 v 50 h 150 z m -150,0 V 400 H 50 v 50 z m 0,-250 H 50 v 50 h 50 z m 0,-50 v 50 h 150 v -50 z m 150,50 v 50 h 50 v -50 z m -150,0 H 50 v 50 h 50 z M 50,250 H 0 v 150 h 50 z m 0,150 v 50 h 50 v -50 z m 50,50 v 50 h 150 v -50 z m 150,0 h 50 V 400 H 250 Z M 0,450 v 50 h 50 v -50 z m 50,50 v 50 h 50 v -50 z m 50,50 v 50 h 50 v -50 z m 50,0 h 50 v -50 h -50 z m -50,50 H -50 v 50 h 150 z m -150,0 v -50 h -50 v 50 z m -50,-50 v -50 h -50 v 50 z M 50,200 v 50 h 50 v -50 z m 50,50 v 50 h 50 v -50 z m 50,50 v 50 h 50 v -50 z m 50,50 v 50 h 50 v -50 z m 50,50 v 50 h 50 V 400 Z M 100,150 v 50 h 150 v -50 z m 150,50 v 50 h 50 v -50 z m 50,50 v 100 h 50 V 250 Z M 100,200 H 50 v 50 h 50 z M 50,250 H 0 v 150 h 50 z m 0,150 v 50 h 50 v -50 z m 50,50 v 50 h 100 v -50 z m 0,-300 v 50 h 150 v -50 z m 150,50 v 50 h 50 v -50 z m 50,50 v 100 h 50 V 250 Z M 100,200 H 50 v 50 h 50 z M 50,250 H 0 v 150 h 50 z m 0,150 v 50 h 50 v -50 z m 50,50 v 50 H 200 V 450 Z M 50,200 v 50 h 50 v -50 z m 50,50 v 50 h 50 v -50 z m 50,50 v 50 h 50 v -50 z m 50,50 v 50 h 50 v -50 z m 50,50 v 50 h 50 V 400 Z M 100,150 v 50 h 150 v -50 z m 150,50 v 50 h 50 v -50 z m 50,50 v 150 h 50 V 250 Z m 0,150 h -50 v 50 h 50 z m -50,50 H 100 v 50 h 150 z m -150,0 V 400 H 50 v 50 z M 50,400 V 250 H 0 v 150 z m 0,-150 h 50 V 200 H 50 Z M 150,150 v 50 h 100 v -50 z m 100,50 v 50 h 50 v -50 z m 50,50 v 150 h 50 V 250 Z m 0,150 h -50 v 50 h 50 z m -50,50 H 100 v 50 h 150 z m -150,0 V 400 H 50 v 50 z M 50,400 V 300 H 0 V 400 Z M 150,250 v 50 h 50 v -50 z m 50,50 v 50 h 50 v -50 z m 0,50 h -50 v 50 h 50 z m -50,0 v -50 h -50 v 50 z M 50,200 v 50 h 50 v -50 z m 50,50 v 50 h 50 v -50 z m 50,50 v 50 h 50 v -50 z m 50,50 v 50 h 50 v -50 z m 50,50 v 50 h 50 V 400 Z M 100,150 v 50 h 100 v -50 z m 0,50 H 50 v 50 h 50 z M 50,250 H 0 v 150 h 50 z m 0,150 v 50 h 50 v -50 z m 50,50 v 50 h 150 v -50 z m 150,0 h 50 v -50 h -50 z m 50,-50 h 50 V 300 H 300 Z M -50,0 V 50 H 100 V 0 Z m 150,50 v 50 h 50 V 50 Z m 50,50 v 50 h 50 V 100 Z M -50,50 h -50 v 50 h 50 z m -50,50 h -50 v 50 h 50 z m 200,50 v 50 h 150 v -50 z m 150,50 v 50 h 50 v -50 z m 50,50 v 150 h 50 V 250 Z m 0,150 h -50 v 50 h 50 z m -50,50 H 150 v 50 H 250 Z M 100,200 H 50 v 50 h 50 z M 50,250 H 0 v 100 h 50 z m 0,-50 v 50 h 50 v -50 z m 50,50 v 50 h 50 v -50 z m 50,50 v 50 h 50 v -50 z m 50,50 v 50 h 50 v -50 z m 50,50 v 50 h 50 V 400 Z M 150,150 v 50 h 100 v -50 z m 100,50 v 50 h 50 v -50 z m 50,50 v 150 h 50 V 250 Z m 0,150 h -50 v 50 h 50 z m -50,50 H 100 v 50 h 150 z m -150,0 V 400 H 50 v 50 z M 50,400 V 300 H 0 v 100 z m 50,-250 v 50 h 150 v -50 z m 150,50 v 50 h 50 v -50 z m 50,50 v 150 h 50 V 250 Z m 0,150 h -50 v 50 h 50 z M 100,200 H 50 v 50 h 50 z M 50,250 H 0 v 150 h 50 z m 0,150 v 50 h 50 V 400 Z M -100,50 v 50 h 50 V 50 Z m 50,50 v 50 H 0 v -50 z m 50,50 v 50 h 50 v -50 z m 50,50 v 50 h 50 v -50 z m 50,50 v 50 h 50 v -50 z m 50,50 v 50 h 50 v -50 z m 50,50 v 50 h 50 v -50 z m 50,50 v 50 h 50 V 400 Z M 50,200 v 50 h 50 v -50 z m 0,50 H 0 v 150 h 50 z m 0,150 v 50 h 50 v -50 z m 50,50 v 50 h 150 v -50 z m 150,0 h 50 v -50 h -50 z m 50,-50 h 50 V 250 h -50 z m 0,-150 v -50 h -50 v 50 z M 50,200 v 50 h 50 v -50 z m 50,50 v 50 h 50 v -50 z m 50,50 v 50 h 50 v -50 z m 50,50 v 50 h 50 v -50 z m 50,50 v 50 h 50 V 400 Z M 100,150 v 50 h 150 v -50 z m 150,50 v 50 h 50 v -50 z m 50,50 v 150 h 50 V 250 Z m 0,150 h -50 v 50 h 50 z m -50,50 H 100 v 50 h 150 z m -150,0 V 400 H 50 v 50 z m 0,-250 H 50 v 50 h 50 z m -50,0 v 50 h 50 v -50 z m 50,50 v 50 h 50 v -50 z m 50,50 v 50 h 50 v -50 z m 50,50 v 50 h 50 v -50 z m 50,50 v 50 h 50 V 400 Z M 100,150 v 50 h 150 v -50 z m 150,50 v 50 h 50 v -50 z m -150,0 H 50 v 50 h 50 z M 50,250 H 0 v 150 h 50 z m 0,150 v 50 h 50 v -50 z m 50,50 v 50 h 150 v -50 z m 150,0 h 50 V 400 H 250 Z M -50,0 V 50 H 100 V 0 Z m 150,50 v 50 h 50 V 50 Z m 50,50 v 50 h 50 V 100 Z M -50,50 h -50 v 50 h 50 z m 0,50 v 50 H 0 v -50 z m 50,50 v 50 h 50 v -50 z m -100,-50 h -50 v 50 h 50 z M 50,200 v 50 h 50 v -50 z m 50,50 v 50 h 50 v -50 z m 50,50 v 50 h 50 v -50 z m 50,50 v 50 h 50 v -50 z m 50,50 v 50 h 50 V 400 Z M 150,250 v 50 h 50 v -50 z m 50,50 v 50 h 50 v -50 z m 0,50 h -50 v 50 h 50 z m -50,0 v -50 h -50 v 50 z M 100,150 v 50 h 150 v -50 z m 150,50 v 50 h 50 v -50 z m 50,50 v 150 h 50 V 250 Z m 0,150 h -50 v 50 h 50 z m -50,50 H 100 v 50 h 150 z m -150,0 V 400 H 50 v 50 z M 50,400 V 250 H 0 v 150 z m 0,-150 h 50 V 200 H 50 Z M 150,150 v 50 h 50 v -50 z m 0,150 v 50 h 50 v -50 z m 0,150 v 50 h 50 V 450 Z M 100,250 v 50 h 100 v -50 z m 100,50 v 50 h 50 v -50 z m 0,50 H 100 v 50 H 200 Z M 100,250 v 50 h 150 v -50 z m 0,100 v 50 h 150 v -50 z m 50,-100 v 50 h 100 v -50 z m 0,50 h -50 v 50 h 50 z m 0,50 v 50 H 250 V 350 Z M 50,200 v 50 h 50 v -50 z m 50,50 v 50 h 50 v -50 z m 50,50 v 50 h 50 v -50 z m 50,50 v 50 h 50 v -50 z m 50,50 v 50 h 50 V 400 Z M 0,300 v 50 h 50 v -50 z m 300,0 v 50 h 50 V 300 Z M 150,150 v 50 h 50 V 150 Z M 50,200 v 50 h 50 v -50 z m 50,50 v 50 h 50 v -50 z m 50,50 v 50 h 50 v -50 z m 50,50 v 50 h 50 v -50 z m 50,50 v 50 h 50 V 400 Z M 0,300 v 50 h 50 v -50 z m 300,0 v 50 h 50 V 300 Z M 150,450 v 50 h 50 v -50 z m 0,-200 v 50 h 50 v -50 z m 50,50 v 50 h 50 v -50 z m 0,50 h -50 v 50 h 50 z m -50,0 v -50 h -50 v 50 z M 100,150 v 50 h 150 v -50 z m 150,50 v 50 h 50 v -50 z m 50,50 v 100 h 50 V 250 Z M 100,200 H 50 v 50 h 50 z M 50,250 H 0 v 150 h 50 z m 0,150 v 50 h 50 v -50 z m 50,50 v 50 h 100 v -50 z m 50,-200 v 50 h 50 v -50 z m 50,50 v 50 h 50 v -50 z m 0,50 h -50 v 50 h 50 z m -50,0 v -50 h -50 v 50 z M 100,150 v 50 h 150 v -50 z m 150,50 v 50 h 50 v -50 z m 50,50 v 150 h 50 V 250 Z m 0,150 h -50 v 50 h 50 z M 100,200 H 50 v 50 h 50 z M 50,250 H 0 v 150 h 50 z m 0,150 v 50 h 50 V 400 Z M 150,250 v 50 h 50 v -50 z m 50,50 v 50 h 50 v -50 z m 0,50 h -50 v 50 h 50 z m -50,0 v -50 h -50 v 50 z M 100,150 v 50 h 150 v -50 z m 150,50 v 50 h 50 v -50 z m 50,50 v 150 h 50 V 250 Z m 0,150 h -50 v 50 h 50 z m -50,50 H 150 v 50 H 250 Z M 100,200 H 50 v 50 h 50 z M 50,250 H 0 v 100 h 50 z m 100,0 v 50 h 50 v -50 z m 50,50 v 50 h 50 v -50 z m 0,50 h -50 v 50 h 50 z m -50,0 v -50 h -50 v 50 z M 100,150 v 50 h 150 v -50 z m 150,50 v 50 h 50 v -50 z m -150,0 H 50 v 50 h 50 z M 50,250 H 0 v 150 h 50 z m 0,150 v 50 h 50 v -50 z m 50,50 v 50 h 150 v -50 z m 150,0 h 50 V 400 H 250 Z M 150,250 v 50 h 50 v -50 z m 50,50 v 50 h 50 v -50 z m 0,50 h -50 v 50 h 50 z m -50,0 v -50 h -50 v 50 z M 100,150 v 50 h 150 v -50 z m 150,50 v 50 h 50 v -50 z m 50,50 v 150 h 50 V 250 Z m 0,150 h -50 v 50 h 50 z m -50,50 H 100 v 50 h 150 z m -150,0 V 400 H 50 v 50 z M 50,400 V 250 H 0 v 150 z m 0,-150 h 50 V 200 H 50 Z m 100,0 v 50 h 50 v -50 z m 50,50 v 50 h 50 v -50 z m 0,50 h -50 v 50 h 50 z m -50,0 v -50 h -50 v 50 z M 100,150 v 50 h 150 v -50 z m 150,50 v 50 h 50 v -50 z m 50,50 v 150 h 50 V 250 Z m 0,150 h -50 v 50 h 50 z m -50,50 H 100 v 50 h 150 z m -150,0 V 400 H 50 v 50 z m 0,-250 H 50 v 50 h 50 z m 50,50 v 50 h 50 v -50 z m 50,50 v 50 h 50 v -50 z m 0,50 h -50 v 50 h 50 z m -50,0 v -50 h -50 v 50 z M 100,150 v 50 h 100 v -50 z m 0,50 H 50 v 50 h 50 z M 50,250 H 0 v 150 h 50 z m 0,150 v 50 h 50 v -50 z m 50,50 v 50 h 150 v -50 z m 150,0 h 50 v -50 h -50 z m 50,-50 h 50 V 300 H 300 Z M 150,250 v 50 h 50 v -50 z m 50,50 v 50 h 50 v -50 z m 0,50 h -50 v 50 h 50 z m -50,0 v -50 h -50 v 50 z M 50,200 v 50 h 50 v -50 z m 0,50 H 0 v 150 h 50 z m 0,150 v 50 h 50 v -50 z m 50,50 v 50 h 150 v -50 z m 150,0 h 50 v -50 h -50 z m 50,-50 h 50 V 250 h -50 z m 0,-150 v -50 h -50 v 50 z m -150,0 v 50 h 50 v -50 z m 50,50 v 50 h 50 v -50 z m 0,50 h -50 v 50 h 50 z m -50,0 v -50 h -50 v 50 z m 0,-200 v 50 h 100 v -50 z m 100,50 v 50 h 50 v -50 z m 50,50 v 150 h 50 V 250 Z m 0,150 h -50 v 50 h 50 z m -50,50 H 100 v 50 h 150 z m -150,0 V 400 H 50 v 50 z M 50,400 V 300 H 0 V 400 Z M 150,250 v 50 h 50 v -50 z m 50,50 v 50 h 50 v -50 z m 0,50 h -50 v 50 h 50 z m -50,0 v -50 h -50 v 50 z M 250,200 v 50 h 50 v -50 z m 0,50 h -50 v 50 h 50 z m -50,50 h -50 v 50 h 50 z m -50,50 h -50 v 50 h 50 z m -50,50 H 50 v 50 h 50 z m 50,-250 v 50 h 50 V 150 Z M 0,300 v 50 h 50 v -50 z m 150,0 v 50 h 50 v -50 z m 150,0 v 50 h 50 V 300 Z M 150,450 v 50 h 50 V 450 Z M 0,300 v 50 h 350 v -50 z m 0,0 v 50 h 50 v -50 z m 150,0 v 50 h 50 v -50 z m 150,0 v 50 h 50 V 300 Z M 150,150 V 300 H 0 v 50 h 150 v 150 h 50 V 350 H 350 V 300 H 200 V 150 Z m 0,0 v 100 h -50 v 50 h 50 v 50 h -50 v 50 h 50 v 100 h 50 V 400 h 50 v -50 h -50 v -50 h 50 V 250 H 200 V 150 Z m 100,100 h 50 v -50 h -50 z m 0,150 v 50 h 50 v -50 z m -150,0 H 50 v 50 h 50 z m 0,-150 V 200 H 50 v 50 z M 50,0 v 50 h 50 V 0 Z m 50,50 v 50 h 50 V 50 Z m 50,50 v 450 h 50 V 100 Z m 0,450 h -50 v 50 h 50 z m -50,50 H 50 v 50 h 50 z M 250,0 v 50 h 50 V 0 Z m 0,50 h -50 v 50 h 50 z m -50,50 h -50 v 450 h 50 z m 0,450 v 50 h 50 v -50 z m 50,50 v 50 h 50 V 600 Z M 150,150 v 50 h 50 v -50 z m -50,0 v 50 h 150 v -50 z m 150,50 v 50 h 50 v -50 z m 50,50 v 150 h 50 V 250 Z m 0,150 h -50 v 50 h 50 z m -50,50 H 100 v 50 h 150 z m -150,0 V 400 H 50 v 50 z m 0,-50 h 100 v -50 h 50 V 300 H 200 V 250 H 100 v 50 h 50 v 50 h -50 z m 0,-150 V 200 H 50 v 50 z M 50,200 v 50 h 50 v -50 z m 200,0 v 50 h 50 v -50 z m 0,50 h -50 v 50 h 50 z m -50,50 h -50 v 50 h 50 z m -50,50 h -50 v 50 h 50 z m -50,50 H 50 v 50 h 50 z m 150,0 v 50 h 50 V 400 Z M 150,0 v 150 h -50 v 50 h 50 v 50 h -50 v 50 h 50 v 50 100 h -50 v 50 h 50 v 150 h 50 V 500 h 50 v -50 h -50 v -50 h 50 V 350 H 200 V 200 h 50 V 150 H 200 V 0 Z m 100,200 v 50 h 50 v -50 z m 50,50 v 50 h 50 v -50 z m -50,150 v 50 h 50 v -50 z m 50,0 h 50 V 350 H 300 Z M 100,450 V 400 H 50 v 50 z M 50,400 V 350 H 0 v 50 z M 100,250 V 200 H 50 v 50 z m -50,0 H 0 v 50 H 50 Z M 150,0 v 150 h -50 v 50 h 50 v 50 h -50 v 50 h 50 v 50 100 h -50 v 50 h 50 v 150 h 50 V 500 h 50 v -50 h -50 v -50 h 50 V 350 H 200 V 200 h 50 V 150 H 200 V 0 Z m 100,200 v 50 h 50 v -50 z m 0,200 v 50 h 50 V 400 Z M 100,450 V 400 H 50 v 50 z M 50,400 V 250 H 0 v 150 z m 0,-150 h 50 V 200 H 50 Z m 0,-50 v 50 h 50 v -50 z m 200,0 v 50 h 50 V 200 Z M 150,150 v 50 h 50 v -50 z m 0,300 v 50 h 50 v -50 z" />
</svg>