
<svg xmlns="http://www.w3.org/2000/svg" width="500" height="900">
    <path
        d="M150 325a25 25 0 0 0-25 25 25 25 0 0 0 25 25 25 25 0 0 0 7.389-1.17 25 25 0 0 0 2.238-1.021 25 25 0 0 0 4.465-2.276 25 25 0 0 0 2.215-1.92 25 25 0 0 0 2.588-2.242 25 25 0 0 0 1.33-1.676 25 25 0 0 0 3.55-6.966 25 25 0 0 0 .002-.008A25 25 0 0 0 175 350a25 25 0 0 0-.977-6.783 25 25 0 0 0-.173-.559 25 25 0 0 0-2.688-5.887 25 25 0 0 0-.271-.449 25 25 0 0 0-4.473-5.16 25 25 0 0 0-.047-.055 25 25 0 0 0-.092-.054 25 25 0 0 0-7.511-4.46 25 25 0 0 0-.098-.029A25 25 0 0 0 150 325zm-71.271 29.295a25 25 0 0 0-3.35.3 25 25 0 0 0-13.768 7.016 25 25 0 0 0 0 35.356 25 25 0 0 0 35.356 0 25 25 0 0 0 0-35.356 25 25 0 0 0-18.238-7.316zm141.421.002a25 25 0 0 0-3.35.3 25 25 0 0 0-13.767 7.014 25 25 0 0 0 0 35.356 25 25 0 0 0 35.356 0 25 25 0 0 0 0-35.356 25 25 0 0 0-18.239-7.314zM50 425a25 25 0 0 0-7.383 1.168 25 25 0 0 0-2.265 1.035 25 25 0 0 0-4.444 2.264 25 25 0 0 0-2.222 1.928 25 25 0 0 0-2.579 2.234 25 25 0 0 0-.502.846 25 25 0 0 0-2.88 4.855 25 25 0 0 0-1.237 2.426A25 25 0 0 0 25 450a25 25 0 0 0 25 25 25 25 0 0 0 25-25 25 25 0 0 0-.18-2.965 25 25 0 0 0-.021-.15 25 25 0 0 0-.508-2.77 25 25 0 0 0-.064-.25 25 25 0 0 0-.817-2.617 25 25 0 0 0-.1-.256 25 25 0 0 0-1.113-2.474 25 25 0 0 0-.142-.272 25 25 0 0 0-1.399-2.31 25 25 0 0 0-.164-.243 25 25 0 0 0-1.68-2.144 25 25 0 0 0-.177-.205 25 25 0 0 0-1.953-1.953 25 25 0 0 0-.166-.153 25 25 0 0 0-.145-.133 25 25 0 0 0-.103-.06 25 25 0 0 0-7.5-4.451 25 25 0 0 0-.098-.03A25 25 0 0 0 50 425zm200 0a25 25 0 0 0-7.143 1.13 25 25 0 0 0-.24.038 25 25 0 0 0-1.443.66 25 25 0 0 0-4.862 2.434 25 25 0 0 0-.404.205 25 25 0 0 0-1.04.902 25 25 0 0 0-3.128 2.711 25 25 0 0 0-.633.549 25 25 0 0 0-.502.846 25 25 0 0 0-.222.375 25 25 0 0 0-3.371 5.877 25 25 0 0 0-.524 1.029 25 25 0 0 0-.181.674 25 25 0 0 0-.608 2.261A25 25 0 0 0 225 450a25 25 0 0 0 1.13 7.146 25 25 0 0 0 .04.243 25 25 0 0 0 .672 1.474 25 25 0 0 0 2.42 4.825 25 25 0 0 0 .205.404 25 25 0 0 0 .906 1.045 25 25 0 0 0 2.701 3.119 25 25 0 0 0 .555.639 25 25 0 0 0 .85.503 25 25 0 0 0 .38.227 25 25 0 0 0 5.864 3.361 25 25 0 0 0 1.033.526 25 25 0 0 0 .674.181 25 25 0 0 0 2.261.608A25 25 0 0 0 250 475a25 25 0 0 0 7.143-1.13 25 25 0 0 0 .24-.038 25 25 0 0 0 1.443-.66 25 25 0 0 0 4.861-2.434 25 25 0 0 0 .405-.205 25 25 0 0 0 1.04-.902 25 25 0 0 0 3.128-2.711 25 25 0 0 0 .633-.549 25 25 0 0 0 .502-.846 25 25 0 0 0 .222-.375 25 25 0 0 0 3.371-5.877 25 25 0 0 0 .524-1.029 25 25 0 0 0 .181-.674 25 25 0 0 0 .608-2.261A25 25 0 0 0 275 450a25 25 0 0 0-8.498-18.744 25 25 0 0 0-.13-.15 25 25 0 0 0-.104-.061A25 25 0 0 0 250 425zm200 0a25 25 0 0 0-25 25 25 25 0 0 0 .18 2.965 25 25 0 0 0 .021.15 25 25 0 0 0 .508 2.77 25 25 0 0 0 .064.25 25 25 0 0 0 .817 2.617 25 25 0 0 0 .1.256 25 25 0 0 0 1.113 2.474 25 25 0 0 0 .142.272 25 25 0 0 0 1.399 2.31 25 25 0 0 0 .164.243 25 25 0 0 0 1.68 2.144 25 25 0 0 0 .177.205 25 25 0 0 0 1.953 1.953 25 25 0 0 0 .166.153 25 25 0 0 0 .145.133 25 25 0 0 0 .103.06 25 25 0 0 0 7.5 4.451 25 25 0 0 0 .098.03A25 25 0 0 0 450 475a25 25 0 0 0 7.383-1.168 25 25 0 0 0 2.265-1.035 25 25 0 0 0 4.444-2.264 25 25 0 0 0 2.222-1.928 25 25 0 0 0 2.579-2.234 25 25 0 0 0 .502-.846 25 25 0 0 0 2.88-4.855 25 25 0 0 0 1.237-2.426A25 25 0 0 0 475 450a25 25 0 0 0-25-25zm-170.71 70.71a25 25 0 0 0-17.679 7.323 25 25 0 0 0 0 35.356 25 25 0 0 0 18.239 7.314 25 25 0 0 0 3.35-.3 25 25 0 0 0 13.767-7.014 25 25 0 0 0 0-35.356 25 25 0 0 0-17.678-7.322zm141.42 0a25 25 0 0 0-17.677 7.323 25 25 0 0 0 0 35.356 25 25 0 0 0 18.238 7.316 25 25 0 0 0 3.35-.3 25 25 0 0 0 13.768-7.016 25 25 0 0 0 0-35.356 25 25 0 0 0-17.678-7.322zM350 525a25 25 0 0 0-7.389 1.17 25 25 0 0 0-2.238 1.021 25 25 0 0 0-4.465 2.276 25 25 0 0 0-2.215 1.92 25 25 0 0 0-2.588 2.242 25 25 0 0 0-1.33 1.676 25 25 0 0 0-3.55 6.966 25 25 0 0 0-.002.008A25 25 0 0 0 325 550a25 25 0 0 0 .977 6.783 25 25 0 0 0 .173.559 25 25 0 0 0 2.688 5.887 25 25 0 0 0 .271.449 25 25 0 0 0 4.473 5.16 25 25 0 0 0 .047.055 25 25 0 0 0 .092.054 25 25 0 0 0 7.511 4.46 25 25 0 0 0 .098.029A25 25 0 0 0 350 575a25 25 0 0 0 25-25 25 25 0 0 0-25-25z" />
</svg>