<svg xmlns="http://www.w3.org/2000/svg" width="500" height="900">
    <path
        d="M250 200a50 50 0 0 0-50 50 50 50 0 0 0 50 50 50 50 0 0 0 50-50 50 50 0 0 0-50-50zm-144.988 58.705a50 50 0 0 0-31.79 14.518 50 50 0 0 0 0 70.71 50 50 0 0 0 70.712 0 50 50 0 0 0 0-70.71 50 50 0 0 0-38.922-14.518zM50 400a50 50 0 0 0-50 50 50 50 0 0 0 50 50 50 50 0 0 0 50-50 50 50 0 0 0-50-50z" />
    <path
        d="M249.998 199.998a50 50 0 0 0-50 50 50 50 0 0 0 50.004 50 50 50 0 0 0 50-50 50 50 0 0 0-17.258-37.785 50 50 0 0 0-32.746-12.215zM102.98 258.893a50 50 0 0 0-29.755 14.33 50 50 0 0 0 0 70.71 50 50 0 0 0 70.709 0 50 50 0 0 0 0-70.708v-.002a50 50 0 0 0-40.954-14.33zm282.844 0a50 50 0 0 0-29.758 14.33 50 50 0 0 0 0 70.71 50 50 0 0 0 70.71 0 50 50 0 0 0 0-70.708l.001-.002a50 50 0 0 0-40.953-14.33z" />
    <path
        d="M250 200a50 50 0 0 0-50 50 50 50 0 0 0 50 50 50 50 0 0 0 50-50 50 50 0 0 0-50-50zm135.824 58.893a50 50 0 0 0-29.758 14.33 50 50 0 0 0 0 70.71 50 50 0 0 0 70.711 0 50 50 0 0 0 14.518-38.921 50 50 0 0 0-14.518-31.79 50 50 0 0 0-40.953-14.33zM450 400a50 50 0 0 0-50 50 50 50 0 0 0 50 50 50 50 0 0 0 50-50 50 50 0 0 0-50-50z" />
    <path
        d="M73.223 273.223a50 50 0 0 0 0 70.711 50 50 0 0 0 70.711 0 50 50 0 0 0 0-70.71 50 50 0 0 0-70.71 0zM12.212 417.256A50 50 0 0 0-.001 450.001a50 50 0 0 0 50 50 50 50 0 0 0 50-50.002 50 50 0 0 0-50-50 50 50 0 0 0-37.787 17.257zm61.011 138.81a50 50 0 0 0 0 70.71 50 50 0 0 0 70.711 0 50 50 0 0 0 0-70.71 50 50 0 0 0-70.71 0z" />
    <path
        d="M250 200a50 50 0 0 0-50 50 50 50 0 0 0 50 50 50 50 0 0 0 50-50 50 50 0 0 0-50-50zm-144.988 58.705a50 50 0 0 0-31.79 14.518 50 50 0 0 0 0 70.71 50 50 0 0 0 70.712 0 50 50 0 0 0 0-70.71 50 50 0 0 0-38.922-14.518zm280.812.188a50 50 0 0 0-29.758 14.33 50 50 0 0 0 0 70.71 50 50 0 0 0 70.711 0 50 50 0 0 0 14.518-38.921 50 50 0 0 0-14.518-31.79 50 50 0 0 0-40.953-14.33zM50 400a50 50 0 0 0-50 50 50 50 0 0 0 50 50 50 50 0 0 0 50-50 50 50 0 0 0-50-50zm400 0a50 50 0 0 0-48.746 38.873A50 50 0 0 0 400 450a50 50 0 0 0 50 50 50 50 0 0 0 50-50 50 50 0 0 0-50-50zM102.98 541.736a50 50 0 0 0-29.757 14.33 50 50 0 0 0-14.518 38.922 50 50 0 0 0 14.518 31.79 50 50 0 0 0 70.71 0 50 50 0 0 0 0-70.712 50 50 0 0 0-40.953-14.33zm282.844 0a50 50 0 0 0-29.758 14.33 50 50 0 0 0 0 70.711 50 50 0 0 0 38.922 14.518 50 50 0 0 0 31.79-14.518 50 50 0 0 0 0-70.71 50 50 0 0 0-40.954-14.33zM250 600a50 50 0 0 0-50 50 50 50 0 0 0 50 50 50 50 0 0 0 50-50 50 50 0 0 0-50-50z" />
    <path
        d="M426.777 626.777a50 50 0 0 0 0-70.711 50 50 0 0 0-70.711 0 50 50 0 0 0 0 70.71 50 50 0 0 0 70.71 0zm61.011-144.033a50 50 0 0 0 12.213-32.745 50 50 0 0 0-50-50 50 50 0 0 0-50 50.002 50 50 0 0 0 50 50 50 50 0 0 0 37.787-17.257zm-61.011-138.81a50 50 0 0 0 0-70.71 50 50 0 0 0-70.711 0 50 50 0 0 0 0 70.71 50 50 0 0 0 70.71 0z" />
    <path
        d="M0 450a50 50 0 0 0 50 50 50 50 0 0 0 50-50 50 50 0 0 0-50-50 50 50 0 0 0-50 50zm58.705 144.988a50 50 0 0 0 14.518 31.79 50 50 0 0 0 70.71 0 50 50 0 0 0 0-70.712 50 50 0 0 0-70.71 0 50 50 0 0 0-14.518 38.922zM200 650a50 50 0 0 0 50 50 50 50 0 0 0 50-50 50 50 0 0 0-50-50 50 50 0 0 0-50 50z" />
    <path
        d="M102.98 541.736a50 50 0 0 0-29.755 14.33 50 50 0 0 0 0 70.71l-.002.001a50 50 0 0 0 70.71 0 50 50 0 0 0 0-70.71 50 50 0 0 0-40.953-14.33zm282.842 0a50 50 0 0 0-29.756 14.33 50 50 0 0 0 0 70.71v.001a50 50 0 0 0 70.71 0 50 50 0 0 0 0-70.71 50 50 0 0 0-40.954-14.33zm-135.824 58.266a50 50 0 0 0-50 50 50 50 0 0 0 17.258 37.785 50 50 0 0 0 32.746 12.215 50 50 0 0 0 50-50 50 50 0 0 0-50.004-50z" />
    <path
        d="M450 400a50 50 0 0 0-50 50 50 50 0 0 0 50 50 50 50 0 0 0 50-50 50 50 0 0 0-50-50zm-64.176 141.736a50 50 0 0 0-29.758 14.33 50 50 0 0 0 0 70.711 50 50 0 0 0 38.922 14.518 50 50 0 0 0 31.79-14.518 50 50 0 0 0 0-70.71 50 50 0 0 0-40.954-14.33zM250 600a50 50 0 0 0-50 50 50 50 0 0 0 50 50 50 50 0 0 0 50-50 50 50 0 0 0-50-50z" />
</svg>