<svg width="500" height="850" xmlns="http://www.w3.org/2000/svg" xmlns:svg="http://www.w3.org/2000/svg">
    <path fill="none" stroke="red"
        d="M275 400v50h-50L125 350v-50h50zm50 100v50h50l100-100v-50h-50ZM25 400v50h50l100-100v-50h-50zm350 100v50h-50L225 450v-50h50zM225 400h150v50H225Zm0-300h50v650h-50zm50 0v50H125v-50ZM125 750v-50h150v50zM225 0h50v850h-50ZM125 400h150v50H125Zm100-300h50v650h-50zm150 0v50H225v-50ZM225 750v-50h150v50zm0-300v-50h50l100 100v50h-50zm50-50v50h-50L125 350v-50h50zm50 150v-50h50l100 100v50h-50ZM175 300v50h-50L25 250v-50h50Zm300 100v150h-50V400ZM375 650H125v-50h250ZM25 550V300h50v250Zm100-350h150v50H125Zm350 350v-50h-50L325 600v50h50zM125 650h50v-50L75 500H25v50zM25 300v50h50l100-100v-50h-50zm100 0v250h250V300H175Zm50 50h150v150H175Zm50 100v-50h50l100 100v50h-50zm50-50v50h-50L125 350v-50h50zm50 150v-50h50l100 100v50h-50ZM175 300v50h-50L25 250v-50h50zm300 0v250h-50V300ZM375 650H125v-50h250ZM125 200h250v50H125Zm350 350v-50h-50L325 600v50h50zM125 650h50v-50L75 500H25v50zM25 300v50h50l100-100v-50h-50Zm350-100h-50v50l100 100h50v-50ZM225 450v-50h50l100 100v50h-50zm50-50v50h-50L125 350v-50h50zm50 150v-50h50l100 100v50h-50ZM175 300v50h-50L25 250v-50h50zm300 0v250h-50V300ZM375 650H225v-50h150ZM25 450V300h50v150Zm100-250h250v50H125Zm350 350v-50h-50L325 600v50h50zM25 300v50h50l100-100v-50h-50Zm350-100h-50v50l100 100h50v-50ZM225 450v-50h50l100 100v50h-50zm50-50v50h-50L125 350v-50h50zm50 150v-50h50l100 100v50h-50ZM175 300v50h-50L25 250v-50h50zm300 0v250h-50V300ZM25 550V300h50v250Zm100-350h250v50H125Zm350 350v-50h-50L325 600v50h50zM125 650h50v-50L75 500H25v50zM25 300v50h50l100-100v-50h-50Zm350-100h-50v50l100 100h50v-50Zm100 100v250h-50V300ZM375 650H125v-50h250ZM25 550V300h50v250zm450 0v-50h-50L325 600v50h50zM125 650h50v-50L75 500H25v50zM25 300v50h50l100-100v-50h-50Zm350-100h-50v50l100 100h50v-50Zm100 200v150h-50V400ZM375 650H125v-50h250ZM25 550V300h50v250Zm100-350h150v50H125Zm350 350v-50h-50L325 600v50h50zM125 650h50v-50L75 500H25v50zM25 300v50h50l100-100v-50h-50zm450 0v250h-50V300ZM375 650H125v-50h250ZM25 550V300h50v250Zm100-350h250v50H125Zm350 350v-50h-50L325 600v50h50zM125 650h50v-50L75 500H25v50zM25 300v50h50l100-100v-50h-50Zm350-100h-50v50l100 100h50v-50Zm100 100v250h-50V300ZM375 650H125v-50h250ZM125 200h250v50H125Zm350 350v-50h-50L325 600v50h50zM125 650h50v-50L75 500H25v50zM25 300v50h50l100-100v-50h-50Zm350-100h-50v50l100 100h50v-50zm0 450H125v-50h250ZM25 550V300h50v250Zm100-350h250v50H125Zm350 350v-50h-50L325 600v50h50zM125 650h50v-50L75 500H25v50zM25 300v50h50l100-100v-50h-50Zm350-100h-50v50l100 100h50v-50ZM225 450v-50h50l100 100v50h-50zm50-50v50h-50L125 350v-50h50zm50 150v-50h50l100 100v50h-50ZM175 300v50h-50L25 250v-50h50zm300 0v150h-50V300ZM275 650H125v-50h150ZM25 550V300h50v250Zm100-350h250v50H125Zm0 450h50v-50L75 500H25v50zM25 300v50h50l100-100v-50h-50Zm350-100h-50v50l100 100h50v-50Zm100 100v150h-50V300ZM275 650H125v-50h150ZM25 550V300h50v250Zm100-350h250v50H125Zm0 450h50v-50L75 500H25v50zM25 300v50h50l100-100v-50h-50Zm350-100h-50v50l100 100h50v-50ZM225 450v-50h50l100 100v50h-50zm50-50v50h-50L125 350v-50h50zm50 150v-50h50l100 100v50h-50ZM175 300v50h-50L25 250v-50h50zm300 0v250h-50V300ZM375 650H125v-50h250ZM25 550V300h50v250Zm100-350h250v50H125Zm350 350v-50h-50L325 600v50h50zM125 650h50v-50L75 500H25v50zM25 300v50h50l100-100v-50h-50Zm350-100h-50v50l100 100h50v-50Zm100 100v250h-50V300ZM375 650H125v-50h250ZM25 550V400h50v150Zm200-350h150v50H225Zm250 350v-50h-50L325 600v50h50zM125 650h50v-50L75 500H25v50zm250-450h-50v50l100 100h50v-50ZM125 300v250h250V300H175Zm50 50h150v150H175Zm50 100v-50h50l100 100v50h-50zm50-50v50h-50L125 350v-50h50zm50 150v-50h50l100 100v50h-50ZM175 300v50h-50L25 250v-50h50Zm300 100v150h-50V400ZM375 650H125v-50h250ZM25 550V300h50v250Zm100-350h150v50H125Zm350 350v-50h-50L325 600v50h50zM125 650h50v-50L75 500H25v50zM25 300v50h50l100-100v-50h-50zm450 0v250h-50V300ZM375 650H225v-50h150ZM25 450V300h50v150Zm100-250h250v50H125Zm350 350v-50h-50L325 600v50h50zM25 300v50h50l100-100v-50h-50Zm350-100h-50v50l100 100h50v-50ZM225 450v-50h50l100 100v50h-50zm50-50v50h-50L125 350v-50h50zm50 150v-50h50l100 100v50h-50Zm150-250v250h-50V300ZM375 650H125v-50h250ZM25 550V400h50v150Zm200-350h150v50H225Zm-50 100v50h-50L25 250v-50h50Zm300 250v-50h-50L325 600v50h50zM125 650h50v-50L75 500H25v50zm250-450h-50v50l100 100h50v-50Zm100 100v250h-50V300ZM25 550V300h50v250Zm100-350h250v50H125Zm350 350v-50h-50L325 600v50h50zM125 650h50v-50L75 500H25v50zM25 300v50h50l100-100v-50h-50Zm350-100h-50v50l100 100h50v-50ZM225 450v-50h50l100 100v50h-50zm50-50v50h-50L125 350v-50h50zm50 150v-50h50l100 100v50h-50ZM175 300v50h-50L25 250v-50h50zm300 0v250h-50V300ZM375 650H125v-50h250ZM25 550V300h50v250zm450 0v-50h-50L325 600v50h50zM125 650h50v-50L75 500H25v50zM25 300v50h50l100-100v-50h-50Zm350-100h-50v50l100 100h50v-50ZM225 450v-50h50l100 100v50h-50zm50-50v50h-50L125 350v-50h50zm50 150v-50h50l100 100v50h-50ZM175 300v50h-50L25 250v-50h50zm300 0v250h-50V300ZM375 650H125v-50h250ZM125 200h250v50H125Zm350 350v-50h-50L325 600v50h50zM125 650h50v-50L75 500H25v50zM25 300v50h50l100-100v-50h-50Zm350-100h-50v50l100 100h50v-50ZM225 450v-50h50l100 100v50h-50zm50-50v50h-50L125 350v-50h50zm50 150v-50h50l100 100v50h-50ZM175 300v50h-50L25 250v-50h50Zm200 350H125v-50h250ZM25 550V300h50v250Zm100-350h250v50H125Zm350 350v-50h-50L325 600v50h50zM125 650h50v-50L75 500H25v50zM25 300v50h50l100-100v-50h-50Zm350-100h-50v50l100 100h50v-50zm-150 0h150v50H225Zm150 0h-50v50l100 100h50v-50zm0 450H125v-50h250zm-250 0h50v-50L75 500H25v50zm350-100v-50h-50L325 600v50h50zM125 200h250v50H125Zm250 0h-50v50l100 100h50v-50ZM25 300v50h50l100-100v-50h-50Zm300-200h50v650h-50zm50 0v50H125v-50ZM125 750v-50h250v50zm100-300v-50h50l100 100v50h-50zm50-50v50h-50L125 350v-50h50zm50 150v-50h50l100 100v50h-50ZM175 300v50h-50L25 250v-50h50Zm-50-200h50v650h-50zm250 0v50H125v-50ZM125 750v-50h250v50zm100-300v-50h50l100 100v50h-50zm50-50v50h-50L125 350v-50h50zm50 150v-50h50l100 100v50h-50ZM175 300v50h-50L25 250v-50h50Zm300 100v150h-50V400ZM375 650H125v-50h250ZM25 550V300h50v250Zm100-350h150v50H125Zm350 350v-50h-50L325 600v50h50zM125 650h50v-50L75 500H25v50zM25 300v50h50l100-100v-50h-50zm100 0v250h250V300H175Zm50 50h150v150H175Zm50 100v-50h50l100 100v50h-50zm50-50v50h-50L125 350v-50h50zm50 150v-50h50l100 100v50h-50ZM175 300v50h-50L25 250v-50h50zm300 0v250h-50V300ZM375 650H125v-50h250ZM125 200h250v50H125Zm350 350v-50h-50L325 600v50h50zM125 650h50v-50L75 500H25v50zM25 300v50h50l100-100v-50h-50Zm350-100h-50v50l100 100h50v-50ZM225 450v-50h50l100 100v50h-50zm50-50v50h-50L125 350v-50h50zm50 150v-50h50l100 100v50h-50ZM175 300v50h-50L25 250v-50h50zm300 0v250h-50V300ZM375 650H225v-50h150ZM25 450V300h50v150Zm100-250h250v50H125Zm350 350v-50h-50L325 600v50h50zM25 300v50h50l100-100v-50h-50Zm350-100h-50v50l100 100h50v-50ZM225 450v-50h50l100 100v50h-50zm50-50v50h-50L125 350v-50h50zm50 150v-50h50l100 100v50h-50ZM175 300v50h-50L25 250v-50h50zm300 0v250h-50V300ZM25 550V300h50v250Zm100-350h250v50H125Zm350 350v-50h-50L325 600v50h50zM125 650h50v-50L75 500H25v50zM25 300v50h50l100-100v-50h-50Zm350-100h-50v50l100 100h50v-50Zm100 100v250h-50V300ZM375 650H125v-50h250ZM25 550V300h50v250zm450 0v-50h-50L325 600v50h50zM125 650h50v-50L75 500H25v50zM25 300v50h50l100-100v-50h-50Zm350-100h-50v50l100 100h50v-50Zm100 200v150h-50V400ZM375 650H125v-50h250ZM25 550V300h50v250Zm100-350h150v50H125Zm350 350v-50h-50L325 600v50h50zM125 650h50v-50L75 500H25v50zM25 300v50h50l100-100v-50h-50zm450 0v250h-50V300ZM375 650H125v-50h250ZM25 550V300h50v250Zm100-350h250v50H125Zm350 350v-50h-50L325 600v50h50zM125 650h50v-50L75 500H25v50zM25 300v50h50l100-100v-50h-50Zm350-100h-50v50l100 100h50v-50Zm100 100v250h-50V300ZM375 650H125v-50h250ZM125 200h250v50H125Zm350 350v-50h-50L325 600v50h50zM125 650h50v-50L75 500H25v50zM25 300v50h50l100-100v-50h-50Zm350-100h-50v50l100 100h50v-50zm0 450H125v-50h250ZM25 550V300h50v250Zm100-350h250v50H125Zm350 350v-50h-50L325 600v50h50zM125 650h50v-50L75 500H25v50zM25 300v50h50l100-100v-50h-50Zm350-100h-50v50l100 100h50v-50ZM225 450v-50h50l100 100v50h-50zm50-50v50h-50L125 350v-50h50zm50 150v-50h50l100 100v50h-50ZM175 300v50h-50L25 250v-50h50zm300 0v150h-50V300ZM275 650H125v-50h150ZM25 550V300h50v250Zm100-350h250v50H125Zm0 450h50v-50L75 500H25v50zM25 300v50h50l100-100v-50h-50Zm350-100h-50v50l100 100h50v-50Zm100 100v150h-50V300ZM275 650H125v-50h150ZM25 550V300h50v250Zm100-350h250v50H125Zm0 450h50v-50L75 500H25v50zM25 300v50h50l100-100v-50h-50Zm350-100h-50v50l100 100h50v-50ZM225 450v-50h50l100 100v50h-50zm50-50v50h-50L125 350v-50h50zm50 150v-50h50l100 100v50h-50ZM175 300v50h-50L25 250v-50h50zm300 0v250h-50V300ZM375 650H125v-50h250ZM25 550V300h50v250Zm100-350h250v50H125Zm350 350v-50h-50L325 600v50h50zM125 650h50v-50L75 500H25v50zM25 300v50h50l100-100v-50h-50Zm350-100h-50v50l100 100h50v-50Zm100 100v250h-50V300ZM375 650H125v-50h250ZM25 550V400h50v150Zm200-350h150v50H225Zm250 350v-50h-50L325 600v50h50zM125 650h50v-50L75 500H25v50zm250-450h-50v50l100 100h50v-50ZM125 300v250h250V300H175Zm50 50h150v150H175Zm50 100v-50h50l100 100v50h-50zm50-50v50h-50L125 350v-50h50zm50 150v-50h50l100 100v50h-50ZM175 300v50h-50L25 250v-50h50Zm300 100v150h-50V400ZM375 650H125v-50h250ZM25 550V300h50v250Zm100-350h150v50H125Zm350 350v-50h-50L325 600v50h50zM125 650h50v-50L75 500H25v50zM25 300v50h50l100-100v-50h-50zm450 0v250h-50V300ZM375 650H225v-50h150ZM25 450V300h50v150Zm100-250h250v50H125Zm350 350v-50h-50L325 600v50h50zM25 300v50h50l100-100v-50h-50Zm350-100h-50v50l100 100h50v-50ZM225 450v-50h50l100 100v50h-50zm50-50v50h-50L125 350v-50h50zm50 150v-50h50l100 100v50h-50Zm150-250v250h-50V300ZM375 650H125v-50h250ZM25 550V400h50v150Zm200-350h150v50H225Zm-50 100v50h-50L25 250v-50h50Zm300 250v-50h-50L325 600v50h50zM125 650h50v-50L75 500H25v50zm250-450h-50v50l100 100h50v-50Zm100 100v250h-50V300ZM25 550V300h50v250Zm100-350h250v50H125Zm350 350v-50h-50L325 600v50h50zM125 650h50v-50L75 500H25v50zM25 300v50h50l100-100v-50h-50Zm350-100h-50v50l100 100h50v-50ZM225 450v-50h50l100 100v50h-50zm50-50v50h-50L125 350v-50h50zm50 150v-50h50l100 100v50h-50ZM175 300v50h-50L25 250v-50h50zm300 0v250h-50V300ZM375 650H125v-50h250ZM25 550V300h50v250zm450 0v-50h-50L325 600v50h50zM125 650h50v-50L75 500H25v50zM25 300v50h50l100-100v-50h-50Zm350-100h-50v50l100 100h50v-50ZM225 450v-50h50l100 100v50h-50zm50-50v50h-50L125 350v-50h50zm50 150v-50h50l100 100v50h-50ZM175 300v50h-50L25 250v-50h50zm300 0v250h-50V300ZM375 650H125v-50h250ZM125 200h250v50H125Zm350 350v-50h-50L325 600v50h50zM125 650h50v-50L75 500H25v50zM25 300v50h50l100-100v-50h-50Zm350-100h-50v50l100 100h50v-50ZM225 450v-50h50l100 100v50h-50zm50-50v50h-50L125 350v-50h50zm50 150v-50h50l100 100v50h-50ZM175 300v50h-50L25 250v-50h50Zm200 350H125v-50h250ZM25 550V300h50v250Zm100-350h250v50H125Zm350 350v-50h-50L325 600v50h50zM125 650h50v-50L75 500H25v50zM25 300v50h50l100-100v-50h-50Zm350-100h-50v50l100 100h50v-50ZM225 450v-50h50l100 100v50h-50zm50-50v50h-50L125 350v-50h50zm50 150v-50h50l100 100v50h-50ZM175 300v50h-50L25 250v-50h50zm300 0v250h-50V300ZM375 650H125v-50h250ZM25 550V300h50v250Zm100-350h250v50H125Zm350 350v-50h-50L325 600v50h50zM125 650h50v-50L75 500H25v50zM25 300v50h50l100-100v-50h-50Zm350-100h-50v50l100 100h50v-50ZM125 300h50v250h-50zm0 250v-50h250v50zm250 0h-50V300h50zm0-250v50H125v-50Zm-200 50h150v150H175Zm0-150h150v100H175Zm0 350h150v100H175Zm-50 0v-50h250v50zm250 0h-50V300h50zm0-250v50H125v-50zm0 0v50H125v-50ZM125 550v-50h250v50zm0 0v-50h250v50zm0-250h50v250h-50zm250 0v50H125v-50ZM225 450v-50h50l100 100v50h-50zm50-50v50h-50L125 350v-50h50zm50 150v-50h50l100 100v50h-50ZM175 350h150v150H175Zm-150 0h100v150H25Zm350 0h100v150H375Zm-200-50v50h-50L25 250v-50h50zm50 150v-50h50l100 100v50h-50zm50-50v50h-50L125 350v-50h50zm50 150v-50h50l100 100v50h-50ZM175 350h150v150H175Zm-150 0h100v150H25Zm350 0h100v150H375ZM175 200h150v100H175Zm0 350h150v100H175Zm0-250v50h-50L25 250v-50h50zm-50 0v250h250V300H175Zm50 50h150v150H175Zm300-50v150h-50V300ZM275 650H125v-50h150ZM25 550V300h50v250Zm100-350h250v50H125Zm0 450h50v-50L75 500H25v50zM25 300v50h50l100-100v-50h-50Zm350-100h-50v50l100 100h50v-50ZM125 300v250h250V300H175Zm50 50h150v150H175Zm300-50v250h-50V300ZM25 550V300h50v250Zm100-350h250v50H125Zm350 350v-50h-50L325 600v50h50zM125 650h50v-50L75 500H25v50zM25 300v50h50l100-100v-50h-50Zm350-100h-50v50l100 100h50v-50ZM125 300v250h250V300H175Zm50 50h150v150H175Zm300-50v250h-50V300ZM375 650H225v-50h150ZM25 450V300h50v150Zm100-250h250v50H125Zm350 350v-50h-50L325 600v50h50zM25 300v50h50l100-100v-50h-50Zm350-100h-50v50l100 100h50v-50ZM125 300v250h250V300H175Zm50 50h150v150H175Zm200 300H125v-50h250ZM25 550V300h50v250Zm100-350h250v50H125Zm350 350v-50h-50L325 600v50h50zM125 650h50v-50L75 500H25v50zM25 300v50h50l100-100v-50h-50Zm350-100h-50v50l100 100h50v-50ZM125 300v250h250V300H175Zm50 50h150v150H175Zm300-50v250h-50V300ZM375 650H125v-50h250ZM25 550V300h50v250Zm100-350h250v50H125Zm350 350v-50h-50L325 600v50h50zM125 650h50v-50L75 500H25v50zM25 300v50h50l100-100v-50h-50Zm350-100h-50v50l100 100h50v-50ZM125 300v250h250V300H175Zm50 50h150v150H175Zm300-50v250h-50V300ZM375 650H125v-50h250ZM125 200h250v50H125Zm350 350v-50h-50L325 600v50h50zM125 650h50v-50L75 500H25v50zM25 300v50h50l100-100v-50h-50Zm350-100h-50v50l100 100h50v-50ZM125 300v250h250V300H175Zm50 50h150v150H175Zm300 50v150h-50V400ZM375 650H125v-50h250ZM25 550V300h50v250Zm100-350h150v50H125Zm350 350v-50h-50L325 600v50h50zM125 650h50v-50L75 500H25v50zM25 300v50h50l100-100v-50h-50zm100 0v250h250V300H175Zm50 50h150v150H175Zm300-50v250h-50V300ZM375 650H125v-50h250ZM25 550V300h50v250zm450 0v-50h-50L325 600v50h50zM125 650h50v-50L75 500H25v50zM25 300v50h50l100-100v-50h-50Zm350-100h-50v50l100 100h50v-50ZM125 300v250h250V300H175Zm50 50h150v150H175Zm300-50v250h-50V300ZM375 650H125v-50h250ZM25 550V400h50v150Zm200-350h150v50H225Zm250 350v-50h-50L325 600v50h50zM125 650h50v-50L75 500H25v50zm250-450h-50v50l100 100h50v-50ZM125 300v250h250V300H175Zm50 50h150v150H175ZM25 600v50h50l100-100v-50h-50Zm100-100v50h50l100-100v-50h-50Zm100-100v50h50l100-100v-50h-50Zm100-100v50h50l100-100v-50h-50Zm-150 50h150v150H175Zm-150 0h100v150H25Zm350 0h100v150H375ZM175 200h150v100H175Zm0 350h150v100H175ZM25 400h450v50H25Zm150-50h150v150H175Zm-150 0h100v150H25Zm350 0h100v150H375ZM25 400h450v50H25Zm200-200h50v450h-50ZM125 500v50h50l100-100v-50h-50Zm100-100v50h50l100-100v-50h-50zm0 50v-50h50l100 100v50h-50zm50-50v50h-50L125 350v-50h50zm-50-200h50v450h-50zm100 100h50v250h-50ZM225 600v50h50l100-100v-50h-50zm0-350v-50h50l100 100v50h-50ZM125 700v50h50l100-100v-50h-50zm0-550v-50h50l100 100v50h-50zm100 500v-50h50l100 100v50h-50zm0-450v50h50l100-100v-50h-50ZM125 300h50v250h-50zm0 250v-50h50l100 100v50h-50zm0-250v50h50l100-100v-50h-50Zm50-100h150v150H175Zm-50 350v-50h250v50zm100-150h50v50h-50Zm150 150h-50V300h50zM125 200h250v50H125Zm250 450H125v-50h250Zm100-350v250h-50V300Zm-100 0v50H125v-50zm0-100h-50v50l100 100h50v-50ZM25 300v50h50l100-100v-50h-50zm100 350h50v-50L75 500H25v50zm350-100v-50h-50L325 600v50h50zM25 600v50h50l100-100v-50h-50Zm100-100v50h50l100-100v-50h-50Zm100-100v50h50l100-100v-50h-50ZM25 200h150v150H25Zm300 300h150v150H325Zm0-200v50h50l100-100v-50h-50ZM225 200h50v450h-50zm0 250v-50h50l100 100v50h-50zm50-50v50h-50L125 350v-50h50zM175 300v50h-50L25 250v-50h50zm150 250v-50h50l100 100v50h-50ZM125 200h250v50H125Zm250 450H125v-50h250zm0-450h-50v50l100 100h50v-50ZM25 300v50h50l100-100v-50h-50zm100 350h50v-50L75 500H25v50zm350-100v-50h-50L325 600v50h50zM225 200h50v450h-50zm0 250v-50h50l100 100v50h-50zm50-50v50h-50L125 350v-50h50zm50 150v-50h50l100 100v50h-50ZM175 300v50h-50L25 250v-50h50Zm200 350H125v-50h250ZM25 550V300h50v250Zm100-350h250v50H125Zm350 350v-50h-50L325 600v50h50zM125 650h50v-50L75 500H25v50zM25 300v50h50l100-100v-50h-50Zm350-100h-50v50l100 100h50v-50Zm-350 0h150v150H25Zm300 0h150v150H325Zm-150 0h150v150H175Zm0 300h150v150H175Zm200 350H125v-50h250zm-250 0h50v-50L75 700H25v50zm350-100v-50h-50L325 800v50h50zM225 650v-50h50l100 100v50h-50zm100 100v-50h50l100 100v50h-50ZM225 650v-50h50l100 100v50h-50zm100 100v-50h50l100 100v50h-50zm50 100H125v-50h250zm-250 0h50v-50L75 700H25v50zm350-100v-50h-50L325 800v50h50zM125 0h250v50H125Zm250 0h-50v50l100 100h50v-50ZM25 100v50h50L175 50V0h-50zm250 100v50h-50L125 150v-50h50zM175 100v50h-50L25 50V0h50zm100 100v50h-50L125 150v-50h50zM175 100v50h-50L25 50V0h50ZM125 0h250v50H125Zm250 0h-50v50l100 100h50v-50ZM25 100v50h50L175 50V0h-50Zm350 750H125v-50h250zm-250 0h50v-50L75 700H25v50zm350-100v-50h-50L325 800v50h50zM225 650v-50h50l100 100v50h-50zm100 100v-50h50l100 100v50h-50ZM225 650v-50h50l100 100v50h-50zm100 100v-50h50l100 100v50h-50zm50 100H125v-50h250zm-250 0h50v-50L75 700H25v50zm350-100v-50h-50L325 800v50h50zM125 0h250v50H125Zm250 0h-50v50l100 100h50v-50ZM25 100v50h50L175 50V0h-50zm250 100v50h-50L125 150v-50h50zM175 100v50h-50L25 50V0h50zm100 100v50h-50L125 150v-50h50zM175 100v50h-50L25 50V0h50ZM125 0h250v50H125Zm250 0h-50v50l100 100h50v-50ZM25 100v50h50L175 50V0h-50z" />
</svg>