<?xml version="1.0" encoding="UTF-8" standalone="no"?>
<svg width="500" height="850" version="1.1" id="svg197" sodipodi:docname="polwgo.svg"
    inkscape:version="1.4.2 (ebf0e940, 2025-05-08)" xmlns:inkscape="http://www.inkscape.org/namespaces/inkscape"
    xmlns:sodipodi="http://sodipodi.sourceforge.net/DTD/sodipodi-0.dtd" xmlns="http://www.w3.org/2000/svg"
    xmlns:svg="http://www.w3.org/2000/svg">
    <defs id="defs197" />
    <sodipodi:namedview id="namedview197" pagecolor="#ffffff" bordercolor="#000000" borderopacity="0.25"
        inkscape:showpageshadow="2" inkscape:pageopacity="0.0" inkscape:pagecheckerboard="0"
        inkscape:deskcolor="#d1d1d1" inkscape:zoom="0.59176471" inkscape:cx="249.25447" inkscape:cy="425"
        inkscape:window-width="1440" inkscape:window-height="722" inkscape:window-x="0" inkscape:window-y="25"
        inkscape:window-maximized="0" inkscape:current-layer="svg197" />
    <path id="path197" style="fill:#000000;fill-opacity:0;stroke:#ff0000"
        d="m 275,400 v 50 H 225 L 125,350 v -50 h 50 z m 50,100 v 50 h 50 L 475,450 V 400 H 425 Z M 25,400 v 50 H 75 L 175,350 v -50 h -50 z m 350,100 v 50 H 325 L 225,450 v -50 h 50 z M 225,400 h 150 v 50 H 225 Z m 0,-300 h 50 v 650 h -50 z m 50,0 v 50 H 125 V 100 Z M 125,750 v -50 h 150 v 50 z M 225,0 h 50 V 850 H 225 Z M 125,400 h 150 v 50 H 125 Z M 225,100 h 50 v 650 h -50 z m 150,0 v 50 H 225 V 100 Z M 225,750 v -50 h 150 v 50 z M 25,200 v 50 l 100,100 100,100 100,100 100,100 h 50 V 600 L 375,500 275,400 175,300 75,200 Z m 100,0 -100,100 v 50 150 50 l 100,100 h 50 150 50 L 475,550 V 500 400 H 425 V 500 L 325,600 H 175 L 75,500 V 350 L 175,250 H 275 V 200 H 175 Z m 0,100 v 50 150 50 h 200 50 V 500 350 300 H 175 Z m 50,50 H 325 V 500 H 175 Z M 25,200 v 50 l 100,100 100,100 100,100 100,100 h 50 V 600 L 375,500 275,400 175,300 75,200 Z m 100,0 -100,100 v 50 H 75 L 175,250 H 325 L 425,350 V 500 L 325,600 H 175 L 75,500 H 25 v 50 l 100,100 h 50 150 50 L 475,550 V 500 350 300 L 375,200 H 325 175 Z m -100,0 v 50 l 100,100 100,100 100,100 100,100 h 50 V 600 L 375,500 275,400 175,300 75,200 Z m 100,0 -100,100 v 50 100 H 75 V 350 L 175,250 H 325 L 425,350 V 500 L 325,600 H 225 v 50 H 375 L 475,550 V 500 350 300 L 375,200 h -50 z m -350,500 v 50 l 100,100 h 50 150 50 L 225,750 V 700 H 175 L 75,800 H -75 L -175,700 Z M 25,200 v 50 l 100,100 100,100 100,100 100,100 h 50 V 600 L 375,500 275,400 175,300 75,200 Z m 100,0 -100,100 v 50 200 l 100,100 h 50 V 600 L 75,500 V 350 L 175,250 H 325 L 425,350 V 500 L 325,600 v 50 h 50 L 475,550 V 500 350 300 L 375,200 H 325 Z M -25,600 v 50 L 75,750 175,850 h 50 V 800 L 125,700 25,600 Z M 125,200 25,300 v 50 150 50 l 100,100 h 50 150 50 L 475,550 V 500 350 300 L 375,200 h -50 v 50 L 425,350 V 500 L 325,600 H 175 L 75,500 V 350 L 175,250 v -50 z m 0,0 -100,100 v 50 150 50 l 100,100 h 50 150 50 L 475,550 V 500 400 H 425 V 500 L 325,600 H 175 L 75,500 V 350 L 175,250 H 275 V 200 H 175 Z m 0,0 -100,100 v 50 200 L 125,650 H 375 L 475,550 V 500 350 300 L 375,200 h -50 z m 50,50 H 325 L 425,350 V 500 L 325,600 H 175 L 75,500 V 350 Z M 125,200 25,300 v 50 H 75 L 175,250 H 325 L 425,350 V 500 L 325,600 H 175 L 75,500 H 25 v 50 l 100,100 h 50 150 50 L 475,550 V 500 350 300 L 375,200 H 325 175 Z m 0,0 -100,100 v 50 200 L 125,650 H 375 L 475,550 V 500 H 425 L 325,600 H 175 L 75,500 V 350 L 175,250 h 150 l 100,100 h 50 V 300 L 375,200 H 325 Z M -25,600 v 50 l 100,100 25,25 -25,25 H -75 L -175,700 h -50 v 50 l 100,100 h 50 150 50 l 25,-25 25,25 h 50 v -50 l -25,-25 25,-25 V 700 H 175 L 150,725 125,700 25,600 Z M 25,200 v 50 l 100,100 100,100 100,100 100,100 h 50 V 600 L 375,500 275,400 175,300 75,200 Z m 100,0 -100,100 v 50 150 50 l 100,100 h 50 100 V 600 H 175 L 75,500 V 350 L 175,250 h 150 l 100,100 v 100 h 50 V 350 300 L 375,200 H 325 175 Z m 0,0 -100,100 v 50 150 50 l 100,100 h 50 100 V 600 H 175 L 75,500 V 350 L 175,250 h 150 l 100,100 v 100 h 50 V 350 300 L 375,200 H 325 175 Z m -100,0 v 50 l 100,100 100,100 100,100 100,100 h 50 V 600 L 375,500 275,400 175,300 75,200 Z m 100,0 -100,100 v 50 200 L 125,650 H 375 L 475,550 V 500 350 300 L 375,200 h -50 z m 50,50 H 325 L 425,350 V 500 L 325,600 H 175 L 75,500 V 350 Z m 50,-50 v 50 H 325 L 425,350 V 500 L 325,600 H 175 L 75,500 V 400 H 25 V 550 L 125,650 H 375 L 475,550 V 500 350 300 L 375,200 H 325 Z M 125,300 v 50 150 50 h 200 50 V 500 350 300 H 175 Z m 50,50 H 325 V 500 H 175 Z M 25,200 v 50 l 100,100 100,100 100,100 100,100 h 50 V 600 L 375,500 275,400 175,300 75,200 Z m 100,0 -100,100 v 50 150 50 l 100,100 h 50 150 50 L 475,550 V 500 400 H 425 V 500 L 325,600 H 175 L 75,500 V 350 L 175,250 H 275 V 200 H 175 Z M -125,0 -225,100 v 50 h 50 L -75,50 H 75 l 100,100 h 50 V 100 L 125,0 H 75 -75 Z M 125,200 25,300 v 50 100 H 75 V 350 L 175,250 H 325 L 425,350 V 500 L 325,600 H 225 v 50 H 375 L 475,550 V 500 350 300 L 375,200 h -50 z m -100,0 v 50 l 100,100 100,100 100,100 100,100 h 50 V 600 L 375,500 275,400 175,300 75,200 Z m 200,0 v 50 H 325 L 425,350 V 500 L 325,600 H 175 L 75,500 V 400 H 25 V 550 L 125,650 H 375 L 475,550 V 500 350 300 L 375,200 H 325 Z M 125,200 25,300 v 50 200 l 100,100 h 50 V 600 L 75,500 V 350 L 175,250 H 325 L 425,350 V 500 L 325,600 v 50 h 50 L 475,550 V 500 350 300 L 375,200 H 325 Z M -225,0 v 50 l 100,100 100,100 H 25 V 200 L -75,100 -175,0 Z M 25,200 v 50 l 100,100 100,100 100,100 100,100 h 50 V 600 L 375,500 275,400 175,300 75,200 Z m 100,0 -100,100 v 50 150 50 l 100,100 h 50 150 50 L 475,550 V 500 350 300 L 375,200 h -50 v 50 L 425,350 V 500 L 325,600 H 175 L 75,500 V 350 L 175,250 v -50 z m -100,0 v 50 l 100,100 100,100 100,100 100,100 h 50 V 600 L 375,500 275,400 175,300 75,200 Z m 100,0 -100,100 v 50 H 75 L 175,250 H 325 L 425,350 V 500 L 325,600 H 175 L 75,500 H 25 v 50 l 100,100 h 50 150 50 L 475,550 V 500 350 300 L 375,200 H 325 175 Z m -100,0 v 50 l 100,100 100,100 100,100 100,100 h 50 V 600 L 375,500 275,400 175,300 75,200 Z m 100,0 -100,100 v 50 200 L 125,650 H 375 L 475,550 V 500 H 425 L 325,600 H 175 L 75,500 V 350 L 175,250 h 150 l 100,100 h 50 V 300 L 375,200 H 325 Z M -225,0 v 50 l 25,25 -25,25 v 50 h 50 l 25,-25 25,25 100,100 H 25 V 200 L -75,100 -100,75 -75,50 H 75 l 100,100 h 50 V 100 L 125,0 H 75 -75 -125 l -25,25 -25,-25 z m 450,200 h 150 v 50 H 225 Z m 150,0 h -50 v 50 l 100,100 h 50 v -50 z m 0,450 H 125 v -50 h 250 z m -250,0 h 50 V 600 L 75,500 H 25 v 50 z M 475,550 V 500 H 425 L 325,600 v 50 h 50 z M 125,200 h 250 v 50 H 125 Z m 250,0 h -50 v 50 l 100,100 h 50 V 300 Z M 25,300 v 50 H 75 L 175,250 V 200 H 125 Z M 325,100 h 50 v 650 h -50 z m 50,0 v 50 H 125 V 100 Z M 125,750 v -50 h 250 v 50 z M 25,200 v 50 l 100,100 100,100 100,100 100,100 h 50 V 600 L 375,500 275,400 175,300 75,200 Z M 125,100 h 50 v 650 h -50 z m 250,0 v 50 H 125 V 100 Z M 125,750 v -50 h 250 v 50 z M 25,200 v 50 l 100,100 100,100 100,100 100,100 h 50 V 600 L 375,500 275,400 175,300 75,200 Z m 100,0 -100,100 v 50 150 50 l 100,100 h 50 150 50 L 475,550 V 500 400 H 425 V 500 L 325,600 H 175 L 75,500 V 350 L 175,250 H 275 V 200 H 175 Z m 0,100 v 50 150 50 h 200 50 V 500 350 300 H 175 Z m 50,50 H 325 V 500 H 175 Z M 25,200 v 50 l 100,100 100,100 100,100 100,100 h 50 V 600 L 375,500 275,400 175,300 75,200 Z m 100,0 -100,100 v 50 H 75 L 175,250 H 325 L 425,350 V 500 L 325,600 H 175 L 75,500 H 25 v 50 l 100,100 h 50 150 50 L 475,550 V 500 350 300 L 375,200 H 325 175 Z m -100,0 v 50 l 100,100 100,100 100,100 100,100 h 50 V 600 L 375,500 275,400 175,300 75,200 Z m 100,0 -100,100 v 50 100 H 75 V 350 L 175,250 H 325 L 425,350 V 500 L 325,600 H 225 v 50 H 375 L 475,550 V 500 350 300 L 375,200 h -50 z m -350,500 v 50 l 100,100 h 50 150 50 L 225,750 V 700 H 175 L 75,800 H -75 L -175,700 Z M 25,200 v 50 l 100,100 100,100 100,100 100,100 h 50 V 600 L 375,500 275,400 175,300 75,200 Z m 100,0 -100,100 v 50 200 l 100,100 h 50 V 600 L 75,500 V 350 L 175,250 H 325 L 425,350 V 500 L 325,600 v 50 h 50 L 475,550 V 500 350 300 L 375,200 H 325 Z M -25,600 v 50 L 75,750 175,850 h 50 V 800 L 125,700 25,600 Z M 125,200 25,300 v 50 150 50 l 100,100 h 50 150 50 L 475,550 V 500 350 300 L 375,200 h -50 v 50 L 425,350 V 500 L 325,600 H 175 L 75,500 V 350 L 175,250 v -50 z m 0,0 -100,100 v 50 150 50 l 100,100 h 50 150 50 L 475,550 V 500 400 H 425 V 500 L 325,600 H 175 L 75,500 V 350 L 175,250 H 275 V 200 H 175 Z m 0,0 -100,100 v 50 200 L 125,650 H 375 L 475,550 V 500 350 300 L 375,200 h -50 z m 50,50 H 325 L 425,350 V 500 L 325,600 H 175 L 75,500 V 350 Z M 125,200 25,300 v 50 H 75 L 175,250 H 325 L 425,350 V 500 L 325,600 H 175 L 75,500 H 25 v 50 l 100,100 h 50 150 50 L 475,550 V 500 350 300 L 375,200 H 325 175 Z m 0,0 -100,100 v 50 200 L 125,650 H 375 L 475,550 V 500 H 425 L 325,600 H 175 L 75,500 V 350 L 175,250 h 150 l 100,100 h 50 V 300 L 375,200 H 325 Z M -25,600 v 50 l 100,100 25,25 -25,25 H -75 L -175,700 h -50 v 50 l 100,100 h 50 150 50 l 25,-25 25,25 h 50 v -50 l -25,-25 25,-25 V 700 H 175 L 150,725 125,700 25,600 Z M 25,200 v 50 l 100,100 100,100 100,100 100,100 h 50 V 600 L 375,500 275,400 175,300 75,200 Z m 100,0 -100,100 v 50 150 50 l 100,100 h 50 100 V 600 H 175 L 75,500 V 350 L 175,250 h 150 l 100,100 v 100 h 50 V 350 300 L 375,200 H 325 175 Z m 0,0 -100,100 v 50 150 50 l 100,100 h 50 100 V 600 H 175 L 75,500 V 350 L 175,250 h 150 l 100,100 v 100 h 50 V 350 300 L 375,200 H 325 175 Z m -100,0 v 50 l 100,100 100,100 100,100 100,100 h 50 V 600 L 375,500 275,400 175,300 75,200 Z m 100,0 -100,100 v 50 200 L 125,650 H 375 L 475,550 V 500 350 300 L 375,200 h -50 z m 50,50 H 325 L 425,350 V 500 L 325,600 H 175 L 75,500 V 350 Z m 50,-50 v 50 H 325 L 425,350 V 500 L 325,600 H 175 L 75,500 V 400 H 25 V 550 L 125,650 H 375 L 475,550 V 500 350 300 L 375,200 H 325 Z M 125,300 v 50 150 50 h 200 50 V 500 350 300 H 175 Z m 50,50 H 325 V 500 H 175 Z M 25,200 v 50 l 100,100 100,100 100,100 100,100 h 50 V 600 L 375,500 275,400 175,300 75,200 Z m 100,0 -100,100 v 50 150 50 l 100,100 h 50 150 50 L 475,550 V 500 400 H 425 V 500 L 325,600 H 175 L 75,500 V 350 L 175,250 H 275 V 200 H 175 Z M -125,0 -225,100 v 50 h 50 L -75,50 H 75 l 100,100 h 50 V 100 L 125,0 H 75 -75 Z M 125,200 25,300 v 50 100 H 75 V 350 L 175,250 H 325 L 425,350 V 500 L 325,600 H 225 v 50 H 375 L 475,550 V 500 350 300 L 375,200 h -50 z m -100,0 v 50 l 100,100 100,100 100,100 100,100 h 50 V 600 L 375,500 275,400 175,300 75,200 Z m 200,0 v 50 H 325 L 425,350 V 500 L 325,600 H 175 L 75,500 V 400 H 25 V 550 L 125,650 H 375 L 475,550 V 500 350 300 L 375,200 H 325 Z M 125,200 25,300 v 50 200 l 100,100 h 50 V 600 L 75,500 V 350 L 175,250 H 325 L 425,350 V 500 L 325,600 v 50 h 50 L 475,550 V 500 350 300 L 375,200 H 325 Z M -225,0 v 50 l 100,100 100,100 H 25 V 200 L -75,100 -175,0 Z M 25,200 v 50 l 100,100 100,100 100,100 100,100 h 50 V 600 L 375,500 275,400 175,300 75,200 Z m 100,0 -100,100 v 50 150 50 l 100,100 h 50 150 50 L 475,550 V 500 350 300 L 375,200 h -50 v 50 L 425,350 V 500 L 325,600 H 175 L 75,500 V 350 L 175,250 v -50 z m -100,0 v 50 l 100,100 100,100 100,100 100,100 h 50 V 600 L 375,500 275,400 175,300 75,200 Z m 100,0 -100,100 v 50 H 75 L 175,250 H 325 L 425,350 V 500 L 325,600 H 175 L 75,500 H 25 v 50 l 100,100 h 50 150 50 L 475,550 V 500 350 300 L 375,200 H 325 175 Z m -100,0 v 50 l 100,100 100,100 100,100 100,100 h 50 V 600 L 375,500 275,400 175,300 75,200 Z m 100,0 -100,100 v 50 200 L 125,650 H 375 L 475,550 V 500 H 425 L 325,600 H 175 L 75,500 V 350 L 175,250 h 150 l 100,100 h 50 V 300 L 375,200 H 325 Z M -225,0 v 50 l 25,25 -25,25 v 50 h 50 l 25,-25 25,25 100,100 H 25 V 200 L -75,100 -100,75 -75,50 H 75 l 100,100 h 50 V 100 L 125,0 H 75 -75 -125 l -25,25 -25,-25 z m 450,450 v -50 h 50 l 100,100 v 50 h -50 z m 50,-50 v 50 H 225 L 125,350 v -50 h 50 z m 50,150 v -50 h 50 l 100,100 v 50 H 425 Z M 175,300 v 50 H 125 L 25,250 v -50 h 50 z m 300,0 V 550 H 425 V 300 Z M 375,650 H 125 V 600 H 375 Z M 25,550 V 300 H 75 V 550 Z M 125,200 h 250 v 50 H 125 Z M 475,550 V 500 H 425 L 325,600 v 50 h 50 z M 125,650 h 50 V 600 L 75,500 H 25 v 50 z M 25,300 v 50 H 75 L 175,250 V 200 H 125 Z M 375,200 h -50 v 50 l 100,100 h 50 V 300 Z M 125,300 h 50 v 250 h -50 z m 0,250 v -50 h 250 v 50 z m 250,0 H 325 V 300 h 50 z m 0,-250 v 50 H 125 V 300 Z M 225,600 h 50 v 50 h -50 z m 0,-200 h 50 v 50 h -50 z m 0,-200 h 50 v 50 H 225 Z M 125,300 v 50 H 325 V 500 H 125 v 50 H 375 V 500 350 300 h -50 z m 250,0 v 50 H 125 V 300 Z M 125,550 v -50 h 250 v 50 z m 0,0 v -50 h 250 v 50 z m 0,-250 h 50 v 250 h -50 z m 250,0 v 50 H 125 v -50 z m 50,100 h 50 v 50 h -50 z m -400,0 h 50 v 50 H 25 Z m 200,0 h 50 v 50 h -50 z m 0,50 v -50 h 50 l 100,100 v 50 h -50 z m 50,-50 v 50 H 225 L 125,350 v -50 h 50 z m 50,150 v -50 h 50 l 100,100 v 50 H 425 Z M 175,300 v 50 H 125 L 25,250 v -50 h 50 z m 250,100 h 50 v 50 h -50 z m -400,0 h 50 v 50 H 25 Z m 200,200 h 50 v 50 h -50 z m 0,-200 h 50 v 50 h -50 z m 0,-200 h 50 v 50 h -50 z m 0,250 v -50 h 50 l 100,100 v 50 h -50 z m 50,-50 v 50 H 225 L 125,350 v -50 h 50 z m 50,150 v -50 h 50 l 100,100 v 50 H 425 Z M 175,300 v 50 H 125 L 25,250 v -50 h 50 z m -50,0 v 50 150 50 h 200 50 V 500 350 300 H 175 Z m 50,50 H 325 V 500 H 175 Z M 475,300 V 450 H 425 V 300 Z M 275,650 H 125 V 600 H 275 Z M 25,550 V 300 H 75 V 550 Z M 125,200 h 250 v 50 H 125 Z m 0,450 h 50 V 600 L 75,500 H 25 v 50 z M 25,300 v 50 H 75 L 175,250 V 200 H 125 Z M 375,200 h -50 v 50 l 100,100 h 50 V 300 Z M 125,300 v 50 150 50 h 200 50 V 500 350 300 H 175 Z m 50,50 H 325 V 500 H 175 Z M 475,300 V 550 H 425 V 300 Z M 25,550 V 300 H 75 V 550 Z M 125,200 h 250 v 50 H 125 Z M 475,550 V 500 H 425 L 325,600 v 50 h 50 z M 125,650 h 50 V 600 L 75,500 H 25 v 50 z M 25,300 v 50 H 75 L 175,250 V 200 H 125 Z M 375,200 h -50 v 50 l 100,100 h 50 V 300 Z M 125,300 v 50 150 50 h 200 50 V 500 350 300 H 175 Z m 50,50 H 325 V 500 H 175 Z M 475,300 V 550 H 425 V 300 Z M 375,650 H 225 V 600 H 375 Z M 25,450 V 300 H 75 V 450 Z M 125,200 h 250 v 50 H 125 Z M 475,550 V 500 H 425 L 325,600 v 50 h 50 z M 25,300 v 50 H 75 L 175,250 V 200 H 125 Z M 375,200 h -50 v 50 l 100,100 h 50 V 300 Z M 125,300 v 50 150 50 h 200 50 V 500 350 300 H 175 Z m 50,50 H 325 V 500 H 175 Z M 375,650 H 125 V 600 H 375 Z M 25,550 V 300 H 75 V 550 Z M 125,200 h 250 v 50 H 125 Z M 475,550 V 500 H 425 L 325,600 v 50 h 50 z M 125,650 h 50 V 600 L 75,500 H 25 v 50 z M 25,300 v 50 H 75 L 175,250 V 200 H 125 Z M 375,200 h -50 v 50 l 100,100 h 50 V 300 Z M 125,300 v 50 150 50 h 200 50 V 500 350 300 H 175 Z m 50,50 H 325 V 500 H 175 Z M 475,300 V 550 H 425 V 300 Z M 375,650 H 125 V 600 H 375 Z M 25,550 V 300 H 75 V 550 Z M 125,200 h 250 v 50 H 125 Z M 475,550 V 500 H 425 L 325,600 v 50 h 50 z M 125,650 h 50 V 600 L 75,500 H 25 v 50 z M 25,300 v 50 H 75 L 175,250 V 200 H 125 Z M 375,200 h -50 v 50 l 100,100 h 50 V 300 Z M 125,300 v 50 150 50 h 200 50 V 500 350 300 H 175 Z m 50,50 H 325 V 500 H 175 Z M 475,300 V 550 H 425 V 300 Z M 375,650 H 125 V 600 H 375 Z M 125,200 h 250 v 50 H 125 Z M 475,550 V 500 H 425 L 325,600 v 50 h 50 z M 125,650 h 50 V 600 L 75,500 H 25 v 50 z M 25,300 v 50 H 75 L 175,250 V 200 H 125 Z M 375,200 h -50 v 50 l 100,100 h 50 V 300 Z M 125,300 v 50 150 50 h 200 50 V 500 350 300 H 175 Z m 50,50 H 325 V 500 H 175 Z m 300,50 V 550 H 425 V 400 Z M 375,650 H 125 V 600 H 375 Z M 25,550 V 300 H 75 V 550 Z M 125,200 h 150 v 50 H 125 Z M 475,550 V 500 H 425 L 325,600 v 50 h 50 z M 125,650 h 50 V 600 L 75,500 H 25 v 50 z M 25,300 v 50 H 75 L 175,250 v -50 h -50 z m 100,0 v 50 150 50 h 200 50 V 500 350 300 H 175 Z m 50,50 H 325 V 500 H 175 Z M 475,300 V 550 H 425 V 300 Z M 375,650 H 125 V 600 H 375 Z M 25,550 V 300 h 50 v 250 z m 450,0 V 500 H 425 L 325,600 v 50 h 50 z M 125,650 h 50 V 600 L 75,500 H 25 v 50 z M 25,300 v 50 H 75 L 175,250 V 200 H 125 Z M 375,200 h -50 v 50 l 100,100 h 50 V 300 Z M 125,300 v 50 150 50 h 200 50 V 500 350 300 H 175 Z m 50,50 H 325 V 500 H 175 Z M 475,300 V 550 H 425 V 300 Z M 375,650 H 125 V 600 H 375 Z M 25,550 V 400 H 75 V 550 Z M 225,200 h 150 v 50 H 225 Z M 475,550 V 500 H 425 L 325,600 v 50 h 50 z M 125,650 h 50 V 600 L 75,500 H 25 v 50 z M 375,200 h -50 v 50 l 100,100 h 50 V 300 Z M 125,300 v 50 150 50 h 200 50 V 500 350 300 H 175 Z m 50,50 H 325 V 500 H 175 Z M 425,200 325,300 225,400 125,500 25,600 v 50 H 75 L 175,550 275,450 375,350 475,250 v -50 z m 0,200 h 50 v 50 h -50 z m -400,0 h 50 v 50 H 25 Z m 200,200 h 50 v 50 h -50 z m 0,-200 h 50 v 50 h -50 z m 0,-200 h 50 v 50 H 225 Z M 25,400 h 450 v 50 H 25 Z m 400,0 h 50 v 50 h -50 z m -400,0 h 50 v 50 H 25 Z m 200,0 h 50 v 50 h -50 z m -200,0 h 450 v 50 H 25 Z M 225,200 h 50 V 650 H 225 Z M 125,500 v 50 h 50 L 275,450 V 400 H 225 Z M 225,400 v 50 h 50 L 375,350 v -50 h -50 z m 0,50 v -50 h 50 l 100,100 v 50 h -50 z m 50,-50 v 50 H 225 L 125,350 v -50 h 50 z M 225,200 h 50 v 450 h -50 z m 100,100 h 50 V 550 H 325 Z M 225,600 v 50 h 50 L 375,550 v -50 h -50 z m 0,-350 v -50 h 50 l 100,100 v 50 H 325 Z M 125,700 v 50 h 50 L 275,650 v -50 h -50 z m 0,-550 v -50 h 50 l 100,100 v 50 h -50 z m 100,500 v -50 h 50 l 100,100 v 50 h -50 z m 0,-450 v 50 h 50 L 375,150 V 100 H 325 Z M 125,300 h 50 v 250 h -50 z m 0,250 v -50 h 50 l 100,100 v 50 h -50 z m 0,-250 v 50 h 50 L 275,250 V 200 H 225 Z M 225,200 h 50 v 50 H 225 Z M 125,550 v -50 h 250 v 50 z M 225,400 h 50 v 50 H 225 Z M 375,550 H 325 V 300 h 50 z M 125,200 h 250 v 50 H 125 Z M 375,650 H 125 V 600 H 375 Z M 475,300 V 550 H 425 V 300 Z m -100,0 v 50 H 125 v -50 z m 0,-100 h -50 v 50 l 100,100 h 50 V 300 Z M 25,300 v 50 H 75 L 175,250 v -50 h -50 z m 100,350 h 50 V 600 L 75,500 H 25 v 50 z M 475,550 V 500 H 425 L 325,600 v 50 h 50 z M 25,600 v 50 H 75 L 175,550 V 500 H 125 Z M 125,500 v 50 h 50 L 275,450 V 400 H 225 Z M 225,400 v 50 h 50 L 375,350 V 300 H 325 Z M 325,300 v 50 h 50 L 475,250 v -50 h -50 z m 100,300 h 50 v 50 H 425 Z M 25,200 h 50 v 50 H 25 Z M 225,0 h 50 v 850 h -50 z m 0,200 h 50 v 450 h -50 z m 0,250 v -50 h 50 l 100,100 v 50 h -50 z m 50,-50 v 50 H 225 L 125,350 v -50 h 50 z M 175,300 v 50 H 125 L 25,250 v -50 h 50 z m 150,250 v -50 h 50 l 100,100 v 50 H 425 Z M 125,200 h 250 v 50 H 125 Z M 375,650 H 125 v -50 h 250 z m 0,-450 h -50 v 50 l 100,100 h 50 V 300 Z M 25,300 v 50 H 75 L 175,250 v -50 h -50 z m 100,350 h 50 V 600 L 75,500 H 25 v 50 z M 475,550 V 500 H 425 L 325,600 v 50 h 50 z M 225,0 h 50 v 850 h -50 z m 0,200 h 50 v 450 h -50 z m 0,250 v -50 h 50 l 100,100 v 50 h -50 z m 50,-50 v 50 H 225 L 125,350 v -50 h 50 z m 50,150 v -50 h 50 l 100,100 v 50 H 425 Z M 175,300 v 50 H 125 L 25,250 V 200 H 75 Z M 375,650 H 125 V 600 H 375 Z M 25,550 V 300 H 75 V 550 Z M 125,200 h 250 v 50 H 125 Z M 475,550 V 500 H 425 L 325,600 v 50 h 50 z M 125,650 h 50 V 600 L 75,500 H 25 v 50 z M 25,300 v 50 H 75 L 175,250 V 200 H 125 Z M 375,200 h -50 v 50 l 100,100 h 50 v -50 z m 50,0 h 50 v 50 h -50 z m -400,0 h 50 v 50 H 25 Z m 200,400 h 50 v 50 h -50 z m 0,-400 h 50 v 50 h -50 z" />
</svg>