<?xml version="1.0" encoding="UTF-8" standalone="no"?>
<svg width="500" height="850" version="1.1" id="svg1" sodipodi:docname="uni0049.svg" inkscape:version="1.4.3 (0d15f750, 2025-12-25)" xmlns:inkscape="http://www.inkscape.org/namespaces/inkscape" xmlns:sodipodi="http://sodipodi.sourceforge.net/DTD/sodipodi-0.dtd" xmlns="http://www.w3.org/2000/svg" xmlns:svg="http://www.w3.org/2000/svg">
    <defs id="defs1" />
    <sodipodi:namedview id="namedview1" pagecolor="#ffffff" bordercolor="#000000" borderopacity="0.25" inkscape:showpageshadow="2" inkscape:pageopacity="0.0" inkscape:pagecheckerboard="0" inkscape:deskcolor="#d1d1d1" inkscape:zoom="0.62588235" inkscape:cx="249.24812" inkscape:cy="425" inkscape:window-width="1095" inkscape:window-height="751" inkscape:window-x="0" inkscape:window-y="25" inkscape:window-maximized="0" inkscape:current-layer="svg1" />
    <path id="path1" d="m -250,0 a 225,225 0 0 0 -225,225 c 0,13.80712 11.19288,25 25,25 13.80712,0 25,-11.19288 25,-25 A 175,175 0 0 1 -250,50 175,175 0 0 1 -75,225 c 0,13.80712 11.19288,25 25,25 13.80712,0 25,-11.19288 25,-25 A 225,225 0 0 0 -250,0 Z" />
</svg>
<svg width="500" height="850" xmlns="http://www.w3.org/2000/svg">
    <path d="M -393.20508 58.642578 A 25 25 0 0 0 -409.09961 65.900391 A 25 25 0 0 0 -409.09961 101.25586 L -267.67773 242.67773 L -267.63281 242.63281 A 25 25 0 0 0 -250 250 A 25 25 0 0 0 -225 225 A 25 25 0 0 0 -232.32227 207.32227 L -373.74414 65.900391 A 25 25 0 0 0 -393.20508 58.642578 z "/>
</svg><?xml version="1.0" encoding="UTF-8" standalone="no"?>
<svg width="500" height="850" version="1.1" id="svg1" sodipodi:docname="uni0057.svg" inkscape:version="1.4.3 (0d15f750, 2025-12-25)" xmlns:inkscape="http://www.inkscape.org/namespaces/inkscape" xmlns:sodipodi="http://sodipodi.sourceforge.net/DTD/sodipodi-0.dtd" xmlns="http://www.w3.org/2000/svg" xmlns:svg="http://www.w3.org/2000/svg">
    <defs id="defs1" />
    <sodipodi:namedview id="namedview1" pagecolor="#ffffff" bordercolor="#000000" borderopacity="0.25" inkscape:showpageshadow="2" inkscape:pageopacity="0.0" inkscape:pagecheckerboard="0" inkscape:deskcolor="#d1d1d1" inkscape:zoom="0.59294118" inkscape:cx="249.60317" inkscape:cy="425" inkscape:window-width="1095" inkscape:window-height="723" inkscape:window-x="0" inkscape:window-y="25" inkscape:window-maximized="0" inkscape:current-layer="svg1" />
    <path id="path1" d="m -450,600 c -13.80712,0 -25,11.19288 -25,25 a 225,225 0 0 0 225,225 225,225 0 0 0 225,-225 c 0,-13.80712 -11.19288,-25 -25,-25 -13.80712,0 -25,11.19288 -25,25 A 175,175 0 0 1 -250,800 175,175 0 0 1 -425,625 c 0,-13.80712 -11.19288,-25 -25,-25 z" />
</svg>
<svg width="500" height="850" xmlns="http://www.w3.org/2000/svg">
    <path d="M -250 600 A 25 25 0 0 0 -275 625 A 25 25 0 0 0 -267.63281 642.63281 L -267.67773 642.67773 L -126.25586 784.09961 A 25 25 0 0 0 -90.900391 784.09961 A 25 25 0 0 0 -90.900391 748.74414 L -232.32227 607.32227 A 25 25 0 0 0 -250 600 z "/>
</svg><svg width="500" height="850" xmlns="http://www.w3.org/2000/svg">
    <path
        d="M 250 200 A 225 225 0 0 0 25 425 A 225 225 0 0 0 250 650 A 225 225 0 0 0 475 425 A 225 225 0 0 0 250 200 z M 250 250 A 175 175 0 0 1 425 425 A 175 175 0 0 1 250 600 A 175 175 0 0 1 75 425 A 175 175 0 0 1 250 250 z " />
</svg><svg width="500" height="850" xmlns="http://www.w3.org/2000/svg">
   <path d="M 250 0 A 25 25 0 0 0 225 25 L 225 825 A 25 25 0 0 0 250 850 A 25 25 0 0 0 275 825 L 275 25 A 25 25 0 0 0 250 0 z "/>
</svg><svg width="500" height="850" xmlns="http://www.w3.org/2000/svg">
    <path d="M 250 300 A 125 125 0 0 0 125 425 A 125 125 0 0 0 250 550 A 125 125 0 0 0 375 425 A 125 125 0 0 0 250 300 z M 250 350 A 75 75 0 0 1 325 425 A 75 75 0 0 1 250 500 A 75 75 0 0 1 175 425 A 75 75 0 0 1 250 350 z "/>
</svg>