<svg width="500" height="850" xmlns="http://www.w3.org/2000/svg">
    <path style="stroke:#ff0000"
        d="M 475,0 V 850 M 425,0 V 850 M 375,0 V 850 M 325,0 V 850 M 275,0 V 850 M 225,0 V 850 M 175,0 V 850 M 125,0 V 850 M 75,0 V 850 M 25,0 V 850 M 0,850 H 500 M 0,800 H 500 M 0,750 H 500 M 0,700 H 500 M 0,650 H 500 M 0,600 H 500 M 0,550 H 500 M 0,500 H 500 M 0,450 H 500 M 0,400 H 500 M 0,350 H 500 M 0,300 H 500 M 0,250 H 500 M 0,200 H 500 M 0,150 H 500 M 0,100 H 500 M 0,50 H 500 M 0,0 h 500" />
</svg>