<svg width="500" height="850" xmlns="http://www.w3.org/2000/svg" xmlns:svg="http://www.w3.org/2000/svg">
    <path
        d="M 250 200 A 25 25 0 0 0 225 225 A 25 25 0 0 0 250 250 A 175 175 0 0 1 425 425 A 175 175 0 0 1 250 600 A 175 175 0 0 1 75 425 A 25 25 0 0 0 50 400 A 25 25 0 0 0 25 425 A 25 25 0 0 0 25.255859 428.5625 A 225 225 0 0 0 250 650 A 225 225 0 0 0 475 425 A 225 225 0 0 0 251.24414 200.03125 L 251.22656 200.0293 A 25 25 0 0 0 250 200 z " />
    <path
        d="M 108.57812 258.57812 A 25 25 0 0 0 90.900391 265.90039 A 25 25 0 0 0 88.5625 268.60156 A 225 225 0 0 0 90.900391 584.09961 A 225 225 0 0 0 409.09766 584.09961 A 225 225 0 0 0 409.95508 266.80469 L 409.94531 266.78906 A 25 25 0 0 0 409.09766 265.90234 L 409.09961 265.90039 A 25 25 0 0 0 373.74414 265.90039 A 25 25 0 0 0 373.74414 301.25586 A 175 175 0 0 1 373.74414 548.74414 A 175 175 0 0 1 126.25586 548.74414 A 175 175 0 0 1 126.25586 301.25586 A 25 25 0 0 0 126.25586 265.90039 A 25 25 0 0 0 108.57812 258.57812 z " />
    <path
        d="M 250 200 A 25 25 0 0 0 246.4375 200.25586 A 225 225 0 0 0 25 425 A 225 225 0 0 0 250 650 A 225 225 0 0 0 474.96875 426.24414 L 474.9707 426.22656 A 25 25 0 0 0 475 425 A 25 25 0 0 0 450 400 A 25 25 0 0 0 425 425 A 175 175 0 0 1 250 600 A 175 175 0 0 1 75 425 A 175 175 0 0 1 250 250 A 25 25 0 0 0 275 225 A 25 25 0 0 0 250 200 z " />
    <path
        d="M 234.63477 200.54688 A 225 225 0 0 0 91.804688 265.04492 L 91.789062 265.05469 A 25 25 0 0 0 90.902344 265.90234 L 90.900391 265.90039 A 25 25 0 0 0 90.900391 301.25586 A 25 25 0 0 0 126.25586 301.25586 A 175 175 0 0 1 373.74414 301.25586 A 175 175 0 0 1 373.74414 548.74414 A 175 175 0 0 1 126.25586 548.74414 A 25 25 0 0 0 90.900391 548.74414 A 25 25 0 0 0 90.900391 584.09961 A 25 25 0 0 0 93.601562 586.4375 A 225 225 0 0 0 409.09961 584.09961 A 225 225 0 0 0 409.09961 265.90234 A 225 225 0 0 0 234.63477 200.54688 z " />
    <path
        d="M 234.63477 200.54688 A 225 225 0 0 0 232.51953 200.84375 A 225 225 0 0 0 229.07812 201.32812 A 225 225 0 0 0 201.23438 205.49609 A 225 225 0 0 0 195.36719 207.19531 A 225 225 0 0 0 170.90039 214.49609 A 225 225 0 0 0 162.46484 218.30469 A 225 225 0 0 0 142.13867 227.65625 A 225 225 0 0 0 130.42578 235.10547 A 225 225 0 0 0 115.51758 244.71289 A 225 225 0 0 0 100.04102 257.98438 A 225 225 0 0 0 91.804688 265.04492 L 91.789062 265.05469 A 25 25 0 0 0 90.943359 265.86328 L 90.900391 265.90039 A 225 225 0 0 0 90.894531 584.0918 L 90.900391 584.09766 L 90.900391 584.09961 A 25 25 0 0 0 92.464844 585.45312 A 25 25 0 0 0 93.601562 586.4375 A 225 225 0 0 0 204.41602 645.13672 L 205.13867 645.24219 A 225 225 0 0 0 235.80664 649.37109 A 225 225 0 0 0 237.74414 649.37695 A 225 225 0 0 0 267.48047 649.15625 A 225 225 0 0 0 270.92188 648.67188 A 225 225 0 0 0 298.76562 644.50391 A 225 225 0 0 0 304.63281 642.80469 A 225 225 0 0 0 329.09961 635.50391 A 225 225 0 0 0 337.53516 631.69531 A 225 225 0 0 0 357.86133 622.34375 A 225 225 0 0 0 369.57422 614.89453 A 225 225 0 0 0 384.48242 605.28711 A 225 225 0 0 0 399.95898 592.01562 A 225 225 0 0 0 408.19531 584.95508 L 408.21094 584.94531 A 25 25 0 0 0 409.05664 584.13672 L 409.09961 584.09961 A 225 225 0 0 0 409.11719 265.92188 L 409.09961 265.90234 L 409.09961 265.90039 A 25 25 0 0 0 407.53516 264.54688 A 25 25 0 0 0 406.39844 263.5625 A 225 225 0 0 0 295.58398 204.86328 L 294.86133 204.75781 A 225 225 0 0 0 264.19336 200.62891 A 225 225 0 0 0 262.25586 200.62305 A 225 225 0 0 0 234.63477 200.54688 z M 250 250 A 175 175 0 0 1 373.74414 301.25586 A 175 175 0 0 1 373.74414 548.74414 A 175 175 0 0 1 277.37695 597.8457 A 175 175 0 0 1 126.25586 548.74414 A 175 175 0 0 1 126.25586 301.25586 A 175 175 0 0 1 147.13672 283.42188 A 175 175 0 0 1 250 250 z " />
    <path
        d="M 264.05469 200.60938 A 225 225 0 0 0 90.900391 265.90039 A 225 225 0 0 0 90.900391 584.09766 A 225 225 0 0 0 408.19531 584.95508 L 408.21094 584.94531 A 25 25 0 0 0 409.09766 584.09766 L 409.09961 584.09961 A 25 25 0 0 0 409.09961 548.74414 A 25 25 0 0 0 373.74414 548.74414 A 175 175 0 0 1 126.25586 548.74414 A 175 175 0 0 1 126.25586 301.25586 A 175 175 0 0 1 373.74414 301.25586 A 25 25 0 0 0 409.09961 301.25586 A 25 25 0 0 0 409.09961 265.90039 A 25 25 0 0 0 406.39844 263.5625 A 225 225 0 0 0 264.05469 200.60938 z " />
    <path
        d="M 250 200 A 225 225 0 0 0 25.03125 423.75586 L 25.029297 423.77344 A 25 25 0 0 0 25 425 A 25 25 0 0 0 50 450 A 25 25 0 0 0 75 425 A 175 175 0 0 1 250 250 A 175 175 0 0 1 425 425 A 175 175 0 0 1 250 600 A 25 25 0 0 0 225 625 A 25 25 0 0 0 250 650 A 25 25 0 0 0 253.5625 649.74414 A 225 225 0 0 0 475 425 A 225 225 0 0 0 250 200 z " />
    <path
        d="M 233.94922 200.57227 A 225 225 0 0 0 90.902344 265.90039 A 225 225 0 0 0 90.044922 583.19531 L 90.054688 583.21094 A 25 25 0 0 0 90.902344 584.09766 L 90.900391 584.09961 A 25 25 0 0 0 126.25586 584.09961 A 25 25 0 0 0 126.25586 548.74414 A 175 175 0 0 1 126.25586 301.25586 A 175 175 0 0 1 373.74414 301.25586 A 175 175 0 0 1 373.74414 548.74414 A 25 25 0 0 0 373.74414 584.09961 A 25 25 0 0 0 409.09961 584.09961 A 25 25 0 0 0 411.4375 581.39844 A 225 225 0 0 0 409.09961 265.90039 A 225 225 0 0 0 233.94922 200.57227 z " />
    <path
        d="M 250 200 A 225 225 0 0 0 25 425 A 225 225 0 0 0 248.75586 649.96875 L 248.77344 649.9707 A 25 25 0 0 0 250 650 A 25 25 0 0 0 275 625 A 25 25 0 0 0 250 600 A 175 175 0 0 1 75 425 A 175 175 0 0 1 250 250 A 175 175 0 0 1 425 425 A 25 25 0 0 0 450 450 A 25 25 0 0 0 475 425 A 25 25 0 0 0 474.74414 421.4375 A 225 225 0 0 0 250 200 z " />
</svg>