<svg width="500" height="850" xmlns="http://www.w3.org/2000/svg">
    <path style="fill:#000000;fill-opacity:0;stroke:#ff0000"
        d="m 108.57812,258.57812 a 25,25 0 0 0 -1.55078,0.3086 25,25 0 0 0 -6.08984,1.21094 25,25 0 0 0 -2.626953,0.85351 25,25 0 0 0 -7.398438,4.94141 l -0.0039,0.002 -0.0059,0.006 h -0.002 l -0.0098,0.0137 a 225,225 0 0 0 -1.34375,1.55078 25,25 0 0 0 -0.984375,1.13672 225,225 0 0 0 -58.699219,110.81446 l -0.105469,0.72265 a 225,225 0 0 0 -4.128906,30.66797 225,225 0 0 0 -0.0059,1.9375 225,225 0 0 0 0.220703,29.73633 225,225 0 0 0 0.484375,3.44141 225,225 0 0 0 4.167969,27.84374 225,225 0 0 0 1.699218,5.86719 225,225 0 0 0 7.300782,24.4668 225,225 0 0 0 3.808594,8.43555 225,225 0 0 0 9.351562,20.32617 225,225 0 0 0 7.449219,11.71289 225,225 0 0 0 9.607422,14.9082 225,225 0 0 0 13.271484,15.47656 225,225 0 0 0 7.878906,9.09766 l 0.03906,0.041 -0.002,0.002 a 25,25 0 0 0 35.355469,0 25,25 0 0 0 0,-35.35547 175,175 0 0 1 -16.28711,-228.41992 l 263.77539,263.77539 a 25,25 0 0 0 7.40625,4.94727 25,25 0 0 0 2.61719,0.85156 25,25 0 0 0 6.10937,1.21679 25,25 0 0 0 3.08203,0 25,25 0 0 0 6.11524,-1.21679 25,25 0 0 0 2.61133,-0.84766 25,25 0 0 0 7.40234,-4.94336 l 0.004,-0.002 0.006,-0.006 0.0176,-0.0176 0.004,-0.004 0.0215,-0.0234 a 25,25 0 0 0 2.14258,-2.47852 l 0.1543,-0.17773 a 225,225 0 0 0 35.6582,-264.79688 225,225 0 0 0 -5.20508,-8.97656 225,225 0 0 0 -0.90429,-1.42383 225,225 0 0 0 -4.70117,-7.29492 225,225 0 0 0 -2.15039,-3.05078 225,225 0 0 0 -3.83985,-5.38477 225,225 0 0 0 -3.63867,-4.67578 225,225 0 0 0 -2.77539,-3.52539 225,225 0 0 0 -5.38477,-6.28125 225,225 0 0 0 -1.36718,-1.58008 225,225 0 0 0 -7.17383,-7.60351 l -0.01,-0.0156 a 25,25 0 0 0 -0.84765,-0.88672 l 0.002,-0.002 a 25,25 0 0 0 -17.67773,-7.32227 25,25 0 0 0 -17.67774,7.32227 25,25 0 0 0 0,35.35547 175,175 0 0 1 16.37891,228.51172 L 126.25586,265.90039 a 25,25 0 0 0 -7.4043,-4.94727 25,25 0 0 0 -2.63672,-0.85546 25,25 0 0 0 -6.08398,-1.21094 25,25 0 0 0 -1.55274,-0.3086 z M 150,99.998047 c -13.807,0 -25,11.194003 -25,25.000003 C 125,138.80405 136.193,150 150,150 v 0.2832 a 75,75 0 0 1 53.0332,21.6836 C 217.6782,186.6118 225,205.806 225,225 v 100 h 0.0117 c 0,31.99 12.19061,63.97967 36.59961,88.38867 A 121,121 0 0 0 275.28125,425 121,121 0 0 0 261.60938,436.61133 C 237.20238,461.02033 225,493.01 225,525 v 100 c 0,19.194 -7.3218,38.3892 -21.9668,53.0332 A 75,75 0 0 1 150,699.7168 V 700 c -13.807,0 -25,11.193 -25,25 0,13.807 11.193,25 25,25 11.305,-0.132 54.29267,-2.94733 88.38867,-36.61133 C 262.79667,688.97967 275,656.99 275,625 V 525 c 0,-19.194 7.3218,-38.3892 21.9668,-53.0332 A 75,75 0 0 1 350,450.2832 v -0.28125 a 24.92,24.92 0 0 0 17.67773,-7.32422 24.939,24.939 0 0 0 6.81446,-12.63867 A 25,25 0 0 0 375,425.00195 V 425 c 0,-1.725 -0.17481,-3.41011 -0.50781,-5.03711 v -0.002 a 25,25 0 0 0 -1.45703,-4.68946 v -0.002 a 25,25 0 0 0 -2.30469,-4.24609 v -0.002 A 25,25 0 0 0 367.67773,407.32422 24.916,24.916 0 0 0 350,400 v -0.2832 A 75,75 0 0 1 296.9668,378.0332 C 282.3218,363.3882 275,344.194 275,325 V 225 C 275,193.01 262.79667,161.02033 238.38867,136.61133 204.28167,102.93633 161.28,100.13005 150,99.998047 Z M 250,0 a 25,25 0 0 0 -25,25 v 800 a 25,25 0 0 0 25,25 25,25 0 0 0 25,-25 V 25 A 25,25 0 0 0 250,0 Z m 100,100 c -11.305,0.132 -54.29267,2.94733 -88.38867,36.61133 C 237.20333,161.02033 225,193.01 225,225 v 100 c 0,19.194 -7.3218,38.3892 -21.9668,53.0332 A 75,75 0 0 1 150,399.7168 v 0.28125 l -0.0391,0.004 c -1.698,0.003 -3.35889,0.174 -4.96289,0.5 l -0.0742,0.0156 c -1.602,0.33 -3.14514,0.81359 -4.61914,1.43359 l -0.0664,0.0293 a 25,25 0 0 0 -4.18555,2.27148 l -0.0566,0.0371 a 25,25 0 0 0 -3.65039,3.01172 l -0.0234,0.0215 -0.0176,0.0195 a 24.956,24.956 0 0 0 -5.33203,7.91015 l -0.008,0.0156 v 0.002 l -0.004,0.0117 a 25,25 0 0 0 -1.45313,4.67969 A 25,25 0 0 0 125,424.99609 V 425 c 0,1.725 0.17481,3.41011 0.50781,5.03711 v 0.002 a 25,25 0 0 0 1.45703,4.68946 v 0.002 a 25,25 0 0 0 2.30469,4.24609 v 0.002 a 25,25 0 0 0 3.05274,3.69726 25,25 0 0 0 7.94726,5.35938 25,25 0 0 0 4.69141,1.45703 A 25,25 0 0 0 150,450 v 0.2832 a 75,75 0 0 1 53.0332,21.6836 C 217.6782,486.6118 225,505.806 225,525 v 100 c 0,31.99 12.20333,63.97967 36.61133,88.38867 34.107,33.675 77.10867,36.48128 88.38867,36.61328 13.807,0 25,-11.194 25,-25 C 375,711.19595 363.807,700 350,700 v -0.2832 A 75,75 0 0 1 296.9668,678.0332 C 282.3218,663.3882 275,644.194 275,625 V 525 c 0,-31.99 -12.20333,-63.97967 -36.61133,-88.38867 a 121,121 0 0 0 -13.67383,-11.61328 121,121 0 0 0 13.67383,-11.60938 C 262.79667,388.98267 275,356.99 275,325 V 225 c 0,-19.194 7.3218,-38.3892 21.9668,-53.0332 A 75,75 0 0 1 350,150.2832 V 150 c 13.807,0 25,-11.193 25,-25 0,-13.807 -11.193,-25 -25,-25 z M 104.66797,258.88672 a 25,25 0 0 0 -13.767579,7.01367 25,25 0 0 0 0,35.35547 L 373.74414,584.09961 a 25,25 0 0 0 35.35547,0 25,25 0 0 0 0,-35.35547 L 126.25586,265.90039 a 25,25 0 0 0 -21.58789,-7.01367 z M 250,200 a 25,25 0 0 0 -3.5625,0.25586 A 225,225 0 0 0 25,425 225,225 0 0 0 250,650 225,225 0 0 0 474.96875,426.24414 l 0.002,-0.0176 A 25,25 0 0 0 475,425 25,25 0 0 0 450,400 25,25 0 0 0 425,425 175,175 0 0 1 250,600 175,175 0 0 1 75,425 175,175 0 0 1 250,250 25,25 0 0 0 275,225 25,25 0 0 0 250,200 Z m 0,100 A 125,125 0 0 0 125,425 125,125 0 0 0 250,550 125,125 0 0 0 375,425 125,125 0 0 0 250,300 Z m 0,50 a 75,75 0 0 1 75,75 75,75 0 0 1 -75,75 75,75 0 0 1 -75,-75 75,75 0 0 1 75,-75 z M 104.66797,258.88672 a 25,25 0 0 0 -13.767579,7.01367 25,25 0 0 0 0,35.35547 L 373.74414,584.09961 a 25,25 0 0 0 35.35547,0 25,25 0 0 0 0,-35.35547 L 126.25586,265.90039 a 25,25 0 0 0 -21.58789,-7.01367 z m 129.9668,-58.33984 A 225,225 0 0 0 91.804688,265.04492 l -0.01563,0.01 a 25,25 0 0 0 -0.886718,0.84765 l -0.002,-0.002 a 25,25 0 0 0 0,35.35547 25,25 0 0 0 35.355469,0 175,175 0 0 1 247.48828,0 175,175 0 0 1 0,247.48828 175,175 0 0 1 -247.48828,0 25,25 0 0 0 -35.355469,0 25,25 0 0 0 0,35.35547 25,25 0 0 0 2.701171,2.33789 225,225 0 0 0 315.498048,-2.33789 225,225 0 0 0 0,-318.19727 225,225 0 0 0 -174.46484,-65.35546 z m -129.9668,58.33984 a 25,25 0 0 0 -13.767579,7.01367 25,25 0 0 0 0,35.35547 L 373.74414,584.09961 a 25,25 0 0 0 35.35547,0 25,25 0 0 0 0,-35.35547 L 126.25586,265.90039 a 25,25 0 0 0 -21.58789,-7.01367 z M 250,200 A 225,225 0 0 0 25.03125,423.75586 l -0.002,0.0176 A 25,25 0 0 0 25,425 25,25 0 0 0 50,450 25,25 0 0 0 75,425 175,175 0 0 1 250,250 175,175 0 0 1 425,425 175,175 0 0 1 250,600 a 25,25 0 0 0 -25,25 25,25 0 0 0 25,25 25,25 0 0 0 3.5625,-0.25586 A 225,225 0 0 0 475,425 225,225 0 0 0 250,200 Z m -450,400 a 25,25 0 0 0 -25,25 25,25 0 0 0 0.25586,3.5625 A 225,225 0 0 0 0,850 a 225,225 0 0 0 31.94336,-2.28516 225,225 0 0 0 18.52539,-4.01757 225,225 0 0 0 12.74805,-2.77344 225,225 0 0 0 20.67773,-7.68555 225,225 0 0 0 9.32617,-3.47851 225,225 0 0 0 18.84571,-10.24805 225,225 0 0 0 9.28906,-5.07227 225,225 0 0 0 17.00976,-12.67578 225,225 0 0 0 8.6543,-6.47851 225,225 0 0 0 15.49414,-15.41211 225,225 0 0 0 7.17774,-7.17774 225,225 0 0 0 13.16406,-17.46679 225,225 0 0 0 6.08594,-8.13086 225,225 0 0 0 10.48047,-19.02344 225,225 0 0 0 4.93945,-9.04297 225,225 0 0 0 7.63086,-20.19727 225,225 0 0 0 3.64648,-9.77539 225,225 0 0 0 4.55078,-20.45507 225,225 0 0 0 2.35938,-10.84375 225,225 0 0 0 1.57422,-20.51172 A 225,225 0 0 0 225,625 225,225 0 0 0 224.74609,621.44141 25,25 0 0 0 200,600 25,25 0 0 0 175,625 175,175 0 0 1 27.37695,797.8457 175,175 0 0 1 0,800 175,175 0 0 1 -175,625 25,25 0 0 0 -200,600 Z M 104.66797,258.88672 a 25,25 0 0 0 -13.767579,7.01367 25,25 0 0 0 0,35.35547 L 373.74414,584.09961 a 25,25 0 0 0 35.35547,0 25,25 0 0 0 0,-35.35547 L 126.25586,265.90039 a 25,25 0 0 0 -21.58789,-7.01367 z M 233.94922,200.57227 A 225,225 0 0 0 90.902344,265.90039 225,225 0 0 0 90.044922,583.19531 l 0.0098,0.0156 a 25,25 0 0 0 0.847656,0.88672 l -0.002,0.002 a 25,25 0 0 0 35.355469,0 25,25 0 0 0 0,-35.35547 175,175 0 0 1 0,-247.48828 175,175 0 0 1 247.48828,0 175,175 0 0 1 0,247.48828 25,25 0 0 0 0,35.35547 25,25 0 0 0 35.35547,0 25,25 0 0 0 2.33789,-2.70117 225,225 0 0 0 -2.33789,-315.49805 225,225 0 0 0 -175.15039,-65.32812 z M 0,600 a 25,25 0 0 0 -25,25 25,25 0 0 0 7.36719,17.63281 l -0.04492,0.0449 141.42187,141.42188 a 25,25 0 0 0 35.35547,0 25,25 0 0 0 0,-35.35547 L 17.67773,607.32227 A 25,25 0 0 0 0,600 Z M 108.57812,258.57812 a 25,25 0 0 0 -17.677729,7.32227 25,25 0 0 0 -2.337891,2.70117 225,225 0 0 0 2.337891,315.49805 225,225 0 0 0 318.197269,0 225,225 0 0 0 0.85742,-317.29492 l -0.01,-0.0156 a 25,25 0 0 0 -0.84765,-0.88672 l 0.002,-0.002 a 25,25 0 0 0 -35.35547,0 25,25 0 0 0 0,35.35547 175,175 0 0 1 0,247.48828 175,175 0 0 1 -247.48828,0 175,175 0 0 1 0,-247.48828 25,25 0 0 0 0,-35.35547 25,25 0 0 0 -17.67774,-7.32227 z M 250,200 a 25,25 0 0 0 -3.5625,0.25586 A 225,225 0 0 0 25,425 225,225 0 0 0 250,650 225,225 0 0 0 474.96875,426.24414 l 0.002,-0.0176 A 25,25 0 0 0 475,425 25,25 0 0 0 450,400 25,25 0 0 0 425,425 175,175 0 0 1 250,600 175,175 0 0 1 75,425 175,175 0 0 1 250,250 25,25 0 0 0 275,225 25,25 0 0 0 250,200 Z m -15.36523,0.54688 a 225,225 0 0 0 -2.11524,0.29687 225,225 0 0 0 -3.44141,0.48437 225,225 0 0 0 -27.84374,4.16797 225,225 0 0 0 -5.86719,1.69922 225,225 0 0 0 -24.4668,7.30078 225,225 0 0 0 -8.43555,3.8086 225,225 0 0 0 -20.32617,9.35156 225,225 0 0 0 -11.71289,7.44922 225,225 0 0 0 -14.9082,9.60742 225,225 0 0 0 -15.47656,13.27149 225,225 0 0 0 -8.236332,7.06054 l -0.01563,0.01 a 25,25 0 0 0 -0.845703,0.80859 l -0.04297,0.0371 a 225,225 0 0 0 -0.0059,318.19141 l 0.0059,0.006 v 0.002 a 25,25 0 0 0 1.564453,1.35351 25,25 0 0 0 1.136718,0.98438 225,225 0 0 0 110.814458,58.69922 l 0.72265,0.10547 a 225,225 0 0 0 30.66797,4.1289 225,225 0 0 0 1.9375,0.006 225,225 0 0 0 29.73633,-0.2207 225,225 0 0 0 3.44141,-0.48437 225,225 0 0 0 27.84374,-4.16797 225,225 0 0 0 5.86719,-1.69922 225,225 0 0 0 24.4668,-7.30078 225,225 0 0 0 8.43555,-3.8086 225,225 0 0 0 20.32617,-9.35156 225,225 0 0 0 11.71289,-7.44922 225,225 0 0 0 14.9082,-9.60742 225,225 0 0 0 15.47656,-13.27149 225,225 0 0 0 8.23633,-7.06054 l 0.0156,-0.01 a 25,25 0 0 0 0.8457,-0.80859 l 0.043,-0.0371 a 225,225 0 0 0 0.0176,-318.17773 l -0.0176,-0.0195 v -0.002 a 25,25 0 0 0 -1.56445,-1.35351 25,25 0 0 0 -1.13672,-0.98438 225,225 0 0 0 -110.81446,-58.69922 l -0.72265,-0.10547 a 225,225 0 0 0 -30.66797,-4.1289 225,225 0 0 0 -1.9375,-0.006 225,225 0 0 0 -27.62109,-0.0762 z M 250,250 a 175,175 0 0 1 123.74414,51.25586 175,175 0 0 1 0,247.48828 175,175 0 0 1 -96.36719,49.10156 175,175 0 0 1 -151.12109,-49.10156 175,175 0 0 1 0,-247.48828 175,175 0 0 1 20.88086,-17.83398 A 175,175 0 0 1 250,250 Z M 234.63477,200.54688 A 225,225 0 0 0 91.804688,265.04492 l -0.01563,0.01 a 25,25 0 0 0 -0.886718,0.84765 l -0.002,-0.002 a 25,25 0 0 0 0,35.35547 25,25 0 0 0 35.355469,0 175,175 0 0 1 247.48828,0 175,175 0 0 1 0,247.48828 175,175 0 0 1 -247.48828,0 25,25 0 0 0 -35.355469,0 25,25 0 0 0 0,35.35547 25,25 0 0 0 2.701171,2.33789 225,225 0 0 0 315.498048,-2.33789 225,225 0 0 0 0,-318.19727 225,225 0 0 0 -174.46484,-65.35546 z m 29.41992,0.0625 a 225,225 0 0 0 -173.154299,65.29101 225,225 0 0 0 0,318.19727 225,225 0 0 0 317.294919,0.85742 l 0.0156,-0.01 a 25,25 0 0 0 0.88672,-0.84765 l 0.002,0.002 a 25,25 0 0 0 0,-35.35547 25,25 0 0 0 -35.35547,0 175,175 0 0 1 -247.48828,0 175,175 0 0 1 0,-247.48828 175,175 0 0 1 247.48828,0 25,25 0 0 0 35.35547,0 25,25 0 0 0 0,-35.35547 25,25 0 0 0 -2.70117,-2.33789 225,225 0 0 0 -142.34375,-62.95312 z M -200,600 a 25,25 0 0 0 -25,25 25,25 0 0 0 0.25586,3.5625 A 225,225 0 0 0 0,850 a 225,225 0 0 0 31.94336,-2.28516 225,225 0 0 0 18.52539,-4.01757 225,225 0 0 0 12.74805,-2.77344 225,225 0 0 0 20.67773,-7.68555 225,225 0 0 0 9.32617,-3.47851 225,225 0 0 0 18.84571,-10.24805 225,225 0 0 0 9.28906,-5.07227 225,225 0 0 0 17.00976,-12.67578 225,225 0 0 0 8.6543,-6.47851 225,225 0 0 0 8.42774,-8.38282 25,25 0 0 0 3.65234,-2.80273 25,25 0 0 0 3.30859,-4.12305 225,225 0 0 0 0.10547,-0.10351 225,225 0 0 0 7.17774,-7.17774 225,225 0 0 0 13.16406,-17.46679 225,225 0 0 0 6.08594,-8.13086 225,225 0 0 0 10.48047,-19.02344 225,225 0 0 0 4.93945,-9.04297 225,225 0 0 0 7.63086,-20.19727 225,225 0 0 0 3.64648,-9.77539 225,225 0 0 0 4.55078,-20.45507 225,225 0 0 0 2.35938,-10.84375 225,225 0 0 0 1.57422,-20.51172 A 225,225 0 0 0 225,625 225,225 0 0 0 224.74609,621.44141 25,25 0 0 0 200,600 25,25 0 0 0 175,625 175,175 0 0 1 140.12305,729.76758 L 17.67773,607.32227 A 25,25 0 0 0 0,600 a 25,25 0 0 0 -25,25 25,25 0 0 0 7.36719,17.63281 l -0.04492,0.0449 122.47265,122.47266 A 175,175 0 0 1 27.37695,797.8457 175,175 0 0 1 0,800 175,175 0 0 1 -175,625 25,25 0 0 0 -200,600 Z M 104.66797,258.88672 a 25,25 0 0 0 -13.767579,7.01367 25,25 0 0 0 0,35.35547 L 373.74414,584.09961 a 25,25 0 0 0 35.35547,0 25,25 0 0 0 0,-35.35547 L 126.25586,265.90039 a 25,25 0 0 0 -21.58789,-7.01367 z M 250,200 A 225,225 0 0 0 25,425 225,225 0 0 0 248.75586,649.96875 l 0.0176,0.002 A 25,25 0 0 0 250,650 25,25 0 0 0 275,625 25,25 0 0 0 250,600 175,175 0 0 1 75,425 175,175 0 0 1 250,250 a 175,175 0 0 1 175,175 25,25 0 0 0 25,25 25,25 0 0 0 25,-25 25,25 0 0 0 -0.25586,-3.5625 A 225,225 0 0 0 250,200 Z m 0,0 A 225,225 0 0 0 25,425 225,225 0 0 0 248.75586,649.96875 l 0.0176,0.002 A 25,25 0 0 0 250,650 25,25 0 0 0 275,625 25,25 0 0 0 250,600 175,175 0 0 1 75,425 175,175 0 0 1 250,250 a 175,175 0 0 1 175,175 25,25 0 0 0 25,25 25,25 0 0 0 25,-25 25,25 0 0 0 -0.25586,-3.5625 A 225,225 0 0 0 250,200 Z m -145.33203,58.88672 a 25,25 0 0 0 -13.767579,7.01367 25,25 0 0 0 0,35.35547 L 373.74414,584.09961 a 25,25 0 0 0 35.35547,0 25,25 0 0 0 0,-35.35547 L 126.25586,265.90039 a 25,25 0 0 0 -21.58789,-7.01367 z m 129.9668,-58.33984 a 225,225 0 0 0 -2.11524,0.29687 225,225 0 0 0 -3.44141,0.48437 225,225 0 0 0 -27.84374,4.16797 225,225 0 0 0 -5.86719,1.69922 225,225 0 0 0 -24.4668,7.30078 225,225 0 0 0 -8.43555,3.8086 225,225 0 0 0 -20.32617,9.35156 225,225 0 0 0 -11.71289,7.44922 225,225 0 0 0 -14.9082,9.60742 225,225 0 0 0 -15.47656,13.27149 225,225 0 0 0 -8.236332,7.06054 l -0.01563,0.01 a 25,25 0 0 0 -0.845703,0.80859 l -0.04297,0.0371 a 225,225 0 0 0 -0.0059,318.19141 l 0.0059,0.006 v 0.002 a 25,25 0 0 0 1.564453,1.35351 25,25 0 0 0 1.136718,0.98438 225,225 0 0 0 110.814458,58.69922 l 0.72265,0.10547 a 225,225 0 0 0 30.66797,4.1289 225,225 0 0 0 1.9375,0.006 225,225 0 0 0 29.73633,-0.2207 225,225 0 0 0 3.44141,-0.48437 225,225 0 0 0 27.84374,-4.16797 225,225 0 0 0 5.86719,-1.69922 225,225 0 0 0 24.4668,-7.30078 225,225 0 0 0 8.43555,-3.8086 225,225 0 0 0 20.32617,-9.35156 225,225 0 0 0 11.71289,-7.44922 225,225 0 0 0 14.9082,-9.60742 225,225 0 0 0 15.47656,-13.27149 225,225 0 0 0 8.23633,-7.06054 l 0.0156,-0.01 a 25,25 0 0 0 0.8457,-0.80859 l 0.043,-0.0371 a 225,225 0 0 0 0.0176,-318.17773 l -0.0176,-0.0195 v -0.002 a 25,25 0 0 0 -1.56445,-1.35351 25,25 0 0 0 -1.13672,-0.98438 225,225 0 0 0 -110.81446,-58.69922 l -0.72265,-0.10547 a 225,225 0 0 0 -30.66797,-4.1289 225,225 0 0 0 -1.9375,-0.006 225,225 0 0 0 -27.62109,-0.0762 z M 250,250 a 175,175 0 0 1 123.74414,51.25586 175,175 0 0 1 0,247.48828 175,175 0 0 1 -96.36719,49.10156 175,175 0 0 1 -151.12109,-49.10156 175,175 0 0 1 0,-247.48828 175,175 0 0 1 20.88086,-17.83398 A 175,175 0 0 1 250,250 Z m 0,-50 a 25,25 0 0 0 -25,25 25,25 0 0 0 25,25 A 175,175 0 0 1 425,425 175,175 0 0 1 250,600 175,175 0 0 1 75,425 25,25 0 0 0 50,400 25,25 0 0 0 25,425 25,25 0 0 0 25.255859,428.5625 225,225 0 0 0 250,650 225,225 0 0 0 475,425 225,225 0 0 0 251.24414,200.03125 l -0.0176,-0.002 A 25,25 0 0 0 250,200 Z m 0,100 A 125,125 0 0 0 125,425 125,125 0 0 0 250,550 125,125 0 0 0 375,425 125,125 0 0 0 250,300 Z m 0,50 a 75,75 0 0 1 75,75 75,75 0 0 1 -75,75 75,75 0 0 1 -75,-75 75,75 0 0 1 75,-75 z M 104.66797,258.88672 a 25,25 0 0 0 -13.767579,7.01367 25,25 0 0 0 0,35.35547 L 373.74414,584.09961 a 25,25 0 0 0 35.35547,0 25,25 0 0 0 0,-35.35547 L 126.25586,265.90039 a 25,25 0 0 0 -21.58789,-7.01367 z M 250,200 a 25,25 0 0 0 -3.5625,0.25586 A 225,225 0 0 0 25,425 225,225 0 0 0 250,650 225,225 0 0 0 474.96875,426.24414 l 0.002,-0.0176 A 25,25 0 0 0 475,425 25,25 0 0 0 450,400 25,25 0 0 0 425,425 175,175 0 0 1 250,600 175,175 0 0 1 75,425 175,175 0 0 1 250,250 25,25 0 0 0 275,225 25,25 0 0 0 250,200 Z M 0,0 a 225,225 0 0 0 -31.94336,2.28516 225,225 0 0 0 -18.52539,4.01757 225,225 0 0 0 -12.74805,2.77344 225,225 0 0 0 -20.67773,7.68555 225,225 0 0 0 -9.32617,3.47851 225,225 0 0 0 -18.84571,10.24805 225,225 0 0 0 -9.28906,5.07227 225,225 0 0 0 -17.00976,12.67578 225,225 0 0 0 -8.6543,6.47851 225,225 0 0 0 -15.49414,15.41211 225,225 0 0 0 -7.17774,7.17774 225,225 0 0 0 -13.16406,17.46679 225,225 0 0 0 -6.08594,8.13086 225,225 0 0 0 -10.48046,19.02344 225,225 0 0 0 -4.93946,9.04297 225,225 0 0 0 -7.63086,20.19727 225,225 0 0 0 -3.64648,9.77539 225,225 0 0 0 -4.55078,20.45507 225,225 0 0 0 -2.35938,10.84375 225,225 0 0 0 -1.57422,20.51172 A 225,225 0 0 0 -225,225 a 25,25 0 0 0 25,25 25,25 0 0 0 25,-25 175,175 0 0 1 2.1543,-27.37695 A 175,175 0 0 1 0,50 a 175,175 0 0 1 175,175 25,25 0 0 0 25,25 25,25 0 0 0 25,-25 25,25 0 0 0 -0.25586,-3.5625 A 225,225 0 0 0 0,0 Z M 250,200 A 225,225 0 0 0 25.03125,423.75586 l -0.002,0.0176 A 25,25 0 0 0 25,425 25,25 0 0 0 50,450 25,25 0 0 0 75,425 175,175 0 0 1 250,250 175,175 0 0 1 425,425 175,175 0 0 1 250,600 a 25,25 0 0 0 -25,25 25,25 0 0 0 25,25 25,25 0 0 0 3.5625,-0.25586 A 225,225 0 0 0 475,425 225,225 0 0 0 250,200 Z m -145.33203,58.88672 a 25,25 0 0 0 -13.767579,7.01367 25,25 0 0 0 0,35.35547 L 373.74414,584.09961 a 25,25 0 0 0 35.35547,0 25,25 0 0 0 0,-35.35547 L 126.25586,265.90039 a 25,25 0 0 0 -21.58789,-7.01367 z M 250,200 a 25,25 0 0 0 -25,25 25,25 0 0 0 25,25 A 175,175 0 0 1 425,425 175,175 0 0 1 250,600 175,175 0 0 1 75,425 25,25 0 0 0 50,400 25,25 0 0 0 25,425 25,25 0 0 0 25.255859,428.5625 225,225 0 0 0 250,650 225,225 0 0 0 475,425 225,225 0 0 0 251.24414,200.03125 l -0.0176,-0.002 A 25,25 0 0 0 250,200 Z m -16.05078,0.57227 A 225,225 0 0 0 90.902344,265.90039 225,225 0 0 0 90.044922,583.19531 l 0.0098,0.0156 a 25,25 0 0 0 0.847656,0.88672 l -0.002,0.002 a 25,25 0 0 0 35.355469,0 25,25 0 0 0 0,-35.35547 175,175 0 0 1 0,-247.48828 175,175 0 0 1 247.48828,0 175,175 0 0 1 0,247.48828 25,25 0 0 0 0,35.35547 25,25 0 0 0 35.35547,0 25,25 0 0 0 2.33789,-2.70117 225,225 0 0 0 -2.33789,-315.49805 225,225 0 0 0 -175.15039,-65.32812 z M -143.20508,58.642578 a 25,25 0 0 0 -15.89453,7.257813 25,25 0 0 0 0,35.355469 l 141.42188,141.42187 0.04492,-0.0449 A 25,25 0 0 0 0,250 25,25 0 0 0 25,225 25,25 0 0 0 17.67773,207.32227 L -123.74414,65.900391 a 25,25 0 0 0 -19.46094,-7.257813 z M 104.66797,258.88672 a 25,25 0 0 0 -13.767579,7.01367 25,25 0 0 0 0,35.35547 L 373.74414,584.09961 a 25,25 0 0 0 35.35547,0 25,25 0 0 0 0,-35.35547 L 126.25586,265.90039 a 25,25 0 0 0 -21.58789,-7.01367 z m 3.91015,-0.3086 a 25,25 0 0 0 -17.677729,7.32227 25,25 0 0 0 -2.337891,2.70117 225,225 0 0 0 2.337891,315.49805 225,225 0 0 0 318.197269,0 225,225 0 0 0 0.85742,-317.29492 l -0.01,-0.0156 a 25,25 0 0 0 -0.84765,-0.88672 l 0.002,-0.002 a 25,25 0 0 0 -35.35547,0 25,25 0 0 0 0,35.35547 175,175 0 0 1 0,247.48828 175,175 0 0 1 -247.48828,0 175,175 0 0 1 0,-247.48828 25,25 0 0 0 0,-35.35547 25,25 0 0 0 -17.67774,-7.32227 z m -3.91015,0.3086 a 25,25 0 0 0 -13.767579,7.01367 25,25 0 0 0 0,35.35547 L 373.74414,584.09961 a 25,25 0 0 0 35.35547,0 25,25 0 0 0 0,-35.35547 L 126.25586,265.90039 a 25,25 0 0 0 -21.58789,-7.01367 z m 129.9668,-58.33984 A 225,225 0 0 0 91.804688,265.04492 l -0.01563,0.01 a 25,25 0 0 0 -0.886718,0.84765 l -0.002,-0.002 a 25,25 0 0 0 0,35.35547 25,25 0 0 0 35.355469,0 175,175 0 0 1 247.48828,0 175,175 0 0 1 0,247.48828 175,175 0 0 1 -247.48828,0 25,25 0 0 0 -35.355469,0 25,25 0 0 0 0,35.35547 25,25 0 0 0 2.701171,2.33789 225,225 0 0 0 315.498048,-2.33789 225,225 0 0 0 0,-318.19727 225,225 0 0 0 -174.46484,-65.35546 z m -129.9668,58.33984 a 25,25 0 0 0 -13.767579,7.01367 25,25 0 0 0 0,35.35547 L 373.74414,584.09961 a 25,25 0 0 0 35.35547,0 25,25 0 0 0 0,-35.35547 L 126.25586,265.90039 a 25,25 0 0 0 -21.58789,-7.01367 z m 159.38672,-58.27734 a 225,225 0 0 0 -173.154299,65.29101 225,225 0 0 0 0,318.19727 225,225 0 0 0 317.294919,0.85742 l 0.0156,-0.01 a 25,25 0 0 0 0.88672,-0.84765 l 0.002,0.002 a 25,25 0 0 0 0,-35.35547 25,25 0 0 0 -35.35547,0 175,175 0 0 1 -247.48828,0 175,175 0 0 1 0,-247.48828 175,175 0 0 1 247.48828,0 25,25 0 0 0 35.35547,0 25,25 0 0 0 0,-35.35547 25,25 0 0 0 -2.70117,-2.33789 225,225 0 0 0 -142.34375,-62.95312 z M 0,0 a 225,225 0 0 0 -31.94336,2.28516 225,225 0 0 0 -18.52539,4.01757 225,225 0 0 0 -12.74805,2.77344 225,225 0 0 0 -20.67773,7.68555 225,225 0 0 0 -9.32617,3.47851 225,225 0 0 0 -18.84571,10.24805 225,225 0 0 0 -9.28906,5.07227 225,225 0 0 0 -17.00976,12.67578 225,225 0 0 0 -8.6543,6.47851 225,225 0 0 0 -8.08984,8.04688 25,25 0 0 0 -3.99024,3.13867 25,25 0 0 0 -2.69141,3.50781 225,225 0 0 0 -0.72265,0.71875 225,225 0 0 0 -7.17774,7.17774 225,225 0 0 0 -13.16406,17.46679 225,225 0 0 0 -6.08594,8.13086 225,225 0 0 0 -10.48046,19.02344 225,225 0 0 0 -4.93946,9.04297 225,225 0 0 0 -7.63086,20.19727 225,225 0 0 0 -3.64648,9.77539 225,225 0 0 0 -4.55078,20.45507 225,225 0 0 0 -2.35938,10.84375 225,225 0 0 0 -1.57422,20.51172 A 225,225 0 0 0 -225,225 a 25,25 0 0 0 25,25 25,25 0 0 0 25,-25 175,175 0 0 1 2.1543,-27.37695 175,175 0 0 1 32.99804,-77.11524 l 122.16993,122.16992 0.04492,-0.0449 A 25,25 0 0 0 0,250 25,25 0 0 0 25,225 25,25 0 0 0 17.67773,207.32227 L -104.48633,85.1582 A 175,175 0 0 1 0,50 a 175,175 0 0 1 175,175 25,25 0 0 0 25,25 25,25 0 0 0 25,-25 25,25 0 0 0 -0.25586,-3.5625 A 225,225 0 0 0 0,0 Z m 250,200 a 25,25 0 0 0 -25,25 25,25 0 0 0 25,25 175,175 0 0 1 116.61133,44.51172 175,175 0 0 1 7.13281,6.74414 A 175,175 0 0 1 424.72461,415.1875 175,175 0 0 1 425,425 a 25,25 0 0 0 25,25 25,25 0 0 0 25,-25 25,25 0 0 0 -0.25586,-3.5625 225,225 0 0 0 -36.85937,-119.87695 l -0.31446,-0.42188 a 225,225 0 0 0 -18.90039,-24.7832 225,225 0 0 0 -1.04492,-1.04883 225,225 0 0 0 -21.49023,-21.17578 225,225 0 0 0 -2.66016,-2.00391 225,225 0 0 0 -22.75586,-16.82812 225,225 0 0 0 -5.09766,-2.8086 225,225 0 0 0 -22.72851,-12.28125 225,225 0 0 0 -8.25196,-3.11718 225,225 0 0 0 -21.38085,-7.90625 225,225 0 0 0 -13.08008,-2.91211 225,225 0 0 0 -17.82031,-3.85352 225,225 0 0 0 -19.57227,-1.50195 A 225,225 0 0 0 250,200 Z M 108.578,541.422 a 25,25 0 0 0 -17.678,7.322 25,25 0 0 0 -0.006,35.348 l 0.006,0.006 a 225,225 0 0 0 1.565,1.355 25,25 0 0 0 1.137,0.985 225,225 0 0 0 110.814,58.699 l 0.723,0.105 a 225,225 0 0 0 30.668,4.13 225,225 0 0 0 1.937,0.005 225,225 0 0 0 29.736,-0.22 225,225 0 0 0 3.442,-0.485 225,225 0 0 0 27.844,-4.168 225,225 0 0 0 5.867,-1.699 225,225 0 0 0 24.467,-7.3 225,225 0 0 0 8.435,-3.81 225,225 0 0 0 20.326,-9.351 225,225 0 0 0 11.713,-7.45 225,225 0 0 0 14.908,-9.607 225,225 0 0 0 15.477,-13.271 225,225 0 0 0 9.098,-7.879 l 0.04,-0.04 0.003,0.003 a 25,25 0 0 0 0,-35.356 25,25 0 0 0 -35.356,0 175,175 0 0 1 -96.367,49.102 175,175 0 0 1 -151.121,-49.102 25,25 0 0 0 -17.678,-7.322 z M 262.256,200.623 a 225,225 0 0 0 -29.736,0.22 225,225 0 0 0 -3.442,0.485 225,225 0 0 0 -27.844,4.168 225,225 0 0 0 -5.867,1.7 225,225 0 0 0 -24.467,7.3 225,225 0 0 0 -8.435,3.809 225,225 0 0 0 -20.326,9.351 225,225 0 0 0 -11.713,7.45 225,225 0 0 0 -14.908,9.607 225,225 0 0 0 -15.477,13.271 225,225 0 0 0 -9.098,7.88 l -0.04,0.038 L 90.9,265.9 a 25,25 0 0 0 0,35.356 25,25 0 0 0 35.356,0 175,175 0 0 1 20.88,-17.834 175,175 0 0 1 226.608,17.834 25,25 0 0 0 35.356,0 25,25 0 0 0 0.017,-35.334 l -0.017,-0.02 a 225,225 0 0 0 -1.565,-1.355 25,25 0 0 0 -1.137,-0.984 225,225 0 0 0 -110.814,-58.7 l -0.723,-0.105 a 225,225 0 0 0 -30.668,-4.13 225,225 0 0 0 -1.937,-0.005 z M 250,100 c -47.929,0.306 -80.31967,28.72833 -88.38867,36.61133 -9.763,9.763 -9.763,25.59247 0,35.35547 9.763,9.763 25.59247,9.763 35.35547,0 l 0.20117,0.20117 A 75,75 0 0 1 250,150 c 41.421,0 75,33.579 75,75 v 400 c 0,41.421 -33.579,75 -75,75 a 75,75 0 0 1 -52.83203,-22.16797 l -0.20117,0.20117 c -9.763,-9.763 -25.59247,-9.763 -35.35547,0 -9.763,9.763 -9.763,25.59247 0,35.35547 C 169.69933,721.28867 202.086,749.694 250,750 318.173,750 373.49609,695.39964 374.87109,627.55664 374.88909,626.69664 375,625.863 375,625 V 225 c 0,-0.863 -0.11091,-1.69764 -0.12891,-2.55664 C 373.49609,154.60036 318.173,100 250,100 Z M 104.66797,258.88672 a 25,25 0 0 0 -13.767579,7.01367 25,25 0 0 0 0,35.35547 L 373.74414,584.09961 a 25,25 0 0 0 35.35547,0 25,25 0 0 0 0,-35.35547 L 126.25586,265.90039 a 25,25 0 0 0 -21.58789,-7.01367 z M 250,100 C 181.827,100 126.50391,154.60036 125.12891,222.44336 125.04291,223.28403 125,224.136 125,225 v 400 c 0,0.86333 0.0429,1.71531 0.12891,2.55664 C 126.50391,695.39964 181.827,750 250,750 c 47.929,-0.306 80.31967,-28.72833 88.38867,-36.61133 9.763,-9.763 9.763,-25.59247 0,-35.35547 -9.763,-9.763 -25.59247,-9.763 -35.35547,0 l -0.20117,-0.20117 A 75,75 0 0 1 250,700 c -41.421,0 -75,-33.579 -75,-75 V 225 c 0,-41.421 33.579,-75 75,-75 a 75,75 0 0 1 52.83203,22.16797 l 0.20117,-0.20117 c 9.763,9.763 25.59247,9.763 35.35547,0 9.763,-9.763 9.763,-25.59247 0,-35.35547 C 330.29967,128.71133 297.914,100.306 250,100 Z M 104.66797,258.88672 a 25,25 0 0 0 -13.767579,7.01367 25,25 0 0 0 0,35.35547 L 373.74414,584.09961 a 25,25 0 0 0 35.35547,0 25,25 0 0 0 0,-35.35547 L 126.25586,265.90039 a 25,25 0 0 0 -21.58789,-7.01367 z M 250,200 a 25,25 0 0 0 -3.5625,0.25586 A 225,225 0 0 0 25,425 225,225 0 0 0 250,650 225,225 0 0 0 474.96875,426.24414 l 0.002,-0.0176 A 25,25 0 0 0 475,425 25,25 0 0 0 450,400 25,25 0 0 0 425,425 175,175 0 0 1 250,600 175,175 0 0 1 75,425 175,175 0 0 1 250,250 25,25 0 0 0 275,225 25,25 0 0 0 250,200 Z m 0,100 A 125,125 0 0 0 125,425 125,125 0 0 0 250,550 125,125 0 0 0 375,425 125,125 0 0 0 250,300 Z m 0,50 a 75,75 0 0 1 75,75 75,75 0 0 1 -75,75 75,75 0 0 1 -75,-75 75,75 0 0 1 75,-75 z M 104.66797,258.88672 a 25,25 0 0 0 -13.767579,7.01367 25,25 0 0 0 0,35.35547 L 373.74414,584.09961 a 25,25 0 0 0 35.35547,0 25,25 0 0 0 0,-35.35547 L 126.25586,265.90039 a 25,25 0 0 0 -21.58789,-7.01367 z m 129.9668,-58.33984 A 225,225 0 0 0 91.804688,265.04492 l -0.01563,0.01 a 25,25 0 0 0 -0.886718,0.84765 l -0.002,-0.002 a 25,25 0 0 0 0,35.35547 25,25 0 0 0 35.355469,0 175,175 0 0 1 247.48828,0 175,175 0 0 1 0,247.48828 175,175 0 0 1 -247.48828,0 25,25 0 0 0 -35.355469,0 25,25 0 0 0 0,35.35547 25,25 0 0 0 2.701171,2.33789 225,225 0 0 0 315.498048,-2.33789 225,225 0 0 0 0,-318.19727 225,225 0 0 0 -174.46484,-65.35546 z m -129.9668,58.33984 a 25,25 0 0 0 -13.767579,7.01367 25,25 0 0 0 0,35.35547 L 373.74414,584.09961 a 25,25 0 0 0 35.35547,0 25,25 0 0 0 0,-35.35547 L 126.25586,265.90039 a 25,25 0 0 0 -21.58789,-7.01367 z M 250,200 A 225,225 0 0 0 25.03125,423.75586 l -0.002,0.0176 A 25,25 0 0 0 25,425 25,25 0 0 0 50,450 25,25 0 0 0 75,425 175,175 0 0 1 250,250 175,175 0 0 1 425,425 175,175 0 0 1 250,600 a 25,25 0 0 0 -25,25 25,25 0 0 0 25,25 25,25 0 0 0 3.5625,-0.25586 A 225,225 0 0 0 475,425 225,225 0 0 0 250,200 Z m -450,400 a 25,25 0 0 0 -25,25 25,25 0 0 0 0.25586,3.5625 A 225,225 0 0 0 0,850 a 225,225 0 0 0 31.94336,-2.28516 225,225 0 0 0 18.52539,-4.01757 225,225 0 0 0 12.74805,-2.77344 225,225 0 0 0 20.67773,-7.68555 225,225 0 0 0 9.32617,-3.47851 225,225 0 0 0 18.84571,-10.24805 225,225 0 0 0 9.28906,-5.07227 225,225 0 0 0 17.00976,-12.67578 225,225 0 0 0 8.6543,-6.47851 225,225 0 0 0 15.49414,-15.41211 225,225 0 0 0 7.17774,-7.17774 225,225 0 0 0 13.16406,-17.46679 225,225 0 0 0 6.08594,-8.13086 225,225 0 0 0 10.48047,-19.02344 225,225 0 0 0 4.93945,-9.04297 225,225 0 0 0 7.63086,-20.19727 225,225 0 0 0 3.64648,-9.77539 225,225 0 0 0 4.55078,-20.45507 225,225 0 0 0 2.35938,-10.84375 225,225 0 0 0 1.57422,-20.51172 A 225,225 0 0 0 225,625 225,225 0 0 0 224.74609,621.44141 25,25 0 0 0 200,600 25,25 0 0 0 175,625 175,175 0 0 1 27.37695,797.8457 175,175 0 0 1 0,800 175,175 0 0 1 -175,625 25,25 0 0 0 -200,600 Z M 104.66797,258.88672 a 25,25 0 0 0 -13.767579,7.01367 25,25 0 0 0 0,35.35547 L 373.74414,584.09961 a 25,25 0 0 0 35.35547,0 25,25 0 0 0 0,-35.35547 L 126.25586,265.90039 a 25,25 0 0 0 -21.58789,-7.01367 z M 233.94922,200.57227 A 225,225 0 0 0 90.902344,265.90039 225,225 0 0 0 90.044922,583.19531 l 0.0098,0.0156 a 25,25 0 0 0 0.847656,0.88672 l -0.002,0.002 a 25,25 0 0 0 35.355469,0 25,25 0 0 0 0,-35.35547 175,175 0 0 1 0,-247.48828 175,175 0 0 1 247.48828,0 175,175 0 0 1 0,247.48828 25,25 0 0 0 0,35.35547 25,25 0 0 0 35.35547,0 25,25 0 0 0 2.33789,-2.70117 225,225 0 0 0 -2.33789,-315.49805 225,225 0 0 0 -175.15039,-65.32812 z M 0,600 a 25,25 0 0 0 -25,25 25,25 0 0 0 7.36719,17.63281 l -0.04492,0.0449 141.42187,141.42188 a 25,25 0 0 0 35.35547,0 25,25 0 0 0 0,-35.35547 L 17.67773,607.32227 A 25,25 0 0 0 0,600 Z M 108.57812,258.57812 a 25,25 0 0 0 -17.677729,7.32227 25,25 0 0 0 -2.337891,2.70117 225,225 0 0 0 2.337891,315.49805 225,225 0 0 0 318.197269,0 225,225 0 0 0 0.85742,-317.29492 l -0.01,-0.0156 a 25,25 0 0 0 -0.84765,-0.88672 l 0.002,-0.002 a 25,25 0 0 0 -35.35547,0 25,25 0 0 0 0,35.35547 175,175 0 0 1 0,247.48828 175,175 0 0 1 -247.48828,0 175,175 0 0 1 0,-247.48828 25,25 0 0 0 0,-35.35547 25,25 0 0 0 -17.67774,-7.32227 z M 250,200 a 25,25 0 0 0 -3.5625,0.25586 A 225,225 0 0 0 25,425 225,225 0 0 0 250,650 225,225 0 0 0 474.96875,426.24414 l 0.002,-0.0176 A 25,25 0 0 0 475,425 25,25 0 0 0 450,400 25,25 0 0 0 425,425 175,175 0 0 1 250,600 175,175 0 0 1 75,425 175,175 0 0 1 250,250 25,25 0 0 0 275,225 25,25 0 0 0 250,200 Z m -15.36523,0.54688 a 225,225 0 0 0 -2.11524,0.29687 225,225 0 0 0 -3.44141,0.48437 225,225 0 0 0 -27.84374,4.16797 225,225 0 0 0 -5.86719,1.69922 225,225 0 0 0 -24.4668,7.30078 225,225 0 0 0 -8.43555,3.8086 225,225 0 0 0 -20.32617,9.35156 225,225 0 0 0 -11.71289,7.44922 225,225 0 0 0 -14.9082,9.60742 225,225 0 0 0 -15.47656,13.27149 225,225 0 0 0 -8.236332,7.06054 l -0.01563,0.01 a 25,25 0 0 0 -0.845703,0.80859 l -0.04297,0.0371 a 225,225 0 0 0 -0.0059,318.19141 l 0.0059,0.006 v 0.002 a 25,25 0 0 0 1.564453,1.35351 25,25 0 0 0 1.136718,0.98438 225,225 0 0 0 110.814458,58.69922 l 0.72265,0.10547 a 225,225 0 0 0 30.66797,4.1289 225,225 0 0 0 1.9375,0.006 225,225 0 0 0 29.73633,-0.2207 225,225 0 0 0 3.44141,-0.48437 225,225 0 0 0 27.84374,-4.16797 225,225 0 0 0 5.86719,-1.69922 225,225 0 0 0 24.4668,-7.30078 225,225 0 0 0 8.43555,-3.8086 225,225 0 0 0 20.32617,-9.35156 225,225 0 0 0 11.71289,-7.44922 225,225 0 0 0 14.9082,-9.60742 225,225 0 0 0 15.47656,-13.27149 225,225 0 0 0 8.23633,-7.06054 l 0.0156,-0.01 a 25,25 0 0 0 0.8457,-0.80859 l 0.043,-0.0371 a 225,225 0 0 0 0.0176,-318.17773 l -0.0176,-0.0195 v -0.002 a 25,25 0 0 0 -1.56445,-1.35351 25,25 0 0 0 -1.13672,-0.98438 225,225 0 0 0 -110.81446,-58.69922 l -0.72265,-0.10547 a 225,225 0 0 0 -30.66797,-4.1289 225,225 0 0 0 -1.9375,-0.006 225,225 0 0 0 -27.62109,-0.0762 z M 250,250 a 175,175 0 0 1 123.74414,51.25586 175,175 0 0 1 0,247.48828 175,175 0 0 1 -96.36719,49.10156 175,175 0 0 1 -151.12109,-49.10156 175,175 0 0 1 0,-247.48828 175,175 0 0 1 20.88086,-17.83398 A 175,175 0 0 1 250,250 Z M 234.63477,200.54688 A 225,225 0 0 0 91.804688,265.04492 l -0.01563,0.01 a 25,25 0 0 0 -0.886718,0.84765 l -0.002,-0.002 a 25,25 0 0 0 0,35.35547 25,25 0 0 0 35.355469,0 175,175 0 0 1 247.48828,0 175,175 0 0 1 0,247.48828 175,175 0 0 1 -247.48828,0 25,25 0 0 0 -35.355469,0 25,25 0 0 0 0,35.35547 25,25 0 0 0 2.701171,2.33789 225,225 0 0 0 315.498048,-2.33789 225,225 0 0 0 0,-318.19727 225,225 0 0 0 -174.46484,-65.35546 z m 29.41992,0.0625 a 225,225 0 0 0 -173.154299,65.29101 225,225 0 0 0 0,318.19727 225,225 0 0 0 317.294919,0.85742 l 0.0156,-0.01 a 25,25 0 0 0 0.88672,-0.84765 l 0.002,0.002 a 25,25 0 0 0 0,-35.35547 25,25 0 0 0 -35.35547,0 175,175 0 0 1 -247.48828,0 175,175 0 0 1 0,-247.48828 175,175 0 0 1 247.48828,0 25,25 0 0 0 35.35547,0 25,25 0 0 0 0,-35.35547 25,25 0 0 0 -2.70117,-2.33789 225,225 0 0 0 -142.34375,-62.95312 z M -200,600 a 25,25 0 0 0 -25,25 25,25 0 0 0 0.25586,3.5625 A 225,225 0 0 0 0,850 a 225,225 0 0 0 31.94336,-2.28516 225,225 0 0 0 18.52539,-4.01757 225,225 0 0 0 12.74805,-2.77344 225,225 0 0 0 20.67773,-7.68555 225,225 0 0 0 9.32617,-3.47851 225,225 0 0 0 18.84571,-10.24805 225,225 0 0 0 9.28906,-5.07227 225,225 0 0 0 17.00976,-12.67578 225,225 0 0 0 8.6543,-6.47851 225,225 0 0 0 8.42774,-8.38282 25,25 0 0 0 3.65234,-2.80273 25,25 0 0 0 3.30859,-4.12305 225,225 0 0 0 0.10547,-0.10351 225,225 0 0 0 7.17774,-7.17774 225,225 0 0 0 13.16406,-17.46679 225,225 0 0 0 6.08594,-8.13086 225,225 0 0 0 10.48047,-19.02344 225,225 0 0 0 4.93945,-9.04297 225,225 0 0 0 7.63086,-20.19727 225,225 0 0 0 3.64648,-9.77539 225,225 0 0 0 4.55078,-20.45507 225,225 0 0 0 2.35938,-10.84375 225,225 0 0 0 1.57422,-20.51172 A 225,225 0 0 0 225,625 225,225 0 0 0 224.74609,621.44141 25,25 0 0 0 200,600 25,25 0 0 0 175,625 175,175 0 0 1 140.12305,729.76758 L 17.67773,607.32227 A 25,25 0 0 0 0,600 a 25,25 0 0 0 -25,25 25,25 0 0 0 7.36719,17.63281 l -0.04492,0.0449 122.47265,122.47266 A 175,175 0 0 1 27.37695,797.8457 175,175 0 0 1 0,800 175,175 0 0 1 -175,625 25,25 0 0 0 -200,600 Z M 104.66797,258.88672 a 25,25 0 0 0 -13.767579,7.01367 25,25 0 0 0 0,35.35547 L 373.74414,584.09961 a 25,25 0 0 0 35.35547,0 25,25 0 0 0 0,-35.35547 L 126.25586,265.90039 a 25,25 0 0 0 -21.58789,-7.01367 z M 250,200 A 225,225 0 0 0 25,425 225,225 0 0 0 248.75586,649.96875 l 0.0176,0.002 A 25,25 0 0 0 250,650 25,25 0 0 0 275,625 25,25 0 0 0 250,600 175,175 0 0 1 75,425 175,175 0 0 1 250,250 a 175,175 0 0 1 175,175 25,25 0 0 0 25,25 25,25 0 0 0 25,-25 25,25 0 0 0 -0.25586,-3.5625 A 225,225 0 0 0 250,200 Z m 0,0 A 225,225 0 0 0 25,425 225,225 0 0 0 248.75586,649.96875 l 0.0176,0.002 A 25,25 0 0 0 250,650 25,25 0 0 0 275,625 25,25 0 0 0 250,600 175,175 0 0 1 75,425 175,175 0 0 1 250,250 a 175,175 0 0 1 175,175 25,25 0 0 0 25,25 25,25 0 0 0 25,-25 25,25 0 0 0 -0.25586,-3.5625 A 225,225 0 0 0 250,200 Z m -145.33203,58.88672 a 25,25 0 0 0 -13.767579,7.01367 25,25 0 0 0 0,35.35547 L 373.74414,584.09961 a 25,25 0 0 0 35.35547,0 25,25 0 0 0 0,-35.35547 L 126.25586,265.90039 a 25,25 0 0 0 -21.58789,-7.01367 z m 129.9668,-58.33984 a 225,225 0 0 0 -2.11524,0.29687 225,225 0 0 0 -3.44141,0.48437 225,225 0 0 0 -27.84374,4.16797 225,225 0 0 0 -5.86719,1.69922 225,225 0 0 0 -24.4668,7.30078 225,225 0 0 0 -8.43555,3.8086 225,225 0 0 0 -20.32617,9.35156 225,225 0 0 0 -11.71289,7.44922 225,225 0 0 0 -14.9082,9.60742 225,225 0 0 0 -15.47656,13.27149 225,225 0 0 0 -8.236332,7.06054 l -0.01563,0.01 a 25,25 0 0 0 -0.845703,0.80859 l -0.04297,0.0371 a 225,225 0 0 0 -0.0059,318.19141 l 0.0059,0.006 v 0.002 a 25,25 0 0 0 1.564453,1.35351 25,25 0 0 0 1.136718,0.98438 225,225 0 0 0 110.814458,58.69922 l 0.72265,0.10547 a 225,225 0 0 0 30.66797,4.1289 225,225 0 0 0 1.9375,0.006 225,225 0 0 0 29.73633,-0.2207 225,225 0 0 0 3.44141,-0.48437 225,225 0 0 0 27.84374,-4.16797 225,225 0 0 0 5.86719,-1.69922 225,225 0 0 0 24.4668,-7.30078 225,225 0 0 0 8.43555,-3.8086 225,225 0 0 0 20.32617,-9.35156 225,225 0 0 0 11.71289,-7.44922 225,225 0 0 0 14.9082,-9.60742 225,225 0 0 0 15.47656,-13.27149 225,225 0 0 0 8.23633,-7.06054 l 0.0156,-0.01 a 25,25 0 0 0 0.8457,-0.80859 l 0.043,-0.0371 a 225,225 0 0 0 0.0176,-318.17773 l -0.0176,-0.0195 v -0.002 a 25,25 0 0 0 -1.56445,-1.35351 25,25 0 0 0 -1.13672,-0.98438 225,225 0 0 0 -110.81446,-58.69922 l -0.72265,-0.10547 a 225,225 0 0 0 -30.66797,-4.1289 225,225 0 0 0 -1.9375,-0.006 225,225 0 0 0 -27.62109,-0.0762 z M 250,250 a 175,175 0 0 1 123.74414,51.25586 175,175 0 0 1 0,247.48828 175,175 0 0 1 -96.36719,49.10156 175,175 0 0 1 -151.12109,-49.10156 175,175 0 0 1 0,-247.48828 175,175 0 0 1 20.88086,-17.83398 A 175,175 0 0 1 250,250 Z m 0,-50 a 25,25 0 0 0 -25,25 25,25 0 0 0 25,25 A 175,175 0 0 1 425,425 175,175 0 0 1 250,600 175,175 0 0 1 75,425 25,25 0 0 0 50,400 25,25 0 0 0 25,425 25,25 0 0 0 25.255859,428.5625 225,225 0 0 0 250,650 225,225 0 0 0 475,425 225,225 0 0 0 251.24414,200.03125 l -0.0176,-0.002 A 25,25 0 0 0 250,200 Z m 0,100 A 125,125 0 0 0 125,425 125,125 0 0 0 250,550 125,125 0 0 0 375,425 125,125 0 0 0 250,300 Z m 0,50 a 75,75 0 0 1 75,75 75,75 0 0 1 -75,75 75,75 0 0 1 -75,-75 75,75 0 0 1 75,-75 z M 104.66797,258.88672 a 25,25 0 0 0 -13.767579,7.01367 25,25 0 0 0 0,35.35547 L 373.74414,584.09961 a 25,25 0 0 0 35.35547,0 25,25 0 0 0 0,-35.35547 L 126.25586,265.90039 a 25,25 0 0 0 -21.58789,-7.01367 z M 250,200 a 25,25 0 0 0 -3.5625,0.25586 A 225,225 0 0 0 25,425 225,225 0 0 0 250,650 225,225 0 0 0 474.96875,426.24414 l 0.002,-0.0176 A 25,25 0 0 0 475,425 25,25 0 0 0 450,400 25,25 0 0 0 425,425 175,175 0 0 1 250,600 175,175 0 0 1 75,425 175,175 0 0 1 250,250 25,25 0 0 0 275,225 25,25 0 0 0 250,200 Z M 0,0 a 225,225 0 0 0 -31.94336,2.28516 225,225 0 0 0 -18.52539,4.01757 225,225 0 0 0 -12.74805,2.77344 225,225 0 0 0 -20.67773,7.68555 225,225 0 0 0 -9.32617,3.47851 225,225 0 0 0 -18.84571,10.24805 225,225 0 0 0 -9.28906,5.07227 225,225 0 0 0 -17.00976,12.67578 225,225 0 0 0 -8.6543,6.47851 225,225 0 0 0 -15.49414,15.41211 225,225 0 0 0 -7.17774,7.17774 225,225 0 0 0 -13.16406,17.46679 225,225 0 0 0 -6.08594,8.13086 225,225 0 0 0 -10.48046,19.02344 225,225 0 0 0 -4.93946,9.04297 225,225 0 0 0 -7.63086,20.19727 225,225 0 0 0 -3.64648,9.77539 225,225 0 0 0 -4.55078,20.45507 225,225 0 0 0 -2.35938,10.84375 225,225 0 0 0 -1.57422,20.51172 A 225,225 0 0 0 -225,225 a 25,25 0 0 0 25,25 25,25 0 0 0 25,-25 175,175 0 0 1 2.1543,-27.37695 A 175,175 0 0 1 0,50 a 175,175 0 0 1 175,175 25,25 0 0 0 25,25 25,25 0 0 0 25,-25 25,25 0 0 0 -0.25586,-3.5625 A 225,225 0 0 0 0,0 Z M 250,200 A 225,225 0 0 0 25.03125,423.75586 l -0.002,0.0176 A 25,25 0 0 0 25,425 25,25 0 0 0 50,450 25,25 0 0 0 75,425 175,175 0 0 1 250,250 175,175 0 0 1 425,425 175,175 0 0 1 250,600 a 25,25 0 0 0 -25,25 25,25 0 0 0 25,25 25,25 0 0 0 3.5625,-0.25586 A 225,225 0 0 0 475,425 225,225 0 0 0 250,200 Z m -145.33203,58.88672 a 25,25 0 0 0 -13.767579,7.01367 25,25 0 0 0 0,35.35547 L 373.74414,584.09961 a 25,25 0 0 0 35.35547,0 25,25 0 0 0 0,-35.35547 L 126.25586,265.90039 a 25,25 0 0 0 -21.58789,-7.01367 z M 250,200 a 25,25 0 0 0 -25,25 25,25 0 0 0 25,25 A 175,175 0 0 1 425,425 175,175 0 0 1 250,600 175,175 0 0 1 75,425 25,25 0 0 0 50,400 25,25 0 0 0 25,425 25,25 0 0 0 25.255859,428.5625 225,225 0 0 0 250,650 225,225 0 0 0 475,425 225,225 0 0 0 251.24414,200.03125 l -0.0176,-0.002 A 25,25 0 0 0 250,200 Z m -16.05078,0.57227 A 225,225 0 0 0 90.902344,265.90039 225,225 0 0 0 90.044922,583.19531 l 0.0098,0.0156 a 25,25 0 0 0 0.847656,0.88672 l -0.002,0.002 a 25,25 0 0 0 35.355469,0 25,25 0 0 0 0,-35.35547 175,175 0 0 1 0,-247.48828 175,175 0 0 1 247.48828,0 175,175 0 0 1 0,247.48828 25,25 0 0 0 0,35.35547 25,25 0 0 0 35.35547,0 25,25 0 0 0 2.33789,-2.70117 225,225 0 0 0 -2.33789,-315.49805 225,225 0 0 0 -175.15039,-65.32812 z M -143.20508,58.642578 a 25,25 0 0 0 -15.89453,7.257813 25,25 0 0 0 0,35.355469 l 141.42188,141.42187 0.04492,-0.0449 A 25,25 0 0 0 0,250 25,25 0 0 0 25,225 25,25 0 0 0 17.67773,207.32227 L -123.74414,65.900391 a 25,25 0 0 0 -19.46094,-7.257813 z M 104.66797,258.88672 a 25,25 0 0 0 -13.767579,7.01367 25,25 0 0 0 0,35.35547 L 373.74414,584.09961 a 25,25 0 0 0 35.35547,0 25,25 0 0 0 0,-35.35547 L 126.25586,265.90039 a 25,25 0 0 0 -21.58789,-7.01367 z m 3.91015,-0.3086 a 25,25 0 0 0 -17.677729,7.32227 25,25 0 0 0 -2.337891,2.70117 225,225 0 0 0 2.337891,315.49805 225,225 0 0 0 318.197269,0 225,225 0 0 0 0.85742,-317.29492 l -0.01,-0.0156 a 25,25 0 0 0 -0.84765,-0.88672 l 0.002,-0.002 a 25,25 0 0 0 -35.35547,0 25,25 0 0 0 0,35.35547 175,175 0 0 1 0,247.48828 175,175 0 0 1 -247.48828,0 175,175 0 0 1 0,-247.48828 25,25 0 0 0 0,-35.35547 25,25 0 0 0 -17.67774,-7.32227 z m -3.91015,0.3086 a 25,25 0 0 0 -13.767579,7.01367 25,25 0 0 0 0,35.35547 L 373.74414,584.09961 a 25,25 0 0 0 35.35547,0 25,25 0 0 0 0,-35.35547 L 126.25586,265.90039 a 25,25 0 0 0 -21.58789,-7.01367 z m 129.9668,-58.33984 A 225,225 0 0 0 91.804688,265.04492 l -0.01563,0.01 a 25,25 0 0 0 -0.886718,0.84765 l -0.002,-0.002 a 25,25 0 0 0 0,35.35547 25,25 0 0 0 35.355469,0 175,175 0 0 1 247.48828,0 175,175 0 0 1 0,247.48828 175,175 0 0 1 -247.48828,0 25,25 0 0 0 -35.355469,0 25,25 0 0 0 0,35.35547 25,25 0 0 0 2.701171,2.33789 225,225 0 0 0 315.498048,-2.33789 225,225 0 0 0 0,-318.19727 225,225 0 0 0 -174.46484,-65.35546 z m -129.9668,58.33984 a 25,25 0 0 0 -13.767579,7.01367 25,25 0 0 0 0,35.35547 L 373.74414,584.09961 a 25,25 0 0 0 35.35547,0 25,25 0 0 0 0,-35.35547 L 126.25586,265.90039 a 25,25 0 0 0 -21.58789,-7.01367 z m 159.38672,-58.27734 a 225,225 0 0 0 -173.154299,65.29101 225,225 0 0 0 0,318.19727 225,225 0 0 0 317.294919,0.85742 l 0.0156,-0.01 a 25,25 0 0 0 0.88672,-0.84765 l 0.002,0.002 a 25,25 0 0 0 0,-35.35547 25,25 0 0 0 -35.35547,0 175,175 0 0 1 -247.48828,0 175,175 0 0 1 0,-247.48828 175,175 0 0 1 247.48828,0 25,25 0 0 0 35.35547,0 25,25 0 0 0 0,-35.35547 25,25 0 0 0 -2.70117,-2.33789 225,225 0 0 0 -142.34375,-62.95312 z M 0,0 a 225,225 0 0 0 -31.94336,2.28516 225,225 0 0 0 -18.52539,4.01757 225,225 0 0 0 -12.74805,2.77344 225,225 0 0 0 -20.67773,7.68555 225,225 0 0 0 -9.32617,3.47851 225,225 0 0 0 -18.84571,10.24805 225,225 0 0 0 -9.28906,5.07227 225,225 0 0 0 -17.00976,12.67578 225,225 0 0 0 -8.6543,6.47851 225,225 0 0 0 -8.08984,8.04688 25,25 0 0 0 -3.99024,3.13867 25,25 0 0 0 -2.69141,3.50781 225,225 0 0 0 -0.72265,0.71875 225,225 0 0 0 -7.17774,7.17774 225,225 0 0 0 -13.16406,17.46679 225,225 0 0 0 -6.08594,8.13086 225,225 0 0 0 -10.48046,19.02344 225,225 0 0 0 -4.93946,9.04297 225,225 0 0 0 -7.63086,20.19727 225,225 0 0 0 -3.64648,9.77539 225,225 0 0 0 -4.55078,20.45507 225,225 0 0 0 -2.35938,10.84375 225,225 0 0 0 -1.57422,20.51172 A 225,225 0 0 0 -225,225 a 25,25 0 0 0 25,25 25,25 0 0 0 25,-25 175,175 0 0 1 2.1543,-27.37695 175,175 0 0 1 32.99804,-77.11524 l 122.16993,122.16992 0.04492,-0.0449 A 25,25 0 0 0 0,250 25,25 0 0 0 25,225 25,25 0 0 0 17.67773,207.32227 L -104.48633,85.1582 A 175,175 0 0 1 0,50 a 175,175 0 0 1 175,175 25,25 0 0 0 25,25 25,25 0 0 0 25,-25 25,25 0 0 0 -0.25586,-3.5625 A 225,225 0 0 0 0,0 Z m 234.63477,200.54688 a 225,225 0 0 0 -2.11524,0.29687 225,225 0 0 0 -3.44141,0.48437 225,225 0 0 0 -27.84374,4.16797 225,225 0 0 0 -5.86719,1.69922 225,225 0 0 0 -24.4668,7.30078 225,225 0 0 0 -8.43555,3.8086 225,225 0 0 0 -20.32617,9.35156 225,225 0 0 0 -11.71289,7.44922 225,225 0 0 0 -14.9082,9.60742 225,225 0 0 0 -15.47656,13.27149 225,225 0 0 0 -8.236332,7.06054 l -0.01563,0.01 a 25,25 0 0 0 -0.845703,0.80859 l -0.04297,0.0371 a 225,225 0 0 0 -0.0059,318.19141 l 0.0059,0.006 v 0.002 a 25,25 0 0 0 1.564453,1.35351 25,25 0 0 0 1.136718,0.98438 225,225 0 0 0 110.814458,58.69922 l 0.72265,0.10547 a 225,225 0 0 0 30.66797,4.1289 225,225 0 0 0 1.9375,0.006 225,225 0 0 0 29.73633,-0.2207 225,225 0 0 0 3.44141,-0.48437 225,225 0 0 0 27.84374,-4.16797 225,225 0 0 0 5.86719,-1.69922 225,225 0 0 0 24.4668,-7.30078 225,225 0 0 0 8.43555,-3.8086 225,225 0 0 0 20.32617,-9.35156 225,225 0 0 0 11.71289,-7.44922 225,225 0 0 0 14.9082,-9.60742 225,225 0 0 0 15.47656,-13.27149 225,225 0 0 0 8.23633,-7.06054 l 0.0156,-0.01 a 25,25 0 0 0 0.8457,-0.80859 l 0.043,-0.0371 a 225,225 0 0 0 0.0176,-318.17773 l -0.0176,-0.0195 v -0.002 a 25,25 0 0 0 -1.56445,-1.35351 25,25 0 0 0 -1.13672,-0.98438 225,225 0 0 0 -110.81446,-58.69922 l -0.72265,-0.10547 a 225,225 0 0 0 -30.66797,-4.1289 225,225 0 0 0 -1.9375,-0.006 225,225 0 0 0 -27.62109,-0.0762 z M 250,250 a 175,175 0 0 1 123.74414,51.25586 175,175 0 0 1 16.35938,228.49219 L 354.20508,493.84961 A 125,125 0 0 0 375,425 125,125 0 0 0 250,300 125,125 0 0 0 181.15039,320.79492 l -35.82617,-35.82617 a 175,175 0 0 1 1.8125,-1.54687 A 175,175 0 0 1 250,250 Z m -140.03125,70.32422 35.82617,35.82617 A 125,125 0 0 0 125,425 125,125 0 0 0 250,550 125,125 0 0 0 318.84961,529.20508 l 35.82617,35.82617 A 175,175 0 0 1 277.37695,597.8457 175,175 0 0 1 126.25586,548.74414 175,175 0 0 1 109.96875,320.32422 Z M 250,350 a 75,75 0 0 1 75,75 75,75 0 0 1 -7.53516,32.10938 L 217.89062,357.53516 A 75,75 0 0 1 250,350 Z m -67.46484,42.89062 99.57422,99.57422 A 75,75 0 0 1 250,500 75,75 0 0 1 175,425 75,75 0 0 1 182.53516,392.89062 Z M 250,200 a 25,25 0 0 0 -25,25 25,25 0 0 0 25,25 25,25 0 0 0 25,-25 25,25 0 0 0 -25,-25 z m 0,200 a 25,25 0 0 0 -25,25 25,25 0 0 0 25,25 25,25 0 0 0 25,-25 25,25 0 0 0 -25,-25 z m 0,200 a 25,25 0 0 0 -25,25 25,25 0 0 0 25,25 25,25 0 0 0 25,-25 25,25 0 0 0 -25,-25 z m 0,-300 c -47.929,0.306 -80.31967,28.72833 -88.38867,36.61133 -9.763,9.763 -9.763,25.59247 0,35.35547 9.763,9.763 25.59247,9.763 35.35547,0 l 0.20117,0.20117 A 75,75 0 0 1 250,350 c 41.421,0 75,33.579 75,75 0,41.421 -33.579,75 -75,75 a 75,75 0 0 1 -52.83203,-22.16797 l -0.20117,0.20117 c -9.763,-9.763 -25.59247,-9.763 -35.35547,0 -9.763,9.763 -9.763,25.59247 0,35.35547 8.088,7.9 40.47467,36.30533 88.38867,36.61133 69.036,0 125,-55.964 125,-125 0,-69.036 -55.964,-125 -125,-125 z m 0,0 c -47.929,0.306 -80.31967,28.72833 -88.38867,36.61133 -9.763,9.763 -9.763,25.59247 0,35.35547 9.763,9.763 25.59247,9.763 35.35547,0 C 210.5388,358.3938 229.289,350 250,350 c 20.711,0 39.4602,8.3938 53.0332,21.9668 9.763,9.763 25.59247,9.763 35.35547,0 9.763,-9.763 9.763,-25.59247 0,-35.35547 C 330.29967,328.71133 297.914,300.306 250,300 Z m -70.71094,170.71094 a 24.92,24.92 0 0 0 -17.67773,7.32226 c -9.763,9.763 -9.763,25.59247 0,35.35547 8.088,7.9 40.47467,36.30533 88.38867,36.61133 47.929,-0.306 80.31967,-28.72833 88.38867,-36.61133 9.763,-9.763 9.763,-25.59247 0,-35.35547 -9.763,-9.763 -25.59247,-9.763 -35.35547,0 C 289.4612,491.6062 270.711,500 250,500 c -20.711,0 -39.4602,-8.3938 -53.0332,-21.9668 a 24.92,24.92 0 0 0 -17.67774,-7.32226 z M 250,300 c -69.036,0 -125,55.964 -125,125 0,69.036 55.964,125 125,125 47.929,-0.306 80.31967,-28.72833 88.38867,-36.61133 9.763,-9.763 9.763,-25.59247 0,-35.35547 -9.763,-9.763 -25.59247,-9.763 -35.35547,0 l -0.20117,-0.20117 A 75,75 0 0 1 250,500 c -41.421,0 -75,-33.579 -75,-75 0,-41.421 33.579,-75 75,-75 a 75,75 0 0 1 52.83203,22.16797 l 0.20117,-0.20117 c 9.763,9.763 25.59247,9.763 35.35547,0 9.763,-9.763 9.763,-25.59247 0,-35.35547 C 330.30067,328.71133 297.914,300.306 250,300 Z m 225,125 a 25,25 0 0 1 -25,25 25,25 0 0 1 -25,-25 25,25 0 0 1 25,-25 25,25 0 0 1 25,25 z m -400,0 a 25,25 0 0 1 -25,25 25,25 0 0 1 -25,-25 25,25 0 0 1 25,-25 25,25 0 0 1 25,25 z m 200,0 a 25,25 0 0 1 -25,25 25,25 0 0 1 -25,-25 25,25 0 0 1 25,-25 25,25 0 0 1 25,25 z M 126.256,265.901 a 25,25 0 0 0 -35.355,0 25,25 0 0 0 0,35.355 L 373.744,584.1 a 25,25 0 0 0 35.355,0 25,25 0 0 0 0,-35.355 z M 275,625 a 25,25 0 0 1 -25,25 25,25 0 0 1 -25,-25 25,25 0 0 1 25,-25 25,25 0 0 1 25,25 z m 0,-400 a 25,25 0 0 1 -25,25 25,25 0 0 1 -25,-25 25,25 0 0 1 25,-25 25,25 0 0 1 25,25 z m 200,200 a 25,25 0 0 1 -25,25 25,25 0 0 1 -25,-25 25,25 0 0 1 25,-25 25,25 0 0 1 25,25 z m -400,0 a 25,25 0 0 1 -25,25 25,25 0 0 1 -25,-25 25,25 0 0 1 25,-25 25,25 0 0 1 25,25 z m 200,0 a 25,25 0 0 1 -25,25 25,25 0 0 1 -25,-25 25,25 0 0 1 25,-25 25,25 0 0 1 25,25 z M 126.256,265.901 a 25,25 0 0 0 -35.355,0 25,25 0 0 0 0,35.355 L 373.744,584.1 a 25,25 0 0 0 35.355,0 25,25 0 0 0 0,-35.355 z M 250,300 A 125,125 0 0 0 125,425 125,125 0 0 0 250,550 125,125 0 0 0 375,425 125,125 0 0 0 250,300 Z m 0,50 a 75,75 0 0 1 75,75 75,75 0 0 1 -75,75 75,75 0 0 1 -75,-75 75,75 0 0 1 75,-75 z m 0,-150 A 225,225 0 0 0 25,425 225,225 0 0 0 248.75586,649.96875 l 0.0176,0.002 A 25,25 0 0 0 250,650 25,25 0 0 0 275,625 25,25 0 0 0 250,600 175,175 0 0 1 75,425 175,175 0 0 1 250,250 a 175,175 0 0 1 175,175 25,25 0 0 0 25,25 25,25 0 0 0 25,-25 25,25 0 0 0 -0.25586,-3.5625 A 225,225 0 0 0 250,200 Z m 0,100 A 125,125 0 0 0 125,425 125,125 0 0 0 250,550 125,125 0 0 0 375,425 125,125 0 0 0 250,300 Z m 0,50 a 75,75 0 0 1 75,75 75,75 0 0 1 -75,75 75,75 0 0 1 -75,-75 75,75 0 0 1 75,-75 z M 233.94922,200.57227 A 225,225 0 0 0 90.902344,265.90039 225,225 0 0 0 90.044922,583.19531 l 0.0098,0.0156 a 25,25 0 0 0 0.847656,0.88672 l -0.002,0.002 a 25,25 0 0 0 35.355469,0 25,25 0 0 0 0,-35.35547 175,175 0 0 1 0,-247.48828 175,175 0 0 1 247.48828,0 175,175 0 0 1 0,247.48828 25,25 0 0 0 0,35.35547 25,25 0 0 0 35.35547,0 25,25 0 0 0 2.33789,-2.70117 225,225 0 0 0 -2.33789,-315.49805 225,225 0 0 0 -175.15039,-65.32812 z M 250,300 A 125,125 0 0 0 125,425 125,125 0 0 0 250,550 125,125 0 0 0 375,425 125,125 0 0 0 250,300 Z m 0,50 a 75,75 0 0 1 75,75 75,75 0 0 1 -75,75 75,75 0 0 1 -75,-75 75,75 0 0 1 75,-75 z m 0,-150 A 225,225 0 0 0 25.03125,423.75586 l -0.002,0.0176 A 25,25 0 0 0 25,425 25,25 0 0 0 50,450 25,25 0 0 0 75,425 175,175 0 0 1 250,250 175,175 0 0 1 425,425 175,175 0 0 1 250,600 a 25,25 0 0 0 -25,25 25,25 0 0 0 25,25 25,25 0 0 0 3.5625,-0.25586 A 225,225 0 0 0 475,425 225,225 0 0 0 250,200 Z m 0,100 A 125,125 0 0 0 125,425 125,125 0 0 0 250,550 125,125 0 0 0 375,425 125,125 0 0 0 250,300 Z m 0,50 a 75,75 0 0 1 75,75 75,75 0 0 1 -75,75 75,75 0 0 1 -75,-75 75,75 0 0 1 75,-75 z m 14.05469,-149.39062 a 225,225 0 0 0 -173.154299,65.29101 225,225 0 0 0 0,318.19727 225,225 0 0 0 317.294919,0.85742 l 0.0156,-0.01 a 25,25 0 0 0 0.88672,-0.84765 l 0.002,0.002 a 25,25 0 0 0 0,-35.35547 25,25 0 0 0 -35.35547,0 175,175 0 0 1 -247.48828,0 175,175 0 0 1 0,-247.48828 175,175 0 0 1 247.48828,0 25,25 0 0 0 35.35547,0 25,25 0 0 0 0,-35.35547 25,25 0 0 0 -2.70117,-2.33789 225,225 0 0 0 -142.34375,-62.95312 z M 250,300 A 125,125 0 0 0 125,425 125,125 0 0 0 250,550 125,125 0 0 0 375,425 125,125 0 0 0 250,300 Z m 0,50 a 75,75 0 0 1 75,75 75,75 0 0 1 -75,75 75,75 0 0 1 -75,-75 75,75 0 0 1 75,-75 z M 234.63477,200.54688 a 225,225 0 0 0 -2.11524,0.29687 225,225 0 0 0 -3.44141,0.48437 225,225 0 0 0 -27.84374,4.16797 225,225 0 0 0 -5.86719,1.69922 225,225 0 0 0 -24.4668,7.30078 225,225 0 0 0 -8.43555,3.8086 225,225 0 0 0 -20.32617,9.35156 225,225 0 0 0 -11.71289,7.44922 225,225 0 0 0 -14.9082,9.60742 225,225 0 0 0 -15.47656,13.27149 225,225 0 0 0 -8.236332,7.06054 l -0.01563,0.01 a 25,25 0 0 0 -0.845703,0.80859 l -0.04297,0.0371 a 225,225 0 0 0 -0.0059,318.19141 l 0.0059,0.006 v 0.002 a 25,25 0 0 0 1.564453,1.35351 25,25 0 0 0 1.136718,0.98438 225,225 0 0 0 110.814458,58.69922 l 0.72265,0.10547 a 225,225 0 0 0 30.66797,4.1289 225,225 0 0 0 1.9375,0.006 225,225 0 0 0 29.73633,-0.2207 225,225 0 0 0 3.44141,-0.48437 225,225 0 0 0 27.84374,-4.16797 225,225 0 0 0 5.86719,-1.69922 225,225 0 0 0 24.4668,-7.30078 225,225 0 0 0 8.43555,-3.8086 225,225 0 0 0 20.32617,-9.35156 225,225 0 0 0 11.71289,-7.44922 225,225 0 0 0 14.9082,-9.60742 225,225 0 0 0 15.47656,-13.27149 225,225 0 0 0 8.23633,-7.06054 l 0.0156,-0.01 a 25,25 0 0 0 0.8457,-0.80859 l 0.043,-0.0371 a 225,225 0 0 0 0.0176,-318.17773 l -0.0176,-0.0195 v -0.002 a 25,25 0 0 0 -1.56445,-1.35351 25,25 0 0 0 -1.13672,-0.98438 225,225 0 0 0 -110.81446,-58.69922 l -0.72265,-0.10547 a 225,225 0 0 0 -30.66797,-4.1289 225,225 0 0 0 -1.9375,-0.006 225,225 0 0 0 -27.62109,-0.0762 z M 250,250 a 175,175 0 0 1 123.74414,51.25586 175,175 0 0 1 0,247.48828 175,175 0 0 1 -96.36719,49.10156 175,175 0 0 1 -151.12109,-49.10156 175,175 0 0 1 0,-247.48828 175,175 0 0 1 20.88086,-17.83398 A 175,175 0 0 1 250,250 Z m 0,50 A 125,125 0 0 0 125,425 125,125 0 0 0 250,550 125,125 0 0 0 375,425 125,125 0 0 0 250,300 Z m 0,50 a 75,75 0 0 1 75,75 75,75 0 0 1 -75,75 75,75 0 0 1 -75,-75 75,75 0 0 1 75,-75 z M 234.63477,200.54688 A 225,225 0 0 0 91.804688,265.04492 l -0.01563,0.01 a 25,25 0 0 0 -0.886718,0.84765 l -0.002,-0.002 a 25,25 0 0 0 0,35.35547 25,25 0 0 0 35.355469,0 175,175 0 0 1 247.48828,0 175,175 0 0 1 0,247.48828 175,175 0 0 1 -247.48828,0 25,25 0 0 0 -35.355469,0 25,25 0 0 0 0,35.35547 25,25 0 0 0 2.701171,2.33789 225,225 0 0 0 315.498048,-2.33789 225,225 0 0 0 0,-318.19727 225,225 0 0 0 -174.46484,-65.35546 z M 250,300 A 125,125 0 0 0 125,425 125,125 0 0 0 250,550 125,125 0 0 0 375,425 125,125 0 0 0 250,300 Z m 0,50 a 75,75 0 0 1 75,75 75,75 0 0 1 -75,75 75,75 0 0 1 -75,-75 75,75 0 0 1 75,-75 z m 0,-150 a 25,25 0 0 0 -3.5625,0.25586 A 225,225 0 0 0 25,425 225,225 0 0 0 250,650 225,225 0 0 0 474.96875,426.24414 l 0.002,-0.0176 A 25,25 0 0 0 475,425 25,25 0 0 0 450,400 25,25 0 0 0 425,425 175,175 0 0 1 250,600 175,175 0 0 1 75,425 175,175 0 0 1 250,250 25,25 0 0 0 275,225 25,25 0 0 0 250,200 Z m 0,100 A 125,125 0 0 0 125,425 125,125 0 0 0 250,550 125,125 0 0 0 375,425 125,125 0 0 0 250,300 Z m 0,50 a 75,75 0 0 1 75,75 75,75 0 0 1 -75,75 75,75 0 0 1 -75,-75 75,75 0 0 1 75,-75 z M 108.57812,258.57812 a 25,25 0 0 0 -17.677729,7.32227 25,25 0 0 0 -2.337891,2.70117 225,225 0 0 0 2.337891,315.49805 225,225 0 0 0 318.197269,0 225,225 0 0 0 0.85742,-317.29492 l -0.01,-0.0156 a 25,25 0 0 0 -0.84765,-0.88672 l 0.002,-0.002 a 25,25 0 0 0 -35.35547,0 25,25 0 0 0 0,35.35547 175,175 0 0 1 0,247.48828 175,175 0 0 1 -247.48828,0 175,175 0 0 1 0,-247.48828 25,25 0 0 0 0,-35.35547 25,25 0 0 0 -17.67774,-7.32227 z M 250,300 A 125,125 0 0 0 125,425 125,125 0 0 0 250,550 125,125 0 0 0 375,425 125,125 0 0 0 250,300 Z m 0,50 a 75,75 0 0 1 75,75 75,75 0 0 1 -75,75 75,75 0 0 1 -75,-75 75,75 0 0 1 75,-75 z m 0,-150 a 25,25 0 0 0 -25,25 25,25 0 0 0 25,25 A 175,175 0 0 1 425,425 175,175 0 0 1 250,600 175,175 0 0 1 75,425 25,25 0 0 0 50,400 25,25 0 0 0 25,425 25,25 0 0 0 25.255859,428.5625 225,225 0 0 0 250,650 225,225 0 0 0 475,425 225,225 0 0 0 251.24414,200.03125 l -0.0176,-0.002 A 25,25 0 0 0 250,200 Z m 0,100 A 125,125 0 0 0 125,425 125,125 0 0 0 250,550 125,125 0 0 0 375,425 125,125 0 0 0 250,300 Z m 0,50 a 75,75 0 0 1 75,75 75,75 0 0 1 -75,75 75,75 0 0 1 -75,-75 75,75 0 0 1 75,-75 z m 137.51172,-91.11328 a 25,25 0 0 0 -13.76758,7.01367 L 90.900391,548.74414 a 25,25 0 0 0 0,35.35547 25,25 0 0 0 35.355469,0 L 409.09961,301.25586 a 25,25 0 0 0 0,-35.35547 25,25 0 0 0 -21.58789,-7.01367 z M 250,200 a 25,25 0 0 0 -25,25 25,25 0 0 0 25,25 25,25 0 0 0 25,-25 25,25 0 0 0 -25,-25 z M 50,400 a 25,25 0 0 0 -25,25 25,25 0 0 0 25,25 25,25 0 0 0 25,-25 25,25 0 0 0 -25,-25 z m 200,0 a 25,25 0 0 0 -25,25 25,25 0 0 0 25,25 25,25 0 0 0 25,-25 25,25 0 0 0 -25,-25 z m 200,0 a 25,25 0 0 0 -25,25 25,25 0 0 0 25,25 25,25 0 0 0 25,-25 25,25 0 0 0 -25,-25 z M 250,600 a 25,25 0 0 0 -25,25 25,25 0 0 0 25,25 25,25 0 0 0 25,-25 25,25 0 0 0 -25,-25 z M 50,400 a 25,25 0 0 0 -25,25 25,25 0 0 0 25,25 h 400 a 25,25 0 0 0 25,-25 25,25 0 0 0 -25,-25 z m 0,0 a 25,25 0 0 0 -25,25 25,25 0 0 0 25,25 25,25 0 0 0 25,-25 25,25 0 0 0 -25,-25 z m 200,0 a 25,25 0 0 0 -25,25 25,25 0 0 0 25,25 25,25 0 0 0 25,-25 25,25 0 0 0 -25,-25 z m 200,0 a 25,25 0 0 0 -25,25 25,25 0 0 0 25,25 25,25 0 0 0 25,-25 25,25 0 0 0 -25,-25 z M 250,200 a 25,25 0 0 0 -25,25 V 400 H 50 a 25,25 0 0 0 -25,25 25,25 0 0 0 25,25 h 175 v 175 a 25,25 0 0 0 25,25 25,25 0 0 0 25,-25 V 450 h 175 a 25,25 0 0 0 25,-25 25,25 0 0 0 -25,-25 H 275 V 225 a 25,25 0 0 0 -25,-25 z m 0,0 a 25,25 0 0 0 -25,25 v 139.64453 l -98.74414,-98.74414 a 25,25 0 0 0 -35.355469,0 25,25 0 0 0 0,35.35547 L 214.64453,425 90.900391,548.74414 a 25,25 0 0 0 0,35.35547 25,25 0 0 0 35.355469,0 L 225,485.35547 V 625 a 25,25 0 0 0 25,25 25,25 0 0 0 25,-25 V 485.35547 l 98.74414,98.74414 a 25,25 0 0 0 35.35547,0 25,25 0 0 0 0,-35.35547 L 285.35547,425 409.09961,301.25586 a 25,25 0 0 0 0,-35.35547 25,25 0 0 0 -35.35547,0 L 275,364.64453 V 225 A 25,25 0 0 0 250,200 Z M 150,99.998047 c -13.807,0 -25,11.194003 -25,25.000003 C 125,138.80405 136.193,150 150,150 v 0.2832 a 75,75 0 0 1 53.0332,21.6836 C 217.6782,186.6118 225,205.806 225,225 v 400 c 0,19.194 -7.3218,38.3892 -21.9668,53.0332 A 75,75 0 0 1 150,699.7168 V 700 c -13.807,0 -25,11.193 -25,25 0,13.807 11.193,25 25,25 11.305,-0.132 54.29267,-2.94733 88.38867,-36.61133 C 262.79667,688.97967 275,656.99 275,625 V 225 C 275,193.01 262.79667,161.02033 238.38867,136.61133 204.28167,102.93633 161.28,100.13005 150,99.998047 Z M 253.40039,200.25195 a 25,25 0 0 1 2.32422,0.42774 25,25 0 0 0 -2.32422,-0.42774 z m 2.64844,0.4961 a 25,25 0 0 1 2.53711,0.78906 25,25 0 0 0 -2.53711,-0.78906 z m 17.41211,15.66406 0.002,0.002 a 25,25 0 0 1 0.78906,2.53516 25,25 0 0 0 -0.79101,-2.53711 z M 350,100 c -11.305,0.132 -54.29267,2.94733 -88.38867,36.61133 C 237.20333,161.02033 225,193.01 225,225 v 400 c 0,31.99 12.20333,63.97967 36.61133,88.38867 34.107,33.675 77.10867,36.48128 88.38867,36.61328 13.807,0 25,-11.194 25,-25 C 375,711.19595 363.807,700 350,700 v -0.2832 A 75,75 0 0 1 296.9668,678.0332 C 282.3218,663.3882 275,644.194 275,625 V 225 c 0,-19.194 7.3218,-38.3892 21.9668,-53.0332 A 75,75 0 0 1 350,150.2832 V 150 c 13.807,0 25,-11.193 25,-25 0,-13.807 -11.193,-25 -25,-25 z m -96.59961,100.25195 a 25,25 0 0 1 2.32422,0.42774 25,25 0 0 0 -2.32422,-0.42774 z m 2.64844,0.4961 a 25,25 0 0 1 2.53711,0.78906 25,25 0 0 0 -2.53711,-0.78906 z m 17.41211,15.66406 0.002,0.002 a 25,25 0 0 1 0.78906,2.53516 25,25 0 0 0 -0.79101,-2.53711 z M 250,200 a 25,25 0 0 0 -25,25 25,25 0 0 0 25,25 25,25 0 0 0 25,-25 25,25 0 0 0 -25,-25 z m -15.36523,0.54688 A 225,225 0 0 0 91.804688,265.04492 l -0.01563,0.01 a 25,25 0 0 0 -0.886718,0.84765 l -0.002,-0.002 a 25,25 0 0 0 0,35.35547 25,25 0 0 0 35.355469,0 175,175 0 0 1 247.48828,0 175,175 0 0 1 0,247.48828 175,175 0 0 1 -247.48828,0 25,25 0 0 0 -35.355469,0 25,25 0 0 0 0,35.35547 25,25 0 0 0 2.701171,2.33789 225,225 0 0 0 315.498048,-2.33789 225,225 0 0 0 0,-318.19727 225,225 0 0 0 -174.46484,-65.35546 z M 250,300 c -47.929,0.306 -80.31967,28.72833 -88.38867,36.61133 -9.763,9.763 -9.763,25.59247 0,35.35547 9.763,9.763 25.59247,9.763 35.35547,0 l 0.20117,0.20117 A 75,75 0 0 1 250,350 c 41.421,0 75,33.579 75,75 0,41.421 -33.579,75 -75,75 a 75,75 0 0 1 -52.83203,-22.16797 l -0.20117,0.20117 c -9.763,-9.763 -25.59247,-9.763 -35.35547,0 -9.763,9.763 -9.763,25.59247 0,35.35547 8.088,7.9 40.47467,36.30533 88.38867,36.61133 69.036,0 125,-55.964 125,-125 0,-69.036 -55.964,-125 -125,-125 z m 0,100 a 25,25 0 0 0 -25,25 25,25 0 0 0 25,25 25,25 0 0 0 25,-25 25,25 0 0 0 -25,-25 z M 106.79492,258.64258 a 25,25 0 0 0 -15.894529,7.25781 25,25 0 0 0 0,35.35547 25,25 0 0 0 35.355469,0 25,25 0 0 0 0,-35.35547 25,25 0 0 0 -19.46094,-7.25781 z m 280.7168,0.24414 a 25,25 0 0 0 -13.76758,7.01367 L 90.900391,548.74414 a 25,25 0 0 0 0,35.35547 25,25 0 0 0 35.355469,0 L 409.09961,301.25586 a 25,25 0 0 0 0,-35.35547 25,25 0 0 0 -21.58789,-7.01367 z m 2.12695,282.59766 a 25,25 0 0 0 -15.89453,7.25976 25,25 0 0 0 0,35.35547 25,25 0 0 0 35.35547,0 25,25 0 0 0 0,-35.35547 25,25 0 0 0 -19.46094,-7.25976 z M 250,0 a 25,25 0 0 0 -25,25 v 176.93945 a 225,225 0 0 0 -23.76562,3.55664 225,225 0 0 0 -5.86719,1.69922 225,225 0 0 0 -24.4668,7.30078 225,225 0 0 0 -8.43555,3.8086 225,225 0 0 0 -20.32617,9.35156 225,225 0 0 0 -11.71289,7.44922 225,225 0 0 0 -14.9082,9.60742 225,225 0 0 0 -15.47656,13.27149 225,225 0 0 0 -9.097661,7.8789 l -0.02539,0.0254 a 25,25 0 0 0 -0.01758,0.0117 25,25 0 0 0 -4.945313,7.40039 25,25 0 0 0 -0.859375,2.64453 25,25 0 0 0 -1.208984,6.08008 25,25 0 0 0 0,3.10547 25,25 0 0 0 1.210937,6.08398 25,25 0 0 0 0.855469,2.63672 25,25 0 0 0 4.947266,7.4043 L 225,435.35547 V 598.0332 a 175,175 0 0 1 -98.74414,-49.28906 25,25 0 0 0 -17.67774,-7.32226 25,25 0 0 0 -17.677729,7.32226 25,25 0 0 0 -0.0059,35.34766 l 0.0059,0.006 a 225,225 0 0 0 1.564453,1.35546 25,25 0 0 0 1.136718,0.98438 225,225 0 0 0 110.814458,58.69922 l 0.72265,0.10547 A 225,225 0 0 0 225,647.91602 V 825 a 25,25 0 0 0 25,25 25,25 0 0 0 25,-25 V 648.06055 a 225,225 0 0 0 23.76562,-3.55664 225,225 0 0 0 5.86719,-1.69922 225,225 0 0 0 24.4668,-7.29883 225,225 0 0 0 8.43555,-3.81055 225,225 0 0 0 20.32617,-9.35156 225,225 0 0 0 11.71289,-7.44922 225,225 0 0 0 14.9082,-9.60742 225,225 0 0 0 15.47656,-13.27149 225,225 0 0 0 9.09766,-7.8789 l 0.0254,-0.0254 a 25,25 0 0 0 0.0176,-0.0117 25,25 0 0 0 2.07812,-2.36914 25,25 0 0 0 0.58399,-0.84766 25,25 0 0 0 1.17773,-1.76367 25,25 0 0 0 0.58008,-1.10352 25,25 0 0 0 0.83594,-1.69335 25,25 0 0 0 0.48828,-1.28907 25,25 0 0 0 0.57031,-1.67773 25,25 0 0 0 0.33594,-1.36328 25,25 0 0 0 0.33984,-1.71094 25,25 0 0 0 0.17383,-1.42773 25,25 0 0 0 0.11133,-1.7129 25,25 0 0 0 0,-1.4375 25,25 0 0 0 -0.11133,-1.71289 25,25 0 0 0 -0.17383,-1.43164 25,25 0 0 0 -0.33984,-1.70117 25,25 0 0 0 -0.33594,-1.36914 25,25 0 0 0 -0.57226,-1.68164 25,25 0 0 0 -0.48633,-1.2832 25,25 0 0 0 -0.83203,-1.6875 25,25 0 0 0 -0.58399,-1.11133 25,25 0 0 0 -1.17773,-1.76367 25,25 0 0 0 -0.58399,-0.84766 25,25 0 0 0 -2.07812,-2.36914 L 275,414.64453 V 251.9668 a 175,175 0 0 1 98.74414,49.28906 25,25 0 0 0 35.35547,0 25,25 0 0 0 0.0176,-35.33398 l -0.0176,-0.0195 a 225,225 0 0 0 -1.56445,-1.35546 25,25 0 0 0 -1.13672,-0.98438 225,225 0 0 0 -110.81446,-58.69922 l -0.72265,-0.10547 A 225,225 0 0 0 275,202.08398 V 25 A 25,25 0 0 0 250,0 Z m -25,251.9668 v 112.67773 l -79.67578,-79.67578 a 175,175 0 0 1 1.8125,-1.54687 A 175,175 0 0 1 225,251.9668 Z m 50,233.38867 79.67578,79.67578 A 175,175 0 0 1 277.37695,597.8457 175,175 0 0 1 275,598.0332 Z M 250,0 a 25,25 0 0 0 -25,25 v 176.9375 a 225,225 0 0 0 -134.099609,63.96289 225,225 0 0 0 0,318.19727 A 225,225 0 0 0 225,648.14258 V 825 a 25,25 0 0 0 25,25 25,25 0 0 0 25,-25 V 648.09961 a 225,225 0 0 0 133.19531,-63.14453 l 0.0156,-0.01 a 25,25 0 0 0 0.87109,-0.83398 25,25 0 0 0 0.0176,-0.0117 25,25 0 0 0 2.17773,-2.51563 25,25 0 0 0 0.58985,-0.85351 25,25 0 0 0 1.24219,-1.93164 25,25 0 0 0 0.56835,-1.08399 25,25 0 0 0 0.88086,-1.92968 25,25 0 0 0 0.45508,-1.19727 25,25 0 0 0 0.60352,-2.0625 25,25 0 0 0 0.2832,-1.14648 25,25 0 0 0 0.35742,-2.48633 25,25 0 0 0 0.0996,-0.81641 25,25 0 0 0 0,-3.30859 25,25 0 0 0 -0.0996,-0.82031 25,25 0 0 0 -0.35547,-2.47657 25,25 0 0 0 -0.28515,-1.15625 25,25 0 0 0 -0.60352,-2.05664 25,25 0 0 0 -0.45898,-1.20703 25,25 0 0 0 -0.86719,-1.90234 25,25 0 0 0 -0.58594,-1.11524 25,25 0 0 0 -1.21679,-1.89453 25,25 0 0 0 -0.61329,-0.88867 25,25 0 0 0 -2.17187,-2.50586 L 275,414.64453 V 251.9668 a 175,175 0 0 1 98.74414,49.28906 25,25 0 0 0 35.35547,0 25,25 0 0 0 0,-35.35547 25,25 0 0 0 -2.70117,-2.33789 A 225,225 0 0 0 275,202.08398 V 25 A 25,25 0 0 0 250,0 Z M 225,251.9668 V 364.64453 L 145.32422,284.96875 A 175,175 0 0 1 225,251.9668 Z M 109.96875,320.32422 225,435.35547 V 598.0332 A 175,175 0 0 1 126.25586,548.74414 175,175 0 0 1 109.96875,320.32422 Z M 275,485.35547 354.67578,565.03125 A 175,175 0 0 1 275,598.0332 Z M 106.79492,258.64258 a 25,25 0 0 0 -15.894529,7.25781 25,25 0 0 0 0,35.35547 25,25 0 0 0 35.355469,0 25,25 0 0 0 0,-35.35547 25,25 0 0 0 -19.46094,-7.25781 z m 280.71485,0.24414 a 25,25 0 0 0 -13.76563,7.01367 25,25 0 0 0 0,35.35547 25,25 0 0 0 35.35547,0 25,25 0 0 0 0,-35.35547 25,25 0 0 0 -21.58984,-7.01367 z M 250,200 a 25,25 0 0 0 -25,25 25,25 0 0 0 25,25 25,25 0 0 0 25,-25 25,25 0 0 0 -25,-25 z m 0,400 a 25,25 0 0 0 -25,25 25,25 0 0 0 25,25 25,25 0 0 0 25,-25 25,25 0 0 0 -25,-25 z" />
</svg>