<svg width="500" height="850" xmlns="http://www.w3.org/2000/svg" xmlns:svg="http://www.w3.org/2000/svg">
    <path
        d="M475 625a225 225 0 0 1-225 225A225 225 0 0 1 25 625a225 225 0 0 1 225-225 225 225 0 0 1 225 225Zm-50 0a175 175 0 0 1-175 175A175 175 0 0 1 75 625a175 175 0 0 1 175-175 175 175 0 0 1 175 175Zm-50 0a125 125 0 0 1-125 125 125 125 0 0 1-125-125 125 125 0 0 1 125-125 125 125 0 0 1 125 125Zm-50 0a75 75 0 0 1-75 75 75 75 0 0 1-75-75 75 75 0 0 1 75-75 75 75 0 0 1 75 75zm-50 0a25 25 0 0 1-25 25 25 25 0 0 1-25-25 25 25 0 0 1 25-25 25 25 0 0 1 25 25zm200-200a225 225 0 0 1-225 225A225 225 0 0 1 25 425a225 225 0 0 1 225-225 225 225 0 0 1 225 225Zm-50 0a175 175 0 0 1-175 175A175 175 0 0 1 75 425a175 175 0 0 1 175-175 175 175 0 0 1 175 175Zm-50 0a125 125 0 0 1-125 125 125 125 0 0 1-125-125 125 125 0 0 1 125-125 125 125 0 0 1 125 125Zm-50 0a75 75 0 0 1-75 75 75 75 0 0 1-75-75 75 75 0 0 1 75-75 75 75 0 0 1 75 75zm-50 0a25 25 0 0 1-25 25 25 25 0 0 1-25-25 25 25 0 0 1 25-25 25 25 0 0 1 25 25zm200-200a225 225 0 0 1-225 225A225 225 0 0 1 25 225 225 225 0 0 1 250 0a225 225 0 0 1 225 225Zm-50 0a175 175 0 0 1-175 175A175 175 0 0 1 75 225 175 175 0 0 1 250 50a175 175 0 0 1 175 175Zm-50 0a125 125 0 0 1-125 125 125 125 0 0 1-125-125 125 125 0 0 1 125-125 125 125 0 0 1 125 125Zm-50 0a75 75 0 0 1-75 75 75 75 0 0 1-75-75 75 75 0 0 1 75-75 75 75 0 0 1 75 75zm-50 0a25 25 0 0 1-25 25 25 25 0 0 1-25-25 25 25 0 0 1 25-25 25 25 0 0 1 25 25z"
        style="fill:none;stroke:red" />
</svg>