<svg width="500" height="850" xmlns="http://www.w3.org/2000/svg">
    <path style="fill:#000000;fill-opacity:0;stroke:#ff0000"
        d="M 250,500 A 125,125 0 0 0 125,625 125,125 0 0 0 250,750 125,125 0 0 0 375,625 125,125 0 0 0 250,500 Z m 0,50 a 75,75 0 0 1 75,75 75,75 0 0 1 -75,75 75,75 0 0 1 -75,-75 75,75 0 0 1 75,-75 z m 0,-450 A 125,125 0 0 0 125,225 125,125 0 0 0 250,350 125,125 0 0 0 375,225 125,125 0 0 0 250,100 Z m 0,50 a 75,75 0 0 1 75,75 75,75 0 0 1 -75,75 75,75 0 0 1 -75,-75 75,75 0 0 1 75,-75 z M 250,0 a 25,25 0 0 0 -25,25 v 800 a 25,25 0 0 0 25,25 25,25 0 0 0 25,-25 V 25 A 25,25 0 0 0 250,0 Z m 0,200 A 225,225 0 0 0 25,425 225,225 0 0 0 250,650 225,225 0 0 0 475,425 225,225 0 0 0 250,200 Z m 0,50 A 175,175 0 0 1 425,425 175,175 0 0 1 250,600 175,175 0 0 1 75,425 175,175 0 0 1 250,250 Z m 0,350 a 25,25 0 0 0 -25,25 25,25 0 0 0 7.36719,17.63281 l -0.0449,0.0449 141.42187,141.42188 a 25,25 0 0 0 35.35547,0 25,25 0 0 0 0,-35.35547 L 267.67773,607.32227 A 25,25 0 0 0 250,600 Z m -200,0 c -13.80712,0 -25,11.19288 -25,25 A 225,225 0 0 0 250,850 225,225 0 0 0 475,625 c 0,-13.80712 -11.19288,-25 -25,-25 -13.80712,0 -25,11.19288 -25,25 A 175,175 0 0 1 250,800 175,175 0 0 1 75,625 C 75,611.19288 63.80712,600 50,600 Z M 106.79492,58.642578 a 25,25 0 0 0 -15.89453,7.257813 25,25 0 0 0 0,35.355469 l 141.42188,141.42187 0.0449,-0.0449 A 25,25 0 0 0 250,250 25,25 0 0 0 275,225 25,25 0 0 0 267.67773,207.32227 L 126.25586,65.900391 A 25,25 0 0 0 106.79492,58.642578 Z M 250,0 A 225,225 0 0 0 25,225 c 0,13.80712 11.19288,25 25,25 13.80712,0 25,-11.19288 25,-25 A 175,175 0 0 1 250,50 175,175 0 0 1 425,225 c 0,13.80712 11.19288,25 25,25 13.80712,0 25,-11.19288 25,-25 A 225,225 0 0 0 250,0 Z" />
    <circle cx="250" cy="125" r="25" style="fill:#000000;fill-opacity:0;stroke:#ff0000;" />
    <circle cx="250" cy="125" r="20" style="fill:#000000;fill-opacity:0;stroke:#ff0000;" />
    <circle cx="250" cy="125" r="15" style="fill:#000000;fill-opacity:0;stroke:#ff0000;" />
    <circle cx="250" cy="125" r="10" style="fill:#000000;fill-opacity:0;stroke:#ff0000;" />
    <circle cx="250" cy="125" r="05" style="fill:#000000;fill-opacity:0;stroke:#ff0000;" />
    <circle cx="250" cy="725" r="25" style="fill:#000000;fill-opacity:0;stroke:#ff0000;" />
    <circle cx="250" cy="725" r="20" style="fill:#000000;fill-opacity:0;stroke:#ff0000;" />
    <circle cx="250" cy="725" r="15" style="fill:#000000;fill-opacity:0;stroke:#ff0000;" />
    <circle cx="250" cy="725" r="10" style="fill:#000000;fill-opacity:0;stroke:#ff0000;" />
    <circle cx="250" cy="725" r="05" style="fill:#000000;fill-opacity:0;stroke:#ff0000;" />
    <circle cx="250" cy="105" r="05" />
    <circle cx="250" cy="125" r="05" />
    <circle cx="250" cy="145" r="05" />
    <circle cx="270" cy="125" r="05" />
    <circle cx="230" cy="125" r="05" />
    <circle cx="250" cy="705" r="05" />
    <circle cx="250" cy="725" r="05" />
    <circle cx="250" cy="745" r="05" />
    <circle cx="270" cy="725" r="05" />
    <circle cx="230" cy="725" r="05" />
</svg>