<svg xmlns="http://www.w3.org/2000/svg" width="500" height="650">
    <path fill="none" stroke="red"
        d="M150 200A125 125 0 0 0 25 325a25 25 0 0 0 25 25 25 25 0 0 0 25-25 75 75 0 0 1 75-75 75 75 0 0 1 75 75 125 125 0 0 0 125 125 125 125 0 0 0 125-125 25 25 0 0 0-25-25 25 25 0 0 0-25 25 75 75 0 0 1-75 75 75 75 0 0 1-75-75 125 125 0 0 0-125-125m0-150a25 25 0 0 0-25 25 25 25 0 0 0 25 25 75 75 0 0 1 75 75v50a125 125 0 0 0 50.48 99.77A125 125 0 0 0 225 425v50a75 75 0 0 1-75 75 25 25 0 0 0-25 25 25 25 0 0 0 25 25 125 125 0 0 0 125-125v-50a75 75 0 0 1 75-75 25 25 0 0 0 8.73-1.74 25 25 0 0 0 2.47-1.25 25 25 0 0 0 5.16-3.45 25 25 0 0 0 2.2-2.2 25 25 0 0 0 3.45-5.16 25 25 0 0 0 1.25-2.47A25 25 0 0 0 375 325a25 25 0 0 0-.23-3.18l-.15-.94a25 25 0 0 0-.51-2.35l-.22-.84a25 25 0 0 0-1.12-2.98l-.22-.44a25 25 0 0 0-1.31-2.4l-.52-.8a25 25 0 0 0-1.5-2l-.47-.58a25 25 0 0 0-2.24-2.24l-.58-.48a25 25 0 0 0-2-1.5l-.8-.52a25 25 0 0 0-2.4-1.3l-.44-.23a25 25 0 0 0-2.98-1.11l-.84-.22a25 25 0 0 0-2.35-.52l-.94-.14A25 25 0 0 0 350 300a75 75 0 0 1-75-75v-50A125 125 0 0 0 150 50M244.44.63A25 25 0 0 0 225 25v600a25 25 0 0 0 50 0V25A25 25 0 0 0 244.44.63M350 50a125 125 0 0 0-125 125v50a75 75 0 0 1-75 75 25 25 0 0 0-8.73 1.74l-1.23.43a25 25 0 0 0-7.05 4.7 25 25 0 0 0-1.12 1.12 25 25 0 0 0-4.7 7.05l-.43 1.23A25 25 0 0 0 125 325a25 25 0 0 0 1.74 8.73l.43 1.23a25 25 0 0 0 4.7 7.05 25 25 0 0 0 1.12 1.12 25 25 0 0 0 7.05 4.7l1.23.43A25 25 0 0 0 150 350a75 75 0 0 1 75 75v50a125 125 0 0 0 125 125 25 25 0 0 0 25-25 25 25 0 0 0-25-25 75 75 0 0 1-75-75v-50a125 125 0 0 0-50.16-100.07A125 125 0 0 0 275 225v-50a75 75 0 0 1 75-75 25 25 0 0 0 25-25 25 25 0 0 0-25-25m-305.562.627A25 25 0 0 0 25 75v350a125 125 0 0 0 125 125h300v-.63A25 25 0 0 0 475 525a25 25 0 0 0-2.137-9.453 25 25 0 0 0-2.744-3.97 25 25 0 0 0-2.824-3.956l-.215-.3h.6L75 114.64V75a25 25 0 0 0-30.562-24.373M75 185.359 389.64 500H150a75 75 0 0 1-75-75ZM150 100a125 125 0 0 0-68.877 20.764L67.68 107.32v.75a25 25 0 0 0-12.12-7.44A25 25 0 0 0 25 125a25 25 0 0 0 7.92 17.68h-.6l13.444 13.443A125 125 0 0 0 25 225a25 25 0 0 0 25 25 25 25 0 0 0 25-25 75 75 0 0 1 7.342-32.299l63.773 63.774a125 125 0 0 0-2.742 4.148l-.002.004a125 125 0 0 0-5.885 11.106 125 125 0 0 0-4.35 10 125 125 0 0 0-4.716 15.648 125 125 0 0 0-1.375 6.865 125 125 0 0 0-1.455 10.334A125 125 0 0 0 125 325a125 125 0 0 0 .59 10.42 125 125 0 0 0 1.455 10.334 125 125 0 0 0 1.375 6.865 125 125 0 0 0 4.717 15.649 125 125 0 0 0 4.35 10 125 125 0 0 0 5.884 11.105l.002.004a125 125 0 0 0 3.67 5.549 125 125 0 0 0 2.416 3.654l.002.002a125 125 0 0 0 35.992 33.084 125 125 0 0 0 2.973 1.668 125 125 0 0 0 11.959 6.115 125 125 0 0 0 4.068 1.559 125 125 0 0 0 11.844 4.176 125 125 0 0 0 5.885 1.316 125 125 0 0 0 10.779 2.238A125 125 0 0 0 250 450a125 125 0 0 0 17.598-1.318 125 125 0 0 0 3.922-.795 125 125 0 0 0 13.367-3 125 125 0 0 0 4.427-1.532 125 125 0 0 0 12.2-4.681 125 125 0 0 0 4.314-2.17 125 125 0 0 0 11.32-6.37 125 125 0 0 0 1.528-1.099l63.623 63.623A75 75 0 0 1 350 500H150a75 75 0 0 1-75-75 25 25 0 0 0-25-25 25 25 0 0 0-25 25 125 125 0 0 0 125 125h200a125 125 0 0 0 68.877-20.764l13.443 13.444v-.76A25 25 0 0 0 475 525a25 25 0 0 0-7.92-17.68h.6l-13.444-13.443A125 125 0 0 0 475 425V225a125 125 0 0 0-125-125Zm0 50h200a75 75 0 0 1 75 75v200a75 75 0 0 1-7.342 32.299l-63.773-63.774a125 125 0 0 0 2.373-3.59 125 125 0 0 0 7.451-14.03 125 125 0 0 0 2.713-6.315 125 125 0 0 0 5.219-17.268 125 125 0 0 0 1.275-6.373 125 125 0 0 0 1.336-9.39A125 125 0 0 0 375 325a125 125 0 0 0-.748-11.559 125 125 0 0 0-1.336-9.39 125 125 0 0 0-1.275-6.373 125 125 0 0 0-5.22-17.268 125 125 0 0 0-2.712-6.314 125 125 0 0 0-7.451-14.032A125 125 0 0 0 349.602 250h.296a125 125 0 0 0-32.746-30.133 125 125 0 0 0-11.324-6.37 125 125 0 0 0-4.314-2.17 125 125 0 0 0-12.2-4.682 125 125 0 0 0-4.427-1.532 125 125 0 0 0-13.367-3 125 125 0 0 0-3.922-.795A125 125 0 0 0 250 200a125 125 0 0 0-17.04 1.262 125 125 0 0 0-10.778 2.238 125 125 0 0 0-5.885 1.316 125 125 0 0 0-11.844 4.176 125 125 0 0 0-4.068 1.559 125 125 0 0 0-11.96 6.115 125 125 0 0 0-2.972 1.668 125 125 0 0 0-3.97 2.789L117.7 157.342A75 75 0 0 1 150 150m100 100a75 75 0 0 1 5.576.23 75 75 0 0 1 1.701.16 75 75 0 0 1 4.045.506 75 75 0 0 1 1.69.268 75 75 0 0 1 4.902 1.027l.59.131a75 75 0 0 1 5.38 1.604 75 75 0 0 1 1.454.523 75 75 0 0 1 3.842 1.498 75 75 0 0 1 1.668.721 75 75 0 0 1 4.052 1.982 75 75 0 0 1 .985.502 75 75 0 0 1 4.781 2.85 75 75 0 0 1 1.225.832 75 75 0 0 1 3.412 2.436 75 75 0 0 1 1.422 1.103 75 75 0 0 1 3.29 2.785 75 75 0 0 1 1.012.893 75 75 0 0 1 3.922 3.922 75 75 0 0 1 .893 1.011 75 75 0 0 1 2.785 3.291 75 75 0 0 1 1.103 1.422 75 75 0 0 1 2.436 3.412 75 75 0 0 1 .832 1.225 75 75 0 0 1 2.85 4.781 75 75 0 0 1 .502.985 75 75 0 0 1 1.982 4.052 75 75 0 0 1 .72 1.668 75 75 0 0 1 1.499 3.842 75 75 0 0 1 .523 1.453 75 75 0 0 1 1.604 5.381l.13.59a75 75 0 0 1 1.028 4.902 75 75 0 0 1 .268 1.69 75 75 0 0 1 .505 4.045 75 75 0 0 1 .16 1.7A75 75 0 0 1 325 325a75 75 0 0 1-.23 5.576 75 75 0 0 1-.16 1.701 75 75 0 0 1-.506 4.045 75 75 0 0 1-.268 1.69 75 75 0 0 1-1.027 4.902l-.131.59a75 75 0 0 1-1.604 5.38 75 75 0 0 1-.523 1.454 75 75 0 0 1-1.498 3.842 75 75 0 0 1-.721 1.668 75 75 0 0 1-.697 1.427l-99.742-99.742-.194-.193a75 75 0 0 1 2.397-.834l.011-.004.077-.027a75 75 0 0 1 10.191-3.567l.281-.076.008-.002a75 75 0 0 1 3.467-.928l.727-.195.008-.002A75 75 0 0 1 250 250m-67.66 42.7.193.193 99.742 99.742a75 75 0 0 1-1.427.697 75 75 0 0 1-1.668.72 75 75 0 0 1-3.842 1.499 75 75 0 0 1-1.453.523 75 75 0 0 1-5.381 1.604l-.59.13a75 75 0 0 1-4.902 1.028 75 75 0 0 1-1.69.268 75 75 0 0 1-4.045.505 75 75 0 0 1-1.7.16A75 75 0 0 1 250 400a75 75 0 0 1-15.135-1.705l-.008-.002-.726-.195a75 75 0 0 1-3.467-.928l-.008-.002-.281-.076a75 75 0 0 1-10.192-3.567l-.076-.027-.012-.004a75 75 0 0 1-2.396-.834l.193-.193-.006-.004a75 75 0 0 1-2.332-1.086 75 75 0 0 1-6.734-4.233 75 75 0 0 1-2.28-1.431 75 75 0 0 1-.931-.586 75 75 0 0 1-2.94-2.059 75 75 0 0 1-10.738-10.738 75 75 0 0 1-2.058-2.94 75 75 0 0 1-.586-.931 75 75 0 0 1-1.432-2.28 75 75 0 0 1-4.232-6.734 75 75 0 0 1-1.086-2.332l-.004-.006-.194.193a75 75 0 0 1-.834-2.396l-.004-.012-.027-.076a75 75 0 0 1-3.566-10.191l-.077-.282-.002-.008a75 75 0 0 1-.927-3.466l-.196-.727v-.002l-.002-.006A75 75 0 0 1 175 325a75 75 0 0 1 1.705-15.135l.002-.006v-.002l.195-.726a75 75 0 0 1 .928-3.467l.002-.008.076-.281a75 75 0 0 1 3.567-10.192l.027-.076.004-.012a75 75 0 0 1 .834-2.396zM50 100v.63a25 25 0 0 0-9.36 1.829l-.171.082a25 25 0 0 0-7.803 5.105 25 25 0 0 0-.514.645 25 25 0 0 0-4.982 7.205A25 25 0 0 0 25 125a25 25 0 0 0 2.137 9.453 25 25 0 0 0 2.744 3.97 25 25 0 0 0 2.824 3.956l.215.3h-.6L425 535.36V575a25 25 0 0 0 50 0V225a125 125 0 0 0-125-125Zm60.36 50H350a75 75 0 0 1 75 75v239.64ZM150 100a125 125 0 0 0-68.877 20.764L67.68 107.32v.75a25 25 0 0 0-12.12-7.44A25 25 0 0 0 25 125a25 25 0 0 0 7.92 17.68h-.6l13.444 13.443A125 125 0 0 0 25 225v350a25 25 0 0 0 50 0V225a75 75 0 0 1 7.732-31.908L425 535.359V575a25 25 0 0 0 50 0V225a125 125 0 0 0-125-125Zm0 50h200a75 75 0 0 1 75 75v239.64L118.092 157.733A75 75 0 0 1 150 150M44.438 50.627A25 25 0 0 0 25 75v350a125 125 0 0 0 125 125h200a125 125 0 0 0 125-125V75a25 25 0 0 0-50 0v350a75 75 0 0 1-75 75H150a75 75 0 0 1-75-75V75a25 25 0 0 0-30.562-24.373m0 0A25 25 0 0 0 25 75v350a125 125 0 0 0 125 125h300v-.63A25 25 0 0 0 475 525a25 25 0 0 0-25-24.37V500H150a75 75 0 0 1-75-75V75a25 25 0 0 0-30.562-24.373M150 100A125 125 0 0 0 25 225v200a125 125 0 0 0 125 125h200a125 125 0 0 0 125-125V225a125 125 0 0 0-125-125Zm0 50h200a75 75 0 0 1 75 75v200a75 75 0 0 1-75 75H150a75 75 0 0 1-75-75V225a75 75 0 0 1 75-75m0-50A125 125 0 0 0 25 225a25 25 0 0 0 25 25 25 25 0 0 0 25-25 75 75 0 0 1 75-75h200a75 75 0 0 1 75 75v200a75 75 0 0 1-75 75H150a75 75 0 0 1-75-75 25 25 0 0 0-25-25 25 25 0 0 0-25 25 125 125 0 0 0 125 125h200a125 125 0 0 0 125-125V225a125 125 0 0 0-125-125Zm0 0A125 125 0 0 0 25 225v200a125 125 0 0 0 125 125h200a125 125 0 0 0 125-125 25 25 0 0 0-25-25 25 25 0 0 0-25 25 75 75 0 0 1-75 75H150a75 75 0 0 1-75-75V225a75 75 0 0 1 75-75h200a75 75 0 0 1 75 75 25 25 0 0 0 25 25 25 25 0 0 0 25-25 125 125 0 0 0-125-125zm0 0a125 125 0 0 0-68.877 20.764L67.68 107.32v.75a25 25 0 0 0-12.12-7.44A25 25 0 0 0 25 125a25 25 0 0 0 7.92 17.68h-.6l13.444 13.443A125 125 0 0 0 25 225v350a25 25 0 0 0 50 0V225a75 75 0 0 1 7.732-31.908L432.32 542.68v-.76A25 25 0 0 0 475 525a25 25 0 0 0-7.92-17.68h.6L118.092 157.732A75 75 0 0 1 150 150h300v-.63A25 25 0 0 0 475 125a25 25 0 0 0-25-24.37V100Zm282.32 407.33h.6l-.6.75zM150 100A125 125 0 0 0 25 225v350a25 25 0 0 0 50 0V225a75 75 0 0 1 75-75h300v-.63A25 25 0 0 0 475 125a25 25 0 0 0-25-24.37V100Zm0 0a125 125 0 0 0-68.877 20.764L67.68 107.32v.75a25 25 0 0 0-12.12-7.44A25 25 0 0 0 25 125a25 25 0 0 0 7.92 17.68h-.6l13.444 13.443A125 125 0 0 0 25 225v200a125 125 0 0 0 125 125h200a125 125 0 0 0 68.877-20.764l13.443 13.444v-.76A25 25 0 0 0 475 525a25 25 0 0 0-7.92-17.68h.6l-13.444-13.443A125 125 0 0 0 475 425V225a125 125 0 0 0-125-125Zm0 50h200a75 75 0 0 1 75 75v200a75 75 0 0 1-7.342 32.299L117.701 157.342A75 75 0 0 1 150 150m-67.658 42.701 299.957 299.957A75 75 0 0 1 350 500H150a75 75 0 0 1-75-75V225a75 75 0 0 1 7.342-32.299M444.438 50.627A25 25 0 0 0 425 75v350a75 75 0 0 1-75 75H50v.63A25 25 0 0 0 25 525a25 25 0 0 0 25 24.37v.63h300a125 125 0 0 0 125-125V75a25 25 0 0 0-30.562-24.373m-400 0A25 25 0 0 0 25 75v350a125 125 0 0 0 125 125h300v-.63A25 25 0 0 0 475 525a25 25 0 0 0-2.135-9.45 25 25 0 0 0-2.775-4.015 25 25 0 0 0-2.795-3.914l-.215-.3h.6L353.885 393.524a125 125 0 0 0 2.373-3.59 125 125 0 0 0 7.451-14.03 125 125 0 0 0 2.713-6.315 125 125 0 0 0 5.219-17.268 125 125 0 0 0 1.275-6.373 125 125 0 0 0 1.336-9.39A125 125 0 0 0 375 325a125 125 0 0 0-.748-11.559 125 125 0 0 0-1.336-9.39 125 125 0 0 0-1.275-6.373 125 125 0 0 0-5.22-17.268 125 125 0 0 0-2.712-6.314 125 125 0 0 0-7.451-14.032A125 125 0 0 0 349.602 250h.296a125 125 0 0 0-32.746-30.133 125 125 0 0 0-11.324-6.37 125 125 0 0 0-4.314-2.17 125 125 0 0 0-12.2-4.682 125 125 0 0 0-4.427-1.532 125 125 0 0 0-13.367-3 125 125 0 0 0-3.922-.795A125 125 0 0 0 250 200a125 125 0 0 0-17.04 1.262 125 125 0 0 0-10.778 2.238 125 125 0 0 0-5.885 1.316 125 125 0 0 0-11.844 4.176 125 125 0 0 0-4.068 1.559 125 125 0 0 0-11.96 6.115 125 125 0 0 0-2.972 1.668 125 125 0 0 0-3.97 2.789L75 114.641V75a25 25 0 0 0-30.562-24.373M75 185.359l71.115 71.116a125 125 0 0 0-2.742 4.148l-.002.004a125 125 0 0 0-5.885 11.106 125 125 0 0 0-4.35 10 125 125 0 0 0-4.716 15.648 125 125 0 0 0-1.375 6.865 125 125 0 0 0-1.455 10.334A125 125 0 0 0 125 325a125 125 0 0 0 .59 10.42 125 125 0 0 0 1.455 10.334 125 125 0 0 0 1.375 6.865 125 125 0 0 0 4.717 15.649 125 125 0 0 0 4.35 10 125 125 0 0 0 5.884 11.105l.002.004a125 125 0 0 0 3.67 5.549 125 125 0 0 0 2.416 3.654l.002.002a125 125 0 0 0 35.992 33.084 125 125 0 0 0 2.973 1.668 125 125 0 0 0 11.959 6.115 125 125 0 0 0 4.068 1.559 125 125 0 0 0 11.844 4.176 125 125 0 0 0 5.885 1.316 125 125 0 0 0 10.779 2.238A125 125 0 0 0 250 450a125 125 0 0 0 17.598-1.318 125 125 0 0 0 3.922-.795 125 125 0 0 0 13.367-3 125 125 0 0 0 4.427-1.532 125 125 0 0 0 12.2-4.681 125 125 0 0 0 4.314-2.17 125 125 0 0 0 11.32-6.37 125 125 0 0 0 1.528-1.099L389.64 500H150a75 75 0 0 1-75-75ZM250 250a75 75 0 0 1 5.576.23 75 75 0 0 1 1.701.16 75 75 0 0 1 4.045.506 75 75 0 0 1 1.69.268 75 75 0 0 1 4.902 1.027l.59.131a75 75 0 0 1 5.38 1.604 75 75 0 0 1 1.454.523 75 75 0 0 1 3.842 1.498 75 75 0 0 1 1.668.721 75 75 0 0 1 4.052 1.982 75 75 0 0 1 .985.502 75 75 0 0 1 4.781 2.85 75 75 0 0 1 1.225.832 75 75 0 0 1 3.412 2.436 75 75 0 0 1 1.422 1.103 75 75 0 0 1 3.29 2.785 75 75 0 0 1 1.012.893 75 75 0 0 1 3.922 3.922 75 75 0 0 1 .893 1.011 75 75 0 0 1 2.785 3.291 75 75 0 0 1 1.103 1.422 75 75 0 0 1 2.436 3.412 75 75 0 0 1 .832 1.225 75 75 0 0 1 2.85 4.781 75 75 0 0 1 .502.985 75 75 0 0 1 1.982 4.052 75 75 0 0 1 .72 1.668 75 75 0 0 1 1.499 3.842 75 75 0 0 1 .523 1.453 75 75 0 0 1 1.604 5.381l.13.59a75 75 0 0 1 1.028 4.902 75 75 0 0 1 .268 1.69 75 75 0 0 1 .505 4.045 75 75 0 0 1 .16 1.7A75 75 0 0 1 325 325a75 75 0 0 1-.23 5.576 75 75 0 0 1-.16 1.701 75 75 0 0 1-.506 4.045 75 75 0 0 1-.268 1.69 75 75 0 0 1-1.027 4.902l-.131.59a75 75 0 0 1-1.604 5.38 75 75 0 0 1-.523 1.454 75 75 0 0 1-1.498 3.842 75 75 0 0 1-.721 1.668 75 75 0 0 1-.697 1.427l-99.742-99.742-.194-.193a75 75 0 0 1 2.397-.834l.011-.004.077-.027a75 75 0 0 1 10.191-3.567l.281-.076.008-.002a75 75 0 0 1 3.467-.928l.727-.195.008-.002A75 75 0 0 1 250 250m-67.66 42.7.193.193 99.742 99.742a75 75 0 0 1-1.427.697 75 75 0 0 1-1.668.72 75 75 0 0 1-3.842 1.499 75 75 0 0 1-1.453.523 75 75 0 0 1-5.381 1.604l-.59.13a75 75 0 0 1-4.902 1.028 75 75 0 0 1-1.69.268 75 75 0 0 1-4.045.505 75 75 0 0 1-1.7.16A75 75 0 0 1 250 400a75 75 0 0 1-15.135-1.705l-.008-.002-.726-.195a75 75 0 0 1-3.467-.928l-.008-.002-.281-.076a75 75 0 0 1-10.192-3.567l-.076-.027-.012-.004a75 75 0 0 1-2.396-.834l.193-.193-.006-.004a75 75 0 0 1-2.332-1.086 75 75 0 0 1-6.734-4.233 75 75 0 0 1-2.28-1.431 75 75 0 0 1-.931-.586 75 75 0 0 1-2.94-2.059 75 75 0 0 1-10.738-10.738 75 75 0 0 1-2.058-2.94 75 75 0 0 1-.586-.931 75 75 0 0 1-1.432-2.28 75 75 0 0 1-4.232-6.734 75 75 0 0 1-1.086-2.332l-.004-.006-.194.193a75 75 0 0 1-.834-2.396l-.004-.012-.027-.076a75 75 0 0 1-3.566-10.191l-.077-.282-.002-.008a75 75 0 0 1-.927-3.466l-.196-.727v-.002l-.002-.006A75 75 0 0 1 175 325a75 75 0 0 1 1.705-15.135l.002-.006v-.002l.195-.726a75 75 0 0 1 .928-3.467l.002-.008.076-.281a75 75 0 0 1 3.567-10.192l.027-.076.004-.012a75 75 0 0 1 .834-2.396zM50 100v.63A25 25 0 0 0 25 125a25 25 0 0 0 25 24.37v.63h300a75 75 0 0 1 75 75v350a25 25 0 0 0 50 0V225a125 125 0 0 0-125-125Zm394.438-49.373A25 25 0 0 0 425 75v350a75 75 0 0 1-7.732 31.908L67.68 107.32v.75a25 25 0 0 0-12.12-7.44A25 25 0 0 0 25 125a25 25 0 0 0 7.92 17.68h-.6l349.588 349.588A75 75 0 0 1 350 500H50v.63A25 25 0 0 0 25 525a25 25 0 0 0 25 24.37v.63h300a125 125 0 0 0 68.877-20.764l13.443 13.444v-.76A25 25 0 0 0 475 525a25 25 0 0 0-7.92-17.68h.6l-13.444-13.443A125 125 0 0 0 475 425V75a25 25 0 0 0-30.562-24.373M67.68 141.93v.75h-.6zM150 100A125 125 0 0 0 25 225v350a25 25 0 0 0 50 0V225a75 75 0 0 1 75-75h200a75 75 0 0 1 75 75v350a25 25 0 0 0 50 0V225a125 125 0 0 0-125-125ZM44.438 50.627A25 25 0 0 0 25 75v350a125 125 0 0 0 125 125h200a125 125 0 0 0 68.877-20.764l13.443 13.444v-.76A25 25 0 0 0 475 525a25 25 0 0 0-7.92-17.68h.6l-13.444-13.443A125 125 0 0 0 475 425V75a25 25 0 0 0-50 0v350a75 75 0 0 1-7.732 31.908L75 114.641V75a25 25 0 0 0-30.562-24.373M75 185.359l306.908 306.909A75 75 0 0 1 350 500H150a75 75 0 0 1-75-75ZM150 100a125 125 0 0 0-68.877 20.764L67.68 107.32v.75a25 25 0 0 0-12.12-7.44A25 25 0 0 0 25 125a25 25 0 0 0 7.92 17.68h-.6l13.444 13.443A125 125 0 0 0 25 225a25 25 0 0 0 25 25 25 25 0 0 0 25-25 75 75 0 0 1 7.342-32.299l299.957 299.957A75 75 0 0 1 350 500H150a75 75 0 0 1-75-75 25 25 0 0 0-25-25 25 25 0 0 0-25 25 125 125 0 0 0 125 125h200a125 125 0 0 0 68.877-20.764l13.443 13.444v-.76A25 25 0 0 0 475 525a25 25 0 0 0-7.92-17.68h.6l-13.444-13.443A125 125 0 0 0 475 425V225a125 125 0 0 0-125-125Zm0 50h200a75 75 0 0 1 75 75v200a75 75 0 0 1-7.342 32.299L117.701 157.342A75 75 0 0 1 150 150m0-50a125 125 0 0 0-68.877 20.764L67.68 107.32v.75a25 25 0 0 0-12.12-7.44A25 25 0 0 0 25 125a25 25 0 0 0 7.92 17.68h-.6l13.444 13.443A125 125 0 0 0 25 225v200a125 125 0 0 0 125 125h200a125 125 0 0 0 68.877-20.764l13.443 13.444v-.76A25 25 0 0 0 475 525a25 25 0 0 0-7.92-17.68h.6l-13.444-13.443A125 125 0 0 0 475 425a25 25 0 0 0-25-25 25 25 0 0 0-25 25 75 75 0 0 1-7.342 32.299L117.701 157.342A75 75 0 0 1 150 150h200a75 75 0 0 1 75 75 25 25 0 0 0 25 25 25 25 0 0 0 25-25 125 125 0 0 0-125-125Zm-67.658 92.701 299.957 299.957A75 75 0 0 1 350 500H150a75 75 0 0 1-75-75V225a75 75 0 0 1 7.342-32.299M250 0v.25A25 25 0 0 0 225 25a25 25 0 0 0 25 24.75V50h100a75 75 0 0 1 75 75 25 25 0 0 0 25 25 25 25 0 0 0 25-25A125 125 0 0 0 350 0ZM50 600v.38A25 25 0 0 0 25 625a25 25 0 0 0 25 24.62v.38h400v-.38A25 25 0 0 0 475 625a25 25 0 0 0-25-24.62V600ZM150 0A125 125 0 0 0 25 125a25 25 0 0 0 25 25 25 25 0 0 0 25-25 75 75 0 0 1 75-75h200a75 75 0 0 1 75 75 25 25 0 0 0 25 25 25 25 0 0 0 25-25A125 125 0 0 0 350 0Zm0 50a25 25 0 0 0-25 25 25 25 0 0 0 25 25h100a75 75 0 0 1 75 75v300a75 75 0 0 1-75 75H150a25 25 0 0 0-25 25 25 25 0 0 0 25 25h100a125 125 0 0 0 125-125V175A125 125 0 0 0 250 50Zm-94.44 50.63a25 25 0 0 1 12.12 7.44v-.75l400 400h-.6A25 25 0 0 1 475 525a25 25 0 0 1-42.68 16.92v.76l-400-400h.6A25 25 0 0 1 25 125a25 25 0 0 1 30.56-24.37m12.12 41.3-.6.75h.6zm365.24 365.4h-.6v.75zM250 50a125 125 0 0 0-125 125v300a125 125 0 0 0 125 125h100a25 25 0 0 0 25-25 25 25 0 0 0-25-25H250a75 75 0 0 1-75-75V175a75 75 0 0 1 75-75h100a25 25 0 0 0 25-25 25 25 0 0 0-25-25Zm-205.562.627A25 25 0 0 0 25 75v350a125 125 0 0 0 125 125h300v-.63A25 25 0 0 0 475 525a25 25 0 0 0-2.137-9.453 25 25 0 0 0-2.744-3.97 25 25 0 0 0-2.824-3.956l-.215-.3h.6L75 114.64V75a25 25 0 0 0-30.562-24.373M75 185.359 389.64 500H150a75 75 0 0 1-75-75ZM150 100a125 125 0 0 0-68.877 20.764L67.68 107.32v.75a25 25 0 0 0-12.12-7.44A25 25 0 0 0 25 125a25 25 0 0 0 7.92 17.68h-.6l13.444 13.443A125 125 0 0 0 25 225a25 25 0 0 0 25 25 25 25 0 0 0 25-25 75 75 0 0 1 7.342-32.299l63.773 63.774a125 125 0 0 0-2.742 4.148l-.002.004a125 125 0 0 0-5.885 11.106 125 125 0 0 0-4.35 10 125 125 0 0 0-4.716 15.648 125 125 0 0 0-1.375 6.865 125 125 0 0 0-1.455 10.334A125 125 0 0 0 125 325a125 125 0 0 0 .59 10.42 125 125 0 0 0 1.455 10.334 125 125 0 0 0 1.375 6.865 125 125 0 0 0 4.717 15.649 125 125 0 0 0 4.35 10 125 125 0 0 0 5.884 11.105l.002.004a125 125 0 0 0 3.67 5.549 125 125 0 0 0 2.416 3.654l.002.002a125 125 0 0 0 35.992 33.084 125 125 0 0 0 2.973 1.668 125 125 0 0 0 11.959 6.115 125 125 0 0 0 4.068 1.559 125 125 0 0 0 11.844 4.176 125 125 0 0 0 5.885 1.316 125 125 0 0 0 10.779 2.238A125 125 0 0 0 250 450a125 125 0 0 0 17.598-1.318 125 125 0 0 0 3.922-.795 125 125 0 0 0 13.367-3 125 125 0 0 0 4.427-1.532 125 125 0 0 0 12.2-4.681 125 125 0 0 0 4.314-2.17 125 125 0 0 0 11.32-6.37 125 125 0 0 0 1.528-1.099l63.623 63.623A75 75 0 0 1 350 500H150a75 75 0 0 1-75-75 25 25 0 0 0-25-25 25 25 0 0 0-25 25 125 125 0 0 0 125 125h200a125 125 0 0 0 68.877-20.764l13.443 13.444v-.76A25 25 0 0 0 475 525a25 25 0 0 0-7.92-17.68h.6l-13.444-13.443A125 125 0 0 0 475 425V225a125 125 0 0 0-125-125Zm0 50h200a75 75 0 0 1 75 75v200a75 75 0 0 1-7.342 32.299l-63.773-63.774a125 125 0 0 0 2.373-3.59 125 125 0 0 0 7.451-14.03 125 125 0 0 0 2.713-6.315 125 125 0 0 0 5.219-17.268 125 125 0 0 0 1.275-6.373 125 125 0 0 0 1.336-9.39A125 125 0 0 0 375 325a125 125 0 0 0-.748-11.559 125 125 0 0 0-1.336-9.39 125 125 0 0 0-1.275-6.373 125 125 0 0 0-5.22-17.268 125 125 0 0 0-2.712-6.314 125 125 0 0 0-7.451-14.032A125 125 0 0 0 349.602 250h.296a125 125 0 0 0-32.746-30.133 125 125 0 0 0-11.324-6.37 125 125 0 0 0-4.314-2.17 125 125 0 0 0-12.2-4.682 125 125 0 0 0-4.427-1.532 125 125 0 0 0-13.367-3 125 125 0 0 0-3.922-.795A125 125 0 0 0 250 200a125 125 0 0 0-17.04 1.262 125 125 0 0 0-10.778 2.238 125 125 0 0 0-5.885 1.316 125 125 0 0 0-11.844 4.176 125 125 0 0 0-4.068 1.559 125 125 0 0 0-11.96 6.115 125 125 0 0 0-2.972 1.668 125 125 0 0 0-3.97 2.789L117.7 157.342A75 75 0 0 1 150 150m100 100a75 75 0 0 1 5.576.23 75 75 0 0 1 1.701.16 75 75 0 0 1 4.045.506 75 75 0 0 1 1.69.268 75 75 0 0 1 4.902 1.027l.59.131a75 75 0 0 1 5.38 1.604 75 75 0 0 1 1.454.523 75 75 0 0 1 3.842 1.498 75 75 0 0 1 1.668.721 75 75 0 0 1 4.052 1.982 75 75 0 0 1 .985.502 75 75 0 0 1 4.781 2.85 75 75 0 0 1 1.225.832 75 75 0 0 1 3.412 2.436 75 75 0 0 1 1.422 1.103 75 75 0 0 1 3.29 2.785 75 75 0 0 1 1.012.893 75 75 0 0 1 3.922 3.922 75 75 0 0 1 .893 1.011 75 75 0 0 1 2.785 3.291 75 75 0 0 1 1.103 1.422 75 75 0 0 1 2.436 3.412 75 75 0 0 1 .832 1.225 75 75 0 0 1 2.85 4.781 75 75 0 0 1 .502.985 75 75 0 0 1 1.982 4.052 75 75 0 0 1 .72 1.668 75 75 0 0 1 1.499 3.842 75 75 0 0 1 .523 1.453 75 75 0 0 1 1.604 5.381l.13.59a75 75 0 0 1 1.028 4.902 75 75 0 0 1 .268 1.69 75 75 0 0 1 .505 4.045 75 75 0 0 1 .16 1.7A75 75 0 0 1 325 325a75 75 0 0 1-.23 5.576 75 75 0 0 1-.16 1.701 75 75 0 0 1-.506 4.045 75 75 0 0 1-.268 1.69 75 75 0 0 1-1.027 4.902l-.131.59a75 75 0 0 1-1.604 5.38 75 75 0 0 1-.523 1.454 75 75 0 0 1-1.498 3.842 75 75 0 0 1-.721 1.668 75 75 0 0 1-.697 1.427l-99.742-99.742-.194-.193a75 75 0 0 1 2.397-.834l.011-.004.077-.027a75 75 0 0 1 10.191-3.567l.281-.076.008-.002a75 75 0 0 1 3.467-.928l.727-.195.008-.002A75 75 0 0 1 250 250m-67.66 42.7.193.193 99.742 99.742a75 75 0 0 1-1.427.697 75 75 0 0 1-1.668.72 75 75 0 0 1-3.842 1.499 75 75 0 0 1-1.453.523 75 75 0 0 1-5.381 1.604l-.59.13a75 75 0 0 1-4.902 1.028 75 75 0 0 1-1.69.268 75 75 0 0 1-4.045.505 75 75 0 0 1-1.7.16A75 75 0 0 1 250 400a75 75 0 0 1-15.135-1.705l-.008-.002-.726-.195a75 75 0 0 1-3.467-.928l-.008-.002-.281-.076a75 75 0 0 1-10.192-3.567l-.076-.027-.012-.004a75 75 0 0 1-2.396-.834l.193-.193-.006-.004a75 75 0 0 1-2.332-1.086 75 75 0 0 1-6.734-4.233 75 75 0 0 1-2.28-1.431 75 75 0 0 1-.931-.586 75 75 0 0 1-2.94-2.059 75 75 0 0 1-10.738-10.738 75 75 0 0 1-2.058-2.94 75 75 0 0 1-.586-.931 75 75 0 0 1-1.432-2.28 75 75 0 0 1-4.232-6.734 75 75 0 0 1-1.086-2.332l-.004-.006-.194.193a75 75 0 0 1-.834-2.396l-.004-.012-.027-.076a75 75 0 0 1-3.566-10.191l-.077-.282-.002-.008a75 75 0 0 1-.927-3.466l-.196-.727v-.002l-.002-.006A75 75 0 0 1 175 325a75 75 0 0 1 1.705-15.135l.002-.006v-.002l.195-.726a75 75 0 0 1 .928-3.467l.002-.008.076-.281a75 75 0 0 1 3.567-10.192l.027-.076.004-.012a75 75 0 0 1 .834-2.396zM50 100v.63a25 25 0 0 0-9.36 1.829l-.171.082a25 25 0 0 0-7.803 5.105 25 25 0 0 0-.514.645 25 25 0 0 0-4.982 7.205A25 25 0 0 0 25 125a25 25 0 0 0 2.137 9.453 25 25 0 0 0 2.744 3.97 25 25 0 0 0 2.824 3.956l.215.3h-.6L425 535.36V575a25 25 0 0 0 50 0V225a125 125 0 0 0-125-125Zm60.36 50H350a75 75 0 0 1 75 75v239.64ZM150 100a125 125 0 0 0-68.877 20.764L67.68 107.32v.75a25 25 0 0 0-12.12-7.44A25 25 0 0 0 25 125a25 25 0 0 0 7.92 17.68h-.6l13.444 13.443A125 125 0 0 0 25 225v350a25 25 0 0 0 50 0V225a75 75 0 0 1 7.732-31.908L425 535.359V575a25 25 0 0 0 50 0V225a125 125 0 0 0-125-125Zm0 50h200a75 75 0 0 1 75 75v239.64L118.092 157.733A75 75 0 0 1 150 150M44.438 50.627A25 25 0 0 0 25 75v350a125 125 0 0 0 125 125h200a125 125 0 0 0 125-125V75a25 25 0 0 0-50 0v350a75 75 0 0 1-75 75H150a75 75 0 0 1-75-75V75a25 25 0 0 0-30.562-24.373m0 0A25 25 0 0 0 25 75v350a125 125 0 0 0 125 125h300v-.63A25 25 0 0 0 475 525a25 25 0 0 0-25-24.37V500H150a75 75 0 0 1-75-75V75a25 25 0 0 0-30.562-24.373M150 100A125 125 0 0 0 25 225v200a125 125 0 0 0 125 125h200a125 125 0 0 0 125-125V225a125 125 0 0 0-125-125Zm0 50h200a75 75 0 0 1 75 75v200a75 75 0 0 1-75 75H150a75 75 0 0 1-75-75V225a75 75 0 0 1 75-75m0-50A125 125 0 0 0 25 225a25 25 0 0 0 25 25 25 25 0 0 0 25-25 75 75 0 0 1 75-75h200a75 75 0 0 1 75 75v200a75 75 0 0 1-75 75H150a75 75 0 0 1-75-75 25 25 0 0 0-25-25 25 25 0 0 0-25 25 125 125 0 0 0 125 125h200a125 125 0 0 0 125-125V225a125 125 0 0 0-125-125Zm0 0A125 125 0 0 0 25 225v200a125 125 0 0 0 125 125h200a125 125 0 0 0 125-125 25 25 0 0 0-25-25 25 25 0 0 0-25 25 75 75 0 0 1-75 75H150a75 75 0 0 1-75-75V225a75 75 0 0 1 75-75h200a75 75 0 0 1 75 75 25 25 0 0 0 25 25 25 25 0 0 0 25-25 125 125 0 0 0-125-125zm0 0a125 125 0 0 0-68.877 20.764L67.68 107.32v.75a25 25 0 0 0-12.12-7.44A25 25 0 0 0 25 125a25 25 0 0 0 7.92 17.68h-.6l13.444 13.443A125 125 0 0 0 25 225v350a25 25 0 0 0 50 0V225a75 75 0 0 1 7.732-31.908L432.32 542.68v-.76A25 25 0 0 0 475 525a25 25 0 0 0-7.92-17.68h.6L118.092 157.732A75 75 0 0 1 150 150h300v-.63A25 25 0 0 0 475 125a25 25 0 0 0-25-24.37V100Zm282.32 407.33h.6l-.6.75zM150 100A125 125 0 0 0 25 225v350a25 25 0 0 0 50 0V225a75 75 0 0 1 75-75h300v-.63A25 25 0 0 0 475 125a25 25 0 0 0-25-24.37V100Zm0 0a125 125 0 0 0-68.877 20.764L67.68 107.32v.75a25 25 0 0 0-12.12-7.44A25 25 0 0 0 25 125a25 25 0 0 0 7.92 17.68h-.6l13.444 13.443A125 125 0 0 0 25 225v200a125 125 0 0 0 125 125h200a125 125 0 0 0 68.877-20.764l13.443 13.444v-.76A25 25 0 0 0 475 525a25 25 0 0 0-7.92-17.68h.6l-13.444-13.443A125 125 0 0 0 475 425V225a125 125 0 0 0-125-125Zm0 50h200a75 75 0 0 1 75 75v200a75 75 0 0 1-7.342 32.299L117.701 157.342A75 75 0 0 1 150 150m-67.658 42.701 299.957 299.957A75 75 0 0 1 350 500H150a75 75 0 0 1-75-75V225a75 75 0 0 1 7.342-32.299M444.438 50.627A25 25 0 0 0 425 75v350a75 75 0 0 1-75 75H50v.63A25 25 0 0 0 25 525a25 25 0 0 0 25 24.37v.63h300a125 125 0 0 0 125-125V75a25 25 0 0 0-30.562-24.373m-400 0A25 25 0 0 0 25 75v350a125 125 0 0 0 125 125h300v-.63A25 25 0 0 0 475 525a25 25 0 0 0-2.135-9.45 25 25 0 0 0-2.775-4.015 25 25 0 0 0-2.795-3.914l-.215-.3h.6L353.885 393.524a125 125 0 0 0 2.373-3.59 125 125 0 0 0 7.451-14.03 125 125 0 0 0 2.713-6.315 125 125 0 0 0 5.219-17.268 125 125 0 0 0 1.275-6.373 125 125 0 0 0 1.336-9.39A125 125 0 0 0 375 325a125 125 0 0 0-.748-11.559 125 125 0 0 0-1.336-9.39 125 125 0 0 0-1.275-6.373 125 125 0 0 0-5.22-17.268 125 125 0 0 0-2.712-6.314 125 125 0 0 0-7.451-14.032A125 125 0 0 0 349.602 250h.296a125 125 0 0 0-32.746-30.133 125 125 0 0 0-11.324-6.37 125 125 0 0 0-4.314-2.17 125 125 0 0 0-12.2-4.682 125 125 0 0 0-4.427-1.532 125 125 0 0 0-13.367-3 125 125 0 0 0-3.922-.795A125 125 0 0 0 250 200a125 125 0 0 0-17.04 1.262 125 125 0 0 0-10.778 2.238 125 125 0 0 0-5.885 1.316 125 125 0 0 0-11.844 4.176 125 125 0 0 0-4.068 1.559 125 125 0 0 0-11.96 6.115 125 125 0 0 0-2.972 1.668 125 125 0 0 0-3.97 2.789L75 114.641V75a25 25 0 0 0-30.562-24.373M75 185.359l71.115 71.116a125 125 0 0 0-2.742 4.148l-.002.004a125 125 0 0 0-5.885 11.106 125 125 0 0 0-4.35 10 125 125 0 0 0-4.716 15.648 125 125 0 0 0-1.375 6.865 125 125 0 0 0-1.455 10.334A125 125 0 0 0 125 325a125 125 0 0 0 .59 10.42 125 125 0 0 0 1.455 10.334 125 125 0 0 0 1.375 6.865 125 125 0 0 0 4.717 15.649 125 125 0 0 0 4.35 10 125 125 0 0 0 5.884 11.105l.002.004a125 125 0 0 0 3.67 5.549 125 125 0 0 0 2.416 3.654l.002.002a125 125 0 0 0 35.992 33.084 125 125 0 0 0 2.973 1.668 125 125 0 0 0 11.959 6.115 125 125 0 0 0 4.068 1.559 125 125 0 0 0 11.844 4.176 125 125 0 0 0 5.885 1.316 125 125 0 0 0 10.779 2.238A125 125 0 0 0 250 450a125 125 0 0 0 17.598-1.318 125 125 0 0 0 3.922-.795 125 125 0 0 0 13.367-3 125 125 0 0 0 4.427-1.532 125 125 0 0 0 12.2-4.681 125 125 0 0 0 4.314-2.17 125 125 0 0 0 11.32-6.37 125 125 0 0 0 1.528-1.099L389.64 500H150a75 75 0 0 1-75-75ZM250 250a75 75 0 0 1 5.576.23 75 75 0 0 1 1.701.16 75 75 0 0 1 4.045.506 75 75 0 0 1 1.69.268 75 75 0 0 1 4.902 1.027l.59.131a75 75 0 0 1 5.38 1.604 75 75 0 0 1 1.454.523 75 75 0 0 1 3.842 1.498 75 75 0 0 1 1.668.721 75 75 0 0 1 4.052 1.982 75 75 0 0 1 .985.502 75 75 0 0 1 4.781 2.85 75 75 0 0 1 1.225.832 75 75 0 0 1 3.412 2.436 75 75 0 0 1 1.422 1.103 75 75 0 0 1 3.29 2.785 75 75 0 0 1 1.012.893 75 75 0 0 1 3.922 3.922 75 75 0 0 1 .893 1.011 75 75 0 0 1 2.785 3.291 75 75 0 0 1 1.103 1.422 75 75 0 0 1 2.436 3.412 75 75 0 0 1 .832 1.225 75 75 0 0 1 2.85 4.781 75 75 0 0 1 .502.985 75 75 0 0 1 1.982 4.052 75 75 0 0 1 .72 1.668 75 75 0 0 1 1.499 3.842 75 75 0 0 1 .523 1.453 75 75 0 0 1 1.604 5.381l.13.59a75 75 0 0 1 1.028 4.902 75 75 0 0 1 .268 1.69 75 75 0 0 1 .505 4.045 75 75 0 0 1 .16 1.7A75 75 0 0 1 325 325a75 75 0 0 1-.23 5.576 75 75 0 0 1-.16 1.701 75 75 0 0 1-.506 4.045 75 75 0 0 1-.268 1.69 75 75 0 0 1-1.027 4.902l-.131.59a75 75 0 0 1-1.604 5.38 75 75 0 0 1-.523 1.454 75 75 0 0 1-1.498 3.842 75 75 0 0 1-.721 1.668 75 75 0 0 1-.697 1.427l-99.742-99.742-.194-.193a75 75 0 0 1 2.397-.834l.011-.004.077-.027a75 75 0 0 1 10.191-3.567l.281-.076.008-.002a75 75 0 0 1 3.467-.928l.727-.195.008-.002A75 75 0 0 1 250 250m-67.66 42.7.193.193 99.742 99.742a75 75 0 0 1-1.427.697 75 75 0 0 1-1.668.72 75 75 0 0 1-3.842 1.499 75 75 0 0 1-1.453.523 75 75 0 0 1-5.381 1.604l-.59.13a75 75 0 0 1-4.902 1.028 75 75 0 0 1-1.69.268 75 75 0 0 1-4.045.505 75 75 0 0 1-1.7.16A75 75 0 0 1 250 400a75 75 0 0 1-15.135-1.705l-.008-.002-.726-.195a75 75 0 0 1-3.467-.928l-.008-.002-.281-.076a75 75 0 0 1-10.192-3.567l-.076-.027-.012-.004a75 75 0 0 1-2.396-.834l.193-.193-.006-.004a75 75 0 0 1-2.332-1.086 75 75 0 0 1-6.734-4.233 75 75 0 0 1-2.28-1.431 75 75 0 0 1-.931-.586 75 75 0 0 1-2.94-2.059 75 75 0 0 1-10.738-10.738 75 75 0 0 1-2.058-2.94 75 75 0 0 1-.586-.931 75 75 0 0 1-1.432-2.28 75 75 0 0 1-4.232-6.734 75 75 0 0 1-1.086-2.332l-.004-.006-.194.193a75 75 0 0 1-.834-2.396l-.004-.012-.027-.076a75 75 0 0 1-3.566-10.191l-.077-.282-.002-.008a75 75 0 0 1-.927-3.466l-.196-.727v-.002l-.002-.006A75 75 0 0 1 175 325a75 75 0 0 1 1.705-15.135l.002-.006v-.002l.195-.726a75 75 0 0 1 .928-3.467l.002-.008.076-.281a75 75 0 0 1 3.567-10.192l.027-.076.004-.012a75 75 0 0 1 .834-2.396zM50 100v.63A25 25 0 0 0 25 125a25 25 0 0 0 25 24.37v.63h300a75 75 0 0 1 75 75v350a25 25 0 0 0 50 0V225a125 125 0 0 0-125-125Zm394.438-49.373A25 25 0 0 0 425 75v350a75 75 0 0 1-7.732 31.908L67.68 107.32v.75a25 25 0 0 0-12.12-7.44A25 25 0 0 0 25 125a25 25 0 0 0 7.92 17.68h-.6l349.588 349.588A75 75 0 0 1 350 500H50v.63A25 25 0 0 0 25 525a25 25 0 0 0 25 24.37v.63h300a125 125 0 0 0 68.877-20.764l13.443 13.444v-.76A25 25 0 0 0 475 525a25 25 0 0 0-7.92-17.68h.6l-13.444-13.443A125 125 0 0 0 475 425V75a25 25 0 0 0-30.562-24.373M67.68 141.93v.75h-.6zM150 100A125 125 0 0 0 25 225v350a25 25 0 0 0 50 0V225a75 75 0 0 1 75-75h200a75 75 0 0 1 75 75v350a25 25 0 0 0 50 0V225a125 125 0 0 0-125-125ZM44.438 50.627A25 25 0 0 0 25 75v350a125 125 0 0 0 125 125h200a125 125 0 0 0 68.877-20.764l13.443 13.444v-.76A25 25 0 0 0 475 525a25 25 0 0 0-7.92-17.68h.6l-13.444-13.443A125 125 0 0 0 475 425V75a25 25 0 0 0-50 0v350a75 75 0 0 1-7.732 31.908L75 114.641V75a25 25 0 0 0-30.562-24.373M75 185.359l306.908 306.909A75 75 0 0 1 350 500H150a75 75 0 0 1-75-75ZM150 100a125 125 0 0 0-68.877 20.764L67.68 107.32v.75a25 25 0 0 0-12.12-7.44A25 25 0 0 0 25 125a25 25 0 0 0 7.92 17.68h-.6l13.444 13.443A125 125 0 0 0 25 225a25 25 0 0 0 25 25 25 25 0 0 0 25-25 75 75 0 0 1 7.342-32.299l299.957 299.957A75 75 0 0 1 350 500H150a75 75 0 0 1-75-75 25 25 0 0 0-25-25 25 25 0 0 0-25 25 125 125 0 0 0 125 125h200a125 125 0 0 0 68.877-20.764l13.443 13.444v-.76A25 25 0 0 0 475 525a25 25 0 0 0-7.92-17.68h.6l-13.444-13.443A125 125 0 0 0 475 425V225a125 125 0 0 0-125-125Zm0 50h200a75 75 0 0 1 75 75v200a75 75 0 0 1-7.342 32.299L117.701 157.342A75 75 0 0 1 150 150m0-50a125 125 0 0 0-68.877 20.764L67.68 107.32v.75a25 25 0 0 0-12.12-7.44A25 25 0 0 0 25 125a25 25 0 0 0 7.92 17.68h-.6l13.444 13.443A125 125 0 0 0 25 225v200a125 125 0 0 0 125 125h200a125 125 0 0 0 68.877-20.764l13.443 13.444v-.76A25 25 0 0 0 475 525a25 25 0 0 0-7.92-17.68h.6l-13.444-13.443A125 125 0 0 0 475 425a25 25 0 0 0-25-25 25 25 0 0 0-25 25 75 75 0 0 1-7.342 32.299L117.701 157.342A75 75 0 0 1 150 150h200a75 75 0 0 1 75 75 25 25 0 0 0 25 25 25 25 0 0 0 25-25 125 125 0 0 0-125-125Zm-67.658 92.701 299.957 299.957A75 75 0 0 1 350 500H150a75 75 0 0 1-75-75V225a75 75 0 0 1 7.342-32.299M150 100a125 125 0 0 0-68.88 20.77l-13.44-13.45h-.6a25 25 0 0 0-34.16 0h-.6v.76A25 25 0 0 0 25 125a25 25 0 0 0 7.32 16.92v.76l13.44 13.44A125 125 0 0 0 25 225v200a125 125 0 0 0 125 125h200a125 125 0 0 0 68.88-20.76l13.44 13.44h.6a25 25 0 0 0 34.16 0h.6v-.76A25 25 0 0 0 475 525a25 25 0 0 0-7.32-16.92v-.76l-13.45-13.44A125 125 0 0 0 475 425V225a125 125 0 0 0-125-125Zm0 50h200a75 75 0 0 1 75 75v200a75 75 0 0 1-7.34 32.3l-63.47-63.47A125 125 0 0 0 375 325a125 125 0 0 0-125-125 125 125 0 0 0-68.88 20.77l-63.42-63.43A75 75 0 0 1 150 150m-67.66 42.7 63.42 63.42A125 125 0 0 0 125 325a125 125 0 0 0 125 125 125 125 0 0 0 68.83-20.81l63.47 63.47A75 75 0 0 1 350 500H150a75 75 0 0 1-75-75V225a75 75 0 0 1 7.34-32.3M250 250a75 75 0 0 1 75 75 75 75 0 0 1-7.38 32.26l-99.92-99.92A75 75 0 0 1 250 250m-67.66 42.7 99.92 99.92A75 75 0 0 1 250 400a75 75 0 0 1-75-75 75 75 0 0 1 7.34-32.3M250 75a50 50 0 0 0-50 50 50 50 0 0 0 50 50 50 50 0 0 0 50-50 50 50 0 0 0-50-50m0 200a50 50 0 0 0-50 50 50 50 0 0 0 50 50 50 50 0 0 0 50-50 50 50 0 0 0-50-50m0 200a50 50 0 0 0-50 50 50 50 0 0 0 50 50 50 50 0 0 0 50-50 50 50 0 0 0-50-50M150 200v.25A25 25 0 0 0 125 225a25 25 0 0 0 25 24.75v.25h100a75 75 0 0 1 75 75 75 75 0 0 1-75 75H150v.25A25 25 0 0 0 125 425a25 25 0 0 0 25 24.75v.25h100a125 125 0 0 0 125-125 125 125 0 0 0-125-125Zm0 0a25 25 0 0 0-25 25 25 25 0 0 0 25 25h200a25 25 0 0 0 25-25 25 25 0 0 0-25-25zm0 200a25 25 0 0 0-25 25 25 25 0 0 0 25 25h200a25 25 0 0 0 25-25 25 25 0 0 0-25-25zm100-200a125 125 0 0 0-125 125 125 125 0 0 0 125 125h100v-.25A25 25 0 0 0 375 425a25 25 0 0 0-25-24.75V400H250a75 75 0 0 1-75-75 75 75 0 0 1 75-75h100v-.25A25 25 0 0 0 375 225a25 25 0 0 0-25-24.75V200ZM50 100a25 25 0 0 0-16.92 42.68h-.76l169.383 169.383A50 50 0 0 0 200 325a50 50 0 0 0 50 50 50 50 0 0 0 12.938-1.703L432.32 542.68v-.6A25 25 0 0 0 450 550a25 25 0 0 0 24.37-30.56 25 25 0 0 0-7.44-12.12h.75L298.297 337.938A50 50 0 0 0 300 325a50 50 0 0 0-50-50 50 50 0 0 0-12.937 1.703L67.68 107.32v.6A25 25 0 0 0 50 100m0 175a50 50 0 0 0-50 50 50 50 0 0 0 50 50 50 50 0 0 0 50-50 50 50 0 0 0-50-50m400 0a50 50 0 0 0-50 50 50 50 0 0 0 50 50 50 50 0 0 0 50-50 50 50 0 0 0-50-50M250 75a50 50 0 0 0-50 50 50 50 0 0 0 50 50 50 50 0 0 0 50-50 50 50 0 0 0-50-50M50 100a25 25 0 0 0-16.92 42.68h-.76l169.682 169.68A50 50 0 0 0 200 325a50 50 0 0 0 50 50 50 50 0 0 0 12.639-2.002L432.32 542.68v-.6A25 25 0 0 0 450 550a25 25 0 0 0 24.37-30.56 25 25 0 0 0-7.44-12.12h.75L297.998 337.64A50 50 0 0 0 300 325a50 50 0 0 0-50-50 50 50 0 0 0-12.639 2.002L67.68 107.32v.6A25 25 0 0 0 50 100m17.68 42.08v.6h-.76ZM50 275a50 50 0 0 0-50 50 50 50 0 0 0 50 50 50 50 0 0 0 50-50 50 50 0 0 0-50-50m400 0a50 50 0 0 0-50 50 50 50 0 0 0 50 50 50 50 0 0 0 50-50 50 50 0 0 0-50-50M250 475a50 50 0 0 0-50 50 50 50 0 0 0 50 50 50 50 0 0 0 50-50 50 50 0 0 0-50-50m182.32 32.32h.75l-.75.6zM150 100A125 125 0 0 0 25 225v350a25 25 0 0 0 50 0V225a75 75 0 0 1 75-75h300v-.63A25 25 0 0 0 475 125a25 25 0 0 0-25-24.37V100Zm100 100a125 125 0 0 0-17.04 1.262 125 125 0 0 0-10.778 2.238 125 125 0 0 0-5.885 1.316 125 125 0 0 0-11.844 4.176 125 125 0 0 0-4.068 1.559 125 125 0 0 0-11.96 6.115 125 125 0 0 0-2.972 1.668 125 125 0 0 0-35.992 33.084l-.002.002a125 125 0 0 0-2.416 3.654 125 125 0 0 0-3.67 5.55l-.002.003a125 125 0 0 0-5.885 11.106 125 125 0 0 0-4.35 10 125 125 0 0 0-4.716 15.648 125 125 0 0 0-1.375 6.865 125 125 0 0 0-1.455 10.334A125 125 0 0 0 125 325a125 125 0 0 0 .59 10.42 125 125 0 0 0 1.455 10.334 125 125 0 0 0 1.375 6.865 125 125 0 0 0 4.717 15.649 125 125 0 0 0 4.35 10 125 125 0 0 0 5.884 11.105l.002.004a125 125 0 0 0 3.67 5.549 125 125 0 0 0 2.416 3.654l.002.002a125 125 0 0 0 35.992 33.084 125 125 0 0 0 2.973 1.668 125 125 0 0 0 11.959 6.115 125 125 0 0 0 4.068 1.559 125 125 0 0 0 11.844 4.176 125 125 0 0 0 5.885 1.316 125 125 0 0 0 10.779 2.238A125 125 0 0 0 250 450a125 125 0 0 0 17.598-1.318 125 125 0 0 0 3.922-.795 125 125 0 0 0 13.367-3 125 125 0 0 0 4.427-1.532 125 125 0 0 0 12.2-4.681 125 125 0 0 0 4.314-2.17 125 125 0 0 0 11.32-6.37A125 125 0 0 0 349.898 400h-.296a125 125 0 0 0 6.656-10.064 125 125 0 0 0 7.451-14.032 125 125 0 0 0 2.713-6.314 125 125 0 0 0 5.219-17.268 125 125 0 0 0 1.275-6.373 125 125 0 0 0 1.336-9.39A125 125 0 0 0 375 325a125 125 0 0 0-.748-11.559 125 125 0 0 0-1.336-9.39 125 125 0 0 0-1.275-6.373 125 125 0 0 0-5.22-17.268 125 125 0 0 0-2.712-6.314 125 125 0 0 0-7.451-14.032A125 125 0 0 0 349.602 250h.296a125 125 0 0 0-32.746-30.133 125 125 0 0 0-11.324-6.37 125 125 0 0 0-4.314-2.17 125 125 0 0 0-12.2-4.682 125 125 0 0 0-4.427-1.532 125 125 0 0 0-13.367-3 125 125 0 0 0-3.922-.795A125 125 0 0 0 250 200m0 50a75 75 0 0 1 5.576.23 75 75 0 0 1 1.701.16 75 75 0 0 1 4.045.506 75 75 0 0 1 1.69.268 75 75 0 0 1 4.902 1.027l.59.131a75 75 0 0 1 5.38 1.604 75 75 0 0 1 1.454.523 75 75 0 0 1 3.842 1.498 75 75 0 0 1 1.668.721 75 75 0 0 1 4.052 1.982 75 75 0 0 1 .985.502 75 75 0 0 1 4.781 2.85 75 75 0 0 1 1.225.832 75 75 0 0 1 3.412 2.436 75 75 0 0 1 1.422 1.103 75 75 0 0 1 3.29 2.785 75 75 0 0 1 1.012.893 75 75 0 0 1 3.922 3.922 75 75 0 0 1 .893 1.011 75 75 0 0 1 2.785 3.291 75 75 0 0 1 1.103 1.422 75 75 0 0 1 2.436 3.412 75 75 0 0 1 .832 1.225 75 75 0 0 1 2.85 4.781 75 75 0 0 1 .502.985 75 75 0 0 1 1.982 4.052 75 75 0 0 1 .72 1.668 75 75 0 0 1 1.499 3.842 75 75 0 0 1 .523 1.453 75 75 0 0 1 1.604 5.381l.13.59a75 75 0 0 1 1.028 4.902 75 75 0 0 1 .268 1.69 75 75 0 0 1 .505 4.045 75 75 0 0 1 .16 1.7A75 75 0 0 1 325 325a75 75 0 0 1-.23 5.576 75 75 0 0 1-.16 1.701 75 75 0 0 1-.506 4.045 75 75 0 0 1-.268 1.69 75 75 0 0 1-1.027 4.902l-.131.59a75 75 0 0 1-1.604 5.38 75 75 0 0 1-.523 1.454 75 75 0 0 1-1.498 3.842 75 75 0 0 1-.721 1.668 75 75 0 0 1-1.982 4.052 75 75 0 0 1-.502.985 75 75 0 0 1-2.85 4.781 75 75 0 0 1-.832 1.225 75 75 0 0 1-2.436 3.412 75 75 0 0 1-1.103 1.422 75 75 0 0 1-2.785 3.29 75 75 0 0 1-.893 1.012 75 75 0 0 1-3.922 3.922 75 75 0 0 1-1.011.893 75 75 0 0 1-3.291 2.785 75 75 0 0 1-1.422 1.103 75 75 0 0 1-3.412 2.436 75 75 0 0 1-1.225.832 75 75 0 0 1-4.781 2.85 75 75 0 0 1-.985.502 75 75 0 0 1-4.052 1.982 75 75 0 0 1-1.668.72 75 75 0 0 1-3.842 1.499 75 75 0 0 1-1.453.523 75 75 0 0 1-5.381 1.604l-.59.13a75 75 0 0 1-4.902 1.028 75 75 0 0 1-1.69.268 75 75 0 0 1-4.045.505 75 75 0 0 1-1.7.16A75 75 0 0 1 250 400a75 75 0 0 1-15.135-1.705l-.008-.002-.726-.195a75 75 0 0 1-3.467-.928l-.008-.002-.281-.076a75 75 0 0 1-10.192-3.567l-.076-.027-.012-.004a75 75 0 0 1-2.396-.834l.193-.193-.006-.004a75 75 0 0 1-2.332-1.086 75 75 0 0 1-6.734-4.233 75 75 0 0 1-2.28-1.431 75 75 0 0 1-.931-.586 75 75 0 0 1-2.94-2.059 75 75 0 0 1-10.738-10.738 75 75 0 0 1-2.058-2.94 75 75 0 0 1-.586-.931 75 75 0 0 1-1.432-2.28 75 75 0 0 1-4.232-6.734 75 75 0 0 1-1.086-2.332l-.004-.006-.194.193a75 75 0 0 1-.834-2.396l-.004-.012-.027-.076a75 75 0 0 1-3.566-10.191l-.077-.282-.002-.008a75 75 0 0 1-.927-3.466l-.196-.727v-.002l-.002-.006A75 75 0 0 1 175 325a75 75 0 0 1 1.705-15.135l.002-.006v-.002l.195-.726a75 75 0 0 1 .928-3.467l.002-.008.076-.281a75 75 0 0 1 3.567-10.192l.027-.076.004-.012a75 75 0 0 1 .834-2.396l.193.193.004-.006a75 75 0 0 1 1.086-2.332 75 75 0 0 1 4.233-6.734 75 75 0 0 1 1.431-2.28 75 75 0 0 1 .586-.931 75 75 0 0 1 2.059-2.94 75 75 0 0 1 10.738-10.738 75 75 0 0 1 2.94-2.058 75 75 0 0 1 .931-.586 75 75 0 0 1 2.28-1.432 75 75 0 0 1 6.734-4.232 75 75 0 0 1 2.332-1.086l.006-.004-.193-.194a75 75 0 0 1 2.396-.834l.012-.004.076-.027a75 75 0 0 1 10.191-3.566l.282-.077.008-.002a75 75 0 0 1 3.466-.927l.727-.196.008-.002A75 75 0 0 1 250 250M150 100A125 125 0 0 0 25 225v350a25 25 0 0 0 50 0V225a75 75 0 0 1 75-75h200a75 75 0 0 1 75 75v350a25 25 0 0 0 50 0V225a125 125 0 0 0-125-125Zm100 100a125 125 0 0 0-17.04 1.262 125 125 0 0 0-10.778 2.238 125 125 0 0 0-5.885 1.316 125 125 0 0 0-11.844 4.176 125 125 0 0 0-4.068 1.559 125 125 0 0 0-11.96 6.115 125 125 0 0 0-2.972 1.668 125 125 0 0 0-35.992 33.084l-.002.002a125 125 0 0 0-2.416 3.654 125 125 0 0 0-3.67 5.55l-.002.003a125 125 0 0 0-5.885 11.106 125 125 0 0 0-4.35 10 125 125 0 0 0-4.716 15.648 125 125 0 0 0-1.375 6.865 125 125 0 0 0-1.455 10.334A125 125 0 0 0 125 325a125 125 0 0 0 .59 10.42 125 125 0 0 0 1.455 10.334 125 125 0 0 0 1.375 6.865 125 125 0 0 0 4.717 15.649 125 125 0 0 0 4.35 10 125 125 0 0 0 5.884 11.105l.002.004a125 125 0 0 0 3.67 5.549 125 125 0 0 0 2.416 3.654l.002.002a125 125 0 0 0 35.992 33.084 125 125 0 0 0 2.973 1.668 125 125 0 0 0 11.959 6.115 125 125 0 0 0 4.068 1.559 125 125 0 0 0 11.844 4.176 125 125 0 0 0 5.885 1.316 125 125 0 0 0 10.779 2.238A125 125 0 0 0 250 450a125 125 0 0 0 17.598-1.318 125 125 0 0 0 3.922-.795 125 125 0 0 0 13.367-3 125 125 0 0 0 4.427-1.532 125 125 0 0 0 12.2-4.681 125 125 0 0 0 4.314-2.17 125 125 0 0 0 11.32-6.37A125 125 0 0 0 349.898 400h-.296a125 125 0 0 0 6.656-10.064 125 125 0 0 0 7.451-14.032 125 125 0 0 0 2.713-6.314 125 125 0 0 0 5.219-17.268 125 125 0 0 0 1.275-6.373 125 125 0 0 0 1.336-9.39A125 125 0 0 0 375 325a125 125 0 0 0-.748-11.559 125 125 0 0 0-1.336-9.39 125 125 0 0 0-1.275-6.373 125 125 0 0 0-5.22-17.268 125 125 0 0 0-2.712-6.314 125 125 0 0 0-7.451-14.032A125 125 0 0 0 349.602 250h.296a125 125 0 0 0-32.746-30.133 125 125 0 0 0-11.324-6.37 125 125 0 0 0-4.314-2.17 125 125 0 0 0-12.2-4.682 125 125 0 0 0-4.427-1.532 125 125 0 0 0-13.367-3 125 125 0 0 0-3.922-.795A125 125 0 0 0 250 200m0 50a75 75 0 0 1 5.576.23 75 75 0 0 1 1.701.16 75 75 0 0 1 4.045.506 75 75 0 0 1 1.69.268 75 75 0 0 1 4.902 1.027l.59.131a75 75 0 0 1 5.38 1.604 75 75 0 0 1 1.454.523 75 75 0 0 1 3.842 1.498 75 75 0 0 1 1.668.721 75 75 0 0 1 4.052 1.982 75 75 0 0 1 .985.502 75 75 0 0 1 4.781 2.85 75 75 0 0 1 1.225.832 75 75 0 0 1 3.412 2.436 75 75 0 0 1 1.422 1.103 75 75 0 0 1 3.29 2.785 75 75 0 0 1 1.012.893 75 75 0 0 1 3.922 3.922 75 75 0 0 1 .893 1.011 75 75 0 0 1 2.785 3.291 75 75 0 0 1 1.103 1.422 75 75 0 0 1 2.436 3.412 75 75 0 0 1 .832 1.225 75 75 0 0 1 2.85 4.781 75 75 0 0 1 .502.985 75 75 0 0 1 1.982 4.052 75 75 0 0 1 .72 1.668 75 75 0 0 1 1.499 3.842 75 75 0 0 1 .523 1.453 75 75 0 0 1 1.604 5.381l.13.59a75 75 0 0 1 1.028 4.902 75 75 0 0 1 .268 1.69 75 75 0 0 1 .505 4.045 75 75 0 0 1 .16 1.7A75 75 0 0 1 325 325a75 75 0 0 1-.23 5.576 75 75 0 0 1-.16 1.701 75 75 0 0 1-.506 4.045 75 75 0 0 1-.268 1.69 75 75 0 0 1-1.027 4.902l-.131.59a75 75 0 0 1-1.604 5.38 75 75 0 0 1-.523 1.454 75 75 0 0 1-1.498 3.842 75 75 0 0 1-.721 1.668 75 75 0 0 1-1.982 4.052 75 75 0 0 1-.502.985 75 75 0 0 1-2.85 4.781 75 75 0 0 1-.832 1.225 75 75 0 0 1-2.436 3.412 75 75 0 0 1-1.103 1.422 75 75 0 0 1-2.785 3.29 75 75 0 0 1-.893 1.012 75 75 0 0 1-3.922 3.922 75 75 0 0 1-1.011.893 75 75 0 0 1-3.291 2.785 75 75 0 0 1-1.422 1.103 75 75 0 0 1-3.412 2.436 75 75 0 0 1-1.225.832 75 75 0 0 1-4.781 2.85 75 75 0 0 1-.985.502 75 75 0 0 1-4.052 1.982 75 75 0 0 1-1.668.72 75 75 0 0 1-3.842 1.499 75 75 0 0 1-1.453.523 75 75 0 0 1-5.381 1.604l-.59.13a75 75 0 0 1-4.902 1.028 75 75 0 0 1-1.69.268 75 75 0 0 1-4.045.505 75 75 0 0 1-1.7.16A75 75 0 0 1 250 400a75 75 0 0 1-15.135-1.705l-.008-.002-.726-.195a75 75 0 0 1-3.467-.928l-.008-.002-.281-.076a75 75 0 0 1-10.192-3.567l-.076-.027-.012-.004a75 75 0 0 1-2.396-.834l.193-.193-.006-.004a75 75 0 0 1-2.332-1.086 75 75 0 0 1-6.734-4.233 75 75 0 0 1-2.28-1.431 75 75 0 0 1-.931-.586 75 75 0 0 1-2.94-2.059 75 75 0 0 1-10.738-10.738 75 75 0 0 1-2.058-2.94 75 75 0 0 1-.586-.931 75 75 0 0 1-1.432-2.28 75 75 0 0 1-4.232-6.734 75 75 0 0 1-1.086-2.332l-.004-.006-.194.193a75 75 0 0 1-.834-2.396l-.004-.012-.027-.076a75 75 0 0 1-3.566-10.191l-.077-.282-.002-.008a75 75 0 0 1-.927-3.466l-.196-.727v-.002l-.002-.006A75 75 0 0 1 175 325a75 75 0 0 1 1.705-15.135l.002-.006v-.002l.195-.726a75 75 0 0 1 .928-3.467l.002-.008.076-.281a75 75 0 0 1 3.567-10.192l.027-.076.004-.012a75 75 0 0 1 .834-2.396l.193.193.004-.006a75 75 0 0 1 1.086-2.332 75 75 0 0 1 4.233-6.734 75 75 0 0 1 1.431-2.28 75 75 0 0 1 .586-.931 75 75 0 0 1 2.059-2.94 75 75 0 0 1 10.738-10.738 75 75 0 0 1 2.94-2.058 75 75 0 0 1 .931-.586 75 75 0 0 1 2.28-1.432 75 75 0 0 1 6.734-4.232 75 75 0 0 1 2.332-1.086l.006-.004-.193-.194a75 75 0 0 1 2.396-.834l.012-.004.076-.027a75 75 0 0 1 10.191-3.566l.282-.077.008-.002a75 75 0 0 1 3.466-.927l.727-.196.008-.002A75 75 0 0 1 250 250M50 100v.63A25 25 0 0 0 25 125a25 25 0 0 0 25 24.37v.63h300a75 75 0 0 1 75 75v350a25 25 0 0 0 50 0V225a125 125 0 0 0-125-125Zm200 100a125 125 0 0 0-17.04 1.262 125 125 0 0 0-10.778 2.238 125 125 0 0 0-5.885 1.316 125 125 0 0 0-11.844 4.176 125 125 0 0 0-4.068 1.559 125 125 0 0 0-11.96 6.115 125 125 0 0 0-2.972 1.668 125 125 0 0 0-35.992 33.084l-.002.002a125 125 0 0 0-2.416 3.654 125 125 0 0 0-3.67 5.55l-.002.003a125 125 0 0 0-5.885 11.106 125 125 0 0 0-4.35 10 125 125 0 0 0-4.716 15.648 125 125 0 0 0-1.375 6.865 125 125 0 0 0-1.455 10.334A125 125 0 0 0 125 325a125 125 0 0 0 .59 10.42 125 125 0 0 0 1.455 10.334 125 125 0 0 0 1.375 6.865 125 125 0 0 0 4.717 15.649 125 125 0 0 0 4.35 10 125 125 0 0 0 5.884 11.105l.002.004a125 125 0 0 0 3.67 5.549 125 125 0 0 0 2.416 3.654l.002.002a125 125 0 0 0 35.992 33.084 125 125 0 0 0 2.973 1.668 125 125 0 0 0 11.959 6.115 125 125 0 0 0 4.068 1.559 125 125 0 0 0 11.844 4.176 125 125 0 0 0 5.885 1.316 125 125 0 0 0 10.779 2.238A125 125 0 0 0 250 450a125 125 0 0 0 17.598-1.318 125 125 0 0 0 3.922-.795 125 125 0 0 0 13.367-3 125 125 0 0 0 4.427-1.532 125 125 0 0 0 12.2-4.681 125 125 0 0 0 4.314-2.17 125 125 0 0 0 11.32-6.37A125 125 0 0 0 349.898 400h-.296a125 125 0 0 0 6.656-10.064 125 125 0 0 0 7.451-14.032 125 125 0 0 0 2.713-6.314 125 125 0 0 0 5.219-17.268 125 125 0 0 0 1.275-6.373 125 125 0 0 0 1.336-9.39A125 125 0 0 0 375 325a125 125 0 0 0-.748-11.559 125 125 0 0 0-1.336-9.39 125 125 0 0 0-1.275-6.373 125 125 0 0 0-5.22-17.268 125 125 0 0 0-2.712-6.314 125 125 0 0 0-7.451-14.032A125 125 0 0 0 349.602 250h.296a125 125 0 0 0-32.746-30.133 125 125 0 0 0-11.324-6.37 125 125 0 0 0-4.314-2.17 125 125 0 0 0-12.2-4.682 125 125 0 0 0-4.427-1.532 125 125 0 0 0-13.367-3 125 125 0 0 0-3.922-.795A125 125 0 0 0 250 200m0 50a75 75 0 0 1 5.576.23 75 75 0 0 1 1.701.16 75 75 0 0 1 4.045.506 75 75 0 0 1 1.69.268 75 75 0 0 1 4.902 1.027l.59.131a75 75 0 0 1 5.38 1.604 75 75 0 0 1 1.454.523 75 75 0 0 1 3.842 1.498 75 75 0 0 1 1.668.721 75 75 0 0 1 4.052 1.982 75 75 0 0 1 .985.502 75 75 0 0 1 4.781 2.85 75 75 0 0 1 1.225.832 75 75 0 0 1 3.412 2.436 75 75 0 0 1 1.422 1.103 75 75 0 0 1 3.29 2.785 75 75 0 0 1 1.012.893 75 75 0 0 1 3.922 3.922 75 75 0 0 1 .893 1.011 75 75 0 0 1 2.785 3.291 75 75 0 0 1 1.103 1.422 75 75 0 0 1 2.436 3.412 75 75 0 0 1 .832 1.225 75 75 0 0 1 2.85 4.781 75 75 0 0 1 .502.985 75 75 0 0 1 1.982 4.052 75 75 0 0 1 .72 1.668 75 75 0 0 1 1.499 3.842 75 75 0 0 1 .523 1.453 75 75 0 0 1 1.604 5.381l.13.59a75 75 0 0 1 1.028 4.902 75 75 0 0 1 .268 1.69 75 75 0 0 1 .505 4.045 75 75 0 0 1 .16 1.7A75 75 0 0 1 325 325a75 75 0 0 1-.23 5.576 75 75 0 0 1-.16 1.701 75 75 0 0 1-.506 4.045 75 75 0 0 1-.268 1.69 75 75 0 0 1-1.027 4.902l-.131.59a75 75 0 0 1-1.604 5.38 75 75 0 0 1-.523 1.454 75 75 0 0 1-1.498 3.842 75 75 0 0 1-.721 1.668 75 75 0 0 1-1.982 4.052 75 75 0 0 1-.502.985 75 75 0 0 1-2.85 4.781 75 75 0 0 1-.832 1.225 75 75 0 0 1-2.436 3.412 75 75 0 0 1-1.103 1.422 75 75 0 0 1-2.785 3.29 75 75 0 0 1-.893 1.012 75 75 0 0 1-3.922 3.922 75 75 0 0 1-1.011.893 75 75 0 0 1-3.291 2.785 75 75 0 0 1-1.422 1.103 75 75 0 0 1-3.412 2.436 75 75 0 0 1-1.225.832 75 75 0 0 1-4.781 2.85 75 75 0 0 1-.985.502 75 75 0 0 1-4.052 1.982 75 75 0 0 1-1.668.72 75 75 0 0 1-3.842 1.499 75 75 0 0 1-1.453.523 75 75 0 0 1-5.381 1.604l-.59.13a75 75 0 0 1-4.902 1.028 75 75 0 0 1-1.69.268 75 75 0 0 1-4.045.505 75 75 0 0 1-1.7.16A75 75 0 0 1 250 400a75 75 0 0 1-15.135-1.705l-.008-.002-.726-.195a75 75 0 0 1-3.467-.928l-.008-.002-.281-.076a75 75 0 0 1-10.192-3.567l-.076-.027-.012-.004a75 75 0 0 1-2.396-.834l.193-.193-.006-.004a75 75 0 0 1-2.332-1.086 75 75 0 0 1-6.734-4.233 75 75 0 0 1-2.28-1.431 75 75 0 0 1-.931-.586 75 75 0 0 1-2.94-2.059 75 75 0 0 1-10.738-10.738 75 75 0 0 1-2.058-2.94 75 75 0 0 1-.586-.931 75 75 0 0 1-1.432-2.28 75 75 0 0 1-4.232-6.734 75 75 0 0 1-1.086-2.332l-.004-.006-.194.193a75 75 0 0 1-.834-2.396l-.004-.012-.027-.076a75 75 0 0 1-3.566-10.191l-.077-.282-.002-.008a75 75 0 0 1-.927-3.466l-.196-.727v-.002l-.002-.006A75 75 0 0 1 175 325a75 75 0 0 1 1.705-15.135l.002-.006v-.002l.195-.726a75 75 0 0 1 .928-3.467l.002-.008.076-.281a75 75 0 0 1 3.567-10.192l.027-.076.004-.012a75 75 0 0 1 .834-2.396l.193.193.004-.006a75 75 0 0 1 1.086-2.332 75 75 0 0 1 4.233-6.734 75 75 0 0 1 1.431-2.28 75 75 0 0 1 .586-.931 75 75 0 0 1 2.059-2.94 75 75 0 0 1 10.738-10.738 75 75 0 0 1 2.94-2.058 75 75 0 0 1 .931-.586 75 75 0 0 1 2.28-1.432 75 75 0 0 1 6.734-4.232 75 75 0 0 1 2.332-1.086l.006-.004-.193-.194a75 75 0 0 1 2.396-.834l.012-.004.076-.027a75 75 0 0 1 10.191-3.566l.282-.077.008-.002a75 75 0 0 1 3.466-.927l.727-.196.008-.002A75 75 0 0 1 250 250M150 100A125 125 0 0 0 25 225v200a125 125 0 0 0 125 125h200a125 125 0 0 0 125-125 25 25 0 0 0-25-25 25 25 0 0 0-25 25 75 75 0 0 1-75 75H150a75 75 0 0 1-75-75V225a75 75 0 0 1 75-75h200a75 75 0 0 1 75 75 25 25 0 0 0 25 25 25 25 0 0 0 25-25 125 125 0 0 0-125-125zm100 100a125 125 0 0 0-17.04 1.262 125 125 0 0 0-10.778 2.238 125 125 0 0 0-5.885 1.316 125 125 0 0 0-11.844 4.176 125 125 0 0 0-4.068 1.559 125 125 0 0 0-11.96 6.115 125 125 0 0 0-2.972 1.668 125 125 0 0 0-35.992 33.084l-.002.002a125 125 0 0 0-2.416 3.654 125 125 0 0 0-3.67 5.55l-.002.003a125 125 0 0 0-5.885 11.106 125 125 0 0 0-4.35 10 125 125 0 0 0-4.716 15.648 125 125 0 0 0-1.375 6.865 125 125 0 0 0-1.455 10.334A125 125 0 0 0 125 325a125 125 0 0 0 .59 10.42 125 125 0 0 0 1.455 10.334 125 125 0 0 0 1.375 6.865 125 125 0 0 0 4.717 15.649 125 125 0 0 0 4.35 10 125 125 0 0 0 5.884 11.105l.002.004a125 125 0 0 0 3.67 5.549 125 125 0 0 0 2.416 3.654l.002.002a125 125 0 0 0 35.992 33.084 125 125 0 0 0 2.973 1.668 125 125 0 0 0 11.959 6.115 125 125 0 0 0 4.068 1.559 125 125 0 0 0 11.844 4.176 125 125 0 0 0 5.885 1.316 125 125 0 0 0 10.779 2.238A125 125 0 0 0 250 450a125 125 0 0 0 17.598-1.318 125 125 0 0 0 3.922-.795 125 125 0 0 0 13.367-3 125 125 0 0 0 4.427-1.532 125 125 0 0 0 12.2-4.681 125 125 0 0 0 4.314-2.17 125 125 0 0 0 11.32-6.37A125 125 0 0 0 349.898 400h-.296a125 125 0 0 0 6.656-10.064 125 125 0 0 0 7.451-14.032 125 125 0 0 0 2.713-6.314 125 125 0 0 0 5.219-17.268 125 125 0 0 0 1.275-6.373 125 125 0 0 0 1.336-9.39A125 125 0 0 0 375 325a125 125 0 0 0-.748-11.559 125 125 0 0 0-1.336-9.39 125 125 0 0 0-1.275-6.373 125 125 0 0 0-5.22-17.268 125 125 0 0 0-2.712-6.314 125 125 0 0 0-7.451-14.032A125 125 0 0 0 349.602 250h.296a125 125 0 0 0-32.746-30.133 125 125 0 0 0-11.324-6.37 125 125 0 0 0-4.314-2.17 125 125 0 0 0-12.2-4.682 125 125 0 0 0-4.427-1.532 125 125 0 0 0-13.367-3 125 125 0 0 0-3.922-.795A125 125 0 0 0 250 200m0 50a75 75 0 0 1 5.576.23 75 75 0 0 1 1.701.16 75 75 0 0 1 4.045.506 75 75 0 0 1 1.69.268 75 75 0 0 1 4.902 1.027l.59.131a75 75 0 0 1 5.38 1.604 75 75 0 0 1 1.454.523 75 75 0 0 1 3.842 1.498 75 75 0 0 1 1.668.721 75 75 0 0 1 4.052 1.982 75 75 0 0 1 .985.502 75 75 0 0 1 4.781 2.85 75 75 0 0 1 1.225.832 75 75 0 0 1 3.412 2.436 75 75 0 0 1 1.422 1.103 75 75 0 0 1 3.29 2.785 75 75 0 0 1 1.012.893 75 75 0 0 1 3.922 3.922 75 75 0 0 1 .893 1.011 75 75 0 0 1 2.785 3.291 75 75 0 0 1 1.103 1.422 75 75 0 0 1 2.436 3.412 75 75 0 0 1 .832 1.225 75 75 0 0 1 2.85 4.781 75 75 0 0 1 .502.985 75 75 0 0 1 1.982 4.052 75 75 0 0 1 .72 1.668 75 75 0 0 1 1.499 3.842 75 75 0 0 1 .523 1.453 75 75 0 0 1 1.604 5.381l.13.59a75 75 0 0 1 1.028 4.902 75 75 0 0 1 .268 1.69 75 75 0 0 1 .505 4.045 75 75 0 0 1 .16 1.7A75 75 0 0 1 325 325a75 75 0 0 1-.23 5.576 75 75 0 0 1-.16 1.701 75 75 0 0 1-.506 4.045 75 75 0 0 1-.268 1.69 75 75 0 0 1-1.027 4.902l-.131.59a75 75 0 0 1-1.604 5.38 75 75 0 0 1-.523 1.454 75 75 0 0 1-1.498 3.842 75 75 0 0 1-.721 1.668 75 75 0 0 1-1.982 4.052 75 75 0 0 1-.502.985 75 75 0 0 1-2.85 4.781 75 75 0 0 1-.832 1.225 75 75 0 0 1-2.436 3.412 75 75 0 0 1-1.103 1.422 75 75 0 0 1-2.785 3.29 75 75 0 0 1-.893 1.012 75 75 0 0 1-3.922 3.922 75 75 0 0 1-1.011.893 75 75 0 0 1-3.291 2.785 75 75 0 0 1-1.422 1.103 75 75 0 0 1-3.412 2.436 75 75 0 0 1-1.225.832 75 75 0 0 1-4.781 2.85 75 75 0 0 1-.985.502 75 75 0 0 1-4.052 1.982 75 75 0 0 1-1.668.72 75 75 0 0 1-3.842 1.499 75 75 0 0 1-1.453.523 75 75 0 0 1-5.381 1.604l-.59.13a75 75 0 0 1-4.902 1.028 75 75 0 0 1-1.69.268 75 75 0 0 1-4.045.505 75 75 0 0 1-1.7.16A75 75 0 0 1 250 400a75 75 0 0 1-15.135-1.705l-.008-.002-.726-.195a75 75 0 0 1-3.467-.928l-.008-.002-.281-.076a75 75 0 0 1-10.192-3.567l-.076-.027-.012-.004a75 75 0 0 1-2.396-.834l.193-.193-.006-.004a75 75 0 0 1-2.332-1.086 75 75 0 0 1-6.734-4.233 75 75 0 0 1-2.28-1.431 75 75 0 0 1-.931-.586 75 75 0 0 1-2.94-2.059 75 75 0 0 1-10.738-10.738 75 75 0 0 1-2.058-2.94 75 75 0 0 1-.586-.931 75 75 0 0 1-1.432-2.28 75 75 0 0 1-4.232-6.734 75 75 0 0 1-1.086-2.332l-.004-.006-.194.193a75 75 0 0 1-.834-2.396l-.004-.012-.027-.076a75 75 0 0 1-3.566-10.191l-.077-.282-.002-.008a75 75 0 0 1-.927-3.466l-.196-.727v-.002l-.002-.006A75 75 0 0 1 175 325a75 75 0 0 1 1.705-15.135l.002-.006v-.002l.195-.726a75 75 0 0 1 .928-3.467l.002-.008.076-.281a75 75 0 0 1 3.567-10.192l.027-.076.004-.012a75 75 0 0 1 .834-2.396l.193.193.004-.006a75 75 0 0 1 1.086-2.332 75 75 0 0 1 4.233-6.734 75 75 0 0 1 1.431-2.28 75 75 0 0 1 .586-.931 75 75 0 0 1 2.059-2.94 75 75 0 0 1 10.738-10.738 75 75 0 0 1 2.94-2.058 75 75 0 0 1 .931-.586 75 75 0 0 1 2.28-1.432 75 75 0 0 1 6.734-4.232 75 75 0 0 1 2.332-1.086l.006-.004-.193-.194a75 75 0 0 1 2.396-.834l.012-.004.076-.027a75 75 0 0 1 10.191-3.566l.282-.077.008-.002a75 75 0 0 1 3.466-.927l.727-.196.008-.002A75 75 0 0 1 250 250M150 100A125 125 0 0 0 25 225v200a125 125 0 0 0 125 125h200a125 125 0 0 0 125-125V225a125 125 0 0 0-125-125Zm0 50h200a75 75 0 0 1 75 75v200a75 75 0 0 1-75 75H150a75 75 0 0 1-75-75V225a75 75 0 0 1 75-75m100 50a125 125 0 0 0-17.04 1.262 125 125 0 0 0-10.778 2.238 125 125 0 0 0-5.885 1.316 125 125 0 0 0-11.844 4.176 125 125 0 0 0-4.068 1.559 125 125 0 0 0-11.96 6.115 125 125 0 0 0-2.972 1.668 125 125 0 0 0-35.992 33.084l-.002.002a125 125 0 0 0-2.416 3.654 125 125 0 0 0-3.67 5.55l-.002.003a125 125 0 0 0-5.885 11.106 125 125 0 0 0-4.35 10 125 125 0 0 0-4.716 15.648 125 125 0 0 0-1.375 6.865 125 125 0 0 0-1.455 10.334A125 125 0 0 0 125 325a125 125 0 0 0 .59 10.42 125 125 0 0 0 1.455 10.334 125 125 0 0 0 1.375 6.865 125 125 0 0 0 4.717 15.649 125 125 0 0 0 4.35 10 125 125 0 0 0 5.884 11.105l.002.004a125 125 0 0 0 3.67 5.549 125 125 0 0 0 2.416 3.654l.002.002a125 125 0 0 0 35.992 33.084 125 125 0 0 0 2.973 1.668 125 125 0 0 0 11.959 6.115 125 125 0 0 0 4.068 1.559 125 125 0 0 0 11.844 4.176 125 125 0 0 0 5.885 1.316 125 125 0 0 0 10.779 2.238A125 125 0 0 0 250 450a125 125 0 0 0 17.598-1.318 125 125 0 0 0 3.922-.795 125 125 0 0 0 13.367-3 125 125 0 0 0 4.427-1.532 125 125 0 0 0 12.2-4.681 125 125 0 0 0 4.314-2.17 125 125 0 0 0 11.32-6.37A125 125 0 0 0 349.898 400h-.296a125 125 0 0 0 6.656-10.064 125 125 0 0 0 7.451-14.032 125 125 0 0 0 2.713-6.314 125 125 0 0 0 5.219-17.268 125 125 0 0 0 1.275-6.373 125 125 0 0 0 1.336-9.39A125 125 0 0 0 375 325a125 125 0 0 0-.748-11.559 125 125 0 0 0-1.336-9.39 125 125 0 0 0-1.275-6.373 125 125 0 0 0-5.22-17.268 125 125 0 0 0-2.712-6.314 125 125 0 0 0-7.451-14.032A125 125 0 0 0 349.602 250h.296a125 125 0 0 0-32.746-30.133 125 125 0 0 0-11.324-6.37 125 125 0 0 0-4.314-2.17 125 125 0 0 0-12.2-4.682 125 125 0 0 0-4.427-1.532 125 125 0 0 0-13.367-3 125 125 0 0 0-3.922-.795A125 125 0 0 0 250 200m0 50a75 75 0 0 1 5.576.23 75 75 0 0 1 1.701.16 75 75 0 0 1 4.045.506 75 75 0 0 1 1.69.268 75 75 0 0 1 4.902 1.027l.59.131a75 75 0 0 1 5.38 1.604 75 75 0 0 1 1.454.523 75 75 0 0 1 3.842 1.498 75 75 0 0 1 1.668.721 75 75 0 0 1 4.052 1.982 75 75 0 0 1 .985.502 75 75 0 0 1 4.781 2.85 75 75 0 0 1 1.225.832 75 75 0 0 1 3.412 2.436 75 75 0 0 1 1.422 1.103 75 75 0 0 1 3.29 2.785 75 75 0 0 1 1.012.893 75 75 0 0 1 3.922 3.922 75 75 0 0 1 .893 1.011 75 75 0 0 1 2.785 3.291 75 75 0 0 1 1.103 1.422 75 75 0 0 1 2.436 3.412 75 75 0 0 1 .832 1.225 75 75 0 0 1 2.85 4.781 75 75 0 0 1 .502.985 75 75 0 0 1 1.982 4.052 75 75 0 0 1 .72 1.668 75 75 0 0 1 1.499 3.842 75 75 0 0 1 .523 1.453 75 75 0 0 1 1.604 5.381l.13.59a75 75 0 0 1 1.028 4.902 75 75 0 0 1 .268 1.69 75 75 0 0 1 .505 4.045 75 75 0 0 1 .16 1.7A75 75 0 0 1 325 325a75 75 0 0 1-.23 5.576 75 75 0 0 1-.16 1.701 75 75 0 0 1-.506 4.045 75 75 0 0 1-.268 1.69 75 75 0 0 1-1.027 4.902l-.131.59a75 75 0 0 1-1.604 5.38 75 75 0 0 1-.523 1.454 75 75 0 0 1-1.498 3.842 75 75 0 0 1-.721 1.668 75 75 0 0 1-1.982 4.052 75 75 0 0 1-.502.985 75 75 0 0 1-2.85 4.781 75 75 0 0 1-.832 1.225 75 75 0 0 1-2.436 3.412 75 75 0 0 1-1.103 1.422 75 75 0 0 1-2.785 3.29 75 75 0 0 1-.893 1.012 75 75 0 0 1-3.922 3.922 75 75 0 0 1-1.011.893 75 75 0 0 1-3.291 2.785 75 75 0 0 1-1.422 1.103 75 75 0 0 1-3.412 2.436 75 75 0 0 1-1.225.832 75 75 0 0 1-4.781 2.85 75 75 0 0 1-.985.502 75 75 0 0 1-4.052 1.982 75 75 0 0 1-1.668.72 75 75 0 0 1-3.842 1.499 75 75 0 0 1-1.453.523 75 75 0 0 1-5.381 1.604l-.59.13a75 75 0 0 1-4.902 1.028 75 75 0 0 1-1.69.268 75 75 0 0 1-4.045.505 75 75 0 0 1-1.7.16A75 75 0 0 1 250 400a75 75 0 0 1-15.135-1.705l-.008-.002-.726-.195a75 75 0 0 1-3.467-.928l-.008-.002-.281-.076a75 75 0 0 1-10.192-3.567l-.076-.027-.012-.004a75 75 0 0 1-2.396-.834l.193-.193-.006-.004a75 75 0 0 1-2.332-1.086 75 75 0 0 1-6.734-4.233 75 75 0 0 1-2.28-1.431 75 75 0 0 1-.931-.586 75 75 0 0 1-2.94-2.059 75 75 0 0 1-10.738-10.738 75 75 0 0 1-2.058-2.94 75 75 0 0 1-.586-.931 75 75 0 0 1-1.432-2.28 75 75 0 0 1-4.232-6.734 75 75 0 0 1-1.086-2.332l-.004-.006-.194.193a75 75 0 0 1-.834-2.396l-.004-.012-.027-.076a75 75 0 0 1-3.566-10.191l-.077-.282-.002-.008a75 75 0 0 1-.927-3.466l-.196-.727v-.002l-.002-.006A75 75 0 0 1 175 325a75 75 0 0 1 1.705-15.135l.002-.006v-.002l.195-.726a75 75 0 0 1 .928-3.467l.002-.008.076-.281a75 75 0 0 1 3.567-10.192l.027-.076.004-.012a75 75 0 0 1 .834-2.396l.193.193.004-.006a75 75 0 0 1 1.086-2.332 75 75 0 0 1 4.233-6.734 75 75 0 0 1 1.431-2.28 75 75 0 0 1 .586-.931 75 75 0 0 1 2.059-2.94 75 75 0 0 1 10.738-10.738 75 75 0 0 1 2.94-2.058 75 75 0 0 1 .931-.586 75 75 0 0 1 2.28-1.432 75 75 0 0 1 6.734-4.232 75 75 0 0 1 2.332-1.086l.006-.004-.193-.194a75 75 0 0 1 2.396-.834l.012-.004.076-.027a75 75 0 0 1 10.191-3.566l.282-.077.008-.002a75 75 0 0 1 3.466-.927l.727-.196.008-.002A75 75 0 0 1 250 250M150 100A125 125 0 0 0 25 225a25 25 0 0 0 25 25 25 25 0 0 0 25-25 75 75 0 0 1 75-75h200a75 75 0 0 1 75 75v200a75 75 0 0 1-75 75H150a75 75 0 0 1-75-75 25 25 0 0 0-25-25 25 25 0 0 0-25 25 125 125 0 0 0 125 125h200a125 125 0 0 0 125-125V225a125 125 0 0 0-125-125Zm100 100a125 125 0 0 0-17.04 1.262 125 125 0 0 0-10.778 2.238 125 125 0 0 0-5.885 1.316 125 125 0 0 0-11.844 4.176 125 125 0 0 0-4.068 1.559 125 125 0 0 0-11.96 6.115 125 125 0 0 0-2.972 1.668 125 125 0 0 0-35.992 33.084l-.002.002a125 125 0 0 0-2.416 3.654 125 125 0 0 0-3.67 5.55l-.002.003a125 125 0 0 0-5.885 11.106 125 125 0 0 0-4.35 10 125 125 0 0 0-4.716 15.648 125 125 0 0 0-1.375 6.865 125 125 0 0 0-1.455 10.334A125 125 0 0 0 125 325a125 125 0 0 0 .59 10.42 125 125 0 0 0 1.455 10.334 125 125 0 0 0 1.375 6.865 125 125 0 0 0 4.717 15.649 125 125 0 0 0 4.35 10 125 125 0 0 0 5.884 11.105l.002.004a125 125 0 0 0 3.67 5.549 125 125 0 0 0 2.416 3.654l.002.002a125 125 0 0 0 35.992 33.084 125 125 0 0 0 2.973 1.668 125 125 0 0 0 11.959 6.115 125 125 0 0 0 4.068 1.559 125 125 0 0 0 11.844 4.176 125 125 0 0 0 5.885 1.316 125 125 0 0 0 10.779 2.238A125 125 0 0 0 250 450a125 125 0 0 0 17.598-1.318 125 125 0 0 0 3.922-.795 125 125 0 0 0 13.367-3 125 125 0 0 0 4.427-1.532 125 125 0 0 0 12.2-4.681 125 125 0 0 0 4.314-2.17 125 125 0 0 0 11.32-6.37A125 125 0 0 0 349.898 400h-.296a125 125 0 0 0 6.656-10.064 125 125 0 0 0 7.451-14.032 125 125 0 0 0 2.713-6.314 125 125 0 0 0 5.219-17.268 125 125 0 0 0 1.275-6.373 125 125 0 0 0 1.336-9.39A125 125 0 0 0 375 325a125 125 0 0 0-.748-11.559 125 125 0 0 0-1.336-9.39 125 125 0 0 0-1.275-6.373 125 125 0 0 0-5.22-17.268 125 125 0 0 0-2.712-6.314 125 125 0 0 0-7.451-14.032A125 125 0 0 0 349.602 250h.296a125 125 0 0 0-32.746-30.133 125 125 0 0 0-11.324-6.37 125 125 0 0 0-4.314-2.17 125 125 0 0 0-12.2-4.682 125 125 0 0 0-4.427-1.532 125 125 0 0 0-13.367-3 125 125 0 0 0-3.922-.795A125 125 0 0 0 250 200m0 50a75 75 0 0 1 5.576.23 75 75 0 0 1 1.701.16 75 75 0 0 1 4.045.506 75 75 0 0 1 1.69.268 75 75 0 0 1 4.902 1.027l.59.131a75 75 0 0 1 5.38 1.604 75 75 0 0 1 1.454.523 75 75 0 0 1 3.842 1.498 75 75 0 0 1 1.668.721 75 75 0 0 1 4.052 1.982 75 75 0 0 1 .985.502 75 75 0 0 1 4.781 2.85 75 75 0 0 1 1.225.832 75 75 0 0 1 3.412 2.436 75 75 0 0 1 1.422 1.103 75 75 0 0 1 3.29 2.785 75 75 0 0 1 1.012.893 75 75 0 0 1 3.922 3.922 75 75 0 0 1 .893 1.011 75 75 0 0 1 2.785 3.291 75 75 0 0 1 1.103 1.422 75 75 0 0 1 2.436 3.412 75 75 0 0 1 .832 1.225 75 75 0 0 1 2.85 4.781 75 75 0 0 1 .502.985 75 75 0 0 1 1.982 4.052 75 75 0 0 1 .72 1.668 75 75 0 0 1 1.499 3.842 75 75 0 0 1 .523 1.453 75 75 0 0 1 1.604 5.381l.13.59a75 75 0 0 1 1.028 4.902 75 75 0 0 1 .268 1.69 75 75 0 0 1 .505 4.045 75 75 0 0 1 .16 1.7A75 75 0 0 1 325 325a75 75 0 0 1-.23 5.576 75 75 0 0 1-.16 1.701 75 75 0 0 1-.506 4.045 75 75 0 0 1-.268 1.69 75 75 0 0 1-1.027 4.902l-.131.59a75 75 0 0 1-1.604 5.38 75 75 0 0 1-.523 1.454 75 75 0 0 1-1.498 3.842 75 75 0 0 1-.721 1.668 75 75 0 0 1-1.982 4.052 75 75 0 0 1-.502.985 75 75 0 0 1-2.85 4.781 75 75 0 0 1-.832 1.225 75 75 0 0 1-2.436 3.412 75 75 0 0 1-1.103 1.422 75 75 0 0 1-2.785 3.29 75 75 0 0 1-.893 1.012 75 75 0 0 1-3.922 3.922 75 75 0 0 1-1.011.893 75 75 0 0 1-3.291 2.785 75 75 0 0 1-1.422 1.103 75 75 0 0 1-3.412 2.436 75 75 0 0 1-1.225.832 75 75 0 0 1-4.781 2.85 75 75 0 0 1-.985.502 75 75 0 0 1-4.052 1.982 75 75 0 0 1-1.668.72 75 75 0 0 1-3.842 1.499 75 75 0 0 1-1.453.523 75 75 0 0 1-5.381 1.604l-.59.13a75 75 0 0 1-4.902 1.028 75 75 0 0 1-1.69.268 75 75 0 0 1-4.045.505 75 75 0 0 1-1.7.16A75 75 0 0 1 250 400a75 75 0 0 1-15.135-1.705l-.008-.002-.726-.195a75 75 0 0 1-3.467-.928l-.008-.002-.281-.076a75 75 0 0 1-10.192-3.567l-.076-.027-.012-.004a75 75 0 0 1-2.396-.834l.193-.193-.006-.004a75 75 0 0 1-2.332-1.086 75 75 0 0 1-6.734-4.233 75 75 0 0 1-2.28-1.431 75 75 0 0 1-.931-.586 75 75 0 0 1-2.94-2.059 75 75 0 0 1-10.738-10.738 75 75 0 0 1-2.058-2.94 75 75 0 0 1-.586-.931 75 75 0 0 1-1.432-2.28 75 75 0 0 1-4.232-6.734 75 75 0 0 1-1.086-2.332l-.004-.006-.194.193a75 75 0 0 1-.834-2.396l-.004-.012-.027-.076a75 75 0 0 1-3.566-10.191l-.077-.282-.002-.008a75 75 0 0 1-.927-3.466l-.196-.727v-.002l-.002-.006A75 75 0 0 1 175 325a75 75 0 0 1 1.705-15.135l.002-.006v-.002l.195-.726a75 75 0 0 1 .928-3.467l.002-.008.076-.281a75 75 0 0 1 3.567-10.192l.027-.076.004-.012a75 75 0 0 1 .834-2.396l.193.193.004-.006a75 75 0 0 1 1.086-2.332 75 75 0 0 1 4.233-6.734 75 75 0 0 1 1.431-2.28 75 75 0 0 1 .586-.931 75 75 0 0 1 2.059-2.94 75 75 0 0 1 10.738-10.738 75 75 0 0 1 2.94-2.058 75 75 0 0 1 .931-.586 75 75 0 0 1 2.28-1.432 75 75 0 0 1 6.734-4.232 75 75 0 0 1 2.332-1.086l.006-.004-.193-.194a75 75 0 0 1 2.396-.834l.012-.004.076-.027a75 75 0 0 1 10.191-3.566l.282-.077.008-.002a75 75 0 0 1 3.466-.927l.727-.196.008-.002A75 75 0 0 1 250 250M44.438 50.627A25 25 0 0 0 25 75v350a125 125 0 0 0 125 125h300v-.63A25 25 0 0 0 475 525a25 25 0 0 0-25-24.37V500H150a75 75 0 0 1-75-75V75a25 25 0 0 0-30.562-24.373M250 200a125 125 0 0 0-17.04 1.262 125 125 0 0 0-10.778 2.238 125 125 0 0 0-5.885 1.316 125 125 0 0 0-11.844 4.176 125 125 0 0 0-4.068 1.559 125 125 0 0 0-11.96 6.115 125 125 0 0 0-2.972 1.668 125 125 0 0 0-35.992 33.084l-.002.002a125 125 0 0 0-2.416 3.654 125 125 0 0 0-3.67 5.55l-.002.003a125 125 0 0 0-5.885 11.106 125 125 0 0 0-4.35 10 125 125 0 0 0-4.716 15.648 125 125 0 0 0-1.375 6.865 125 125 0 0 0-1.455 10.334A125 125 0 0 0 125 325a125 125 0 0 0 .59 10.42 125 125 0 0 0 1.455 10.334 125 125 0 0 0 1.375 6.865 125 125 0 0 0 4.717 15.649 125 125 0 0 0 4.35 10 125 125 0 0 0 5.884 11.105l.002.004a125 125 0 0 0 3.67 5.549 125 125 0 0 0 2.416 3.654l.002.002a125 125 0 0 0 35.992 33.084 125 125 0 0 0 2.973 1.668 125 125 0 0 0 11.959 6.115 125 125 0 0 0 4.068 1.559 125 125 0 0 0 11.844 4.176 125 125 0 0 0 5.885 1.316 125 125 0 0 0 10.779 2.238A125 125 0 0 0 250 450a125 125 0 0 0 17.598-1.318 125 125 0 0 0 3.922-.795 125 125 0 0 0 13.367-3 125 125 0 0 0 4.427-1.532 125 125 0 0 0 12.2-4.681 125 125 0 0 0 4.314-2.17 125 125 0 0 0 11.32-6.37A125 125 0 0 0 349.898 400h-.296a125 125 0 0 0 6.656-10.064 125 125 0 0 0 7.451-14.032 125 125 0 0 0 2.713-6.314 125 125 0 0 0 5.219-17.268 125 125 0 0 0 1.275-6.373 125 125 0 0 0 1.336-9.39A125 125 0 0 0 375 325a125 125 0 0 0-.748-11.559 125 125 0 0 0-1.336-9.39 125 125 0 0 0-1.275-6.373 125 125 0 0 0-5.22-17.268 125 125 0 0 0-2.712-6.314 125 125 0 0 0-7.451-14.032A125 125 0 0 0 349.602 250h.296a125 125 0 0 0-32.746-30.133 125 125 0 0 0-11.324-6.37 125 125 0 0 0-4.314-2.17 125 125 0 0 0-12.2-4.682 125 125 0 0 0-4.427-1.532 125 125 0 0 0-13.367-3 125 125 0 0 0-3.922-.795A125 125 0 0 0 250 200m0 50a75 75 0 0 1 5.576.23 75 75 0 0 1 1.701.16 75 75 0 0 1 4.045.506 75 75 0 0 1 1.69.268 75 75 0 0 1 4.902 1.027l.59.131a75 75 0 0 1 5.38 1.604 75 75 0 0 1 1.454.523 75 75 0 0 1 3.842 1.498 75 75 0 0 1 1.668.721 75 75 0 0 1 4.052 1.982 75 75 0 0 1 .985.502 75 75 0 0 1 4.781 2.85 75 75 0 0 1 1.225.832 75 75 0 0 1 3.412 2.436 75 75 0 0 1 1.422 1.103 75 75 0 0 1 3.29 2.785 75 75 0 0 1 1.012.893 75 75 0 0 1 3.922 3.922 75 75 0 0 1 .893 1.011 75 75 0 0 1 2.785 3.291 75 75 0 0 1 1.103 1.422 75 75 0 0 1 2.436 3.412 75 75 0 0 1 .832 1.225 75 75 0 0 1 2.85 4.781 75 75 0 0 1 .502.985 75 75 0 0 1 1.982 4.052 75 75 0 0 1 .72 1.668 75 75 0 0 1 1.499 3.842 75 75 0 0 1 .523 1.453 75 75 0 0 1 1.604 5.381l.13.59a75 75 0 0 1 1.028 4.902 75 75 0 0 1 .268 1.69 75 75 0 0 1 .505 4.045 75 75 0 0 1 .16 1.7A75 75 0 0 1 325 325a75 75 0 0 1-.23 5.576 75 75 0 0 1-.16 1.701 75 75 0 0 1-.506 4.045 75 75 0 0 1-.268 1.69 75 75 0 0 1-1.027 4.902l-.131.59a75 75 0 0 1-1.604 5.38 75 75 0 0 1-.523 1.454 75 75 0 0 1-1.498 3.842 75 75 0 0 1-.721 1.668 75 75 0 0 1-1.982 4.052 75 75 0 0 1-.502.985 75 75 0 0 1-2.85 4.781 75 75 0 0 1-.832 1.225 75 75 0 0 1-2.436 3.412 75 75 0 0 1-1.103 1.422 75 75 0 0 1-2.785 3.29 75 75 0 0 1-.893 1.012 75 75 0 0 1-3.922 3.922 75 75 0 0 1-1.011.893 75 75 0 0 1-3.291 2.785 75 75 0 0 1-1.422 1.103 75 75 0 0 1-3.412 2.436 75 75 0 0 1-1.225.832 75 75 0 0 1-4.781 2.85 75 75 0 0 1-.985.502 75 75 0 0 1-4.052 1.982 75 75 0 0 1-1.668.72 75 75 0 0 1-3.842 1.499 75 75 0 0 1-1.453.523 75 75 0 0 1-5.381 1.604l-.59.13a75 75 0 0 1-4.902 1.028 75 75 0 0 1-1.69.268 75 75 0 0 1-4.045.505 75 75 0 0 1-1.7.16A75 75 0 0 1 250 400a75 75 0 0 1-15.135-1.705l-.008-.002-.726-.195a75 75 0 0 1-3.467-.928l-.008-.002-.281-.076a75 75 0 0 1-10.192-3.567l-.076-.027-.012-.004a75 75 0 0 1-2.396-.834l.193-.193-.006-.004a75 75 0 0 1-2.332-1.086 75 75 0 0 1-6.734-4.233 75 75 0 0 1-2.28-1.431 75 75 0 0 1-.931-.586 75 75 0 0 1-2.94-2.059 75 75 0 0 1-10.738-10.738 75 75 0 0 1-2.058-2.94 75 75 0 0 1-.586-.931 75 75 0 0 1-1.432-2.28 75 75 0 0 1-4.232-6.734 75 75 0 0 1-1.086-2.332l-.004-.006-.194.193a75 75 0 0 1-.834-2.396l-.004-.012-.027-.076a75 75 0 0 1-3.566-10.191l-.077-.282-.002-.008a75 75 0 0 1-.927-3.466l-.196-.727v-.002l-.002-.006A75 75 0 0 1 175 325a75 75 0 0 1 1.705-15.135l.002-.006v-.002l.195-.726a75 75 0 0 1 .928-3.467l.002-.008.076-.281a75 75 0 0 1 3.567-10.192l.027-.076.004-.012a75 75 0 0 1 .834-2.396l.193.193.004-.006a75 75 0 0 1 1.086-2.332 75 75 0 0 1 4.233-6.734 75 75 0 0 1 1.431-2.28 75 75 0 0 1 .586-.931 75 75 0 0 1 2.059-2.94 75 75 0 0 1 10.738-10.738 75 75 0 0 1 2.94-2.058 75 75 0 0 1 .931-.586 75 75 0 0 1 2.28-1.432 75 75 0 0 1 6.734-4.232 75 75 0 0 1 2.332-1.086l.006-.004-.193-.194a75 75 0 0 1 2.396-.834l.012-.004.076-.027a75 75 0 0 1 10.191-3.566l.282-.077.008-.002a75 75 0 0 1 3.466-.927l.727-.196.008-.002A75 75 0 0 1 250 250M44.438 50.627A25 25 0 0 0 25 75v350a125 125 0 0 0 125 125h200a125 125 0 0 0 125-125V75a25 25 0 0 0-50 0v350a75 75 0 0 1-75 75H150a75 75 0 0 1-75-75V75a25 25 0 0 0-30.562-24.373M250 200a125 125 0 0 0-17.04 1.262 125 125 0 0 0-10.778 2.238 125 125 0 0 0-5.885 1.316 125 125 0 0 0-11.844 4.176 125 125 0 0 0-4.068 1.559 125 125 0 0 0-11.96 6.115 125 125 0 0 0-2.972 1.668 125 125 0 0 0-35.992 33.084l-.002.002a125 125 0 0 0-2.416 3.654 125 125 0 0 0-3.67 5.55l-.002.003a125 125 0 0 0-5.885 11.106 125 125 0 0 0-4.35 10 125 125 0 0 0-4.716 15.648 125 125 0 0 0-1.375 6.865 125 125 0 0 0-1.455 10.334A125 125 0 0 0 125 325a125 125 0 0 0 .59 10.42 125 125 0 0 0 1.455 10.334 125 125 0 0 0 1.375 6.865 125 125 0 0 0 4.717 15.649 125 125 0 0 0 4.35 10 125 125 0 0 0 5.884 11.105l.002.004a125 125 0 0 0 3.67 5.549 125 125 0 0 0 2.416 3.654l.002.002a125 125 0 0 0 35.992 33.084 125 125 0 0 0 2.973 1.668 125 125 0 0 0 11.959 6.115 125 125 0 0 0 4.068 1.559 125 125 0 0 0 11.844 4.176 125 125 0 0 0 5.885 1.316 125 125 0 0 0 10.779 2.238A125 125 0 0 0 250 450a125 125 0 0 0 17.598-1.318 125 125 0 0 0 3.922-.795 125 125 0 0 0 13.367-3 125 125 0 0 0 4.427-1.532 125 125 0 0 0 12.2-4.681 125 125 0 0 0 4.314-2.17 125 125 0 0 0 11.32-6.37A125 125 0 0 0 349.898 400h-.296a125 125 0 0 0 6.656-10.064 125 125 0 0 0 7.451-14.032 125 125 0 0 0 2.713-6.314 125 125 0 0 0 5.219-17.268 125 125 0 0 0 1.275-6.373 125 125 0 0 0 1.336-9.39A125 125 0 0 0 375 325a125 125 0 0 0-.748-11.559 125 125 0 0 0-1.336-9.39 125 125 0 0 0-1.275-6.373 125 125 0 0 0-5.22-17.268 125 125 0 0 0-2.712-6.314 125 125 0 0 0-7.451-14.032A125 125 0 0 0 349.602 250h.296a125 125 0 0 0-32.746-30.133 125 125 0 0 0-11.324-6.37 125 125 0 0 0-4.314-2.17 125 125 0 0 0-12.2-4.682 125 125 0 0 0-4.427-1.532 125 125 0 0 0-13.367-3 125 125 0 0 0-3.922-.795A125 125 0 0 0 250 200m0 50a75 75 0 0 1 5.576.23 75 75 0 0 1 1.701.16 75 75 0 0 1 4.045.506 75 75 0 0 1 1.69.268 75 75 0 0 1 4.902 1.027l.59.131a75 75 0 0 1 5.38 1.604 75 75 0 0 1 1.454.523 75 75 0 0 1 3.842 1.498 75 75 0 0 1 1.668.721 75 75 0 0 1 4.052 1.982 75 75 0 0 1 .985.502 75 75 0 0 1 4.781 2.85 75 75 0 0 1 1.225.832 75 75 0 0 1 3.412 2.436 75 75 0 0 1 1.422 1.103 75 75 0 0 1 3.29 2.785 75 75 0 0 1 1.012.893 75 75 0 0 1 3.922 3.922 75 75 0 0 1 .893 1.011 75 75 0 0 1 2.785 3.291 75 75 0 0 1 1.103 1.422 75 75 0 0 1 2.436 3.412 75 75 0 0 1 .832 1.225 75 75 0 0 1 2.85 4.781 75 75 0 0 1 .502.985 75 75 0 0 1 1.982 4.052 75 75 0 0 1 .72 1.668 75 75 0 0 1 1.499 3.842 75 75 0 0 1 .523 1.453 75 75 0 0 1 1.604 5.381l.13.59a75 75 0 0 1 1.028 4.902 75 75 0 0 1 .268 1.69 75 75 0 0 1 .505 4.045 75 75 0 0 1 .16 1.7A75 75 0 0 1 325 325a75 75 0 0 1-.23 5.576 75 75 0 0 1-.16 1.701 75 75 0 0 1-.506 4.045 75 75 0 0 1-.268 1.69 75 75 0 0 1-1.027 4.902l-.131.59a75 75 0 0 1-1.604 5.38 75 75 0 0 1-.523 1.454 75 75 0 0 1-1.498 3.842 75 75 0 0 1-.721 1.668 75 75 0 0 1-1.982 4.052 75 75 0 0 1-.502.985 75 75 0 0 1-2.85 4.781 75 75 0 0 1-.832 1.225 75 75 0 0 1-2.436 3.412 75 75 0 0 1-1.103 1.422 75 75 0 0 1-2.785 3.29 75 75 0 0 1-.893 1.012 75 75 0 0 1-3.922 3.922 75 75 0 0 1-1.011.893 75 75 0 0 1-3.291 2.785 75 75 0 0 1-1.422 1.103 75 75 0 0 1-3.412 2.436 75 75 0 0 1-1.225.832 75 75 0 0 1-4.781 2.85 75 75 0 0 1-.985.502 75 75 0 0 1-4.052 1.982 75 75 0 0 1-1.668.72 75 75 0 0 1-3.842 1.499 75 75 0 0 1-1.453.523 75 75 0 0 1-5.381 1.604l-.59.13a75 75 0 0 1-4.902 1.028 75 75 0 0 1-1.69.268 75 75 0 0 1-4.045.505 75 75 0 0 1-1.7.16A75 75 0 0 1 250 400a75 75 0 0 1-15.135-1.705l-.008-.002-.726-.195a75 75 0 0 1-3.467-.928l-.008-.002-.281-.076a75 75 0 0 1-10.192-3.567l-.076-.027-.012-.004a75 75 0 0 1-2.396-.834l.193-.193-.006-.004a75 75 0 0 1-2.332-1.086 75 75 0 0 1-6.734-4.233 75 75 0 0 1-2.28-1.431 75 75 0 0 1-.931-.586 75 75 0 0 1-2.94-2.059 75 75 0 0 1-10.738-10.738 75 75 0 0 1-2.058-2.94 75 75 0 0 1-.586-.931 75 75 0 0 1-1.432-2.28 75 75 0 0 1-4.232-6.734 75 75 0 0 1-1.086-2.332l-.004-.006-.194.193a75 75 0 0 1-.834-2.396l-.004-.012-.027-.076a75 75 0 0 1-3.566-10.191l-.077-.282-.002-.008a75 75 0 0 1-.927-3.466l-.196-.727v-.002l-.002-.006A75 75 0 0 1 175 325a75 75 0 0 1 1.705-15.135l.002-.006v-.002l.195-.726a75 75 0 0 1 .928-3.467l.002-.008.076-.281a75 75 0 0 1 3.567-10.192l.027-.076.004-.012a75 75 0 0 1 .834-2.396l.193.193.004-.006a75 75 0 0 1 1.086-2.332 75 75 0 0 1 4.233-6.734 75 75 0 0 1 1.431-2.28 75 75 0 0 1 .586-.931 75 75 0 0 1 2.059-2.94 75 75 0 0 1 10.738-10.738 75 75 0 0 1 2.94-2.058 75 75 0 0 1 .931-.586 75 75 0 0 1 2.28-1.432 75 75 0 0 1 6.734-4.232 75 75 0 0 1 2.332-1.086l.006-.004-.193-.194a75 75 0 0 1 2.396-.834l.012-.004.076-.027a75 75 0 0 1 10.191-3.566l.282-.077.008-.002a75 75 0 0 1 3.466-.927l.727-.196.008-.002A75 75 0 0 1 250 250M444.438 50.627A25 25 0 0 0 425 75v350a75 75 0 0 1-75 75H50v.63A25 25 0 0 0 25 525a25 25 0 0 0 25 24.37v.63h300a125 125 0 0 0 125-125V75a25 25 0 0 0-30.562-24.373M250 200a125 125 0 0 0-17.04 1.262 125 125 0 0 0-10.778 2.238 125 125 0 0 0-5.885 1.316 125 125 0 0 0-11.844 4.176 125 125 0 0 0-4.068 1.559 125 125 0 0 0-11.96 6.115 125 125 0 0 0-2.972 1.668 125 125 0 0 0-35.992 33.084l-.002.002a125 125 0 0 0-2.416 3.654 125 125 0 0 0-3.67 5.55l-.002.003a125 125 0 0 0-5.885 11.106 125 125 0 0 0-4.35 10 125 125 0 0 0-4.716 15.648 125 125 0 0 0-1.375 6.865 125 125 0 0 0-1.455 10.334A125 125 0 0 0 125 325a125 125 0 0 0 .59 10.42 125 125 0 0 0 1.455 10.334 125 125 0 0 0 1.375 6.865 125 125 0 0 0 4.717 15.649 125 125 0 0 0 4.35 10 125 125 0 0 0 5.884 11.105l.002.004a125 125 0 0 0 3.67 5.549 125 125 0 0 0 2.416 3.654l.002.002a125 125 0 0 0 35.992 33.084 125 125 0 0 0 2.973 1.668 125 125 0 0 0 11.959 6.115 125 125 0 0 0 4.068 1.559 125 125 0 0 0 11.844 4.176 125 125 0 0 0 5.885 1.316 125 125 0 0 0 10.779 2.238A125 125 0 0 0 250 450a125 125 0 0 0 17.598-1.318 125 125 0 0 0 3.922-.795 125 125 0 0 0 13.367-3 125 125 0 0 0 4.427-1.532 125 125 0 0 0 12.2-4.681 125 125 0 0 0 4.314-2.17 125 125 0 0 0 11.32-6.37A125 125 0 0 0 349.898 400h-.296a125 125 0 0 0 6.656-10.064 125 125 0 0 0 7.451-14.032 125 125 0 0 0 2.713-6.314 125 125 0 0 0 5.219-17.268 125 125 0 0 0 1.275-6.373 125 125 0 0 0 1.336-9.39A125 125 0 0 0 375 325a125 125 0 0 0-.748-11.559 125 125 0 0 0-1.336-9.39 125 125 0 0 0-1.275-6.373 125 125 0 0 0-5.22-17.268 125 125 0 0 0-2.712-6.314 125 125 0 0 0-7.451-14.032A125 125 0 0 0 349.602 250h.296a125 125 0 0 0-32.746-30.133 125 125 0 0 0-11.324-6.37 125 125 0 0 0-4.314-2.17 125 125 0 0 0-12.2-4.682 125 125 0 0 0-4.427-1.532 125 125 0 0 0-13.367-3 125 125 0 0 0-3.922-.795A125 125 0 0 0 250 200m0 50a75 75 0 0 1 5.576.23 75 75 0 0 1 1.701.16 75 75 0 0 1 4.045.506 75 75 0 0 1 1.69.268 75 75 0 0 1 4.902 1.027l.59.131a75 75 0 0 1 5.38 1.604 75 75 0 0 1 1.454.523 75 75 0 0 1 3.842 1.498 75 75 0 0 1 1.668.721 75 75 0 0 1 4.052 1.982 75 75 0 0 1 .985.502 75 75 0 0 1 4.781 2.85 75 75 0 0 1 1.225.832 75 75 0 0 1 3.412 2.436 75 75 0 0 1 1.422 1.103 75 75 0 0 1 3.29 2.785 75 75 0 0 1 1.012.893 75 75 0 0 1 3.922 3.922 75 75 0 0 1 .893 1.011 75 75 0 0 1 2.785 3.291 75 75 0 0 1 1.103 1.422 75 75 0 0 1 2.436 3.412 75 75 0 0 1 .832 1.225 75 75 0 0 1 2.85 4.781 75 75 0 0 1 .502.985 75 75 0 0 1 1.982 4.052 75 75 0 0 1 .72 1.668 75 75 0 0 1 1.499 3.842 75 75 0 0 1 .523 1.453 75 75 0 0 1 1.604 5.381l.13.59a75 75 0 0 1 1.028 4.902 75 75 0 0 1 .268 1.69 75 75 0 0 1 .505 4.045 75 75 0 0 1 .16 1.7A75 75 0 0 1 325 325a75 75 0 0 1-.23 5.576 75 75 0 0 1-.16 1.701 75 75 0 0 1-.506 4.045 75 75 0 0 1-.268 1.69 75 75 0 0 1-1.027 4.902l-.131.59a75 75 0 0 1-1.604 5.38 75 75 0 0 1-.523 1.454 75 75 0 0 1-1.498 3.842 75 75 0 0 1-.721 1.668 75 75 0 0 1-1.982 4.052 75 75 0 0 1-.502.985 75 75 0 0 1-2.85 4.781 75 75 0 0 1-.832 1.225 75 75 0 0 1-2.436 3.412 75 75 0 0 1-1.103 1.422 75 75 0 0 1-2.785 3.29 75 75 0 0 1-.893 1.012 75 75 0 0 1-3.922 3.922 75 75 0 0 1-1.011.893 75 75 0 0 1-3.291 2.785 75 75 0 0 1-1.422 1.103 75 75 0 0 1-3.412 2.436 75 75 0 0 1-1.225.832 75 75 0 0 1-4.781 2.85 75 75 0 0 1-.985.502 75 75 0 0 1-4.052 1.982 75 75 0 0 1-1.668.72 75 75 0 0 1-3.842 1.499 75 75 0 0 1-1.453.523 75 75 0 0 1-5.381 1.604l-.59.13a75 75 0 0 1-4.902 1.028 75 75 0 0 1-1.69.268 75 75 0 0 1-4.045.505 75 75 0 0 1-1.7.16A75 75 0 0 1 250 400a75 75 0 0 1-15.135-1.705l-.008-.002-.726-.195a75 75 0 0 1-3.467-.928l-.008-.002-.281-.076a75 75 0 0 1-10.192-3.567l-.076-.027-.012-.004a75 75 0 0 1-2.396-.834l.193-.193-.006-.004a75 75 0 0 1-2.332-1.086 75 75 0 0 1-6.734-4.233 75 75 0 0 1-2.28-1.431 75 75 0 0 1-.931-.586 75 75 0 0 1-2.94-2.059 75 75 0 0 1-10.738-10.738 75 75 0 0 1-2.058-2.94 75 75 0 0 1-.586-.931 75 75 0 0 1-1.432-2.28 75 75 0 0 1-4.232-6.734 75 75 0 0 1-1.086-2.332l-.004-.006-.194.193a75 75 0 0 1-.834-2.396l-.004-.012-.027-.076a75 75 0 0 1-3.566-10.191l-.077-.282-.002-.008a75 75 0 0 1-.927-3.466l-.196-.727v-.002l-.002-.006A75 75 0 0 1 175 325a75 75 0 0 1 1.705-15.135l.002-.006v-.002l.195-.726a75 75 0 0 1 .928-3.467l.002-.008.076-.281a75 75 0 0 1 3.567-10.192l.027-.076.004-.012a75 75 0 0 1 .834-2.396l.193.193.004-.006a75 75 0 0 1 1.086-2.332 75 75 0 0 1 4.233-6.734 75 75 0 0 1 1.431-2.28 75 75 0 0 1 .586-.931 75 75 0 0 1 2.059-2.94 75 75 0 0 1 10.738-10.738 75 75 0 0 1 2.94-2.058 75 75 0 0 1 .931-.586 75 75 0 0 1 2.28-1.432 75 75 0 0 1 6.734-4.232 75 75 0 0 1 2.332-1.086l.006-.004-.193-.194a75 75 0 0 1 2.396-.834l.012-.004.076-.027a75 75 0 0 1 10.191-3.566l.282-.077.008-.002a75 75 0 0 1 3.466-.927l.727-.196.008-.002A75 75 0 0 1 250 250m0-50a125 125 0 0 0-17.04 1.262 125 125 0 0 0-10.778 2.238 125 125 0 0 0-5.885 1.316 125 125 0 0 0-11.844 4.176 125 125 0 0 0-4.068 1.559 125 125 0 0 0-11.96 6.115 125 125 0 0 0-2.972 1.668 125 125 0 0 0-35.992 33.084l-.002.002a125 125 0 0 0-2.416 3.654 125 125 0 0 0-3.67 5.55l-.002.003a125 125 0 0 0-5.885 11.106 125 125 0 0 0-4.35 10 125 125 0 0 0-4.716 15.648 125 125 0 0 0-1.375 6.865 125 125 0 0 0-1.455 10.334A125 125 0 0 0 125 325a125 125 0 0 0 .59 10.42 125 125 0 0 0 1.455 10.334 125 125 0 0 0 1.375 6.865 125 125 0 0 0 4.717 15.649 125 125 0 0 0 4.35 10 125 125 0 0 0 5.884 11.105l.002.004a125 125 0 0 0 3.67 5.549 125 125 0 0 0 2.416 3.654l.002.002a125 125 0 0 0 35.992 33.084 125 125 0 0 0 2.973 1.668 125 125 0 0 0 11.959 6.115 125 125 0 0 0 4.068 1.559 125 125 0 0 0 11.844 4.176 125 125 0 0 0 5.885 1.316 125 125 0 0 0 10.779 2.238A125 125 0 0 0 250 450a125 125 0 0 0 17.598-1.318 125 125 0 0 0 3.922-.795 125 125 0 0 0 13.367-3 125 125 0 0 0 4.427-1.532 125 125 0 0 0 12.2-4.681 125 125 0 0 0 4.314-2.17 125 125 0 0 0 11.32-6.37A125 125 0 0 0 349.898 400h-.296a125 125 0 0 0 6.656-10.064 125 125 0 0 0 7.451-14.032 125 125 0 0 0 2.713-6.314 125 125 0 0 0 5.219-17.268 125 125 0 0 0 1.275-6.373 125 125 0 0 0 1.336-9.39A125 125 0 0 0 375 325a125 125 0 0 0-.748-11.559 125 125 0 0 0-1.336-9.39 125 125 0 0 0-1.275-6.373 125 125 0 0 0-5.22-17.268 125 125 0 0 0-2.712-6.314 125 125 0 0 0-7.451-14.032A125 125 0 0 0 349.602 250h.296a125 125 0 0 0-32.746-30.133 125 125 0 0 0-11.324-6.37 125 125 0 0 0-4.314-2.17 125 125 0 0 0-12.2-4.682 125 125 0 0 0-4.427-1.532 125 125 0 0 0-13.367-3 125 125 0 0 0-3.922-.795A125 125 0 0 0 250 200m0 50a75 75 0 0 1 5.576.23 75 75 0 0 1 1.701.16 75 75 0 0 1 4.045.506 75 75 0 0 1 1.69.268 75 75 0 0 1 4.902 1.027l.59.131a75 75 0 0 1 5.38 1.604 75 75 0 0 1 1.454.523 75 75 0 0 1 3.842 1.498 75 75 0 0 1 1.668.721 75 75 0 0 1 4.052 1.982 75 75 0 0 1 .985.502 75 75 0 0 1 4.781 2.85 75 75 0 0 1 1.225.832 75 75 0 0 1 3.412 2.436 75 75 0 0 1 1.422 1.103 75 75 0 0 1 3.29 2.785 75 75 0 0 1 1.012.893 75 75 0 0 1 3.922 3.922 75 75 0 0 1 .893 1.011 75 75 0 0 1 2.785 3.291 75 75 0 0 1 1.103 1.422 75 75 0 0 1 2.436 3.412 75 75 0 0 1 .832 1.225 75 75 0 0 1 2.85 4.781 75 75 0 0 1 .502.985 75 75 0 0 1 1.982 4.052 75 75 0 0 1 .72 1.668 75 75 0 0 1 1.499 3.842 75 75 0 0 1 .523 1.453 75 75 0 0 1 1.604 5.381l.13.59a75 75 0 0 1 1.028 4.902 75 75 0 0 1 .268 1.69 75 75 0 0 1 .505 4.045 75 75 0 0 1 .16 1.7A75 75 0 0 1 325 325a75 75 0 0 1-.23 5.576 75 75 0 0 1-.16 1.701 75 75 0 0 1-.506 4.045 75 75 0 0 1-.268 1.69 75 75 0 0 1-1.027 4.902l-.131.59a75 75 0 0 1-1.604 5.38 75 75 0 0 1-.523 1.454 75 75 0 0 1-1.498 3.842 75 75 0 0 1-.721 1.668 75 75 0 0 1-1.982 4.052 75 75 0 0 1-.502.985 75 75 0 0 1-2.85 4.781 75 75 0 0 1-.832 1.225 75 75 0 0 1-2.436 3.412 75 75 0 0 1-1.103 1.422 75 75 0 0 1-2.785 3.29 75 75 0 0 1-.893 1.012 75 75 0 0 1-3.922 3.922 75 75 0 0 1-1.011.893 75 75 0 0 1-3.291 2.785 75 75 0 0 1-1.422 1.103 75 75 0 0 1-3.412 2.436 75 75 0 0 1-1.225.832 75 75 0 0 1-4.781 2.85 75 75 0 0 1-.985.502 75 75 0 0 1-4.052 1.982 75 75 0 0 1-1.668.72 75 75 0 0 1-3.842 1.499 75 75 0 0 1-1.453.523 75 75 0 0 1-5.381 1.604l-.59.13a75 75 0 0 1-4.902 1.028 75 75 0 0 1-1.69.268 75 75 0 0 1-4.045.505 75 75 0 0 1-1.7.16A75 75 0 0 1 250 400a75 75 0 0 1-15.135-1.705l-.008-.002-.726-.195a75 75 0 0 1-3.467-.928l-.008-.002-.281-.076a75 75 0 0 1-10.192-3.567l-.076-.027-.012-.004a75 75 0 0 1-2.396-.834l.193-.193-.006-.004a75 75 0 0 1-2.332-1.086 75 75 0 0 1-6.734-4.233 75 75 0 0 1-2.28-1.431 75 75 0 0 1-.931-.586 75 75 0 0 1-2.94-2.059 75 75 0 0 1-10.738-10.738 75 75 0 0 1-2.058-2.94 75 75 0 0 1-.586-.931 75 75 0 0 1-1.432-2.28 75 75 0 0 1-4.232-6.734 75 75 0 0 1-1.086-2.332l-.004-.006-.194.193a75 75 0 0 1-.834-2.396l-.004-.012-.027-.076a75 75 0 0 1-3.566-10.191l-.077-.282-.002-.008a75 75 0 0 1-.927-3.466l-.196-.727v-.002l-.002-.006A75 75 0 0 1 175 325a75 75 0 0 1 1.705-15.135l.002-.006v-.002l.195-.726a75 75 0 0 1 .928-3.467l.002-.008.076-.281a75 75 0 0 1 3.567-10.192l.027-.076.004-.012a75 75 0 0 1 .834-2.396l.193.193.004-.006a75 75 0 0 1 1.086-2.332 75 75 0 0 1 4.233-6.734 75 75 0 0 1 1.431-2.28 75 75 0 0 1 .586-.931 75 75 0 0 1 2.059-2.94 75 75 0 0 1 10.738-10.738 75 75 0 0 1 2.94-2.058 75 75 0 0 1 .931-.586 75 75 0 0 1 2.28-1.432 75 75 0 0 1 6.734-4.232 75 75 0 0 1 2.332-1.086l.006-.004-.193-.194a75 75 0 0 1 2.396-.834l.012-.004.076-.027a75 75 0 0 1 10.191-3.566l.282-.077.008-.002a75 75 0 0 1 3.466-.927l.727-.196.008-.002A75 75 0 0 1 250 250m194.44-149.37a25 25 0 0 0-12.12 7.44v-.75l-400 400h.6A25 25 0 0 0 25 525a25 25 0 0 0 42.68 16.92v.76l400-400h-.6A25 25 0 0 0 475 125a25 25 0 0 0-30.56-24.37m-12.12 41.3.6.75h-.6zM67.08 507.33h.6v.75zM250 75a50 50 0 0 0-50 50 50 50 0 0 0 50 50 50 50 0 0 0 50-50 50 50 0 0 0-50-50M50 275a50 50 0 0 0-50 50 50 50 0 0 0 50 50 50 50 0 0 0 50-50 50 50 0 0 0-50-50m200 0a50 50 0 0 0-50 50 50 50 0 0 0 50 50 50 50 0 0 0 50-50 50 50 0 0 0-50-50m200 0a50 50 0 0 0-50 50 50 50 0 0 0 50 50 50 50 0 0 0 50-50 50 50 0 0 0-50-50M250 475a50 50 0 0 0-50 50 50 50 0 0 0 50 50 50 50 0 0 0 50-50 50 50 0 0 0-50-50M50 300v.38A25 25 0 0 0 25 325a25 25 0 0 0 25 24.62v.38h400v-.38A25 25 0 0 0 475 325a25 25 0 0 0-25-24.62V300Zm0-25a50 50 0 0 0-50 50 50 50 0 0 0 50 50 50 50 0 0 0 50-50 50 50 0 0 0-50-50m200 0a50 50 0 0 0-50 50 50 50 0 0 0 50 50 50 50 0 0 0 50-50 50 50 0 0 0-50-50m200 0c-27.614 0-50 22.386-50 50s22.386 50 50 50 50-22.386 50-50-22.386-50-50-50M250 100a25 25 0 0 0-24.62 25H225v175H50v.38A25 25 0 0 0 25 325a25 25 0 0 0 25 24.62v.38h175v175h.38A25 25 0 0 0 250 550a25 25 0 0 0 24.62-25h.38V350h175v-.38A25 25 0 0 0 475 325a25 25 0 0 0-25-24.62V300H275V125h-.38A25 25 0 0 0 250 100m-4.34.38A25 25 0 0 0 225 125v139.65L67.68 107.32h-.6a25 25 0 0 0-34.16 0h-.6v.76A25 25 0 0 0 25 125a25 25 0 0 0 7.32 16.92v.76L214.65 325 32.33 507.32h.6A25 25 0 0 0 25 525a25 25 0 0 0 42.68 16.92v.76L225 385.36V525a25 25 0 0 0 50 0V385.36l157.32 157.32h.6a25 25 0 0 0 34.16 0h.6v-.76A25 25 0 0 0 475 525a25 25 0 0 0-7.32-16.92v-.76L285.36 325l182.32-182.32h-.6A25 25 0 0 0 475 125a25 25 0 0 0-42.68-16.93v-.75L275 264.65V125a25 25 0 0 0-29.34-24.62m186.66 41.55.6.75h-.6zM67.08 507.33h.6v.75zM150 50a25 25 0 0 0-25 25 25 25 0 0 0 25 25 75 75 0 0 1 75 75v300a75 75 0 0 1-75 75 25 25 0 0 0-25 25 25 25 0 0 0 25 25 125 125 0 0 0 125-125V175A125 125 0 0 0 150 50m200 0a125 125 0 0 0-125 125v300a125 125 0 0 0 125 125 25 25 0 0 0 25-25 25 25 0 0 0-25-25 75 75 0 0 1-75-75V175a75 75 0 0 1 75-75 25 25 0 0 0 25-25 25 25 0 0 0-25-25M250 75a50 50 0 0 0-50 50 50 50 0 0 0 50 50 50 50 0 0 0 50-50 50 50 0 0 0-50-50m-100 25A125 125 0 0 0 25 225a25 25 0 0 0 25 25 25 25 0 0 0 25-25 75 75 0 0 1 75-75h200a75 75 0 0 1 75 75v200a75 75 0 0 1-75 75H150a75 75 0 0 1-75-75 25 25 0 0 0-25-25 25 25 0 0 0-25 25 125 125 0 0 0 125 125h200a125 125 0 0 0 125-125V225a125 125 0 0 0-125-125Zm0 100v.25A25 25 0 0 0 125 225a25 25 0 0 0 25 24.75v.25h100a75 75 0 0 1 75 75 75 75 0 0 1-75 75H150v.25A25 25 0 0 0 125 425a25 25 0 0 0 25 24.75v.25h100a125 125 0 0 0 125-125 125 125 0 0 0-125-125Zm100.17 75a50 50 0 0 0-5.4.27A50 50 0 0 0 200 325a50 50 0 0 0 100 0 50 50 0 0 0-49.83-50m198.71-174.98a25 25 0 0 0-4.44.6v.01a25 25 0 0 0-12.12 7.44v-.75l-400 400h.6A25 25 0 0 0 25 525a25 25 0 0 0 42.68 16.92v.76l400-400h-.6A25 25 0 0 0 475 125a25 25 0 0 0-26.12-24.98m-340.3 33.55a50 50 0 0 0-35.35 14.65 50 50 0 0 0 0 70.7 50 50 0 0 0 70.7 0 50 50 0 0 0 0-70.71 50 50 0 0 0-35.35-14.64m282.84 282.85a50 50 0 0 0-35.35 14.65 50 50 0 0 0 0 70.7 50 50 0 0 0 70.71 0 50 50 0 0 0 0-70.7 50 50 0 0 0-35.36-14.65M244.44.63A25 25 0 0 0 225 25v75h-75a125 125 0 0 0-68.88 20.77l-13.44-13.45h-.6a25 25 0 0 0-34.16 0h-.6v.76A25 25 0 0 0 25 125a25 25 0 0 0 7.32 16.92v.76l13.44 13.44A125 125 0 0 0 25 225a25 25 0 0 0 25 25 25 25 0 0 0 25-25 75 75 0 0 1 7.34-32.3L225 335.36V500h-75a75 75 0 0 1-75-75 25 25 0 0 0-25-25 25 25 0 0 0-25 25 125 125 0 0 0 125 125h75v75a25 25 0 0 0 50 0v-75h75a125 125 0 0 0 68.88-20.76l13.44 13.44h.6a25 25 0 0 0 34.16 0h.6v-.76A25 25 0 0 0 475 525a25 25 0 0 0-7.32-16.92v-.76l-13.45-13.44A125 125 0 0 0 475 425a25 25 0 0 0-25-25 25 25 0 0 0-25 25 75 75 0 0 1-7.34 32.3L275 314.65V150h75a75 75 0 0 1 75 75 25 25 0 0 0 25 25 25 25 0 0 0 25-25 125 125 0 0 0-125-125h-75V25A25 25 0 0 0 244.44.63M150 150h75v114.65l-107.3-107.3A75 75 0 0 1 150 150m125 235.36 107.3 107.3A75 75 0 0 1 350 500h-75ZM244.44.63A25 25 0 0 0 225 25v75h-75a125 125 0 0 0-68.88 20.77l-13.44-13.45h-.6a25 25 0 0 0-34.16 0h-.6v.76A25 25 0 0 0 25 125a25 25 0 0 0 7.32 16.92v.76l13.44 13.44A125 125 0 0 0 25 225v200a125 125 0 0 0 125 125h75v75a25 25 0 0 0 50 0v-75h75a125 125 0 0 0 68.88-20.76l13.44 13.44h.6a25 25 0 0 0 34.16 0h.6v-.76A25 25 0 0 0 475 525a25 25 0 0 0-7.32-16.92v-.76l-13.45-13.44A125 125 0 0 0 475 425a25 25 0 0 0-25-25 25 25 0 0 0-25 25 75 75 0 0 1-7.34 32.3L275 314.65V150h75a75 75 0 0 1 75 75 25 25 0 0 0 25 25 25 25 0 0 0 25-25 125 125 0 0 0-125-125h-75V25A25 25 0 0 0 244.44.63M150 150h75v114.65l-107.3-107.3A75 75 0 0 1 150 150m-67.66 42.7L225 335.36V500h-75a75 75 0 0 1-75-75V225a75 75 0 0 1 7.34-32.3M275 385.36l107.3 107.3A75 75 0 0 1 350 500h-75ZM110.26 133.45a50 50 0 0 0-4.66.07 50 50 0 0 0-32.37 14.7 50 50 0 0 0 70.7 70.71 50 50 0 0 0-33.67-85.48m284.18.22a50 50 0 0 0-38.37 85.26 50 50 0 1 0 70.7-70.7 50 50 0 0 0-32.33-14.56M250 75a50 50 0 0 0-50 50 50 50 0 0 0 50 50 50 50 0 0 0 50-50 50 50 0 0 0-50-50m0 400a50 50 0 0 0-50 50 50 50 0 0 0 50 50 50 50 0 0 0 50-50 50 50 0 0 0-50-50M150 600v.254A25 25 0 0 0 125 625a25 25 0 0 0 25 24.746V650h200v-.254A25 25 0 0 0 375 625a25 25 0 0 0-25-24.746V600Zm99.455-49.994a25 25 0 0 0-1.324.064A25 25 0 0 0 225 575a25 25 0 0 0 50 0 25 25 0 0 0-25.545-24.994m1.12 0a25 25 0 0 0-4.134.248A25 25 0 0 0 225 575a25 25 0 0 0 50 0 25 25 0 0 0-24.426-24.994zM150 600v.254A25 25 0 0 0 125 625a25 25 0 0 0 25 24.746V650h200v-.254A25 25 0 0 0 375 625a25 25 0 0 0-25-24.746V600Zm0-600v.25A25 25 0 0 0 125 25a25 25 0 0 0 25 24.75V50h200v-.25A25 25 0 0 0 375 25 25 25 0 0 0 350 .25V0Zm99.455 50.006a25 25 0 0 0-1.324.064A25 25 0 0 0 225 75a25 25 0 0 0 50 0 25 25 0 0 0-25.545-24.994M150 0v.25A25 25 0 0 0 125 25a25 25 0 0 0 25 24.75V50h100.18a25 25 0 0 0-1.075.012 25 25 0 0 0-2.666.238A25 25 0 0 0 225 75a25 25 0 0 0 50 0 25 25 0 0 0-24.592-25H350v-.25A25 25 0 0 0 375 25 25 25 0 0 0 350 .25V0Zm0 600v.254A25 25 0 0 0 125 625a25 25 0 0 0 25 24.746V650h200v-.254A25 25 0 0 0 375 625a25 25 0 0 0-25-24.746V600Zm99.455-49.994a25 25 0 0 0-1.324.064A25 25 0 0 0 225 575a25 25 0 0 0 50 0 25 25 0 0 0-25.545-24.994m1.12 0a25 25 0 0 0-4.134.248A25 25 0 0 0 225 575a25 25 0 0 0 50 0 25 25 0 0 0-24.426-24.994zM150 600v.254A25 25 0 0 0 125 625a25 25 0 0 0 25 24.746V650h200v-.254A25 25 0 0 0 375 625a25 25 0 0 0-25-24.746V600Zm0-600v.25A25 25 0 0 0 125 25a25 25 0 0 0 25 24.75V50h200v-.25A25 25 0 0 0 375 25 25 25 0 0 0 350 .25V0Zm99.455 50.006a25 25 0 0 0-1.324.064A25 25 0 0 0 225 75a25 25 0 0 0 50 0 25 25 0 0 0-25.545-24.994M150 0v.25A25 25 0 0 0 125 25a25 25 0 0 0 25 24.75V50h100.18a25 25 0 0 0-1.075.012 25 25 0 0 0-2.666.238A25 25 0 0 0 225 75a25 25 0 0 0 50 0 25 25 0 0 0-24.592-25H350v-.25A25 25 0 0 0 375 25 25 25 0 0 0 350 .25V0Z" />
</svg>