<svg width="500" height="650" xmlns="http://www.w3.org/2000/svg" xmlns:svg="http://www.w3.org/2000/svg">
    <path
        d="M0-.5v1h24.5v49H0v1h24.5v49H0v1h24.5v49H0v1h24.5v49H0v1h24.5v49H0v1h24.5v49H0v1h24.5v49H0v1h24.5v49H0v1h24.5v49H0v1h24.5v49H0v1h24.5v49H0v1h24.5v49H0v1h24.5v49H0v1h500v-1h-24.5v-49H500v-1h-24.5v-49H500v-1h-24.5v-49H500v-1h-24.5v-49H500v-1h-24.5v-49H500v-1h-24.5v-49H500v-1h-24.5v-49H500v-1h-24.5v-49H500v-1h-24.5v-49H500v-1h-24.5v-49H500v-1h-24.5v-49H500v-1h-24.5v-49H500v-1h-24.5V.5H500v-1zm25.5 1h49v49h-49zm50 0h49v49h-49zm50 0h49v49h-49zm50 0h49v49h-49zm50 0h49v49h-49zm50 0h49v49h-49zm50 0h49v49h-49zm50 0h49v49h-49zm50 0h49v49h-49zm-400 50h49v49h-49zm50 0h49v49h-49zm50 0h49v49h-49zm50 0h49v49h-49zm50 0h49v49h-49zm50 0h49v49h-49zm50 0h49v49h-49zm50 0h49v49h-49zm50 0h49v49h-49zm-400 50h49v49h-49zm50 0h49v49h-49zm50 0h49v49h-49zm50 0h49v49h-49zm50 0h49v49h-49zm50 0h49v49h-49zm50 0h49v49h-49zm50 0h49v49h-49zm50 0h49v49h-49zm-400 50h49v49h-49zm50 0h49v49h-49zm50 0h49v49h-49zm50 0h49v49h-49zm50 0h49v49h-49zm50 0h49v49h-49zm50 0h49v49h-49zm50 0h49v49h-49zm50 0h49v49h-49zm-400 50h49v49h-49zm50 0h49v49h-49zm50 0h49v49h-49zm50 0h49v49h-49zm50 0h49v49h-49zm50 0h49v49h-49zm50 0h49v49h-49zm50 0h49v49h-49zm50 0h49v49h-49zm-400 50h49v49h-49zm50 0h49v49h-49zm50 0h49v49h-49zm50 0h49v49h-49zm50 0h49v49h-49zm50 0h49v49h-49zm50 0h49v49h-49zm50 0h49v49h-49zm50 0h49v49h-49zm-400 50h49v49h-49zm50 0h49v49h-49zm50 0h49v49h-49zm50 0h49v49h-49zm50 0h49v49h-49zm50 0h49v49h-49zm50 0h49v49h-49zm50 0h49v49h-49zm50 0h49v49h-49zm-400 50h49v49h-49zm50 0h49v49h-49zm50 0h49v49h-49zm50 0h49v49h-49zm50 0h49v49h-49zm50 0h49v49h-49zm50 0h49v49h-49zm50 0h49v49h-49zm50 0h49v49h-49zm-400 50h49v49h-49zm50 0h49v49h-49zm50 0h49v49h-49zm50 0h49v49h-49zm50 0h49v49h-49zm50 0h49v49h-49zm50 0h49v49h-49zm50 0h49v49h-49zm50 0h49v49h-49zm-400 50h49v49h-49zm50 0h49v49h-49zm50 0h49v49h-49zm50 0h49v49h-49zm50 0h49v49h-49zm50 0h49v49h-49zm50 0h49v49h-49zm50 0h49v49h-49zm50 0h49v49h-49zm-400 50h49v49h-49zm50 0h49v49h-49zm50 0h49v49h-49zm50 0h49v49h-49zm50 0h49v49h-49zm50 0h49v49h-49zm50 0h49v49h-49zm50 0h49v49h-49zm50 0h49v49h-49zm-400 50h49v49h-49zm50 0h49v49h-49zm50 0h49v49h-49zm50 0h49v49h-49zm50 0h49v49h-49zm50 0h49v49h-49zm50 0h49v49h-49zm50 0h49v49h-49zm50 0h49v49h-49zm-400 50h49v49h-49zm50 0h49v49h-49zm50 0h49v49h-49zm50 0h49v49h-49zm50 0h49v49h-49zm50 0h49v49h-49zm50 0h49v49h-49zm50 0h49v49h-49zm50 0h49v49h-49z"
        style="fill:none;stroke:red;" />
    <rect x="0" y="0" width="225" height="650" style="" />
    <rect x="0" y="0" width="275" height="650" style="" />
</svg>