<?xml version="1.0" encoding="UTF-8" standalone="no"?>
<svg width="500" height="850" version="1.1" id="svg145" sodipodi:docname="xavani.svg"
    inkscape:version="1.4.2 (ebf0e940, 2025-05-08)" xmlns:inkscape="http://www.inkscape.org/namespaces/inkscape"
    xmlns:sodipodi="http://sodipodi.sourceforge.net/DTD/sodipodi-0.dtd" xmlns="http://www.w3.org/2000/svg"
    xmlns:svg="http://www.w3.org/2000/svg">
    <defs id="defs145" />
    <sodipodi:namedview id="namedview145" pagecolor="#ffffff" bordercolor="#000000" borderopacity="0.25"
        inkscape:showpageshadow="2" inkscape:pageopacity="0.0" inkscape:pagecheckerboard="0"
        inkscape:deskcolor="#d1d1d1" inkscape:zoom="0.59176471" inkscape:cx="249.25447" inkscape:cy="425"
        inkscape:window-width="1440" inkscape:window-height="722" inkscape:window-x="0" inkscape:window-y="25"
        inkscape:window-maximized="0" inkscape:current-layer="svg145" />
    <path id="path145" style="fill:#000000;fill-opacity:0;stroke:#ff0000"
        d="m 163.89648,217.12695 -13.52929,13.5293 -40.58985,40.58984 h -0.002 l -13.529296,13.5293 v 0.002 l -54.119141,54.11914 v 172.20704 0.002 l 108.240237,108.24023 13.52929,13.52735 h 19.13477 l 13.5293,-13.5293 v -19.13281 l -13.5293,-13.53125 h -0.002 L 88.320312,491.9707 V 358.0293 L 119.3418,327.00781 347.99219,555.6582 316.9707,586.67969 303.43945,600.21094 v 19.13476 l 13.53125,13.52735 h 19.13282 l 13.52929,-13.5293 40.58985,-40.58984 h 0.002 l 13.5293,-13.5293 v -0.002 l 54.11914,-54.11914 V 338.89648 L 349.63281,230.65625 336.10352,217.12695 H 316.9707 l -13.53125,13.5293 v 19.13477 l 13.53125,13.52929 94.70899,94.71094 V 491.9707 L 380.6582,522.99219 152.00781,294.3418 183.0293,263.32031 h 0.002 l 13.5293,-13.53125 V 230.6543 l -13.5293,-13.52735 z M 109.775,124.74 96.246,138.27 v 19.134 l 13.531,13.53 h 76.537 l 40.588,40.588 0.002,168.926 44.553,44.552 -44.553,44.553 v 46.193 l -0.002,95.672 v 27.059 l -40.588,40.588 h -76.539 l -13.53,13.53 v 19.134 l 13.532,13.53 19.135,0.003 76.535,-0.002 67.648,-67.649 0.002,-65.328 V 488.686 l 40.588,-40.588 h 76.54 l 13.528,-13.53 v -19.134 l -13.53,-13.531 H 313.685 L 273.097,361.315 273.096,192.389 205.447,124.74 Z m 149.792,-92.389 13.53,13.53 V 804.12 l -13.53,13.53 h -19.134 l -13.53,-13.53 V 45.88 l 13.53,-13.53 z m 111.521,92.387 -76.535,0.002 -67.649,67.649 -0.002,168.925 -40.588,40.588 h -76.539 l -13.529,13.53 v 19.134 l 13.531,13.531 h 76.537 l 40.588,40.588 0.002,168.926 67.648,67.649 h 95.672 l 13.53,-13.53 V 692.595 L 390.222,679.066 H 313.685 L 273.097,638.478 273.095,469.552 228.543,425 l 44.552,-44.553 0.002,-168.924 40.588,-40.588 h 76.539 l 13.53,-13.53 V 138.272 L 390.223,124.74 Z m -242.178,146.507 -19.134,0.002 -13.529,13.529 -0.001,19.135 274.843,274.844 19.136,-0.002 13.528,-13.529 0.001,-19.135 z M 336.104,217.127 H 163.896 L 42.127,338.896 V 511.104 L 163.896,632.873 H 336.104 L 457.873,511.104 V 338.896 l -13.53,-13.53 h -19.134 l -13.53,13.53 V 491.97 l -94.708,94.708 H 183.029 L 88.321,491.97 V 358.029 l 94.708,-94.708 h 153.075 l 13.53,-13.53 v -19.134 z m -133.93994,92.38862 -67.64844,67.64844 v 95.67188 l 67.64844,67.64844 h 95.67188 l 67.64844,-67.64844 v -95.67188 l -67.64844,-67.64844 z m 19.13672,46.19336 h 57.39844 v 0.002 l 40.58984,40.58984 v 57.39844 l -40.58984,40.58984 H 221.30078 L 180.71094,453.69922 V 396.29883 Z M 128.91,271.245 l -19.134,0.002 -13.529,13.529 -0.001,19.135 274.843,274.844 19.136,-0.002 13.528,-13.529 0.001,-19.135 z m -86.783,239.859 13.53,13.529 108.24,108.24 h 172.207 l 121.77,-121.77 V 338.897 L 336.104,217.128 H 163.896 l -108.24,108.24 -13.53,13.53 v 19.134 l 13.53,13.53 h 19.135 l 13.53,-13.53 94.71,-94.71 H 316.97 l 94.71,94.71 V 491.97 l -94.71,94.71 H 183.03 L 88.32,491.97 74.79,478.44 H 55.656 l -13.53,13.53 z m 86.783,-239.859 -19.134,0.002 -13.529,13.529 -0.001,19.135 274.843,274.844 19.136,-0.002 13.528,-13.529 0.001,-19.135 z m 34.986,361.628 H 336.104 L 457.873,511.104 V 338.896 L 336.104,217.127 H 163.896 L 42.127,338.896 v 172.208 l 13.53,13.53 h 19.134 l 13.53,-13.53 V 358.03 l 94.708,-94.708 h 133.942 l 94.708,94.708 V 491.972 L 316.971,586.68 H 163.896 l -13.53,13.53 v 19.134 z m -358.24,30.342 -13.529,13.532 v 19.132 l 13.53,13.53 108.24,108.24 H 86.104 l 108.242,-108.24 13.527,-13.53 v -19.134 l -13.527,-13.53 H 175.21 l -13.531,13.532 -94.71,94.709 H -66.97 l -94.71,-94.71 -13.53,-13.53 z m 323.254,-391.97 -19.134,0.002 -13.529,13.529 -0.001,19.135 274.843,274.844 19.136,-0.002 13.528,-13.529 0.001,-19.135 z m 207.194,361.628 13.529,-13.53 108.24,-108.24 V 338.897 L 336.103,217.127 H 163.897 l -121.77,121.77 v 172.208 l 108.24,108.24 13.53,13.529 h 19.134 l 13.53,-13.53 V 600.21 l -13.53,-13.53 -94.71,-94.71 V 358.03 l 94.71,-94.71 H 316.97 l 94.71,94.71 v 133.94 l -94.71,94.71 -13.53,13.53 v 19.135 l 13.53,13.529 z M 9.568,586.679 H -9.568 l -13.529,13.529 v 19.136 l 144.186,144.186 19.135,-10e-4 13.529,-13.53 0.001,-19.134 z m 154.328,-369.552 -13.529,13.53 -108.24,108.24 v 172.207 l 121.77,121.77 H 336.104 L 457.873,511.104 V 338.896 l -108.24,-108.24 -13.53,-13.53 H 316.97 l -13.53,13.53 v 19.135 l 13.53,13.53 94.71,94.71 V 491.97 l -94.71,94.71 H 183.03 L 88.32,491.97 V 358.03 l 94.71,-94.71 13.53,-13.53 v -19.135 l -13.53,-13.53 z m 172.208,0 H 163.896 L 42.127,338.896 V 511.104 L 163.896,632.873 H 336.104 L 457.873,511.104 V 338.896 l -13.53,-13.53 h -19.134 l -13.53,13.53 V 491.97 l -94.708,94.708 H 183.029 L 88.321,491.97 V 358.029 l 94.708,-94.708 h 153.075 l 13.53,-13.53 v -19.134 z m -172.20752,-5e-5 v 0.002 L 55.65625,325.36719 42.126953,338.89648 v 0.002 19.13281 133.93945 19.13282 L 55.65625,524.63281 163.89648,632.87305 H 336.10352 L 444.3457,524.63281 457.87305,511.10352 h 0.002 V 491.9707 l -0.002,-0.002 v -133.9375 l 0.002,-0.002 -0.002,-19.13282 -13.5293,-13.52929 -108.24023,-108.23828 v -0.002 z m 19.13477,46.19532 H 316.9707 l 94.70899,94.70703 v 0.002 133.93945 L 316.9707,586.67969 H 183.0293 L 88.320312,491.9707 v -133.93945 -0.002 z M 42.127,511.104 l 13.53,13.529 108.24,108.24 h 172.207 l 121.77,-121.77 V 338.897 L 336.104,217.128 H 163.896 l -108.24,108.24 -13.53,13.53 v 19.134 l 13.53,13.53 h 19.135 l 13.53,-13.53 94.71,-94.71 H 316.97 l 94.71,94.71 V 491.97 l -94.71,94.71 H 183.03 L 88.32,491.97 74.79,478.44 H 55.656 l -13.53,13.53 z M 457.873,338.896 444.343,325.367 336.103,217.127 H 163.897 l -121.77,121.77 v 172.207 l 121.77,121.769 h 172.208 l 108.24,-108.24 13.53,-13.53 V 491.97 l -13.53,-13.53 H 425.21 l -13.53,13.53 -94.71,94.71 H 183.03 L 88.32,491.97 V 358.03 l 94.71,-94.71 h 133.94 l 94.71,94.71 13.53,13.53 h 19.135 l 13.53,-13.53 z M -9.568,586.68 l -13.53,13.527 v 19.137 l 121.09,121.088 -31.023,31.023 h -133.94 l -94.709,-94.709 -13.53,-13.53 -19.134,-10e-4 -13.529,13.531 v 19.133 l 13.53,13.53 108.24,108.24 H 86.104 l 54.119,-54.12 6.015,-6.013 7.516,-7.518 40.592,-40.59 13.527,-13.53 v -19.134 l -13.527,-13.53 H 175.21 L 161.679,676.746 130.655,707.768 9.568,586.68 Z m 138.478,-315.435 -19.134,0.002 -13.529,13.529 -0.001,19.135 274.843,274.844 19.136,-0.002 13.528,-13.529 0.001,-19.135 z M 457.873,511.104 V 338.896 L 336.104,217.127 H 163.896 L 42.127,338.896 v 172.208 l 121.769,121.769 h 172.208 l 13.53,-13.53 v -19.134 l -13.53,-13.53 H 183.03 L 88.321,491.97 V 358.029 l 94.708,-94.708 h 133.942 l 94.708,94.708 v 153.075 l 13.53,13.53 h 19.134 z m 0,0 V 338.896 L 336.104,217.127 H 163.896 L 42.127,338.896 v 172.208 l 121.769,121.769 h 172.208 l 13.53,-13.53 v -19.134 l -13.53,-13.53 H 183.03 L 88.321,491.97 V 358.029 l 94.708,-94.708 h 133.942 l 94.708,94.708 v 153.075 l 13.53,13.53 h 19.134 z M 128.91,271.245 l -19.134,0.002 -13.529,13.529 -0.001,19.135 274.843,274.844 19.136,-0.002 13.528,-13.529 0.001,-19.135 z m 34.986,-54.118 -13.529,13.53 -108.24,108.24 v 172.207 l 121.77,121.77 H 336.104 L 457.873,511.104 V 338.896 l -108.24,-108.24 -13.53,-13.53 H 316.97 l -13.53,13.53 v 19.135 l 13.53,13.53 94.71,94.71 V 491.97 l -94.71,94.71 H 183.03 L 88.32,491.97 V 358.03 l 94.71,-94.71 13.53,-13.53 v -19.135 l -13.53,-13.53 z M 42.127,338.896 V 511.104 L 163.896,632.873 H 336.104 L 457.873,511.104 V 338.896 L 336.104,217.127 H 163.896 l -13.53,13.53 v 19.134 l 13.53,13.53 H 316.97 l 94.708,94.708 V 491.971 L 316.97,586.679 H 183.029 L 88.321,491.97 V 338.896 l -13.53,-13.53 H 55.657 Z m 160.03706,-29.38038 -67.64844,67.64844 v 95.67188 l 67.64844,67.64844 h 95.67188 l 67.64844,-67.64844 v -95.67188 l -67.64844,-67.64844 z m 19.13672,46.19336 h 57.39844 v 0.002 l 40.58984,40.58984 v 57.39844 l -40.58984,40.58984 H 221.30078 L 180.71094,453.69922 V 396.29883 Z M 128.91,271.245 l -19.134,0.002 -13.529,13.529 -0.001,19.135 274.843,274.844 19.136,-0.002 13.528,-13.529 0.001,-19.135 z M 336.104,217.127 H 163.896 L 42.127,338.896 V 511.104 L 163.896,632.873 H 336.104 L 457.873,511.104 V 338.896 l -13.53,-13.53 h -19.134 l -13.53,13.53 V 491.97 l -94.708,94.708 H 183.029 L 88.321,491.97 V 358.029 l 94.708,-94.708 h 153.075 l 13.53,-13.53 V 230.657 Z M -86.104,32.353 l -108.24,108.238 -13.529,13.53 v 19.134 l 13.53,13.532 h 19.133 l 13.53,-13.532 v -0.002 L -66.972,78.544 H 66.97 v 0.002 l 94.709,94.707 v 0.002 l 13.53,13.53 h 19.136 l 13.527,-13.53 V 154.121 L 194.342,140.591 86.102,32.353 Z m 250,600.52 H 336.104 L 457.873,511.104 V 338.896 L 336.104,217.127 H 163.896 L 42.127,338.896 v 172.208 l 13.53,13.53 h 19.134 l 13.53,-13.53 V 358.03 l 94.708,-94.708 h 133.942 l 94.708,94.708 V 491.972 L 316.971,586.68 H 163.896 l -13.53,13.53 v 19.134 z m -34.986,-361.628 -19.134,0.002 -13.529,13.529 -0.001,19.135 274.843,274.844 19.136,-0.002 13.528,-13.529 0.001,-19.135 z M 42.127,338.896 V 511.104 L 163.896,632.873 H 336.104 L 457.873,511.104 V 338.896 L 336.104,217.127 H 163.896 l -13.53,13.53 v 19.134 l 13.53,13.53 H 316.97 l 94.708,94.708 V 491.971 L 316.97,586.679 H 183.029 L 88.321,491.97 V 338.896 l -13.53,-13.53 H 55.657 Z m 293.977,293.977 13.529,-13.53 108.24,-108.24 V 338.897 L 336.103,217.127 H 163.897 l -121.77,121.77 v 172.208 l 108.24,108.24 13.53,13.529 h 19.134 l 13.53,-13.53 V 600.21 l -13.53,-13.53 -94.71,-94.71 V 358.03 l 94.71,-94.71 H 316.97 l 94.71,94.71 v 133.94 l -94.71,94.71 -13.53,13.53 v 19.135 l 13.53,13.529 z M -9.568,263.321 H 9.568 L 23.097,249.792 V 230.656 L -121.089,86.47 l -19.135,0.001 -13.529,13.53 -0.001,19.134 z m 138.478,7.924 -19.134,0.002 -13.529,13.529 -0.001,19.135 274.843,274.844 19.136,-0.002 13.528,-13.529 0.001,-19.135 z m 34.986,-54.118 -13.529,13.53 -108.24,108.24 v 172.207 l 121.77,121.77 H 336.104 L 457.873,511.104 V 338.896 l -108.24,-108.24 -13.53,-13.53 H 316.97 l -13.53,13.53 v 19.135 l 13.53,13.53 94.71,94.71 V 491.97 l -94.71,94.71 H 183.03 L 88.32,491.97 V 358.03 l 94.71,-94.71 13.53,-13.53 v -19.135 l -13.53,-13.53 z m -34.986,54.118 -19.134,0.002 -13.529,13.529 -0.001,19.135 274.843,274.844 19.136,-0.002 13.528,-13.529 0.001,-19.135 z m -86.783,239.859 13.53,13.529 108.24,108.24 h 172.207 l 121.77,-121.77 V 338.897 L 336.104,217.128 H 163.896 l -108.24,108.24 -13.53,13.53 v 19.134 l 13.53,13.53 h 19.135 l 13.53,-13.53 94.71,-94.71 H 316.97 l 94.71,94.71 V 491.97 l -94.71,94.71 H 183.03 L 88.32,491.97 74.79,478.44 H 55.656 l -13.53,13.53 z m 86.783,-239.859 -19.134,0.002 -13.529,13.529 -0.001,19.135 274.843,274.844 19.136,-0.002 13.528,-13.529 0.001,-19.135 z m 328.963,67.651 -13.53,-13.529 -108.24,-108.24 H 163.897 l -121.77,121.77 v 172.207 l 121.77,121.769 h 172.208 l 108.24,-108.24 13.53,-13.53 V 491.97 l -13.53,-13.53 H 425.21 l -13.53,13.53 -94.71,94.71 H 183.03 L 88.32,491.97 V 358.03 l 94.71,-94.71 h 133.94 l 94.71,94.71 13.53,13.53 h 19.135 l 13.53,-13.53 z M -86.104,32.354 -140.22,86.47 h -0.004 l -13.53,13.53 -40.59,40.59 -13.529,13.53 v 19.135 l 13.53,13.531 h 19.132 l 13.531,-13.531 v -0.002 l 31.022,-31.024 121.09,121.09 H 9.568 l 13.53,-13.527 V 230.655 L -97.994,109.565 -66.973,78.544 H 66.971 v 0.002 l 94.709,94.707 v 0.002 l 13.529,13.53 h 19.137 l 13.525,-13.53 V 154.12 L 194.341,140.59 86.101,32.353 Z m 403.07275,184.77491 -13.5293,13.52734 v 19.13477 l 13.53125,13.52929 v 0.002 l 94.70899,94.70703 v 0.002 l 13.53125,13.5293 h 19.13476 l 13.52735,-13.5293 V 338.89648 L 444.34375,325.36719 336.10352,217.12891 Z M 55.65625,478.43945 42.126953,491.9707 v 19.13282 L 55.65625,524.63281 163.89648,632.87305 H 336.10352 L 444.3457,524.63281 457.87305,511.10352 V 491.96875 L 444.3457,478.43945 H 425.21094 L 411.67969,491.9707 316.9707,586.67969 H 183.0293 L 88.320312,491.9707 74.789062,478.43945 Z M 163.89648,217.12891 55.65625,325.36719 42.126953,338.89648 v 0.002 19.13281 L 55.65625,371.5625 h 19.134766 l 13.529296,-13.53125 v -0.002 L 183.0293,263.32031 h 133.9414 v 0.002 l 94.70899,94.70703 v 0.002 l 13.53125,13.5293 h 19.13476 l 13.52735,-13.5293 V 338.89648 L 444.34375,325.36719 336.10352,217.12891 Z m 38.26758,-92.38868 -67.64844,67.64844 v 19.13477 l 13.5293,13.52929 h 19.13477 l 54.11914,-54.11914 h 57.40039 l 40.58984,40.58985 v 426.95312 l -40.58984,40.58985 h -57.39844 l -54.12109,-54.1211 h -19.13281 l -13.53126,13.53125 v 19.13477 l 67.64844,67.64844 h 95.67188 l 67.64844,-67.64844 V 192.38867 L 297.83594,124.74023 Z M 128.91,271.245 l -19.134,0.002 -13.529,13.529 -0.001,19.135 274.843,274.844 19.136,-0.002 13.528,-13.529 0.001,-19.135 z m 73.25406,-146.50477 -67.64844,67.64844 v 465.22266 l 67.64844,67.64844 h 95.67188 l 67.64844,-67.64844 v -19.13477 l -13.5293,-13.52929 h -19.13477 l -54.11914,54.11914 H 221.30078 L 180.71094,638.47656 V 211.52344 l 40.58984,-40.58985 h 57.39844 l 54.12109,54.1211 h 19.13281 l 13.53126,-13.53125 V 192.38867 L 297.83594,124.74023 Z M 128.91,271.245 l -19.134,0.002 -13.529,13.529 -0.001,19.135 274.843,274.844 19.136,-0.002 13.528,-13.529 0.001,-19.135 z M 336.104,217.127 H 163.896 L 42.127,338.896 V 511.104 L 163.896,632.873 H 336.104 L 457.873,511.104 V 338.896 l -13.53,-13.53 h -19.134 l -13.53,13.53 V 491.97 l -94.708,94.708 H 183.029 L 88.321,491.97 V 358.029 l 94.708,-94.708 h 153.075 l 13.53,-13.53 v -19.134 z m -133.93994,92.38862 -67.64844,67.64844 v 95.67188 l 67.64844,67.64844 h 95.67188 l 67.64844,-67.64844 v -95.67188 l -67.64844,-67.64844 z m 19.13672,46.19336 h 57.39844 v 0.002 l 40.58984,40.58984 v 57.39844 l -40.58984,40.58984 H 221.30078 L 180.71094,453.69922 V 396.29883 Z M 128.91,271.245 l -19.134,0.002 -13.529,13.529 -0.001,19.135 274.843,274.844 19.136,-0.002 13.528,-13.529 0.001,-19.135 z m -86.783,239.859 13.53,13.529 108.24,108.24 h 172.207 l 121.77,-121.77 V 338.897 L 336.104,217.128 H 163.896 l -108.24,108.24 -13.53,13.53 v 19.134 l 13.53,13.53 h 19.135 l 13.53,-13.53 94.71,-94.71 H 316.97 l 94.71,94.71 V 491.97 l -94.71,94.71 H 183.03 L 88.32,491.97 74.79,478.44 H 55.656 l -13.53,13.53 z m 86.783,-239.859 -19.134,0.002 -13.529,13.529 -0.001,19.135 274.843,274.844 19.136,-0.002 13.528,-13.529 0.001,-19.135 z m 34.986,361.628 H 336.104 L 457.873,511.104 V 338.896 L 336.104,217.127 H 163.896 L 42.127,338.896 v 172.208 l 13.53,13.53 h 19.134 l 13.53,-13.53 V 358.03 l 94.708,-94.708 h 133.942 l 94.708,94.708 V 491.972 L 316.971,586.68 H 163.896 l -13.53,13.53 v 19.134 z m -358.24,30.342 -13.529,13.532 v 19.132 l 13.53,13.53 108.24,108.24 H 86.104 l 108.242,-108.24 13.527,-13.53 v -19.134 l -13.527,-13.53 H 175.21 l -13.531,13.532 -94.71,94.709 H -66.97 l -94.71,-94.71 -13.53,-13.53 z m 323.254,-391.97 -19.134,0.002 -13.529,13.529 -0.001,19.135 274.843,274.844 19.136,-0.002 13.528,-13.529 0.001,-19.135 z m 207.194,361.628 13.529,-13.53 108.24,-108.24 V 338.897 L 336.103,217.127 H 163.897 l -121.77,121.77 v 172.208 l 108.24,108.24 13.53,13.529 h 19.134 l 13.53,-13.53 V 600.21 l -13.53,-13.53 -94.71,-94.71 V 358.03 l 94.71,-94.71 H 316.97 l 94.71,94.71 v 133.94 l -94.71,94.71 -13.53,13.53 v 19.135 l 13.53,13.529 z M 9.568,586.679 H -9.568 l -13.529,13.529 v 19.136 l 144.186,144.186 19.135,-10e-4 13.529,-13.53 0.001,-19.134 z m 154.328,-369.552 -13.529,13.53 -108.24,108.24 v 172.207 l 121.77,121.77 H 336.104 L 457.873,511.104 V 338.896 l -108.24,-108.24 -13.53,-13.53 H 316.97 l -13.53,13.53 v 19.135 l 13.53,13.53 94.71,94.71 V 491.97 l -94.71,94.71 H 183.03 L 88.32,491.97 V 358.03 l 94.71,-94.71 13.53,-13.53 v -19.135 l -13.53,-13.53 z m 172.208,0 H 163.896 L 42.127,338.896 V 511.104 L 163.896,632.873 H 336.104 L 457.873,511.104 V 338.896 l -13.53,-13.53 h -19.134 l -13.53,13.53 V 491.97 l -94.708,94.708 H 183.029 L 88.321,491.97 V 358.029 l 94.708,-94.708 h 153.075 l 13.53,-13.53 v -19.134 z m -172.20752,-5e-5 v 0.002 L 55.65625,325.36719 42.126953,338.89648 v 0.002 19.13281 133.93945 19.13282 L 55.65625,524.63281 163.89648,632.87305 H 336.10352 L 444.3457,524.63281 457.87305,511.10352 h 0.002 V 491.9707 l -0.002,-0.002 v -133.9375 l 0.002,-0.002 -0.002,-19.13282 -13.5293,-13.52929 -108.24023,-108.23828 v -0.002 z m 19.13477,46.19532 H 316.9707 l 94.70899,94.70703 v 0.002 133.93945 L 316.9707,586.67969 H 183.0293 L 88.320312,491.9707 v -133.93945 -0.002 z M 42.127,511.104 l 13.53,13.529 108.24,108.24 h 172.207 l 121.77,-121.77 V 338.897 L 336.104,217.128 H 163.896 l -108.24,108.24 -13.53,13.53 v 19.134 l 13.53,13.53 h 19.135 l 13.53,-13.53 94.71,-94.71 H 316.97 l 94.71,94.71 V 491.97 l -94.71,94.71 H 183.03 L 88.32,491.97 74.79,478.44 H 55.656 l -13.53,13.53 z M 457.873,338.896 444.343,325.367 336.103,217.127 H 163.897 l -121.77,121.77 v 172.207 l 121.77,121.769 h 172.208 l 108.24,-108.24 13.53,-13.53 V 491.97 l -13.53,-13.53 H 425.21 l -13.53,13.53 -94.71,94.71 H 183.03 L 88.32,491.97 V 358.03 l 94.71,-94.71 h 133.94 l 94.71,94.71 13.53,13.53 h 19.135 l 13.53,-13.53 z M -9.568,586.68 l -13.53,13.527 v 19.137 l 121.09,121.088 -31.023,31.023 h -133.94 l -94.709,-94.709 -13.53,-13.53 -19.134,-10e-4 -13.529,13.531 v 19.133 l 13.53,13.53 108.24,108.24 H 86.104 l 54.119,-54.12 6.015,-6.013 7.516,-7.518 40.592,-40.59 13.527,-13.53 v -19.134 l -13.527,-13.53 H 175.21 L 161.679,676.746 130.655,707.768 9.568,586.68 Z m 138.478,-315.435 -19.134,0.002 -13.529,13.529 -0.001,19.135 274.843,274.844 19.136,-0.002 13.528,-13.529 0.001,-19.135 z M 457.873,511.104 V 338.896 L 336.104,217.127 H 163.896 L 42.127,338.896 v 172.208 l 121.769,121.769 h 172.208 l 13.53,-13.53 v -19.134 l -13.53,-13.53 H 183.03 L 88.321,491.97 V 358.029 l 94.708,-94.708 h 133.942 l 94.708,94.708 v 153.075 l 13.53,13.53 h 19.134 z m 0,0 V 338.896 L 336.104,217.127 H 163.896 L 42.127,338.896 v 172.208 l 121.769,121.769 h 172.208 l 13.53,-13.53 v -19.134 l -13.53,-13.53 H 183.03 L 88.321,491.97 V 358.029 l 94.708,-94.708 h 133.942 l 94.708,94.708 v 153.075 l 13.53,13.53 h 19.134 z M 128.91,271.245 l -19.134,0.002 -13.529,13.529 -0.001,19.135 274.843,274.844 19.136,-0.002 13.528,-13.529 0.001,-19.135 z m 34.986,-54.118 -13.529,13.53 -108.24,108.24 v 172.207 l 121.77,121.77 H 336.104 L 457.873,511.104 V 338.896 l -108.24,-108.24 -13.53,-13.53 H 316.97 l -13.53,13.53 v 19.135 l 13.53,13.53 94.71,94.71 V 491.97 l -94.71,94.71 H 183.03 L 88.32,491.97 V 358.03 l 94.71,-94.71 13.53,-13.53 v -19.135 l -13.53,-13.53 z M 42.127,338.896 V 511.104 L 163.896,632.873 H 336.104 L 457.873,511.104 V 338.896 L 336.104,217.127 H 163.896 l -13.53,13.53 v 19.134 l 13.53,13.53 H 316.97 l 94.708,94.708 V 491.971 L 316.97,586.679 H 183.029 L 88.321,491.97 V 338.896 l -13.53,-13.53 H 55.657 Z m 160.03706,-29.38038 -67.64844,67.64844 v 95.67188 l 67.64844,67.64844 h 95.67188 l 67.64844,-67.64844 v -95.67188 l -67.64844,-67.64844 z m 19.13672,46.19336 h 57.39844 v 0.002 l 40.58984,40.58984 v 57.39844 l -40.58984,40.58984 H 221.30078 L 180.71094,453.69922 V 396.29883 Z M 128.91,271.245 l -19.134,0.002 -13.529,13.529 -0.001,19.135 274.843,274.844 19.136,-0.002 13.528,-13.529 0.001,-19.135 z M 336.104,217.127 H 163.896 L 42.127,338.896 V 511.104 L 163.896,632.873 H 336.104 L 457.873,511.104 V 338.896 l -13.53,-13.53 h -19.134 l -13.53,13.53 V 491.97 l -94.708,94.708 H 183.029 L 88.321,491.97 V 358.029 l 94.708,-94.708 h 153.075 l 13.53,-13.53 V 230.657 Z M -86.104,32.353 l -108.24,108.238 -13.529,13.53 v 19.134 l 13.53,13.532 h 19.133 l 13.53,-13.532 v -0.002 L -66.972,78.544 H 66.97 v 0.002 l 94.709,94.707 v 0.002 l 13.53,13.53 h 19.136 l 13.527,-13.53 V 154.121 L 194.342,140.591 86.102,32.353 Z m 250,600.52 H 336.104 L 457.873,511.104 V 338.896 L 336.104,217.127 H 163.896 L 42.127,338.896 v 172.208 l 13.53,13.53 h 19.134 l 13.53,-13.53 V 358.03 l 94.708,-94.708 h 133.942 l 94.708,94.708 V 491.972 L 316.971,586.68 H 163.896 l -13.53,13.53 v 19.134 z m -34.986,-361.628 -19.134,0.002 -13.529,13.529 -0.001,19.135 274.843,274.844 19.136,-0.002 13.528,-13.529 0.001,-19.135 z M 42.127,338.896 V 511.104 L 163.896,632.873 H 336.104 L 457.873,511.104 V 338.896 L 336.104,217.127 H 163.896 l -13.53,13.53 v 19.134 l 13.53,13.53 H 316.97 l 94.708,94.708 V 491.971 L 316.97,586.679 H 183.029 L 88.321,491.97 V 338.896 l -13.53,-13.53 H 55.657 Z m 293.977,293.977 13.529,-13.53 108.24,-108.24 V 338.897 L 336.103,217.127 H 163.897 l -121.77,121.77 v 172.208 l 108.24,108.24 13.53,13.529 h 19.134 l 13.53,-13.53 V 600.21 l -13.53,-13.53 -94.71,-94.71 V 358.03 l 94.71,-94.71 H 316.97 l 94.71,94.71 v 133.94 l -94.71,94.71 -13.53,13.53 v 19.135 l 13.53,13.529 z M -9.568,263.321 H 9.568 L 23.097,249.792 V 230.656 L -121.089,86.47 l -19.135,0.001 -13.529,13.53 -0.001,19.134 z m 138.478,7.924 -19.134,0.002 -13.529,13.529 -0.001,19.135 274.843,274.844 19.136,-0.002 13.528,-13.529 0.001,-19.135 z m 34.986,-54.118 -13.529,13.53 -108.24,108.24 v 172.207 l 121.77,121.77 H 336.104 L 457.873,511.104 V 338.896 l -108.24,-108.24 -13.53,-13.53 H 316.97 l -13.53,13.53 v 19.135 l 13.53,13.53 94.71,94.71 V 491.97 l -94.71,94.71 H 183.03 L 88.32,491.97 V 358.03 l 94.71,-94.71 13.53,-13.53 v -19.135 l -13.53,-13.53 z m -34.986,54.118 -19.134,0.002 -13.529,13.529 -0.001,19.135 274.843,274.844 19.136,-0.002 13.528,-13.529 0.001,-19.135 z m -86.783,239.859 13.53,13.529 108.24,108.24 h 172.207 l 121.77,-121.77 V 338.897 L 336.104,217.128 H 163.896 l -108.24,108.24 -13.53,13.53 v 19.134 l 13.53,13.53 h 19.135 l 13.53,-13.53 94.71,-94.71 H 316.97 l 94.71,94.71 V 491.97 l -94.71,94.71 H 183.03 L 88.32,491.97 74.79,478.44 H 55.656 l -13.53,13.53 z m 86.783,-239.859 -19.134,0.002 -13.529,13.529 -0.001,19.135 274.843,274.844 19.136,-0.002 13.528,-13.529 0.001,-19.135 z m 328.963,67.651 -13.53,-13.529 -108.24,-108.24 H 163.897 l -121.77,121.77 v 172.207 l 121.77,121.769 h 172.208 l 108.24,-108.24 13.53,-13.53 V 491.97 l -13.53,-13.53 H 425.21 l -13.53,13.53 -94.71,94.71 H 183.03 L 88.32,491.97 V 358.03 l 94.71,-94.71 h 133.94 l 94.71,94.71 13.53,13.53 h 19.135 l 13.53,-13.53 z M -86.104,32.354 -140.22,86.47 h -0.004 l -13.53,13.53 -40.59,40.59 -13.529,13.53 v 19.135 l 13.53,13.531 h 19.132 l 13.531,-13.531 v -0.002 l 31.022,-31.024 121.09,121.09 H 9.568 l 13.53,-13.527 V 230.655 L -97.994,109.565 -66.973,78.544 H 66.971 v 0.002 l 94.709,94.707 v 0.002 l 13.529,13.53 h 19.137 l 13.525,-13.53 V 154.12 L 194.341,140.59 86.101,32.353 Z m 215.014,238.891 -19.134,0.002 -13.529,13.529 -0.001,19.135 274.843,274.844 19.136,-0.002 13.528,-13.529 0.001,-19.135 z m 73.25406,38.27062 -67.64844,67.64844 v 95.67188 l 67.64844,67.64844 h 95.67188 l 67.64844,-67.64844 v -95.67188 l -67.64844,-67.64844 z m 19.13672,46.19336 h 57.39844 v 0.002 l 40.58984,40.58984 v 57.39844 l -40.58984,40.58984 h -57.39844 l -40.58984,-40.58984 v -57.40039 z m -57.4043,-138.58203 v 0.002 L 55.65625,325.36719 42.126953,338.89648 v 0.002 19.13281 133.93945 19.13282 L 55.65625,524.63281 163.89648,632.87305 H 336.10352 L 444.3457,524.63281 457.87305,511.10352 h 0.002 V 491.9707 l -0.002,-0.002 v -133.9375 l 0.002,-0.002 -0.002,-19.13282 -13.5293,-13.52929 -108.24023,-108.23828 v -0.002 z m 19.13477,46.19532 H 316.9707 l 94.70899,94.70703 v 0.002 133.93945 L 316.9707,586.67969 H 183.0293 L 88.320312,491.9707 v -133.93945 -0.002 z m 76.53584,138.58074 13.5299,13.5299 v 19.13418 l -13.5299,13.5299 h -19.13418 l -13.5299,-13.5299 v -19.13418 l 13.5299,-13.5299 z m 0,184.77591 13.5299,13.5299 v 19.13417 l -13.5299,13.5299 h -19.13418 l -13.5299,-13.5299 v -19.13417 l 13.5299,-13.5299 z m 0,-369.55181 13.5299,13.5299 v 19.13417 l -13.5299,13.5299 h -19.13418 l -13.5299,-13.5299 v -19.13417 l 13.5299,-13.5299 z M 134.516,472.836 l 13.529,13.53 54.12,54.118 h 95.67 l 67.65,-67.648 v -95.672 l -67.65,-67.648 h -95.67 l -54.12,54.119 -13.53,13.53 v 19.134 l 13.53,13.53 h 19.135 l 13.529,-13.53 40.59,-40.59 H 278.7 l 40.59,40.59 V 453.7 L 278.7,494.29 H 221.3 L 180.71,453.7 167.18,440.17 h -19.134 l -13.53,13.53 z m 67.64806,-163.32038 -54.11914,54.11915 -13.5293,13.52929 v 19.13477 l 13.5293,13.52929 h 19.13477 l 13.52929,-13.52929 40.58985,-40.58985 h 57.40039 v 0.002 l 40.58984,40.58789 v 0.002 l 13.53125,13.5293 h 19.13281 l 13.53126,-13.5293 v -19.13672 l -13.5293,-13.52929 -54.11914,-54.11915 z m -54.11718,130.6543 -13.53126,13.5293 v 19.13672 l 13.5293,13.52929 54.11914,54.11915 h 95.67188 l 54.11914,-54.11915 13.5293,-13.52929 v -19.13477 l -13.5293,-13.52929 h -19.13477 l -13.52929,13.52929 -40.58985,40.58985 h -57.40039 v -0.002 l -40.58984,-40.58789 v -0.002 l -13.53125,-13.5293 z M 365.484,377.164 l -13.529,-13.53 -54.12,-54.118 h -95.67 l -67.65,67.648 v 95.672 l 67.65,67.648 h 95.67 l 54.12,-54.119 13.53,-13.53 v -19.134 l -13.53,-13.53 H 332.82 l -13.529,13.53 -40.59,40.59 H 221.3 l -40.59,-40.59 V 396.3 l 40.59,-40.59 h 57.4 l 40.59,40.59 13.53,13.53 h 19.134 l 13.53,-13.53 z m -105.91691,24.73901 13.5299,13.5299 v 19.13418 l -13.5299,13.5299 h -19.13418 l -13.5299,-13.5299 v -19.13418 l 13.5299,-13.5299 z m 184.7759,0 13.5299,13.5299 v 19.13418 l -13.5299,13.5299 h -19.13417 l -13.5299,-13.5299 v -19.13418 l 13.5299,-13.5299 z m -369.551811,0 13.529903,13.5299 v 19.13418 l -13.529903,13.5299 H 55.657008 l -13.529903,-13.5299 v -19.13418 l 13.529903,-13.5299 z M 128.91,271.245 l -19.134,0.002 -13.529,13.529 -0.001,19.135 274.843,274.844 19.136,-0.002 13.528,-13.529 0.001,-19.135 z m 130.65709,130.65801 13.5299,13.5299 v 19.13418 l -13.5299,13.5299 h -19.13418 l -13.5299,-13.5299 v -19.13418 l 13.5299,-13.5299 z m 184.7759,0 13.5299,13.5299 v 19.13418 l -13.5299,13.5299 h -19.13417 l -13.5299,-13.5299 v -19.13418 l 13.5299,-13.5299 z m -369.551811,0 13.529903,13.5299 v 19.13418 l -13.529903,13.5299 H 55.657008 l -13.529903,-13.5299 v -19.13418 l 13.529903,-13.5299 z m 184.775911,184.77591 13.5299,13.5299 v 19.13417 l -13.5299,13.5299 h -19.13418 l -13.5299,-13.5299 v -19.13417 l 13.5299,-13.5299 z m 0,-369.55181 13.5299,13.5299 v 19.13417 l -13.5299,13.5299 h -19.13418 l -13.5299,-13.5299 v -19.13417 l 13.5299,-13.5299 z M 128.91,271.245 l -19.134,0.002 -13.529,13.529 -0.001,19.135 274.843,274.844 19.136,-0.002 13.528,-13.529 0.001,-19.135 z m 73.25406,38.27062 -67.64844,67.64844 v 95.67188 l 67.64844,67.64844 h 95.67188 l 67.64844,-67.64844 v -95.67188 l -67.64844,-67.64844 z m 19.13672,46.19336 h 57.39844 v 0.002 l 40.58984,40.58984 v 57.39844 l -40.58984,40.58984 H 221.30078 L 180.71094,453.69922 V 396.29883 Z M 457.873,511.104 V 338.896 L 336.104,217.127 H 163.896 L 42.127,338.896 v 172.208 l 121.769,121.769 h 172.208 l 13.53,-13.53 v -19.134 l -13.53,-13.53 H 183.03 L 88.321,491.97 V 358.029 l 94.708,-94.708 h 133.942 l 94.708,94.708 v 153.075 l 13.53,13.53 h 19.134 z M 202.16406,309.51562 134.51562,377.16406 v 95.67188 l 67.64844,67.64844 h 95.67188 l 67.64844,-67.64844 v -95.67188 l -67.64844,-67.64844 z m 19.13672,46.19336 h 57.39844 v 0.002 l 40.58984,40.58984 v 57.39844 l -40.58984,40.58984 H 221.30078 L 180.71094,453.69922 V 396.29883 Z M 336.104,632.873 l 13.529,-13.53 108.24,-108.24 V 338.897 L 336.103,217.127 H 163.897 l -121.77,121.77 v 172.208 l 108.24,108.24 13.53,13.529 h 19.134 l 13.53,-13.53 V 600.21 l -13.53,-13.53 -94.71,-94.71 V 358.03 l 94.71,-94.71 H 316.97 l 94.71,94.71 v 133.94 l -94.71,94.71 -13.53,13.53 v 19.135 l 13.53,13.529 z M 202.16406,309.51562 134.51562,377.16406 v 95.67188 l 67.64844,67.64844 h 95.67188 l 67.64844,-67.64844 v -95.67188 l -67.64844,-67.64844 z m 19.13672,46.19336 h 57.39844 v 0.002 l 40.58984,40.58984 v 57.39844 l -40.58984,40.58984 H 221.30078 L 180.71094,453.69922 V 396.29883 Z M 163.896,632.873 H 336.104 L 457.873,511.104 V 338.896 L 336.104,217.127 H 163.896 L 42.127,338.896 v 172.208 l 13.53,13.53 h 19.134 l 13.53,-13.53 V 358.03 l 94.708,-94.708 h 133.942 l 94.708,94.708 V 491.972 L 316.971,586.68 H 163.896 l -13.53,13.53 v 19.134 z m 38.26806,-323.35738 -67.64844,67.64844 v 95.67188 l 67.64844,67.64844 h 95.67188 l 67.64844,-67.64844 v -95.67188 l -67.64844,-67.64844 z m 19.13672,46.19336 h 57.39844 v 0.002 l 40.58984,40.58984 v 57.39844 l -40.58984,40.58984 H 221.30078 L 180.71094,453.69922 V 396.29883 Z M 457.873,338.896 444.343,325.367 336.103,217.127 H 163.897 l -121.77,121.77 v 172.207 l 121.77,121.769 h 172.208 l 108.24,-108.24 13.53,-13.53 V 491.97 l -13.53,-13.53 H 425.21 l -13.53,13.53 -94.71,94.71 H 183.03 L 88.32,491.97 V 358.03 l 94.71,-94.71 h 133.94 l 94.71,94.71 13.53,13.53 h 19.135 l 13.53,-13.53 z m -255.70894,-29.38038 -67.64844,67.64844 v 95.67188 l 67.64844,67.64844 h 95.67188 l 67.64844,-67.64844 v -95.67188 l -67.64844,-67.64844 z m 19.13672,46.19336 h 57.39844 v 0.002 l 40.58984,40.58984 v 57.39844 l -40.58984,40.58984 h -57.39844 l -40.58984,-40.58984 v -57.40039 z m -57.4043,-138.58203 v 0.002 L 55.65625,325.36719 42.126953,338.89648 v 0.002 19.13281 133.93945 19.13282 L 55.65625,524.63281 163.89648,632.87305 H 336.10352 L 444.3457,524.63281 457.87305,511.10352 h 0.002 V 491.9707 l -0.002,-0.002 v -133.9375 l 0.002,-0.002 -0.002,-19.13282 -13.5293,-13.52929 -108.24023,-108.23828 v -0.002 z m 19.13477,46.19532 H 316.9707 l 94.70899,94.70703 v 0.002 133.93945 L 316.9707,586.67969 H 183.0293 L 88.320312,491.9707 v -133.93945 -0.002 z m 19.13281,46.19335 -67.64844,67.64844 v 95.67188 l 67.64844,67.64844 h 95.67188 l 67.64844,-67.64844 v -95.67188 l -67.64844,-67.64844 z m 19.13672,46.19336 h 57.39844 v 0.002 l 40.58984,40.58984 v 57.39844 l -40.58984,40.58984 H 221.30078 L 180.71094,453.69922 V 396.29883 Z M 42.127,511.104 l 13.53,13.529 108.24,108.24 h 172.207 l 121.77,-121.77 V 338.897 L 336.104,217.128 H 163.896 l -108.24,108.24 -13.53,13.53 v 19.134 l 13.53,13.53 h 19.135 l 13.53,-13.53 94.71,-94.71 H 316.97 l 94.71,94.71 V 491.97 l -94.71,94.71 H 183.03 L 88.32,491.97 74.79,478.44 H 55.656 l -13.53,13.53 z m 160.03706,-201.58838 -67.64844,67.64844 v 95.67188 l 67.64844,67.64844 h 95.67188 l 67.64844,-67.64844 v -95.67188 l -67.64844,-67.64844 z m 19.13672,46.19336 h 57.39844 v 0.002 l 40.58984,40.58984 v 57.39844 l -40.58984,40.58984 H 221.30078 L 180.71094,453.69922 V 396.29883 Z M 336.104,217.127 H 163.896 L 42.127,338.896 V 511.104 L 163.896,632.873 H 336.104 L 457.873,511.104 V 338.896 l -13.53,-13.53 h -19.134 l -13.53,13.53 V 491.97 l -94.708,94.708 H 183.029 L 88.321,491.97 V 358.029 l 94.708,-94.708 h 153.075 l 13.53,-13.53 v -19.134 z m -133.93994,92.38862 -67.64844,67.64844 v 95.67188 l 67.64844,67.64844 h 95.67188 l 67.64844,-67.64844 v -95.67188 l -67.64844,-67.64844 z m 19.13672,46.19336 h 57.39844 v 0.002 l 40.58984,40.58984 v 57.39844 l -40.58984,40.58984 H 221.30078 L 180.71094,453.69922 V 396.29883 Z M 163.896,217.127 l -13.529,13.53 -108.24,108.24 v 172.207 l 121.77,121.77 H 336.104 L 457.873,511.104 V 338.896 l -108.24,-108.24 -13.53,-13.53 H 316.97 l -13.53,13.53 v 19.135 l 13.53,13.53 94.71,94.71 V 491.97 l -94.71,94.71 H 183.03 L 88.32,491.97 V 358.03 l 94.71,-94.71 13.53,-13.53 v -19.135 l -13.53,-13.53 z m 38.26806,92.38862 -67.64844,67.64844 v 95.67188 l 67.64844,67.64844 h 95.67188 l 67.64844,-67.64844 v -95.67188 l -67.64844,-67.64844 z m 19.13672,46.19336 h 57.39844 v 0.002 l 40.58984,40.58984 v 57.39844 l -40.58984,40.58984 H 221.30078 L 180.71094,453.69922 V 396.29883 Z M 42.127,338.896 V 511.104 L 163.896,632.873 H 336.104 L 457.873,511.104 V 338.896 L 336.104,217.127 H 163.896 l -13.53,13.53 v 19.134 l 13.53,13.53 H 316.97 l 94.708,94.708 V 491.971 L 316.97,586.679 H 183.029 L 88.321,491.97 V 338.896 l -13.53,-13.53 H 55.657 Z m 160.03706,-29.38038 -67.64844,67.64844 v 95.67188 l 67.64844,67.64844 h 95.67188 l 67.64844,-67.64844 v -95.67188 l -67.64844,-67.64844 z m 19.13672,46.19336 h 57.39844 v 0.002 l 40.58984,40.58984 v 57.39844 l -40.58984,40.58984 H 221.30078 L 180.71094,453.69922 V 396.29883 Z M 403.755,303.91 l -0.002,-19.134 -13.529,-13.529 -19.135,-0.001 -274.844,274.843 0.002,19.136 13.529,13.528 19.135,10e-4 z m -144.18791,97.99301 13.5299,13.5299 v 19.13418 l -13.5299,13.5299 h -19.13418 l -13.5299,-13.5299 v -19.13418 l 13.5299,-13.5299 z m 184.7759,0 13.5299,13.5299 v 19.13418 l -13.5299,13.5299 h -19.13417 l -13.5299,-13.5299 v -19.13418 l 13.5299,-13.5299 z m -369.551811,0 13.529903,13.5299 v 19.13418 l -13.529903,13.5299 H 55.657008 l -13.529903,-13.5299 v -19.13418 l 13.529903,-13.5299 z m 184.775911,184.77591 13.5299,13.5299 v 19.13417 l -13.5299,13.5299 h -19.13418 l -13.5299,-13.5299 v -19.13417 l 13.5299,-13.5299 z m 0,-369.55181 13.5299,13.5299 v 19.13417 l -13.5299,13.5299 h -19.13418 l -13.5299,-13.5299 v -19.13417 l 13.5299,-13.5299 z M 444.345,448.098 457.873,434.566 v -19.132 l -13.53,-13.532 H 55.656 l -13.53,13.532 v 19.132 l 13.53,13.532 z m -184.77791,-46.19499 13.5299,13.5299 v 19.13418 l -13.5299,13.5299 h -19.13418 l -13.5299,-13.5299 v -19.13418 l 13.5299,-13.5299 z m 184.7759,0 13.5299,13.5299 v 19.13418 l -13.5299,13.5299 h -19.13417 l -13.5299,-13.5299 v -19.13418 l 13.5299,-13.5299 z m -369.551811,0 13.529903,13.5299 v 19.13418 l -13.529903,13.5299 H 55.657008 l -13.529903,-13.5299 v -19.13418 l 13.529903,-13.5299 z M 273.098,230.655 259.566,217.127 h -19.132 l -13.532,13.53 v 388.687 l 13.532,13.53 h 19.132 l 13.532,-13.53 z m 171.247,217.443 13.528,-13.532 v -19.132 l -13.53,-13.532 H 55.656 l -13.53,13.532 v 19.132 l 13.53,13.532 z m -203.91141,-230.97105 -13.53125,13.5293 v 138.58008 l -97.99218,-97.99219 -19.13477,0.002 -13.529296,13.5293 v 19.13477 L 217.33594,425 96.244141,546.08984 l 0.002,19.13477 13.529296,13.5293 h 19.13477 l 97.99218,-97.99219 v 138.58203 l 13.53125,13.5293 h 19.13282 l 13.53125,-13.5293 V 480.76367 l 97.99218,97.99219 19.13477,-0.002 13.5293,-13.5293 V 546.08984 L 282.66406,425 l 121.0918,-121.08984 -0.002,-19.13477 -13.5293,-13.5293 h -19.13477 l -97.99218,97.99219 V 230.6543 L 259.56641,217.12695 Z M 109.775,124.74 96.246,138.27 v 19.134 l 13.531,13.53 h 76.537 l 40.588,40.588 v 426.955 l -40.588,40.588 h -76.539 l -13.53,13.53 v 19.134 l 13.532,13.53 c 31.89,0.005 63.78,0.002 95.67,0 l 67.648,-67.648 V 192.39 l -67.648,-67.649 z m 184.77773,2.3e-4 -67.64843,67.64844 v 465.22071 l 67.64843,67.65039 h 95.67188 l 13.5293,-13.53125 V 692.5957 L 390.22266,679.06445 H 313.68555 L 273.09766,638.47852 V 211.52344 l 40.58789,-40.58789 h 76.53906 l 13.53125,-13.53125 v -19.13282 l -13.5332,-13.53125 c -31.89,-0.005 -63.77993,-0.002 -95.66993,0 z m -34.98564,92.38688 13.5299,13.5299 v 19.13417 l -13.5299,13.5299 h -19.13418 l -13.5299,-13.5299 v -19.13417 l 13.5299,-13.5299 z m 0,184.7759 13.5299,13.5299 v 19.13418 l -13.5299,13.5299 h -19.13418 l -13.5299,-13.5299 v -19.13418 l 13.5299,-13.5299 z M 134.516,472.836 l 13.529,13.53 54.12,54.118 h 95.67 l 67.65,-67.648 v -95.672 l -67.65,-67.648 h -95.67 l -54.12,54.119 -13.53,13.53 v 19.134 l 13.53,13.53 h 19.135 l 13.529,-13.53 40.59,-40.59 H 278.7 l 40.59,40.59 V 453.7 L 278.7,494.29 H 221.3 L 180.71,453.7 167.18,440.17 h -19.134 l -13.53,13.53 z m -92.389,38.268 13.53,13.529 108.24,108.24 h 172.207 l 121.77,-121.77 V 338.897 L 336.104,217.128 H 163.896 l -108.24,108.24 -13.53,13.53 v 19.134 l 13.53,13.53 h 19.135 l 13.53,-13.53 94.71,-94.71 H 316.97 l 94.71,94.71 V 491.97 l -94.71,94.71 H 183.03 L 88.32,491.97 74.79,478.44 H 55.656 l -13.53,13.53 z m 67.65,-239.858 -13.53,13.531 v 19.133 l 13.53,13.531 h 19.133 l 13.531,-13.53 v -19.134 l -13.53,-13.53 z m 261.313,0 -274.846,274.844 0.002,19.135 13.53,13.529 h 19.134 l 274.846,-274.844 -0.002,-19.135 -13.53,-13.529 z m 0,261.313 -13.531,13.53 v 19.134 l 13.53,13.53 h 19.134 l 13.53,-13.53 V 546.09 l -13.53,-13.531 z M 55.65625,478.43945 42.126953,491.9707 v 19.13282 L 55.65625,524.63281 163.89648,632.87305 H 336.10352 L 444.3457,524.63281 457.87305,511.10352 V 491.96875 L 444.3457,478.43945 H 425.21094 L 411.67969,491.9707 316.9707,586.67969 H 183.0293 L 88.320312,491.9707 74.789062,478.43945 Z M 163.89648,217.12891 55.65625,325.36719 42.126953,338.89648 v 0.002 19.13281 L 55.65625,371.5625 h 19.134766 l 13.529296,-13.53125 v -0.002 L 183.0293,263.32031 h 133.9414 v 0.002 l 94.70899,94.70703 v 0.002 l 13.53125,13.5293 h 19.13476 l 13.52735,-13.5293 V 338.89648 L 444.34375,325.36719 336.10352,217.12891 Z M 128.91,271.245 l -19.134,0.002 -13.529,13.529 -0.001,19.135 274.843,274.844 19.136,-0.002 13.528,-13.529 0.001,-19.135 z m 130.657,-238.894 13.53,13.53 V 804.12 l -13.53,13.53 h -19.134 l -13.53,-13.53 V 45.88 l 13.53,-13.53 z m -130.657,238.894 -19.134,0.002 -13.529,13.529 -0.001,19.135 274.843,274.844 19.136,-0.002 13.528,-13.529 0.001,-19.135 z m 328.963,67.651 -13.53,-13.529 -108.24,-108.24 H 163.897 l -121.77,121.77 v 172.207 l 121.77,121.769 h 172.208 l 108.24,-108.24 13.53,-13.53 V 491.97 l -13.53,-13.53 H 425.21 l -13.53,13.53 -94.71,94.71 H 183.03 L 88.32,491.97 V 358.03 l 94.71,-94.71 h 133.94 l 94.71,94.71 13.53,13.53 h 19.135 l 13.53,-13.53 z M 259.567,32.351 l 13.53,13.53 V 804.12 l -13.53,13.53 h -19.134 l -13.53,-13.53 V 45.88 l 13.53,-13.53 z m 144.186,252.426 v 19.134 l -13.53,13.53 H 371.09 l -13.53,-13.53 v -19.134 l 13.53,-13.53 h 19.134 z m -293.976,-13.53 h 19.134 l 13.53,13.53 v 19.134 l -13.53,13.53 h -19.134 l -13.53,-13.53 v -19.134 z m 149.79009,315.43192 13.5299,13.5299 v 19.13417 l -13.5299,13.5299 h -19.13418 l -13.5299,-13.5299 v -19.13417 l 13.5299,-13.5299 z m 0,-369.55181 13.5299,13.5299 v 19.13417 l -13.5299,13.5299 h -19.13418 l -13.5299,-13.5299 v -19.13417 l 13.5299,-13.5299 z" />
</svg>