<?xml version="1.0" encoding="UTF-8" standalone="no"?>
<svg width="500" height="850" version="1.1" id="svg7" sodipodi:docname="xavani.svg" inkscape:version="1.4.3 (0d15f750, 2025-12-25)" xmlns:inkscape="http://www.inkscape.org/namespaces/inkscape" xmlns:sodipodi="http://sodipodi.sourceforge.net/DTD/sodipodi-0.dtd" xmlns="http://www.w3.org/2000/svg" xmlns:svg="http://www.w3.org/2000/svg">
    <defs id="defs7" />
    <sodipodi:namedview id="namedview7" pagecolor="#ffffff" bordercolor="#000000" borderopacity="0.25" inkscape:showpageshadow="2" inkscape:pageopacity="0.0" inkscape:pagecheckerboard="0" inkscape:deskcolor="#d1d1d1" inkscape:zoom="1.440762" inkscape:cx="195.72976" inkscape:cy="183.23637" inkscape:window-width="1080" inkscape:window-height="675" inkscape:window-x="0" inkscape:window-y="25" inkscape:window-maximized="0" inkscape:current-layer="svg7" />
    <path id="path8" style="fill:#000000;fill-opacity:0;stroke:#ff0000" d="m 202.16406,124.73962 -67.64844,67.64844 v 95.67188 l 67.64844,67.64844 h 95.67188 l 67.64844,-67.64844 v -95.67188 l -67.64844,-67.64844 z m 19.13672,46.19336 h 57.39844 v 0.002 l 40.58984,40.58984 v 57.39844 l -40.58984,40.58984 h -57.39844 l -40.58984,-40.58984 v -57.40039 z m -19.13672,323.35864 -67.64844,67.64844 v 95.67188 l 67.64844,67.64844 h 95.67188 l 67.64844,-67.64844 v -95.67188 l -67.64844,-67.64844 z m 19.13672,46.19336 h 57.39844 v 0.002 l 40.58984,40.58984 v 57.39844 L 278.69922,679.0651 H 221.30078 L 180.71094,638.47526 V 581.07487 Z M 259.567,32.351 l 13.53,13.53 V 804.12 l -13.53,13.53 h -19.134 l -13.53,-13.53 V 45.88 l 13.53,-13.53 z m -95.67052,184.77595 v 0.002 L 55.65625,325.36719 42.126953,338.89648 v 0.002 19.13281 133.93945 19.13282 L 55.65625,524.63281 163.89648,632.87305 H 336.10352 L 444.3457,524.63281 457.87305,511.10352 h 0.002 V 491.9707 l -0.002,-0.002 v -133.9375 l 0.002,-0.002 -0.002,-19.13282 -13.5293,-13.52929 -108.24023,-108.23828 v -0.002 z m 19.13477,46.19532 H 316.9707 l 94.70899,94.70703 v 0.002 133.93945 L 316.9707,586.67969 H 183.0293 L 88.320312,491.9707 v -133.93945 -0.002 z M 259.568,586.679 h -19.136 l -13.529,13.529 v 19.136 l 144.186,144.186 19.135,-10e-4 13.529,-13.53 0.001,-19.134 z M 55.656,663.215 42.127,676.747 v 19.132 l 13.53,13.53 108.24,108.24 h 172.207 l 108.242,-108.24 13.527,-13.53 v -19.134 l -13.527,-13.53 H 425.21 l -13.531,13.532 -94.71,94.709 H 183.03 L 88.32,676.746 74.79,663.216 Z M 240.432,263.321 h 19.136 l 13.529,-13.529 V 230.656 L 128.911,86.47 l -19.135,0.001 -13.529,13.53 -0.001,19.134 z M 163.896,32.353 55.656,140.591 42.127,154.121 v 19.134 l 13.53,13.532 H 74.79 l 13.53,-13.532 v -0.002 L 183.028,78.544 H 316.97 v 0.002 l 94.709,94.707 v 0.002 l 13.53,13.53 h 19.136 l 13.527,-13.53 v -19.134 l -13.53,-13.53 -108.24,-108.238 z" />
</svg>
