<svg width="500" height="850" xmlns="http://www.w3.org/2000/svg" xmlns:svg="http://www.w3.org/2000/svg">
    <path
        d="m336.104 217.127 121.769 121.77v172.207l-121.77 121.769H163.897L42.127 511.103V338.897l121.77-121.769Zm-19.134 46.194 94.709 94.71V491.97l-94.71 94.709H183.03l-94.709-94.71V358.03l94.71-94.709Zm-19.135 46.194 67.65 67.65v95.67l-67.65 67.65h-95.67l-67.65-67.65v-95.67l67.65-67.65zm-19.134 46.194 40.59 40.59V453.7l-40.59 40.59H221.3l-40.59-40.59V396.3l40.59-40.59zm-19.134 46.194 13.53 13.53v19.134l-13.53 13.53h-19.134l-13.53-13.53v-19.134l13.53-13.53zm76.537-369.552 121.769 121.77v172.207l-121.77 121.769H163.897L42.127 326.327V154.12l121.77-121.769ZM316.97 78.545l94.709 94.71v133.939l-94.71 94.709H183.03l-94.709-94.71V173.255l94.71-94.709Zm-19.135 46.194 67.65 67.65v95.67l-67.65 67.65h-95.67l-67.65-67.65v-95.67l67.65-67.65zm-19.134 46.194 40.59 40.59v57.402l-40.59 40.59H221.3l-40.59-40.59v-57.402l40.59-40.59zm-19.134 46.194 13.53 13.53v19.134l-13.53 13.53h-19.134l-13.53-13.53v-19.134l13.53-13.53zm76.537 184.776 121.769 121.77V695.88l-121.77 121.769H163.897L42.127 695.879V523.673l121.77-121.769Zm-19.134 46.194 94.709 94.71v133.939l-94.71 94.709H183.03l-94.709-94.71V542.807l94.71-94.709Zm-19.135 46.194 67.65 67.65v95.67l-67.65 67.65h-95.67l-67.65-67.65v-95.67l67.65-67.65zm-19.134 46.194 40.59 40.59v57.402l-40.59 40.59H221.3l-40.59-40.59v-57.402l40.59-40.59zm-19.134 46.194 13.53 13.53v19.134l-13.53 13.53h-19.134l-13.53-13.53v-19.134l13.53-13.53z"
        style="fill:none;stroke:red" />
</svg>