<?xml version="1.0" encoding="UTF-8" standalone="no"?>
<svg width="500" height="850" version="1.1" id="svg19" sodipodi:docname="xavani.svg" inkscape:version="1.4.3 (0d15f750, 2025-12-25)" xmlns:inkscape="http://www.inkscape.org/namespaces/inkscape" xmlns:sodipodi="http://sodipodi.sourceforge.net/DTD/sodipodi-0.dtd" xmlns="http://www.w3.org/2000/svg" xmlns:svg="http://www.w3.org/2000/svg">
    <defs id="defs19" />
    <sodipodi:namedview id="namedview19" pagecolor="#ffffff" bordercolor="#000000" borderopacity="0.25" inkscape:showpageshadow="2" inkscape:pageopacity="0.0" inkscape:pagecheckerboard="0" inkscape:deskcolor="#d1d1d1" inkscape:zoom="0.50352941" inkscape:cx="250.23364" inkscape:cy="425" inkscape:window-width="1080" inkscape:window-height="647" inkscape:window-x="0" inkscape:window-y="25" inkscape:window-maximized="0" inkscape:current-layer="svg19" />
    <polygon points="254.619397662556 131.271966758213 251.913417161825 133.977947258944 248.086582838175 133.977947258944 245.380602337444 131.271966758213 245.380602337444 127.445132434563 248.086582838175 124.739151933832 251.913417161825 124.739151933832 254.619397662556 127.445132434563" id="polygon11" />
    <polygon points="254.619397662556 149.749557408439 251.913417161825 152.45553790917 248.086582838175 152.45553790917 245.380602337444 149.749557408439 245.380602337444 145.922723084789 248.086582838175 143.216742584058 251.913417161825 143.216742584058 254.619397662556 145.922723084789" id="polygon12" />
    <polygon points="254.619397662556 168.227148058665 251.913417161825 170.933128559396 248.086582838175 170.933128559396 245.380602337444 168.227148058665 245.380602337444 164.400313735015 248.086582838175 161.694333234284 251.913417161825 161.694333234284 254.619397662556 164.400313735015" id="polygon13" />
    <polygon points="236.14180701233 149.749557408439 233.435826511599 152.45553790917 229.608992187949 152.45553790917 226.903011687218 149.749557408439 226.903011687218 145.922723084789 229.608992187949 143.216742584058 233.435826511599 143.216742584058 236.14180701233 145.922723084789" id="polygon14" />
    <polygon points="273.096988312782 149.749557408439 270.391007812051 152.45553790917 266.564173488401 152.45553790917 263.85819298767 149.749557408439 263.85819298767 145.922723084789 266.564173488401 143.216742584058 270.391007812051 143.216742584058 273.096988312782 145.922723084789" id="polygon15" />
    <polyline points="254.619397662556 685.599686264985 251.913417161825 688.305666765716 248.086582838175 688.305666765716 245.380602337444 685.599686264985 245.380602337444 681.772851941335 248.086582838175 679.066871440604 251.913417161825 679.066871440604 254.619397662556 681.772851941335" id="polyline15" />
    <polygon points="254.619397662556 704.077276915211 251.913417161825 706.783257415942 248.086582838175 706.783257415942 245.380602337444 704.077276915211 245.380602337444 700.250442591561 248.086582838175 697.54446209083 251.913417161825 697.54446209083 254.619397662556 700.250442591561" id="polygon16" />
    <polygon points="254.619397662556 722.554867565437 251.913417161825 725.260848066168 248.086582838175 725.260848066168 245.380602337444 722.554867565437 245.380602337444 718.728033241787 248.086582838175 716.022052741056 251.913417161825 716.022052741056 254.619397662556 718.728033241787" id="polygon17" />
    <polygon points="236.14180701233 704.077276915211 233.435826511599 706.783257415942 229.608992187949 706.783257415942 226.903011687218 704.077276915211 226.903011687218 700.250442591561 229.608992187949 697.54446209083 233.435826511599 697.54446209083 236.14180701233 700.250442591561" id="polygon18" />
    <polygon points="273.096988312782 704.077276915211 270.391007812051 706.783257415942 266.564173488401 706.783257415942 263.85819298767 704.077276915211 263.85819298767 700.250442591561 266.564173488401 697.54446209083 270.391007812051 697.54446209083 273.096988312782 700.250442591561" id="polygon19" />
</svg>
