<svg width="500" height="850" xmlns="http://www.w3.org/2000/svg">
    <path style="fill:#000000;fill-opacity:0;stroke:#ff0000"
        d="m 202.16406,124.73962 -67.64844,67.64844 v 95.67188 l 67.64844,67.64844 h 95.67188 l 67.64844,-67.64844 v -95.67188 l -67.64844,-67.64844 z m 19.13672,46.19336 h 57.39844 v 0.002 l 40.58984,40.58984 v 57.39844 l -40.58984,40.58984 h -57.39844 l -40.58984,-40.58984 v -57.40039 z m -19.13672,323.35864 -67.64844,67.64844 v 95.67188 l 67.64844,67.64844 h 95.67188 l 67.64844,-67.64844 v -95.67188 l -67.64844,-67.64844 z m 19.13672,46.19336 h 57.39844 v 0.002 l 40.58984,40.58984 v 57.39844 L 278.69922,679.0651 H 221.30078 L 180.71094,638.47526 V 581.07487 Z M 259.567,32.351 l 13.53,13.53 V 804.12 l -13.53,13.53 h -19.134 l -13.53,-13.53 V 45.88 l 13.53,-13.53 z m -95.67052,184.77595 v 0.002 L 55.65625,325.36719 42.126953,338.89648 v 0.002 19.13281 133.93945 19.13282 L 55.65625,524.63281 163.89648,632.87305 H 336.10352 L 444.3457,524.63281 457.87305,511.10352 h 0.002 V 491.9707 l -0.002,-0.002 v -133.9375 l 0.002,-0.002 -0.002,-19.13282 -13.5293,-13.52929 -108.24023,-108.23828 v -0.002 z m 19.13477,46.19532 H 316.9707 l 94.70899,94.70703 v 0.002 133.93945 L 316.9707,586.67969 H 183.0293 L 88.320312,491.9707 v -133.93945 -0.002 z M 259.568,586.679 h -19.136 l -13.529,13.529 v 19.136 l 144.186,144.186 19.135,-10e-4 13.529,-13.53 0.001,-19.134 z M 55.656,663.215 42.127,676.747 v 19.132 l 13.53,13.53 108.24,108.24 h 172.207 l 108.242,-108.24 13.527,-13.53 v -19.134 l -13.527,-13.53 H 425.21 l -13.531,13.532 -94.71,94.709 H 183.03 L 88.32,676.746 74.79,663.216 Z M 240.432,263.321 h 19.136 l 13.529,-13.529 V 230.656 L 128.911,86.47 l -19.135,0.001 -13.529,13.53 -0.001,19.134 z M 163.896,32.353 55.656,140.591 42.127,154.121 v 19.134 l 13.53,13.532 H 74.79 l 13.53,-13.532 v -0.002 L 183.028,78.544 H 316.97 v 0.002 l 94.709,94.707 v 0.002 l 13.53,13.53 h 19.136 l 13.527,-13.53 v -19.134 l -13.53,-13.53 -108.24,-108.238 z" />
    <polygon
        points="273.096988312782 157.403226055741 259.567085809127 170.933128559396 240.432914190873 170.933128559396 226.903011687218 157.403226055741 226.903011687218 138.269054437487 240.432914190873 124.739151933832 259.567085809127 124.739151933832 273.096988312782 138.269054437487"
        style="fill:#000000;fill-opacity:0;stroke:#ff0000" />
    <polygon
        points="268.477590650226 155.489808893916 257.653668647302 166.31373089684 242.346331352698 166.31373089684 231.522409349774 155.489808893916 231.522409349774 140.182471599312 242.346331352698 129.358549596388 257.653668647302 129.358549596388 268.477590650226 140.182471599312"
        style="fill:#000000;fill-opacity:0;stroke:#ff0000" />
    <polygon
        points="263.858192987669 153.57639173209 255.740251485476 161.694333234283 244.259748514524 161.694333234283 236.141807012331 153.57639173209 236.141807012331 142.095888761138 244.259748514524 133.977947258945 255.740251485476 133.977947258945 263.858192987669 142.095888761138"
        style="fill:#000000;fill-opacity:0;stroke:#ff0000" />
    <polygon
        points="259.238795325113 151.662974570265 253.826834323651 157.074935571727 246.173165676349 157.074935571727 240.761204674887 151.662974570265 240.761204674887 144.009305922963 246.173165676349 138.597344921501 253.826834323651 138.597344921501 259.238795325113 144.009305922963"
        style="fill:#000000;fill-opacity:0;stroke:#ff0000" />
    <polygon
        points="254.619397662556 149.749557408439 251.913417161825 152.45553790917 248.086582838175 152.45553790917 245.380602337444 149.749557408439 245.380602337444 145.922723084789 248.086582838175 143.216742584058 251.913417161825 143.216742584058 254.619397662556 145.922723084789"
        style="fill:#000000;fill-opacity:0;stroke:#ff0000" />

    <polygon
        points="273.096988312782 711.730945562513 259.567085809127 725.260848066168 240.432914190873 725.260848066168 226.903011687218 711.730945562513 226.903011687218 692.596773944259 240.432914190873 679.066871440604 259.567085809127 679.066871440604 273.096988312782 692.596773944259"
        style="fill:#000000;fill-opacity:0;stroke:#ff0000" />
    <polygon
        points="268.477590650226 709.817528400688 257.653668647302 720.641450403612 242.346331352698 720.641450403612 231.522409349774 709.817528400688 231.522409349774 694.510191106084 242.346331352698 683.68626910316 257.653668647302 683.68626910316 268.477590650226 694.510191106084"
        style="fill:#000000;fill-opacity:0;stroke:#ff0000" />
    <polygon
        points="263.858192987669 707.904111238862 255.740251485476 716.022052741055 244.259748514524 716.022052741055 236.141807012331 707.904111238862 236.141807012331 696.42360826791 244.259748514524 688.305666765717 255.740251485476 688.305666765717 263.858192987669 696.42360826791"
        style="fill:#000000;fill-opacity:0;stroke:#ff0000" />
    <polygon
        points="259.238795325113 705.990694077037 253.826834323651 711.402655078499 246.173165676349 711.402655078499 240.761204674887 705.990694077037 240.761204674887 698.337025429735 246.173165676349 692.925064428273 253.826834323651 692.925064428273 259.238795325113 698.337025429735"
        style="fill:#000000;fill-opacity:0;stroke:#ff0000" />
    <polygon
        points="254.619397662556 704.077276915211 251.913417161825 706.783257415942 248.086582838175 706.783257415942 245.380602337444 704.077276915211 245.380602337444 700.250442591561 248.086582838175 697.54446209083 251.913417161825 697.54446209083 254.619397662556 700.250442591561"
        style="fill:#000000;fill-opacity:0;stroke:#ff0000" />

    <polygon
        points="254.619397662556 131.271966758213 251.913417161825 133.977947258944 248.086582838175 133.977947258944 245.380602337444 131.271966758213 245.380602337444 127.445132434563 248.086582838175 124.739151933832 251.913417161825 124.739151933832 254.619397662556 127.445132434563" />
    <polygon
        points="254.619397662556 149.749557408439 251.913417161825 152.45553790917 248.086582838175 152.45553790917 245.380602337444 149.749557408439 245.380602337444 145.922723084789 248.086582838175 143.216742584058 251.913417161825 143.216742584058 254.619397662556 145.922723084789" />
    <polygon
        points="254.619397662556 168.227148058665 251.913417161825 170.933128559396 248.086582838175 170.933128559396 245.380602337444 168.227148058665 245.380602337444 164.400313735015 248.086582838175 161.694333234284 251.913417161825 161.694333234284 254.619397662556 164.400313735015" />
    <polygon
        points="236.14180701233 149.749557408439 233.435826511599 152.45553790917 229.608992187949 152.45553790917 226.903011687218 149.749557408439 226.903011687218 145.922723084789 229.608992187949 143.216742584058 233.435826511599 143.216742584058 236.14180701233 145.922723084789" />
    <polygon
        points="273.096988312782 149.749557408439 270.391007812051 152.45553790917 266.564173488401 152.45553790917 263.85819298767 149.749557408439 263.85819298767 145.922723084789 266.564173488401 143.216742584058 270.391007812051 143.216742584058 273.096988312782 145.922723084789" />
    <polyline
        points="254.619397662556 685.599686264985 251.913417161825 688.305666765716 248.086582838175 688.305666765716 245.380602337444 685.599686264985 245.380602337444 681.772851941335 248.086582838175 679.066871440604 251.913417161825 679.066871440604 254.619397662556 681.772851941335" />
    <polygon
        points="254.619397662556 704.077276915211 251.913417161825 706.783257415942 248.086582838175 706.783257415942 245.380602337444 704.077276915211 245.380602337444 700.250442591561 248.086582838175 697.54446209083 251.913417161825 697.54446209083 254.619397662556 700.250442591561" />
    <polygon
        points="254.619397662556 722.554867565437 251.913417161825 725.260848066168 248.086582838175 725.260848066168 245.380602337444 722.554867565437 245.380602337444 718.728033241787 248.086582838175 716.022052741056 251.913417161825 716.022052741056 254.619397662556 718.728033241787" />
    <polygon
        points="236.14180701233 704.077276915211 233.435826511599 706.783257415942 229.608992187949 706.783257415942 226.903011687218 704.077276915211 226.903011687218 700.250442591561 229.608992187949 697.54446209083 233.435826511599 697.54446209083 236.14180701233 700.250442591561" />
    <polygon
        points="273.096988312782 704.077276915211 270.391007812051 706.783257415942 266.564173488401 706.783257415942 263.85819298767 704.077276915211 263.85819298767 700.250442591561 266.564173488401 697.54446209083 270.391007812051 697.54446209083 273.096988312782 700.250442591561" />
</svg>