<svg width="500" height="850" xmlns="http://www.w3.org/2000/svg" xmlns:svg="http://www.w3.org/2000/svg">
    <path
        d="M42.127 338.896v172.208l121.769 121.769h172.208l121.769-121.769V338.896L336.104 217.127H163.896l-13.53 13.53v19.134l13.53 13.53H316.97l94.708 94.708v133.942l-94.708 94.708H183.029L88.321 491.97V338.896l-13.53-13.53H55.657z" />
    <path
        d="m163.896 217.127-13.529 13.53-108.24 108.24v172.207l121.77 121.77h172.207l121.769-121.77V338.896l-108.24-108.24-13.53-13.53H316.97l-13.53 13.53v19.135l13.53 13.53 94.71 94.71V491.97l-94.71 94.71H183.03l-94.71-94.71V358.03l94.71-94.71 13.53-13.53v-19.135l-13.53-13.53z" />
    <path
        d="M336.104 217.127H163.896L42.127 338.896v172.208l121.769 121.769h172.208l121.769-121.769V338.896l-13.53-13.53h-19.134l-13.53 13.53V491.97l-94.708 94.708H183.029L88.321 491.97V358.029l94.708-94.708h153.075l13.53-13.53v-19.134z" />
    <path
        d="m42.127 511.104 13.53 13.529 108.24 108.24h172.207l121.77-121.77V338.897l-121.77-121.769H163.896l-108.24 108.24-13.53 13.53v19.134l13.53 13.53h19.135l13.53-13.53 94.71-94.71H316.97l94.71 94.71V491.97l-94.71 94.71H183.03l-94.71-94.71-13.53-13.53H55.656l-13.53 13.53z" />
    <path
        d="M 163.89648 217.12695 L 163.89648 217.12891 L 55.65625 325.36719 L 42.126953 338.89648 L 42.126953 338.89844 L 42.126953 358.03125 L 42.126953 491.9707 L 42.126953 511.10352 L 55.65625 524.63281 L 163.89648 632.87305 L 336.10352 632.87305 L 444.3457 524.63281 L 457.87305 511.10352 L 457.875 511.10352 L 457.875 491.9707 L 457.87305 491.96875 L 457.87305 358.03125 L 457.875 358.0293 L 457.87305 338.89648 L 444.34375 325.36719 L 336.10352 217.12891 L 336.10352 217.12695 L 163.89648 217.12695 z M 183.03125 263.32227 L 316.9707 263.32227 L 411.67969 358.0293 L 411.67969 358.03125 L 411.67969 491.9707 L 316.9707 586.67969 L 183.0293 586.67969 L 88.320312 491.9707 L 88.320312 358.03125 L 88.320312 358.0293 L 183.03125 263.32227 z " />
    <path
        d="m457.873 338.896-13.53-13.529-108.24-108.24H163.897l-121.77 121.77v172.207l121.77 121.769h172.208l108.24-108.24 13.53-13.53V491.97l-13.53-13.53h-19.135l-13.53 13.53-94.71 94.71H183.03l-94.71-94.71V358.03l94.71-94.71H316.97l94.71 94.71 13.53 13.53h19.135l13.53-13.53z" />
    <path
        d="M163.896 632.873h172.208l121.769-121.769V338.896L336.104 217.127H163.896L42.127 338.896v172.208l13.53 13.53h19.134l13.53-13.53V358.03l94.708-94.708h133.942l94.708 94.708v133.942l-94.708 94.708H163.896l-13.53 13.53v19.134z" />
    <path
        d="m336.104 632.873 13.529-13.53 108.24-108.24V338.897l-121.77-121.77H163.897L42.127 338.897v172.208l108.24 108.24 13.53 13.529h19.134l13.53-13.53V600.21l-13.53-13.53-94.71-94.71V358.03l94.71-94.71H316.97l94.71 94.71V491.97l-94.71 94.71-13.53 13.53v19.135l13.53 13.529z" />
    <path
        d="M457.873 511.104V338.896L336.104 217.127H163.896L42.127 338.896v172.208l121.769 121.769h172.208l13.53-13.53v-19.134l-13.53-13.53H183.03L88.321 491.97V358.029l94.708-94.708h133.942l94.708 94.708v153.075l13.53 13.53h19.134z" />
</svg>