<svg width="500" height="850" xmlns="http://www.w3.org/2000/svg">
    <polygon
        points="254.330127018922 127.5 250 130 245.669872981078 127.5 245.669872981078 122.5 250 120 254.330127018922 122.5 254.330127018922 127.5" />
    <polygon
        points="254.330127018922 107.5 250 110 245.669872981078 107.5 245.669872981078 102.5 250 100 254.330127018922 102.5 254.330127018922 107.5" />
    <polygon
        points="254.330127018922 147.5 250 150 245.669872981078 147.5 245.669872981078 142.5 250 140 254.330127018922 142.5 254.330127018922 147.5" />
    <polygon
        points="271.650635094611 127.5 267.320508075689 130 262.990381056767 127.5 262.990381056767 122.5 267.320508075689 120 271.650635094611 122.5 271.650635094611 127.5" />
    <polygon
        points="237.009618943233 127.5 232.679491924311 130 228.349364905389 127.5 228.349364905389 122.5 232.679491924311 120 237.009618943233 122.5 237.009618943233 127.5" />
    <polygon
        points="254.330127018922 427.5 250 430 245.669872981078 427.5 245.669872981078 422.5 250 420 254.330127018922 422.5 254.330127018922 427.5" />
    <polygon
        points="254.330127018922 407.5 250 410 245.669872981078 407.5 245.669872981078 402.5 250 400 254.330127018922 402.5 254.330127018922 407.5" />
    <polygon
        points="254.330127018922 447.5 250 450 245.669872981078 447.5 245.669872981078 442.5 250 440 254.330127018922 442.5 254.330127018922 447.5" />
    <polygon
        points="271.650635094611 427.5 267.320508075689 430 262.990381056767 427.5 262.990381056767 422.5 267.320508075689 420 271.650635094611 422.5 271.650635094611 427.5" />
    <polygon
        points="237.009618943233 427.5 232.679491924311 430 228.349364905389 427.5 228.349364905389 422.5 232.679491924311 420 237.009618943233 422.5 237.009618943233 427.5" />
    <polygon
        points="254.330127018922 707.5 250 710 245.669872981078 707.5 245.669872981078 702.5 250 700 254.330127018922 702.5 254.330127018922 707.5" />
    <polygon
        points="254.330127018922 727.5 250 730 245.669872981078 727.5 245.669872981078 722.5 250 720 254.330127018922 722.5 254.330127018922 727.5" />
    <polygon
        points="254.330127018922 747.5 250 750 245.669872981078 747.5 245.669872981078 742.5 250 740 254.330127018922 742.5 254.330127018922 747.5" />
    <polygon
        points="237.009618943233 727.5 232.679491924311 730 228.349364905389 727.5 228.349364905389 722.5 232.679491924311 720 237.009618943233 722.5 237.009618943233 727.5" />
    <polygon
        points="271.650635094611 727.5 267.320508075689 730 262.990381056767 727.5 262.990381056767 722.5 267.320508075689 720 271.650635094611 722.5 271.650635094611 727.5" />
</svg>