<svg width="500" height="850" xmlns="http://www.w3.org/2000/svg">
    <path
        d="m 250,500 -108.254,62.5 v 125 L 250,750 358.254,687.5 v -125 z m 0,50 64.951,37.5 v 75 L 250,700 185.049,662.5 v -75 z m 0,-450 -108.254,62.5 v 125 L 250,350 358.254,287.5 v -125 z m 0,50 64.951,37.5 v 75 L 250,300 185.049,262.5 v -75 z M 271.65,12.5 250,0 228.35,12.5 v 825 L 250,850 271.65,837.5 Z M 250,200 76.795,300 55.145,312.5 v 225 L 76.795,550 250,650 423.205,550 l 21.65,-12.5 v -225 L 423.205,300 Z m 0,50 151.555,87.5 v 175 L 250,600 98.445,512.5 v -175 z m 0,350 -21.65,12.5 v 25 L 250,650 l 151.555,87.5 21.65,12.5 21.65,-12.5 v -25 L 271.65,612.5 Z M 76.795,700 55.145,712.5 v 25 L 250,850 444.855,737.5 v -25 L 423.205,700 401.555,712.5 250,800 98.445,712.5 Z m 0,-600 -21.65,12.5 v 25 L 228.35,237.5 250,250 271.65,237.5 v -25 L 250,200 98.445,112.5 Z M 250,0 55.145,112.5 v 25 L 76.795,150 98.445,137.5 250,50 l 151.555,87.5 21.65,12.5 21.65,-12.5 v -25 z"
        style="fill:#000000;fill-opacity:0;stroke:#ff0000" />

    <polygon
        points="271.650635094611 137.5 250 150 228.349364905389 137.5 228.349364905389 112.5 250 100 271.650635094611 112.5 271.650635094611 137.5"
        style="fill:#000000;fill-opacity:0;stroke:#ff0000" />
    <polygon
        points="267.320508075689 135 250 145 232.679491924311 135 232.679491924311 115 250 105 267.320508075689 115 267.320508075689 135"
        style="fill:#000000;fill-opacity:0;stroke:#ff0000" />
    <polygon
        points="262.990381056767 132.5 250 140 237.009618943233 132.5 237.009618943233 117.5 250 110 262.990381056767 117.5 262.990381056767 132.5"
        style="fill:#000000;fill-opacity:0;stroke:#ff0000" />
    <polygon
        points="258.660254037844 130 250 135 241.339745962156 130 241.339745962156 120 250 115 258.660254037844 120 258.660254037844 130"
        style="fill:#000000;fill-opacity:0;stroke:#ff0000" />
    <polygon
        points="254.330127018922 127.5 250 130 245.669872981078 127.5 245.669872981078 122.5 250 120 254.330127018922 122.5 254.330127018922 127.5"
        style="fill:#000000;fill-opacity:0;stroke:#ff0000" />

    <polygon
        points="271.650635094611 737.5 250 750 228.349364905389 737.5 228.349364905389 712.5 250 700 271.650635094611 712.5 271.650635094611 737.5"
        style="fill:#000000;fill-opacity:0;stroke:#ff0000" />
    <polygon
        points="267.320508075689 735 250 745 232.679491924311 735 232.679491924311 715 250 705 267.320508075689 715 267.320508075689 735"
        style="fill:#000000;fill-opacity:0;stroke:#ff0000" />
    <polygon
        points="262.990381056767 732.5 250 740 237.009618943233 732.5 237.009618943233 717.5 250 710 262.990381056767 717.5 262.990381056767 732.5"
        style="fill:#000000;fill-opacity:0;stroke:#ff0000" />
    <polygon
        points="258.660254037844 730 250 735 241.339745962156 730 241.339745962156 720 250 715 258.660254037844 720 258.660254037844 730"
        style="fill:#000000;fill-opacity:0;stroke:#ff0000" />
    <polygon
        points="254.330127018922 727.5 250 730 245.669872981078 727.5 245.669872981078 722.5 250 720 254.330127018922 722.5 254.330127018922 727.5"
        style="fill:#000000;fill-opacity:0;stroke:#ff0000" />

    <polygon
        points="254.330127018922 127.5 250 130 245.669872981078 127.5 245.669872981078 122.5 250 120 254.330127018922 122.5 254.330127018922 127.5"
        style="" />
    <polygon
        points="254.330127018922 107.5 250 110 245.669872981078 107.5 245.669872981078 102.5 250 100 254.330127018922 102.5 254.330127018922 107.5"
        style="" />
    <polygon
        points="254.330127018922 147.5 250 150 245.669872981078 147.5 245.669872981078 142.5 250 140 254.330127018922 142.5 254.330127018922 147.5"
        style="" />
    <polygon
        points="271.650635094611 127.5 267.320508075689 130 262.990381056767 127.5 262.990381056767 122.5 267.320508075689 120 271.650635094611 122.5 271.650635094611 127.5"
        style="" />
    <polygon
        points="237.009618943233 127.5 232.679491924311 130 228.349364905389 127.5 228.349364905389 122.5 232.679491924311 120 237.009618943233 122.5 237.009618943233 127.5"
        style="" />

    <polygon
        points="254.330127018922 707.5 250 710 245.669872981078 707.5 245.669872981078 702.5 250 700 254.330127018922 702.5 254.330127018922 707.5"
        style="" />
    <polygon
        points="254.330127018922 727.5 250 730 245.669872981078 727.5 245.669872981078 722.5 250 720 254.330127018922 722.5 254.330127018922 727.5"
        style="" />
    <polygon
        points="254.330127018922 747.5 250 750 245.669872981078 747.5 245.669872981078 742.5 250 740 254.330127018922 742.5 254.330127018922 747.5"
        style="" />
    <polygon
        points="237.009618943233 727.5 232.679491924311 730 228.349364905389 727.5 228.349364905389 722.5 232.679491924311 720 237.009618943233 722.5 237.009618943233 727.5"
        style="" />
    <polygon
        points="271.650635094611 727.5 267.320508075689 730 262.990381056767 727.5 262.990381056767 722.5 267.320508075689 720 271.650635094611 722.5 271.650635094611 727.5"
        style="" />
</svg>