<svg width="500" height="850" xmlns="http://www.w3.org/2000/svg">
    <path d="m-250 0-194.855 112.5v25l21.65 12.5 21.65-12.5L-250 50l151.555 87.5 21.65 12.5 21.65-12.5v-25z"/>
</svg><svg width="500" height="850" xmlns="http://www.w3.org/2000/svg">
    <path d="m-423.205 100-21.65 12.5v25l173.205 100L-250 250l21.65-12.5v-25L-250 200l-151.555-87.5z"/>
</svg><svg width="500" height="850" xmlns="http://www.w3.org/2000/svg">
    <path d="m-423.205 700-21.65 12.5v25L-250 850l194.855-112.5v-25l-21.65-12.5-21.65 12.5L-250 800l-151.555-87.5Z"/>
</svg><svg width="500" height="850" xmlns="http://www.w3.org/2000/svg">
    <path d="m-250 600-21.65 12.5v25L-250 650l151.555 87.5 21.65 12.5 21.65-12.5v-25l-173.205-100z"/>
</svg><svg width="500" height="850" xmlns="http://www.w3.org/2000/svg">
    <path d="M250 200 76.795 300l-21.65 12.5v225l21.65 12.5L250 650l173.205-100 21.65-12.5v-225l-21.65-12.5zm0 50 151.555 87.5v175L250 600 98.445 512.5v-175z"/>
</svg><svg width="500" height="850" xmlns="http://www.w3.org/2000/svg">
    <path d="M271.65 12.5 250 0l-21.65 12.5v825L250 850l21.65-12.5z"/>
</svg><svg width="500" height="850" xmlns="http://www.w3.org/2000/svg">
    <path d="m250 300-108.254 62.5v125L250 550l108.254-62.5v-125zm0 50 64.951 37.5v75L250 500l-64.951-37.5v-75z"/>
</svg>