<svg width="500" height="850" xmlns="http://www.w3.org/2000/svg" xmlns:svg="http://www.w3.org/2000/svg">
    <path style="fill:none;stroke:red" transform="translate(0 150)"
        d="M 444.856,587.5 250,700 55.144,587.5 v -225 L 250,250 444.856,362.5 Z M 401.554,562.5 250,650 98.446,562.5 v -175 L 250,300 401.554,387.5 Z m -43.3,-25 L 250,600 141.747,537.5 v -125 L 250,350 358.253,412.5 Z M 314.952,512.5 250,550 185.048,512.5 v -75 L 250,400 314.952,437.5 Z M 271.651,487.5 250,500 228.35,487.5 v -25 L 250,450 271.65,462.5 Z M 444.856,387.5 250,500 55.144,387.5 v -225 L 250,50 444.856,162.5 Z M 401.554,362.5 250,450 98.446,362.5 v -175 L 250,100 401.554,187.5 Z m -43.3,-25 L 250,400 141.747,337.5 v -125 L 250,150 358.253,212.5 Z M 314.952,312.5 250,350 185.048,312.5 v -75 L 250,200 314.952,237.5 Z M 271.651,287.5 250,300 228.35,287.5 v -25 L 250,250 271.65,262.5 Z M 444.856,187.5 250,300 55.144,187.5 v -225 L 250,-150 444.856,-37.5 Z M 401.554,162.5 250,250 98.446,162.5 v -175 L 250,-100 401.554,-12.5 Z m -43.3,-25 L 250,200 141.747,137.5 V 12.5 L 250,-50 358.253,12.5 Z M 314.952,112.5 250,150 185.048,112.5 v -75 L 250,0 314.952,37.5 Z M 271.651,87.5 250,100 228.35,87.5 v -25 L 250,50 271.65,62.5 Z" />
</svg>