<?xml version="1.0" encoding="UTF-8" standalone="no"?>
<svg width="500" height="850" version="1.1" id="svg20" sodipodi:docname="xesada.svg" inkscape:version="1.4.3 (0d15f750, 2025-12-25)" xmlns:inkscape="http://www.inkscape.org/namespaces/inkscape" xmlns:sodipodi="http://sodipodi.sourceforge.net/DTD/sodipodi-0.dtd" xmlns="http://www.w3.org/2000/svg" xmlns:svg="http://www.w3.org/2000/svg">
    <defs id="defs20" />
    <sodipodi:namedview id="namedview20" pagecolor="#ffffff" bordercolor="#000000" borderopacity="0.25" inkscape:showpageshadow="2" inkscape:pageopacity="0.0" inkscape:pagecheckerboard="0" inkscape:deskcolor="#d1d1d1" inkscape:zoom="0.50352941" inkscape:cx="250.23364" inkscape:cy="425" inkscape:window-width="1080" inkscape:window-height="647" inkscape:window-x="0" inkscape:window-y="25" inkscape:window-maximized="0" inkscape:current-layer="svg20" />
    <polygon points="254.330127018922 127.5 250 130 245.669872981078 127.5 245.669872981078 122.5 250 120 254.330127018922 122.5 254.330127018922 127.5" id="polygon11" />
    <polygon points="254.330127018922 107.5 250 110 245.669872981078 107.5 245.669872981078 102.5 250 100 254.330127018922 102.5 254.330127018922 107.5" id="polygon12" />
    <polygon points="254.330127018922 147.5 250 150 245.669872981078 147.5 245.669872981078 142.5 250 140 254.330127018922 142.5 254.330127018922 147.5" id="polygon13" />
    <polygon points="271.650635094611 127.5 267.320508075689 130 262.990381056767 127.5 262.990381056767 122.5 267.320508075689 120 271.650635094611 122.5 271.650635094611 127.5" id="polygon14" />
    <polygon points="237.009618943233 127.5 232.679491924311 130 228.349364905389 127.5 228.349364905389 122.5 232.679491924311 120 237.009618943233 122.5 237.009618943233 127.5" id="polygon15" />
    <polygon points="254.330127018922 707.5 250 710 245.669872981078 707.5 245.669872981078 702.5 250 700 254.330127018922 702.5 254.330127018922 707.5" id="polygon16" />
    <polygon points="254.330127018922 727.5 250 730 245.669872981078 727.5 245.669872981078 722.5 250 720 254.330127018922 722.5 254.330127018922 727.5" id="polygon17" />
    <polygon points="254.330127018922 747.5 250 750 245.669872981078 747.5 245.669872981078 742.5 250 740 254.330127018922 742.5 254.330127018922 747.5" id="polygon18" />
    <polygon points="237.009618943233 727.5 232.679491924311 730 228.349364905389 727.5 228.349364905389 722.5 232.679491924311 720 237.009618943233 722.5 237.009618943233 727.5" id="polygon19" />
    <polygon points="271.650635094611 727.5 267.320508075689 730 262.990381056767 727.5 262.990381056767 722.5 267.320508075689 720 271.650635094611 722.5 271.650635094611 727.5" id="polygon20" />
</svg>
