<?xml version="1.0" encoding="UTF-8" standalone="no"?>
<svg width="500" height="850" version="1.1" id="svg7" sodipodi:docname="xesada.svg" inkscape:version="1.4.3 (0d15f750, 2025-12-25)" xmlns:inkscape="http://www.inkscape.org/namespaces/inkscape" xmlns:sodipodi="http://sodipodi.sourceforge.net/DTD/sodipodi-0.dtd" xmlns="http://www.w3.org/2000/svg" xmlns:svg="http://www.w3.org/2000/svg">
    <defs id="defs7" />
    <sodipodi:namedview id="namedview7" pagecolor="#ffffff" bordercolor="#000000" borderopacity="0.25" inkscape:showpageshadow="2" inkscape:pageopacity="0.0" inkscape:pagecheckerboard="0" inkscape:deskcolor="#d1d1d1" inkscape:zoom="0.53647059" inkscape:cx="249.7807" inkscape:cy="425" inkscape:window-width="1095" inkscape:window-height="675" inkscape:window-x="0" inkscape:window-y="25" inkscape:window-maximized="0" inkscape:current-layer="svg7" />
    <path id="path8" style="fill:#000000;fill-opacity:0;stroke:#ff0000" d="m 250,500 -108.254,62.5 v 125 L 250,750 358.254,687.5 v -125 z m 0,50 64.951,37.5 v 75 L 250,700 185.049,662.5 v -75 z m 0,-450 -108.254,62.5 v 125 L 250,350 358.254,287.5 v -125 z m 0,50 64.951,37.5 v 75 L 250,300 185.049,262.5 v -75 z M 271.65,12.5 250,0 228.35,12.5 v 825 L 250,850 271.65,837.5 Z M 250,200 76.795,300 55.145,312.5 v 225 L 76.795,550 250,650 423.205,550 l 21.65,-12.5 v -225 L 423.205,300 Z m 0,50 151.555,87.5 v 175 L 250,600 98.445,512.5 v -175 z m 0,350 -21.65,12.5 v 25 L 250,650 l 151.555,87.5 21.65,12.5 21.65,-12.5 v -25 L 271.65,612.5 Z M 76.795,700 55.145,712.5 v 25 L 250,850 444.855,737.5 v -25 L 423.205,700 401.555,712.5 250,800 98.445,712.5 Z m 0,-600 -21.65,12.5 v 25 L 228.35,237.5 250,250 271.65,237.5 v -25 L 250,200 98.445,112.5 Z M 250,0 55.145,112.5 v 25 L 76.795,150 98.445,137.5 250,50 l 151.555,87.5 21.65,12.5 21.65,-12.5 v -25 z" />
</svg>
