<?xml version="1.0" encoding="UTF-8" standalone="no"?>
<svg width="500" height="850" version="1.1" id="svg142" sodipodi:docname="xesada.svg"
    inkscape:version="1.4.2 (ebf0e940, 2025-05-08)" xmlns:inkscape="http://www.inkscape.org/namespaces/inkscape"
    xmlns:sodipodi="http://sodipodi.sourceforge.net/DTD/sodipodi-0.dtd" xmlns="http://www.w3.org/2000/svg"
    xmlns:svg="http://www.w3.org/2000/svg">
    <defs id="defs142" />
    <sodipodi:namedview id="namedview142" pagecolor="#ffffff" bordercolor="#000000" borderopacity="0.25"
        inkscape:showpageshadow="2" inkscape:pageopacity="0.0" inkscape:pagecheckerboard="0"
        inkscape:deskcolor="#d1d1d1" inkscape:zoom="0.34777494" inkscape:cx="260.22577" inkscape:cy="424.12487"
        inkscape:window-width="1440" inkscape:window-height="722" inkscape:window-x="0" inkscape:window-y="25"
        inkscape:window-maximized="0" inkscape:current-layer="svg142" />
    <path id="path142" style="fill:#000000;fill-opacity:0;stroke:#ff0000"
        d="m 76.795,300 -21.65,12.5 v 25 l 368.059,212.5 21.65,-12.5 v -25 z M 98.446,312.5 76.796,300 55.145,312.5 v 225 L 250,650 271.65,637.5 v -25 L 250,600 98.446,512.5 v -175 z m 346.41,0 L 250,200 228.35,212.5 v 25 L 250,250 401.554,337.5 v 200 l 21.65,12.5 21.651,-12.5 z M 163.396,100 l -21.65,12.5 v 24.998 L 228.35,187.5 v 200 l 64.953,37.5 -64.953,37.5 v 200 l -86.604,50.002 V 737.5 l 21.65,12.5 108.254,-62.5 v -200 L 336.602,450 h 0.002 l 21.65,-12.5 v -25.001 l -21.65,-12.5 h -0.002 l -64.951,-37.5 v -200 z M 271.65,12.5 250,0 228.35,12.5 v 825 L 250,850 271.65,837.5 Z M 336.604,100 228.35,162.5 v 200 L 163.398,400 h -0.002 l -21.65,12.5 v 25 l 21.65,12.5 h 0.002 l 64.952,37.5 v 200 l 108.254,62.5 21.65,-12.5 V 712.502 L 271.65,662.5 v -200 L 206.697,425 271.65,387.5 v -200 l 86.604,-50.002 V 112.5 Z M 76.795,300 55.145,312.5 v 25 l 368.059,212.5 21.65,-12.5 v -25 z m 368.061,237.5 v -25 L 423.205,500 250,600 98.445,512.5 v -175 l 173.205,-100 v -25 L 250,200 55.144,312.5 v 225 L 250,650 Z M 250,300 141.746,362.5 v 125 L 250,550 358.254,487.5 v -125 z m 0,50 64.951,37.5 v 75 L 250,500 185.049,462.5 v -75 z M 76.795,300 55.145,312.5 v 25 l 368.059,212.5 21.65,-12.5 v -25 z M 250,650 444.855,537.5 v -225 L 250,200 55.145,312.5 v 25 L 76.795,350 250,250 401.555,337.5 v 175 L 250,600 76.795,500 55.145,512.5 v 25 z M 76.795,300 55.145,312.5 v 25 l 368.059,212.5 21.65,-12.5 v -25 z M 228.35,637.5 250,650 444.856,537.5 v -225 L 250,200 55.144,312.5 v 25 L 76.794,350 250,250 401.554,337.5 v 175 l -173.205,100 z m -401.555,62.5 -21.65,12.5 v 25 L 0,850 194.855,737.5 v -25 L 173.205,700 151.555,712.5 0,800 -151.555,712.5 Z m 250,-400 -21.65,12.5 v 25 l 368.059,212.5 21.65,-12.5 v -25 z M 250,200 55.145,312.5 v 225 l 21.65,12.5 21.65,-12.5 v -200 L 250,250 401.555,337.5 v 200 l 21.65,12.5 21.65,-12.5 v -225 z M 0,600 -21.65,612.5 v 25 L 0,650 l 151.555,87.5 21.65,12.5 21.65,-12.5 v -25 L 21.65,612.5 Z M 444.856,312.5 423.206,300 401.555,312.5 v 200 L 250,600 98.446,512.5 v -200 L 76.795,300 55.145,312.5 v 225 L 250,650 444.856,537.5 Z m 0,225 v -25 L 423.205,500 250,600 98.445,512.5 v -175 l 173.205,-100 v -25 L 250,200 55.144,312.5 v 225 L 250,650 Z M 250,200 76.795,300 55.145,312.5 v 225 L 76.795,550 250,650 423.205,550 l 21.65,-12.5 v -225 L 423.205,300 Z m 0,50 151.555,87.5 v 175 L 250,600 98.445,512.5 v -175 z m 0,400 194.855,-112.5 v -225 L 250,200 55.145,312.5 v 25 L 76.795,350 250,250 401.555,337.5 v 175 L 250,600 76.795,500 55.145,512.5 v 25 z M 250,200 55.145,312.5 v 225 L 250,650 444.855,537.5 v -25 L 423.205,500 250,600 98.445,512.5 v -175 L 250,250 l 173.205,100 21.65,-12.5 v -25 z M 0,600 -21.65,612.5 v 25 L 0,650 129.904,725 0,800 l -151.555,-87.5 -21.65,-12.5 -21.65,12.5 v 25 L 0,850 173.205,750 l 21.65,-12.5 v -25 L 173.205,700 21.65,612.5 Z m 76.795,-300 -21.65,12.5 v 25 l 368.059,212.5 21.65,-12.5 v -25 z M 250,200 55.145,312.5 v 225 L 250,650 271.65,637.5 v -25 L 98.445,512.5 v -175 L 250,250 l 173.205,100 21.65,-12.5 v -25 z m 0,0 -194.855,112.5 v 225 L 250,650 271.65,637.5 v -25 L 98.445,512.5 v -175 L 250,250 l 173.205,100 21.65,-12.5 v -25 z M 76.795,300 55.145,312.5 v 25 l 368.059,212.5 21.65,-12.5 v -25 z M 250,200 76.795,300 55.145,312.5 v 225 L 76.795,550 250,650 423.205,550 l 21.65,-12.5 v -225 L 423.205,300 Z m 0,50 151.555,87.5 v 175 L 250,600 98.445,512.5 v -175 z m 0,-50 -21.65,12.5 v 25 l 173.205,100 v 175 L 250,600 76.795,500 55.145,512.5 v 25 L 250,650 444.855,537.5 v -225 z m 0,100 -108.254,62.5 v 125 L 250,550 358.254,487.5 v -125 z m 0,50 64.951,37.5 v 75 L 250,500 185.049,462.5 v -75 z M 76.795,300 55.145,312.5 v 25 l 368.059,212.5 21.65,-12.5 v -25 z m 368.061,237.5 v -25 L 423.205,500 250,600 98.445,512.5 v -175 l 173.205,-100 v -25 L 250,200 55.144,312.5 v 225 L 250,650 Z M 0,0 -194.855,112.5 v 25 l 21.65,12.5 21.65,-12.5 L 0,50 l 151.555,87.5 21.65,12.5 21.65,-12.5 v -25 z M 228.35,637.5 250,650 444.856,537.5 v -225 L 250,200 55.144,312.5 v 25 L 76.794,350 250,250 401.554,337.5 v 175 l -173.205,100 z M 76.795,300 55.145,312.5 v 25 l 368.059,212.5 21.65,-12.5 v -25 z M 250,200 228.35,212.5 v 25 l 173.205,100 v 175 L 250,600 76.795,500 55.145,512.5 v 25 L 250,650 444.855,537.5 v -225 z m 0,0 -194.855,112.5 v 225 l 21.65,12.5 21.65,-12.5 v -200 L 250,250 401.555,337.5 v 200 l 21.65,12.5 21.65,-12.5 v -225 z m -423.205,-100 -21.65,12.5 v 25 L -21.65,237.5 0,250 21.65,237.5 v -25 L 0,200 -151.555,112.5 Z m 250,200 -21.65,12.5 v 25 l 368.059,212.5 21.65,-12.5 v -25 z m 368.061,12.5 -21.65,-12.5 -21.651,12.5 v 200 L 250,600 98.446,512.5 v -200 L 76.795,300 55.145,312.5 v 225 L 250,650 444.856,537.5 Z M 76.795,300 55.145,312.5 v 25 l 368.059,212.5 21.65,-12.5 v -25 z M 250,650 444.855,537.5 v -225 L 250,200 55.145,312.5 v 25 L 76.795,350 250,250 401.555,337.5 v 175 L 250,600 76.795,500 55.145,512.5 v 25 z M 76.795,300 55.145,312.5 v 25 l 368.059,212.5 21.65,-12.5 v -25 z M 250,200 55.145,312.5 v 225 L 250,650 444.855,537.5 v -25 L 423.205,500 250,600 98.445,512.5 v -175 L 250,250 l 173.205,100 21.65,-12.5 v -25 z M 0,0 l -173.205,100 -21.65,12.5 v 25 L -173.205,150 -21.65,237.5 0,250 21.65,237.5 v -25 L 0,200 -129.904,125 0,50 l 151.555,87.5 21.65,12.5 21.65,-12.5 v -25 z m 250,200 -21.65,12.5 v 25 L 250,250 l 151.555,87.5 21.65,12.5 21.65,-12.5 v -25 z M 76.795,500 55.145,512.5 v 25 L 250,650 444.855,537.5 v -25 L 423.205,500 401.555,512.5 250,600 98.445,512.5 Z M 250,200 55.145,312.5 v 25 L 76.795,350 98.445,337.5 250,250 l 151.555,87.5 21.65,12.5 21.65,-12.5 v -25 z m 0,-100 -108.254,62.5 v 25 l 21.65,12.5 86.604,-50 64.951,37.5 v 475 L 250,700 l -86.604,-50 -21.65,12.5 v 25 L 250,750 358.254,687.5 v -525 z M 76.795,300 55.145,312.5 v 25 l 368.059,212.5 21.65,-12.5 v -25 z M 250,100 141.746,162.5 v 525 L 250,750 358.254,687.5 v -25 L 336.604,650 250,700 185.049,662.5 v -475 L 250,150 l 86.604,50 21.65,-12.5 v -25 z M 76.795,300 55.145,312.5 v 25 l 368.059,212.5 21.65,-12.5 v -25 z m 368.061,237.5 v -25 L 423.205,500 250,600 98.445,512.5 v -175 l 173.205,-100 v -25 L 250,200 55.144,312.5 v 225 L 250,650 Z M 250,300 141.746,362.5 v 125 L 250,550 358.254,487.5 v -125 z m 0,50 64.951,37.5 v 75 L 250,500 185.049,462.5 v -75 z M 76.795,300 55.145,312.5 v 25 l 368.059,212.5 21.65,-12.5 v -25 z M 250,650 444.855,537.5 v -225 L 250,200 55.145,312.5 v 25 L 76.795,350 250,250 401.555,337.5 v 175 L 250,600 76.795,500 55.145,512.5 v 25 z M 76.795,300 55.145,312.5 v 25 l 368.059,212.5 21.65,-12.5 v -25 z M 228.35,637.5 250,650 444.856,537.5 v -225 L 250,200 55.144,312.5 v 25 L 76.794,350 250,250 401.554,337.5 v 175 l -173.205,100 z m -401.555,62.5 -21.65,12.5 v 25 L 0,850 194.855,737.5 v -25 L 173.205,700 151.555,712.5 0,800 -151.555,712.5 Z m 250,-400 -21.65,12.5 v 25 l 368.059,212.5 21.65,-12.5 v -25 z M 250,200 55.145,312.5 v 225 l 21.65,12.5 21.65,-12.5 v -200 L 250,250 401.555,337.5 v 200 l 21.65,12.5 21.65,-12.5 v -225 z M 0,600 -21.65,612.5 v 25 L 0,650 l 151.555,87.5 21.65,12.5 21.65,-12.5 v -25 L 21.65,612.5 Z M 444.856,312.5 423.206,300 401.555,312.5 v 200 L 250,600 98.446,512.5 v -200 L 76.795,300 55.145,312.5 v 225 L 250,650 444.856,537.5 Z m 0,225 v -25 L 423.205,500 250,600 98.445,512.5 v -175 l 173.205,-100 v -25 L 250,200 55.144,312.5 v 225 L 250,650 Z M 250,200 76.795,300 55.145,312.5 v 225 L 76.795,550 250,650 423.205,550 l 21.65,-12.5 v -225 L 423.205,300 Z m 0,50 151.555,87.5 v 175 L 250,600 98.445,512.5 v -175 z m 0,400 194.855,-112.5 v -225 L 250,200 55.145,312.5 v 25 L 76.795,350 250,250 401.555,337.5 v 175 L 250,600 76.795,500 55.145,512.5 v 25 z M 250,200 55.145,312.5 v 225 L 250,650 444.855,537.5 v -25 L 423.205,500 250,600 98.445,512.5 v -175 L 250,250 l 173.205,100 21.65,-12.5 v -25 z M 0,600 -21.65,612.5 v 25 L 0,650 129.904,725 0,800 l -151.555,-87.5 -21.65,-12.5 -21.65,12.5 v 25 L 0,850 173.205,750 l 21.65,-12.5 v -25 L 173.205,700 21.65,612.5 Z m 76.795,-300 -21.65,12.5 v 25 l 368.059,212.5 21.65,-12.5 v -25 z M 250,200 55.145,312.5 v 225 L 250,650 271.65,637.5 v -25 L 98.445,512.5 v -175 L 250,250 l 173.205,100 21.65,-12.5 v -25 z m 0,0 -194.855,112.5 v 225 L 250,650 271.65,637.5 v -25 L 98.445,512.5 v -175 L 250,250 l 173.205,100 21.65,-12.5 v -25 z M 76.795,300 55.145,312.5 v 25 l 368.059,212.5 21.65,-12.5 v -25 z M 250,200 76.795,300 55.145,312.5 v 225 L 76.795,550 250,650 423.205,550 l 21.65,-12.5 v -225 L 423.205,300 Z m 0,50 151.555,87.5 v 175 L 250,600 98.445,512.5 v -175 z m 0,-50 -21.65,12.5 v 25 l 173.205,100 v 175 L 250,600 76.795,500 55.145,512.5 v 25 L 250,650 444.855,537.5 v -225 z m 0,100 -108.254,62.5 v 125 L 250,550 358.254,487.5 v -125 z m 0,50 64.951,37.5 v 75 L 250,500 185.049,462.5 v -75 z M 76.795,300 55.145,312.5 v 25 l 368.059,212.5 21.65,-12.5 v -25 z m 368.061,237.5 v -25 L 423.205,500 250,600 98.445,512.5 v -175 l 173.205,-100 v -25 L 250,200 55.144,312.5 v 225 L 250,650 Z M 0,0 -194.855,112.5 v 25 l 21.65,12.5 21.65,-12.5 L 0,50 l 151.555,87.5 21.65,12.5 21.65,-12.5 v -25 z M 228.35,637.5 250,650 444.856,537.5 v -225 L 250,200 55.144,312.5 v 25 L 76.794,350 250,250 401.554,337.5 v 175 l -173.205,100 z M 76.795,300 55.145,312.5 v 25 l 368.059,212.5 21.65,-12.5 v -25 z M 250,200 228.35,212.5 v 25 l 173.205,100 v 175 L 250,600 76.795,500 55.145,512.5 v 25 L 250,650 444.855,537.5 v -225 z m 0,0 -194.855,112.5 v 225 l 21.65,12.5 21.65,-12.5 v -200 L 250,250 401.555,337.5 v 200 l 21.65,12.5 21.65,-12.5 v -225 z m -423.205,-100 -21.65,12.5 v 25 L -21.65,237.5 0,250 21.65,237.5 v -25 L 0,200 -151.555,112.5 Z m 250,200 -21.65,12.5 v 25 l 368.059,212.5 21.65,-12.5 v -25 z m 368.061,12.5 -21.65,-12.5 -21.651,12.5 v 200 L 250,600 98.446,512.5 v -200 L 76.795,300 55.145,312.5 v 225 L 250,650 444.856,537.5 Z M 76.795,300 55.145,312.5 v 25 l 368.059,212.5 21.65,-12.5 v -25 z M 250,650 444.855,537.5 v -225 L 250,200 55.145,312.5 v 25 L 76.795,350 250,250 401.555,337.5 v 175 L 250,600 76.795,500 55.145,512.5 v 25 z M 76.795,300 55.145,312.5 v 25 l 368.059,212.5 21.65,-12.5 v -25 z M 250,200 55.145,312.5 v 225 L 250,650 444.855,537.5 v -25 L 423.205,500 250,600 98.445,512.5 v -175 L 250,250 l 173.205,100 21.65,-12.5 v -25 z M 0,0 l -173.205,100 -21.65,12.5 v 25 L -173.205,150 -21.65,237.5 0,250 21.65,237.5 v -25 L 0,200 -129.904,125 0,50 l 151.555,87.5 21.65,12.5 21.65,-12.5 v -25 z m 76.795,300 -21.65,12.5 v 25 l 368.059,212.5 21.65,-12.5 v -25 z M 250,300 141.746,362.5 v 125 L 250,550 358.254,487.5 v -125 z m 0,50 64.951,37.5 v 75 L 250,500 185.049,462.5 v -75 z m 0,-150 -173.205,100 -21.65,12.5 v 225 L 76.795,550 250,650 423.205,550 l 21.65,-12.5 v -225 L 423.205,300 Z m 0,50 151.555,87.5 v 175 L 250,600 98.445,512.5 v -175 z m 0,-50 21.65,12.5 v 25 L 250,250 228.35,237.5 v -25 z m 0,200 21.65,12.5 v 25 L 250,450 228.35,437.5 v -25 z m 0,200 21.65,12.5 v 25 L 250,650 228.35,637.5 v -25 z m 0,-50 108.254,-62.5 v -125 L 250,300 141.746,362.5 v 25 l 21.65,12.5 86.604,-50 64.951,37.5 v 75 L 250,500 l -86.604,-50 -21.65,12.5 v 25 z m 0,-250 -108.254,62.5 v 25 L 163.396,400 185.049,387.5 250,350 l 64.951,37.5 21.653,12.5 21.65,-12.5 v -25 z m -86.604,150 -21.65,12.5 v 25 L 250,550 358.254,487.5 v -25 L 336.604,450 314.951,462.5 250,500 185.049,462.5 Z M 250,300 141.746,362.5 v 125 L 250,550 358.254,487.5 v -25 L 336.604,450 250,500 185.049,462.5 v -75 L 250,350 l 86.604,50 21.65,-12.5 v -25 z m 0,100 21.65,12.5 v 25 L 250,450 228.35,437.5 v -25 z m 151.554,-87.5 21.651,-12.5 21.65,12.5 v 225 l -21.65,12.5 -21.65,-12.5 z m -346.41,0 21.65,-12.5 21.652,12.5 v 225 L 76.795,550 55.145,537.5 Z M 76.795,300 55.145,312.5 v 25 l 368.059,212.5 21.65,-12.5 v -25 z M 250,200 l 21.65,12.5 v 25 L 250,250 228.35,237.5 v -25 z m 0,200 21.65,12.5 v 25 L 250,450 228.35,437.5 v -25 z m 0,200 21.65,12.5 v 25 L 250,650 228.35,637.5 v -25 z m 151.554,-287.5 21.651,-12.5 21.65,12.5 v 225 l -21.65,12.5 -21.65,-12.5 z m -346.41,0 21.65,-12.5 21.652,12.5 v 225 L 76.795,550 55.145,537.5 Z M 76.795,300 55.145,312.5 v 25 l 368.059,212.5 21.65,-12.5 v -25 z M 250,300 141.746,362.5 v 125 L 250,550 358.254,487.5 v -125 z m 0,50 64.951,37.5 v 75 L 250,500 185.049,462.5 v -75 z M 250,200 55.145,312.5 v 225 L 250,650 271.65,637.5 v -25 L 98.445,512.5 v -175 L 250,250 l 173.205,100 21.65,-12.5 v -25 z m 0,100 -108.254,62.5 v 125 L 250,550 358.254,487.5 v -125 z m 0,50 64.951,37.5 v 75 L 250,500 185.049,462.5 v -75 z M 250,200 55.145,312.5 v 225 l 21.65,12.5 21.65,-12.5 v -200 L 250,250 401.555,337.5 v 200 l 21.65,12.5 21.65,-12.5 v -225 z m 0,100 -108.254,62.5 v 125 L 250,550 358.254,487.5 v -125 z m 0,50 64.951,37.5 v 75 L 250,500 185.049,462.5 v -75 z M 228.35,637.5 250,650 444.856,537.5 v -225 L 250,200 55.144,312.5 v 25 L 76.794,350 250,250 401.554,337.5 v 175 l -173.205,100 z M 250,300 141.746,362.5 v 125 L 250,550 358.254,487.5 v -125 z m 0,50 64.951,37.5 v 75 L 250,500 185.049,462.5 v -75 z M 250,200 55.145,312.5 v 225 L 250,650 444.855,537.5 v -25 L 423.205,500 250,600 98.445,512.5 v -175 L 250,250 l 173.205,100 21.65,-12.5 v -25 z m 0,100 -108.254,62.5 v 125 L 250,550 358.254,487.5 v -125 z m 0,50 64.951,37.5 v 75 L 250,500 185.049,462.5 v -75 z m 0,-150 -173.205,100 -21.65,12.5 v 225 L 76.795,550 250,650 423.205,550 l 21.65,-12.5 v -225 L 423.205,300 Z m 0,50 151.555,87.5 v 175 L 250,600 98.445,512.5 v -175 z m 0,50 -108.254,62.5 v 125 L 250,550 358.254,487.5 v -125 z m 0,50 64.951,37.5 v 75 L 250,500 185.049,462.5 v -75 z m 0,300 194.855,-112.5 v -225 L 250,200 55.145,312.5 v 25 L 76.795,350 250,250 401.555,337.5 v 175 L 250,600 76.795,500 55.145,512.5 v 25 z m 0,-350 -108.254,62.5 v 125 L 250,550 358.254,487.5 v -125 z m 0,50 64.951,37.5 v 75 L 250,500 185.049,462.5 v -75 z m 194.856,187.5 v -25 L 423.205,500 250,600 98.445,512.5 v -175 l 173.205,-100 v -25 L 250,200 55.144,312.5 v 225 L 250,650 Z M 250,300 141.746,362.5 v 125 L 250,550 358.254,487.5 v -125 z m 0,50 64.951,37.5 v 75 L 250,500 185.049,462.5 v -75 z m 194.856,-37.5 -21.65,-12.5 -21.651,12.5 v 200 L 250,600 98.446,512.5 v -200 L 76.795,300 55.145,312.5 v 225 L 250,650 444.856,537.5 Z M 250,300 141.746,362.5 v 125 L 250,550 358.254,487.5 v -125 z m 0,50 64.951,37.5 v 75 L 250,500 185.049,462.5 v -75 z m 0,-150 -21.65,12.5 v 25 l 173.205,100 v 175 L 250,600 76.795,500 55.145,512.5 v 25 L 250,650 444.855,537.5 v -225 z m 0,100 -108.254,62.5 v 125 L 250,550 358.254,487.5 v -125 z m 0,50 64.951,37.5 v 75 L 250,500 185.049,462.5 v -75 z m 173.205,-50 21.65,12.5 v 25 L 76.796,550 55.146,537.5 v -25 z M 250,200 l 21.65,12.5 v 25 L 250,250 228.35,237.5 v -25 z m 0,200 21.65,12.5 v 25 L 250,450 228.35,437.5 v -25 z m 0,200 21.65,12.5 v 25 L 250,650 228.35,637.5 v -25 z m 151.554,-287.5 21.651,-12.5 21.65,12.5 v 225 l -21.65,12.5 -21.65,-12.5 z m -346.41,0 21.65,-12.5 21.652,12.5 v 225 L 76.795,550 55.145,537.5 Z M 76.795,300 55.145,312.5 v 225 h 0.002 L 76.797,550 250,450 423.205,550 444.854,537.5 h 0.002 v -225 L 423.206,300 250,400 Z M 250,400 l 21.65,12.5 v 25 L 250,450 228.35,437.5 v -25 z m 151.554,-87.5 21.651,-12.5 21.65,12.5 v 225 l -21.65,12.5 -21.65,-12.5 z m -346.41,0 21.65,-12.5 21.652,12.5 v 225 L 76.795,550 55.145,537.5 Z M 250,200 228.35,212.5 V 387.502 L 76.795,300 55.145,312.5 v 225 h 0.002 l 21.65,12.5 151.555,-87.5 v 174.998 l 21.65,12.5 21.648,-12.498 v -175 l 151.555,87.5 21.649,-12.5 h 0.002 v -225 L 423.206,300 271.65,387.5 v -175 z M 76.795,300 55.145,312.5 v 25 l 368.059,212.5 21.65,-12.5 v -25 z M 228.35,212.5 250,200 l 21.65,12.5 0.001,425 -21.65,12.499 -21.65,-12.5 z m 194.855,87.5 21.65,12.5 v 25 L 76.796,550 55.146,537.5 v -25 z m -259.809,-200 -21.65,12.5 v 24.998 L 228.35,187.5 v 475 l -86.604,50.002 V 737.5 l 21.65,12.5 108.254,-62.5 v -525 z m 173.208,0 -108.254,62.5 v 525 l 108.254,62.5 21.65,-12.5 V 712.502 L 271.65,662.5 v -475 l 86.604,-50.002 V 112.5 Z M 250,200 l 21.65,12.5 v 25 L 250,250 228.35,237.5 v -25 z m 0,200 21.65,12.5 v 25 L 250,450 228.35,437.5 v -25 z m 0,150 108.254,-62.5 v -125 L 250,300 141.746,362.5 v 25 l 21.65,12.5 86.604,-50 64.951,37.5 v 75 L 250,500 l -86.604,-50 -21.65,12.5 v 25 z m 0,100 194.855,-112.5 v -225 L 250,200 55.145,312.5 v 25 L 76.795,350 250,250 401.555,337.5 v 175 L 250,600 76.795,500 55.145,512.5 v 25 z M 55.144,312.5 76.794,300 98.445,312.5 v 25 L 76.796,350 55.146,337.5 Z m 346.41,200 21.65,-12.5 21.651,12.5 v 25 l -21.65,12.5 -21.65,-12.5 z m 21.651,-212.5 21.65,12.5 v 25 L 76.796,550 55.146,537.5 v -25 z m -346.41,0 -21.65,12.5 v 25 l 368.059,212.5 21.65,-12.5 v -25 z M 271.65,12.5 250,0 228.35,12.5 v 825 L 250,850 271.65,837.5 Z M 76.795,500 55.145,512.5 v 25 L 250,650 444.855,537.5 v -25 L 423.205,500 401.555,512.5 250,600 98.445,512.5 Z M 250,200 55.145,312.5 v 25 L 76.795,350 98.445,337.5 250,250 l 151.555,87.5 21.65,12.5 21.65,-12.5 v -25 z M 76.795,300 55.145,312.5 v 25 l 368.059,212.5 21.65,-12.5 v -25 z M 250,200 55.145,312.5 v 225 L 250,650 444.855,537.5 v -25 L 423.205,500 250,600 98.445,512.5 v -175 L 250,250 l 173.205,100 21.65,-12.5 v -25 z M 271.65,12.5 250,0 228.35,12.5 v 825 L 250,850 271.65,837.5 Z m 173.206,300 v 25 l -21.65,12.5 -21.652,-12.5 v -25 L 423.205,300 Z m -389.712,0 21.65,-12.5 21.652,12.5 v 25 L 76.795,350 55.145,337.5 Z M 250,200 l 21.65,12.5 v 25 L 250,250 228.35,237.5 v -25 z m 0,400 21.65,12.5 v 25 L 250,650 228.35,637.5 v -25 z" />
</svg>