<svg width="500" height="850" xmlns="http://www.w3.org/2000/svg" xmlns:svg="http://www.w3.org/2000/svg">
    <path d="m250 200-21.65 12.5v25l173.205 100v175L250 600 76.795 500l-21.65 12.5v25L250 650l194.855-112.5v-225z" />
    <path
        d="m444.856 312.5-21.65-12.5-21.651 12.5v200L250 600 98.446 512.5v-200L76.795 300l-21.65 12.5v225L250 650l194.856-112.5z" />
    <path
        d="M444.856 537.5v-25L423.205 500 250 600 98.445 512.5v-175l173.205-100v-25L250 200 55.144 312.5v225L250 650Z" />
    <path
        d="m250 650 194.855-112.5v-225L250 200 55.145 312.5v25l21.65 12.5L250 250l151.555 87.5v175L250 600 76.795 500l-21.65 12.5v25z" />
    <path
        d="M250 200 76.795 300l-21.65 12.5v225l21.65 12.5L250 650l173.205-100 21.65-12.5v-225l-21.65-12.5zm0 50 151.555 87.5v175L250 600 98.445 512.5v-175z" />
    <path
        d="M250 200 55.145 312.5v225L250 650l194.855-112.5v-25l-21.65-12.5L250 600 98.445 512.5v-175L250 250l173.205 100 21.65-12.5v-25z" />
    <path
        d="M228.35 637.5 250 650l194.856-112.5v-225L250 200 55.144 312.5v25l21.65 12.5L250 250l151.554 87.5v175l-173.205 100z" />
    <path
        d="M250 200 55.145 312.5v225l21.65 12.5 21.65-12.5v-200L250 250l151.555 87.5v200l21.65 12.5 21.65-12.5v-225z" />
    <path d="M250 200 55.145 312.5v225L250 650l21.65-12.5v-25l-173.205-100v-175L250 250l173.205 100 21.65-12.5v-25z" />
</svg>