<svg width="500" height="850" xmlns="http://www.w3.org/2000/svg" xmlns:svg="http://www.w3.org/2000/svg">
    <path style="fill:none;stroke:#ff0000"
        d="M 250,200 409.09903,265.90097 475,425 409.09903,584.09903 250,650 90.900974,584.09903 25,425 90.900974,265.90097 Z m 0,50 123.74369,51.25631 L 425,425 373.74369,548.74369 250,600 126.25631,548.74369 75,425 126.25631,301.25631 Z m 0,50 88.38835,36.61165 L 375,425 338.38835,513.38835 250,550 161.61165,513.38835 125,425 161.61165,336.61165 Z m 0,50 53.03301,21.96699 L 325,425 303.03301,478.03301 250,500 196.96699,478.03301 175,425 196.96699,371.96699 Z m 0,50 17.67767,7.32233 L 275,425 267.67767,442.67767 250,450 232.32233,442.67767 225,425 l 7.32233,-17.67767 z m 0,0 159.09903,65.90097 L 475,625 409.09903,784.09903 250,850 90.900974,784.09903 25,625 90.900974,465.90097 Z m 0,50 123.74369,51.25631 L 425,625 373.74369,748.74369 250,800 126.25631,748.74369 75,625 126.25631,501.25631 Z m 0,50 88.38835,36.61165 L 375,625 338.38835,713.38835 250,750 161.61165,713.38835 125,625 161.61165,536.61165 Z m 0,50 53.03301,21.96699 L 325,625 303.03301,678.03301 250,700 196.96699,678.03301 175,625 196.96699,571.96699 Z m 0,50 17.67767,7.32233 L 275,625 267.67767,642.67767 250,650 232.32233,642.67767 225,625 232.32233,607.32233 Z M 250,0 409.09903,65.90097 475,225 409.09903,384.09903 250,450 90.900974,384.09903 25,225 90.900974,65.90097 Z m 0,50 123.74369,51.25631 L 425,225 373.74369,348.74369 250,400 126.25631,348.74369 75,225 126.25631,101.25631 Z m 0,50 88.38835,36.61165 L 375,225 338.38835,313.38835 250,350 161.61165,313.38835 125,225 161.61165,136.61165 Z m 0,50 53.03301,21.96699 L 325,225 303.03301,278.03301 250,300 196.96699,278.03301 175,225 196.96699,171.96699 Z m 0,50 17.67767,7.32233 L 275,225 267.67767,242.67767 250,250 232.32233,242.67767 225,225 l 7.32233,-17.67767 z" />
</svg>