<svg width="500" height="850" xmlns="http://www.w3.org/2000/svg">
    <polygon
        points="255 105 253.535533905933 108.535533905933 250 110 246.464466094067 108.535533905933 245 105 246.464466094067 101.464466094067 250 100 253.535533905933 101.464466094067" />
    <polygon
        points="255 125 253.535533905933 128.535533905933 250 130 246.464466094067 128.535533905933 245 125 246.464466094067 121.464466094067 250 120 253.535533905933 121.464466094067" />
    <polygon
        points="255 145 253.535533905933 148.535533905933 250 150 246.464466094067 148.535533905933 245 145 246.464466094067 141.464466094067 250 140 253.535533905933 141.464466094067" />
    <polygon
        points="235 125 233.535533905933 128.535533905933 230 130 226.464466094067 128.535533905933 225 125 226.464466094067 121.464466094067 230 120 233.535533905933 121.464466094067" />
    <polygon
        points="275 125 273.535533905933 128.535533905933 270 130 266.464466094067 128.535533905933 265 125 266.464466094067 121.464466094067 270 120 273.535533905933 121.464466094067" />
    <polygon
        points="255 405 253.535533905933 408.535533905933 250 410 246.464466094067 408.535533905933 245 405 246.464466094067 401.464466094067 250 400 253.535533905933 401.464466094067" />
    <polygon
        points="255 425 253.535533905933 428.535533905933 250 430 246.464466094067 428.535533905933 245 425 246.464466094067 421.464466094067 250 420 253.535533905933 421.464466094067" />
    <polygon
        points="255 445 253.535533905933 448.535533905933 250 450 246.464466094067 448.535533905933 245 445 246.464466094067 441.464466094067 250 440 253.535533905933 441.464466094067" />
    <polygon
        points="235 425 233.535533905933 428.535533905933 230 430 226.464466094067 428.535533905933 225 425 226.464466094067 421.464466094067 230 420 233.535533905933 421.464466094067" />
    <polygon
        points="275 425 273.535533905933 428.535533905933 270 430 266.464466094067 428.535533905933 265 425 266.464466094067 421.464466094067 270 420 273.535533905933 421.464466094067" />
    <polygon
        points="255 705 253.535533905933 708.535533905933 250 710 246.464466094067 708.535533905933 245 705 246.464466094067 701.464466094067 250 700 253.535533905933 701.464466094067" />
    <polygon
        points="255 725 253.535533905933 728.535533905933 250 730 246.464466094067 728.535533905933 245 725 246.464466094067 721.464466094067 250 720 253.535533905933 721.464466094067" />
    <polygon
        points="255 745 253.535533905933 748.535533905933 250 750 246.464466094067 748.535533905933 245 745 246.464466094067 741.464466094067 250 740 253.535533905933 741.464466094067" />
    <polygon
        points="235 725 233.535533905933 728.535533905933 230 730 226.464466094067 728.535533905933 225 725 226.464466094067 721.464466094067 230 720 233.535533905933 721.464466094067" />
    <polygon
        points="275 725 273.535533905933 728.535533905933 270 730 266.464466094067 728.535533905933 265 725 266.464466094067 721.464466094067 270 720 273.535533905933 721.464466094067" />
</svg>