<svg width="500" height="850" xmlns="http://www.w3.org/2000/svg">
    <path
        d="M -250,0 -409.1,65.9 -467.678,207.322 -475,225 -467.678,242.678 -450,250 -432.322,242.678 -425,225 -373.744,101.256 -250,50 -126.256,101.256 -75,225 -67.678,242.678 -50,250 -32.322,242.678 -25,225 -32.322,207.322 -90.9,65.9 Z" />
</svg><svg width="500" height="850" xmlns="http://www.w3.org/2000/svg">
    <path
        d="m -409.099,101.256 -7.322,-17.676 7.321,-17.68 17.678,-7.322 17.677,7.322 141.422,141.421 L -225,225 -232.322,242.678 -250,250 l -17.678,-7.322 z" />
</svg><svg width="500" height="850" xmlns="http://www.w3.org/2000/svg">
    <path
        d="m -450,600 -17.678,7.322 L -475,625 -467.678,642.678 -409.1,784.1 -250,850 -90.9,784.1 -32.322,642.678 -25,625 -32.322,607.322 -50,600 -67.678,607.322 -75,625 -126.256,748.744 -250,800 -373.744,748.744 -425,625 l -7.322,-17.678 z" />
</svg><svg width="500" height="850" xmlns="http://www.w3.org/2000/svg">
    <path
        d="M -267.678,642.678 -275,625 -267.678,607.322 -250,600 l 17.678,7.322 141.421,141.422 7.322,17.677 -7.321,17.679 -17.678,7.322 -17.677,-7.322 z" />
</svg><svg width="500" height="850" xmlns="http://www.w3.org/2000/svg">
    <path d="m250 200-141.422 58.578L90.9 265.9l-7.322 17.678L25 425l58.578 141.422L90.9 584.1l17.678 7.322L250 650l141.422-58.578L409.1 584.1l7.322-17.678L475 425l-58.578-141.422L409.1 265.9l-17.678-7.322zm0 50 123.744 51.256L425 425l-51.256 123.744L250 600l-123.744-51.256L75 425l51.256-123.744z"/>
</svg><svg width="500" height="850" xmlns="http://www.w3.org/2000/svg">
    <path d="m225 25 7.322-17.678L250 0l17.678 7.322L275 25v800l-7.322 17.678L250 850l-17.678-7.322L225 825z"/>
</svg><svg width="500" height="850" xmlns="http://www.w3.org/2000/svg">
    <path d="M 250 300 L 161.61133 336.61133 L 125 425 L 161.61133 513.38867 L 250 550 L 338.38867 513.38867 L 375 425 L 338.38867 336.61133 L 250 300 z M 250 350 L 303.0332 371.9668 L 325 425 L 303.0332 478.0332 L 250 500 L 196.9668 478.0332 L 175 425 L 196.9668 371.9668 L 250 350 z "/>
</svg>