<svg width="500" height="850" xmlns="http://www.w3.org/2000/svg">
    <path style="fill:#000000;fill-opacity:0;stroke:#ff0000"
        d="M 108.578,258.578 90.9,265.9 83.578,283.578 24.998,425 83.578,566.422 90.9,584.1 l 17.678,7.322 17.678,-7.322 7.322,-17.678 -7.322,-17.678 v -0.002 L 75,425 l 40.902,-98.742 257.838,257.838 0.002,0.004 h 0.002 l 17.678,7.322 L 409.1,584.1 416.422,566.422 475.002,425 416.422,283.578 409.1,265.9 l -17.678,-7.322 -17.678,7.322 -7.322,17.678 7.322,17.678 v 0.002 L 425,425 384.098,523.742 126.26,265.904 126.256,265.9 Z M 150,100 132.322,107.322 125,125 132.322,142.678 150,150 203.033,171.967 225,225 V 325 L 261.611,413.389 289.645,425 261.611,436.611 225,525 V 625 L 203.033,678.033 150,700 132.322,707.322 125,725 132.322,742.676 150,750 l 17.678,-7.322 70.71,-29.29 L 275,625 V 525 L 296.967,471.967 350,450 367.678,442.678 375,425 367.678,407.324 v -0.002 L 350,400 296.967,378.033 275,325 V 225 L 238.389,136.611 167.678,107.324 Z M 225,25 232.322,7.322 250,0 267.678,7.322 275,25 V 825 L 267.678,842.678 250,850 232.322,842.678 225,825 Z m 125,75 -17.678,7.322 -70.71,29.29 L 225,225 V 325 L 203.033,378.033 150,400 132.322,407.322 125,425 l 7.322,17.676 v 0.002 L 150,450 203.033,471.967 225,525 v 100 l 36.611,88.389 70.711,29.287 L 350,750 367.678,742.678 375,725 367.678,707.322 350,700 296.967,678.033 275,625 V 525 L 238.389,436.611 210.355,425 238.389,413.389 275,325 V 225 L 296.967,171.967 350,150 367.678,142.678 375,125 367.678,107.324 Z m -241.42188,158.57812 -17.677729,7.32227 -7.322266,17.67773 7.322266,17.67774 282.843749,282.84375 17.67774,7.32227 17.67773,-7.32227 7.32227,-17.67773 -7.32227,-17.67774 L 126.25586,265.90039 Z M 475,425 467.678,407.322 450,400 432.322,407.322 425,425 373.744,548.744 250,600 126.256,548.744 75,425 126.256,301.256 250,250 267.678,242.678 275,225 267.678,207.322 250,200 232.322,207.322 90.9,265.9 25,425 90.9,584.1 250,650 409.1,584.1 467.678,442.678 Z M 250,300 161.61133,336.61133 125,425 161.61133,513.38867 250,550 338.38867,513.38867 375,425 338.38867,336.61133 Z m 0,50 53.0332,21.9668 L 325,425 303.0332,478.0332 250,500 196.9668,478.0332 175,425 196.9668,371.9668 Z m -141.42188,-91.42188 -17.677729,7.32227 -7.322266,17.67773 7.322266,17.67774 282.843749,282.84375 17.67774,7.32227 17.67773,-7.32227 7.32227,-17.67773 -7.32227,-17.67774 L 126.25586,265.90039 Z M 90.901,265.901 l -7.322,17.678 7.322,17.677 17.678,7.323 17.677,-7.323 L 250,250 373.744,301.257 425,425 373.743,548.744 250,600 126.256,548.743 108.579,541.42 90.901,548.743 83.579,566.42 90.9,584.1 108.578,591.422 250,650.001 409.099,584.099 475.001,425 409.099,265.901 250,199.999 108.579,258.579 Z m 17.67712,-7.32288 -17.677729,7.32227 -7.322266,17.67773 7.322266,17.67774 282.843749,282.84375 17.67774,7.32227 17.67773,-7.32227 7.32227,-17.67773 -7.32227,-17.67774 L 126.25586,265.90039 Z M 25,425 32.322,442.678 50,450 67.678,442.678 75,425 126.256,301.256 250,250 373.744,301.256 425,425 373.744,548.744 250,600 232.322,607.322 225,625 232.322,642.678 250,650 267.678,642.678 409.1,584.1 475,425 409.1,265.9 250,200 90.9,265.9 32.322,407.322 Z m -225,175 -17.678,7.322 L -225,625 -217.678,642.678 -159.1,784.1 0,850 159.1,784.1 217.678,642.678 225,625 217.678,607.322 200,600 182.322,607.322 175,625 123.744,748.744 0,800 -123.744,748.744 -175,625 l -7.322,-17.678 z m 308.57812,-341.42188 -17.677729,7.32227 -7.322266,17.67773 7.322266,17.67774 282.843749,282.84375 17.67774,7.32227 17.67773,-7.32227 7.32227,-17.67773 -7.32227,-17.67774 L 126.25586,265.90039 Z M 90.901,584.099 l 17.678,7.322 17.677,-7.322 7.323,-17.678 -7.323,-17.677 L 75,425 126.257,301.256 250,250 373.744,301.257 425,425 l -51.257,123.744 -7.323,17.677 7.323,17.678 17.677,7.322 17.68,-7.321 7.322,-17.678 L 475.001,425 409.099,265.901 250,199.999 90.901,265.901 24.999,425 83.579,566.421 Z M -17.678,642.678 -25,625 -17.678,607.322 0,600 l 17.678,7.322 141.421,141.422 7.322,17.677 -7.321,17.679 -17.678,7.322 -17.677,-7.322 z m 426.777,-376.777 -17.678,-7.322 -17.677,7.322 -7.323,17.678 7.323,17.677 L 425,425 373.743,548.744 250,600 126.256,548.743 75,425 126.257,301.256 133.58,283.579 126.257,265.901 108.58,258.579 90.9,265.9 83.578,283.578 24.999,425 90.901,584.099 250,650.001 409.099,584.099 475.001,425 416.421,283.579 Z M 475,425 467.678,407.322 450,400 432.322,407.322 425,425 373.744,548.744 250,600 126.256,548.744 75,425 126.256,301.256 250,250 267.678,242.678 275,225 267.678,207.322 250,200 232.322,207.322 90.9,265.9 25,425 90.9,584.1 250,650 409.1,584.1 467.678,442.678 Z M 250,200 108.578,258.578 90.9,265.9 83.578,283.578 25,425 83.578,566.422 90.9,584.1 108.578,591.422 250,650 391.422,591.422 409.1,584.1 416.422,566.422 475,425 416.422,283.578 409.1,265.9 391.422,258.578 Z m 0,50 123.744,51.256 L 425,425 373.744,548.744 250,600 126.256,548.744 75,425 126.256,301.256 Z m -159.099,15.901 -7.322,17.678 7.322,17.677 17.678,7.323 17.677,-7.323 L 250,250 373.744,301.257 425,425 373.743,548.744 250,600 126.256,548.743 108.579,541.42 90.901,548.743 83.579,566.42 90.9,584.1 108.578,591.422 250,650.001 409.099,584.099 475.001,425 409.099,265.901 250,199.999 108.579,258.579 Z m 318.198,318.198 7.322,-17.678 -7.322,-17.677 -17.678,-7.323 -17.677,7.323 L 250,600 126.256,548.743 75,425 126.257,301.256 250,250 l 123.744,51.257 17.677,7.323 17.678,-7.323 7.322,-17.677 L 409.1,265.9 391.422,258.578 250,199.999 90.901,265.901 24.999,425 90.901,584.099 250,650.001 391.421,591.421 Z M -200,600 -217.678,607.322 -225,625 -217.678,642.678 -159.1,784.1 0,850 141.422,791.422 159.1,784.1 166.422,766.422 217.678,642.678 225,625 217.678,607.322 200,600 182.322,607.322 175,625 134.1,723.744 17.678,607.322 0,600 -17.678,607.322 -25,625 -17.678,642.678 98.744,759.1 0,800 -123.744,748.744 -175,625 l -7.322,-17.678 z m 308.57812,-341.42188 -17.677729,7.32227 -7.322266,17.67773 7.322266,17.67774 282.843749,282.84375 17.67774,7.32227 17.67773,-7.32227 7.32227,-17.67773 -7.32227,-17.67774 L 126.25586,265.90039 Z M 250,650 267.678,642.678 275,625 267.678,607.322 250,600 126.256,548.744 75,425 126.256,301.256 250,250 373.744,301.256 425,425 432.322,442.678 450,450 467.678,442.678 475,425 467.678,407.322 409.1,265.9 250,200 90.9,265.9 25,425 90.9,584.1 232.322,642.678 Z m 0,0 17.678,-7.322 L 275,625 267.678,607.322 250,600 126.256,548.744 75,425 126.256,301.256 250,250 373.744,301.256 425,425 432.322,442.678 450,450 467.678,442.678 475,425 467.678,407.322 409.1,265.9 250,200 90.9,265.9 25,425 90.9,584.1 232.322,642.678 Z m -141.42188,-391.42188 -17.677729,7.32227 -7.322266,17.67773 7.322266,17.67774 282.843749,282.84375 17.67774,7.32227 17.67773,-7.32227 7.32227,-17.67773 -7.32227,-17.67774 L 126.25586,265.90039 Z M 250,200 108.578,258.578 90.9,265.9 83.578,283.578 25,425 83.578,566.422 90.9,584.1 108.578,591.422 250,650 391.422,591.422 409.1,584.1 416.422,566.422 475,425 416.422,283.578 409.1,265.9 391.422,258.578 Z m 0,50 123.744,51.256 L 425,425 373.744,548.744 250,600 126.256,548.744 75,425 126.256,301.256 Z m 0,-50 -17.678,7.322 L 225,225 232.322,242.678 250,250 373.744,301.256 425,425 373.744,548.744 250,600 126.256,548.744 75,425 67.678,407.322 50,400 32.322,407.322 25,425 32.322,442.678 90.9,584.1 250,650 409.1,584.1 475,425 409.1,265.9 267.678,207.322 Z m 0,100 -88.38867,36.61133 L 125,425 161.61133,513.38867 250,550 338.38867,513.38867 375,425 338.38867,336.61133 Z m 0,50 53.0332,21.9668 L 325,425 303.0332,478.0332 250,500 196.9668,478.0332 175,425 196.9668,371.9668 Z m -141.42188,-91.42188 -17.677729,7.32227 -7.322266,17.67773 7.322266,17.67774 282.843749,282.84375 17.67774,7.32227 17.67773,-7.32227 7.32227,-17.67773 -7.32227,-17.67774 L 126.25586,265.90039 Z M 475,425 467.678,407.322 450,400 432.322,407.322 425,425 373.744,548.744 250,600 126.256,548.744 75,425 126.256,301.256 250,250 267.678,242.678 275,225 267.678,207.322 250,200 232.322,207.322 90.9,265.9 25,425 90.9,584.1 250,650 409.1,584.1 467.678,442.678 Z M 0,0 -159.1,65.9 -217.678,207.322 -225,225 -217.678,242.678 -200,250 -182.322,242.678 -175,225 -123.744,101.256 0,50 123.744,101.256 175,225 182.322,242.678 200,250 217.678,242.678 225,225 217.678,207.322 159.1,65.9 Z M 25,425 32.322,442.678 50,450 67.678,442.678 75,425 126.256,301.256 250,250 373.744,301.256 425,425 373.744,548.744 250,600 232.322,607.322 225,625 232.322,642.678 250,650 267.678,642.678 409.1,584.1 475,425 409.1,265.9 250,200 90.9,265.9 32.322,407.322 Z m 83.57812,-166.42188 -17.677729,7.32227 -7.322266,17.67773 7.322266,17.67774 282.843749,282.84375 17.67774,7.32227 17.67773,-7.32227 7.32227,-17.67773 -7.32227,-17.67774 L 126.25586,265.90039 Z M 250,200 232.322,207.322 225,225 232.322,242.678 250,250 373.744,301.256 425,425 373.744,548.744 250,600 126.256,548.744 75,425 67.678,407.322 50,400 32.322,407.322 25,425 32.322,442.678 90.9,584.1 250,650 409.1,584.1 475,425 409.1,265.9 267.678,207.322 Z m -159.099,384.099 17.678,7.322 17.677,-7.322 7.323,-17.678 -7.323,-17.677 L 75,425 126.257,301.256 250,250 373.744,301.257 425,425 l -51.257,123.744 -7.323,17.677 7.323,17.678 17.677,7.322 17.68,-7.321 7.322,-17.678 L 475.001,425 409.099,265.901 250,199.999 90.901,265.901 24.999,425 83.579,566.421 Z m -250,-482.843 -7.322,-17.676 7.321,-17.68 17.678,-7.322 17.677,7.322 L 17.677,207.321 25,225 17.678,242.678 0,250 -17.678,242.678 Z m 267.67712,157.32212 -17.677729,7.32227 -7.322266,17.67773 7.322266,17.67774 282.843749,282.84375 17.67774,7.32227 17.67773,-7.32227 7.32227,-17.67773 -7.32227,-17.67774 -282.84375,-282.84375 z m 300.52088,7.32288 -17.678,-7.322 -17.677,7.322 -7.323,17.678 7.323,17.677 L 425,425 373.743,548.744 250,600 126.256,548.743 75,425 126.257,301.256 133.58,283.579 126.257,265.901 108.58,258.579 90.9,265.9 83.578,283.578 24.999,425 90.901,584.099 250,650.001 409.099,584.099 475.001,425 416.421,283.579 Z m -300.52088,-7.32288 -17.677729,7.32227 -7.322266,17.67773 7.322266,17.67774 282.843749,282.84375 17.67774,7.32227 17.67773,-7.32227 7.32227,-17.67773 -7.32227,-17.67774 L 126.25586,265.90039 Z M 90.901,265.901 l -7.322,17.678 7.322,17.677 17.678,7.323 17.677,-7.323 L 250,250 373.744,301.257 425,425 373.743,548.744 250,600 126.256,548.743 108.579,541.42 90.901,548.743 83.579,566.42 90.9,584.1 108.578,591.422 250,650.001 409.099,584.099 475.001,425 409.099,265.901 250,199.999 108.579,258.579 Z m 17.67712,-7.32288 -17.677729,7.32227 -7.322266,17.67773 7.322266,17.67774 282.843749,282.84375 17.67774,7.32227 17.67773,-7.32227 7.32227,-17.67773 -7.32227,-17.67774 L 126.25586,265.90039 Z M 409.099,584.099 l 7.322,-17.678 -7.322,-17.677 -17.678,-7.323 -17.677,7.323 L 250,600 126.256,548.743 75,425 126.257,301.256 250,250 l 123.744,51.257 17.677,7.323 17.678,-7.323 7.322,-17.677 L 409.1,265.9 391.422,258.578 250,199.999 90.901,265.901 24.999,425 90.901,584.099 250,650.001 391.421,591.421 Z M 0,0 -141.422,58.578 -159.1,65.9 -166.422,83.578 -217.678,207.322 -225,225 -217.678,242.678 -200,250 -182.322,242.678 -175,225 -134.1,126.256 -17.678,242.678 0,250 17.678,242.678 25,225 17.678,207.322 -98.744,90.9 0,50 123.744,101.256 175,225 182.322,242.678 200,250 217.678,242.678 225,225 217.678,207.322 159.1,65.9 Z M 250,200 232.32227,207.32227 225,225 232.32227,242.67773 250,250 373.74414,301.25586 v 0.002 l 17.67774,7.32227 17.67773,-7.32227 7.32227,-17.67773 -7.32227,-17.67969 -17.67773,-7.32227 -123.74415,-51.25585 z m -141.42188,341.41992 -17.677729,7.32227 -7.322266,17.67773 7.322266,17.67969 17.677729,7.32227 L 250,650.00195 l 141.42188,-58.58007 17.67773,-7.32227 7.32227,-17.67773 -7.32227,-17.67774 -17.67773,-7.32226 -17.67774,7.32226 h -0.002 L 250,600 126.25586,548.74219 Z M 250,199.99805 l -141.42188,58.58007 -17.677729,7.32227 -7.322266,17.67773 7.322266,17.67774 17.677729,7.32226 17.67774,-7.32226 h 0.002 L 250,250 l 123.74414,51.25781 17.67774,7.32227 17.67773,-7.32227 7.32227,-17.67773 -7.32227,-17.67969 -17.67773,-7.32227 z M 250,100 l -70.71,29.29 -17.679,7.321 -7.322,17.678 7.322,17.678 17.678,7.322 17.678,-7.322 L 250,150 303.033,171.967 325,225 V 625 L 303.033,678.033 250,700 l -53.033,-21.967 -17.678,-7.322 -17.678,7.322 -7.322,17.678 7.322,17.678 17.678,7.322 L 250,750 338.389,713.389 375,625 V 225 l -36.611,-88.389 z m -141.42188,158.57812 -17.677729,7.32227 -7.322266,17.67773 7.322266,17.67774 282.843749,282.84375 17.67774,7.32227 17.67773,-7.32227 7.32227,-17.67773 -7.32227,-17.67774 L 126.25586,265.90039 Z M 250,100 161.611,136.611 125,225 V 625 L 161.611,713.389 250,750 l 70.71,-29.29 17.679,-7.321 7.322,-17.678 -7.322,-17.678 -17.678,-7.322 -17.678,7.322 L 250,700 196.967,678.033 175,625 V 225 L 196.967,171.967 250,150 l 53.033,21.967 17.678,7.322 17.678,-7.322 7.322,-17.678 -7.322,-17.678 -17.678,-7.322 z m -141.42188,158.57812 -17.677729,7.32227 -7.322266,17.67773 7.322266,17.67774 282.843749,282.84375 17.67774,7.32227 17.67773,-7.32227 7.32227,-17.67773 -7.32227,-17.67774 L 126.25586,265.90039 Z M 475,425 467.678,407.322 450,400 432.322,407.322 425,425 373.744,548.744 250,600 126.256,548.744 75,425 126.256,301.256 250,250 267.678,242.678 275,225 267.678,207.322 250,200 232.322,207.322 90.9,265.9 25,425 90.9,584.1 250,650 409.1,584.1 467.678,442.678 Z M 250,300 161.61133,336.61133 125,425 161.61133,513.38867 250,550 338.38867,513.38867 375,425 338.38867,336.61133 Z m 0,50 53.0332,21.9668 L 325,425 303.0332,478.0332 250,500 196.9668,478.0332 175,425 196.9668,371.9668 Z m -141.42188,-91.42188 -17.677729,7.32227 -7.322266,17.67773 7.322266,17.67774 282.843749,282.84375 17.67774,7.32227 17.67773,-7.32227 7.32227,-17.67773 -7.32227,-17.67774 L 126.25586,265.90039 Z M 90.901,265.901 l -7.322,17.678 7.322,17.677 17.678,7.323 17.677,-7.323 L 250,250 373.744,301.257 425,425 373.743,548.744 250,600 126.256,548.743 108.579,541.42 90.901,548.743 83.579,566.42 90.9,584.1 108.578,591.422 250,650.001 409.099,584.099 475.001,425 409.099,265.901 250,199.999 108.579,258.579 Z m 17.67712,-7.32288 -17.677729,7.32227 -7.322266,17.67773 7.322266,17.67774 282.843749,282.84375 17.67774,7.32227 17.67773,-7.32227 7.32227,-17.67773 -7.32227,-17.67774 L 126.25586,265.90039 Z M 25,425 32.322,442.678 50,450 67.678,442.678 75,425 126.256,301.256 250,250 373.744,301.256 425,425 373.744,548.744 250,600 232.322,607.322 225,625 232.322,642.678 250,650 267.678,642.678 409.1,584.1 475,425 409.1,265.9 250,200 90.9,265.9 32.322,407.322 Z m -225,175 -17.678,7.322 L -225,625 -217.678,642.678 -159.1,784.1 0,850 159.1,784.1 217.678,642.678 225,625 217.678,607.322 200,600 182.322,607.322 175,625 123.744,748.744 0,800 -123.744,748.744 -175,625 l -7.322,-17.678 z m 308.57812,-341.42188 -17.677729,7.32227 -7.322266,17.67773 7.322266,17.67774 282.843749,282.84375 17.67774,7.32227 17.67773,-7.32227 7.32227,-17.67773 -7.32227,-17.67774 L 126.25586,265.90039 Z M 90.901,584.099 l 17.678,7.322 17.677,-7.322 7.323,-17.678 -7.323,-17.677 L 75,425 126.257,301.256 250,250 373.744,301.257 425,425 l -51.257,123.744 -7.323,17.677 7.323,17.678 17.677,7.322 17.68,-7.321 7.322,-17.678 L 475.001,425 409.099,265.901 250,199.999 90.901,265.901 24.999,425 83.579,566.421 Z M -17.678,642.678 -25,625 -17.678,607.322 0,600 l 17.678,7.322 141.421,141.422 7.322,17.677 -7.321,17.679 -17.678,7.322 -17.677,-7.322 z m 426.777,-376.777 -17.678,-7.322 -17.677,7.322 -7.323,17.678 7.323,17.677 L 425,425 373.743,548.744 250,600 126.256,548.743 75,425 126.257,301.256 133.58,283.579 126.257,265.901 108.58,258.579 90.9,265.9 83.578,283.578 24.999,425 90.901,584.099 250,650.001 409.099,584.099 475.001,425 416.421,283.579 Z M 475,425 467.678,407.322 450,400 432.322,407.322 425,425 373.744,548.744 250,600 126.256,548.744 75,425 126.256,301.256 250,250 267.678,242.678 275,225 267.678,207.322 250,200 232.322,207.322 90.9,265.9 25,425 90.9,584.1 250,650 409.1,584.1 467.678,442.678 Z M 250,200 108.578,258.578 90.9,265.9 83.578,283.578 25,425 83.578,566.422 90.9,584.1 108.578,591.422 250,650 391.422,591.422 409.1,584.1 416.422,566.422 475,425 416.422,283.578 409.1,265.9 391.422,258.578 Z m 0,50 123.744,51.256 L 425,425 373.744,548.744 250,600 126.256,548.744 75,425 126.256,301.256 Z m -159.099,15.901 -7.322,17.678 7.322,17.677 17.678,7.323 17.677,-7.323 L 250,250 373.744,301.257 425,425 373.743,548.744 250,600 126.256,548.743 108.579,541.42 90.901,548.743 83.579,566.42 90.9,584.1 108.578,591.422 250,650.001 409.099,584.099 475.001,425 409.099,265.901 250,199.999 108.579,258.579 Z m 318.198,318.198 7.322,-17.678 -7.322,-17.677 -17.678,-7.323 -17.677,7.323 L 250,600 126.256,548.743 75,425 126.257,301.256 250,250 l 123.744,51.257 17.677,7.323 17.678,-7.323 7.322,-17.677 L 409.1,265.9 391.422,258.578 250,199.999 90.901,265.901 24.999,425 90.901,584.099 250,650.001 391.421,591.421 Z M -200,600 -217.678,607.322 -225,625 -217.678,642.678 -159.1,784.1 0,850 141.422,791.422 159.1,784.1 166.422,766.422 217.678,642.678 225,625 217.678,607.322 200,600 182.322,607.322 175,625 134.1,723.744 17.678,607.322 0,600 -17.678,607.322 -25,625 -17.678,642.678 98.744,759.1 0,800 -123.744,748.744 -175,625 l -7.322,-17.678 z m 308.57812,-341.42188 -17.677729,7.32227 -7.322266,17.67773 7.322266,17.67774 282.843749,282.84375 17.67774,7.32227 17.67773,-7.32227 7.32227,-17.67773 -7.32227,-17.67774 L 126.25586,265.90039 Z M 250,650 267.678,642.678 275,625 267.678,607.322 250,600 126.256,548.744 75,425 126.256,301.256 250,250 373.744,301.256 425,425 432.322,442.678 450,450 467.678,442.678 475,425 467.678,407.322 409.1,265.9 250,200 90.9,265.9 25,425 90.9,584.1 232.322,642.678 Z m 0,0 17.678,-7.322 L 275,625 267.678,607.322 250,600 126.256,548.744 75,425 126.256,301.256 250,250 373.744,301.256 425,425 432.322,442.678 450,450 467.678,442.678 475,425 467.678,407.322 409.1,265.9 250,200 90.9,265.9 25,425 90.9,584.1 232.322,642.678 Z m -141.42188,-391.42188 -17.677729,7.32227 -7.322266,17.67773 7.322266,17.67774 282.843749,282.84375 17.67774,7.32227 17.67773,-7.32227 7.32227,-17.67773 -7.32227,-17.67774 L 126.25586,265.90039 Z M 250,200 108.578,258.578 90.9,265.9 83.578,283.578 25,425 83.578,566.422 90.9,584.1 108.578,591.422 250,650 391.422,591.422 409.1,584.1 416.422,566.422 475,425 416.422,283.578 409.1,265.9 391.422,258.578 Z m 0,50 123.744,51.256 L 425,425 373.744,548.744 250,600 126.256,548.744 75,425 126.256,301.256 Z m 0,-50 -17.678,7.322 L 225,225 232.322,242.678 250,250 373.744,301.256 425,425 373.744,548.744 250,600 126.256,548.744 75,425 67.678,407.322 50,400 32.322,407.322 25,425 32.322,442.678 90.9,584.1 250,650 409.1,584.1 475,425 409.1,265.9 267.678,207.322 Z m 0,100 -88.38867,36.61133 L 125,425 161.61133,513.38867 250,550 338.38867,513.38867 375,425 338.38867,336.61133 Z m 0,50 53.0332,21.9668 L 325,425 303.0332,478.0332 250,500 196.9668,478.0332 175,425 196.9668,371.9668 Z m -141.42188,-91.42188 -17.677729,7.32227 -7.322266,17.67773 7.322266,17.67774 282.843749,282.84375 17.67774,7.32227 17.67773,-7.32227 7.32227,-17.67773 -7.32227,-17.67774 L 126.25586,265.90039 Z M 475,425 467.678,407.322 450,400 432.322,407.322 425,425 373.744,548.744 250,600 126.256,548.744 75,425 126.256,301.256 250,250 267.678,242.678 275,225 267.678,207.322 250,200 232.322,207.322 90.9,265.9 25,425 90.9,584.1 250,650 409.1,584.1 467.678,442.678 Z M 0,0 -159.1,65.9 -217.678,207.322 -225,225 -217.678,242.678 -200,250 -182.322,242.678 -175,225 -123.744,101.256 0,50 123.744,101.256 175,225 182.322,242.678 200,250 217.678,242.678 225,225 217.678,207.322 159.1,65.9 Z M 25,425 32.322,442.678 50,450 67.678,442.678 75,425 126.256,301.256 250,250 373.744,301.256 425,425 373.744,548.744 250,600 232.322,607.322 225,625 232.322,642.678 250,650 267.678,642.678 409.1,584.1 475,425 409.1,265.9 250,200 90.9,265.9 32.322,407.322 Z m 83.57812,-166.42188 -17.677729,7.32227 -7.322266,17.67773 7.322266,17.67774 282.843749,282.84375 17.67774,7.32227 17.67773,-7.32227 7.32227,-17.67773 -7.32227,-17.67774 L 126.25586,265.90039 Z M 250,200 232.322,207.322 225,225 232.322,242.678 250,250 373.744,301.256 425,425 373.744,548.744 250,600 126.256,548.744 75,425 67.678,407.322 50,400 32.322,407.322 25,425 32.322,442.678 90.9,584.1 250,650 409.1,584.1 475,425 409.1,265.9 267.678,207.322 Z m -159.099,384.099 17.678,7.322 17.677,-7.322 7.323,-17.678 -7.323,-17.677 L 75,425 126.257,301.256 250,250 373.744,301.257 425,425 l -51.257,123.744 -7.323,17.677 7.323,17.678 17.677,7.322 17.68,-7.321 7.322,-17.678 L 475.001,425 409.099,265.901 250,199.999 90.901,265.901 24.999,425 83.579,566.421 Z m -250,-482.843 -7.322,-17.676 7.321,-17.68 17.678,-7.322 17.677,7.322 L 17.677,207.321 25,225 17.678,242.678 0,250 -17.678,242.678 Z m 267.67712,157.32212 -17.677729,7.32227 -7.322266,17.67773 7.322266,17.67774 282.843749,282.84375 17.67774,7.32227 17.67773,-7.32227 7.32227,-17.67773 -7.32227,-17.67774 -282.84375,-282.84375 z m 300.52088,7.32288 -17.678,-7.322 -17.677,7.322 -7.323,17.678 7.323,17.677 L 425,425 373.743,548.744 250,600 126.256,548.743 75,425 126.257,301.256 133.58,283.579 126.257,265.901 108.58,258.579 90.9,265.9 83.578,283.578 24.999,425 90.901,584.099 250,650.001 409.099,584.099 475.001,425 416.421,283.579 Z m -300.52088,-7.32288 -17.677729,7.32227 -7.322266,17.67773 7.322266,17.67774 282.843749,282.84375 17.67774,7.32227 17.67773,-7.32227 7.32227,-17.67773 -7.32227,-17.67774 L 126.25586,265.90039 Z M 90.901,265.901 l -7.322,17.678 7.322,17.677 17.678,7.323 17.677,-7.323 L 250,250 373.744,301.257 425,425 373.743,548.744 250,600 126.256,548.743 108.579,541.42 90.901,548.743 83.579,566.42 90.9,584.1 108.578,591.422 250,650.001 409.099,584.099 475.001,425 409.099,265.901 250,199.999 108.579,258.579 Z m 17.67712,-7.32288 -17.677729,7.32227 -7.322266,17.67773 7.322266,17.67774 282.843749,282.84375 17.67774,7.32227 17.67773,-7.32227 7.32227,-17.67773 -7.32227,-17.67774 L 126.25586,265.90039 Z M 409.099,584.099 l 7.322,-17.678 -7.322,-17.677 -17.678,-7.323 -17.677,7.323 L 250,600 126.256,548.743 75,425 126.257,301.256 250,250 l 123.744,51.257 17.677,7.323 17.678,-7.323 7.322,-17.677 L 409.1,265.9 391.422,258.578 250,199.999 90.901,265.901 24.999,425 90.901,584.099 250,650.001 391.421,591.421 Z M 0,0 -141.422,58.578 -159.1,65.9 -166.422,83.578 -217.678,207.322 -225,225 -217.678,242.678 -200,250 -182.322,242.678 -175,225 -134.1,126.256 -17.678,242.678 0,250 17.678,242.678 25,225 17.678,207.322 -98.744,90.9 0,50 123.744,101.256 175,225 182.322,242.678 200,250 217.678,242.678 225,225 217.678,207.322 159.1,65.9 Z m 108.57812,258.57812 -17.677729,7.32227 -7.322266,17.67773 7.322266,17.67774 282.843749,282.84375 17.67774,7.32227 17.67773,-7.32227 7.32227,-17.67773 -7.32227,-17.67774 L 126.25586,265.90039 Z M 250,300 161.61133,336.61133 125,425 161.61133,513.38867 250,550 338.38867,513.38867 375,425 338.38867,336.61133 Z m 0,50 53.0332,21.9668 L 325,425 303.0332,478.0332 250,500 196.9668,478.0332 175,425 196.9668,371.9668 Z M 250,200 108.578,258.578 90.9,265.9 83.578,283.578 25,425 83.578,566.422 90.9,584.1 108.578,591.422 250,650 391.422,591.422 409.1,584.1 416.422,566.422 475,425 416.422,283.578 409.1,265.9 391.422,258.578 Z m 0,50 123.744,51.256 L 425,425 373.744,548.744 250,600 126.256,548.744 75,425 126.256,301.256 Z m 0,150 17.67767,7.32233 L 275,425 267.67767,442.67767 250,450 232.32233,442.67767 225,425 l 7.32233,-17.67767 z m 0,200 17.67767,7.32233 L 275,625 267.67767,642.67767 250,650 232.32233,642.67767 225,625 l 7.32233,-17.67767 z m 0,-400 17.67767,7.32233 L 275,225 267.67767,242.67767 250,250 232.32233,242.67767 225,225 l 7.32233,-17.67767 z m -95.71,295.71 7.321,17.679 17.678,7.322 L 250,550 338.389,513.389 375,425 338.389,336.611 250,300 l -70.71,29.29 -17.679,7.321 -7.322,17.678 7.322,17.678 17.678,7.322 17.678,-7.322 L 250,350 303.033,371.967 325,425 303.033,478.033 250,500 l -53.033,-21.967 -17.678,-7.322 -17.678,7.322 z M 250,300 l -70.71094,29.28906 -17.67773,7.32227 -7.32227,17.67773 7.32227,17.67774 17.67773,7.32226 L 196.9668,371.9668 250,350 l 53.0332,21.9668 17.67774,7.32226 17.67773,-7.32226 7.32227,-17.67774 -7.32227,-17.67773 -17.67773,-7.32227 z m -70.71094,170.71094 -17.67773,7.32226 -7.32227,17.67774 7.32227,17.67773 17.67773,7.32227 L 250,550 l 70.71094,-29.28906 17.67773,-7.32227 7.32227,-17.67773 -7.32227,-17.67774 -17.67773,-7.32226 L 303.0332,478.0332 250,500 196.9668,478.0332 Z M 345.71,354.29 338.389,336.611 320.711,329.289 250,300 161.611,336.611 125,425 161.611,513.389 250,550 l 70.71,-29.29 17.679,-7.321 7.322,-17.678 -7.322,-17.678 -17.678,-7.322 -17.678,7.322 L 250,500 196.967,478.033 175,425 196.967,371.967 250,350 l 53.033,21.967 17.678,7.322 17.678,-7.322 z M 250,400 267.67767,407.32233 275,425 267.67767,442.67767 250,450 232.32233,442.67767 225,425 232.32233,407.32233 Z M 50,400 67.67767,407.32233 75,425 67.67767,442.67767 50,450 32.32233,442.67767 25,425 32.32233,407.32233 Z m 400,0 17.67767,7.32233 L 475,425 467.67767,442.67767 450,450 432.32233,442.67767 425,425 l 7.32233,-17.67767 z m -341.42188,-141.42188 -17.677729,7.32227 -7.322266,17.67773 7.322266,17.67774 282.843749,282.84375 17.67774,7.32227 17.67773,-7.32227 7.32227,-17.67773 -7.32227,-17.67774 L 126.25586,265.90039 Z M 250,400 267.67767,407.32233 275,425 267.67767,442.67767 250,450 232.32233,442.67767 225,425 232.32233,407.32233 Z M 50,400 67.67767,407.32233 75,425 67.67767,442.67767 50,450 32.32233,442.67767 25,425 32.32233,407.32233 Z m 200,200 17.67767,7.32233 L 275,625 267.67767,642.67767 250,650 232.32233,642.67767 225,625 232.32233,607.32233 Z M 450,400 467.67767,407.32233 475,425 467.67767,442.67767 450,450 432.32233,442.67767 425,425 432.32233,407.32233 Z M 250,200 267.67767,207.32233 275,225 267.67767,242.67767 250,250 232.32233,242.67767 225,225 l 7.32233,-17.67767 z m -141.42188,58.57812 -17.677729,7.32227 -7.322266,17.67773 7.322266,17.67774 282.843749,282.84375 17.67774,7.32227 17.67773,-7.32227 7.32227,-17.67773 -7.32227,-17.67774 L 126.25586,265.90039 Z M 250,300 161.61133,336.61133 125,425 161.61133,513.38867 250,550 338.38867,513.38867 375,425 338.38867,336.61133 Z m 0,50 53.0332,21.9668 L 325,425 303.0332,478.0332 250,500 196.9668,478.0332 175,425 196.9668,371.9668 Z m 0,300 17.678,-7.322 L 275,625 267.678,607.322 250,600 126.256,548.744 75,425 126.256,301.256 250,250 373.744,301.256 425,425 432.322,442.678 450,450 467.678,442.678 475,425 467.678,407.322 409.1,265.9 250,200 90.9,265.9 25,425 90.9,584.1 232.322,642.678 Z M 250,300 161.61133,336.61133 125,425 161.61133,513.38867 250,550 338.38867,513.38867 375,425 338.38867,336.61133 Z m 0,50 53.0332,21.9668 L 325,425 303.0332,478.0332 250,500 196.9668,478.0332 175,425 196.9668,371.9668 Z m -159.099,234.099 17.678,7.322 17.677,-7.322 7.323,-17.678 -7.323,-17.677 L 75,425 126.257,301.256 250,250 373.744,301.257 425,425 l -51.257,123.744 -7.323,17.677 7.323,17.678 17.677,7.322 17.68,-7.321 7.322,-17.678 L 475.001,425 409.099,265.901 250,199.999 90.901,265.901 24.999,425 83.579,566.421 Z M 250,300 161.61133,336.61133 125,425 161.61133,513.38867 250,550 338.38867,513.38867 375,425 338.38867,336.61133 Z m 0,50 53.0332,21.9668 L 325,425 303.0332,478.0332 250,500 196.9668,478.0332 175,425 196.9668,371.9668 Z M 25,425 32.322,442.678 50,450 67.678,442.678 75,425 126.256,301.256 250,250 373.744,301.256 425,425 373.744,548.744 250,600 232.322,607.322 225,625 232.322,642.678 250,650 267.678,642.678 409.1,584.1 475,425 409.1,265.9 250,200 90.9,265.9 32.322,407.322 Z M 250,300 161.61133,336.61133 125,425 161.61133,513.38867 250,550 338.38867,513.38867 375,425 338.38867,336.61133 Z m 0,50 53.0332,21.9668 L 325,425 303.0332,478.0332 250,500 196.9668,478.0332 175,425 196.9668,371.9668 Z m 159.099,234.099 7.322,-17.678 -7.322,-17.677 -17.678,-7.323 -17.677,7.323 L 250,600 126.256,548.743 75,425 126.257,301.256 250,250 l 123.744,51.257 17.677,7.323 17.678,-7.323 7.322,-17.677 L 409.1,265.9 391.422,258.578 250,199.999 90.901,265.901 24.999,425 90.901,584.099 250,650.001 391.421,591.421 Z M 250,300 161.61133,336.61133 125,425 161.61133,513.38867 250,550 338.38867,513.38867 375,425 338.38867,336.61133 Z m 0,50 53.0332,21.9668 L 325,425 303.0332,478.0332 250,500 196.9668,478.0332 175,425 196.9668,371.9668 Z M 250,200 108.578,258.578 90.9,265.9 83.578,283.578 25,425 83.578,566.422 90.9,584.1 108.578,591.422 250,650 391.422,591.422 409.1,584.1 416.422,566.422 475,425 416.422,283.578 409.1,265.9 391.422,258.578 Z m 0,50 123.744,51.256 L 425,425 373.744,548.744 250,600 126.256,548.744 75,425 126.256,301.256 Z m 0,50 -88.38867,36.61133 L 125,425 161.61133,513.38867 250,550 338.38867,513.38867 375,425 338.38867,336.61133 Z m 0,50 53.0332,21.9668 L 325,425 303.0332,478.0332 250,500 196.9668,478.0332 175,425 196.9668,371.9668 Z m -159.099,-84.099 -7.322,17.678 7.322,17.677 17.678,7.323 17.677,-7.323 L 250,250 373.744,301.257 425,425 373.743,548.744 250,600 126.256,548.743 108.579,541.42 90.901,548.743 83.579,566.42 90.9,584.1 108.578,591.422 250,650.001 409.099,584.099 475.001,425 409.099,265.901 250,199.999 108.579,258.579 Z M 250,300 161.61133,336.61133 125,425 161.61133,513.38867 250,550 338.38867,513.38867 375,425 338.38867,336.61133 Z m 0,50 53.0332,21.9668 L 325,425 303.0332,478.0332 250,500 196.9668,478.0332 175,425 196.9668,371.9668 Z M 475,425 467.678,407.322 450,400 432.322,407.322 425,425 373.744,548.744 250,600 126.256,548.744 75,425 126.256,301.256 250,250 267.678,242.678 275,225 267.678,207.322 250,200 232.322,207.322 90.9,265.9 25,425 90.9,584.1 250,650 409.1,584.1 467.678,442.678 Z M 250,300 161.61133,336.61133 125,425 161.61133,513.38867 250,550 338.38867,513.38867 375,425 338.38867,336.61133 Z m 0,50 53.0332,21.9668 L 325,425 303.0332,478.0332 250,500 196.9668,478.0332 175,425 196.9668,371.9668 Z m 159.099,-84.099 -17.678,-7.322 -17.677,7.322 -7.323,17.678 7.323,17.677 L 425,425 373.743,548.744 250,600 126.256,548.743 75,425 126.257,301.256 133.58,283.579 126.257,265.901 108.58,258.579 90.9,265.9 83.578,283.578 24.999,425 90.901,584.099 250,650.001 409.099,584.099 475.001,425 416.421,283.579 Z M 250,300 161.61133,336.61133 125,425 161.61133,513.38867 250,550 338.38867,513.38867 375,425 338.38867,336.61133 Z m 0,50 53.0332,21.9668 L 325,425 303.0332,478.0332 250,500 196.9668,478.0332 175,425 196.9668,371.9668 Z m 0,-150 -17.678,7.322 L 225,225 232.322,242.678 250,250 373.744,301.256 425,425 373.744,548.744 250,600 126.256,548.744 75,425 67.678,407.322 50,400 32.322,407.322 25,425 32.322,442.678 90.9,584.1 250,650 409.1,584.1 475,425 409.1,265.9 267.678,207.322 Z m 0,100 -88.38867,36.61133 L 125,425 161.61133,513.38867 250,550 338.38867,513.38867 375,425 338.38867,336.61133 Z m 0,50 53.0332,21.9668 L 325,425 303.0332,478.0332 250,500 196.9668,478.0332 175,425 196.9668,371.9668 Z m 123.74369,-84.09903 17.67767,-7.32233 17.67767,7.32233 7.32233,17.67767 -7.32233,17.67767 -282.84272,282.84272 -17.67767,7.32233 -17.677666,-7.32233 -7.32233,-17.67767 7.32233,-17.67767 z M 250,400 267.67767,407.32233 275,425 267.67767,442.67767 250,450 232.32233,442.67767 225,425 232.32233,407.32233 Z M 50,400 67.67767,407.32233 75,425 67.67767,442.67767 50,450 32.32233,442.67767 25,425 32.32233,407.32233 Z m 200,200 17.67767,7.32233 L 275,625 267.67767,642.67767 250,650 232.32233,642.67767 225,625 232.32233,607.32233 Z M 450,400 467.67767,407.32233 475,425 467.67767,442.67767 450,450 432.32233,442.67767 425,425 432.32233,407.32233 Z M 250,200 267.67767,207.32233 275,225 267.67767,242.67767 250,250 232.32233,242.67767 225,225 l 7.32233,-17.67767 z m 200,200 17.67767,7.32233 L 475,425 467.67767,442.67767 450,450 H 50 L 32.32233,442.67767 25,425 32.32233,407.32233 50,400 Z m -200,0 17.67767,7.32233 L 275,425 267.67767,442.67767 250,450 232.32233,442.67767 225,425 232.32233,407.32233 Z M 50,400 67.67767,407.32233 75,425 67.67767,442.67767 50,450 32.32233,442.67767 25,425 32.32233,407.32233 Z m 400,0 17.67767,7.32233 L 475,425 467.67767,442.67767 450,450 432.32233,442.67767 425,425 l 7.32233,-17.67767 z m -400,0 h 400 l 17.67767,7.32233 L 475,425 467.67767,442.67767 450,450 H 50 L 32.32233,442.67767 25,425 32.32233,407.32233 Z M 225,225 232.32233,207.32233 250,200 267.67767,207.32233 275,225 V 625 L 267.67767,642.67767 250,650 232.32233,642.67767 225,625 Z m 148.74369,40.90097 17.67767,-7.32233 17.67767,7.32233 7.32233,17.67767 -7.32233,17.67767 -282.84272,282.84272 -17.67767,7.32233 -17.677666,-7.32233 -7.32233,-17.67767 7.32233,-17.67767 z m -265.16557,-7.32285 -17.677729,7.32227 -7.322266,17.67773 7.322266,17.67774 282.843749,282.84375 17.67774,7.32227 17.67773,-7.32227 7.32227,-17.67773 -7.32227,-17.67774 L 126.25586,265.90039 Z M 225,225 232.32233,207.32233 250,200 267.67767,207.32233 275,225 V 625 L 267.67767,642.67767 250,650 232.32233,642.67767 225,625 Z M 150,100 132.322,107.322 125,125 132.322,142.678 150,150 203.033,171.967 225,225 V 625 L 203.033,678.033 150,700 132.322,707.322 125,725 132.322,742.676 150,750 l 17.678,-7.322 70.71,-29.29 L 275,625 V 225 l -36.611,-88.389 -70.711,-29.287 z m 200,0 -17.678,7.322 -70.71,29.29 L 225,225 v 400 l 36.611,88.389 70.711,29.287 L 350,750 367.678,742.678 375,725 367.678,707.322 350,700 296.967,678.033 275,625 V 225 L 296.967,171.967 350,150 367.678,142.678 375,125 367.678,107.324 Z M 250,200 267.67767,207.32233 275,225 267.67767,242.67767 250,250 232.32233,242.67767 225,225 l 7.32233,-17.67767 z m 0,200 17.67767,7.32233 L 275,425 267.67767,442.67767 250,450 232.32233,442.67767 225,425 l 7.32233,-17.67767 z m -95.71,95.71 7.321,17.679 17.678,7.322 L 250,550 338.389,513.389 375,425 338.389,336.611 250,300 l -70.71,29.29 -17.679,7.321 -7.322,17.678 7.322,17.678 17.678,7.322 17.678,-7.322 L 250,350 303.033,371.967 325,425 303.033,478.033 250,500 l -53.033,-21.967 -17.678,-7.322 -17.678,7.322 z m -63.389,-229.809 -7.322,17.678 7.322,17.677 17.678,7.323 17.677,-7.323 L 250,250 373.744,301.257 425,425 373.743,548.744 250,600 126.256,548.743 108.579,541.42 90.901,548.743 83.579,566.42 90.9,584.1 108.578,591.422 250,650.001 409.099,584.099 475.001,425 409.099,265.901 250,199.999 108.579,258.579 Z m 17.677,-7.323 -17.678,7.322 -7.322,17.678 7.322,17.678 17.678,7.322 17.678,-7.322 7.322,-17.678 -7.322,-17.678 z m 282.844,0 L 373.744,265.9 90.9,548.744 83.578,566.422 90.9,584.1 108.578,591.422 126.256,584.1 409.1,301.256 416.422,283.578 409.1,265.9 Z m 0,282.844 -17.678,7.322 -7.322,17.678 7.322,17.678 17.678,7.322 17.678,-7.322 7.322,-17.678 -7.322,-17.678 z M 225,25 232.322,7.322 250,0 267.678,7.322 275,25 V 825 L 267.678,842.678 250,850 232.322,842.678 225,825 Z m -116.42188,233.57812 -17.677729,7.32227 -7.322266,17.67773 7.322266,17.67774 282.843749,282.84375 17.67774,7.32227 17.67773,-7.32227 7.32227,-17.67773 -7.32227,-17.67774 -282.84375,-282.84375 z m 0,282.8418 -17.677729,7.32227 -7.322266,17.67773 7.322266,17.67969 17.677729,7.32227 L 250,650.00195 l 141.42188,-58.58007 17.67773,-7.32227 7.32227,-17.67773 -7.32227,-17.67774 -17.67773,-7.32226 -17.67774,7.32226 h -0.002 L 250,600 126.25586,548.74219 Z M 250,199.99805 l -141.42188,58.58007 -17.677729,7.32227 -7.322266,17.67773 7.322266,17.67774 17.677729,7.32226 17.67774,-7.32226 h 0.002 L 250,250 l 123.74414,51.25781 17.67774,7.32227 17.67773,-7.32227 7.32227,-17.67773 -7.32227,-17.67969 -17.67773,-7.32227 z M 225,25 232.322,7.322 250,0 267.678,7.322 275,25 V 825 L 267.678,842.678 250,850 232.322,842.678 225,825 Z m -116.42188,233.57812 -17.677729,7.32227 -7.322266,17.67773 7.322266,17.67774 282.843749,282.84375 17.67774,7.32227 17.67773,-7.32227 7.32227,-17.67773 -7.32227,-17.67774 L 126.25586,265.90039 Z M 409.099,584.099 l 7.322,-17.678 -7.322,-17.677 -17.678,-7.323 -17.677,7.323 L 250,600 126.256,548.743 75,425 126.257,301.256 250,250 l 123.744,51.257 17.677,7.323 17.678,-7.323 7.322,-17.677 L 409.1,265.9 391.422,258.578 250,199.999 90.901,265.901 24.999,425 90.901,584.099 250,650.001 391.421,591.421 Z m 0,-318.198 7.322,17.678 -7.322,17.677 -17.678,7.323 -17.677,-7.323 -7.323,-17.677 7.323,-17.678 17.677,-7.322 z m -318.198,0 17.678,-7.322 17.677,7.322 7.323,17.678 -7.323,17.677 -17.677,7.323 -17.678,-7.323 -7.322,-17.677 z M 250,600 267.67767,607.32233 275,625 267.67767,642.67767 250,650 232.32233,642.67767 225,625 l 7.32233,-17.67767 z m 0,-400 17.67767,7.32233 L 275,225 267.67767,242.67767 250,250 232.32233,242.67767 225,225 l 7.32233,-17.67767 z" />
</svg>