<svg width="500" height="850" xmlns="http://www.w3.org/2000/svg" xmlns:svg="http://www.w3.org/2000/svg">
    <path
        d="m250 200-17.678 7.322L225 225l7.322 17.678L250 250l123.744 51.256L425 425l-51.256 123.744L250 600l-123.744-51.256L75 425l-7.322-17.678L50 400l-17.678 7.322L25 425l7.322 17.678L90.9 584.1 250 650l159.1-65.9L475 425l-65.9-159.1-141.422-58.578z" />
    <path
        d="m409.099 265.901-17.678-7.322-17.677 7.322-7.323 17.678 7.323 17.677L425 425l-51.257 123.744L250 600l-123.744-51.257L75 425l51.257-123.744 7.323-17.677-7.323-17.678-17.677-7.322L90.9 265.9l-7.322 17.678L24.999 425l65.902 159.099L250 650.001l159.099-65.902L475.001 425l-58.58-141.421z" />
    <path
        d="m475 425-7.322-17.678L450 400l-17.678 7.322L425 425l-51.256 123.744L250 600l-123.744-51.256L75 425l51.256-123.744L250 250l17.678-7.322L275 225l-7.322-17.678L250 200l-17.678 7.322L90.9 265.9 25 425l65.9 159.1L250 650l159.1-65.9 58.578-141.422z" />
    <path
        d="m90.901 265.901-7.322 17.678 7.322 17.677 17.678 7.323 17.677-7.323L250 250l123.744 51.257L425 425l-51.257 123.744L250 600l-123.744-51.257-17.677-7.323-17.678 7.323-7.322 17.677L90.9 584.1l17.678 7.322L250 650.001l159.099-65.902L475.001 425l-65.902-159.099L250 199.999l-141.421 58.58z" />
    <path
        d="m250 200-141.422 58.578L90.9 265.9l-7.322 17.678L25 425l58.578 141.422L90.9 584.1l17.678 7.322L250 650l141.422-58.578L409.1 584.1l7.322-17.678L475 425l-58.578-141.422L409.1 265.9l-17.678-7.322zm0 50 123.744 51.256L425 425l-51.256 123.744L250 600l-123.744-51.256L75 425l51.256-123.744z" />
    <path
        d="m409.099 584.099 7.322-17.678-7.322-17.677-17.678-7.323-17.677 7.323L250 600l-123.744-51.257L75 425l51.257-123.744L250 250l123.744 51.257 17.677 7.323 17.678-7.323 7.322-17.677L409.1 265.9l-17.678-7.322L250 199.999 90.901 265.901 24.999 425l65.902 159.099L250 650.001l141.421-58.58z" />
    <path
        d="m25 425 7.322 17.678L50 450l17.678-7.322L75 425l51.256-123.744L250 250l123.744 51.256L425 425l-51.256 123.744L250 600l-17.678 7.322L225 625l7.322 17.678L250 650l17.678-7.322L409.1 584.1 475 425l-65.9-159.1L250 200 90.9 265.9 32.322 407.322z" />
    <path
        d="m90.901 584.099 17.678 7.322 17.677-7.322 7.323-17.678-7.323-17.677L75 425l51.257-123.744L250 250l123.744 51.257L425 425l-51.257 123.744-7.323 17.677 7.323 17.678 17.677 7.322L409.1 584.1l7.322-17.678L475.001 425l-65.902-159.099L250 199.999 90.901 265.901 24.999 425l58.58 141.421z" />
    <path
        d="m250 650 17.678-7.322L275 625l-7.322-17.678L250 600l-123.744-51.256L75 425l51.256-123.744L250 250l123.744 51.256L425 425l7.322 17.678L450 450l17.678-7.322L475 425l-7.322-17.678L409.1 265.9 250 200 90.9 265.9 25 425l65.9 159.1 141.422 58.578z" />
</svg>