
<svg width="500" height="850" xmlns="http://www.w3.org/2000/svg" xmlns:svg="http://www.w3.org/2000/svg">
    <path
        d="M108.578 258.578 90.9 265.9l-7.322 17.678L24.998 425l58.58 141.422L90.9 584.1l17.678 7.322 17.678-7.322 7.322-17.678-7.322-17.678v-.002L75 425l40.902-98.742L373.74 584.096l.002.004h.002l17.678 7.322L409.1 584.1l7.322-17.678L475.002 425l-58.58-141.422L409.1 265.9l-17.678-7.322-17.678 7.322-7.322 17.678 7.322 17.678v.002L425 425l-40.902 98.742L126.26 265.904l-.004-.004z" />
</svg>