<?xml version="1.0" encoding="UTF-8" standalone="no"?>
<svg width="500" height="850" version="1.1" id="svg7" sodipodi:docname="xidili.svg" inkscape:version="1.4.3 (0d15f750, 2025-12-25)" xmlns:inkscape="http://www.inkscape.org/namespaces/inkscape" xmlns:sodipodi="http://sodipodi.sourceforge.net/DTD/sodipodi-0.dtd" xmlns="http://www.w3.org/2000/svg" xmlns:svg="http://www.w3.org/2000/svg">
    <defs id="defs7" />
    <sodipodi:namedview id="namedview7" pagecolor="#ffffff" bordercolor="#000000" borderopacity="0.25" inkscape:showpageshadow="2" inkscape:pageopacity="0.0" inkscape:pagecheckerboard="0" inkscape:deskcolor="#d1d1d1" inkscape:zoom="0.53647059" inkscape:cx="250.71272" inkscape:cy="425" inkscape:window-width="1080" inkscape:window-height="675" inkscape:window-x="0" inkscape:window-y="25" inkscape:window-maximized="0" inkscape:current-layer="svg7" />
    <path id="path8" style="fill:#000000;fill-opacity:0;stroke:#ff0000" d="M 250,500 161.61133,536.61133 125,625 161.61133,713.38867 250,750 338.38867,713.38867 375,625 338.38867,536.61133 Z m 0,50 53.0332,21.9668 L 325,625 303.0332,678.0332 250,700 196.9668,678.0332 175,625 196.9668,571.9668 Z M 250,100 161.61133,136.61133 125,225 161.61133,313.38867 250,350 338.38867,313.38867 375,225 338.38867,136.61133 Z m 0,50 53.0332,21.9668 L 325,225 303.0332,278.0332 250,300 196.9668,278.0332 175,225 196.9668,171.9668 Z M 225,25 232.322,7.322 250,0 267.678,7.322 275,25 V 825 L 267.678,842.678 250,850 232.322,842.678 225,825 Z M 250,200 108.578,258.578 90.9,265.9 83.578,283.578 25,425 83.578,566.422 90.9,584.1 108.578,591.422 250,650 391.422,591.422 409.1,584.1 416.422,566.422 475,425 416.422,283.578 409.1,265.9 391.422,258.578 Z m 0,50 123.744,51.256 L 425,425 373.744,548.744 250,600 126.256,548.744 75,425 126.256,301.256 Z M 232.322,642.678 225,625 232.322,607.322 250,600 l 17.678,7.322 141.421,141.422 7.322,17.677 -7.321,17.679 -17.678,7.322 -17.677,-7.322 z M 50,600 32.322,607.322 25,625 32.322,642.678 90.9,784.1 250,850 409.1,784.1 467.678,642.678 475,625 467.678,607.322 450,600 432.322,607.322 425,625 373.744,748.744 250,800 126.256,748.744 75,625 67.678,607.322 Z M 90.901,101.256 83.579,83.58 90.9,65.9 108.578,58.578 126.255,65.9 267.677,207.321 275,225 267.678,242.678 250,250 232.322,242.678 Z M 250,0 90.9,65.9 32.322,207.322 25,225 32.322,242.678 50,250 67.678,242.678 75,225 126.256,101.256 250,50 373.744,101.256 425,225 432.322,242.678 450,250 467.678,242.678 475,225 467.678,207.322 409.1,65.9 Z" />
</svg>
