<?xml version="1.0" encoding="UTF-8" standalone="no"?>
<svg width="500" height="850" version="1.1" id="svg20" sodipodi:docname="xidili.svg" inkscape:version="1.4.3 (0d15f750, 2025-12-25)" xmlns:inkscape="http://www.inkscape.org/namespaces/inkscape" xmlns:sodipodi="http://sodipodi.sourceforge.net/DTD/sodipodi-0.dtd" xmlns="http://www.w3.org/2000/svg" xmlns:svg="http://www.w3.org/2000/svg">
    <defs id="defs20" />
    <sodipodi:namedview id="namedview20" pagecolor="#ffffff" bordercolor="#000000" borderopacity="0.25" inkscape:showpageshadow="2" inkscape:pageopacity="0.0" inkscape:pagecheckerboard="0" inkscape:deskcolor="#d1d1d1" inkscape:zoom="21.887885" inkscape:cx="254.66142" inkscape:cy="707.05781" inkscape:window-width="1080" inkscape:window-height="647" inkscape:window-x="0" inkscape:window-y="25" inkscape:window-maximized="0" inkscape:current-layer="svg20" />
    <polygon points="255 105 253.535533905933 108.535533905933 250 110 246.464466094067 108.535533905933 245 105 246.464466094067 101.464466094067 250 100 253.535533905933 101.464466094067" id="polygon11" />
    <polygon points="255 125 253.535533905933 128.535533905933 250 130 246.464466094067 128.535533905933 245 125 246.464466094067 121.464466094067 250 120 253.535533905933 121.464466094067" id="polygon12" />
    <polygon points="255 145 253.535533905933 148.535533905933 250 150 246.464466094067 148.535533905933 245 145 246.464466094067 141.464466094067 250 140 253.535533905933 141.464466094067" id="polygon13" />
    <polygon points="235 125 233.535533905933 128.535533905933 230 130 226.464466094067 128.535533905933 225 125 226.464466094067 121.464466094067 230 120 233.535533905933 121.464466094067" id="polygon14" />
    <polygon points="275 125 273.535533905933 128.535533905933 270 130 266.464466094067 128.535533905933 265 125 266.464466094067 121.464466094067 270 120 273.535533905933 121.464466094067" id="polygon15" />
    <polygon points="255 705 253.535533905933 708.535533905933 250 710 246.464466094067 708.535533905933 245 705 246.464466094067 701.464466094067 250 700 253.535533905933 701.464466094067" id="polygon16" />
    <polygon points="255 725 253.535533905933 728.535533905933 250 730 246.464466094067 728.535533905933 245 725 246.464466094067 721.464466094067 250 720 253.535533905933 721.464466094067" id="polygon17" />
    <polygon points="255 745 253.535533905933 748.535533905933 250 750 246.464466094067 748.535533905933 245 745 246.464466094067 741.464466094067 250 740 253.535533905933 741.464466094067" id="polygon18" />
    <polygon points="235 725 233.535533905933 728.535533905933 230 730 226.464466094067 728.535533905933 225 725 226.464466094067 721.464466094067 230 720 233.535533905933 721.464466094067" id="polygon19" />
    <polygon points="275 725 273.535533905933 728.535533905933 270 730 266.464466094067 728.535533905933 265 725 266.464466094067 721.464466094067 270 720 273.535533905933 721.464466094067" id="polygon20" />
</svg>
