<svg width="500" height="850" xmlns="http://www.w3.org/2000/svg">
    <path style="fill:#000000;fill-opacity:0;stroke:#ff0000"
        d="M 250,500 161.61133,536.61133 125,625 161.61133,713.38867 250,750 338.38867,713.38867 375,625 338.38867,536.61133 Z m 0,50 53.0332,21.9668 L 325,625 303.0332,678.0332 250,700 196.9668,678.0332 175,625 196.9668,571.9668 Z M 250,100 161.61133,136.61133 125,225 161.61133,313.38867 250,350 338.38867,313.38867 375,225 338.38867,136.61133 Z m 0,50 53.0332,21.9668 L 325,225 303.0332,278.0332 250,300 196.9668,278.0332 175,225 196.9668,171.9668 Z M 225,25 232.322,7.322 250,0 267.678,7.322 275,25 V 825 L 267.678,842.678 250,850 232.322,842.678 225,825 Z M 250,200 108.578,258.578 90.9,265.9 83.578,283.578 25,425 83.578,566.422 90.9,584.1 108.578,591.422 250,650 391.422,591.422 409.1,584.1 416.422,566.422 475,425 416.422,283.578 409.1,265.9 391.422,258.578 Z m 0,50 123.744,51.256 L 425,425 373.744,548.744 250,600 126.256,548.744 75,425 126.256,301.256 Z M 232.322,642.678 225,625 232.322,607.322 250,600 l 17.678,7.322 141.421,141.422 7.322,17.677 -7.321,17.679 -17.678,7.322 -17.677,-7.322 z M 50,600 32.322,607.322 25,625 32.322,642.678 90.9,784.1 250,850 409.1,784.1 467.678,642.678 475,625 467.678,607.322 450,600 432.322,607.322 425,625 373.744,748.744 250,800 126.256,748.744 75,625 67.678,607.322 Z M 90.901,101.256 83.579,83.58 90.9,65.9 108.578,58.578 126.255,65.9 267.677,207.321 275,225 267.678,242.678 250,250 232.322,242.678 Z M 250,0 90.9,65.9 32.322,207.322 25,225 32.322,242.678 50,250 67.678,242.678 75,225 126.256,101.256 250,50 373.744,101.256 425,225 432.322,242.678 450,250 467.678,242.678 475,225 467.678,207.322 409.1,65.9 Z" />
    <polygon
        points="275 125 267.677669529664 142.677669529664 250 150 232.322330470336 142.677669529664 225 125 232.322330470336 107.322330470336 250 100 267.677669529664 107.322330470336"
        style="fill:#000000;fill-opacity:0;stroke:#ff0000" />
    <polygon
        points="270 125 264.142135623731 139.142135623731 250 145 235.857864376269 139.142135623731 230 125 235.857864376269 110.857864376269 250 105 264.142135623731 110.857864376269"
        style="fill:#000000;fill-opacity:0;stroke:#ff0000" />
    <polygon
        points="265 125 260.606601717798 135.606601717798 250 140 239.393398282202 135.606601717798 235 125 239.393398282202 114.393398282202 250 110 260.606601717798 114.393398282202"
        style="fill:#000000;fill-opacity:0;stroke:#ff0000" />
    <polygon
        points="260 125 257.071067811865 132.071067811865 250 135 242.928932188135 132.071067811865 240 125 242.928932188135 117.928932188135 250 115 257.071067811865 117.928932188135"
        style="fill:#000000;fill-opacity:0;stroke:#ff0000" />
    <polygon
        points="255 125 253.535533905933 128.535533905933 250 130 246.464466094067 128.535533905933 245 125 246.464466094067 121.464466094067 250 120 253.535533905933 121.464466094067"
        style="fill:#000000;fill-opacity:0;stroke:#ff0000" />

    <polygon
        points="275 725 267.677669529664 742.677669529664 250 750 232.322330470336 742.677669529664 225 725 232.322330470336 707.322330470336 250 700 267.677669529664 707.322330470336"
        style="fill:#000000;fill-opacity:0;stroke:#ff0000" />
    <polygon
        points="270 725 264.142135623731 739.142135623731 250 745 235.857864376269 739.142135623731 230 725 235.857864376269 710.857864376269 250 705 264.142135623731 710.857864376269"
        style="fill:#000000;fill-opacity:0;stroke:#ff0000" />
    <polygon
        points="265 725 260.606601717798 735.606601717798 250 740 239.393398282202 735.606601717798 235 725 239.393398282202 714.393398282202 250 710 260.606601717798 714.393398282202"
        style="fill:#000000;fill-opacity:0;stroke:#ff0000" />
    <polygon
        points="260 725 257.071067811865 732.071067811865 250 735 242.928932188135 732.071067811865 240 725 242.928932188135 717.928932188135 250 715 257.071067811865 717.928932188135"
        style="fill:#000000;fill-opacity:0;stroke:#ff0000" />
    <polygon
        points="255 725 253.535533905933 728.535533905933 250 730 246.464466094067 728.535533905933 245 725 246.464466094067 721.464466094067 250 720 253.535533905933 721.464466094067"
        style="fill:#000000;fill-opacity:0;stroke:#ff0000" />

    <polygon
        points="255 105 253.535533905933 108.535533905933 250 110 246.464466094067 108.535533905933 245 105 246.464466094067 101.464466094067 250 100 253.535533905933 101.464466094067" />
    <polygon
        points="255 125 253.535533905933 128.535533905933 250 130 246.464466094067 128.535533905933 245 125 246.464466094067 121.464466094067 250 120 253.535533905933 121.464466094067" />
    <polygon
        points="255 145 253.535533905933 148.535533905933 250 150 246.464466094067 148.535533905933 245 145 246.464466094067 141.464466094067 250 140 253.535533905933 141.464466094067" />
    <polygon
        points="235 125 233.535533905933 128.535533905933 230 130 226.464466094067 128.535533905933 225 125 226.464466094067 121.464466094067 230 120 233.535533905933 121.464466094067" />
    <polygon
        points="275 125 273.535533905933 128.535533905933 270 130 266.464466094067 128.535533905933 265 125 266.464466094067 121.464466094067 270 120 273.535533905933 121.464466094067" />

    <polygon
        points="255 705 253.535533905933 708.535533905933 250 710 246.464466094067 708.535533905933 245 705 246.464466094067 701.464466094067 250 700 253.535533905933 701.464466094067" />
    <polygon
        points="255 725 253.535533905933 728.535533905933 250 730 246.464466094067 728.535533905933 245 725 246.464466094067 721.464466094067 250 720 253.535533905933 721.464466094067" />
    <polygon
        points="255 745 253.535533905933 748.535533905933 250 750 246.464466094067 748.535533905933 245 745 246.464466094067 741.464466094067 250 740 253.535533905933 741.464466094067" />
    <polygon
        points="235 725 233.535533905933 728.535533905933 230 730 226.464466094067 728.535533905933 225 725 226.464466094067 721.464466094067 230 720 233.535533905933 721.464466094067" />
    <polygon
        points="275 725 273.535533905933 728.535533905933 270 730 266.464466094067 728.535533905933 265 725 266.464466094067 721.464466094067 270 720 273.535533905933 721.464466094067" />
</svg>