
<svg width="500" height="650" xmlns="http://www.w3.org/2000/svg" xmlns:xlink="http://www.w3.org/1999/xlink">
   <path
      d="M 150 200 A 125 125 0 0 0 25.349609 321 A 25 25 0 0 0 25 325 A 25 25 0 0 0 50 350 A 25 25 0 0 0 75 325 A 75 75 0 0 1 150 250 A 75 75 0 0 1 225 325 A 25 25 0 0 0 225.34961 329 A 125 125 0 0 0 350 450 A 125 125 0 0 0 474.65039 329 A 25 25 0 0 0 475 325 A 25 25 0 0 0 450 300 A 25 25 0 0 0 425 325 A 75 75 0 0 1 350 400 A 75 75 0 0 1 275 325 A 25 25 0 0 0 274.95703 323.59766 A 125 125 0 0 0 150 200 z " />
</svg>