<svg width="500" height="650" xmlns="http://www.w3.org/2000/svg" xmlns:xlink="http://www.w3.org/1999/xlink">
   <path
      d="M 450 100 A 25 25 0 0 0 425 125 L 425 325 A 175 175 0 0 1 250 500 L 50 500 A 25 25 0 0 0 25 525 A 25 25 0 0 0 50 550 L 250 550 A 225 225 0 0 0 475 325 L 475 125 A 25 25 0 0 0 450 100 z " />
   <path
      d="M 50 100 A 25 25 0 0 0 25 125 L 25 325 A 225 225 0 0 0 250 550 A 225 225 0 0 0 475 325 L 475 125 A 25 25 0 0 0 450 100 A 25 25 0 0 0 425 125 L 425 325 A 175 175 0 0 1 250 500 A 175 175 0 0 1 75 325 L 75 125 A 25 25 0 0 0 50 100 z " />
   <path
      d="M 50 100 A 25 25 0 0 0 25 125 L 25 325 A 225 225 0 0 0 250 550 L 450 550 A 25 25 0 0 0 475 525 A 25 25 0 0 0 450 500 L 250 500 A 175 175 0 0 1 75 325 L 75 125 A 25 25 0 0 0 50 100 z " />
   <path
      d="M 50 100 A 25 25 0 0 0 25 125 A 25 25 0 0 0 50 150 L 250 150 A 175 175 0 0 1 425 325 A 175 175 0 0 1 250 500 L 50 500 A 25 25 0 0 0 25 525 A 25 25 0 0 0 50 550 L 250 550 A 225 225 0 0 0 475 325 A 225 225 0 0 0 250 100 L 50 100 z " />
   <path
      d="M 250 100 A 225 225 0 0 0 25 325 A 225 225 0 0 0 250 550 A 225 225 0 0 0 475 325 A 225 225 0 0 0 250 100 z M 250 150 A 175 175 0 0 1 425 325 A 175 175 0 0 1 250 500 A 175 175 0 0 1 75 325 A 175 175 0 0 1 250 150 z " />
   <path
      d="M 250 100 A 225 225 0 0 0 25 325 A 225 225 0 0 0 250 550 L 450 550 A 25 25 0 0 0 475 525 A 25 25 0 0 0 450 500 L 250 500 A 175 175 0 0 1 75 325 A 175 175 0 0 1 250 150 L 450 150 A 25 25 0 0 0 475 125 A 25 25 0 0 0 450 100 L 250 100 z " />
   <path
      d="M 50 100 A 25 25 0 0 0 25 125 A 25 25 0 0 0 50 150 L 250 150 A 175 175 0 0 1 425 325 L 425 525 A 25 25 0 0 0 450 550 A 25 25 0 0 0 475 525 L 475 325 A 225 225 0 0 0 250 100 L 50 100 z " />
   <path
      d="M 250 100 A 225 225 0 0 0 25 325 L 25 525 A 25 25 0 0 0 50 550 A 25 25 0 0 0 75 525 L 75 325 A 175 175 0 0 1 250 150 A 175 175 0 0 1 425 325 L 425 525 A 25 25 0 0 0 450 550 A 25 25 0 0 0 475 525 L 475 325 A 225 225 0 0 0 250 100 z " />
   <path
      d="M 250 100 A 225 225 0 0 0 25 325 L 25 525 A 25 25 0 0 0 50 550 A 25 25 0 0 0 75 525 L 75 325 A 175 175 0 0 1 250 150 L 450 150 A 25 25 0 0 0 475 125 A 25 25 0 0 0 450 100 L 250 100 z " />
</svg>