<svg xmlns="http://www.w3.org/2000/svg" width="500" height="650">
    <path fill="none" stroke="red"
        d="M150 200A125 125 0 0 0 25.35 321a25 25 0 0 0-.35 4 25 25 0 0 0 25 25 25 25 0 0 0 25-25 75 75 0 0 1 75-75 75 75 0 0 1 75 75 25 25 0 0 0 .35 4A125 125 0 0 0 350 450a125 125 0 0 0 124.65-121 25 25 0 0 0 .35-4 25 25 0 0 0-25-25 25 25 0 0 0-25 25 75 75 0 0 1-75 75 75 75 0 0 1-75-75 25 25 0 0 0-.043-1.402A125 125 0 0 0 150 200m0-200a25 25 0 0 0-25 25 25 25 0 0 0 25 25 75 75 0 0 1 75 75v100a125 125 0 0 0 50.146 100A125 125 0 0 0 225 425v100a75 75 0 0 1-75 75 25 25 0 0 0-25 25 25 25 0 0 0 25 25 125 125 0 0 0 125-125V425a75 75 0 0 1 75-75 25 25 0 0 0 25-25 25 25 0 0 0-.107-2.307A25 25 0 0 0 350 300a75 75 0 0 1-75-75V125A125 125 0 0 0 150 0m100 0a25 25 0 0 0-25 25v600a25 25 0 0 0 25 25 25 25 0 0 0 25-25V25a25 25 0 0 0-25-25m100 0a125 125 0 0 0-125 125v100a75 75 0 0 1-75 75 25 25 0 0 0-25 25 25 25 0 0 0 25 25 75 75 0 0 1 75 75v100a125 125 0 0 0 125 125 25 25 0 0 0 25-25 25 25 0 0 0-25-25 75 75 0 0 1-75-75V425a125 125 0 0 0-50.09-100.04A125 125 0 0 0 275 225V125a75 75 0 0 1 75-75 25 25 0 0 0 25-25 25 25 0 0 0-25-25M50 100a25 25 0 0 0-17.678 7.322A25 25 0 0 0 25 125v200a225 225 0 0 0 225 225h200a25 25 0 0 0 17.678-7.322A25 25 0 0 0 475 525a25 25 0 0 0-.244-3.422l-.047-.31a25 25 0 0 0-.686-3.153l-.072-.258a25 25 0 0 0-1.197-3.205l-.05-.105a25 25 0 0 0-1.6-2.93l-.172-.265a25 25 0 0 0-1.957-2.616l-.135-.162a25 25 0 0 0-1.162-1.252l-400-400-.272-.181a25 25 0 0 0-7.664-5.121 25 25 0 0 0-.472-.176A25 25 0 0 0 50 100m25 85.355L389.645 500H250A175 175 0 0 1 75 325ZM50 100a25 25 0 0 0-17.678 7.322A25 25 0 0 0 25 125a25 25 0 0 0 7.322 17.678L145.795 256.15A125 125 0 0 0 125 325a125 125 0 0 0 125 125 125 125 0 0 0 68.85-20.795l35.826 35.826A175 175 0 0 1 250 500H50a25 25 0 0 0-25 25 25 25 0 0 0 25 25h200a225 225 0 0 0 140.105-49.54l42.217 42.218h.09A25 25 0 0 0 450 550a25 25 0 0 0 17.588-7.322h.09v-.09A25 25 0 0 0 475 525a25 25 0 0 0-7.322-17.678l-42.217-42.217A225 225 0 0 0 475 325a225 225 0 0 0-225-225Zm60.355 50H250a175 175 0 0 1 175 175 175 175 0 0 1-34.969 104.676l-35.826-35.826A125 125 0 0 0 375 325a125 125 0 0 0-125-125 125 125 0 0 0-68.85 20.795ZM250 250a75 75 0 0 1 75 75 75 75 0 0 1-7.535 32.11l-99.574-99.575A75 75 0 0 1 250 250m-67.465 42.89 99.574 99.575A75 75 0 0 1 250 400a75 75 0 0 1-75-75 75 75 0 0 1 7.535-32.11M50 100a25 25 0 0 0-17.678 7.322A25 25 0 0 0 25 125a25 25 0 0 0 7.322 17.678l400 400A25 25 0 0 0 450 550a25 25 0 0 0 17.678-7.322A25 25 0 0 0 475 525V325a225 225 0 0 0-225-225Zm60.355 50H250a175 175 0 0 1 175 175v139.645ZM50 100a25 25 0 0 0-17.588 7.322h-.09v.09A25 25 0 0 0 25 125a25 25 0 0 0 7.322 17.588v.09l42.217 42.216A225 225 0 0 0 25 325v200a25 25 0 0 0 25 25 25 25 0 0 0 25-25V325a175 175 0 0 1 34.969-104.676l322.353 322.354A25 25 0 0 0 450 550a25 25 0 0 0 17.678-7.322A25 25 0 0 0 475 525V325a225 225 0 0 0-225-225 225 225 0 0 0-140.105 49.54l-42.217-42.218A25 25 0 0 0 50 100m200 50a175 175 0 0 1 175 175v139.645L145.324 184.969A175 175 0 0 1 250 150M50 100a25 25 0 0 0-25 25v200a225 225 0 0 0 225 225 225 225 0 0 0 225-225V125a25 25 0 0 0-25-25 25 25 0 0 0-25 25v200a175 175 0 0 1-175 175A175 175 0 0 1 75 325V125a25 25 0 0 0-25-25m0 0a25 25 0 0 0-25 25v200a225 225 0 0 0 225 225h200a25 25 0 0 0 25-25 25 25 0 0 0-25-25H250A175 175 0 0 1 75 325V125a25 25 0 0 0-25-25m200 0A225 225 0 0 0 25 325a225 225 0 0 0 225 225 225 225 0 0 0 225-225 225 225 0 0 0-225-225m0 50a175 175 0 0 1 175 175 175 175 0 0 1-175 175A175 175 0 0 1 75 325a175 175 0 0 1 175-175M50 100a25 25 0 0 0-25 25 25 25 0 0 0 25 25h200a175 175 0 0 1 175 175 175 175 0 0 1-175 175H50a25 25 0 0 0-25 25 25 25 0 0 0 25 25h200a225 225 0 0 0 225-225 225 225 0 0 0-225-225Zm200 0A225 225 0 0 0 25 325a225 225 0 0 0 225 225h200a25 25 0 0 0 25-25 25 25 0 0 0-25-25H250A175 175 0 0 1 75 325a175 175 0 0 1 175-175h200a25 25 0 0 0 25-25 25 25 0 0 0-25-25zm-200 0a25 25 0 0 0-17.588 7.322h-.09v.09A25 25 0 0 0 25 125a25 25 0 0 0 7.322 17.588v.09l42.217 42.216A225 225 0 0 0 25 325v200a25 25 0 0 0 25 25 25 25 0 0 0 25-25V325a175 175 0 0 1 34.969-104.676l322.353 322.354h.09A25 25 0 0 0 450 550a25 25 0 0 0 17.588-7.322h.09v-.09A25 25 0 0 0 475 525a25 25 0 0 0-7.322-17.678L145.324 184.97A175 175 0 0 1 250 150h200a25 25 0 0 0 25-25 25 25 0 0 0-25-25H250a225 225 0 0 0-140.105 49.54l-42.217-42.218A25 25 0 0 0 50 100m200 0A225 225 0 0 0 25 325v200a25 25 0 0 0 25 25 25 25 0 0 0 25-25V325a175 175 0 0 1 175-175h200a25 25 0 0 0 25-25 25 25 0 0 0-25-25zm-200 0a25 25 0 0 0-17.588 7.322h-.09v.09A25 25 0 0 0 25 125a25 25 0 0 0 7.322 17.588v.09l42.217 42.216A225 225 0 0 0 25 325a225 225 0 0 0 225 225 225 225 0 0 0 140.105-49.54l42.217 42.218h.09A25 25 0 0 0 450 550a25 25 0 0 0 17.588-7.322h.09v-.09A25 25 0 0 0 475 525a25 25 0 0 0-7.322-17.678l-42.217-42.217A225 225 0 0 0 475 325a225 225 0 0 0-225-225 225 225 0 0 0-140.105 49.54l-42.217-42.218A25 25 0 0 0 50 100m200 50a175 175 0 0 1 175 175 175 175 0 0 1-34.969 104.676L145.324 184.969A175 175 0 0 1 250 150m-140.031 70.324 244.707 244.707A175 175 0 0 1 250 500 175 175 0 0 1 75 325a175 175 0 0 1 34.969-104.676M450 100a25 25 0 0 0-25 25v200a175 175 0 0 1-175 175H50a25 25 0 0 0-25 25 25 25 0 0 0 25 25h200a225 225 0 0 0 225-225V125a25 25 0 0 0-25-25m-400 0a25 25 0 0 0-17.678 7.322A25 25 0 0 0 25 125v200a225 225 0 0 0 225 225h200a25 25 0 0 0 17.678-7.322A25 25 0 0 0 475 525a25 25 0 0 0-.244-3.422l-.047-.31a25 25 0 0 0-.686-3.153l-.072-.258a25 25 0 0 0-1.197-3.205l-.05-.105a25 25 0 0 0-1.6-2.93l-.172-.265a25 25 0 0 0-1.957-2.616l-.135-.162a25 25 0 0 0-1.162-1.252L354.205 393.85A125 125 0 0 0 375 325a125 125 0 0 0-125-125 125 125 0 0 0-68.85 20.795L67.678 107.322l-.272-.181a25 25 0 0 0-7.664-5.121 25 25 0 0 0-.472-.176A25 25 0 0 0 50 100m25 85.355 70.795 70.795A125 125 0 0 0 125 325a125 125 0 0 0 125 125 125 125 0 0 0 68.85-20.795L389.645 500H250A175 175 0 0 1 75 325ZM250 250a75 75 0 0 1 75 75 75 75 0 0 1-7.535 32.11l-99.574-99.575A75 75 0 0 1 250 250m-67.465 42.89 99.574 99.575A75 75 0 0 1 250 400a75 75 0 0 1-75-75 75 75 0 0 1 7.535-32.11M50 100a25 25 0 0 0-25 25 25 25 0 0 0 25 25h200a175 175 0 0 1 175 175v200a25 25 0 0 0 25 25 25 25 0 0 0 25-25V325a225 225 0 0 0-225-225Zm0 0a25 25 0 0 0-17.588 7.322h-.09v.09A25 25 0 0 0 25 125a25 25 0 0 0 7.322 17.588v.09L354.676 465.03A175 175 0 0 1 250 500H50a25 25 0 0 0-25 25 25 25 0 0 0 25 25h200a225 225 0 0 0 140.105-49.54l42.217 42.218h.09A25 25 0 0 0 450 550a25 25 0 0 0 17.588-7.322h.09v-.09A25 25 0 0 0 475 525a25 25 0 0 0-7.322-17.678l-42.217-42.217A225 225 0 0 0 475 325V125a25 25 0 0 0-25-25 25 25 0 0 0-25 25v200a175 175 0 0 1-34.969 104.676L67.678 107.322A25 25 0 0 0 50 100m200 0A225 225 0 0 0 25 325v200a25 25 0 0 0 25 25 25 25 0 0 0 25-25V325a175 175 0 0 1 175-175 175 175 0 0 1 175 175v200a25 25 0 0 0 25 25 25 25 0 0 0 25-25V325a225 225 0 0 0-225-225m-200 0a25 25 0 0 0-17.678 7.322A25 25 0 0 0 25 125v200a225 225 0 0 0 225 225 225 225 0 0 0 140.105-49.54l42.217 42.218h.09A25 25 0 0 0 450 550a25 25 0 0 0 17.588-7.322h.09v-.09A25 25 0 0 0 475 525a25 25 0 0 0-7.322-17.678l-42.217-42.217A225 225 0 0 0 475 325V125a25 25 0 0 0-25-25 25 25 0 0 0-25 25v200a175 175 0 0 1-34.969 104.676L67.678 107.322l-.272-.181a25 25 0 0 0-7.664-5.121 25 25 0 0 0-.472-.176A25 25 0 0 0 50 100m25 85.355 279.676 279.676A175 175 0 0 1 250 500 175 175 0 0 1 75 325ZM50 100a25 25 0 0 0-17.678 7.322A25 25 0 0 0 25 125a25 25 0 0 0 7.322 17.678L354.676 465.03A175 175 0 0 1 250 500H50a25 25 0 0 0-25 25 25 25 0 0 0 25 25h200a225 225 0 0 0 140.105-49.54l42.217 42.218h.09A25 25 0 0 0 450 550a25 25 0 0 0 17.588-7.322h.09v-.09A25 25 0 0 0 475 525a25 25 0 0 0-7.322-17.678l-42.217-42.217A225 225 0 0 0 475 325a225 225 0 0 0-225-225Zm60.355 50H250a175 175 0 0 1 175 175 175 175 0 0 1-34.969 104.676ZM50 100a25 25 0 0 0-17.588 7.322h-.09v.09A25 25 0 0 0 25 125a25 25 0 0 0 7.322 17.588v.09l42.217 42.216A225 225 0 0 0 25 325a225 225 0 0 0 225 225h200a25 25 0 0 0 17.678-7.322A25 25 0 0 0 475 525a25 25 0 0 0-.244-3.422l-.047-.31a25 25 0 0 0-.686-3.153l-.072-.258a25 25 0 0 0-1.197-3.205l-.05-.105a25 25 0 0 0-1.6-2.93l-.172-.265a25 25 0 0 0-1.957-2.616l-.135-.162a25 25 0 0 0-1.162-1.252L145.324 184.97A175 175 0 0 1 250 150h200a25 25 0 0 0 25-25 25 25 0 0 0-25-25H250a225 225 0 0 0-140.105 49.54l-42.217-42.218A25 25 0 0 0 50 100m59.969 120.324L389.645 500H250A175 175 0 0 1 75 325a175 175 0 0 1 34.969-104.676M250 100a25 25 0 0 0-25 25 25 25 0 0 0 25 25h200a25 25 0 0 0 25-25 25 25 0 0 0-25-25zM50 500a25 25 0 0 0-25 25 25 25 0 0 0 25 25h400a25 25 0 0 0 25-25 25 25 0 0 0-25-25zm0-400a25 25 0 0 0-25 25 25 25 0 0 0 25 25h400a25 25 0 0 0 25-25 25 25 0 0 0-25-25zM150 0a25 25 0 0 0-25 25 25 25 0 0 0 25 25h100a75 75 0 0 1 75 75v400a75 75 0 0 1-75 75H150a25 25 0 0 0-25 25 25 25 0 0 0 25 25h100a125 125 0 0 0 125-125V125A125 125 0 0 0 250 0ZM50 100a25 25 0 0 0-17.588 7.322h-.09v.09A25 25 0 0 0 25 125a25 25 0 0 0 7.322 17.588v.09l400 400h.09A25 25 0 0 0 450 550a25 25 0 0 0 17.588-7.322h.09v-.09A25 25 0 0 0 475 525a25 25 0 0 0-7.322-17.678l-400-400A25 25 0 0 0 50 100M250 0a125 125 0 0 0-125 125v400a125 125 0 0 0 125 125h100a25 25 0 0 0 25-25 25 25 0 0 0-25-25H250a75 75 0 0 1-75-75V125a75 75 0 0 1 75-75h100a25 25 0 0 0 25-25 25 25 0 0 0-25-25ZM50 100a25 25 0 0 0-17.678 7.322A25 25 0 0 0 25 125v200a225 225 0 0 0 225 225h200a25 25 0 0 0 17.678-7.322A25 25 0 0 0 475 525a25 25 0 0 0-.244-3.422l-.047-.31a25 25 0 0 0-.686-3.153l-.072-.258a25 25 0 0 0-1.197-3.205l-.05-.105a25 25 0 0 0-1.6-2.93l-.172-.265a25 25 0 0 0-1.957-2.616l-.135-.162a25 25 0 0 0-1.162-1.252l-400-400-.272-.181a25 25 0 0 0-7.664-5.121 25 25 0 0 0-.472-.176A25 25 0 0 0 50 100m25 85.355L389.645 500H250A175 175 0 0 1 75 325ZM50 100a25 25 0 0 0-17.678 7.322A25 25 0 0 0 25 125a25 25 0 0 0 7.322 17.678L145.795 256.15A125 125 0 0 0 125 325a125 125 0 0 0 125 125 125 125 0 0 0 68.85-20.795l35.826 35.826A175 175 0 0 1 250 500H50a25 25 0 0 0-25 25 25 25 0 0 0 25 25h200a225 225 0 0 0 140.105-49.54l42.217 42.218h.09A25 25 0 0 0 450 550a25 25 0 0 0 17.588-7.322h.09v-.09A25 25 0 0 0 475 525a25 25 0 0 0-7.322-17.678l-42.217-42.217A225 225 0 0 0 475 325a225 225 0 0 0-225-225Zm60.355 50H250a175 175 0 0 1 175 175 175 175 0 0 1-34.969 104.676l-35.826-35.826A125 125 0 0 0 375 325a125 125 0 0 0-125-125 125 125 0 0 0-68.85 20.795ZM250 250a75 75 0 0 1 75 75 75 75 0 0 1-7.535 32.11l-99.574-99.575A75 75 0 0 1 250 250m-67.465 42.89 99.574 99.575A75 75 0 0 1 250 400a75 75 0 0 1-75-75 75 75 0 0 1 7.535-32.11M50 100a25 25 0 0 0-17.678 7.322A25 25 0 0 0 25 125a25 25 0 0 0 7.322 17.678l400 400A25 25 0 0 0 450 550a25 25 0 0 0 17.678-7.322A25 25 0 0 0 475 525V325a225 225 0 0 0-225-225Zm60.355 50H250a175 175 0 0 1 175 175v139.645ZM50 100a25 25 0 0 0-17.588 7.322h-.09v.09A25 25 0 0 0 25 125a25 25 0 0 0 7.322 17.588v.09l42.217 42.216A225 225 0 0 0 25 325v200a25 25 0 0 0 25 25 25 25 0 0 0 25-25V325a175 175 0 0 1 34.969-104.676l322.353 322.354A25 25 0 0 0 450 550a25 25 0 0 0 17.678-7.322A25 25 0 0 0 475 525V325a225 225 0 0 0-225-225 225 225 0 0 0-140.105 49.54l-42.217-42.218A25 25 0 0 0 50 100m200 50a175 175 0 0 1 175 175v139.645L145.324 184.969A175 175 0 0 1 250 150M50 100a25 25 0 0 0-25 25v200a225 225 0 0 0 225 225 225 225 0 0 0 225-225V125a25 25 0 0 0-25-25 25 25 0 0 0-25 25v200a175 175 0 0 1-175 175A175 175 0 0 1 75 325V125a25 25 0 0 0-25-25m0 0a25 25 0 0 0-25 25v200a225 225 0 0 0 225 225h200a25 25 0 0 0 25-25 25 25 0 0 0-25-25H250A175 175 0 0 1 75 325V125a25 25 0 0 0-25-25m200 0A225 225 0 0 0 25 325a225 225 0 0 0 225 225 225 225 0 0 0 225-225 225 225 0 0 0-225-225m0 50a175 175 0 0 1 175 175 175 175 0 0 1-175 175A175 175 0 0 1 75 325a175 175 0 0 1 175-175M50 100a25 25 0 0 0-25 25 25 25 0 0 0 25 25h200a175 175 0 0 1 175 175 175 175 0 0 1-175 175H50a25 25 0 0 0-25 25 25 25 0 0 0 25 25h200a225 225 0 0 0 225-225 225 225 0 0 0-225-225Zm200 0A225 225 0 0 0 25 325a225 225 0 0 0 225 225h200a25 25 0 0 0 25-25 25 25 0 0 0-25-25H250A175 175 0 0 1 75 325a175 175 0 0 1 175-175h200a25 25 0 0 0 25-25 25 25 0 0 0-25-25zm-200 0a25 25 0 0 0-17.588 7.322h-.09v.09A25 25 0 0 0 25 125a25 25 0 0 0 7.322 17.588v.09l42.217 42.216A225 225 0 0 0 25 325v200a25 25 0 0 0 25 25 25 25 0 0 0 25-25V325a175 175 0 0 1 34.969-104.676l322.353 322.354h.09A25 25 0 0 0 450 550a25 25 0 0 0 17.588-7.322h.09v-.09A25 25 0 0 0 475 525a25 25 0 0 0-7.322-17.678L145.324 184.97A175 175 0 0 1 250 150h200a25 25 0 0 0 25-25 25 25 0 0 0-25-25H250a225 225 0 0 0-140.105 49.54l-42.217-42.218A25 25 0 0 0 50 100m200 0A225 225 0 0 0 25 325v200a25 25 0 0 0 25 25 25 25 0 0 0 25-25V325a175 175 0 0 1 175-175h200a25 25 0 0 0 25-25 25 25 0 0 0-25-25zm-200 0a25 25 0 0 0-17.588 7.322h-.09v.09A25 25 0 0 0 25 125a25 25 0 0 0 7.322 17.588v.09l42.217 42.216A225 225 0 0 0 25 325a225 225 0 0 0 225 225 225 225 0 0 0 140.105-49.54l42.217 42.218h.09A25 25 0 0 0 450 550a25 25 0 0 0 17.588-7.322h.09v-.09A25 25 0 0 0 475 525a25 25 0 0 0-7.322-17.678l-42.217-42.217A225 225 0 0 0 475 325a225 225 0 0 0-225-225 225 225 0 0 0-140.105 49.54l-42.217-42.218A25 25 0 0 0 50 100m200 50a175 175 0 0 1 175 175 175 175 0 0 1-34.969 104.676L145.324 184.969A175 175 0 0 1 250 150m-140.031 70.324 244.707 244.707A175 175 0 0 1 250 500 175 175 0 0 1 75 325a175 175 0 0 1 34.969-104.676M450 100a25 25 0 0 0-25 25v200a175 175 0 0 1-175 175H50a25 25 0 0 0-25 25 25 25 0 0 0 25 25h200a225 225 0 0 0 225-225V125a25 25 0 0 0-25-25m-400 0a25 25 0 0 0-17.678 7.322A25 25 0 0 0 25 125v200a225 225 0 0 0 225 225h200a25 25 0 0 0 17.678-7.322A25 25 0 0 0 475 525a25 25 0 0 0-.244-3.422l-.047-.31a25 25 0 0 0-.686-3.153l-.072-.258a25 25 0 0 0-1.197-3.205l-.05-.105a25 25 0 0 0-1.6-2.93l-.172-.265a25 25 0 0 0-1.957-2.616l-.135-.162a25 25 0 0 0-1.162-1.252L354.205 393.85A125 125 0 0 0 375 325a125 125 0 0 0-125-125 125 125 0 0 0-68.85 20.795L67.678 107.322l-.272-.181a25 25 0 0 0-7.664-5.121 25 25 0 0 0-.472-.176A25 25 0 0 0 50 100m25 85.355 70.795 70.795A125 125 0 0 0 125 325a125 125 0 0 0 125 125 125 125 0 0 0 68.85-20.795L389.645 500H250A175 175 0 0 1 75 325ZM250 250a75 75 0 0 1 75 75 75 75 0 0 1-7.535 32.11l-99.574-99.575A75 75 0 0 1 250 250m-67.465 42.89 99.574 99.575A75 75 0 0 1 250 400a75 75 0 0 1-75-75 75 75 0 0 1 7.535-32.11M50 100a25 25 0 0 0-25 25 25 25 0 0 0 25 25h200a175 175 0 0 1 175 175v200a25 25 0 0 0 25 25 25 25 0 0 0 25-25V325a225 225 0 0 0-225-225Zm0 0a25 25 0 0 0-17.588 7.322h-.09v.09A25 25 0 0 0 25 125a25 25 0 0 0 7.322 17.588v.09L354.676 465.03A175 175 0 0 1 250 500H50a25 25 0 0 0-25 25 25 25 0 0 0 25 25h200a225 225 0 0 0 140.105-49.54l42.217 42.218h.09A25 25 0 0 0 450 550a25 25 0 0 0 17.588-7.322h.09v-.09A25 25 0 0 0 475 525a25 25 0 0 0-7.322-17.678l-42.217-42.217A225 225 0 0 0 475 325V125a25 25 0 0 0-25-25 25 25 0 0 0-25 25v200a175 175 0 0 1-34.969 104.676L67.678 107.322A25 25 0 0 0 50 100m200 0A225 225 0 0 0 25 325v200a25 25 0 0 0 25 25 25 25 0 0 0 25-25V325a175 175 0 0 1 175-175 175 175 0 0 1 175 175v200a25 25 0 0 0 25 25 25 25 0 0 0 25-25V325a225 225 0 0 0-225-225m-200 0a25 25 0 0 0-17.678 7.322A25 25 0 0 0 25 125v200a225 225 0 0 0 225 225 225 225 0 0 0 140.105-49.54l42.217 42.218h.09A25 25 0 0 0 450 550a25 25 0 0 0 17.588-7.322h.09v-.09A25 25 0 0 0 475 525a25 25 0 0 0-7.322-17.678l-42.217-42.217A225 225 0 0 0 475 325V125a25 25 0 0 0-25-25 25 25 0 0 0-25 25v200a175 175 0 0 1-34.969 104.676L67.678 107.322l-.272-.181a25 25 0 0 0-7.664-5.121 25 25 0 0 0-.472-.176A25 25 0 0 0 50 100m25 85.355 279.676 279.676A175 175 0 0 1 250 500 175 175 0 0 1 75 325ZM50 100a25 25 0 0 0-17.678 7.322A25 25 0 0 0 25 125a25 25 0 0 0 7.322 17.678L354.676 465.03A175 175 0 0 1 250 500H50a25 25 0 0 0-25 25 25 25 0 0 0 25 25h200a225 225 0 0 0 140.105-49.54l42.217 42.218h.09A25 25 0 0 0 450 550a25 25 0 0 0 17.588-7.322h.09v-.09A25 25 0 0 0 475 525a25 25 0 0 0-7.322-17.678l-42.217-42.217A225 225 0 0 0 475 325a225 225 0 0 0-225-225Zm60.355 50H250a175 175 0 0 1 175 175 175 175 0 0 1-34.969 104.676ZM50 100a25 25 0 0 0-17.588 7.322h-.09v.09A25 25 0 0 0 25 125a25 25 0 0 0 7.322 17.588v.09l42.217 42.216A225 225 0 0 0 25 325a225 225 0 0 0 225 225h200a25 25 0 0 0 17.678-7.322A25 25 0 0 0 475 525a25 25 0 0 0-.244-3.422l-.047-.31a25 25 0 0 0-.686-3.153l-.072-.258a25 25 0 0 0-1.197-3.205l-.05-.105a25 25 0 0 0-1.6-2.93l-.172-.265a25 25 0 0 0-1.957-2.616l-.135-.162a25 25 0 0 0-1.162-1.252L145.324 184.97A175 175 0 0 1 250 150h200a25 25 0 0 0 25-25 25 25 0 0 0-25-25H250a225 225 0 0 0-140.105 49.54l-42.217-42.218A25 25 0 0 0 50 100m59.969 120.324L389.645 500H250A175 175 0 0 1 75 325a175 175 0 0 1 34.969-104.676M50 100a25 25 0 0 0-17.588 7.322h-.09v.09A25 25 0 0 0 25 125a25 25 0 0 0 7.322 17.588v.09l42.217 42.216A225 225 0 0 0 25 325a225 225 0 0 0 225 225 225 225 0 0 0 140.105-49.54l42.217 42.218h.09A25 25 0 0 0 450 550a25 25 0 0 0 17.588-7.322h.09v-.09A25 25 0 0 0 475 525a25 25 0 0 0-7.322-17.678l-42.217-42.217A225 225 0 0 0 475 325a225 225 0 0 0-225-225 225 225 0 0 0-140.105 49.54l-42.217-42.218A25 25 0 0 0 50 100m200 50a175 175 0 0 1 175 175 175 175 0 0 1-34.969 104.676l-35.826-35.826A125 125 0 0 0 375 325a125 125 0 0 0-125-125 125 125 0 0 0-68.85 20.795l-35.826-35.826A175 175 0 0 1 250 150m-140.031 70.324 35.826 35.826A125 125 0 0 0 125 325a125 125 0 0 0 125 125 125 125 0 0 0 68.85-20.795l35.826 35.826A175 175 0 0 1 250 500 175 175 0 0 1 75 325a175 175 0 0 1 34.969-104.676M250 250a75 75 0 0 1 75 75 75 75 0 0 1-7.535 32.11l-99.574-99.575A75 75 0 0 1 250 250m-67.465 42.89 99.574 99.575A75 75 0 0 1 250 400a75 75 0 0 1-75-75 75 75 0 0 1 7.535-32.11M250 100a75 75 0 0 0-75 75 75 75 0 0 0 75 75 75 75 0 0 0 75-75 75 75 0 0 0-75-75m0 150a75 75 0 0 0-75 75 75 75 0 0 0 75 75 75 75 0 0 0 75-75 75 75 0 0 0-75-75m0 150a75 75 0 0 0-75 75 75 75 0 0 0 75 75 75 75 0 0 0 75-75 75 75 0 0 0-75-75M150 200a25 25 0 0 0-25 25 25 25 0 0 0 25 25h100a75 75 0 0 1 75 75 75 75 0 0 1-75 75H150a25 25 0 0 0-25 25 25 25 0 0 0 25 25h100a125 125 0 0 0 125-125 125 125 0 0 0-125-125Zm0 0a25 25 0 0 0-25 25 25 25 0 0 0 25 25h200a25 25 0 0 0 25-25 25 25 0 0 0-25-25zm0 200a25 25 0 0 0-25 25 25 25 0 0 0 25 25h200a25 25 0 0 0 25-25 25 25 0 0 0-25-25zm100-200a125 125 0 0 0-125 125 125 125 0 0 0 125 125h100a25 25 0 0 0 25-25 25 25 0 0 0-25-25H250a75 75 0 0 1-75-75 75 75 0 0 1 75-75h100a25 25 0 0 0 25-25 25 25 0 0 0-25-25zM50 100a25 25 0 0 0-17.588 7.322h-.09v.09A25 25 0 0 0 25 125a25 25 0 0 0 7.322 17.588v.09l150.059 150.058A75 75 0 0 0 175 325a75 75 0 0 0 75 75 75 75 0 0 0 32.264-7.38l150.058 150.058h.09A25 25 0 0 0 450 550a25 25 0 0 0 17.588-7.322h.09v-.09A25 25 0 0 0 475 525a25 25 0 0 0-7.322-17.678L317.619 357.264A75 75 0 0 0 325 325a75 75 0 0 0-75-75 75 75 0 0 0-32.264 7.38L67.678 107.323A25 25 0 0 0 50 100m275 225a75 75 0 0 0 75 75 75 75 0 0 0 75-75 75 75 0 0 0-75-75 75 75 0 0 0-75 75m-150 0a75 75 0 0 0-75-75 75 75 0 0 0-75 75 75 75 0 0 0 75 75 75 75 0 0 0 75-75M50 100a25 25 0 0 0-17.588 7.322h-.09v.09A25 25 0 0 0 25 125a25 25 0 0 0 7.322 17.588v.09l150.059 150.058A75 75 0 0 0 175 325a75 75 0 0 0 75 75 75 75 0 0 0 32.264-7.38l150.058 150.058h.09A25 25 0 0 0 450 550a25 25 0 0 0 17.588-7.322h.09v-.09A25 25 0 0 0 475 525a25 25 0 0 0-7.322-17.678L317.619 357.264A75 75 0 0 0 325 325a75 75 0 0 0-75-75 75 75 0 0 0-32.264 7.38L67.678 107.323A25 25 0 0 0 50 100m200 150a75 75 0 0 0 75-75 75 75 0 0 0-75-75 75 75 0 0 0-75 75 75 75 0 0 0 75 75m75 75a75 75 0 0 0 75 75 75 75 0 0 0 75-75 75 75 0 0 0-75-75 75 75 0 0 0-75 75m-75 75a75 75 0 0 0-75 75 75 75 0 0 0 75 75 75 75 0 0 0 75-75 75 75 0 0 0-75-75m-75-75a75 75 0 0 0-75-75 75 75 0 0 0-75 75 75 75 0 0 0 75 75 75 75 0 0 0 75-75m75-225A225 225 0 0 0 25 325v200a25 25 0 0 0 25 25 25 25 0 0 0 25-25V325a175 175 0 0 1 175-175h200a25 25 0 0 0 25-25 25 25 0 0 0-25-25zm0 100a125 125 0 0 0-125 125 125 125 0 0 0 125 125 125 125 0 0 0 125-125 125 125 0 0 0-125-125m0 50a75 75 0 0 1 75 75 75 75 0 0 1-75 75 75 75 0 0 1-75-75 75 75 0 0 1 75-75m0-150A225 225 0 0 0 25 325v200a25 25 0 0 0 25 25 25 25 0 0 0 25-25V325a175 175 0 0 1 175-175 175 175 0 0 1 175 175v200a25 25 0 0 0 25 25 25 25 0 0 0 25-25V325a225 225 0 0 0-225-225m0 100a125 125 0 0 0-125 125 125 125 0 0 0 125 125 125 125 0 0 0 125-125 125 125 0 0 0-125-125m0 50a75 75 0 0 1 75 75 75 75 0 0 1-75 75 75 75 0 0 1-75-75 75 75 0 0 1 75-75M50 100a25 25 0 0 0-25 25 25 25 0 0 0 25 25h200a175 175 0 0 1 175 175v200a25 25 0 0 0 25 25 25 25 0 0 0 25-25V325a225 225 0 0 0-225-225Zm200 100a125 125 0 0 0-125 125 125 125 0 0 0 125 125 125 125 0 0 0 125-125 125 125 0 0 0-125-125m0 50a75 75 0 0 1 75 75 75 75 0 0 1-75 75 75 75 0 0 1-75-75 75 75 0 0 1 75-75m0-150A225 225 0 0 0 25 325a225 225 0 0 0 225 225h200a25 25 0 0 0 25-25 25 25 0 0 0-25-25H250A175 175 0 0 1 75 325a175 175 0 0 1 175-175h200a25 25 0 0 0 25-25 25 25 0 0 0-25-25zm0 100a125 125 0 0 0-125 125 125 125 0 0 0 125 125 125 125 0 0 0 125-125 125 125 0 0 0-125-125m0 50a75 75 0 0 1 75 75 75 75 0 0 1-75 75 75 75 0 0 1-75-75 75 75 0 0 1 75-75m0-150A225 225 0 0 0 25 325a225 225 0 0 0 225 225 225 225 0 0 0 225-225 225 225 0 0 0-225-225m0 50a175 175 0 0 1 175 175 175 175 0 0 1-175 175A175 175 0 0 1 75 325a175 175 0 0 1 175-175m0 50a125 125 0 0 0-125 125 125 125 0 0 0 125 125 125 125 0 0 0 125-125 125 125 0 0 0-125-125m0 50a75 75 0 0 1 75 75 75 75 0 0 1-75 75 75 75 0 0 1-75-75 75 75 0 0 1 75-75M50 100a25 25 0 0 0-25 25 25 25 0 0 0 25 25h200a175 175 0 0 1 175 175 175 175 0 0 1-175 175H50a25 25 0 0 0-25 25 25 25 0 0 0 25 25h200a225 225 0 0 0 225-225 225 225 0 0 0-225-225Zm200 100a125 125 0 0 0-125 125 125 125 0 0 0 125 125 125 125 0 0 0 125-125 125 125 0 0 0-125-125m0 50a75 75 0 0 1 75 75 75 75 0 0 1-75 75 75 75 0 0 1-75-75 75 75 0 0 1 75-75M50 100a25 25 0 0 0-25 25v200a225 225 0 0 0 225 225h200a25 25 0 0 0 25-25 25 25 0 0 0-25-25H250A175 175 0 0 1 75 325V125a25 25 0 0 0-25-25m200 100a125 125 0 0 0-125 125 125 125 0 0 0 125 125 125 125 0 0 0 125-125 125 125 0 0 0-125-125m0 50a75 75 0 0 1 75 75 75 75 0 0 1-75 75 75 75 0 0 1-75-75 75 75 0 0 1 75-75M50 100a25 25 0 0 0-25 25v200a225 225 0 0 0 225 225 225 225 0 0 0 225-225V125a25 25 0 0 0-25-25 25 25 0 0 0-25 25v200a175 175 0 0 1-175 175A175 175 0 0 1 75 325V125a25 25 0 0 0-25-25m200 100a125 125 0 0 0-125 125 125 125 0 0 0 125 125 125 125 0 0 0 125-125 125 125 0 0 0-125-125m0 50a75 75 0 0 1 75 75 75 75 0 0 1-75 75 75 75 0 0 1-75-75 75 75 0 0 1 75-75m200-150a25 25 0 0 0-25 25v200a175 175 0 0 1-175 175H50a25 25 0 0 0-25 25 25 25 0 0 0 25 25h200a225 225 0 0 0 225-225V125a25 25 0 0 0-25-25M250 200a125 125 0 0 0-125 125 125 125 0 0 0 125 125 125 125 0 0 0 125-125 125 125 0 0 0-125-125m0 50a75 75 0 0 1 75 75 75 75 0 0 1-75 75 75 75 0 0 1-75-75 75 75 0 0 1 75-75m0-50a125 125 0 0 0-17.111 1.275 125 125 0 0 0-9.77 2.032 125 125 0 0 0-6.959 1.558 125 125 0 0 0-10.842 3.82 125 125 0 0 0-5.164 1.983 125 125 0 0 0-10.953 5.6 125 125 0 0 0-4.056 2.283 125 125 0 0 0-35.684 32.867l-.002.002a125 125 0 0 0-5.84 8.832 125 125 0 0 0-6.32 11.91 125 125 0 0 0-4.07 9.36 125 125 0 0 0-4.848 16.054 125 125 0 0 0-.39 1.953 125 125 0 0 0-.925 4.614 125 125 0 0 0-.992 6.998 125 125 0 0 0-.48 3.412A125 125 0 0 0 125 325a125 125 0 0 0 .594 10.447 125 125 0 0 0 .48 3.412 125 125 0 0 0 .992 6.998 125 125 0 0 0 .924 4.614 125 125 0 0 0 .39 1.953 125 125 0 0 0 4.849 16.055 125 125 0 0 0 4.07 9.359 125 125 0 0 0 6.32 11.91 125 125 0 0 0 5.84 8.832l.002.002a125 125 0 0 0 35.684 32.867 125 125 0 0 0 4.056 2.283 125 125 0 0 0 10.953 5.6 125 125 0 0 0 5.164 1.982 125 125 0 0 0 10.842 3.82 125 125 0 0 0 6.96 1.56 125 125 0 0 0 9.769 2.03A125 125 0 0 0 250 450a125 125 0 0 0 17.55-1.309 125 125 0 0 0 4.348-.88 125 125 0 0 0 12.877-2.885 125 125 0 0 0 4.97-1.719 125 125 0 0 0 11.607-4.453 125 125 0 0 0 4.867-2.447 125 125 0 0 0 10.713-6.024A125 125 0 0 0 349.898 400h-.296a125 125 0 0 0 6.779-10.252 125 125 0 0 0 7.096-13.371 125 125 0 0 0 3.08-7.186 125 125 0 0 0 5.062-16.767 125 125 0 0 0 1.313-6.547 125 125 0 0 0 1.322-9.326A125 125 0 0 0 375 325a125 125 0 0 0-.746-11.55 125 125 0 0 0-1.322-9.327 125 125 0 0 0-1.313-6.547 125 125 0 0 0-5.062-16.767 125 125 0 0 0-3.08-7.186 125 125 0 0 0-7.096-13.371A125 125 0 0 0 349.6 250h.297a125 125 0 0 0-32.964-30.281 125 125 0 0 0-10.715-6.026 125 125 0 0 0-4.867-2.447 125 125 0 0 0-11.608-4.453 125 125 0 0 0-4.969-1.719 125 125 0 0 0-12.877-2.885 125 125 0 0 0-4.347-.88A125 125 0 0 0 250 200m0 50a75 75 0 0 1 5.576.23 75 75 0 0 1 1.701.16 75 75 0 0 1 4.045.506 75 75 0 0 1 1.69.268 75 75 0 0 1 4.902 1.027l.59.131a75 75 0 0 1 5.38 1.604 75 75 0 0 1 1.454.523 75 75 0 0 1 3.842 1.498 75 75 0 0 1 1.668.721 75 75 0 0 1 4.052 1.982 75 75 0 0 1 .985.502 75 75 0 0 1 4.781 2.85 75 75 0 0 1 1.225.832 75 75 0 0 1 3.412 2.436 75 75 0 0 1 1.422 1.103 75 75 0 0 1 3.29 2.785 75 75 0 0 1 1.012.893 75 75 0 0 1 3.922 3.922 75 75 0 0 1 .893 1.011 75 75 0 0 1 2.785 3.291 75 75 0 0 1 1.103 1.422 75 75 0 0 1 2.436 3.412 75 75 0 0 1 .832 1.225 75 75 0 0 1 2.85 4.781 75 75 0 0 1 .502.985 75 75 0 0 1 1.982 4.052 75 75 0 0 1 .72 1.668 75 75 0 0 1 1.499 3.842 75 75 0 0 1 .523 1.453 75 75 0 0 1 1.604 5.381l.13.59a75 75 0 0 1 1.028 4.902 75 75 0 0 1 .268 1.69 75 75 0 0 1 .505 4.045 75 75 0 0 1 .16 1.7A75 75 0 0 1 325 325a75 75 0 0 1-.23 5.576 75 75 0 0 1-.16 1.701 75 75 0 0 1-.506 4.045 75 75 0 0 1-.268 1.69 75 75 0 0 1-1.027 4.902l-.131.59a75 75 0 0 1-1.604 5.38 75 75 0 0 1-.523 1.454 75 75 0 0 1-1.498 3.842 75 75 0 0 1-.721 1.668 75 75 0 0 1-1.982 4.052 75 75 0 0 1-.502.985 75 75 0 0 1-2.85 4.781 75 75 0 0 1-.832 1.225 75 75 0 0 1-2.436 3.412 75 75 0 0 1-1.103 1.422 75 75 0 0 1-2.785 3.29 75 75 0 0 1-.893 1.012 75 75 0 0 1-3.922 3.922 75 75 0 0 1-1.011.893 75 75 0 0 1-3.291 2.785 75 75 0 0 1-1.422 1.103 75 75 0 0 1-3.412 2.436 75 75 0 0 1-1.225.832 75 75 0 0 1-4.781 2.85 75 75 0 0 1-.985.502 75 75 0 0 1-4.052 1.982 75 75 0 0 1-1.668.72 75 75 0 0 1-3.842 1.499 75 75 0 0 1-1.453.523 75 75 0 0 1-5.381 1.604l-.59.13a75 75 0 0 1-4.902 1.028 75 75 0 0 1-1.69.268 75 75 0 0 1-4.045.505 75 75 0 0 1-1.7.16A75 75 0 0 1 250 400a75 75 0 0 1-7.967-.527l-.428-.07a75 75 0 0 1-6.748-1.11 75 75 0 0 1-.757-.203l-.012-.002a75 75 0 0 1-1.516-.406l-.035-.01a75 75 0 0 1-2.162-.58 75 75 0 0 1-1.236-.432 75 75 0 0 1-7.29-2.553 75 75 0 0 1-1.742-.61 75 75 0 0 1-2.216-1.032 75 75 0 0 1-2.336-1.088 75 75 0 0 1-6.778-4.26 75 75 0 0 1-2.228-1.4 75 75 0 0 1-.94-.59 75 75 0 0 1-2.94-2.059 75 75 0 0 1-10.737-10.738 75 75 0 0 1-2.059-2.94 75 75 0 0 1-.59-.94 75 75 0 0 1-1.4-2.228 75 75 0 0 1-4.26-6.777 75 75 0 0 1-1.088-2.336 75 75 0 0 1-1.033-2.217 75 75 0 0 1-.61-1.742 75 75 0 0 1-2.552-7.289 75 75 0 0 1-.432-1.236 75 75 0 0 1-.58-2.162l-.01-.036a75 75 0 0 1-.406-1.515l-.002-.012a75 75 0 0 1-.203-.758 75 75 0 0 1-1.11-6.748l-.07-.427A75 75 0 0 1 175 325a75 75 0 0 1 .527-7.967l.07-.428a75 75 0 0 1 1.11-6.748 75 75 0 0 1 .203-.757l.002-.012a75 75 0 0 1 .406-1.516l.01-.035a75 75 0 0 1 .58-2.162 75 75 0 0 1 .432-1.236 75 75 0 0 1 2.553-7.29 75 75 0 0 1 .61-1.742 75 75 0 0 1 1.032-2.216 75 75 0 0 1 1.088-2.336 75 75 0 0 1 4.26-6.778 75 75 0 0 1 1.4-2.228 75 75 0 0 1 .59-.94 75 75 0 0 1 2.059-2.94 75 75 0 0 1 10.738-10.737 75 75 0 0 1 2.94-2.059 75 75 0 0 1 .94-.59 75 75 0 0 1 2.228-1.4 75 75 0 0 1 6.777-4.26 75 75 0 0 1 2.336-1.088 75 75 0 0 1 2.217-1.033 75 75 0 0 1 1.742-.61 75 75 0 0 1 7.289-2.552 75 75 0 0 1 1.236-.432 75 75 0 0 1 2.162-.58l.036-.01a75 75 0 0 1 1.515-.406l.012-.002a75 75 0 0 1 .758-.203 75 75 0 0 1 6.748-1.11l.427-.07A75 75 0 0 1 250 250m200-150a25 25 0 0 0-17.678 7.322l-400 400A25 25 0 0 0 25 525a25 25 0 0 0 7.322 17.588v.09h.09A25 25 0 0 0 50 550a25 25 0 0 0 17.588-7.322h.09l400-400v-.09A25 25 0 0 0 475 125a25 25 0 0 0-7.322-17.588v-.09h-.09A25 25 0 0 0 450 100m-200 0a75 75 0 0 0-75 75 75 75 0 0 0 75 75 75 75 0 0 0 75-75 75 75 0 0 0-75-75m0 150a75 75 0 0 0-75 75 75 75 0 0 0 75 75 75 75 0 0 0 75-75 75 75 0 0 0-75-75m75 75a75 75 0 0 0 75 75 75 75 0 0 0 75-75 75 75 0 0 0-75-75 75 75 0 0 0-75 75m-75 75a75 75 0 0 0-75 75 75 75 0 0 0 75 75 75 75 0 0 0 75-75 75 75 0 0 0-75-75m-75-75a75 75 0 0 0-75-75 75 75 0 0 0-75 75 75 75 0 0 0 75 75 75 75 0 0 0 75-75m-25-25a25 25 0 0 0-25 25 25 25 0 0 0 25 25h200a25 25 0 0 0 25-25 25 25 0 0 0-25-25zm-50-50a75 75 0 0 0-75 75 75 75 0 0 0 75 75 75 75 0 0 0 75-75 75 75 0 0 0-75-75m75 75a75 75 0 0 0 75 75 75 75 0 0 0 75-75 75 75 0 0 0-75-75 75 75 0 0 0-75 75m150 0a75 75 0 0 0 75 75 75 75 0 0 0 75-75 75 75 0 0 0-75-75 75 75 0 0 0-75 75m-75-125a25 25 0 0 0-25 25v75h-75a25 25 0 0 0-25 25 25 25 0 0 0 25 25h75v75a25 25 0 0 0 25 25 25 25 0 0 0 25-25v-75h75a25 25 0 0 0 25-25 25 25 0 0 0-25-25h-75v-75a25 25 0 0 0-25-25m0-100a25 25 0 0 0-25 25v139.645l-57.322-57.323A25 25 0 0 0 150 200a25 25 0 0 0-17.588 7.322h-.09v.09A25 25 0 0 0 125 225a25 25 0 0 0 7.322 17.588v.09L214.645 325l-82.323 82.322A25 25 0 0 0 125 425a25 25 0 0 0 7.322 17.588v.09h.09A25 25 0 0 0 150 450a25 25 0 0 0 17.588-7.322h.09L225 385.355V525a25 25 0 0 0 25 25 25 25 0 0 0 25-25V385.355l57.322 57.323h.09A25 25 0 0 0 350 450a25 25 0 0 0 17.588-7.322h.09v-.09A25 25 0 0 0 375 425a25 25 0 0 0-7.322-17.678L285.355 325l82.323-82.322v-.09A25 25 0 0 0 375 225a25 25 0 0 0-7.322-17.588v-.09h-.09A25 25 0 0 0 350 200a25 25 0 0 0-17.678 7.322L275 264.645V125a25 25 0 0 0-25-25M150 0a25 25 0 0 0-25 25 25 25 0 0 0 25 25 75 75 0 0 1 75 75v400a75 75 0 0 1-75 75 25 25 0 0 0-25 25 25 25 0 0 0 25 25 125 125 0 0 0 125-125V125A125 125 0 0 0 150 0m200 0a125 125 0 0 0-125 125v400a125 125 0 0 0 125 125 25 25 0 0 0 25-25 25 25 0 0 0-25-25 75 75 0 0 1-75-75V125a75 75 0 0 1 75-75 25 25 0 0 0 25-25 25 25 0 0 0-25-25M250 100a75 75 0 0 0-75 75 75 75 0 0 0 75 75 75 75 0 0 0 75-75 75 75 0 0 0-75-75m-200 0a25 25 0 0 0-25 25 25 25 0 0 0 25 25h200a175 175 0 0 1 175 175 175 175 0 0 1-175 175H50a25 25 0 0 0-25 25 25 25 0 0 0 25 25h200a225 225 0 0 0 225-225 225 225 0 0 0-225-225Zm100 100a25 25 0 0 0-25 25 25 25 0 0 0 25 25h100a75 75 0 0 1 75 75 75 75 0 0 1-75 75H150a25 25 0 0 0-25 25 25 25 0 0 0 25 25h100a125 125 0 0 0 125-125 125 125 0 0 0-125-125Zm100 100a25 25 0 0 0-25 25 25 25 0 0 0 25 25 25 25 0 0 0 25-25 25 25 0 0 0-25-25m200-200a25 25 0 0 0-17.678 7.322l-400 400A25 25 0 0 0 25 525a25 25 0 0 0 7.322 17.588v.09h.09A25 25 0 0 0 50 550a25 25 0 0 0 17.588-7.322h.09l400-400v-.09A25 25 0 0 0 475 125a25 25 0 0 0-7.322-17.588v-.09h-.09A25 25 0 0 0 450 100m-311.416 44.125A75 75 0 0 0 90.9 165.9a75 75 0 0 0 0 106.067 75 75 0 0 0 106.067 0 75 75 0 0 0 0-106.067 75 75 0 0 0-58.383-21.775m212.13 212.133a75 75 0 0 0-47.68 21.775 75 75 0 0 0 0 106.067 75 75 0 0 0 106.066 0 75 75 0 0 0 0-106.067 75 75 0 0 0-58.385-21.775zM250 0a25 25 0 0 0-25 25v76.79a225 225 0 0 0-115.105 47.75l-42.217-42.218A25 25 0 0 0 50 100a25 25 0 0 0-17.588 7.322h-.09v.09A25 25 0 0 0 25 125a25 25 0 0 0 7.322 17.588v.09l42.217 42.217a225 225 0 0 0-49.283 136.543A25 25 0 0 0 25 325a25 25 0 0 0 25 25 25 25 0 0 0 25-25 175 175 0 0 1 34.969-104.676L225 335.355V500H50a25 25 0 0 0-25 25 25 25 0 0 0 25 25h175v75a25 25 0 0 0 25 25 25 25 0 0 0 25-25v-76.79a225 225 0 0 0 115.105-47.75l42.217 42.218h.09A25 25 0 0 0 450 550a25 25 0 0 0 17.588-7.322h.09v-.09A25 25 0 0 0 475 525a25 25 0 0 0-7.322-17.678l-42.217-42.217a225 225 0 0 0 49.283-136.543A225 225 0 0 0 475 325a25 25 0 0 0-25-25 25 25 0 0 0-25 25 175 175 0 0 1-34.969 104.676L275 314.645V150h175a25 25 0 0 0 25-25 25 25 0 0 0-25-25H275V25a25 25 0 0 0-25-25m-25 151.967v112.678l-79.676-79.676A175 175 0 0 1 225 151.967m50 233.388 79.676 79.676A175 175 0 0 1 275 498.033ZM250 0a25 25 0 0 0-25 25v76.79a225 225 0 0 0-115.105 47.75l-42.217-42.218A25 25 0 0 0 50 100a25 25 0 0 0-17.588 7.322h-.09v.09A25 25 0 0 0 25 125a25 25 0 0 0 7.322 17.588v.09l42.217 42.217A225 225 0 0 0 25 325a225 225 0 0 0 200 223.21V625a25 25 0 0 0 25 25 25 25 0 0 0 25-25v-75h175a25 25 0 0 0 17.678-7.322A25 25 0 0 0 475 525a25 25 0 0 0-.244-3.422l-.047-.31a25 25 0 0 0-.682-3.133l-.082-.293a25 25 0 0 0-1.191-3.19l-.05-.107a25 25 0 0 0-1.6-2.928l-.172-.265a25 25 0 0 0-1.957-2.616l-.135-.162a25 25 0 0 0-1.162-1.252L275 314.645V150h175a25 25 0 0 0 25-25 25 25 0 0 0-25-25H275V25a25 25 0 0 0-25-25m-25 151.967v112.678l-79.676-79.676A175 175 0 0 1 225 151.967m-115.031 68.357L225 335.355v162.678A175 175 0 0 1 75 325a175 175 0 0 1 34.969-104.676M275 385.355 389.645 500H275Zm-136.416-241.23A75 75 0 0 0 90.9 165.9a75 75 0 0 0 0 106.067 75 75 0 0 0 106.067 0 75 75 0 0 0 0-106.067 75 75 0 0 0-58.383-21.775m212.13 0a75 75 0 0 0-47.68 21.775 75 75 0 0 0 0 106.067 75 75 0 0 0 106.066 0 75 75 0 0 0 0-106.067 75 75 0 0 0-58.385-21.775zM250 100a75 75 0 0 0-75 75 75 75 0 0 0 75 75 75 75 0 0 0 75-75 75 75 0 0 0-75-75m0 300a75 75 0 0 0-75 75 75 75 0 0 0 75 75 75 75 0 0 0 75-75 75 75 0 0 0-75-75m0 200a25 25 0 0 0-25 25 25 25 0 0 0 25 25 25 25 0 0 0 25-25 25 25 0 0 0-25-25m0-50a25 25 0 0 0-25 25 25 25 0 0 0 25 25 25 25 0 0 0 25-25 25 25 0 0 0-25-25m0 0a25 25 0 0 0-25 25 25 25 0 0 0 25 25 25 25 0 0 0 25-25 25 25 0 0 0-25-25m0 50a25 25 0 0 0-25 25 25 25 0 0 0 25 25 25 25 0 0 0 25-25 25 25 0 0 0-25-25m0-600a25 25 0 0 0-25 25 25 25 0 0 0 25 25 25 25 0 0 0 25-25 25 25 0 0 0-25-25m0 50a25 25 0 0 0-25 25 25 25 0 0 0 25 25 25 25 0 0 0 25-25 25 25 0 0 0-25-25m0-50a25 25 0 0 0-25 25 25 25 0 0 0 25 25 25 25 0 0 0 25-25 25 25 0 0 0-25-25m0 50a25 25 0 0 0-25 25 25 25 0 0 0 25 25 25 25 0 0 0 25-25 25 25 0 0 0-25-25m0 550a25 25 0 0 0-25 25 25 25 0 0 0 25 25 25 25 0 0 0 25-25 25 25 0 0 0-25-25m0-50a25 25 0 0 0-25 25 25 25 0 0 0 25 25 25 25 0 0 0 25-25 25 25 0 0 0-25-25m0 0a25 25 0 0 0-25 25 25 25 0 0 0 25 25 25 25 0 0 0 25-25 25 25 0 0 0-25-25m0 50a25 25 0 0 0-25 25 25 25 0 0 0 25 25 25 25 0 0 0 25-25 25 25 0 0 0-25-25m0-600a25 25 0 0 0-25 25 25 25 0 0 0 25 25 25 25 0 0 0 25-25 25 25 0 0 0-25-25m0 50a25 25 0 0 0-25 25 25 25 0 0 0 25 25 25 25 0 0 0 25-25 25 25 0 0 0-25-25m0-50a25 25 0 0 0-25 25 25 25 0 0 0 25 25 25 25 0 0 0 25-25 25 25 0 0 0-25-25m0 50a25 25 0 0 0-25 25 25 25 0 0 0 25 25 25 25 0 0 0 25-25 25 25 0 0 0-25-25" />
</svg>