<svg xmlns="http://www.w3.org/2000/svg" width="350" height="350">
    <circle cx="175" cy="175" r="25" />
    <circle cx="325" cy="175" r="25" />
    <circle cx="281.06601717798213" cy="281.06601717798213" r="25" />
    <circle cx="175" cy="325" r="25" />
    <circle cx="68.93398282201788" cy="281.06601717798213" r="25" />
    <circle cx="25" cy="175.00000000000003" r="25" />
    <circle cx="68.93398282201785" cy="68.93398282201788" r="25" />
    <circle cx="174.99999999999997" cy="25" r="25" />
    <circle cx="281.0660171779821" cy="68.93398282201785" r="25" />
    <circle cx="275" cy="175" r="25" />
    <circle cx="245.71067811865476" cy="245.71067811865476" r="25" />
    <circle cx="175" cy="275" r="25" />
    <circle cx="104.28932188134526" cy="245.71067811865476" r="25" />
    <circle cx="75" cy="175" r="25" />
    <circle cx="104.28932188134523" cy="104.28932188134526" r="25" />
    <circle cx="174.99999999999997" cy="75" r="25" />
    <circle cx="245.71067811865476" cy="104.28932188134523" r="25" />
    <circle cx="225" cy="175" r="12.5" />
    <circle cx="210.35533905932738" cy="210.35533905932738" r="12.5" />
    <circle cx="175" cy="225" r="12.5" />
    <circle cx="139.64466094067262" cy="210.35533905932738" r="12.5" />
    <circle cx="125" cy="175" r="12.5" />
    <circle cx="139.64466094067262" cy="139.64466094067262" r="12.5" />
    <circle cx="175" cy="125" r="12.5" />
    <circle cx="210.35533905932738" cy="139.64466094067262" r="12.5" />
</svg>