<svg width="500" height="850" xmlns="http://www.w3.org/2000/svg">
    <path
        d="M 76.794922 300 L 55.144531 312.5 L 55.144531 337.5 L 141.74609 387.5 L 141.74609 400 L 76.794922 400 L 55.144531 412.5 L 55.144531 437.5 L 76.794922 450 L 141.74609 450 L 141.74609 462.50195 L 55.146484 512.5 L 55.146484 537.5 L 76.796875 550 L 163.39844 500 L 250 550 L 336.60156 500 L 423.20312 550 L 444.85352 537.5 L 444.85352 512.5 L 358.25391 462.50195 L 358.25391 450 L 423.20508 450 L 444.85547 437.5 L 444.85547 412.5 L 423.20508 400 L 358.25391 400 L 358.25391 387.5 L 444.85547 337.5 L 444.85547 312.5 L 423.20508 300 L 336.60352 350 L 250 300 L 163.39648 350 L 76.794922 300 z M 250 350 L 293.30078 375 L 314.95117 387.5 L 314.95117 400 L 185.04883 400 L 185.04883 387.5 L 206.69922 375 L 250 350 z M 185.04883 450 L 228.34961 450 L 228.34961 487.5 L 206.69922 475 L 185.04883 462.5 L 185.04883 450 z M 271.65039 450 L 314.95117 450 L 314.95117 462.5 L 293.30078 475 L 271.65039 487.5 L 271.65039 450 z " />
</svg>