<?xml version="1.0" encoding="UTF-8" standalone="no"?>
<svg width="500" height="850" version="1.1" id="svg2" sodipodi:docname="uni0024.svg"
    inkscape:version="1.4.3 (0d15f750, 2025-12-25)" xmlns:inkscape="http://www.inkscape.org/namespaces/inkscape"
    xmlns:sodipodi="http://sodipodi.sourceforge.net/DTD/sodipodi-0.dtd" xmlns="http://www.w3.org/2000/svg"
    xmlns:svg="http://www.w3.org/2000/svg">
    <defs id="defs2" />
    <sodipodi:namedview id="namedview2" pagecolor="#ffffff" bordercolor="#000000" borderopacity="0.25"
        inkscape:showpageshadow="2" inkscape:pageopacity="0.0" inkscape:pagecheckerboard="0"
        inkscape:deskcolor="#d1d1d1" inkscape:zoom="0.85870419" inkscape:cx="236.40271" inkscape:cy="298.12362"
        inkscape:window-width="930" inkscape:window-height="723" inkscape:window-x="0" inkscape:window-y="25"
        inkscape:window-maximized="0" inkscape:current-layer="svg2" />
    <path id="path7"
        d="M 76.794922 300 L 55.144531 312.5 L 55.144531 337.5 L 185.04883 412.5 L 185.04883 387.5 L 206.69922 375 L 76.794922 300 z M 423.20508 300 L 293.30078 375 L 314.95117 387.5 L 314.95117 412.5 L 444.85547 337.5 L 444.85547 312.5 L 423.20508 300 z M 185.04883 437.5 L 55.146484 512.5 L 55.146484 537.5 L 76.796875 550 L 206.69922 475 L 185.04883 462.5 L 185.04883 437.5 z M 314.95117 437.5 L 314.95117 462.5 L 293.30078 475 L 423.20312 550 L 444.85352 537.5 L 444.85352 512.5 L 314.95117 437.5 z " />
    <path d="m250 300-108.254 62.5v125L250 550l108.254-62.5v-125zm0 50 64.951 37.5v75L250 500l-64.951-37.5v-75z" />
</svg>