<svg width="500" height="850" xmlns="http://www.w3.org/2000/svg">
    <path
        d="m 250,200 -21.65039,12.5 v 25 L 250,250 271.65039,237.5 v -25 z m 0,100 -108.25391,62.5 v 125 L 250,550 358.25391,487.5 v -125 z m 0,50 64.95117,37.5 v 75 L 250,500 185.04883,462.5 v -75 z M 76.794922,400 55.144531,412.5 v 25 l 21.650391,12.5 21.65039,-12.5 v -25 z M 250,400 228.34961,412.5 v 25 L 250,450 271.65039,437.5 v -25 z m 173.20508,0 -21.65039,12.5 v 25 l 21.65039,12.5 21.65039,-12.5 v -25 z M 250,600 228.34961,612.5 v 25 L 250,650 271.65039,637.5 v -25 z" />
</svg>