<svg width="500" height="850" xmlns="http://www.w3.org/2000/svg">
    <path
        d="M -250 687.5 L -260.82617 693.75 L -260.82617 706.25 L -250 712.5 L -239.17383 706.25 L -239.17383 693.75 L -250 687.5 z M -250 712.5 L -260.82617 718.75 L -260.82617 731.25 L -250 737.5 L -239.17383 731.25 L -239.17383 718.75 L -250 712.5 z M -250 737.5 L -260.82617 743.75 L -260.82617 756.25 L -250 762.5 L -239.17383 756.25 L -239.17383 743.75 L -250 737.5 z M -275 712.5 L -285.82617 718.75 L -285.82617 731.25 L -275 737.5 L -264.17383 731.25 L -264.17383 718.75 L -275 712.5 z M -225 712.5 L -235.82617 718.75 L -235.82617 731.25 L -225 737.5 L -214.17383 731.25 L -214.17383 718.75 L -225 712.5 z " />
</svg>