<svg width="500" height="650" xmlns="http://www.w3.org/2000/svg">
    <path
        d="M 444.43945 100.63086 A 25 25 0 0 0 432.32031 108.07031 L 432.32031 107.32031 L 32.320312 507.32031 L 32.919922 507.32031 A 25 25 0 0 0 25 525 A 25 25 0 0 0 67.679688 541.91992 L 67.679688 542.67969 L 467.67969 142.67969 L 467.08008 142.67969 A 25 25 0 0 0 475 125 A 25 25 0 0 0 444.43945 100.63086 z M 432.32031 141.92969 L 432.91992 142.67969 L 432.32031 142.67969 L 432.32031 141.92969 z M 104.66797 158.88672 A 25 25 0 0 0 90.900391 165.90039 A 25 25 0 0 0 90.900391 201.25586 A 25 25 0 0 0 126.25586 201.25586 A 25 25 0 0 0 126.25586 165.90039 A 25 25 0 0 0 104.66797 158.88672 z M 387.50977 441.72852 A 25 25 0 0 0 373.74414 448.74414 A 25 25 0 0 0 373.74414 484.09961 A 25 25 0 0 0 409.09961 484.09961 A 25 25 0 0 0 409.09961 448.74414 A 25 25 0 0 0 387.50977 441.72852 z M 67.080078 507.33008 L 67.679688 507.33008 L 67.679688 508.08008 L 67.080078 507.33008 z " />
</svg>