<svg width="500" height="650" xmlns="http://www.w3.org/2000/svg" xmlns:svg="http://www.w3.org/2000/svg">
   <path
      d="M 50 100 A 25 25 0 0 0 25 125 A 25 25 0 0 0 50 150 L 250 150 A 175 175 0 0 1 425 325 L 425 525 A 25 25 0 0 0 450 550 A 25 25 0 0 0 475 525 L 475 325 A 225 225 0 0 0 250 100 L 50 100 z M 250 200 A 125 125 0 0 0 125 325 A 125 125 0 0 0 250 450 A 125 125 0 0 0 375 325 A 125 125 0 0 0 250 200 z M 250 250 A 75 75 0 0 1 325 325 A 75 75 0 0 1 250 400 A 75 75 0 0 1 175 325 A 75 75 0 0 1 250 250 z " />
</svg>