<svg width="500" height="650" xmlns="http://www.w3.org/2000/svg" xmlns:svg="http://www.w3.org/2000/svg">
   <path
      d="M 50 100 A 25 25 0 0 0 32.322266 107.32227 A 25 25 0 0 0 25 125 A 25 25 0 0 0 32.322266 142.67773 L 354.67578 465.03125 A 175 175 0 0 1 250 500 L 50 500 A 25 25 0 0 0 25 525 A 25 25 0 0 0 50 550 L 250 550 A 225 225 0 0 0 390.10547 500.46094 L 432.32227 542.67773 L 432.41211 542.67773 A 25 25 0 0 0 450 550 A 25 25 0 0 0 467.58789 542.67773 L 467.67773 542.67773 L 467.67773 542.58789 A 25 25 0 0 0 475 525 A 25 25 0 0 0 467.67773 507.32227 L 425.46094 465.10547 A 225 225 0 0 0 475 325 A 225 225 0 0 0 250 100 L 50 100 z M 110.35547 150 L 250 150 A 175 175 0 0 1 425 325 A 175 175 0 0 1 390.03125 429.67578 L 110.35547 150 z " />
</svg>