<svg width="500" height="650" xmlns="http://www.w3.org/2000/svg" xmlns:xlink="http://www.w3.org/1999/xlink">
   <path
      d="M 50 100 A 25 25 0 0 0 32.412109 107.32227 L 32.322266 107.32227 L 32.322266 107.41211 A 25 25 0 0 0 25 125 A 25 25 0 0 0 32.322266 142.58789 L 32.322266 142.67773 L 74.738281 185.09375 A 225 225 0 0 0 25 325 L 25 425 A 125 125 0 0 0 50.625 500 L 0 500 A 25 25 0 0 0 -25 525 A 25 25 0 0 0 0 550 L 150 550 A 25 25 0 0 0 175 525 A 25 25 0 0 0 150 500 A 75 75 0 0 1 75 425 L 75 325 A 175 175 0 0 1 77.154297 297.62305 A 175 175 0 0 1 110.2207 220.57617 L 381.91211 492.26758 A 75 75 0 0 1 350 500 A 25 25 0 0 0 325 525 A 25 25 0 0 0 350 550 L 450 550 L 500 550 A 25 25 0 0 0 525 525 A 25 25 0 0 0 500 500 L 460.35547 500 L 453.52344 493.16797 A 125 125 0 0 0 474.57031 429.37109 A 25 25 0 0 0 475 425 L 475 325 L 474.9707 323.77344 L 474.96875 323.75586 A 225 225 0 0 0 251.25586 100.0293 L 251.22656 100.02734 A 25 25 0 0 0 250 100 A 25 25 0 0 0 246.44141 100.25391 L 246.43945 100.25391 L 246.4375 100.25586 L 246.42969 100.25586 A 225 225 0 0 0 110.03125 149.67578 L 67.677734 107.32227 A 25 25 0 0 0 50 100 z M 250 150 A 175 175 0 0 1 425 325 L 425 425 A 75 75 0 0 1 417.26758 456.91211 L 145.6582 185.30273 A 175 175 0 0 1 250 150 z " />
</svg>