<svg width="500" height="650" xmlns="http://www.w3.org/2000/svg">
    <path
        d="M 250 100 A 25 25 0 0 0 225 125 A 25 25 0 0 0 250 150 A 25 25 0 0 0 275 125 A 25 25 0 0 0 250 100 z M 50 300 A 25 25 0 0 0 25 325 A 25 25 0 0 0 50 350 A 25 25 0 0 0 75 325 A 25 25 0 0 0 50 300 z M 250 300 A 25 25 0 0 0 226.22266 317.27539 A 25 25 0 0 0 225 325 A 25 25 0 0 0 250 350 A 25 25 0 0 0 275 325 A 25 25 0 0 0 250 300 z M 450 300 A 25 25 0 0 0 425 325 A 25 25 0 0 0 450 350 A 25 25 0 0 0 475 325 A 25 25 0 0 0 450 300 z M 250 500 A 25 25 0 0 0 225 525 A 25 25 0 0 0 250 550 A 25 25 0 0 0 275 525 A 25 25 0 0 0 250 500 z " />
    <path
        d="M 250 200 A 125 125 0 0 0 232.88867 201.27539 A 125 125 0 0 0 223.11914 203.30664 A 125 125 0 0 0 216.16016 204.86523 A 125 125 0 0 0 205.31836 208.68555 A 125 125 0 0 0 200.1543 210.66797 A 125 125 0 0 0 189.20117 216.26758 A 125 125 0 0 0 185.14453 218.55078 A 125 125 0 0 0 149.46094 251.41797 A 125 125 0 0 0 149.45898 251.41992 A 125 125 0 0 0 143.61914 260.25195 A 125 125 0 0 0 137.29883 272.16211 A 125 125 0 0 0 133.22852 281.52148 A 125 125 0 0 0 128.38086 297.57617 A 125 125 0 0 0 127.99023 299.5293 A 125 125 0 0 0 127.06641 304.14258 A 125 125 0 0 0 126.07422 311.14062 A 125 125 0 0 0 125.59375 314.55273 A 125 125 0 0 0 125 325 A 125 125 0 0 0 125.59375 335.44727 A 125 125 0 0 0 126.07422 338.85938 A 125 125 0 0 0 127.06641 345.85742 A 125 125 0 0 0 127.99023 350.4707 A 125 125 0 0 0 128.38086 352.42383 A 125 125 0 0 0 133.22852 368.47852 A 125 125 0 0 0 137.29883 377.83789 A 125 125 0 0 0 143.61914 389.74805 A 125 125 0 0 0 149.45898 398.58008 A 125 125 0 0 0 149.46094 398.58203 A 125 125 0 0 0 185.14453 431.44922 A 125 125 0 0 0 189.20117 433.73242 A 125 125 0 0 0 200.1543 439.33203 A 125 125 0 0 0 205.31836 441.31445 A 125 125 0 0 0 216.16016 445.13477 A 125 125 0 0 0 223.11914 446.69336 A 125 125 0 0 0 232.88867 448.72461 A 125 125 0 0 0 250 450 A 125 125 0 0 0 267.55078 448.69141 A 125 125 0 0 0 271.89844 447.81055 A 125 125 0 0 0 284.77539 444.92578 A 125 125 0 0 0 289.74414 443.20703 A 125 125 0 0 0 301.35156 438.75391 A 125 125 0 0 0 306.21875 436.30664 A 125 125 0 0 0 316.93164 430.2832 A 125 125 0 0 0 349.89844 400 L 349.60156 400 A 125 125 0 0 0 356.38086 389.74805 A 125 125 0 0 0 363.47656 376.37695 A 125 125 0 0 0 366.55664 369.19141 A 125 125 0 0 0 371.61914 352.42383 A 125 125 0 0 0 372.93164 345.87695 A 125 125 0 0 0 374.25391 336.55078 A 125 125 0 0 0 375 325 A 125 125 0 0 0 374.25391 313.44922 A 125 125 0 0 0 372.93164 304.12305 A 125 125 0 0 0 371.61914 297.57617 A 125 125 0 0 0 366.55664 280.80859 A 125 125 0 0 0 363.47656 273.62305 A 125 125 0 0 0 356.38086 260.25195 A 125 125 0 0 0 349.60156 250 L 349.89844 250 A 125 125 0 0 0 316.93359 219.71875 A 125 125 0 0 0 306.21875 213.69336 A 125 125 0 0 0 301.35156 211.24609 A 125 125 0 0 0 289.74414 206.79297 A 125 125 0 0 0 284.77539 205.07422 A 125 125 0 0 0 271.89844 202.18945 A 125 125 0 0 0 267.55078 201.30859 A 125 125 0 0 0 250 200 z M 250 250 A 75 75 0 0 1 255.57617 250.23047 A 75 75 0 0 1 257.27734 250.39062 A 75 75 0 0 1 261.32227 250.89648 A 75 75 0 0 1 263.01172 251.16406 A 75 75 0 0 1 267.91406 252.19141 A 75 75 0 0 1 268.50391 252.32227 A 75 75 0 0 1 273.88477 253.92578 A 75 75 0 0 1 275.33789 254.44922 A 75 75 0 0 1 279.17969 255.94727 A 75 75 0 0 1 280.84766 256.66797 A 75 75 0 0 1 284.90039 258.65039 A 75 75 0 0 1 285.88477 259.15234 A 75 75 0 0 1 290.66602 262.00195 A 75 75 0 0 1 291.89062 262.83398 A 75 75 0 0 1 295.30273 265.26953 A 75 75 0 0 1 296.72461 266.37305 A 75 75 0 0 1 300.01562 269.1582 A 75 75 0 0 1 301.02734 270.05078 A 75 75 0 0 1 304.94922 273.97266 A 75 75 0 0 1 305.8418 274.98438 A 75 75 0 0 1 308.62695 278.27539 A 75 75 0 0 1 309.73047 279.69727 A 75 75 0 0 1 312.16602 283.10938 A 75 75 0 0 1 312.99805 284.33398 A 75 75 0 0 1 315.84766 289.11523 A 75 75 0 0 1 316.34961 290.09961 A 75 75 0 0 1 318.33203 294.15234 A 75 75 0 0 1 319.05273 295.82031 A 75 75 0 0 1 320.55078 299.66211 A 75 75 0 0 1 321.07422 301.11523 A 75 75 0 0 1 322.67773 306.49609 A 75 75 0 0 1 322.80859 307.08594 A 75 75 0 0 1 323.83594 311.98828 A 75 75 0 0 1 324.10352 313.67773 A 75 75 0 0 1 324.60938 317.72266 A 75 75 0 0 1 324.76953 319.42383 A 75 75 0 0 1 325 325 A 75 75 0 0 1 324.76953 330.57617 A 75 75 0 0 1 324.60938 332.27734 A 75 75 0 0 1 324.10352 336.32227 A 75 75 0 0 1 323.83594 338.01172 A 75 75 0 0 1 322.80859 342.91406 A 75 75 0 0 1 322.67773 343.50391 A 75 75 0 0 1 321.07422 348.88477 A 75 75 0 0 1 320.55078 350.33789 A 75 75 0 0 1 319.05273 354.17969 A 75 75 0 0 1 318.33203 355.84766 A 75 75 0 0 1 316.34961 359.90039 A 75 75 0 0 1 315.84766 360.88477 A 75 75 0 0 1 312.99805 365.66602 A 75 75 0 0 1 312.16602 366.89062 A 75 75 0 0 1 309.73047 370.30273 A 75 75 0 0 1 308.62695 371.72461 A 75 75 0 0 1 305.8418 375.01562 A 75 75 0 0 1 304.94922 376.02734 A 75 75 0 0 1 301.02734 379.94922 A 75 75 0 0 1 300.01562 380.8418 A 75 75 0 0 1 296.72461 383.62695 A 75 75 0 0 1 295.30273 384.73047 A 75 75 0 0 1 291.89062 387.16602 A 75 75 0 0 1 290.66602 387.99805 A 75 75 0 0 1 285.88477 390.84766 A 75 75 0 0 1 284.90039 391.34961 A 75 75 0 0 1 280.84766 393.33203 A 75 75 0 0 1 279.17969 394.05273 A 75 75 0 0 1 275.33789 395.55078 A 75 75 0 0 1 273.88477 396.07422 A 75 75 0 0 1 268.50391 397.67773 A 75 75 0 0 1 267.91406 397.80859 A 75 75 0 0 1 263.01172 398.83594 A 75 75 0 0 1 261.32227 399.10352 A 75 75 0 0 1 257.27734 399.60938 A 75 75 0 0 1 255.57617 399.76953 A 75 75 0 0 1 250 400 A 75 75 0 0 1 242.0332 399.47266 A 75 75 0 0 1 241.60547 399.40234 A 75 75 0 0 1 234.85742 398.29297 A 75 75 0 0 1 234.09961 398.08984 A 75 75 0 0 1 234.08789 398.08789 A 75 75 0 0 1 232.57227 397.68164 A 75 75 0 0 1 232.53711 397.67188 A 75 75 0 0 1 230.375 397.0918 A 75 75 0 0 1 229.13867 396.66016 A 75 75 0 0 1 221.84961 394.10742 A 75 75 0 0 1 220.10742 393.49805 A 75 75 0 0 1 217.89062 392.46484 A 75 75 0 0 1 215.55469 391.37695 A 75 75 0 0 1 208.77734 387.11719 A 75 75 0 0 1 206.54883 385.7168 A 75 75 0 0 1 205.60938 385.12695 A 75 75 0 0 1 202.66992 383.06836 A 75 75 0 0 1 191.93164 372.33008 A 75 75 0 0 1 189.87305 369.39062 A 75 75 0 0 1 189.2832 368.45117 A 75 75 0 0 1 187.88281 366.22266 A 75 75 0 0 1 183.62305 359.44531 A 75 75 0 0 1 182.53516 357.10938 A 75 75 0 0 1 181.50195 354.89258 A 75 75 0 0 1 180.89258 353.15039 A 75 75 0 0 1 178.33984 345.86133 A 75 75 0 0 1 177.9082 344.625 A 75 75 0 0 1 177.32812 342.46289 A 75 75 0 0 1 177.31836 342.42773 A 75 75 0 0 1 176.91211 340.91211 A 75 75 0 0 1 176.91016 340.90039 A 75 75 0 0 1 176.70703 340.14258 A 75 75 0 0 1 175.59766 333.39453 A 75 75 0 0 1 175.52734 332.9668 A 75 75 0 0 1 175 325 A 75 75 0 0 1 175.52734 317.0332 A 75 75 0 0 1 175.59766 316.60547 A 75 75 0 0 1 176.70703 309.85742 A 75 75 0 0 1 176.91016 309.09961 A 75 75 0 0 1 176.91211 309.08789 A 75 75 0 0 1 177.31836 307.57227 A 75 75 0 0 1 177.32812 307.53711 A 75 75 0 0 1 177.9082 305.375 A 75 75 0 0 1 178.33984 304.13867 A 75 75 0 0 1 180.89258 296.84961 A 75 75 0 0 1 181.50195 295.10742 A 75 75 0 0 1 182.53516 292.89062 A 75 75 0 0 1 183.62305 290.55469 A 75 75 0 0 1 187.88281 283.77734 A 75 75 0 0 1 189.2832 281.54883 A 75 75 0 0 1 189.87305 280.60938 A 75 75 0 0 1 191.93164 277.66992 A 75 75 0 0 1 202.66992 266.93164 A 75 75 0 0 1 205.60938 264.87305 A 75 75 0 0 1 206.54883 264.2832 A 75 75 0 0 1 208.77734 262.88281 A 75 75 0 0 1 215.55469 258.62305 A 75 75 0 0 1 217.89062 257.53516 A 75 75 0 0 1 220.10742 256.50195 A 75 75 0 0 1 221.84961 255.89258 A 75 75 0 0 1 229.13867 253.33984 A 75 75 0 0 1 230.375 252.9082 A 75 75 0 0 1 232.53711 252.32812 A 75 75 0 0 1 232.57227 252.31836 A 75 75 0 0 1 234.08789 251.91211 A 75 75 0 0 1 234.09961 251.91016 A 75 75 0 0 1 234.85742 251.70703 A 75 75 0 0 1 241.60547 250.59766 A 75 75 0 0 1 242.0332 250.52734 A 75 75 0 0 1 250 250 z " />
</svg>