<svg width="500" height="650" xmlns="http://www.w3.org/2000/svg" xmlns:xlink="http://www.w3.org/1999/xlink">
   <path
      d="M 50 100 A 25 25 0 0 0 32.412109 107.32227 L 32.322266 107.32227 L 32.322266 107.41211 A 25 25 0 0 0 25 125 A 25 25 0 0 0 32.322266 142.58789 L 32.322266 142.67773 L 74.539062 184.89453 A 225 225 0 0 0 25 325 L 25 525 A 25 25 0 0 0 50 550 A 25 25 0 0 0 75 525 L 75 325 A 175 175 0 0 1 109.96875 220.32422 L 432.32227 542.67773 A 25 25 0 0 0 450 550 A 25 25 0 0 0 467.67773 542.67773 A 25 25 0 0 0 475 525 L 475 325 A 225 225 0 0 0 250 100 A 225 225 0 0 0 109.89453 149.53906 L 67.677734 107.32227 A 25 25 0 0 0 50 100 z M 250 150 A 175 175 0 0 1 425 325 L 425 464.64453 L 145.32422 184.96875 A 175 175 0 0 1 250 150 z " />
</svg>