<svg width="500" height="650" xmlns="http://www.w3.org/2000/svg" xmlns:svg="http://www.w3.org/2000/svg">
   <path
      d="M 50 100 A 25 25 0 0 0 32.412109 107.32227 L 32.322266 107.32227 L 32.322266 107.41211 A 25 25 0 0 0 25 125 A 25 25 0 0 0 32.322266 142.58789 L 32.322266 142.67773 L 74.59375 184.94922 A 225 225 0 0 0 25 325 L 25 425 A 125 125 0 0 0 50.625 500 L 0 500 A 25 25 0 0 0 -25 525 A 25 25 0 0 0 0 550 L 150 550 A 25 25 0 0 0 175 525 A 25 25 0 0 0 150 500 A 75 75 0 0 1 75 425 L 75 325 A 175 175 0 0 1 110.26367 220.61914 L 432.32227 542.67773 A 25 25 0 0 0 450 550 A 25 25 0 0 0 467.67773 542.67773 A 25 25 0 0 0 475 525 L 475 325 L 474.9707 323.77344 L 474.96875 323.75586 A 225 225 0 0 0 251.24414 100.0293 L 251.22656 100.02734 A 25 25 0 0 0 250 100 A 25 25 0 0 0 246.4375 100.25586 A 225 225 0 0 0 110.05273 149.69727 L 67.677734 107.32227 A 25 25 0 0 0 50 100 z M 250 150 A 175 175 0 0 1 425 325 L 425 464.64453 L 145.61914 185.26367 A 175 175 0 0 1 250 150 z " />
</svg>