<svg width="500" height="650" xmlns="http://www.w3.org/2000/svg" xmlns:xlink="http://www.w3.org/1999/xlink">
   <path
      d="M 250 100 A 225 225 0 0 0 25 325 A 225 225 0 0 0 250 550 A 225 225 0 0 0 475 325 A 225 225 0 0 0 250 100 z M 250 150 A 175 175 0 0 1 425 325 A 175 175 0 0 1 250 500 A 175 175 0 0 1 75 325 A 175 175 0 0 1 250 150 z M 250 200 A 125 125 0 0 0 125 325 A 125 125 0 0 0 250 450 A 125 125 0 0 0 375 325 A 125 125 0 0 0 250 200 z M 250 250 A 75 75 0 0 1 325 325 A 75 75 0 0 1 250 400 A 75 75 0 0 1 175 325 A 75 75 0 0 1 250 250 z " />
</svg>