<svg width="500" height="650" xmlns="http://www.w3.org/2000/svg" xmlns:xlink="http://www.w3.org/1999/xlink">
   <path
      d="M 50 100 A 25 25 0 0 0 32.322266 107.32227 A 25 25 0 0 0 25 125 L 25 325 A 225 225 0 0 0 109.27734 500 L 0 500 A 25 25 0 0 0 -25 525 A 25 25 0 0 0 0 550 L 450 550 L 500 550 A 25 25 0 0 0 525 525 A 25 25 0 0 0 500 500 L 460.35547 500 L 425.10156 464.74609 A 225 225 0 0 0 475 325 L 475 125 A 25 25 0 0 0 450 100 A 25 25 0 0 0 426.90234 115.43359 A 25 25 0 0 0 425 125 L 425 325 A 175 175 0 0 1 390.12109 429.76562 L 67.677734 107.32227 A 25 25 0 0 0 59.894531 102.12109 A 25 25 0 0 0 59.179688 101.82617 A 25 25 0 0 0 50 100 z M 75 185.35547 L 354.75977 465.11523 A 175 175 0 0 1 277.37695 497.8457 A 175 175 0 0 1 250 500 A 175 175 0 0 1 75 325 L 75 185.35547 z " />
</svg>