<svg width="500" height="650" xmlns="http://www.w3.org/2000/svg">
    <path d="M250 0a25 25 0 0 0-25 25v76.79a225 225 0 0 0-115.105 47.75l-42.217-42.218A25 25 0 0 0 50 100a25 25 0 0 0-17.588 7.322h-.09v.09A25 25 0 0 0 25 125a25 25 0 0 0 7.322 17.588v.09l42.217 42.217a225 225 0 0 0-49.283 136.543A25 25 0 0 0 25 325a25 25 0 0 0 25 25 25 25 0 0 0 25-25 175 175 0 0 1 34.969-104.676L225 335.355V500H50a25 25 0 0 0-25 25 25 25 0 0 0 25 25h175v75a25 25 0 0 0 25 25 25 25 0 0 0 25-25v-76.79a225 225 0 0 0 115.105-47.75l42.217 42.218h.09A25 25 0 0 0 450 550a25 25 0 0 0 17.588-7.322h.09v-.09A25 25 0 0 0 475 525a25 25 0 0 0-7.322-17.678l-42.217-42.217a225 225 0 0 0 49.283-136.543A225 225 0 0 0 475 325a25 25 0 0 0-25-25 25 25 0 0 0-25 25 175 175 0 0 1-34.969 104.676L275 314.645V150h175a25 25 0 0 0 25-25 25 25 0 0 0-25-25H275V25a25 25 0 0 0-25-25m-25 151.967v112.678l-79.676-79.676A175 175 0 0 1 225 151.967m50 233.388 79.676 79.676A175 175 0 0 1 275 498.033z"/>
</svg>