<svg width="500" height="650" xmlns="http://www.w3.org/2000/svg">
   <path d="M 50 100 A 25 25 0 0 0 32.412109 107.32227 L 32.322266 107.32227 L 32.322266 107.41211 A 25 25 0 0 0 25 125 A 25 25 0 0 0 32.322266 142.58789 L 32.322266 142.67773 L 74.59375 184.94922 A 225 225 0 0 0 25 325 L 25 525 A 25 25 0 0 0 50 550 A 25 25 0 0 0 75 525 L 75 325 A 175 175 0 0 1 110.26367 220.61914 L 381.91211 492.26758 A 75 75 0 0 1 350 500 A 25 25 0 0 0 325 525 A 25 25 0 0 0 350 550 L 450 550 L 500 550 A 25 25 0 0 0 525 525 A 25 25 0 0 0 500 500 L 460.35547 500 L 453.52344 493.16797 A 125 125 0 0 0 474.57031 429.37109 A 25 25 0 0 0 475 425 L 475 325 L 474.9707 323.77344 L 474.96875 323.75586 A 225 225 0 0 0 251.22656 100.0293 A 25 25 0 0 0 250 100 A 25 25 0 0 0 246.4375 100.25586 A 225 225 0 0 0 110.05273 149.69727 L 67.677734 107.32227 A 25 25 0 0 0 50 100 z M 250 150 A 175 175 0 0 1 425 325 L 425 425 A 75 75 0 0 1 417.26758 456.91211 L 145.61914 185.26367 A 175 175 0 0 1 250 150 z "/>
</svg>