<svg width="500" height="650" xmlns="http://www.w3.org/2000/svg">
   <path d="M 50 100 A 25 25 0 0 0 32.322266 107.32227 A 25 25 0 0 0 25 125 A 25 25 0 0 0 32.322266 142.67773 L 145.79492 256.15039 A 125 125 0 0 0 125 325 A 125 125 0 0 0 250 450 A 125 125 0 0 0 318.84961 429.20508 L 354.38086 464.73633 A 175 175 0 0 1 250 500 L 50 500 A 25 25 0 0 0 25 525 A 25 25 0 0 0 50 550 L 450 550 L 500 550 A 25 25 0 0 0 525 525 A 25 25 0 0 0 500 500 L 460.35547 500 L 425.10156 464.74609 A 225 225 0 0 0 475 325 A 225 225 0 0 0 250 100 L 50 100 z M 110.35547 150 L 250 150 A 175 175 0 0 1 425 325 A 175 175 0 0 1 389.73633 429.38086 L 354.20508 393.84961 A 125 125 0 0 0 375 325 A 125 125 0 0 0 250 200 A 125 125 0 0 0 181.15039 220.79492 L 110.35547 150 z M 250 250 A 75 75 0 0 1 325 325 A 75 75 0 0 1 317.46484 357.10938 L 217.89062 257.53516 A 75 75 0 0 1 250 250 z M 182.53516 292.89062 L 282.10938 392.46484 A 75 75 0 0 1 250 400 A 75 75 0 0 1 175 325 A 75 75 0 0 1 182.53516 292.89062 z "/>
</svg>