<svg width="500" height="650" xmlns="http://www.w3.org/2000/svg">
   <path
      d="M 50 100 A 25 25 0 0 0 32.412109 107.32227 L 32.322266 107.32227 L 32.322266 107.41211 A 25 25 0 0 0 25 125 A 25 25 0 0 0 32.322266 142.58789 L 32.322266 142.67773 L 74.539062 184.89453 A 225 225 0 0 0 25 325 A 225 225 0 0 0 109.27734 500 L 0 500 A 25 25 0 0 0 -25 525 A 25 25 0 0 0 0 550 L 450 550 A 25 25 0 0 0 467.67773 542.67773 A 25 25 0 0 0 475 525 A 25 25 0 0 0 474.75586 521.57812 A 25 25 0 0 0 474.70898 521.26758 A 25 25 0 0 0 474.02344 518.11523 A 25 25 0 0 0 473.95117 517.85742 A 25 25 0 0 0 472.75391 514.65234 A 25 25 0 0 0 472.70312 514.54688 A 25 25 0 0 0 471.10352 511.61719 A 25 25 0 0 0 470.93164 511.35156 A 25 25 0 0 0 468.97461 508.73633 A 25 25 0 0 0 468.83984 508.57422 A 25 25 0 0 0 467.67773 507.32227 L 145.61914 185.26367 A 175 175 0 0 1 250 150 L 450 150 A 25 25 0 0 0 475 125 A 25 25 0 0 0 450 100 L 250 100 A 225 225 0 0 0 109.89453 149.53906 L 67.677734 107.32227 A 25 25 0 0 0 50 100 z M 110.26367 220.61914 L 389.64453 500 L 250 500 A 175 175 0 0 1 75 325 A 175 175 0 0 1 110.26367 220.61914 z " />
</svg>