<svg width="500" height="650" xmlns="http://www.w3.org/2000/svg">
   <path
      d="M 50 100 A 25 25 0 0 0 32.322266 107.32227 A 25 25 0 0 0 25 125 A 25 25 0 0 0 32.322266 142.67773 L 381.91211 492.26758 A 75 75 0 0 1 350 500 L 0 500 A 25 25 0 0 0 -25 525 A 25 25 0 0 0 0 550 L 350 550 A 25 25 0 0 0 354.37109 549.57031 A 125 125 0 0 0 418.46875 528.82422 L 432.32227 542.67773 L 432.41211 542.67773 A 25 25 0 0 0 450 550 A 25 25 0 0 0 467.58789 542.67773 L 467.67773 542.67773 L 467.67773 542.58789 A 25 25 0 0 0 475 525 A 25 25 0 0 0 467.67773 507.32227 L 453.82422 493.46875 A 125 125 0 0 0 474.57031 429.37109 A 25 25 0 0 0 475 425 L 475 325 L 474.9707 323.77344 L 474.96875 323.75586 A 225 225 0 0 0 251.22656 100.0293 A 25 25 0 0 0 250 100 L 50 100 z M 110.35547 150 L 250 150 A 175 175 0 0 1 425 325 L 425 425 A 75 75 0 0 1 417.26758 456.91211 L 110.35547 150 z " />
</svg>