<svg width="500" height="650" xmlns="http://www.w3.org/2000/svg" xmlns:xlink="http://www.w3.org/1999/xlink">
   <path
      d="M 50 100 A 25 25 0 0 0 32.322266 107.32227 A 25 25 0 0 0 25 125 L 25 325 A 225 225 0 0 0 250 550 L 450 550 A 25 25 0 0 0 467.67773 542.67773 A 25 25 0 0 0 475 525 A 25 25 0 0 0 474.75586 521.57812 A 25 25 0 0 0 474.70898 521.26758 A 25 25 0 0 0 474.02344 518.11523 A 25 25 0 0 0 473.95117 517.85742 A 25 25 0 0 0 472.75391 514.65234 A 25 25 0 0 0 472.70312 514.54688 A 25 25 0 0 0 471.10352 511.61719 A 25 25 0 0 0 470.93164 511.35156 A 25 25 0 0 0 468.97461 508.73633 A 25 25 0 0 0 468.83984 508.57422 A 25 25 0 0 0 467.67773 507.32227 L 67.677734 107.32227 A 25 25 0 0 0 67.40625 107.14062 A 25 25 0 0 0 59.742188 102.01953 A 25 25 0 0 0 59.269531 101.84375 A 25 25 0 0 0 50 100 z M 75 185.35547 L 389.64453 500 L 250 500 A 175 175 0 0 1 75 325 L 75 185.35547 z " />
</svg>