<svg width="500" height="650" xmlns="http://www.w3.org/2000/svg" xmlns:svg="http://www.w3.org/2000/svg">
   <path
      d="M 50 100 A 25 25 0 0 0 25 125 A 25 25 0 0 0 50 150 L 250 150 A 175 175 0 0 1 425 325 L 425 425 A 75 75 0 0 1 350 500 L 0 500 A 25 25 0 0 0 -25 525 A 25 25 0 0 0 0 550 L 350 550 A 25 25 0 0 0 354.37109 549.57031 A 125 125 0 0 0 474.57031 429.37109 A 25 25 0 0 0 475 425 L 475 325 L 474.9707 323.77344 L 474.96875 323.75586 A 225 225 0 0 0 251.22656 100.0293 A 25 25 0 0 0 250 100 L 50 100 z " />
</svg>