<svg width="500" height="650" xmlns="http://www.w3.org/2000/svg" xmlns:xlink="http://www.w3.org/1999/xlink">
   <path
      d="M 250 100 A 25 25 0 0 0 246.44141 100.25391 L 246.43945 100.25391 L 246.4375 100.25586 L 246.42969 100.25586 A 225 225 0 0 0 25 325 L 25 425 A 125 125 0 0 0 50.625 500 L 0 500 A 25 25 0 0 0 -25 525 A 25 25 0 0 0 0 550 L 150 550 A 25 25 0 0 0 175 525 A 25 25 0 0 0 150 500 A 75 75 0 0 1 75 425 L 75 325 A 175 175 0 0 1 77.154297 297.62305 A 175 175 0 0 1 250 150 A 175 175 0 0 1 425 325 L 425 425 A 75 75 0 0 1 350 500 A 25 25 0 0 0 325 525 A 25 25 0 0 0 350 550 L 500 550 A 25 25 0 0 0 525 525 A 25 25 0 0 0 500 500 L 449.375 500 A 125 125 0 0 0 474.57031 429.37109 A 25 25 0 0 0 475 425 L 475 325 L 474.9707 323.77344 L 474.96875 323.75586 A 225 225 0 0 0 251.25586 100.0293 L 251.22656 100.02734 A 25 25 0 0 0 250 100 z " />
</svg>