<svg width="500" height="650" xmlns="http://www.w3.org/2000/svg" xmlns:svg="http://www.w3.org/2000/svg">
   <path
      d="M 50 100 A 25 25 0 0 0 32.412109 107.32227 L 32.322266 107.32227 L 32.322266 107.41211 A 25 25 0 0 0 25 125 A 25 25 0 0 0 32.322266 142.58789 L 32.322266 142.67773 L 74.613281 184.96875 A 225 225 0 0 0 25 325 A 225 225 0 0 0 109.27734 500 L 0 500 A 25 25 0 0 0 -25 525 A 25 25 0 0 0 0 550 L 450 550 L 500 550 A 25 25 0 0 0 525 525 A 25 25 0 0 0 500 500 L 460.35547 500 L 145.6582 185.30273 A 175 175 0 0 1 250 150 L 450 150 A 25 25 0 0 0 475 125 A 25 25 0 0 0 450 100 L 250 100 A 225 225 0 0 0 109.96875 149.61328 L 67.677734 107.32227 A 25 25 0 0 0 50 100 z M 110.2207 220.57617 L 389.64453 500 L 250 500 A 175 175 0 0 1 75 325 A 175 175 0 0 1 77.154297 297.62305 A 175 175 0 0 1 110.2207 220.57617 z " />
</svg>