<svg width="500" height="650" xmlns="http://www.w3.org/2000/svg" xmlns:xlink="http://www.w3.org/1999/xlink">
   <path
      d="M 250 100 A 225 225 0 0 0 25 325 A 225 225 0 0 0 109.27734 500 L 0 500 A 25 25 0 0 0 -25 525 A 25 25 0 0 0 0 550 L 500 550 A 25 25 0 0 0 525 525 A 25 25 0 0 0 500 500 L 390.72266 500 A 225 225 0 0 0 475 325 A 225 225 0 0 0 250 100 z M 250 150 A 175 175 0 0 1 425 325 A 175 175 0 0 1 250 500 A 175 175 0 0 1 75 325 A 175 175 0 0 1 77.154297 297.62305 A 175 175 0 0 1 250 150 z " />
</svg>