<svg width="500" height="650" xmlns="http://www.w3.org/2000/svg" xmlns:svg="http://www.w3.org/2000/svg">
    <path
        d="M250 0a25 25 0 0 0-25 25v76.79a225 225 0 0 0-115.105 47.75l-42.217-42.218A25 25 0 0 0 50 100a25 25 0 0 0-17.588 7.322h-.09v.09A25 25 0 0 0 25 125a25 25 0 0 0 7.322 17.588v.09l42.217 42.217A225 225 0 0 0 25 325a225 225 0 0 0 200 223.21V625a25 25 0 0 0 25 25 25 25 0 0 0 25-25v-75h175a25 25 0 0 0 17.678-7.322A25 25 0 0 0 475 525a25 25 0 0 0-.244-3.422l-.047-.31a25 25 0 0 0-.682-3.133l-.082-.293a25 25 0 0 0-1.191-3.19l-.05-.107a25 25 0 0 0-1.6-2.928l-.172-.265a25 25 0 0 0-1.957-2.616l-.135-.162a25 25 0 0 0-1.162-1.252L275 314.645V150h175a25 25 0 0 0 25-25 25 25 0 0 0-25-25H275V25a25 25 0 0 0-25-25m-25 151.967v112.678l-79.676-79.676A175 175 0 0 1 225 151.967m-115.031 68.357L225 335.355v162.678A175 175 0 0 1 75 325a175 175 0 0 1 34.969-104.676M275 385.355 389.645 500H275z" />
</svg>