<svg width="500" height="650" xmlns="http://www.w3.org/2000/svg" xmlns:xlink="http://www.w3.org/1999/xlink">
   <path
      d="M 150 0 A 25 25 0 0 0 125 25 A 25 25 0 0 0 150 50 A 75 75 0 0 1 225 125 L 225 225 A 125 125 0 0 0 275.14648 325 A 125 125 0 0 0 225 425 L 225 525 A 75 75 0 0 1 150 600 A 25 25 0 0 0 125 625 A 25 25 0 0 0 150 650 A 125 125 0 0 0 275 525 L 275 425 A 75 75 0 0 1 350 350 A 25 25 0 0 0 375 325 A 25 25 0 0 0 374.89258 322.69336 A 25 25 0 0 0 350 300 A 75 75 0 0 1 275 225 L 275 125 A 125 125 0 0 0 150 0 z " />
</svg>