<svg width="500" height="650" xmlns="http://www.w3.org/2000/svg" xmlns:svg="http://www.w3.org/2000/svg">
   <path
      d="M 50 100 A 25 25 0 0 0 32.322266 107.32227 A 25 25 0 0 0 25 125 L 25 325 A 225 225 0 0 0 250 550 A 225 225 0 0 0 390.10547 500.46094 L 432.32227 542.67773 L 432.41211 542.67773 A 25 25 0 0 0 450 550 A 25 25 0 0 0 467.58789 542.67773 L 467.67773 542.67773 L 467.67773 542.58789 A 25 25 0 0 0 475 525 A 25 25 0 0 0 467.67773 507.32227 L 425.46094 465.10547 A 225 225 0 0 0 475 325 L 475 125 A 25 25 0 0 0 450 100 A 25 25 0 0 0 425 125 L 425 325 A 175 175 0 0 1 390.03125 429.67578 L 67.677734 107.32227 A 25 25 0 0 0 67.40625 107.14062 A 25 25 0 0 0 59.742188 102.01953 A 25 25 0 0 0 59.269531 101.84375 A 25 25 0 0 0 50 100 z M 75 185.35547 L 354.67578 465.03125 A 175 175 0 0 1 250 500 A 175 175 0 0 1 75 325 L 75 185.35547 z " />
</svg>