<svg width="500" height="650" xmlns="http://www.w3.org/2000/svg" xmlns:svg="http://www.w3.org/2000/svg">
   <path
      d="M 50 100 A 25 25 0 0 0 32.412109 107.32227 L 32.322266 107.32227 L 32.322266 107.41211 A 25 25 0 0 0 25 125 A 25 25 0 0 0 32.322266 142.58789 L 32.322266 142.67773 L 74.539062 184.89453 A 225 225 0 0 0 25 325 L 25 425 A 125 125 0 0 0 150 550 L 450 550 L 500 550 A 25 25 0 0 0 525 525 A 25 25 0 0 0 500 500 L 460.35547 500 L 145.61914 185.26367 A 175 175 0 0 1 250 150 L 450 150 A 25 25 0 0 0 475 125 A 25 25 0 0 0 450 100 L 250 100 A 225 225 0 0 0 109.89453 149.53906 L 67.677734 107.32227 A 25 25 0 0 0 50 100 z M 110.26367 220.61914 L 389.64453 500 L 150 500 A 75 75 0 0 1 75 425 L 75 325 A 175 175 0 0 1 110.26367 220.61914 z " />
</svg>