<svg width="500" height="650" xmlns="http://www.w3.org/2000/svg">
   <path
      d="M 450 100 A 25 25 0 0 0 432.32227 107.32227 L 32.322266 507.32227 A 25 25 0 0 0 25 525 A 25 25 0 0 0 32.322266 542.58789 L 32.322266 542.67773 L 32.412109 542.67773 A 25 25 0 0 0 50 550 A 25 25 0 0 0 67.587891 542.67773 L 67.677734 542.67773 L 467.67773 142.67773 L 467.67773 142.58789 A 25 25 0 0 0 475 125 A 25 25 0 0 0 467.67773 107.41211 L 467.67773 107.32227 L 467.58789 107.32227 A 25 25 0 0 0 450 100 z " />
</svg>