<svg width="500" height="650" xmlns="http://www.w3.org/2000/svg" xmlns:svg="http://www.w3.org/2000/svg">
   <path
      d="M 250 100 A 25 25 0 0 0 225 125 L 225 264.64453 L 167.67773 207.32227 A 25 25 0 0 0 150 200 A 25 25 0 0 0 132.41211 207.32227 L 132.32227 207.32227 L 132.32227 207.41211 A 25 25 0 0 0 125 225 A 25 25 0 0 0 132.32227 242.58789 L 132.32227 242.67773 L 214.64453 325 L 132.32227 407.32227 A 25 25 0 0 0 125 425 A 25 25 0 0 0 132.32227 442.58789 L 132.32227 442.67773 L 132.41211 442.67773 A 25 25 0 0 0 150 450 A 25 25 0 0 0 167.58789 442.67773 L 167.67773 442.67773 L 225 385.35547 L 225 525 A 25 25 0 0 0 250 550 A 25 25 0 0 0 275 525 L 275 385.35547 L 332.32227 442.67773 L 332.41211 442.67773 A 25 25 0 0 0 350 450 A 25 25 0 0 0 367.58789 442.67773 L 367.67773 442.67773 L 367.67773 442.58789 A 25 25 0 0 0 375 425 A 25 25 0 0 0 367.67773 407.32227 L 285.35547 325 L 367.67773 242.67773 L 367.67773 242.58789 A 25 25 0 0 0 375 225 A 25 25 0 0 0 367.67773 207.41211 L 367.67773 207.32227 L 367.58789 207.32227 A 25 25 0 0 0 350 200 A 25 25 0 0 0 332.32227 207.32227 L 275 264.64453 L 275 125 A 25 25 0 0 0 250 100 z " />
</svg>