<?xml version="1.0" encoding="UTF-8" standalone="no"?>
<svg width="500" height="650" version="1.1" id="svg2" sodipodi:docname="uni25cc.svg" inkscape:version="1.4.2 (ebf0e940, 2025-05-08)" xmlns:inkscape="http://www.inkscape.org/namespaces/inkscape" xmlns:sodipodi="http://sodipodi.sourceforge.net/DTD/sodipodi-0.dtd" xmlns="http://www.w3.org/2000/svg" xmlns:svg="http://www.w3.org/2000/svg">
    <defs id="defs2" />
    <sodipodi:namedview id="namedview2" pagecolor="#ffffff" bordercolor="#000000" borderopacity="0.25" inkscape:showpageshadow="2" inkscape:pageopacity="0.0" inkscape:pagecheckerboard="0" inkscape:deskcolor="#d1d1d1" inkscape:zoom="0.65846154" inkscape:cx="250.58411" inkscape:cy="325" inkscape:window-width="1080" inkscape:window-height="647" inkscape:window-x="0" inkscape:window-y="25" inkscape:window-maximized="0" inkscape:current-layer="svg2" />
    <path id="path8" d="M 250 100 A 25 25 0 0 0 225 125 A 25 25 0 0 0 250 150 A 25 25 0 0 0 275 125 A 25 25 0 0 0 250 100 z M 108.57812 158.57812 A 25 25 0 0 0 90.900391 165.90039 A 25 25 0 0 0 90.900391 201.25586 A 25 25 0 0 0 126.25586 201.25586 A 25 25 0 0 0 126.25586 165.90039 A 25 25 0 0 0 108.57812 158.57812 z M 391.42188 158.57812 A 25 25 0 0 0 373.74414 165.90039 A 25 25 0 0 0 373.74414 201.25586 A 25 25 0 0 0 409.09961 201.25586 A 25 25 0 0 0 409.09961 165.90039 A 25 25 0 0 0 391.42188 158.57812 z M 50 300 A 25 25 0 0 0 25 325 A 25 25 0 0 0 50 350 A 25 25 0 0 0 75 325 A 25 25 0 0 0 50 300 z M 450 300 A 25 25 0 0 0 425 325 A 25 25 0 0 0 450 350 A 25 25 0 0 0 475 325 A 25 25 0 0 0 450 300 z M 108.57812 441.42188 A 25 25 0 0 0 90.900391 448.74414 A 25 25 0 0 0 90.900391 484.09961 A 25 25 0 0 0 126.25586 484.09961 A 25 25 0 0 0 126.25586 448.74414 A 25 25 0 0 0 108.57812 441.42188 z M 391.42188 441.42188 A 25 25 0 0 0 373.74414 448.74414 A 25 25 0 0 0 373.74414 484.09961 A 25 25 0 0 0 409.09961 484.09961 A 25 25 0 0 0 409.09961 448.74414 A 25 25 0 0 0 391.42188 441.42188 z M 250 500 A 25 25 0 0 0 225 525 A 25 25 0 0 0 250 550 A 25 25 0 0 0 275 525 A 25 25 0 0 0 250 500 z " />
</svg>
