<svg width="500" height="650" xmlns="http://www.w3.org/2000/svg">
    <path
        d="m 350,100 c 69.03559,0 125,55.96441 125,125 v 200 c 0,69.03559 -55.96441,125 -125,125 H 50 c -13.80712,0 -25,-11.19288 -25,-25 0,-13.80712 11.19288,-25 25,-25 h 300 c 41.42136,0 75,-33.57864 75,-75 V 225 c 0,-41.42136 -33.57864,-75 -75,-75 H 50 c -13.80712,0 -25,-11.19288 -25,-25 0,-13.80712 11.19288,-25 25,-25 z" />
    <path
        d="M150 200v.25A25 25 0 0 0 125 225a25 25 0 0 0 25 24.75v.25h100a75 75 0 0 1 75 75 75 75 0 0 1-75 75H150v.25A25 25 0 0 0 125 425a25 25 0 0 0 25 24.75v.25h100a125 125 0 0 0 125-125 125 125 0 0 0-125-125z" />
    <path
        d="M 250 100 A 25 25 0 0 0 225 125 A 25 25 0 0 0 250 150 A 25 25 0 0 0 275 125 A 25 25 0 0 0 250 100 z M 250 300 A 25 25 0 0 0 225 325 A 25 25 0 0 0 250 350 A 25 25 0 0 0 275 325 A 25 25 0 0 0 250 300 z M 250 500 A 25 25 0 0 0 225 525 A 25 25 0 0 0 250 550 A 25 25 0 0 0 275 525 A 25 25 0 0 0 250 500 z " />
</svg>