<?xml version="1.0" encoding="UTF-8" standalone="no"?>
<svg width="500" height="650" version="1.1" id="svg2" sodipodi:docname="uni0024.svg"
    inkscape:version="1.4.3 (0d15f750, 2025-12-25)" xmlns:inkscape="http://www.inkscape.org/namespaces/inkscape"
    xmlns:sodipodi="http://sodipodi.sourceforge.net/DTD/sodipodi-0.dtd" xmlns="http://www.w3.org/2000/svg"
    xmlns:svg="http://www.w3.org/2000/svg">
    <defs id="defs2" />
    <sodipodi:namedview id="namedview2" pagecolor="#ffffff" bordercolor="#000000" borderopacity="0.25"
        inkscape:showpageshadow="2" inkscape:pageopacity="0.0" inkscape:pagecheckerboard="0"
        inkscape:deskcolor="#d1d1d1" inkscape:zoom="0.65846154" inkscape:cx="249.82477" inkscape:cy="325"
        inkscape:window-width="1095" inkscape:window-height="647" inkscape:window-x="0" inkscape:window-y="25"
        inkscape:window-maximized="0" inkscape:current-layer="svg2" />
    <path id="path7"
        d="M 50 100 A 25 25 0 0 0 43.529297 100.85156 A 25 25 0 0 0 32.322266 107.32227 A 25 25 0 0 0 32.322266 142.67773 L 182.32227 292.67773 A 75 75 0 0 1 217.67773 257.32227 L 67.677734 107.32227 A 25 25 0 0 0 50 100 z M 450 100 A 25 25 0 0 0 432.32227 107.32227 L 282.32227 257.32227 A 75 75 0 0 1 317.67773 292.67773 L 467.67773 142.67773 A 25 25 0 0 0 467.67773 107.32227 A 25 25 0 0 0 456.4707 100.85156 A 25 25 0 0 0 450 100 z M 182.32227 357.32227 L 32.322266 507.32227 A 25 25 0 0 0 32.322266 542.67773 A 25 25 0 0 0 67.677734 542.67773 L 217.67773 392.67773 A 75 75 0 0 1 182.32227 357.32227 z M 317.67773 357.32227 A 75 75 0 0 1 282.32227 392.67773 L 432.32227 542.67773 A 25 25 0 0 0 467.67773 542.67773 A 25 25 0 0 0 467.67773 507.32227 L 317.67773 357.32227 z " />
    <path
        d="M 250 200 A 125 125 0 0 0 125 325 A 125 125 0 0 0 250 450 A 125 125 0 0 0 375 325 A 125 125 0 0 0 250 200 z M 250 250 A 75 75 0 0 1 325 325 A 75 75 0 0 1 250 400 A 75 75 0 0 1 175 325 A 75 75 0 0 1 250 250 z " />
</svg>