<svg width="500" height="650" xmlns="http://www.w3.org/2000/svg">
    <path
        d="M 150 100 C 80.964406 100 25 155.96441 25 225 L 25 425 C 25 494.03559 80.964406 550 150 550 L 350 550 C 419.03559 550 475 494.03559 475 425 L 475 350 L 500 350 C 513.80712 350 525 338.80712 525 325 C 525 311.19288 513.80712 300 500 300 L 475 300 L 475 225 C 475 155.96441 419.03559 100 350 100 L 150 100 z M 150 150 L 350 150 C 391.42136 150 425 183.57864 425 225 L 425 300 L 150 300 C 108.57864 300 75 266.42136 75 225 C 75 183.57864 108.57864 150 150 150 z M 75 325.00977 C 95.891513 340.70199 121.85985 350 150 350 L 425 350 L 425 425 C 425 466.42136 391.42136 500 350 500 L 150 500 C 108.57864 500 75 466.42136 75 425 L 75 325.00977 z " />
</svg>