<svg width="500" height="650" xmlns="http://www.w3.org/2000/svg">
    <path
        d="M 150,100 C 80.964406,100 25,155.96441 25,225 v 200 c 0,69.03559 55.964406,125 125,125 h 300 c 13.80712,0 25,-11.19288 25,-25 0,-13.80712 -11.19288,-25 -25,-25 H 150 C 108.57864,500 75,466.42136 75,425 V 225 c 0,-41.42136 33.57864,-75 75,-75 h 300 c 13.80712,0 25,-11.19288 25,-25 0,-13.80712 -11.19288,-25 -25,-25 z" />
    <path
        d="m 432.32226,542.67773 c 9.76311,9.76311 25.59236,9.76311 35.35547,0 9.76311,-9.76311 9.76311,-25.59235 0,-35.35546 l -400.000003,-400 C 62.796177,102.44071 56.398057,100 49.999997,100 c -6.39806,0 -12.79618,2.44071 -17.67773,7.32227 -9.76311,9.76311 -9.76311,25.59235 0,35.35546 z" />
</svg>