<?xml-stylesheet href="../style/emblem.css" type="text/css"?>
<svg width="300" height="300" xmlns="http://www.w3.org/2000/svg" xmlns:xlink="http://www.w3.org/1999/xlink">
    <path class="background"
        d="M300 150a150 150 0 0 1-150 150A150 150 0 0 1 0 150 150 150 0 0 1 150 0a150 150 0 0 1 150 150" />
    <path class="east"
        d="M300 150a37.5 37.5 0 0 1-37.5 37.5A37.5 37.5 0 0 1 225 150a37.5 37.5 0 0 1 37.5-37.5A37.5 37.5 0 0 1 300 150" />
    <path class="south"
        d="M187.5 262.5A37.5 37.5 0 0 1 150 300a37.5 37.5 0 0 1-37.5-37.5A37.5 37.5 0 0 1 150 225a37.5 37.5 0 0 1 37.5 37.5" />
    <path class="center" d="M225 150a75 75 0 0 1-75 75 75 75 0 0 1-75-75 75 75 0 0 1 75-75 75 75 0 0 1 75 75" />
    <path class="west"
        d="M75 150a37.5 37.5 0 0 1-37.5 37.5A37.5 37.5 0 0 1 0 150a37.5 37.5 0 0 1 37.5-37.5A37.5 37.5 0 0 1 75 150" />
    <path class="north"
        d="M187.5 37.5A37.5 37.5 0 0 1 150 75a37.5 37.5 0 0 1-37.5-37.5A37.5 37.5 0 0 1 150 0a37.5 37.5 0 0 1 37.5 37.5" />
    <path class="others"
        d="M67.775 33.046a37.5 37.5 0 0 0-23.84 10.888 37.5 37.5 0 0 0-.001 53.033 37.5 37.5 0 0 0 53.033 0 37.5 37.5 0 0 0 0-53.033 37.5 37.5 0 0 0-29.192-10.888m159.1 0a37.5 37.5 0 0 0-23.842 10.888 37.5 37.5 0 0 0 0 53.033 37.5 37.5 0 0 0 53.033 0 37.5 37.5 0 0 0 0-53.033 37.5 37.5 0 0 0-29.192-10.888m-159.099 159.1a37.5 37.5 0 0 0-23.84 10.887 37.5 37.5 0 0 0-.001 53.033 37.5 37.5 0 0 0 53.033 0 37.5 37.5 0 0 0 0-53.033 37.5 37.5 0 0 0-29.192-10.888m159.1 0a37.5 37.5 0 0 0-23.842 10.888 37.5 37.5 0 0 0 0 53.033 37.5 37.5 0 0 0 53.033 0 37.5 37.5 0 0 0 0-53.033 37.5 37.5 0 0 0-29.192-10.888" />
    <path class="emblem"
        d="M 150 75 A 75 75 0 0 0 97.458984 96.535156 A 5 5 0 0 0 96.966797 96.966797 A 5 5 0 0 0 96.966797 104.03711 L 121.9707 129.04102 A 35 35 0 0 0 115 150 A 35 35 0 0 0 150 185 A 35 35 0 0 0 170.95898 178.0293 L 192.29102 199.36133 A 65 65 0 0 1 150 215 A 65 65 0 0 1 104.11523 196.04102 A 5 5 0 0 0 104.03711 195.96289 A 5 5 0 0 0 96.966797 195.96289 A 5 5 0 0 0 96.966797 203.0332 A 5 5 0 0 0 97.458984 203.46484 A 75 75 0 0 0 150 225 A 75 75 0 0 0 202.54102 203.46484 A 5 5 0 0 0 203.0332 203.0332 A 5 5 0 0 0 203.0332 195.96289 L 178.0293 170.95898 A 35 35 0 0 0 185 150 A 35 35 0 0 0 150 115 A 35 35 0 0 0 129.04102 121.9707 L 107.70898 100.63867 A 65 65 0 0 1 150 85 A 65 65 0 0 1 195.88477 103.95898 A 5 5 0 0 0 195.96289 104.03711 A 5 5 0 0 0 203.0332 104.03711 A 5 5 0 0 0 203.0332 96.966797 A 5 5 0 0 0 202.54102 96.535156 A 75 75 0 0 0 150 75 z M 150 125 A 25 25 0 0 1 175 150 A 25 25 0 0 1 170.85547 163.78516 L 136.21484 129.14453 A 25 25 0 0 1 150 125 z M 129.14453 136.21484 L 163.78516 170.85547 A 25 25 0 0 1 150 175 A 25 25 0 0 1 125 150 A 25 25 0 0 1 129.14453 136.21484 z " />
</svg>