<?xml-stylesheet href="../style/emblem.css" type="text/css"?>
<svg xmlns="http://www.w3.org/2000/svg" width="300" height="300">
    <path d="M300 150a150 150 0 0 1-150 150A150 150 0 0 1 0 150 150 150 0 0 1 150 0a150 150 0 0 1 150 150"
        class="background" />
    <path
        d="M300 150a37.5 37.5 0 0 1-37.5 37.5A37.5 37.5 0 0 1 225 150a37.5 37.5 0 0 1 37.5-37.5A37.5 37.5 0 0 1 300 150"
        class="east" />
    <path
        d="M187.5 262.5A37.5 37.5 0 0 1 150 300a37.5 37.5 0 0 1-37.5-37.5A37.5 37.5 0 0 1 150 225a37.5 37.5 0 0 1 37.5 37.5"
        class="south" />
    <path d="M225 150a75 75 0 0 1-75 75 75 75 0 0 1-75-75 75 75 0 0 1 75-75 75 75 0 0 1 75 75" class="center" />
    <path d="M75 150a37.5 37.5 0 0 1-37.5 37.5A37.5 37.5 0 0 1 0 150a37.5 37.5 0 0 1 37.5-37.5A37.5 37.5 0 0 1 75 150"
        class="west" />
    <path
        d="M187.5 37.5A37.5 37.5 0 0 1 150 75a37.5 37.5 0 0 1-37.5-37.5A37.5 37.5 0 0 1 150 0a37.5 37.5 0 0 1 37.5 37.5"
        class="north" />
    <path
        d="M67.775 33.046a37.5 37.5 0 0 0-23.84 10.888 37.5 37.5 0 0 0-.001 53.033 37.5 37.5 0 0 0 53.033 0 37.5 37.5 0 0 0 0-53.033 37.5 37.5 0 0 0-29.192-10.888m159.1 0a37.5 37.5 0 0 0-23.842 10.888 37.5 37.5 0 0 0 0 53.033 37.5 37.5 0 0 0 53.033 0 37.5 37.5 0 0 0 0-53.033 37.5 37.5 0 0 0-29.192-10.888m-159.099 159.1a37.5 37.5 0 0 0-23.84 10.887 37.5 37.5 0 0 0-.001 53.033 37.5 37.5 0 0 0 53.033 0 37.5 37.5 0 0 0 0-53.033 37.5 37.5 0 0 0-29.192-10.888m159.1 0a37.5 37.5 0 0 0-23.842 10.888 37.5 37.5 0 0 0 0 53.033 37.5 37.5 0 0 0 53.033 0 37.5 37.5 0 0 0 0-53.033 37.5 37.5 0 0 0-29.192-10.888"
        class="others" />
    <path
        d="M150 75a75 75 0 0 0-53.033 21.967 5 5 0 0 0 0 7.07l23.219 23.219A37.5 37.5 0 0 0 112.5 150a37.5 37.5 0 0 0 37.5 37.5 37.5 37.5 0 0 0 22.744-7.686l19.547 19.547A65 65 0 0 1 150 215a65 65 0 0 1-45.963-19.037 5 5 0 0 0-7.07 0 5 5 0 0 0 0 7.07 5 5 0 0 0 .492.432A75 75 0 0 0 150 225a75 75 0 0 0 52.541-21.535 5 5 0 0 0 .492-.432 5 5 0 0 0 0-7.07l-23.219-23.219A37.5 37.5 0 0 0 187.5 150a37.5 37.5 0 0 0-37.5-37.5 37.5 37.5 0 0 0-22.744 7.686l-19.547-19.547A65 65 0 0 1 150 85a65 65 0 0 1 45.885 18.959l.078.078a5 5 0 0 0 7.07 0 5 5 0 0 0 0-7.07 5 5 0 0 0-.492-.432A75 75 0 0 0 150 75m0 47.5a27.5 27.5 0 0 1 27.5 27.5 27.5 27.5 0 0 1-4.844 15.586l-38.242-38.242A27.5 27.5 0 0 1 150 122.5m-22.656 11.914 38.242 38.242A27.5 27.5 0 0 1 150 177.5a27.5 27.5 0 0 1-27.5-27.5 27.5 27.5 0 0 1 4.844-15.586"
        class="emblem" />
</svg>