<svg xmlns="http://www.w3.org/2000/svg" width="1000" height="1000">
    <style>
        @media (prefers-color-scheme: light) {
            path {
                fill: #000000;
            }
        }

        @media (prefers-color-scheme: dark) {
            path {
                fill: #ffffff;
            }
        }
    </style>
    <path
        d="M75 75v150h300v50H75v150h350v-50H125v-50h300V175H125v-50h750v50H575v150h300v50H575v50h350V275H625v-50h300V75H75zm400 100v300H75v50h400v100h400v50H475v150h400v50H425V575H75v150h200v50H75v150h250v-50H125v-50h200V675H125v-50h250v300h550V775H525v-50h400V575H525v-50h400v-50H525V175h-50z" />
</svg>