<svg width="500" height="850" xmlns="http://www.w3.org/2000/svg">
    <path
        d="M 55.65625 401.90234 L 42.126953 415.43359 L 42.126953 434.56641 L 55.65625 448.09766 L 74.791016 448.09766 L 88.320312 434.56641 L 88.320312 415.43359 L 74.791016 401.90234 L 55.65625 401.90234 z M 240.43359 401.90234 L 226.90234 415.43359 L 226.90234 434.56641 L 240.43359 448.09766 L 259.56641 448.09766 L 273.09766 434.56641 L 273.09766 415.43359 L 259.56641 401.90234 L 240.43359 401.90234 z M 425.20898 401.90234 L 411.67969 415.43359 L 411.67969 434.56641 L 425.20898 448.09766 L 444.34375 448.09766 L 457.87305 434.56641 L 457.87305 415.43359 L 444.34375 401.90234 L 425.20898 401.90234 z " />
    <path
        d="M 202.16406 309.51562 L 134.51562 377.16406 L 134.51562 472.83594 L 202.16406 540.48438 L 297.83594 540.48438 L 365.48438 472.83594 L 365.48438 377.16406 L 297.83594 309.51562 L 202.16406 309.51562 z M 221.30078 355.70898 L 278.69922 355.70898 L 278.69922 355.71094 L 319.28906 396.30078 L 319.28906 453.69922 L 278.69922 494.28906 L 221.30078 494.28906 L 180.71094 453.69922 L 180.71094 396.29883 L 221.30078 355.70898 z " />
</svg>