<svg width="500" height="850" xmlns="http://www.w3.org/2000/svg">
    <path
        d="M -254.7832 114.33594 L -261.54883 121.10156 L -261.54883 130.66797 L -254.7832 137.43359 L -261.54883 144.19727 L -268.3125 137.43359 L -277.88086 137.43359 L -284.64453 144.19727 L -284.64453 153.76562 L -277.88086 160.5293 L -268.3125 160.5293 L -261.54883 153.76562 L -254.7832 160.5293 L -261.54883 167.29492 L -261.54883 176.86133 L -254.7832 183.62695 L -245.2168 183.62695 L -238.45117 176.86133 L -238.45117 167.29492 L -245.2168 160.5293 L -238.45117 153.76562 L -231.6875 160.5293 L -222.11914 160.5293 L -215.35547 153.76562 L -215.35547 144.19727 L -222.11914 137.43359 L -231.6875 137.43359 L -238.45117 144.19727 L -245.2168 137.43359 L -238.45117 130.66797 L -238.45117 121.10156 L -245.2168 114.33594 L -254.7832 114.33594 z " />
</svg>