<svg width="500" height="850" xmlns="http://www.w3.org/2000/svg">
    <path
        d="m403.755 303.91-.002-19.134-13.529-13.529-19.135-.001L96.245 546.089l.002 19.136 13.529 13.528 19.135.001z" />
    <path
        d="m128.91 271.245-19.134.002-13.529 13.529-.001 19.135 274.843 274.844 19.136-.002 13.528-13.529.001-19.135z" />
    <path
        d="M 202.16406 309.51562 L 148.04492 363.63477 L 134.51562 377.16406 L 134.51562 396.29883 L 148.04492 409.82812 L 167.17969 409.82812 L 180.70898 396.29883 L 221.29883 355.70898 L 278.69922 355.70898 L 278.69922 355.71094 L 319.28906 396.29883 L 319.28906 396.30078 L 332.82031 409.83008 L 351.95312 409.83008 L 365.48438 396.30078 L 365.48438 377.16406 L 351.95508 363.63477 L 297.83594 309.51562 L 202.16406 309.51562 z M 148.04688 440.16992 L 134.51562 453.69922 L 134.51562 472.83594 L 148.04492 486.36523 L 202.16406 540.48438 L 297.83594 540.48438 L 351.95508 486.36523 L 365.48438 472.83594 L 365.48438 453.70117 L 351.95508 440.17188 L 332.82031 440.17188 L 319.29102 453.70117 L 278.70117 494.29102 L 221.30078 494.29102 L 221.30078 494.28906 L 180.71094 453.70117 L 180.71094 453.69922 L 167.17969 440.16992 L 148.04688 440.16992 z " />
</svg>