<svg width="500" height="850" xmlns="http://www.w3.org/2000/svg">
    <path d="M 163.89648 217.12695 L 163.89648 217.12891 L 55.65625 325.36719 L 42.126953 338.89648 L 42.126953 338.89844 L 42.126953 358.03125 L 42.126953 491.9707 L 42.126953 511.10352 L 55.65625 524.63281 L 163.89648 632.87305 L 336.10352 632.87305 L 444.3457 524.63281 L 457.87305 511.10352 L 457.875 511.10352 L 457.875 491.9707 L 457.87305 491.96875 L 457.87305 358.03125 L 457.875 358.0293 L 457.87305 338.89648 L 444.34375 325.36719 L 336.10352 217.12891 L 336.10352 217.12695 L 163.89648 217.12695 z M 183.03125 263.32227 L 316.9707 263.32227 L 411.67969 358.0293 L 411.67969 358.03125 L 411.67969 491.9707 L 316.9707 586.67969 L 183.0293 586.67969 L 88.320312 491.9707 L 88.320312 358.03125 L 88.320312 358.0293 L 183.03125 263.32227 z "/>
</svg>