<svg width="500" height="850" xmlns="http://www.w3.org/2000/svg">
    <path
        d="M 202.16406 309.51562 L 148.04492 363.63477 L 134.51562 377.16406 L 134.51562 396.29883 L 148.04492 409.82812 L 167.17969 409.82812 L 180.70898 396.29883 L 221.29883 355.70898 L 278.69922 355.70898 L 319.28906 396.29883 L 319.28906 453.69922 L 278.69922 494.28906 L 221.30078 494.28906 L 180.71094 453.69922 L 167.17969 440.16992 L 148.04688 440.16992 L 134.51562 453.69922 L 134.51562 472.83594 L 148.04492 486.36523 L 202.16406 540.48438 L 297.83594 540.48438 L 365.48438 472.83594 L 365.48438 377.16406 L 297.83594 309.51562 L 202.16406 309.51562 z " />
    <path
        d="M 202.16406 309.51562 L 148.04492 363.63477 L 134.51562 377.16406 L 134.51562 396.29883 L 148.04492 409.82812 L 167.17969 409.82812 L 180.70898 396.29883 L 221.29883 355.70898 L 278.69922 355.70898 L 319.28906 396.29883 L 319.28906 453.69922 L 278.69922 494.28906 L 221.30078 494.28906 L 180.71094 453.69922 L 167.17969 440.16992 L 148.04688 440.16992 L 134.51562 453.69922 L 134.51562 472.83594 L 148.04492 486.36523 L 202.16406 540.48438 L 297.83594 540.48438 L 365.48438 472.83594 L 365.48438 377.16406 L 297.83594 309.51562 L 202.16406 309.51562 z " />
</svg>