<svg width="500" height="850" xmlns="http://www.w3.org/2000/svg" xmlns:svg="http://www.w3.org/2000/svg">
    <path
        d="M 250 200 A 225 225 0 0 0 25 425 A 225 225 0 0 0 250 650 A 225 225 0 0 0 406.64062 586.25586 A 25 25 0 0 0 409.09961 584.09961 A 25 25 0 0 0 409.09961 548.74414 A 25 25 0 0 0 373.74414 548.74414 L 373.625 548.86328 A 175 175 0 0 1 250 600 A 175 175 0 0 1 76.794922 450 L 450 450 A 25 25 0 0 0 475 425 A 25 25 0 0 0 474.78516 421.73633 A 225 225 0 0 0 250 200 z M 250 250 A 175 175 0 0 1 423.20508 400 L 76.794922 400 A 175 175 0 0 1 250 250 z " />
</svg>