<?xml version="1.0" encoding="UTF-8" standalone="no"?>
<svg width="500" height="850" version="1.1" id="svg1" sodipodi:docname="uni0033.svg" inkscape:version="1.4.2 (ebf0e940, 2025-05-08)" xmlns:inkscape="http://www.inkscape.org/namespaces/inkscape" xmlns:sodipodi="http://sodipodi.sourceforge.net/DTD/sodipodi-0.dtd" xmlns="http://www.w3.org/2000/svg" xmlns:svg="http://www.w3.org/2000/svg">
    <defs id="defs1" />
    <sodipodi:namedview id="namedview1" pagecolor="#ffffff" bordercolor="#000000" borderopacity="0.25" inkscape:showpageshadow="2" inkscape:pageopacity="0.0" inkscape:pagecheckerboard="0" inkscape:deskcolor="#d1d1d1" inkscape:zoom="0.53647059" inkscape:cx="249.7807" inkscape:cy="425" inkscape:window-width="1080" inkscape:window-height="675" inkscape:window-x="0" inkscape:window-y="25" inkscape:window-maximized="0" inkscape:current-layer="svg1" />
    <path id="path1" d="M 300,0 A 175,175 0 0 1 475,175 175,175 0 0 1 389.82617,325 175,175 0 0 1 475,475 175,175 0 0 1 300,650 H 250 50 A 25,25 0 0 1 25,625 25,25 0 0 1 50,600 h 200 50 A 125,125 0 0 0 425,475 125,125 0 0 0 300,350 H 250 150 a 25,25 0 0 1 -25,-25 25,25 0 0 1 25,-25 h 100 50 A 125,125 0 0 0 425,175 125,125 0 0 0 300,50 H 250 50 A 25,25 0 0 1 25,25 25,25 0 0 1 50,0 h 200 z" />
</svg>
