<svg width="500" height="850" xmlns="http://www.w3.org/2000/svg" xmlns:svg="http://www.w3.org/2000/svg">
    <path
        d="M 50 300 A 25 25 0 0 0 25.214844 321.72852 L 25.214844 321.73633 A 25 25 0 0 0 25 325 A 25 25 0 0 0 25.214844 328.26367 L 25.214844 328.27148 A 25 25 0 0 0 50 350 L 450 350 A 25 25 0 0 0 474.78516 328.27148 L 474.78516 328.26367 A 25 25 0 0 0 475 325 A 25 25 0 0 0 474.78516 321.73633 L 474.78516 321.72852 A 25 25 0 0 0 450 300 L 50 300 z M 50 500 A 25 25 0 0 0 25.214844 521.72852 L 25.214844 521.73633 A 25 25 0 0 0 25 525 A 25 25 0 0 0 25.214844 528.26367 L 25.214844 528.27148 A 25 25 0 0 0 50 550 L 450 550 A 25 25 0 0 0 474.78516 528.27148 L 474.78516 528.26367 A 25 25 0 0 0 475 525 A 25 25 0 0 0 474.78516 521.73633 L 474.78516 521.72852 A 25 25 0 0 0 450 500 L 50 500 z " />
</svg>