<?xml version="1.0" encoding="UTF-8" standalone="no"?>
<svg width="500" height="850" xmlns:inkscape="http://www.inkscape.org/namespaces/inkscape"
    xmlns:sodipodi="http://sodipodi.sourceforge.net/DTD/sodipodi-0.dtd" xmlns="http://www.w3.org/2000/svg"
    xmlns:svg="http://www.w3.org/2000/svg">
    <path id="path2"
        d="M 50,0 C 36.192881,0 25,11.192881 25,25 v 300 c 0,13.80712 11.192881,25 25,25 h 250 c 69.03559,0 125,55.96441 125,125 0,69.03559 -55.96441,125 -125,125 H 50 c -13.807119,0 -25,11.19288 -25,25 0,13.80712 11.192881,25 25,25 h 250 c 96.64983,0 175,-78.35017 175,-175 0,-96.64983 -78.35017,-175 -175,-175 H 75 V 50 H 450 C 463.80712,50 475,38.807119 475,25 475,11.192881 463.80712,0 450,0 Z"
        sodipodi:nodetypes="sssssssssssssccssss" />
</svg>