<?xml version="1.0" encoding="UTF-8" standalone="no"?>
<svg width="500" height="850" version="1.1" id="svg4" sodipodi:docname="uni0037.svg" inkscape:version="1.4.2 (ebf0e940, 2025-05-08)" xmlns:inkscape="http://www.inkscape.org/namespaces/inkscape" xmlns:sodipodi="http://sodipodi.sourceforge.net/DTD/sodipodi-0.dtd" xmlns="http://www.w3.org/2000/svg" xmlns:svg="http://www.w3.org/2000/svg">
    <defs id="defs4" />
    <sodipodi:namedview id="namedview4" pagecolor="#ffffff" bordercolor="#000000" borderopacity="0.25" inkscape:showpageshadow="2" inkscape:pageopacity="0.0" inkscape:pagecheckerboard="0" inkscape:deskcolor="#d1d1d1" inkscape:zoom="0.59529412" inkscape:cx="250.29644" inkscape:cy="425" inkscape:window-width="888" inkscape:window-height="725" inkscape:window-x="0" inkscape:window-y="25" inkscape:window-maximized="0" inkscape:current-layer="svg4" />
    <path id="circle1" d="M 50 0 A 25 25 0 0 0 25 25 A 25 25 0 0 0 50 50 L 415.31445 50 L 226.2832 617.09375 L 226.28711 617.0957 A 25 25 0 0 0 225 625 A 25 25 0 0 0 250 650 A 25 25 0 0 0 273.71289 632.9043 L 273.7168 632.90625 L 473.7168 32.90625 L 473.71289 32.904297 A 25 25 0 0 0 475 25 A 25 25 0 0 0 450 0 L 50 0 z " />
</svg>
