<?xml version="1.0" encoding="UTF-8" standalone="no"?>
<svg width="500" height="850" version="1.1" id="svg1" sodipodi:docname="uni0038.svg" inkscape:version="1.4.2 (ebf0e940, 2025-05-08)" xmlns:inkscape="http://www.inkscape.org/namespaces/inkscape" xmlns:sodipodi="http://sodipodi.sourceforge.net/DTD/sodipodi-0.dtd" xmlns="http://www.w3.org/2000/svg" xmlns:svg="http://www.w3.org/2000/svg">
    <defs id="defs1" />
    <sodipodi:namedview id="namedview1" pagecolor="#ffffff" bordercolor="#000000" borderopacity="0.25" inkscape:showpageshadow="2" inkscape:pageopacity="0.0" inkscape:pagecheckerboard="0" inkscape:deskcolor="#d1d1d1" inkscape:zoom="0.53647059" inkscape:cx="249.7807" inkscape:cy="425" inkscape:window-width="1080" inkscape:window-height="675" inkscape:window-x="0" inkscape:window-y="25" inkscape:window-maximized="0" inkscape:current-layer="svg1" />
    <path id="path1" d="M 200 0 A 175 175 0 0 0 25.214844 171.73633 A 25 25 0 0 0 25 175 A 25 25 0 0 0 25 175.0625 A 175 175 0 0 0 110.17383 325 A 175 175 0 0 0 25 474.9375 A 25 25 0 0 0 25 475 A 25 25 0 0 0 25.214844 478.26367 A 175 175 0 0 0 200 650 L 250 650 L 300 650 A 175 175 0 0 0 474.78516 478.26367 A 25 25 0 0 0 475 475 A 25 25 0 0 0 475 474.9375 A 175 175 0 0 0 389.82617 325 A 175 175 0 0 0 475 175.0625 A 175 175 0 0 0 475 175 A 25 25 0 0 0 474.78516 171.73633 A 175 175 0 0 0 300 0 L 250 0 L 200 0 z M 200 50 L 250 50 L 300 50 A 125 125 0 0 1 425 175 A 125 125 0 0 1 300 300 L 250 300 L 200 300 A 125 125 0 0 1 75 175 A 125 125 0 0 1 200 50 z M 200 350 L 250 350 L 300 350 A 125 125 0 0 1 425 475 A 125 125 0 0 1 300 600 L 250 600 L 200 600 A 125 125 0 0 1 75 475 A 125 125 0 0 1 200 350 z " />
</svg>
