<?xml version="1.0" encoding="UTF-8" standalone="no"?>
<svg width="500" height="850" xmlns:inkscape="http://www.inkscape.org/namespaces/inkscape"
    xmlns:sodipodi="http://sodipodi.sourceforge.net/DTD/sodipodi-0.dtd" xmlns="http://www.w3.org/2000/svg"
    xmlns:svg="http://www.w3.org/2000/svg">
    <path
        d="M 450 200 A 25 25 0 0 0 438.82031 202.63867 L 38.820312 402.63867 A 25 25 0 0 0 25 425 A 25 25 0 0 0 38.820312 447.36133 L 438.82031 647.36133 A 25 25 0 0 0 450 650 A 25 25 0 0 0 475 625 A 25 25 0 0 0 461.17969 602.63867 L 105.90234 425 L 461.17969 247.36133 A 25 25 0 0 0 475 225 A 25 25 0 0 0 450 200 z " />
</svg>