<?xml version="1.0" encoding="UTF-8" standalone="no"?>
<svg width="500" height="850" version="1.1" id="svg6" sodipodi:docname="uni005b.svg"
    inkscape:version="1.4.2 (ebf0e940, 2025-05-08)" xmlns:inkscape="http://www.inkscape.org/namespaces/inkscape"
    xmlns:sodipodi="http://sodipodi.sourceforge.net/DTD/sodipodi-0.dtd" xmlns="http://www.w3.org/2000/svg"
    xmlns:svg="http://www.w3.org/2000/svg">
    <defs id="defs6" />
    <sodipodi:namedview id="namedview6" pagecolor="#ffffff" bordercolor="#000000" borderopacity="0.25"
        inkscape:showpageshadow="2" inkscape:pageopacity="0.0" inkscape:pagecheckerboard="0"
        inkscape:deskcolor="#d1d1d1" inkscape:zoom="0.59529412" inkscape:cx="250.29644" inkscape:cy="425"
        inkscape:window-width="888" inkscape:window-height="725" inkscape:window-x="0" inkscape:window-y="25"
        inkscape:window-maximized="0" inkscape:current-layer="svg6" />
    <path
        d="m 350,100 a 25,25 0 0 1 25,25 25,25 0 0 1 -25,25 H 250 175 v 550 h 75 100 a 25,25 0 0 1 25,25 25,25 0 0 1 -25,25 H 250 150 A 25,25 0 0 1 146.73633,749.78516 25,25 0 0 1 125,725 V 125 a 25,25 0 0 1 25,-25 h 100 z" />
</svg>