<?xml version="1.0" encoding="UTF-8" standalone="no"?>
<svg width="500" height="850" xmlns:inkscape="http://www.inkscape.org/namespaces/inkscape"
    xmlns:sodipodi="http://sodipodi.sourceforge.net/DTD/sodipodi-0.dtd" xmlns="http://www.w3.org/2000/svg"
    xmlns:svg="http://www.w3.org/2000/svg">
    <path
        d="M 50 700 A 25 25 0 0 0 25.214844 721.72852 L 25.214844 721.73633 A 25 25 0 0 0 25 725 A 25 25 0 0 0 25.214844 728.26367 L 25.214844 728.27148 A 25 25 0 0 0 50 750 L 450 750 A 25 25 0 0 0 474.78516 728.27148 L 474.78516 728.26367 A 25 25 0 0 0 475 725 A 25 25 0 0 0 474.78516 721.73633 L 474.78516 721.72852 A 25 25 0 0 0 450 700 L 50 700 z " />
</svg>