<?xml version="1.0" encoding="UTF-8" standalone="no"?>
<svg width="500" height="850" xmlns:inkscape="http://www.inkscape.org/namespaces/inkscape"
    xmlns:sodipodi="http://sodipodi.sourceforge.net/DTD/sodipodi-0.dtd" xmlns="http://www.w3.org/2000/svg"
    xmlns:svg="http://www.w3.org/2000/svg">
    <path id="path8"
        d="M 150 100 A 25 25 0 0 0 125 125 A 25 25 0 0 0 150 150 A 175 175 0 0 1 325 325 L 325 525 A 175 175 0 0 1 150 700 A 25 25 0 0 0 125 725 A 25 25 0 0 0 150 750 A 25 25 0 0 0 153.26367 749.78516 A 225 225 0 0 0 375 525 L 375 325 A 225 225 0 0 0 153.26367 100.21484 A 25 25 0 0 0 150 100 z " />
</svg>