<?xml version="1.0" encoding="UTF-8" standalone="no"?>
<svg width="500" height="850" version="1.1" id="svg4" sodipodi:docname="uni005e.svg" inkscape:version="1.4.2 (ebf0e940, 2025-05-08)" xmlns:inkscape="http://www.inkscape.org/namespaces/inkscape" xmlns:sodipodi="http://sodipodi.sourceforge.net/DTD/sodipodi-0.dtd" xmlns="http://www.w3.org/2000/svg" xmlns:svg="http://www.w3.org/2000/svg">
    <defs id="defs4" />
    <sodipodi:namedview id="namedview4" pagecolor="#ffffff" bordercolor="#000000" borderopacity="0.25" inkscape:showpageshadow="2" inkscape:pageopacity="0.0" inkscape:pagecheckerboard="0" inkscape:deskcolor="#d1d1d1" inkscape:zoom="1.568" inkscape:cx="250" inkscape:cy="97.576531" inkscape:window-width="888" inkscape:window-height="725" inkscape:window-x="0" inkscape:window-y="25" inkscape:window-maximized="0" inkscape:current-layer="svg4" />
    <path id="circle1" d="M 250 0 A 25 25 0 0 0 232.32227 7.3222656 L 132.32227 107.32227 A 25 25 0 0 0 125 125 A 25 25 0 0 0 150 150 A 25 25 0 0 0 167.67773 142.67773 L 250 60.355469 L 332.32227 142.67773 A 25 25 0 0 0 350 150 A 25 25 0 0 0 375 125 A 25 25 0 0 0 367.67773 107.32227 L 267.67773 7.3222656 A 25 25 0 0 0 250 0 z " />
</svg>
