<?xml version="1.0" encoding="UTF-8" standalone="no"?>
<svg width="500" height="850" xmlns:inkscape="http://www.inkscape.org/namespaces/inkscape"
    xmlns:sodipodi="http://sodipodi.sourceforge.net/DTD/sodipodi-0.dtd" xmlns="http://www.w3.org/2000/svg"
    xmlns:svg="http://www.w3.org/2000/svg">
    <path
        d="m 350,100 a 25,25 0 0 1 25,25 25,25 0 0 1 -25,25 175,175 0 0 0 -175,175 v 200 a 175,175 0 0 0 175,175 25,25 0 0 1 25,25 25,25 0 0 1 -25,25 25,25 0 0 1 -3.26367,-0.21484 A 225,225 0 0 1 125,525 V 325 A 225,225 0 0 1 346.73633,100.21484 25,25 0 0 1 350,100 Z" />
</svg>