<?xml version="1.0" encoding="UTF-8" standalone="no"?>
<svg width="500" height="850" version="1.1" id="svg1" sodipodi:docname="uni0047.svg" inkscape:version="1.4.2 (ebf0e940, 2025-05-08)" xmlns:inkscape="http://www.inkscape.org/namespaces/inkscape" xmlns:sodipodi="http://sodipodi.sourceforge.net/DTD/sodipodi-0.dtd" xmlns="http://www.w3.org/2000/svg" xmlns:svg="http://www.w3.org/2000/svg">
    <defs id="defs1" />
    <sodipodi:namedview id="namedview1" pagecolor="#ffffff" bordercolor="#000000" borderopacity="0.25" inkscape:showpageshadow="2" inkscape:pageopacity="0.0" inkscape:pagecheckerboard="0" inkscape:deskcolor="#d1d1d1" inkscape:zoom="0.31652174" inkscape:cx="259.06593" inkscape:cy="426.51099" inkscape:window-width="1080" inkscape:window-height="675" inkscape:window-x="0" inkscape:window-y="25" inkscape:window-maximized="0" inkscape:current-layer="svg1" />
    <path id="path1" d="M 250 0 A 225 225 0 0 0 219.56055 2.1816406 A 225 225 0 0 0 211.56055 3.7285156 A 225 225 0 0 0 189.64648 8.46875 A 225 225 0 0 0 180.43164 11.503906 A 225 225 0 0 0 160.77148 18.777344 A 225 225 0 0 0 151.69141 23.111328 A 225 225 0 0 0 133.39258 33.009766 A 225 225 0 0 0 125.12305 38.34375 A 225 225 0 0 0 108.03516 50.990234 A 225 225 0 0 0 100.94141 56.966797 A 225 225 0 0 0 85.056641 72.638672 A 225 225 0 0 0 79.552734 78.625 A 225 225 0 0 0 25.214844 221.73633 A 25 25 0 0 0 25 225 L 25 425 A 25 25 0 0 0 25.214844 428.26367 A 225 225 0 0 0 79.552734 571.375 A 225 225 0 0 0 85.056641 577.36133 A 225 225 0 0 0 100.94141 593.0332 A 225 225 0 0 0 108.03516 599.00977 A 225 225 0 0 0 125.12305 611.65625 A 225 225 0 0 0 133.39258 616.99023 A 225 225 0 0 0 151.69141 626.88867 A 225 225 0 0 0 160.77148 631.22266 A 225 225 0 0 0 180.43164 638.49609 A 225 225 0 0 0 189.64648 641.53125 A 225 225 0 0 0 211.56055 646.27148 A 225 225 0 0 0 219.56055 647.81836 A 225 225 0 0 0 250 650 A 225 225 0 0 0 280.43945 647.81836 A 225 225 0 0 0 288.43945 646.27148 A 225 225 0 0 0 310.35352 641.53125 A 225 225 0 0 0 319.56836 638.49609 A 225 225 0 0 0 339.22852 631.22266 A 225 225 0 0 0 348.30859 626.88867 A 225 225 0 0 0 366.60742 616.99023 A 225 225 0 0 0 374.87695 611.65625 A 225 225 0 0 0 391.96484 599.00977 A 225 225 0 0 0 399.05859 593.0332 A 225 225 0 0 0 414.94336 577.36133 A 225 225 0 0 0 420.44727 571.375 A 225 225 0 0 0 425 565.90625 L 425 625 A 25 25 0 0 0 450 650 A 25 25 0 0 0 475 625 L 475 325 A 25 25 0 0 0 450 300 L 250 300 A 25 25 0 0 0 225 325 A 25 25 0 0 0 250 350 L 425 350 L 425 425 A 175 175 0 0 1 250 600 A 175 175 0 0 1 75 425 L 75 225 A 175 175 0 0 1 76.498047 202.1582 A 175 175 0 0 1 250 50 A 175 175 0 0 1 373.625 101.13672 L 373.74414 101.25586 A 25 25 0 0 0 409.09961 101.25586 A 25 25 0 0 0 409.09961 65.900391 A 25 25 0 0 0 405.38867 62.845703 A 225 225 0 0 0 399.05859 56.966797 A 225 225 0 0 0 391.96484 50.990234 A 225 225 0 0 0 374.87695 38.34375 A 225 225 0 0 0 366.60742 33.009766 A 225 225 0 0 0 348.30859 23.111328 A 225 225 0 0 0 339.22852 18.777344 A 225 225 0 0 0 319.56836 11.503906 A 225 225 0 0 0 310.35352 8.46875 A 225 225 0 0 0 288.43945 3.7285156 A 225 225 0 0 0 280.43945 2.1816406 A 225 225 0 0 0 250 0 z " />
</svg>
