<?xml version="1.0" encoding="UTF-8" standalone="no"?>
<svg width="500" height="850" xmlns:inkscape="http://www.inkscape.org/namespaces/inkscape"
    xmlns:sodipodi="http://sodipodi.sourceforge.net/DTD/sodipodi-0.dtd" xmlns="http://www.w3.org/2000/svg"
    xmlns:svg="http://www.w3.org/2000/svg">
    <path
        d="M 50 0 A 25 25 0 0 0 25 25 L 25 425 A 225 225 0 0 0 83.673828 575.85742 A 225 225 0 0 0 92.697266 585.67578 A 225 225 0 0 0 104.67188 596.17578 A 225 225 0 0 0 114.67188 604.60156 A 225 225 0 0 0 128.19922 613.64062 A 225 225 0 0 0 138.91992 620.55664 A 225 225 0 0 0 153.83789 627.91211 A 225 225 0 0 0 165.03711 633.25977 A 225 225 0 0 0 181.43164 638.82617 A 225 225 0 0 0 192.55664 642.49219 A 225 225 0 0 0 211.62305 646.2832 A 225 225 0 0 0 221.01953 648.09961 A 225 225 0 0 0 250 650 A 225 225 0 0 0 278.98047 648.09961 A 225 225 0 0 0 288.37695 646.2832 A 225 225 0 0 0 307.44336 642.49219 A 225 225 0 0 0 318.56836 638.82617 A 225 225 0 0 0 334.96289 633.25977 A 225 225 0 0 0 346.16211 627.91211 A 225 225 0 0 0 361.08008 620.55664 A 225 225 0 0 0 371.80078 613.64062 A 225 225 0 0 0 385.32812 604.60156 A 225 225 0 0 0 395.32812 596.17578 A 225 225 0 0 0 407.30273 585.67578 A 225 225 0 0 0 416.32617 575.85742 A 225 225 0 0 0 475 425 L 475 25 A 25 25 0 0 0 450 0 A 25 25 0 0 0 425 25 L 425 425 A 175 175 0 0 1 272.8418 598.50195 A 175 175 0 0 1 250 600 A 175 175 0 0 1 75 425 L 75 25 A 25 25 0 0 0 50 0 z " />
</svg>