<?xml version="1.0" encoding="UTF-8" standalone="no"?>
<svg width="500" height="850" version="1.1" id="svg1" sodipodi:docname="uni0035.svg" inkscape:version="1.4.2 (ebf0e940, 2025-05-08)" xmlns:inkscape="http://www.inkscape.org/namespaces/inkscape" xmlns:sodipodi="http://sodipodi.sourceforge.net/DTD/sodipodi-0.dtd" xmlns="http://www.w3.org/2000/svg" xmlns:svg="http://www.w3.org/2000/svg">
    <defs id="defs1" />
    <sodipodi:namedview id="namedview1" pagecolor="#ffffff" bordercolor="#000000" borderopacity="0.25" inkscape:showpageshadow="2" inkscape:pageopacity="0.0" inkscape:pagecheckerboard="0" inkscape:deskcolor="#d1d1d1" inkscape:zoom="0.50628299" inkscape:cx="310.10325" inkscape:cy="211.34425" inkscape:window-width="1080" inkscape:window-height="725" inkscape:window-x="0" inkscape:window-y="25" inkscape:window-maximized="0" inkscape:current-layer="svg1" />
    <path id="path2" d="M 50,0 C 36.192881,0 25,11.192881 25,25 v 300 c 0,13.80712 11.192881,25 25,25 h 250 c 69.03559,0 125,55.96441 125,125 0,69.03559 -55.96441,125 -125,125 H 50 c -13.807119,0 -25,11.19288 -25,25 0,13.80712 11.192881,25 25,25 h 250 c 96.64983,0 175,-78.35017 175,-175 0,-96.64983 -78.35017,-175 -175,-175 H 75 V 50 H 450 C 463.80712,50 475,38.807119 475,25 475,11.192881 463.80712,0 450,0 Z" sodipodi:nodetypes="sssssssssssssccssss" />
</svg>
