<?xml version="1.0" encoding="UTF-8" standalone="no"?>
<svg width="500" height="850" version="1.1" id="svg1" sodipodi:docname="uni0028.svg" inkscape:version="1.4.2 (ebf0e940, 2025-05-08)" xmlns:inkscape="http://www.inkscape.org/namespaces/inkscape" xmlns:sodipodi="http://sodipodi.sourceforge.net/DTD/sodipodi-0.dtd" xmlns="http://www.w3.org/2000/svg" xmlns:svg="http://www.w3.org/2000/svg">
    <defs id="defs1" />
    <sodipodi:namedview id="namedview1" pagecolor="#ffffff" bordercolor="#000000" borderopacity="0.25" inkscape:showpageshadow="2" inkscape:pageopacity="0.0" inkscape:pagecheckerboard="0" inkscape:deskcolor="#d1d1d1" inkscape:zoom="0.62470588" inkscape:cx="249.71751" inkscape:cy="425" inkscape:window-width="888" inkscape:window-height="750" inkscape:window-x="0" inkscape:window-y="25" inkscape:window-maximized="0" inkscape:current-layer="svg1" />
    <path id="path8" d="m 350,100 a 25,25 0 0 1 25,25 25,25 0 0 1 -25,25 175,175 0 0 0 -175,175 v 200 a 175,175 0 0 0 175,175 25,25 0 0 1 25,25 25,25 0 0 1 -25,25 25,25 0 0 1 -3.26367,-0.21484 A 225,225 0 0 1 125,525 V 325 A 225,225 0 0 1 346.73633,100.21484 25,25 0 0 1 350,100 Z" />
</svg>
