<?xml version="1.0" encoding="UTF-8" standalone="no"?>
<svg width="500" height="850" version="1.1" id="svg1" sodipodi:docname="uni003f.svg" inkscape:version="1.4.2 (ebf0e940, 2025-05-08)" xmlns:inkscape="http://www.inkscape.org/namespaces/inkscape" xmlns:sodipodi="http://sodipodi.sourceforge.net/DTD/sodipodi-0.dtd" xmlns="http://www.w3.org/2000/svg" xmlns:svg="http://www.w3.org/2000/svg">
    <defs id="defs1" />
    <sodipodi:namedview id="namedview1" pagecolor="#ffffff" bordercolor="#000000" borderopacity="0.25" inkscape:showpageshadow="2" inkscape:pageopacity="0.0" inkscape:pagecheckerboard="0" inkscape:deskcolor="#d1d1d1" inkscape:zoom="0.59529412" inkscape:cx="250.29644" inkscape:cy="425" inkscape:window-width="888" inkscape:window-height="725" inkscape:window-x="0" inkscape:window-y="25" inkscape:window-maximized="0" inkscape:current-layer="svg1" />
    <path id="path2" d="M 250 0 A 225 225 0 0 0 90.900391 65.900391 A 225 225 0 0 0 25.212891 221.73633 A 25 25 0 0 0 25 225 A 25 25 0 0 0 50 250 A 25 25 0 0 0 75 225 L 75 224.83203 A 175 175 0 0 1 126.25586 101.25586 A 175 175 0 0 1 373.74414 101.25586 A 175 175 0 0 1 373.74414 348.74414 A 175 175 0 0 1 250.17773 400 L 250 400 A 25 25 0 0 0 243.5293 400.85156 A 25 25 0 0 0 237.5 403.34961 A 25 25 0 0 0 225.85156 418.5293 A 25 25 0 0 0 225 425 L 225 525 A 25 25 0 0 0 250 550 A 25 25 0 0 0 275 525 L 275 448.43555 A 225 225 0 0 0 409.09961 384.09961 A 225 225 0 0 0 409.09961 65.900391 A 225 225 0 0 0 250 0 z M 250 600 A 25 25 0 0 0 225 625 A 25 25 0 0 0 250 650 A 25 25 0 0 0 275 625 A 25 25 0 0 0 250 600 z " />
</svg>
