<svg width="500" height="850" xmlns="http://www.w3.org/2000/svg" xmlns:svg="http://www.w3.org/2000/svg">
    <path
        d="M 300,0 A 175,175 0 0 1 475,175 175,175 0 0 1 389.82617,325 175,175 0 0 1 475,475 175,175 0 0 1 300,650 H 250 50 A 25,25 0 0 1 25,625 25,25 0 0 1 50,600 h 200 50 A 125,125 0 0 0 425,475 125,125 0 0 0 300,350 H 250 150 a 25,25 0 0 1 -25,-25 25,25 0 0 1 25,-25 h 100 50 A 125,125 0 0 0 425,175 125,125 0 0 0 300,50 H 250 50 A 25,25 0 0 1 25,25 25,25 0 0 1 50,0 h 200 z" />
</svg>