<?xml version="1.0" encoding="UTF-8" standalone="no"?>
<svg width="500" height="850" version="1.1" id="svg1" sodipodi:docname="uni003b.svg" inkscape:version="1.4.2 (ebf0e940, 2025-05-08)" xmlns:inkscape="http://www.inkscape.org/namespaces/inkscape" xmlns:sodipodi="http://sodipodi.sourceforge.net/DTD/sodipodi-0.dtd" xmlns="http://www.w3.org/2000/svg" xmlns:svg="http://www.w3.org/2000/svg">
    <defs id="defs1" />
    <sodipodi:namedview id="namedview1" pagecolor="#ffffff" bordercolor="#000000" borderopacity="0.25" inkscape:showpageshadow="2" inkscape:pageopacity="0.0" inkscape:pagecheckerboard="0" inkscape:deskcolor="#d1d1d1" inkscape:zoom="0.34976982" inkscape:cx="260.1711" inkscape:cy="425.99444" inkscape:window-width="1080" inkscape:window-height="725" inkscape:window-x="0" inkscape:window-y="25" inkscape:window-maximized="0" inkscape:current-layer="svg1" />
    <path id="path2" d="M 250 200 A 25 25 0 0 0 225 225 A 25 25 0 0 0 250 250 A 25 25 0 0 0 275 225 A 25 25 0 0 0 250 200 z M 250 600 A 25 25 0 0 0 225 625 L 225 725 A 25 25 0 0 0 250 750 A 25 25 0 0 0 275 725 L 275 625 A 25 25 0 0 0 250 600 z " />
</svg>
