<?xml version="1.0" encoding="UTF-8" standalone="no"?>
<svg width="500" height="850" xmlns:inkscape="http://www.inkscape.org/namespaces/inkscape"
    xmlns:sodipodi="http://sodipodi.sourceforge.net/DTD/sodipodi-0.dtd" xmlns="http://www.w3.org/2000/svg"
    xmlns:svg="http://www.w3.org/2000/svg">
    <path
        d="M 50 0 A 25 25 0 0 0 25 25 L 25 625 A 25 25 0 0 0 50 650 A 25 25 0 0 0 75 625 L 75 154.81641 L 226.78711 534.28516 A 25 25 0 0 0 250 550 A 25 25 0 0 0 273.21289 534.28516 L 425 154.81641 L 425 625 A 25 25 0 0 0 450 650 A 25 25 0 0 0 475 625 L 475 25 A 25 25 0 0 0 450 0 A 25 25 0 0 0 426.78711 15.714844 L 250 457.68359 L 73.212891 15.714844 A 25 25 0 0 0 50 0 z " />
</svg>