<svg width="500" height="850" xmlns="http://www.w3.org/2000/svg" xmlns:svg="http://www.w3.org/2000/svg">
    <path
        d="M 250 200 A 225 225 0 0 0 25 425 A 225 225 0 0 0 250 650 A 225 225 0 0 0 406.64062 586.25586 A 25 25 0 0 0 409.09961 584.09961 A 25 25 0 0 0 409.09961 548.74414 A 25 25 0 0 0 373.74414 548.74414 L 373.625 548.86328 A 175 175 0 0 1 250 600 A 175 175 0 0 1 75 425 A 175 175 0 0 1 250 250 A 175 175 0 0 1 373.625 301.13672 L 373.74414 301.25586 A 25 25 0 0 0 409.09961 301.25586 A 25 25 0 0 0 409.09961 265.90039 A 25 25 0 0 0 406.64062 263.74414 A 225 225 0 0 0 250 200 z " />
</svg>