<?xml version="1.0" encoding="UTF-8" standalone="no"?>
<svg width="500" height="850" xmlns:inkscape="http://www.inkscape.org/namespaces/inkscape"
    xmlns:sodipodi="http://sodipodi.sourceforge.net/DTD/sodipodi-0.dtd" xmlns="http://www.w3.org/2000/svg"
    xmlns:svg="http://www.w3.org/2000/svg">
    <path
        d="M 50 0 A 25 25 0 0 0 25 25 L 25 225 A 225 225 0 0 0 250 450 A 225 225 0 0 0 425 366.42188 L 425 425 A 175 175 0 0 1 250 600 L 50 600 A 25 25 0 0 0 25 625 A 25 25 0 0 0 50 650 L 250 650 A 225 225 0 0 0 474.78516 428.26367 A 25 25 0 0 0 475 425 L 475 25 A 25 25 0 0 0 450 0 A 25 25 0 0 0 425 25 L 425 225 A 175 175 0 0 1 250 400 A 175 175 0 0 1 75 225 L 75 25 A 25 25 0 0 0 50 0 z " />
</svg>