<?xml version="1.0" encoding="UTF-8" standalone="no"?>
<svg width="500" height="850" xmlns:inkscape="http://www.inkscape.org/namespaces/inkscape"
    xmlns:sodipodi="http://sodipodi.sourceforge.net/DTD/sodipodi-0.dtd" xmlns="http://www.w3.org/2000/svg"
    xmlns:svg="http://www.w3.org/2000/svg">
    <path id="path2"
        d="M 250 0 A 225 225 0 0 0 219.56055 2.1816406 A 225 225 0 0 0 211.56055 3.7285156 A 225 225 0 0 0 189.64648 8.46875 A 225 225 0 0 0 180.43164 11.503906 A 225 225 0 0 0 160.77148 18.777344 A 225 225 0 0 0 151.69141 23.111328 A 225 225 0 0 0 133.39258 33.009766 A 225 225 0 0 0 125.12305 38.34375 A 225 225 0 0 0 108.03516 50.990234 A 225 225 0 0 0 100.94141 56.966797 A 225 225 0 0 0 85.056641 72.638672 A 225 225 0 0 0 79.552734 78.625 A 225 225 0 0 0 25.214844 221.73633 A 25 25 0 0 0 25 225 L 25 425 A 25 25 0 0 0 25.214844 428.26367 A 225 225 0 0 0 79.552734 571.375 A 225 225 0 0 0 85.056641 577.36133 A 225 225 0 0 0 100.94141 593.0332 A 225 225 0 0 0 108.03516 599.00977 A 225 225 0 0 0 125.12305 611.65625 A 225 225 0 0 0 133.39258 616.99023 A 225 225 0 0 0 151.69141 626.88867 A 225 225 0 0 0 160.77148 631.22266 A 225 225 0 0 0 180.43164 638.49609 A 225 225 0 0 0 189.64648 641.53125 A 225 225 0 0 0 211.56055 646.27148 A 225 225 0 0 0 219.56055 647.81836 A 225 225 0 0 0 250 650 A 225 225 0 0 0 280.43945 647.81836 A 225 225 0 0 0 288.43945 646.27148 A 225 225 0 0 0 310.35352 641.53125 A 225 225 0 0 0 319.56836 638.49609 A 225 225 0 0 0 339.22852 631.22266 A 225 225 0 0 0 348.30859 626.88867 A 225 225 0 0 0 366.60742 616.99023 A 225 225 0 0 0 374.87695 611.65625 A 225 225 0 0 0 391.96484 599.00977 A 225 225 0 0 0 399.05859 593.0332 A 225 225 0 0 0 414.94336 577.36133 A 225 225 0 0 0 420.44727 571.375 A 225 225 0 0 0 474.78516 428.26367 A 25 25 0 0 0 475 425 L 475 225 A 25 25 0 0 0 474.78516 221.73633 A 225 225 0 0 0 420.44727 78.625 A 225 225 0 0 0 414.94336 72.638672 A 225 225 0 0 0 399.05859 56.966797 A 225 225 0 0 0 391.96484 50.990234 A 225 225 0 0 0 374.87695 38.34375 A 225 225 0 0 0 366.60742 33.009766 A 225 225 0 0 0 348.30859 23.111328 A 225 225 0 0 0 339.22852 18.777344 A 225 225 0 0 0 319.56836 11.503906 A 225 225 0 0 0 310.35352 8.46875 A 225 225 0 0 0 288.43945 3.7285156 A 225 225 0 0 0 280.43945 2.1816406 A 225 225 0 0 0 250 0 z M 250 50 A 175 175 0 0 1 425 225 L 425 425 A 175 175 0 0 1 250 600 A 175 175 0 0 1 75 425 L 75 225 A 175 175 0 0 1 76.498047 202.1582 A 175 175 0 0 1 250 50 z " />
</svg>