<svg width="500" height="850" xmlns="http://www.w3.org/2000/svg" xmlns:svg="http://www.w3.org/2000/svg">
  <path
    d="M250 0a225 225 0 0 0-58.234 7.666A225 225 0 0 0 137.5 30.145 225 225 0 0 0 90.902 65.9a225 225 0 0 0-19.04 21.71l-.007.007a225 225 0 0 0-15.716 23.395l-.387.578a225 225 0 0 0-12.893 25.822 225 225 0 0 0-9.486 27.274 225 225 0 0 0-8.158 57.03l-.002.02a225 225 0 0 0-.213 3.26V225a25 25 0 0 0 .215 3.264A25 25 0 0 0 50 250a25 25 0 0 0 25-25v-.168a175 175 0 0 1 .855-12.887 175 175 0 0 1 .655-9.85 175 175 0 0 1 2.556-12.855 175 175 0 0 1 1.914-9.586 175 175 0 0 1 4.374-12.879 175 175 0 0 1 2.986-8.78 175 175 0 0 1 6.681-13.552 175 175 0 0 1 3.436-6.963 175 175 0 0 1 12.707-19.013 175 175 0 0 1 15.092-17.211h.002a175 175 0 0 1 17.209-15.094 175 175 0 0 1 39.562-22.842 175 175 0 0 1 21.678-7.357A175 175 0 0 1 250 50h.18a175 175 0 0 1 12.875.855 175 175 0 0 1 10.162.717 175 175 0 0 1 12.543 2.494 175 175 0 0 1 9.832 1.998 175 175 0 0 1 12.633 4.29 175 175 0 0 1 8.95 3.07 175 175 0 0 1 12.6 6.213 175 175 0 0 1 7.852 3.892 175 175 0 0 1 12.99 8.682 175 175 0 0 1 5.97 4.002 175 175 0 0 1 17.157 15.043v.002a175 175 0 0 1 15.094 17.209 175 175 0 0 1 12.709 19.021 175 175 0 0 1 3.426 6.944 175 175 0 0 1 6.69 13.562 175 175 0 0 1 2.603 7.656 175 175 0 0 1 4.757 14.018 175 175 0 0 1 1.262 6.316 175 175 0 0 1 3.21 16.131 175 175 0 0 1 .59 8.94A175 175 0 0 1 425 225a175 175 0 0 1-51.256 123.744v.002a175 175 0 0 1-17.21 15.092 175 175 0 0 1-19.014 12.705 175 175 0 0 1-6.952 3.43 175 175 0 0 1-13.562 6.69 175 175 0 0 1-7.656 2.603 175 175 0 0 1-14.018 4.757 175 175 0 0 1-7.957 1.59 175 175 0 0 1-14.47 2.88 175 175 0 0 1-8.96.593 175 175 0 0 1-13.777.916h-.121l-.068-.004h-.002a25 25 0 0 0-3.24.213 225 225 0 0 0-28.788 2.246 225 225 0 0 0-28.262 5.914h-.001l-.045.016a225 225 0 0 0-27.229 9.47 225 225 0 0 0-25.83 12.899l-.004.002-.205.138a225 225 0 0 0-23.756 15.958l-.008.005A225 225 0 0 0 90.9 465.9a225 225 0 0 0-58.234 100.864v.002a225 225 0 0 0-7.451 54.963A225 225 0 0 0 25 625a25 25 0 0 0 .215 3.264v.007A25 25 0 0 0 50 650h400a25 25 0 0 0 24.785-21.729v-.007A25 25 0 0 0 475 625a25 25 0 0 0-.215-3.264v-.007A25 25 0 0 0 450 600H76.795a175 175 0 0 1 49.46-98.744v-.002a175 175 0 0 1 17.212-15.092 175 175 0 0 1 19.013-12.705 175 175 0 0 1 6.952-3.43 175 175 0 0 1 13.562-6.69 175 175 0 0 1 7.656-2.603 175 175 0 0 1 14.018-4.757 175 175 0 0 1 7.957-1.59 175 175 0 0 1 14.47-2.88 175 175 0 0 1 8.96-.593 175 175 0 0 1 13.777-.916h.121l.068.004h.002a25 25 0 0 0 3.24-.213 225 225 0 0 0 28.788-2.246 225 225 0 0 0 28.262-5.914h.001l.045-.016a225 225 0 0 0 27.229-9.47 225 225 0 0 0 25.83-12.899l.004-.002.205-.138a225 225 0 0 0 23.756-15.958l.008-.005A225 225 0 0 0 409.1 384.1a225 225 0 0 0 58.234-100.864v-.002a225 225 0 0 0 7.453-54.968v-.002A225 225 0 0 0 475 225l.002-.021v-.002l-.002-.32a225 225 0 0 0-7.666-57.891 225 225 0 0 0-.705-2.078v-.002l-.016-.045-.029-.082a225 225 0 0 0-9.438-27.137l-.003-.01-.125-.252a225 225 0 0 0-12.163-24.66l-.605-.906-.006-.012-.002-.004-.138-.205-.21-.31a225 225 0 0 0-15.734-23.426l-.014-.02-.005-.008A225 225 0 0 0 409.1 65.9a225 225 0 0 0-21.71-19.039l-.007-.006a225 225 0 0 0-23.395-15.716l-.578-.387a225 225 0 0 0-55.174-23.086h-.002a225 225 0 0 0-54.97-7.453 225 225 0 0 0-3.26-.213z" />
</svg>