<svg width="500" height="850" xmlns="http://www.w3.org/2000/svg">
    <path
        d="m 250.0039,650 a 225,225 0 0 0 3.25977,-0.21289 225,225 0 0 0 0.10156,-0.008 225,225 0 0 0 27.57031,-2.01368 225,225 0 0 0 25.56055,-5.08593 225,225 0 0 0 1.74024,-0.34571 225,225 0 0 0 55.17382,-23.08593 l 0.57813,-0.38672 a 225,225 0 0 0 23.39258,-15.71485 225,225 0 0 0 0.002,-0.002 l 0.008,-0.006 a 225,225 0 0 0 21.70899,-19.03906 225,225 0 0 0 19.04101,-21.70898 l 0.006,-0.008 0.0137,-0.0195 a 225,225 0 0 0 15.70313,-23.375 225,225 0 0 0 0.0137,-0.0215 225,225 0 0 0 0.0176,-0.0293 l 0.20898,-0.31055 0.13672,-0.20117 0.002,-0.004 0.002,-0.004 0.006,-0.0117 0.0137,-0.0215 a 225,225 0 0 0 0.004,-0.006 225,225 0 0 0 12.75,-25.53907 l 0.125,-0.25195 0.004,-0.01 a 225,225 0 0 0 9.4375,-27.13671 l 0.0293,-0.082 0.0156,-0.0449 v -0.002 a 225,225 0 0 0 0.002,-0.008 225,225 0 0 0 8.15625,-57.02149 l 0.002,-0.0195 a 225,225 0 0 0 0.21289,-3.24023 v -0.002 -0.004 a 225,225 0 0 0 0,-0.004 L 475,425 h 0.002 V 225 a 225,225 0 0 0 -225,-225 225,225 0 0 0 -225,225 225,225 0 0 0 225,225 225,225 0 0 0 175,-83.57812 V 425 v 0.16797 a 175,175 0 0 1 -0.85547,12.88672 175,175 0 0 1 -0.55469,8.36133 175,175 0 0 1 -0.0976,1.46875 175,175 0 0 1 -0.002,0.006 175,175 0 0 1 0,0.0137 175,175 0 0 1 -0.11132,0.5625 175,175 0 0 1 -2.82813,14.45898 175,175 0 0 1 -1.5293,7.40625 175,175 0 0 1 -0.002,0.0137 175,175 0 0 1 -0.57422,1.69141 175,175 0 0 1 -4.02343,11.9043 175,175 0 0 1 -2.76172,8.06445 175,175 0 0 1 -6.68164,13.55078 175,175 0 0 1 -3.43555,6.96289 175,175 0 0 1 -12.70703,19.01367 175,175 0 0 1 -15.0918,17.21094 h -0.002 a 175,175 0 0 1 -17.20895,15.09355 175,175 0 0 1 -18.9082,12.63281 175,175 0 0 1 -20.6543,10.20899 175,175 0 0 1 -21.38086,7.25586 175,175 0 0 1 -0.29687,0.10156 175,175 0 0 1 -45.10156,5.96289 175,175 0 0 1 -0.0137,0 H 250 249.82226 a 175,175 0 0 1 -0.0137,0 175,175 0 0 1 -45.10156,-5.96289 175,175 0 0 1 -0.29688,-0.10156 175,175 0 0 1 -21.38086,-7.25586 175,175 0 0 1 -20.65429,-10.20899 175,175 0 0 1 -18.90821,-12.63281 175,175 0 0 1 -17.20898,-15.09375 h -0.002 a 175,175 0 0 1 -15.0918,-17.21094 175,175 0 0 1 -12.70703,-19.01367 175,175 0 0 1 -3.43555,-6.96289 175,175 0 0 1 -6.68164,-13.55078 175,175 0 0 1 -2.76172,-8.06445 175,175 0 0 1 -4.02344,-11.9043 175,175 0 0 1 -0.57421,-1.69141 175,175 0 0 1 -0.002,-0.0137 175,175 0 0 1 -1.52929,-7.40625 175,175 0 0 1 -2.82813,-14.45898 175,175 0 0 1 -0.11133,-0.5625 175,175 0 0 1 0,-0.0137 175,175 0 0 1 -0.1914,-2.8789 175,175 0 0 1 -0.46289,-6.95703 A 175,175 0 0 1 75,425.16797 V 425 A 25,25 0 0 0 50,400 25,25 0 0 0 25.21484,421.73438 v 0.002 A 225,225 0 0 0 25.00195,425 L 25,425.01367 a 225,225 0 0 0 0,0.008 v 0.002 a 225,225 0 0 0 0.21289,3.24023 l 0.0019,0.0195 a 225,225 0 0 0 8.15625,57.02149 225,225 0 0 0 0.002,0.008 v 0.002 a 225,225 0 0 0 0.01563,0.0449 l 0.0293,0.082 a 225,225 0 0 0 5.66406,16.28515 225,225 0 0 0 3.77344,10.85156 l 0.0039,0.01 a 225,225 0 0 0 0.125,0.25195 225,225 0 0 0 12.75,25.53907 225,225 0 0 0 0.0039,0.006 l 0.01367,0.0215 0.0059,0.0117 0.002,0.004 0.13867,0.20507 0.20899,0.31055 a 225,225 0 0 0 0.01758,0.0293 l 0.0039,0.0117 a 225,225 0 0 0 0.0098,0.0137 225,225 0 0 0 15.70312,23.375 l 0.01368,0.0195 0.0059,0.008 a 225,225 0 0 0 19.04086,21.70424 225,225 0 0 0 21.71875,19.04687 225,225 0 0 0 23.39258,15.71485 l 0.57812,0.38672 a 225,225 0 0 0 55.17383,23.08593 225,225 0 0 0 0.002,0 225,225 0 0 0 1.73829,0.34571 225,225 0 0 0 25.56049,5.08593 225,225 0 0 0 27.57032,2.01368 225,225 0 0 0 3.36132,0.2207 H 250 Z m -0.002,-250 a 175,175 0 0 1 -175,-175 175,175 0 0 1 175,-175 175,175 0 0 1 175,175 175,175 0 0 1 -175,175 z" />
</svg>