<?xml version="1.0" encoding="UTF-8" standalone="no"?>
<svg width="500" height="850" version="1.1" id="svg1" sodipodi:docname="uni0076.svg" inkscape:version="1.4.2 (ebf0e940, 2025-05-08)" xmlns:inkscape="http://www.inkscape.org/namespaces/inkscape" xmlns:sodipodi="http://sodipodi.sourceforge.net/DTD/sodipodi-0.dtd" xmlns="http://www.w3.org/2000/svg" xmlns:svg="http://www.w3.org/2000/svg">
    <defs id="defs1" />
    <sodipodi:namedview id="namedview1" pagecolor="#ffffff" bordercolor="#000000" borderopacity="0.25" inkscape:showpageshadow="2" inkscape:pageopacity="0.0" inkscape:pagecheckerboard="0" inkscape:deskcolor="#d1d1d1" inkscape:zoom="0.34976982" inkscape:cx="260.1711" inkscape:cy="425.99444" inkscape:window-width="888" inkscape:window-height="725" inkscape:window-x="0" inkscape:window-y="25" inkscape:window-maximized="0" inkscape:current-layer="svg1" />
    <path id="path1" d="M 50 200 A 25 25 0 0 0 25 225 A 25 25 0 0 0 27.638672 236.17969 L 227.63867 636.17969 A 25 25 0 0 0 250 650 A 25 25 0 0 0 272.36133 636.17969 L 472.36133 236.17969 A 25 25 0 0 0 475 225 A 25 25 0 0 0 450 200 A 25 25 0 0 0 427.63867 213.82031 L 250 569.09766 L 72.361328 213.82031 A 25 25 0 0 0 50 200 z " />
</svg>
