<?xml version="1.0" encoding="UTF-8" standalone="no"?>
<svg width="500" height="850" xmlns:inkscape="http://www.inkscape.org/namespaces/inkscape"
    xmlns:sodipodi="http://sodipodi.sourceforge.net/DTD/sodipodi-0.dtd" xmlns="http://www.w3.org/2000/svg"
    xmlns:svg="http://www.w3.org/2000/svg">
    <path
        d="M 150 200 A 125 125 0 0 0 25 325 A 125 125 0 0 0 150 450 L 350 450 A 75 75 0 0 1 425 525 A 75 75 0 0 1 350 600 L 50 600 A 25 25 0 0 0 25 625 A 25 25 0 0 0 50 650 L 350 650 A 125 125 0 0 0 475 525 A 125 125 0 0 0 350 400 L 150 400 A 75 75 0 0 1 75 325 A 75 75 0 0 1 150 250 L 450 250 A 25 25 0 0 0 475 225 A 25 25 0 0 0 450 200 L 150 200 z " />
</svg>