<svg width="500" height="850" xmlns="http://www.w3.org/2000/svg">
    <path
        d="M 350,0 A 25,25 0 0 0 330,10 L 30.050781,409.93359 a 25,25 0 0 0 -0.01563,0.0176 L 30,410 l 0.0039,0.002 a 25,25 0 0 0 -4.789062,11.72657 v 0.008 A 25,25 0 0 0 25,425 a 25,25 0 0 0 0.214844,3.26367 v 0.008 A 25,25 0 0 0 50,450 h 275 v 175 a 25,25 0 0 0 25,25 25,25 0 0 0 3.26367,-0.21484 A 25,25 0 0 0 375,625 V 450 h 75 a 25,25 0 0 0 24.78516,-21.72852 v -0.008 A 25,25 0 0 0 475,425 a 25,25 0 0 0 -0.21484,-3.26367 v -0.008 A 25,25 0 0 0 450,400 H 375 V 25 A 25,25 0 0 0 350,0 Z M 325,100 V 400 H 100 Z" />
</svg>