<?xml version="1.0" encoding="UTF-8" standalone="no"?>
<svg width="500" height="850" xmlns:inkscape="http://www.inkscape.org/namespaces/inkscape"
    xmlns:sodipodi="http://sodipodi.sourceforge.net/DTD/sodipodi-0.dtd" xmlns="http://www.w3.org/2000/svg"
    xmlns:svg="http://www.w3.org/2000/svg">
    <path
        d="M 150 300 A 125 125 0 0 0 25.214844 421.73633 A 25 25 0 0 0 25 425 A 25 25 0 0 0 50 450 A 25 25 0 0 0 75 425 A 75 75 0 0 1 150 350 A 75 75 0 0 1 225 425 A 25 25 0 0 0 225.21484 428.27148 A 125 125 0 0 0 350 550 A 125 125 0 0 0 474.78516 428.26367 A 25 25 0 0 0 475 425 A 25 25 0 0 0 450 400 A 25 25 0 0 0 425 425 A 75 75 0 0 1 350 500 A 75 75 0 0 1 275 425 A 25 25 0 0 0 274.78516 421.73633 L 274.78516 421.72852 A 125 125 0 0 0 150 300 z " />
</svg>