<svg width="500" height="850" xmlns="http://www.w3.org/2000/svg" xmlns:svg="http://www.w3.org/2000/svg">
    <path
        d="M 50 200 A 25 25 0 0 0 25 225 L 25 625 A 25 25 0 0 0 50 650 A 25 25 0 0 0 75 625 L 75 325 A 75 75 0 0 1 150 250 A 75 75 0 0 1 225 325 L 225 625 A 25 25 0 0 0 250 650 A 25 25 0 0 0 275 625 L 275 325 A 75 75 0 0 1 350 250 A 75 75 0 0 1 425 325 L 425 625 A 25 25 0 0 0 450 650 A 25 25 0 0 0 475 625 L 475 325 A 125 125 0 0 0 350 200 A 125 125 0 0 0 250 250.14648 A 125 125 0 0 0 150 200 A 125 125 0 0 0 75 225 A 25 25 0 0 0 50 200 z " />
</svg>