<svg width="500" height="850" xmlns:inkscape="http://www.inkscape.org/namespaces/inkscape"
    xmlns:sodipodi="http://sodipodi.sourceforge.net/DTD/sodipodi-0.dtd" xmlns="http://www.w3.org/2000/svg"
    xmlns:svg="http://www.w3.org/2000/svg">
    <path
        d="M 50 0 A 25 25 0 0 0 25 25 A 25 25 0 0 0 29.207031 38.861328 L 29.199219 38.867188 L 29.292969 39.007812 L 429.19922 638.86719 L 429.20898 638.86133 A 25 25 0 0 0 450 650 A 25 25 0 0 0 475 625 A 25 25 0 0 0 470.79297 611.13867 L 470.80078 611.13281 L 70.894531 11.273438 L 70.800781 11.132812 L 70.791016 11.138672 A 25 25 0 0 0 50 0 z " />
</svg>