<svg width="500" height="850" xmlns="http://www.w3.org/2000/svg">
    <path
        d="M250 0a225 225 0 0 0-30.44 2.182 225 225 0 0 0-8 1.547 225 225 0 0 0-21.914 4.74 225 225 0 0 0-9.214 3.035 225 225 0 0 0-19.66 7.273 225 225 0 0 0-9.08 4.334 225 225 0 0 0-18.3 9.899 225 225 0 0 0-8.269 5.334 225 225 0 0 0-17.088 12.646 225 225 0 0 0-7.094 5.977 225 225 0 0 0-15.884 15.672 225 225 0 0 0-5.504 5.986 225 225 0 0 0-54.338 143.111A25 25 0 0 0 25 225v200a25 25 0 0 0 .215 3.264A225 225 0 0 0 66.682 554.91l-37.483 56.223.008.006A25 25 0 0 0 25 625a25 25 0 0 0 25 25 25 25 0 0 0 20.791-11.139l.01.006 30.402-45.603a225 225 0 0 0 6.832 5.746 225 225 0 0 0 17.088 12.646 225 225 0 0 0 8.27 5.334 225 225 0 0 0 18.298 9.899 225 225 0 0 0 9.08 4.334 225 225 0 0 0 19.66 7.273 225 225 0 0 0 9.215 3.035 225 225 0 0 0 21.915 4.74 225 225 0 0 0 8 1.547A225 225 0 0 0 250 650a225 225 0 0 0 30.44-2.182 225 225 0 0 0 8-1.547 225 225 0 0 0 21.914-4.74 225 225 0 0 0 9.214-3.035 225 225 0 0 0 19.66-7.273 225 225 0 0 0 9.08-4.334 225 225 0 0 0 18.3-9.899 225 225 0 0 0 8.269-5.334 225 225 0 0 0 17.088-12.646 225 225 0 0 0 7.094-5.977 225 225 0 0 0 15.884-15.672 225 225 0 0 0 5.504-5.986 225 225 0 0 0 54.338-143.111A25 25 0 0 0 475 425V225a25 25 0 0 0-.215-3.264A225 225 0 0 0 433.318 95.09l37.389-56.082.094-.14-.008-.007A25 25 0 0 0 475 25a25 25 0 0 0-25-25 25 25 0 0 0-20.791 11.139l-.01-.006-.094.14-30.308 45.463a225 225 0 0 0-6.832-5.746 225 225 0 0 0-17.088-12.646 225 225 0 0 0-8.27-5.334 225 225 0 0 0-18.298-9.899 225 225 0 0 0-9.08-4.334 225 225 0 0 0-19.66-7.273 225 225 0 0 0-9.215-3.035 225 225 0 0 0-21.915-4.74 225 225 0 0 0-8-1.547A225 225 0 0 0 250 0m0 50a175 175 0 0 1 120.943 48.518l-274.1 411.148A175 175 0 0 1 75 425V225a175 175 0 0 1 1.498-22.842A175 175 0 0 1 250 50m153.156 90.334A175 175 0 0 1 425 225v200a175 175 0 0 1-175 175 175 175 0 0 1-120.943-48.518z" />
</svg>