<?xml version="1.0" encoding="UTF-8" standalone="no"?>
<svg width="500" height="850" version="1.1" id="svg1" sodipodi:docname="uni0025.svg" inkscape:version="1.4.2 (ebf0e940, 2025-05-08)" xmlns:inkscape="http://www.inkscape.org/namespaces/inkscape" xmlns:sodipodi="http://sodipodi.sourceforge.net/DTD/sodipodi-0.dtd" xmlns="http://www.w3.org/2000/svg" xmlns:svg="http://www.w3.org/2000/svg">
    <defs id="defs1" />
    <sodipodi:namedview id="namedview1" pagecolor="#ffffff" bordercolor="#000000" borderopacity="0.25" inkscape:showpageshadow="2" inkscape:pageopacity="0.0" inkscape:pagecheckerboard="0" inkscape:deskcolor="#d1d1d1" inkscape:zoom="0.31652174" inkscape:cx="259.06593" inkscape:cy="426.51099" inkscape:window-width="1080" inkscape:window-height="675" inkscape:window-x="0" inkscape:window-y="25" inkscape:window-maximized="0" inkscape:current-layer="svg1" />
    <path id="path5" d="M 150 0 A 125 125 0 0 0 25 125 A 125 125 0 0 0 150 250 A 125 125 0 0 0 275 125 A 125 125 0 0 0 150 0 z M 450 0 A 25 25 0 0 0 429.20898 11.138672 L 429.19922 11.132812 L 429.10547 11.273438 L 29.199219 611.13281 L 29.207031 611.13867 A 25 25 0 0 0 25 625 A 25 25 0 0 0 50 650 A 25 25 0 0 0 70.791016 638.86133 L 70.800781 638.86719 L 470.70703 39.007812 L 470.80078 38.867188 L 470.79297 38.861328 A 25 25 0 0 0 475 25 A 25 25 0 0 0 450 0 z M 150 50 A 75 75 0 0 1 225 125 A 75 75 0 0 1 150 200 A 75 75 0 0 1 75 125 A 75 75 0 0 1 150 50 z M 350 400 A 125 125 0 0 0 225 525 A 125 125 0 0 0 350 650 A 125 125 0 0 0 475 525 A 125 125 0 0 0 350 400 z M 350 450 A 75 75 0 0 1 425 525 A 75 75 0 0 1 350 600 A 75 75 0 0 1 275 525 A 75 75 0 0 1 350 450 z " />
</svg>
