<?xml version="1.0" encoding="UTF-8" standalone="no"?>
<svg width="500" height="850" xmlns:inkscape="http://www.inkscape.org/namespaces/inkscape"
    xmlns:sodipodi="http://sodipodi.sourceforge.net/DTD/sodipodi-0.dtd" xmlns="http://www.w3.org/2000/svg"
    xmlns:svg="http://www.w3.org/2000/svg">
    <path
        d="M 249.99805 0 A 225 225 0 0 0 246.73828 0.21289062 A 225 225 0 0 0 246.63672 0.22070312 A 225 225 0 0 0 219.06641 2.234375 A 225 225 0 0 0 193.50586 7.3203125 A 225 225 0 0 0 191.76562 7.6660156 A 225 225 0 0 0 136.5918 30.751953 L 136.01367 31.138672 A 225 225 0 0 0 112.62109 46.853516 A 225 225 0 0 0 112.61914 46.855469 L 112.61133 46.861328 A 225 225 0 0 0 90.902344 65.900391 A 225 225 0 0 0 71.861328 87.609375 L 71.855469 87.617188 L 71.841797 87.636719 A 225 225 0 0 0 56.138672 111.01172 A 225 225 0 0 0 56.125 111.0332 A 225 225 0 0 0 56.107422 111.0625 L 55.898438 111.37305 L 55.761719 111.57422 L 55.759766 111.57812 L 55.757812 111.58203 L 55.751953 111.59375 L 55.738281 111.61523 A 225 225 0 0 0 55.734375 111.62109 A 225 225 0 0 0 42.984375 137.16016 L 42.859375 137.41211 L 42.855469 137.42188 A 225 225 0 0 0 33.417969 164.55859 L 33.388672 164.64062 L 33.373047 164.68555 L 33.373047 164.6875 A 225 225 0 0 0 33.371094 164.69531 A 225 225 0 0 0 25.214844 221.7168 L 25.212891 221.73633 A 225 225 0 0 0 25 224.97656 L 25 224.97852 L 25 224.98242 A 225 225 0 0 0 25 224.98633 L 25.001953 225 L 25 225 L 25 425 A 225 225 0 0 0 250 650 A 225 225 0 0 0 475 425 A 225 225 0 0 0 250 200 A 225 225 0 0 0 75 283.57812 L 75 225 L 75 224.83203 A 175 175 0 0 1 75.855469 211.94531 A 175 175 0 0 1 76.410156 203.58398 A 175 175 0 0 1 76.507812 202.11523 A 175 175 0 0 1 76.509766 202.10938 A 175 175 0 0 1 76.509766 202.0957 A 175 175 0 0 1 76.621094 201.5332 A 175 175 0 0 1 79.449219 187.07422 A 175 175 0 0 1 80.978516 179.66797 A 175 175 0 0 1 80.980469 179.6543 A 175 175 0 0 1 81.554688 177.96289 A 175 175 0 0 1 85.578125 166.05859 A 175 175 0 0 1 88.339844 157.99414 A 175 175 0 0 1 95.021484 144.44336 A 175 175 0 0 1 98.457031 137.48047 A 175 175 0 0 1 111.16406 118.4668 A 175 175 0 0 1 126.25586 101.25586 L 126.25781 101.25586 A 175 175 0 0 1 143.4668 86.162109 A 175 175 0 0 1 162.375 73.529297 A 175 175 0 0 1 183.0293 63.320312 A 175 175 0 0 1 204.41016 56.064453 A 175 175 0 0 1 204.70703 55.962891 A 175 175 0 0 1 249.80859 50 A 175 175 0 0 1 249.82227 50 L 250.00195 50 L 250.17969 50 A 175 175 0 0 1 250.19336 50 A 175 175 0 0 1 295.29492 55.962891 A 175 175 0 0 1 295.5918 56.064453 A 175 175 0 0 1 316.97266 63.320312 A 175 175 0 0 1 337.62695 73.529297 A 175 175 0 0 1 356.53516 86.162109 A 175 175 0 0 1 373.74414 101.25586 L 373.74609 101.25586 A 175 175 0 0 1 388.83789 118.4668 A 175 175 0 0 1 401.54492 137.48047 A 175 175 0 0 1 404.98047 144.44336 A 175 175 0 0 1 411.66211 157.99414 A 175 175 0 0 1 414.42383 166.05859 A 175 175 0 0 1 418.44727 177.96289 A 175 175 0 0 1 419.02148 179.6543 A 175 175 0 0 1 419.02344 179.66797 A 175 175 0 0 1 420.55273 187.07422 A 175 175 0 0 1 423.38086 201.5332 A 175 175 0 0 1 423.49219 202.0957 A 175 175 0 0 1 423.49219 202.10938 A 175 175 0 0 1 423.68359 204.98828 A 175 175 0 0 1 424.14648 211.94531 A 175 175 0 0 1 425.00195 224.83203 L 425.00195 225 A 25 25 0 0 0 450.00195 250 A 25 25 0 0 0 474.78711 228.26562 L 474.78711 228.26367 A 225 225 0 0 0 475 225 L 475.00195 224.98633 A 225 225 0 0 0 475.00195 224.97852 L 475.00195 224.97656 A 225 225 0 0 0 474.78906 221.73633 L 474.78711 221.7168 A 225 225 0 0 0 466.63086 164.69531 A 225 225 0 0 0 466.62891 164.6875 L 466.62891 164.68555 A 225 225 0 0 0 466.61328 164.64062 L 466.58398 164.55859 A 225 225 0 0 0 460.91992 148.27344 A 225 225 0 0 0 457.14648 137.42188 L 457.14258 137.41211 A 225 225 0 0 0 457.01758 137.16016 A 225 225 0 0 0 444.26758 111.62109 A 225 225 0 0 0 444.26367 111.61523 L 444.25 111.59375 L 444.24414 111.58203 L 444.24219 111.57812 L 444.10352 111.37305 L 443.89453 111.0625 A 225 225 0 0 0 443.87695 111.0332 L 443.87305 111.02148 A 225 225 0 0 0 443.86328 111.00781 A 225 225 0 0 0 428.16016 87.632812 L 428.14648 87.613281 L 428.14062 87.605469 A 225 225 0 0 0 409.09961 65.900391 A 225 225 0 0 0 387.38086 46.853516 A 225 225 0 0 0 363.98828 31.138672 L 363.41016 30.751953 A 225 225 0 0 0 308.23633 7.6660156 A 225 225 0 0 0 308.23438 7.6660156 A 225 225 0 0 0 306.49609 7.3203125 A 225 225 0 0 0 280.93555 2.234375 A 225 225 0 0 0 253.36523 0.22070312 A 225 225 0 0 0 250.00391 0 L 250.00195 0 L 249.99805 0 z M 250 250 A 175 175 0 0 1 425 425 A 175 175 0 0 1 250 600 A 175 175 0 0 1 75 425 A 175 175 0 0 1 250 250 z " />
</svg>