<svg width="500" height="850" xmlns="http://www.w3.org/2000/svg">
    <path
        d="M 450 0 A 25 25 0 0 0 446.72266 0.21679688 A 225 225 0 0 0 226.39258 200 L 50 200 A 25 25 0 0 0 25 225 A 25 25 0 0 0 50 250 L 225 250 L 225 600 L 150 600 A 25 25 0 0 0 125 625 A 25 25 0 0 0 150 650 L 350 650 A 25 25 0 0 0 375 625 A 25 25 0 0 0 350 600 L 275 600 L 275 250 L 450 250 A 25 25 0 0 0 475 225 A 25 25 0 0 0 450 200 L 276.79492 200 A 175 175 0 0 1 450 50 A 25 25 0 0 0 475 25 A 25 25 0 0 0 450 0 z " />
</svg>