<svg width="500" height="850" xmlns="http://www.w3.org/2000/svg">
    <path
        d="M 250 0 A 225 225 0 0 0 90.900391 65.900391 A 225 225 0 0 0 25.212891 221.73633 A 25 25 0 0 0 25 225 A 25 25 0 0 0 50 250 A 25 25 0 0 0 75 225 L 75 224.83203 A 175 175 0 0 1 126.25586 101.25586 A 175 175 0 0 1 373.74414 101.25586 A 175 175 0 0 1 373.74414 348.74414 A 175 175 0 0 1 250.17773 400 L 250 400 A 25 25 0 0 0 243.5293 400.85156 A 25 25 0 0 0 237.5 403.34961 A 25 25 0 0 0 225.85156 418.5293 A 25 25 0 0 0 225 425 L 225 525 A 25 25 0 0 0 250 550 A 25 25 0 0 0 275 525 L 275 448.43555 A 225 225 0 0 0 409.09961 384.09961 A 225 225 0 0 0 409.09961 65.900391 A 225 225 0 0 0 250 0 z M 250 600 A 25 25 0 0 0 225 625 A 25 25 0 0 0 250 650 A 25 25 0 0 0 275 625 A 25 25 0 0 0 250 600 z " />
</svg>