<svg width="500" height="850" xmlns:inkscape="http://www.inkscape.org/namespaces/inkscape"
    xmlns:sodipodi="http://sodipodi.sourceforge.net/DTD/sodipodi-0.dtd" xmlns="http://www.w3.org/2000/svg"
    xmlns:svg="http://www.w3.org/2000/svg">
    <path
        d="M 250 0 A 25 25 0 0 0 230 10 L -69.949219 409.93359 A 25 25 0 0 0 -69.964844 409.95117 L -70 410 L -69.996094 410.00195 A 25 25 0 0 0 -74.785156 421.72852 L -74.785156 421.73633 A 25 25 0 0 0 -75 425 A 25 25 0 0 0 -74.785156 428.26367 L -74.785156 428.27148 A 25 25 0 0 0 -50 450 L 225 450 L 225 625 A 25 25 0 0 0 250 650 A 25 25 0 0 0 253.26367 649.78516 A 25 25 0 0 0 275 625 L 275 450 L 350 450 A 25 25 0 0 0 374.78516 428.27148 L 374.78516 428.26367 A 25 25 0 0 0 375 425 A 25 25 0 0 0 374.78516 421.73633 L 374.78516 421.72852 A 25 25 0 0 0 350 400 L 275 400 L 275 25 A 25 25 0 0 0 250 0 z M 225 100 L 225 400 L 0 400 L 225 100 z "
        transform="translate(100)" />
</svg>