<svg width="500" height="850" xmlns="http://www.w3.org/2000/svg" xmlns:svg="http://www.w3.org/2000/svg">
    <path
        d="M 50 0 A 25 25 0 0 0 25 25 A 25 25 0 0 0 26.287109 32.904297 L 26.283203 32.90625 L 26.304688 32.970703 L 226.2832 632.90625 L 226.28711 632.9043 A 25 25 0 0 0 250 650 A 25 25 0 0 0 273.71289 632.9043 L 273.7168 632.90625 L 473.7168 32.90625 L 473.71289 32.904297 A 25 25 0 0 0 475 25 A 25 25 0 0 0 450 0 A 25 25 0 0 0 426.28711 17.095703 L 426.2832 17.09375 L 250 545.94336 L 73.738281 17.160156 L 73.716797 17.09375 L 73.710938 17.095703 A 25 25 0 0 0 50 0 z " />
</svg>