<svg xmlns="http://www.w3.org/2000/svg" width="500" height="850"><path d="M150 0a25 25 0 0 0-25 25v175H50a25 25 0 0 0-24.785 21.729v.007A25 25 0 0 0 25 225a25 25 0 0 0 .215 3.264v.007A25 25 0 0 0 50 250h75v150H50a25 25 0 0 0-24.785 21.729v.007A25 25 0 0 0 25 425a25 25 0 0 0 .215 3.264v.007A25 25 0 0 0 50 450h75v175a25 25 0 0 0 25 25 25 25 0 0 0 25-25V450h150v175a25 25 0 0 0 25 25 25 25 0 0 0 25-25V450h75a25 25 0 0 0 24.785-21.729v-.007A25 25 0 0 0 475 425a25 25 0 0 0-.215-3.264v-.007A25 25 0 0 0 450 400h-75V250h75a25 25 0 0 0 24.785-21.729v-.007A25 25 0 0 0 475 225a25 25 0 0 0-.215-3.264v-.007A25 25 0 0 0 450 200h-75V25a25 25 0 0 0-25-25 25 25 0 0 0-25 25v175H175V25a25 25 0 0 0-25-25m25 250h150v150H175z"/></svg>