<?xml version="1.0" encoding="UTF-8" standalone="no"?>
<svg width="500" height="850" version="1.1" id="svg1" sodipodi:docname="uni0066.svg" inkscape:version="1.4.2 (ebf0e940, 2025-05-08)" xmlns:inkscape="http://www.inkscape.org/namespaces/inkscape" xmlns:sodipodi="http://sodipodi.sourceforge.net/DTD/sodipodi-0.dtd" xmlns="http://www.w3.org/2000/svg" xmlns:svg="http://www.w3.org/2000/svg">
    <defs id="defs1" />
    <sodipodi:namedview id="namedview1" pagecolor="#ffffff" bordercolor="#000000" borderopacity="0.25" inkscape:showpageshadow="2" inkscape:pageopacity="0.0" inkscape:pagecheckerboard="0" inkscape:deskcolor="#d1d1d1" inkscape:zoom="0.59529412" inkscape:cx="250.29644" inkscape:cy="425" inkscape:window-width="888" inkscape:window-height="725" inkscape:window-x="0" inkscape:window-y="25" inkscape:window-maximized="0" inkscape:current-layer="svg1" />
    <path id="path1" d="M 450 0 A 25 25 0 0 0 446.72266 0.21679688 A 225 225 0 0 0 226.39258 200 L 50 200 A 25 25 0 0 0 25 225 A 25 25 0 0 0 50 250 L 225 250 L 225 600 L 150 600 A 25 25 0 0 0 125 625 A 25 25 0 0 0 150 650 L 350 650 A 25 25 0 0 0 375 625 A 25 25 0 0 0 350 600 L 275 600 L 275 250 L 450 250 A 25 25 0 0 0 475 225 A 25 25 0 0 0 450 200 L 276.79492 200 A 175 175 0 0 1 450 50 A 25 25 0 0 0 475 25 A 25 25 0 0 0 450 0 z " />
</svg>
