<svg width="500" height="850" xmlns="http://www.w3.org/2000/svg" xmlns:svg="http://www.w3.org/2000/svg">
    <path
        d="M 200 0 A 175 175 0 0 0 25.214844 171.73633 A 25 25 0 0 0 25 175 A 25 25 0 0 0 25 175.0625 A 175 175 0 0 0 110.17383 325 A 175 175 0 0 0 25 474.9375 A 25 25 0 0 0 25 475 A 25 25 0 0 0 25.214844 478.26367 A 175 175 0 0 0 200 650 L 250 650 L 300 650 A 175 175 0 0 0 474.78516 478.26367 A 25 25 0 0 0 475 475 A 25 25 0 0 0 475 474.9375 A 175 175 0 0 0 389.82617 325 A 175 175 0 0 0 475 175.0625 A 175 175 0 0 0 475 175 A 25 25 0 0 0 474.78516 171.73633 A 175 175 0 0 0 300 0 L 250 0 L 200 0 z M 200 50 L 250 50 L 300 50 A 125 125 0 0 1 425 175 A 125 125 0 0 1 300 300 L 250 300 L 200 300 A 125 125 0 0 1 75 175 A 125 125 0 0 1 200 50 z M 200 350 L 250 350 L 300 350 A 125 125 0 0 1 425 475 A 125 125 0 0 1 300 600 L 250 600 L 200 600 A 125 125 0 0 1 75 475 A 125 125 0 0 1 200 350 z " />
</svg>