<?xml version="1.0" encoding="UTF-8" standalone="no"?>
<svg width="500" height="850" version="1.1" id="svg1" sodipodi:docname="uni006e.svg" inkscape:version="1.4.2 (ebf0e940, 2025-05-08)" xmlns:inkscape="http://www.inkscape.org/namespaces/inkscape" xmlns:sodipodi="http://sodipodi.sourceforge.net/DTD/sodipodi-0.dtd" xmlns="http://www.w3.org/2000/svg" xmlns:svg="http://www.w3.org/2000/svg">
    <defs id="defs1" />
    <sodipodi:namedview id="namedview1" pagecolor="#ffffff" bordercolor="#000000" borderopacity="0.25" inkscape:showpageshadow="2" inkscape:pageopacity="0.0" inkscape:pagecheckerboard="0" inkscape:deskcolor="#d1d1d1" inkscape:zoom="0.29790281" inkscape:cx="261.83036" inkscape:cy="426.31353" inkscape:window-width="1080" inkscape:window-height="647" inkscape:window-x="0" inkscape:window-y="25" inkscape:window-maximized="0" inkscape:current-layer="svg1" />
    <path id="path1" d="M 50 200 A 25 25 0 0 0 25 225 L 25 625 A 25 25 0 0 0 50 650 A 25 25 0 0 0 75 625 L 75 425 A 175 175 0 0 1 250 250 A 175 175 0 0 1 425 425 L 425 625 A 25 25 0 0 0 450 650 A 25 25 0 0 0 475 625 L 475 425 A 225 225 0 0 0 250 200 A 225 225 0 0 0 75 283.57812 L 75 225 A 25 25 0 0 0 50 200 z " />
</svg>
