<?xml version="1.0" encoding="UTF-8" standalone="no"?>
<svg width="500" height="850" xmlns:inkscape="http://www.inkscape.org/namespaces/inkscape"
    xmlns:sodipodi="http://sodipodi.sourceforge.net/DTD/sodipodi-0.dtd" xmlns="http://www.w3.org/2000/svg"
    xmlns:svg="http://www.w3.org/2000/svg">
    <path
        d="M 50 200 A 25 25 0 0 0 25 225 A 25 25 0 0 0 38.820312 247.36133 L 394.09766 425 L 38.820312 602.63867 A 25 25 0 0 0 25 625 A 25 25 0 0 0 50 650 A 25 25 0 0 0 61.179688 647.36133 L 461.17969 447.36133 A 25 25 0 0 0 475 425 A 25 25 0 0 0 461.17969 402.63867 L 61.179688 202.63867 A 25 25 0 0 0 50 200 z " />
</svg>