<svg width="500" height="850" xmlns="http://www.w3.org/2000/svg" xmlns:svg="http://www.w3.org/2000/svg">
    <path
        d="M 50 0 A 25 25 0 0 0 25 25 A 25 25 0 0 0 29.207031 38.861328 L 29.199219 38.867188 L 29.292969 39.007812 L 219.95508 325 L 29.199219 611.13281 L 29.207031 611.13867 A 25 25 0 0 0 25 625 A 25 25 0 0 0 50 650 A 25 25 0 0 0 70.791016 638.86133 L 70.800781 638.86719 L 250 370.06836 L 429.19922 638.86719 L 429.20898 638.86133 A 25 25 0 0 0 450 650 A 25 25 0 0 0 475 625 A 25 25 0 0 0 470.79297 611.13867 L 470.80078 611.13281 L 280.04492 325 L 470.80078 38.867188 L 470.79297 38.861328 A 25 25 0 0 0 475 25 A 25 25 0 0 0 450 0 A 25 25 0 0 0 429.20898 11.138672 L 429.19922 11.132812 L 250 279.93164 L 70.894531 11.273438 L 70.800781 11.132812 L 70.791016 11.138672 A 25 25 0 0 0 50 0 z " />
</svg>