<svg width="500" height="850" xmlns="http://www.w3.org/2000/svg">
    <path
        d="M 250 0 A 225 225 0 0 0 219.56055 2.1816406 A 225 225 0 0 0 211.74609 3.6933594 L 211.56055 3.7285156 L 211.50195 3.7402344 A 225 225 0 0 0 189.64648 8.46875 A 225 225 0 0 0 181.39648 11.185547 A 225 225 0 0 0 180.11133 11.623047 A 225 225 0 0 0 160.77148 18.777344 A 225 225 0 0 0 153.87695 22.068359 A 225 225 0 0 0 150.9668 23.503906 A 225 225 0 0 0 133.39258 33.009766 A 225 225 0 0 0 128.19141 36.363281 A 225 225 0 0 0 124.13281 39.076172 A 225 225 0 0 0 108.03516 50.990234 A 225 225 0 0 0 104.69141 53.806641 A 225 225 0 0 0 99.767578 58.125 A 225 225 0 0 0 85.056641 72.638672 A 225 225 0 0 0 83.654297 74.164062 A 225 225 0 0 0 78.476562 80.068359 A 225 225 0 0 0 62.425781 101.60156 A 225 225 0 0 0 60.173828 104.97461 A 225 225 0 0 0 47.138672 128.73438 A 225 225 0 0 0 45.460938 132.13672 A 225 225 0 0 0 35.652344 157.96875 A 225 225 0 0 0 34.621094 161.00586 A 225 225 0 0 0 28.25 188.96875 A 225 225 0 0 0 27.833984 191.06055 A 225 225 0 0 0 25.214844 221.73633 A 25 25 0 0 0 25 225 L 25 425 A 25 25 0 0 0 25.214844 428.26367 A 225 225 0 0 0 27.833984 458.93945 A 225 225 0 0 0 28.25 461.03125 A 225 225 0 0 0 34.621094 488.99414 A 225 225 0 0 0 35.652344 492.03125 A 225 225 0 0 0 45.460938 517.86328 A 225 225 0 0 0 47.138672 521.26562 A 225 225 0 0 0 60.173828 545.02539 A 225 225 0 0 0 62.425781 548.39844 A 225 225 0 0 0 78.476562 569.93164 A 225 225 0 0 0 83.654297 575.83594 A 225 225 0 0 0 85.056641 577.36133 A 225 225 0 0 0 99.767578 591.875 A 225 225 0 0 0 104.69141 596.19336 A 225 225 0 0 0 108.03516 599.00977 A 225 225 0 0 0 124.13281 610.92383 A 225 225 0 0 0 128.19141 613.63672 A 225 225 0 0 0 133.39258 616.99023 A 225 225 0 0 0 150.9668 626.49609 A 225 225 0 0 0 153.87695 627.93164 A 225 225 0 0 0 160.77148 631.22266 A 225 225 0 0 0 180.11133 638.37695 A 225 225 0 0 0 181.39648 638.81445 A 225 225 0 0 0 189.64648 641.53125 A 225 225 0 0 0 211.50195 646.25977 L 211.56055 646.27148 L 211.74609 646.30664 A 225 225 0 0 0 219.56055 647.81836 A 225 225 0 0 0 250 650 A 225 225 0 0 0 280.23047 647.83398 A 225 225 0 0 0 290.88477 645.74219 A 225 225 0 0 0 309.92188 641.625 A 225 225 0 0 0 322.15039 637.54102 A 225 225 0 0 0 338.45117 631.50977 A 225 225 0 0 0 350.91602 625.47852 A 225 225 0 0 0 365.38281 617.65234 A 225 225 0 0 0 377.33203 609.83984 A 225 225 0 0 0 390.21094 600.30859 A 225 225 0 0 0 401.61914 590.55078 A 225 225 0 0 0 412.25977 580.23438 A 25 25 0 0 0 409.09961 548.74414 A 25 25 0 0 0 373.74414 548.74414 L 373.625 548.86328 A 175 175 0 0 1 364.04883 557.24609 A 175 175 0 0 1 356.47852 563.87305 A 175 175 0 0 1 345.53125 571.1875 A 175 175 0 0 1 337.45117 576.57812 A 175 175 0 0 1 325.64453 582.40039 A 175 175 0 0 1 316.92773 586.69336 A 175 175 0 0 1 302.87305 591.46484 A 175 175 0 0 1 295.27148 594.04102 A 175 175 0 0 1 278.2832 597.41992 A 175 175 0 0 1 272.83008 598.50195 A 175 175 0 0 1 250 600 A 175 175 0 0 1 75 425 L 75 225 A 175 175 0 0 1 76.498047 202.1582 A 175 175 0 0 1 80.962891 179.70703 A 175 175 0 0 1 98.445312 137.5 A 175 175 0 0 1 111.16406 118.4668 A 175 175 0 0 1 126.25781 101.25586 A 175 175 0 0 1 143.4668 86.164062 A 175 175 0 0 1 162.5 73.445312 A 175 175 0 0 1 204.70703 55.962891 A 175 175 0 0 1 227.1582 51.498047 A 175 175 0 0 1 250 50 A 175 175 0 0 1 272.83008 51.498047 A 175 175 0 0 1 278.2832 52.580078 A 175 175 0 0 1 295.27148 55.958984 A 175 175 0 0 1 302.87305 58.535156 A 175 175 0 0 1 316.92773 63.306641 A 175 175 0 0 1 325.64453 67.599609 A 175 175 0 0 1 337.45117 73.421875 A 175 175 0 0 1 345.53125 78.8125 A 175 175 0 0 1 356.47852 86.126953 A 175 175 0 0 1 364.04883 92.753906 A 175 175 0 0 1 373.625 101.13672 L 373.74414 101.25586 A 25 25 0 0 0 409.09961 101.25586 A 25 25 0 0 0 412.25977 69.765625 A 225 225 0 0 0 401.61914 59.449219 A 225 225 0 0 0 390.21094 49.691406 A 225 225 0 0 0 377.33203 40.160156 A 225 225 0 0 0 365.38281 32.347656 A 225 225 0 0 0 350.91602 24.521484 A 225 225 0 0 0 338.45117 18.490234 A 225 225 0 0 0 322.15039 12.458984 A 225 225 0 0 0 309.92188 8.375 A 225 225 0 0 0 290.88477 4.2578125 A 225 225 0 0 0 280.23047 2.1660156 A 225 225 0 0 0 250 0 z " />
</svg>