<?xml version="1.0" encoding="UTF-8" standalone="no"?>
<svg width="500" height="850" xmlns:inkscape="http://www.inkscape.org/namespaces/inkscape"
    xmlns:sodipodi="http://sodipodi.sourceforge.net/DTD/sodipodi-0.dtd" xmlns="http://www.w3.org/2000/svg"
    xmlns:svg="http://www.w3.org/2000/svg">
    <path
        d="M 50 0 A 25 25 0 0 0 25 25 L 25 625 A 25 25 0 0 0 50 650 L 300 650 A 175 175 0 0 0 475 475 L 475 175 A 175 175 0 0 0 300 0 L 50 0 z M 75 50 L 300 50 A 125 125 0 0 1 425 175 L 425 475 A 125 125 0 0 1 300 600 L 75 600 L 75 50 z " />
</svg>