<svg width="500" height="850" version="1.1" id="svg1" inkscape:version="1.4.2 (ebf0e940, 2025-05-08)"
    xmlns="http://www.w3.org/2000/svg">
    <defs id="defs1" />
    <sodipodi:namedview id="namedview1" pagecolor="#ffffff" bordercolor="#000000" borderopacity="0.25"
        inkscape:showpageshadow="2" inkscape:pageopacity="0.0" inkscape:pagecheckerboard="0"
        inkscape:deskcolor="#d1d1d1" inkscape:zoom="0.31652174" inkscape:cx="260.6456" inkscape:cy="426.51099"
        inkscape:window-width="1080" inkscape:window-height="675" inkscape:window-x="0" inkscape:window-y="25"
        inkscape:window-maximized="0" inkscape:current-layer="svg1" />
    <path
        d="m 150,100 a 25,25 0 0 0 -25,25 25,25 0 0 0 25,25 h 75 v 550 h -75 a 25,25 0 0 0 -25,25 25,25 0 0 0 25,25 h 100 a 25,25 0 0 0 3.26367,-0.21484 A 25,25 0 0 0 275,725 V 450 h 75 a 25,25 0 0 0 25,-25 25,25 0 0 0 -25,-25 H 275 V 125 a 25,25 0 0 0 -25,-25 z" />
</svg>