<?xml version="1.0" encoding="UTF-8" standalone="no"?>
<svg width="500" height="850" version="1.1" id="svg1" sodipodi:docname="uni0077.svg" inkscape:version="1.4.2 (ebf0e940, 2025-05-08)" xmlns:inkscape="http://www.inkscape.org/namespaces/inkscape" xmlns:sodipodi="http://sodipodi.sourceforge.net/DTD/sodipodi-0.dtd" xmlns="http://www.w3.org/2000/svg" xmlns:svg="http://www.w3.org/2000/svg">
    <defs id="defs1" />
    <sodipodi:namedview id="namedview1" pagecolor="#ffffff" bordercolor="#000000" borderopacity="0.25" inkscape:showpageshadow="2" inkscape:pageopacity="0.0" inkscape:pagecheckerboard="0" inkscape:deskcolor="#d1d1d1" inkscape:zoom="0.59529412" inkscape:cx="250.29644" inkscape:cy="425" inkscape:window-width="888" inkscape:window-height="725" inkscape:window-x="0" inkscape:window-y="25" inkscape:window-maximized="0" inkscape:current-layer="svg1" />
    <path id="path1" d="M 50 200 A 25 25 0 0 0 25 225 L 25 525 A 125 125 0 0 0 75 625 A 125 125 0 0 0 133.95703 648.9668 A 125 125 0 0 0 150 650 A 125 125 0 0 0 250 599.85352 A 125 125 0 0 0 260.77148 612.42773 A 125 125 0 0 0 350 650 A 125 125 0 0 0 425 625 A 125 125 0 0 0 475 525 L 475 225 A 25 25 0 0 0 450 200 A 25 25 0 0 0 446.73633 200.21484 A 25 25 0 0 0 425 225 L 425 525 A 75 75 0 0 1 359.78906 599.35742 A 75 75 0 0 1 350 600 A 75 75 0 0 1 340.21094 599.35742 A 75 75 0 0 1 275 525 L 275 225 A 25 25 0 0 0 250 200 A 25 25 0 0 0 246.73633 200.21484 A 25 25 0 0 0 225 225 L 225 525 A 75 75 0 0 1 159.78906 599.35742 A 75 75 0 0 1 150 600 A 75 75 0 0 1 75 525 L 75 225 A 25 25 0 0 0 50 200 z " />
</svg>
