<?xml version="1.0" encoding="UTF-8" standalone="no"?>
<svg width="500" height="850" version="1.1" id="svg1" sodipodi:docname="uni003d.svg" inkscape:version="1.4.2 (ebf0e940, 2025-05-08)" xmlns:inkscape="http://www.inkscape.org/namespaces/inkscape" xmlns:sodipodi="http://sodipodi.sourceforge.net/DTD/sodipodi-0.dtd" xmlns="http://www.w3.org/2000/svg" xmlns:svg="http://www.w3.org/2000/svg">
    <defs id="defs1" />
    <sodipodi:namedview id="namedview1" pagecolor="#ffffff" bordercolor="#000000" borderopacity="0.25" inkscape:showpageshadow="2" inkscape:pageopacity="0.0" inkscape:pagecheckerboard="0" inkscape:deskcolor="#d1d1d1" inkscape:zoom="0.34976982" inkscape:cx="260.1711" inkscape:cy="425.99444" inkscape:window-width="888" inkscape:window-height="725" inkscape:window-x="0" inkscape:window-y="25" inkscape:window-maximized="0" inkscape:current-layer="svg1" />
    <path id="path2" d="M 50 300 A 25 25 0 0 0 25.214844 321.72852 L 25.214844 321.73633 A 25 25 0 0 0 25 325 A 25 25 0 0 0 25.214844 328.26367 L 25.214844 328.27148 A 25 25 0 0 0 50 350 L 450 350 A 25 25 0 0 0 474.78516 328.27148 L 474.78516 328.26367 A 25 25 0 0 0 475 325 A 25 25 0 0 0 474.78516 321.73633 L 474.78516 321.72852 A 25 25 0 0 0 450 300 L 50 300 z M 50 500 A 25 25 0 0 0 25.214844 521.72852 L 25.214844 521.73633 A 25 25 0 0 0 25 525 A 25 25 0 0 0 25.214844 528.26367 L 25.214844 528.27148 A 25 25 0 0 0 50 550 L 450 550 A 25 25 0 0 0 474.78516 528.27148 L 474.78516 528.26367 A 25 25 0 0 0 475 525 A 25 25 0 0 0 474.78516 521.73633 L 474.78516 521.72852 A 25 25 0 0 0 450 500 L 50 500 z " />
</svg>
