<?xml version="1.0" encoding="UTF-8" standalone="no"?>
<svg width="500" height="850" xmlns:inkscape="http://www.inkscape.org/namespaces/inkscape"
    xmlns:sodipodi="http://sodipodi.sourceforge.net/DTD/sodipodi-0.dtd" xmlns="http://www.w3.org/2000/svg"
    xmlns:svg="http://www.w3.org/2000/svg">
    <path
        d="M 150 0 A 25 25 0 0 0 125 25 A 25 25 0 0 0 150 50 L 225 50 L 225 600 L 150 600 A 25 25 0 0 0 125 625 A 25 25 0 0 0 150 650 L 250 650 A 25 25 0 0 0 253.26367 649.78516 A 25 25 0 0 0 275 625 L 275 350 L 350 350 A 25 25 0 0 0 375 325 A 25 25 0 0 0 350 300 L 275 300 L 275 25 A 25 25 0 0 0 250 0 L 150 0 z "
        transform="translate(000 100)" />
</svg>