<?xml version="1.0" encoding="UTF-8" standalone="no"?>
<svg width="500" height="850" xmlns:inkscape="http://www.inkscape.org/namespaces/inkscape"
    xmlns:sodipodi="http://sodipodi.sourceforge.net/DTD/sodipodi-0.dtd" xmlns="http://www.w3.org/2000/svg"
    xmlns:svg="http://www.w3.org/2000/svg">
    <path
        d="M 50 0 A 25 25 0 0 0 25 25 L 25 625 A 25 25 0 0 0 50 650 A 25 25 0 0 0 67.677734 642.67773 L 250 460.35547 L 432.32227 642.67773 A 25 25 0 0 0 450 650 A 25 25 0 0 0 475 625 A 25 25 0 0 0 467.67773 607.32227 L 285.35547 425 L 467.67773 242.67773 A 25 25 0 0 0 475 225 A 25 25 0 0 0 450 200 A 25 25 0 0 0 432.32227 207.32227 L 75 564.64453 L 75 25 A 25 25 0 0 0 50 0 z " />
</svg>