<?xml version="1.0" encoding="UTF-8" standalone="no"?>
<svg width="500" height="850" version="1.1" id="svg3" sodipodi:docname="uni005f.svg" inkscape:version="1.4.2 (ebf0e940, 2025-05-08)" xmlns:inkscape="http://www.inkscape.org/namespaces/inkscape" xmlns:sodipodi="http://sodipodi.sourceforge.net/DTD/sodipodi-0.dtd" xmlns="http://www.w3.org/2000/svg" xmlns:svg="http://www.w3.org/2000/svg">
    <defs id="defs3" />
    <sodipodi:namedview id="namedview3" pagecolor="#ffffff" bordercolor="#000000" borderopacity="0.25" inkscape:showpageshadow="2" inkscape:pageopacity="0.0" inkscape:pagecheckerboard="0" inkscape:deskcolor="#d1d1d1" inkscape:zoom="0.31652174" inkscape:cx="259.06593" inkscape:cy="426.51099" inkscape:window-width="1080" inkscape:window-height="675" inkscape:window-x="0" inkscape:window-y="25" inkscape:window-maximized="0" inkscape:current-layer="svg3" />
    <path id="path1" d="M 50 700 A 25 25 0 0 0 25.214844 721.72852 L 25.214844 721.73633 A 25 25 0 0 0 25 725 A 25 25 0 0 0 25.214844 728.26367 L 25.214844 728.27148 A 25 25 0 0 0 50 750 L 450 750 A 25 25 0 0 0 474.78516 728.27148 L 474.78516 728.26367 A 25 25 0 0 0 475 725 A 25 25 0 0 0 474.78516 721.73633 L 474.78516 721.72852 A 25 25 0 0 0 450 700 L 50 700 z " />
</svg>
