<svg width="500" height="850" xmlns="http://www.w3.org/2000/svg" xmlns:svg="http://www.w3.org/2000/svg">
    <path
        d="M 50 0 A 25 25 0 0 0 25 25 L 25 525 A 125 125 0 0 0 75 625 A 125 125 0 0 0 133.95703 648.9668 A 125 125 0 0 0 150 650 A 125 125 0 0 0 250 599.85352 A 125 125 0 0 0 260.77148 612.42773 A 125 125 0 0 0 350 650 A 125 125 0 0 0 425 625 A 125 125 0 0 0 475 525 L 475 25 A 25 25 0 0 0 450 0 A 25 25 0 0 0 425 25 L 425 525 A 75 75 0 0 1 359.78906 599.35742 A 75 75 0 0 1 350 600 A 75 75 0 0 1 340.21094 599.35742 A 75 75 0 0 1 275 525 L 275 25 A 25 25 0 0 0 250 0 A 25 25 0 0 0 225 25 L 225 525 A 75 75 0 0 1 159.78906 599.35742 A 75 75 0 0 1 150 600 A 75 75 0 0 1 75 525 L 75 25 A 25 25 0 0 0 50 0 z " />
</svg>