<?xml version="1.0" encoding="UTF-8" standalone="no"?>
<svg width="500" height="850" xmlns:inkscape="http://www.inkscape.org/namespaces/inkscape"
    xmlns:sodipodi="http://sodipodi.sourceforge.net/DTD/sodipodi-0.dtd" xmlns="http://www.w3.org/2000/svg"
    xmlns:svg="http://www.w3.org/2000/svg">
    <path
        d="m 350,100 a 25,25 0 0 1 25,25 25,25 0 0 1 -25,25 H 250 175 v 550 h 75 100 a 25,25 0 0 1 25,25 25,25 0 0 1 -25,25 H 250 150 A 25,25 0 0 1 146.73633,749.78516 25,25 0 0 1 125,725 V 125 a 25,25 0 0 1 25,-25 h 100 z" />
</svg>