<?xml version="1.0" encoding="UTF-8" standalone="no"?>
<svg width="500" height="850" xmlns:inkscape="http://www.inkscape.org/namespaces/inkscape"
    xmlns:sodipodi="http://sodipodi.sourceforge.net/DTD/sodipodi-0.dtd" xmlns="http://www.w3.org/2000/svg"
    xmlns:svg="http://www.w3.org/2000/svg">
    <path id="path2"
        d="M 150 0 A 25 25 0 0 0 125 25 L 125 125 A 25 25 0 0 0 150 150 A 25 25 0 0 0 175 125 L 175 25 A 25 25 0 0 0 150 0 z M 350 0 A 25 25 0 0 0 325 25 L 325 125 A 25 25 0 0 0 350 150 A 25 25 0 0 0 375 125 L 375 25 A 25 25 0 0 0 350 0 z " />
</svg>