<?xml version="1.0" encoding="UTF-8" standalone="no"?>
<svg width="500" height="850" version="1.1" id="svg1" sodipodi:docname="uni006d.svg" inkscape:version="1.4.2 (ebf0e940, 2025-05-08)" xmlns:inkscape="http://www.inkscape.org/namespaces/inkscape" xmlns:sodipodi="http://sodipodi.sourceforge.net/DTD/sodipodi-0.dtd" xmlns="http://www.w3.org/2000/svg" xmlns:svg="http://www.w3.org/2000/svg">
    <defs id="defs1" />
    <sodipodi:namedview id="namedview1" pagecolor="#ffffff" bordercolor="#000000" borderopacity="0.25" inkscape:showpageshadow="2" inkscape:pageopacity="0.0" inkscape:pagecheckerboard="0" inkscape:deskcolor="#d1d1d1" inkscape:zoom="0.31652174" inkscape:cx="259.06593" inkscape:cy="426.51099" inkscape:window-width="1080" inkscape:window-height="675" inkscape:window-x="0" inkscape:window-y="25" inkscape:window-maximized="0" inkscape:current-layer="svg1" />
    <path id="path1" d="M 50 200 A 25 25 0 0 0 25 225 L 25 625 A 25 25 0 0 0 50 650 A 25 25 0 0 0 75 625 L 75 325 A 75 75 0 0 1 150 250 A 75 75 0 0 1 225 325 L 225 625 A 25 25 0 0 0 250 650 A 25 25 0 0 0 275 625 L 275 325 A 75 75 0 0 1 350 250 A 75 75 0 0 1 425 325 L 425 625 A 25 25 0 0 0 450 650 A 25 25 0 0 0 475 625 L 475 325 A 125 125 0 0 0 350 200 A 125 125 0 0 0 250 250.14648 A 125 125 0 0 0 150 200 A 125 125 0 0 0 75 225 A 25 25 0 0 0 50 200 z " />
</svg>
