<svg width="500" height="850" xmlns:inkscape="http://www.inkscape.org/namespaces/inkscape"
    xmlns:sodipodi="http://sodipodi.sourceforge.net/DTD/sodipodi-0.dtd" xmlns="http://www.w3.org/2000/svg"
    xmlns:svg="http://www.w3.org/2000/svg">
    <path
        d="M 250 200 A 25 25 0 0 0 225 225 L 225 384.54883 L 61.179688 302.63867 A 25 25 0 0 0 50 300 A 25 25 0 0 0 25 325 A 25 25 0 0 0 38.820312 347.36133 L 194.09766 425 L 38.820312 502.63867 A 25 25 0 0 0 25 525 A 25 25 0 0 0 50 550 A 25 25 0 0 0 61.179688 547.36133 L 225 465.45117 L 225 625 A 25 25 0 0 0 250 650 A 25 25 0 0 0 275 625 L 275 465.45117 L 438.82031 547.36133 A 25 25 0 0 0 450 550 A 25 25 0 0 0 475 525 A 25 25 0 0 0 461.17969 502.63867 L 305.90234 425 L 461.17969 347.36133 A 25 25 0 0 0 475 325 A 25 25 0 0 0 450 300 A 25 25 0 0 0 438.82031 302.63867 L 275 384.54883 L 275 225 A 25 25 0 0 0 250 200 z " />
</svg>