<?xml version="1.0" encoding="UTF-8" standalone="no"?>
<svg width="500" height="850" version="1.1" id="svg1" sodipodi:docname="uni002b.svg" inkscape:version="1.4.2 (ebf0e940, 2025-05-08)" xmlns:inkscape="http://www.inkscape.org/namespaces/inkscape" xmlns:sodipodi="http://sodipodi.sourceforge.net/DTD/sodipodi-0.dtd" xmlns="http://www.w3.org/2000/svg" xmlns:svg="http://www.w3.org/2000/svg">
    <defs id="defs1" />
    <sodipodi:namedview id="namedview1" pagecolor="#ffffff" bordercolor="#000000" borderopacity="0.25" inkscape:showpageshadow="2" inkscape:pageopacity="0.0" inkscape:pagecheckerboard="0" inkscape:deskcolor="#d1d1d1" inkscape:zoom="0.34976982" inkscape:cx="260.1711" inkscape:cy="425.99444" inkscape:window-width="888" inkscape:window-height="725" inkscape:window-x="0" inkscape:window-y="25" inkscape:window-maximized="0" inkscape:current-layer="svg1" />
    <path id="path1" d="M 250 200 A 25 25 0 0 0 225 225 L 225 400 L 50 400 A 25 25 0 0 0 25.214844 421.72852 L 25.214844 421.73633 A 25 25 0 0 0 25 425 A 25 25 0 0 0 25.214844 428.26367 L 25.214844 428.27148 A 25 25 0 0 0 50 450 L 225 450 L 225 625 A 25 25 0 0 0 250 650 A 25 25 0 0 0 275 625 L 275 450 L 450 450 A 25 25 0 0 0 474.78516 428.27148 L 474.78516 428.26367 A 25 25 0 0 0 475 425 A 25 25 0 0 0 474.78516 421.73633 L 474.78516 421.72852 A 25 25 0 0 0 450 400 L 275 400 L 275 225 A 25 25 0 0 0 250 200 z " />
</svg>
