<svg width="500" height="850" version="1.1" id="svg1" inkscape:version="1.4.2 (ebf0e940, 2025-05-08)"
    xmlns="http://www.w3.org/2000/svg">
    <sodipodi:namedview id="namedview1" pagecolor="#ffffff" bordercolor="#000000" borderopacity="0.25"
        inkscape:showpageshadow="2" inkscape:pageopacity="0.0" inkscape:pagecheckerboard="0"
        inkscape:deskcolor="#d1d1d1" inkscape:zoom="0.31652174" inkscape:cx="260.6456" inkscape:cy="426.51099"
        inkscape:window-width="1080" inkscape:window-height="675" inkscape:window-x="0" inkscape:window-y="25"
        inkscape:window-maximized="0" inkscape:current-layer="svg1" />
    <path
        d="M 350,0 A 25,25 0 0 0 330,10 L 30.050781,409.93359 a 25,25 0 0 0 -0.01563,0.0176 L 30,410 l 0.0039,0.002 a 25,25 0 0 0 -4.789062,11.72657 v 0.008 A 25,25 0 0 0 25,425 a 25,25 0 0 0 0.214844,3.26367 v 0.008 A 25,25 0 0 0 50,450 h 275 v 175 a 25,25 0 0 0 25,25 25,25 0 0 0 3.26367,-0.21484 A 25,25 0 0 0 375,625 V 450 h 75 a 25,25 0 0 0 24.78516,-21.72852 v -0.008 A 25,25 0 0 0 475,425 a 25,25 0 0 0 -0.21484,-3.26367 v -0.008 A 25,25 0 0 0 450,400 H 375 V 25 A 25,25 0 0 0 350,0 Z M 325,100 V 400 H 100 Z" />
</svg>