<svg version="1.0" xmlns="http://www.w3.org/2000/svg" width="500" height="500" viewBox="0 0 5000 5000">
  <style>
    @media (prefers-color-scheme: light) {
      path {
        fill: #8b0000;
      }
    }

    @media (prefers-color-scheme: dark) {
      path {
        fill: #daa520;
      }
    }
  </style>
  <g>
    <path
      d="M2870 5881c-45-5-54-9-52-23 2-10-3-18-9-18-7 0-20-7-30-16-17-15-21-15-54 5-20 11-40 21-45 21-6 0-13-19-16-41-4-23-17-53-30-68-22-25-26-26-144-28-91-1-127-6-145-17-36-24-45-20-45 18 0 35-23 66-35 46-3-5-14-10-24-10s-24-7-31-15c-7-9-19-14-25-11-7 2-17 0-23-6-5-5-38-11-72-13s-68-9-76-16c-7-6-23-9-33-6-25 6-47-11-55-43-11-46-43-87-87-108-24-12-47-18-53-13-16 12-91 22-110 15-17-7-22-44-6-44 17 0 11-17-16-49-28-33-51-33-34 0 14 26-9 35-51 20-18-6-43-11-56-11-20 0-29-10-49-57l-25-57 20-37c24-42 29-71 9-51-16 16-39 15-52-3-10-14-13-14-31-1-16 12-17 15-4 16 22 0 43 44 35 74-8 33-23 33-61-2-16-16-52-37-78-46-30-11-59-32-78-55-16-21-50-53-74-71-48-36-54-50-30-70 18-15 10-30-16-30-11 0-22-7-25-15-14-36 50-63 86-38 17 12 20 12 20 0 0-8-17-25-37-37-35-20-38-21-50-5-7 11-20 16-33 12-13-3-25 2-34 15-20 28-51 16-63-25-8-27-13-32-36-29-34 4-44-18-25-55 13-27 13-30-13-56-21-20-38-27-68-27-40 0-41-1-41-35 0-28-5-37-30-50-33-17-39-45-15-65 20-17 12-27-29-34-21-4-37-14-41-25-4-13-12-17-30-13-22 4-25 1-25-24 0-16 7-56 14-89 13-56 14-76 1-63-3 3-8 15-10 28-5 28-32 70-45 70s-24-45-17-69c3-13 0-18-7-15-8 3-20-14-32-42-10-25-27-50-36-55-10-5-18-16-18-23 0-8-7-17-16-20-10-4-15-16-13-33 2-16-2-38-9-50s-12-31-12-42-11-33-25-49c-24-29-24-31-10-78 13-44 13-50-6-84-18-32-24-35-57-32l-37 4-18-57c-9-30-17-63-17-71 0-9-11-30-26-46-14-17-23-37-20-45 4-8 6-22 6-30 0-12 8-14 35-10 22 4 35 2 35-5 0-18-53-58-77-58-19 0-22-7-28-62-4-35-11-81-17-102-8-32-6-45 9-74 18-34 18-34-5-49-12-9-22-25-22-37s-5-27-10-32c-7-7-7-32-1-75 7-49 6-83-7-147-16-80-16-84 1-97 11-8 32-11 52-8 38 6 45-2 38-40-4-22-10-27-24-24-22 6-39-19-39-57 0-20 5-26 21-26 22 0 55-60 50-92-1-10 2-18 7-18s8-19 5-42c-4-51 17-82 65-93 18-3 32-11 32-16 0-6-5-7-11-4-21 13-57-5-63-31-5-20-10-24-19-15-37 37-61-31-28-78 12-16 21-36 21-44 0-9 5-19 10-22 6-3 10-15 10-25 0-11 8-24 18-29 26-14 53-98 48-153-4-37-1-50 15-64 14-13 16-20 8-30-9-11-5-22 15-49 23-30 33-35 67-35 33 0 41-4 49-25s16-25 52-25c39 0 41-1 26-16-9-9-38-19-64-21-27-3-55-10-61-16-19-14-16-41 7-62 10-9 19-20 18-24-2-12 31-78 46-90 9-8 27-10 49-6 45 9 54-7 27-46-19-26-21-36-13-77 7-38 12-47 28-45 34 3 83-38 82-67-2-23 1-25 38-25 56 0 56 23 0 63-25 17-45 38-45 47 0 8-9 15-20 15s-20 6-20 13c0 18 21 37 41 37 18 0 129-122 129-141 0-6-16-26-35-46-33-34-45-63-26-63 5 0 12-11 15-24 5-20 12-24 41-23 27 1 35 5 35 19 0 11-7 18-20 18-26 0-26 16 0 30 11 6 20 17 20 25 0 7 5 17 12 21 7 5 9 0 6-14-4-12 0-26 8-33 8-6 14-20 14-31s11-33 25-50c25-30 32-62 16-72-5-3-16 6-26 20-11 17-24 24-38 22-17-2-21-10-22-40s5-43 36-73c38-37 65-39 56-4-7 25 29 57 45 41s38-15 59 4c10 9 22 13 28 10 11-7 41-64 41-80 1-16 51-71 78-85 33-17 27-38-18-61-39-20-46-33-34-64 8-22 29-20 45 4 8 12 30 23 51 27 34 5 39 3 48-21 14-39 12-66-5-66-8 0-15-6-15-14 0-22 48-66 72-66 13 0 30-9 38-20s24-20 35-20c12 0 32-11 45-25s31-25 40-25 22-10 29-23c10-18 21-22 68-24 40-1 62-8 77-22 12-12 26-21 30-21 5 0 17-11 28-25s27-25 36-25c10 0 22-8 28-18 14-22 133-85 212-111 87-30 182-27 182 4 0 7 7 18 15 25 21 17 32-14 18-51-13-34-1-47 51-56 31-5 36-3 36 14 0 30 24 47 40 28 10-12 10-18 0-30-21-25-5-40 59-58 81-23 87-22 100 13 5 16 13 30 17 30 29 0 114-41 142-69 29-28 39-33 68-28 25 4 34 2 34-8 0-21 26-25 134-20 67 3 104 9 113 18 12 12 20 12 51 1 34-12 38-11 54 7 16 19 19 19 34 5 10-10 33-16 65-16 45 0 49 2 49 25 0 13-7 28-16 33-18 10-11 32 10 32 8 0 19-7 26-15 7-9 29-15 51-15 35 0 39-3 39-24 0-23 3-25 50-24 42 1 51 5 56 22 6 24 60 32 68 10 9-23 89-18 111 6 13 15 31 20 66 20 26 0 50-4 54-9 10-18 123 0 190 30 11 5 45 13 75 18 84 14 171 41 206 62 17 10 42 19 56 19 13 0 35 11 48 25 17 18 30 23 47 19 18-5 23-2 23 14 0 15 5 18 25 14 41-7 74 6 81 33 5 22 9 23 54 18 51-6 76 10 48 31-12 9-7 12 25 12 23 1 43 7 45 13s12 11 23 11 27 9 36 20c10 11 28 20 40 20 26 0 74 44 97 88 21 40 28 43 62 30 26-9 35-7 76 21 25 17 48 38 52 46 3 8 12 15 21 15 21 0 145 100 145 117 0 7 7 13 16 13 20 0 104 89 104 110 0 9-5 21-12 28-8 8-5 14 16 22 15 5 40 10 55 10 37 0 51 18 59 76 6 38 13 51 37 65 17 10 36 18 43 18 17 1 55 44 88 98 23 39 24 44 10 59-22 22-20 30 14 54 22 15 29 27 25 40-5 16-1 18 35 13 46-6 49 0 21 57-21 44-13 54 39 43 25-4 30-2 30 14 0 10 9 26 20 36 29 25 25 52-12 70-17 8-37 13-45 10-9-4-13 5-13 31 0 25 5 36 15 36 28 0 65 24 65 42 0 10-4 18-10 18-5 0-10 10-10 23s-5 28-11 34c-9 9-9 23-1 54 8 33 8 51-3 83-19 53-20 50 14 88 33 38 53 100 42 131-10 27 4 78 24 90 21 12 19 35-5 42-15 5-20 15-20 45 0 21-4 42-10 45-5 3-10 17-10 31 0 30 35 34 43 4 7-29 31-25 61 11 20 24 27 27 32 16 12-33 0-62-28-65-24-3-28-8-28-33 0-45 44-36 63 14 3 9 14 17 24 17 52 1 69 59 31 110-25 35-53 39-68 10-6-11-19-20-30-20-10 0-22-5-26-11-5-8-10-6-16 6-7 11-6 21 1 28 19 19 12 55-21 102-37 52-33 69 21 97 18 9 44 26 56 38l23 22 11-21c7-12 21-21 32-21 18 0 21 5 17 31-4 28-1 33 30 46 44 18 54 8 41-41-6-21-8-47-6-58 3-10-1-32-10-48-24-48-10-70 66-106 27-13 46 11 48 62 2 27 5 96 8 154 13 229 12 284-3 303-14 15-13 17 1 17s17 12 17 73c0 93-7 120-30 114-21-5-35 40-18 61 7 8 7 16-1 25-7 10-7 17 0 24 8 8 6 20-5 41-9 17-16 43-16 58s-9 62-21 105c-18 68-28 85-80 141-33 36-57 69-54 78 19 65 18 70-9 70-21 0-26-5-26-24 0-27-15-42-25-26-4 6-9 35-12 64-5 48-3 56 16 68 11 7 21 18 21 24 0 20-54 118-71 131-10 7-15 21-12 31 2 10-6 31-19 47s-39 61-59 99c-22 44-48 79-67 91-17 11-29 26-27 32 8 22-44 112-72 125-17 8-29 24-33 43-13 63-94 164-133 165-10 0-20 6-23 14s-13 16-23 19c-12 3-20 18-24 43-8 47-80 121-126 130-17 4-31 12-31 19 0 22-34 75-52 80-9 3-19 12-22 20-3 9-18 15-37 15-28 0-31 3-26 25 3 18-2 30-17 40-26 19-46 19-46 1 0-26-21-29-46-5-15 14-22 29-18 41 7 23-28 25-46 2-19-22-49-36-61-28-6 3 1 13 18 23 15 10 35 30 43 45 14 27 13 29-14 51-16 13-35 21-42 18-8-3-21 8-31 26-21 37-44 47-72 30-27-17-55 5-47 37 7 28-16 47-87 70-38 13-55 14-73 5-22-10-23-9-12 8 18 29 4 47-58 77l-57 28-40-22c-46-25-54-23-37 8 17 32-8 53-66 56-25 2-51 7-57 13-27 22-92 37-119 27-23-8-33-6-59 13-35 26-51 23-75-16-28-44-46-63-55-57-5 3 0 15 11 26 11 12 20 30 20 41 0 16-5 19-30 14-25-6-30-3-30 13 0 31-35 42-125 38-71-3-85 0-94 15-12 19-66 24-76 7-4-6-11-8-16-5-16 10-47-5-52-25-7-27-25-25-39 5-12 26-43 34-50 13-3-7-9-8-19-3-8 5-22 8-31 7-13-2-16 1-12 13 6 14 1 16-27 13-25-2-35-8-37-23-7-46-13-48-30-14-15 31-22 34-64 37-38 2-48 0-48-13 0-26-27-28-59-6-31 22-94 25-221 12zm397-78c-4-3-10-3-14 0-3 4 0 7 7 7s10-3 7-7zm262-63c-16-11-29-4-29 16 0 12 4 13 21 3 17-9 19-13 8-19zm182-22c-18-14-21-24-16-49 5-20 3-29-3-25-5 3-12 17-15 31-3 20 1 30 19 42 13 8 24 23 25 32 0 12 2 13 6 2 3-8-4-23-16-33zm396-34c-7-7-37 7-37 17 0 6 9 5 21-1 11-7 19-14 16-16zm-1237-78c0-2-7-7-16-10-8-3-12-2-9 4 6 10 25 14 25 6zm1207-38c-3-8-6-5-6 6-1 11 2 17 5 13 3-3 4-12 1-19zm-1330-180c-3-8-6-5-6 6-1 11 2 17 5 13 3-3 4-12 1-19zm1350-5c-4-3-7 0-7 7s3 10 7 7c3-4 3-10 0-14zm-2080-15c-3-8-6-5-6 6-1 11 2 17 5 13 3-3 4-12 1-19zm1292 10c45 1 85-4 105-12 29-14 43-17 141-32 22-4 45-11 51-15 10-8 51-19 137-36 27-5 28-5 21 36-4 28-3 41 5 41 6 0 11-11 11-23 0-51 76-100 173-111 27-3 58-13 70-21s32-15 45-15 35-9 49-20 31-20 39-20c25 0 110-45 205-107 19-13 44-23 56-23s27-9 33-20 19-20 30-20c10 0 31-15 47-34 15-18 38-39 51-45 12-6 22-18 22-26s21-30 47-50c80-61 199-168 219-197 10-16 26-28 34-28s28-16 43-35 34-35 42-35 15-6 15-13 9-18 20-25 20-17 20-23c0-7 16-29 35-50 19-22 35-44 35-50s11-25 25-43 25-38 25-44c0-7 4-12 9-12 4 0 30-42 56-92 26-51 53-100 60-108s16-29 19-45c4-17 16-46 27-64 19-32 21-33 69-26 41 6 51 4 56-10 11-27-11-40-42-26-33 15-54 0-34-24 10-12 10-21 2-39-14-32 4-107 25-104 15 3 22-31 23-116 0-17 8-38 16-47 9-10 13-23 9-29s-2-16 3-23c13-16 24-69 27-132 5-79 23-217 35-255 7-24 6-43-2-67-10-28-9-35 7-53 17-19 17-21 2-38-19-21-22-48-7-57s-9-37-26-31c-16 6-38-30-28-45 5-9-17-154-32-207-2-7-15-17-28-22-26-10-43-50-31-70 4-7 18-9 32-5 17 4 23 2 18-6-7-10 0-30 31-91 14-25 3-51-11-28-3 5-21 10-40 10-26 0-35-5-41-22-5-17 1-27 26-48 33-27 34-50 3-50-9 0-31-16-50-36-31-33-33-38-18-54 17-19 11-30-16-30s-32-16-14-44c16-23 15-25-11-38-44-21-53-46-26-68 29-24 28-30-5-30-30-1-73-30-73-50 0-7-12-27-27-45-16-17-35-42-43-55s-30-40-48-61c-29-33-32-42-26-76 4-21 11-43 16-49 17-22-21-24-41-3-11 12-23 20-28 18s-38-35-73-74c-35-38-76-78-91-87s-41-37-59-62c-17-26-45-53-63-61-48-21-87-61-94-96-6-29-7-31-19-14-11 15-18 17-39 7-27-12-46-63-27-70 17-5 15-20-8-44-19-21-20-21-39-4-19 18-21 17-63-17-24-19-68-47-98-61-61-28-79-39-130-77-28-21-39-24-52-16-13 9-22 7-41-11-13-12-27-22-31-22s-22-6-39-14c-18-8-63-22-102-31-38-10-99-28-135-42-134-51-291-72-590-78-91-2-175-4-187-4-18-1-23-7-23-27s-4-25-16-20c-9 3-22 6-30 6s-14 6-14 14c0 18-25 28-54 20-13-3-47 2-77 10-30 9-67 16-84 15-49 0-149 13-160 21-5 5-50 16-100 25-49 9-101 21-115 27s-68 26-120 44c-67 22-98 38-105 53-12 27-41 27-55 1-13-25-29-26-37-2-4 9-12 21-20 25-7 4-13 15-13 22 0 12-14 15-60 15-43 0-60 4-60 13 0 28-117 107-157 107-6 0-34 23-62 51-45 45-56 51-86 47-32-4-34-2-29 19 7 27-26 63-58 63-10 0-21 7-25 16-3 9-25 24-48 34-36 15-43 24-49 54s-13 39-45 52c-35 14-38 18-37 52l1 37-58 3c-52 3-57 5-52 22 4 12-5 34-25 61-16 23-28 50-25 58 3 10-8 30-25 49-17 18-30 39-30 46s-8 24-18 37c-11 13-22 39-26 58-3 19-16 41-27 49-17 11-20 21-15 47 7 35-4 45-45 45-16 0-19 5-14 21 4 12 1 27-8 37-10 12-14 34-12 70 2 40-1 54-13 61-14 8-14 12-3 25 12 14 11 20-7 39-15 16-19 30-15 51 5 26 4 28-18 23-34-9-55 34-33 68 11 17 13 32 5 65-5 23-14 47-20 53-14 14-14 97-1 97 6 0 10-9 10-20 0-24 42-70 65-70 8 0 15 8 15 18s6 27 14 38c15 21 18 144 4 144-5 0-8-5-8-11 0-15-38-61-42-52-10 20-7 68 6 88 9 14 11 27 5 37-7 12-3 23 13 41 13 13 31 38 40 55 9 18 22 32 28 32 15 0 12-46-5-60-19-16-19-39 1-61 14-16 19-13 73 40 53 51 86 111 62 111-5 0-9 8-9 18 0 9-3 25-7 35s-3 17 5 17c16 0 42-28 36-39-3-4 4-17 15-27 27-24 41-4 27 38-14 39-5 57 26 51 36-7 33 15-4 31-22 9-27 15-18 24 15 15-28 10-59-7-31-16-29-1 7 44 17 21 28 45 25 53-3 7-5 21-5 30 0 17-56 49-66 39-3-3 5-19 17-36 16-22 20-34 12-42-7-7-17-2-33 20-12 17-26 28-31 25-6-3-1-12 10-21 24-16 28-41 7-49-7-3-22-25-32-50-19-46-20-47-69-48-26-1-30-5-33-31-2-16-8-34-13-39-5-6-9-30-9-54 0-39-2-43-20-37-17 5-20 2-20-20 0-14-7-40-16-58-9-17-17-48-17-69 0-22-5-39-13-42-10-4-14 5-14 32 0 21-5 43-10 48-10 10-14 116-11 269 0 40-6 73-18 97-18 36-18 37 2 40 25 4 35 37 41 136 3 49 12 88 26 115 16 30 20 50 15 75-4 23-2 38 6 42 17 11 42 79 43 121 1 20 7 43 13 51 17 19 63 143 63 167 0 11 11 33 25 49 14 17 25 39 25 51 0 11 13 41 29 65 15 25 34 66 41 91 8 28 20 47 31 50 11 4 28 24 39 46 11 21 31 46 44 54 13 9 27 27 30 41 10 38 23 28 30-24 11-87 71-116 129-64 27 24 67 106 67 138 0 14 11 39 25 56 14 16 25 36 25 43 0 21 82 65 121 65 20 0 44-6 55-14 18-14 18-16 1-48-17-33-17-34 12-90 16-31 27-59 24-62-4-3-1-6 6-6s10-4 7-9-1-23 6-41c8-25 8-38-1-52-8-13-9-23-2-32 6-7 8-21 5-32s3-28 13-39c16-17 39-68 47-100 5-22 37-75 45-75 5 0 12 7 15 16 4 11 13 14 31 10 20-5 25-3 25 12 0 18 18 42 31 42s19-54 11-84c-5-19-20-36-40-45-17-9-32-24-32-33 0-10-2-18-6-18-10 0-120 78-158 114-22 20-44 36-48 36s-8-17-8-37c0-21-4-44-9-51-11-18-35-11-41 12-5 16-11 11-38-30-17-28-35-66-38-85-4-19-14-44-22-56-8-13-12-30-8-38 3-8 2-15-2-15-19 0-32-62-32-146 0-53-4-96-10-99-14-9-1-77 17-90 11-8 11-21 3-64-13-68-13-128 0-136 6-4 7-28 4-61-6-47-4-60 14-84 12-15 24-40 28-54 8-32 22-42 37-27 11 11 47 15 47 5 0-3-7-12-15-20-21-22-19-61 4-67 14-3 17-11 14-32-5-22-2-26 13-23 13 2 20-4 22-19 6-44 52-55 52-13 0 28 39 60 72 60 24 0 28-4 28-27-1-27-1-27-15-9-15 19-15 19-39-3-31-30-41-83-22-119 8-15 17-34 21-42 21-51 70-110 92-110 7 0 13-7 13-15 0-9 8-19 18-22 15-6 96-85 130-127 8-9 26-19 42-23 16-3 31-11 34-19 3-7 22-16 43-20 48-8 66-17 130-65 29-22 57-39 63-39 21 0 9 18-35 49-51 37-59 56-17 47 49-12 190-86 209-110 10-12 23-25 29-27 47-18 178-222 199-311 4-16 11-28 17-28 5 0 6-5 3-10-3-6-1-10 5-10s9-4 5-9c-3-5-1-13 5-16 8-5 7-11-1-21-12-14-33-9-24 6 3 5-3 13-12 19-10 6-15 11-11 11 17 0-98 219-144 274-28 34-54 62-59 64-19 7 3-44 40-92 21-28 42-66 46-84 3-17 11-32 16-32 6 0 8-26 6-62-3-45-8-63-17-63-10 0-15 13-15 40-2 67-4 73-26 94-11 10-28 32-37 49-23 41-95 142-122 170-16 17-25 21-33 13-16-16-62-14-138 6l-67 17-57-39c-31-22-60-46-65-54-7-12-11-13-24-2-8 7-48 19-88 28-57 12-82 23-119 54-26 21-52 39-58 39s-11 4-11 9-23 26-50 46c-44 33-55 36-88 30s-90-54-92-77c0-4 23-5 52-3 57 6 108-9 108-31 0-17-61-19-77-3-9 9-21 8-46-5-19-9-45-16-56-16-29 0-38-28-15-45 11-7 19-23 19-36 0-37 26-45 86-26 55 18 149 14 149-5 0-5 8-8 18-6 11 2 31-3 46-11 24-13 28-13 51 9l25 23v-21c0-14 6-22 18-22 37 0 89-22 126-54l39-34-27-46c-16-27-40-52-59-61-54-24-121-66-146-91-13-13-34-25-47-25-13-1-30-2-36-3-9-1-13 14-13 44 0 39-3 45-22 48-13 2-23-1-23-7 0-19-26-12-50 14-32 34-46 31-67-12-9-21-27-46-39-56-27-21-38-65-29-108 10-42 69-106 107-114 20-5 54-30 93-71 45-46 69-64 88-64 14 0 29-4 32-10 3-5 15-10 26-10 10 0 19-4 19-8s8-8 18-9c53-3 189-27 199-35 38-31 192-43 209-17 3 5 24 6 47 3 36-5 48-2 74 20 36 30 46 32 63 11 9-10 25-13 58-9 49 5 156 21 182 26 27 6 80 42 80 54 0 16-24 24-41 13-22-14-56-10-63 7-3 9-6 40-6 70 0 48-2 54-21 54-18 0-19-2-9-15 10-12 9-15-4-15-22 0-30 24-17 48 9 18 6 23-29 40-34 16-40 17-40 4 0-11-8-13-39-8-37 6-39 5-44-28-3-18-3-61 0-95 4-43 2-61-6-61-6 0-14 8-17 18-3 9-10 26-14 37-5 11-10 29-12 40-2 13-14 21-38 26-39 8-49 4-32-13 15-15 16-52 2-43-6 4-10-7-10-24s5-31 10-31c19 0 10-17-15-28-21-10-25-9-25 5 0 9-7 24-15 33-12 13-12 21 0 55 31 92 60 112 110 79 23-15 25-15 31 0 4 9-1 25-9 34-16 18-17 57-3 81 9 15 92 7 114-11 8-7 17-7 27 2 17 14 21 60 5 60s-12 30 5 37c24 9 29-3 30-64 0-38 4-58 14-61s12 15 8 97c-3 61-2 101 4 101 17 0 31-54 24-97-3-24-3-49 2-55 4-7 8-22 8-33s7-20 15-20c9 0 15 9 14 23-1 24 6 28 23 11 7-7 21 2 46 31 29 35 34 45 25 60-9 14-7 25 10 52 12 20 22 45 22 57s6 21 15 21c8 0 15 6 16 13 1 26 8 52 19 72 7 13 8 29 2 45-6 15-5 38 0 59 10 33-3 98-23 126-5 6-11 30-15 53-7 47-28 67-84 82-19 5-57 28-84 50-26 22-52 40-57 40s-9 7-9 15-14 22-31 30c-29 16-31 15-36-4-3-12-10-21-15-21s-6-5-2-12 3-8-4-4c-17 10-15 54 3 64 25 13 7 39-41 59-25 10-42 23-40 30 5 11-73 82-103 94-9 4-27 2-39-2-18-7-23-6-19 3 2 7 11 12 18 10 9-2 7 4-5 17-27 30-17 33 34 10 43-19 43-19 26 0-10 10-41 29-69 42-29 12-47 24-40 26s20 0 30-5c26-14 83-3 76 14-4 11 6 14 42 14 56 0 111-35 175-111 46-55 85-82 72-52-22 55-78 142-94 146-10 3-18 12-18 20 0 10-11 17-27 19-25 3-29 8-37 56-9 52-21 63-45 40-10-11-11-10-6 3 8 21-8 33-73 54-29 9-56 24-61 34-6 10-34 24-64 32-49 14-55 14-65 0-9-14-11-13-11 7-1 31-50 80-61 62-10-16-1-42 11-34 5 3 9 1 9-4 0-15-30-23-35-9-21 60-26 68-42 65-26-5-25-21 3-51 34-37 25-45-14-12-18 15-37 23-46 19-10-4-18 0-22 10-7 19-13 20-37 2-18-14-29-49-30-98 0-16-1-28-3-28-1 0-10 3-18 6-13 5-14 10-6 20 7 7 10 25 8 41-2 18 5 36 20 52 26 28 28 53 7 71-11 9-13 16-6 23 14 14 41-9 41-34 0-23 13-24 31-3 14 17 69 12 104-10 21-13 49-10 40 4-3 5 3 7 12 6 10-2 23-13 29-25 11-22 55-51 77-51 6 0 18-7 28-16 9-8 23-17 31-18 7-1 23-8 36-14 12-7 22-9 22-5s6-2 14-12c9-13 26-19 54-19 22-1 38-3 36-5-6-6 29-30 46-31 8 0 28-13 45-30l31-30-2 48c-1 26-3 57-3 69-1 12-12 34-26 49s-25 34-25 42c0 13-3 13-18-1-23-21-42-22-42-3 0 23-17 28-97 33-86 4-144 27-187 71-15 17-41 36-57 42-16 7-30 18-30 24-1 6-3 26-5 44-3 44-7 47-46 36-23-7-34-17-38-34-3-14-14-38-24-55-11-16-21-31-22-33s-15 3-31 11c-20 11-34 12-47 5-24-13-30-4-14 21 11 18 11 23-2 31-18 11-8 22 25 25 19 3 25-1 25-16 0-10 5-19 10-19 6 0 10 5 10 10 0 6 7 10 15 10 10 0 15 10 15 30 0 24 7 33 39 50 22 11 46 32 53 47 8 17 21 27 30 25 9-1 19 6 23 18 5 17 9 19 21 9 18-15 31-4 16 14-17 20-3 115 21 156l21 34-25-6c-53-13-98-37-120-64-13-16-39-35-56-42-35-14-40-31-23-75 7-21 6-26-5-26-8 0-16-9-16-20-1-11-3-24-4-30-1-5-3-13-4-17-1-5-6-1-11 7s-10 43-10 78c0 66-6 74-35 42-10-11-21-17-26-14-5 2-23-2-40-11-24-13-30-22-27-39 4-17 0-22-16-22-18 1-21-4-18-34 1-19 8-39 15-45 12-9 18-105 7-105-10 0-28 56-35 110-11 92-11 94 13 105 12 5 22 13 22 18 0 12 73 77 88 77 7 0 32 9 57 21 34 16 47 29 53 53 7 27 14 32 48 36 22 3 58 16 79 28 27 17 46 21 68 16 25-5 29-4 24 10-9 22 5 20 26-4 23-28 40-25 60 9 20 35 22 51 4 51-8 0-22 10-33 21-19 22-19 22 6 14 14-4 33-14 42-22 20-18 38-9 38 17 0 10 8 25 18 32 51 36 52 95 2 157-17 21-34 51-39 67-7 25-12 29-38 26-17-2-34 2-38 7-3 6 1 11 10 11 41 0 24 60-25 85-23 12-30 23-30 44 0 15-9 36-20 46s-20 24-20 31-13 23-30 36c-16 12-30 27-30 32 0 6-9 22-20 36s-20 36-20 49c0 30-27 61-52 61-14 0-17-5-13-22 6-27-8-53-24-44-6 4-11 18-11 32 0 16-8 28-22 34-13 6-30 14-38 19s-60 15-115 21c-100 12-100 12-190-18-83-28-91-33-101-64-9-26-17-33-39-34-25-1-26 1-12 11 10 7 17 21 17 31 0 36 12 63 30 69 26 8 87 69 92 91 2 11 11 18 20 16 9-1 27 11 41 28 14 16 33 30 42 30 8 0 18 7 21 15 4 8 13 15 21 15 7 0 40 17 71 37 31 21 62 40 68 43s25 22 43 42c26 30 125 96 176 117 5 2 17 13 26 25 13 16 27 20 62 18 29-1 49 4 57 13 7 8 20 15 29 15s35 13 59 29c26 18 50 27 62 24s29 2 39 11c11 10 44 20 75 23 50 5 57 3 75-18l20-24 23 23c19 19 21 25 11 42-11 16-9 20 7 25 11 4 28 4 38 1 10-4 27 1 38 9 10 8 35 15 54 15 48 0 80 10 80 24 0 7 22 11 58 11 31 1 84 5 117 9 149 21 272 33 290 28 11-3 53-5 94-4zm871-128c0-5-2-10-4-10-3 0-8 5-11 10-3 6-1 10 4 10 6 0 11-4 11-10zm187-27c-4-3-7 0-7 7s3 10 7 7c3-4 3-10 0-14zm-80-50c-4-3-7 0-7 7s3 10 7 7c3-4 3-10 0-14zm220-30c-4-3-7 0-7 7s3 10 7 7c3-4 3-10 0-14zm78-43c3-5-3-10-14-10-12 0-21 5-21 10 0 6 6 10 14 10s18-4 21-10zm-3045-54c0-3-4-8-10-11-5-3-10-1-10 4 0 6 5 11 10 11 6 0 10-2 10-4zm-200-46c0-5-5-10-11-10-5 0-7 5-4 10 3 6 8 10 11 10 2 0 4-4 4-10zm3489-131c1-32-2-37-26-42-16-3-29-4-31-2s4 18 13 36c14 27 15 36 5 53-10 16-9 22 6 33 17 13 20 11 25-14 4-15 7-44 8-64zm-3613-100c8-14-21-43-35-35-6 4-11 16-11 27 0 21 34 27 46 8zm3774-39c0-11-2-20-3-20-2 0-12 9-22 20-18 19-17 20 3 20 15 0 22-6 22-20zm-3-47c-4-3-7 0-7 7s3 10 7 7c3-4 3-10 0-14zm-3664-130c2-5-7-18-20-30-26-25-27-24-13 11 9 25 25 34 33 19zm-288-64c0-17-47-19-52-2-2 6 4 13 14 16 26 7 38 2 38-14zm240 1c3-5 1-10-4-10-6 0-11 5-11 10 0 6 2 10 4 10 3 0 8-4 11-10zm-15-24c0-3-5-8-12-12s-8-3-4 4c7 12 16 16 16 8zm877-272c-9-10-38 16-31 28 4 6 13 4 22-6 9-8 13-19 9-22zM547 4063c-4-3-7 0-7 7s3 10 7 7c3-4 3-10 0-14zm5023-113c-8-5-26-9-40-9l-25 1 25 8c14 4 32 8 40 9 13 1 13 0 0-9zM365 3644c16-26 16-26-7-19-30 10-42 21-34 34 11 17 22 13 41-15zm5175-145c0-4-7-6-15-3-8 4-15 10-15 15 0 4 7 6 15 3 8-4 15-10 15-15zm15-29c3-5-1-10-10-10s-13 5-10 10c3 6 8 10 10 10s7-4 10-10zm478-7c-13-2-35-2-50 0-16 2-5 4 22 4 28 0 40-2 28-4zm-5846-30c-4-3-10-3-14 0-3 4 0 7 7 7s10-3 7-7zm163-62c0-20-17-37-27-28-7 8 7 47 18 47 5 0 9-9 9-19zm-124-36c1-8-1-15-6-15-4 0-6-11-5-25 2-15-2-25-10-25-7 0-13 10-13 23 0 12-1 29-3 37-3 10 2 14 15 12 12-2 16 1 10 10-4 7-3 9 1 5 5-4 10-14 11-22zm99-81c-10-7-23-10-29-6-7 4-2 8 12 10 12 2 22 11 23 20 0 13 2 14 6 3 3-8-2-20-12-27zm-125-1c0-5-5-15-10-23-8-12-10-11-10 8 0 12 5 22 10 22 6 0 10-3 10-7zm1500-15c0-13-9-38-21-57-17-29-18-35-6-50 8-9 17-24 21-34 3-11 15-21 26-24s20-12 20-19c0-8 7-17 15-20 8-4 12-10 9-15-5-8 9-13 29-10 4 0 7-4 7-9 0-17-20-11-55 16-20 15-43 24-57 22-21-3-19-6 22-35 25-18 57-41 71-52 15-11 39-20 55-21 16 0 45-1 64-2 25-2 35 1 35 12 2 43 45 72 45 31 0-11 6-21 13-24s5-7-8-12c-34-11-50-22-49-31 1-12 52-41 86-49 23-6 28-3 34 19 3 14 10 23 15 20s7-15 3-28c-5-19 4-27 70-61 42-21 76-42 76-45s-5-11-11-17c-7-7-1-15 21-25 27-13 29-16 15-28s-20-10-41 13c-14 15-29 27-33 27-5 0-31 18-57 40-50 41-78 51-67 25 5-13 2-14-21-4-14 7-26 18-26 26 0 16-74 52-107 53-12 0-29 7-38 16-8 9-23 13-31 10-9-4-28 4-46 19-16 14-38 25-48 25s-22 5-26 11c-3 6-22 17-40 25-41 17-67 68-51 99 10 19 10 19 18-3 9-24 39-30 39-8 0 28-12 46-30 46-25 0-34 16-37 68-3 41-2 43 13 27 15-15 18-15 35 1 10 9 21 25 24 35 9 26 25 24 25-3zm-1492-51c2-10-3-17-12-17-13 0-16-9-14-37 4-57-15-55-25 2-7 42-5 51 9 62 22 16 38 12 42-10zm5926-34c4-9 2-21-4-27-5-5-10-22-10-36 0-15-9-35-20-45-20-18-20-17-20 34 0 57 13 91 34 91 8 0 17-8 20-17zm-5599-3c3-5 1-10-4-10-6 0-11 5-11 10 0 6 2 10 4 10 3 0 8-4 11-10zm1545-94c0-6 7-24 15-39 8-16 9-25 3-21-8 5-9 1-5-10 5-11 3-15-5-10s-9 2-5-10c4-10 3-15-4-11-6 4-8-4-4-22 5-26 5-26-5-5-5 13-14 21-19 18-5-4-7 4-3 16 5 20 3 21-10 10-13-10-15-9-11 12 3 13 0 33-6 45-15 27 2 28 28 2 18-18 31-18 31-1 0 4-11 19-25 34s-25 32-25 38 11 1 25-12 25-28 25-34zm-1485 34c3-5 1-10-4-10-6 0-11 5-11 10 0 6 2 10 4 10 3 0 8-4 11-10zm-428-57c-4-3-10-3-14 0-3 4 0 7 7 7s10-3 7-7zm40-20c-4-3-7 0-7 7s3 10 7 7c3-4 3-10 0-14zm13-61c0-21-2-22-15-12-8 7-15 18-15 25 0 8-5 15-12 17-6 2-8 9-4 16 11 17 46-18 46-46zm419-18c-7-9-13-32-14-52 0-19-5-37-11-39-16-5-27 28-14 41 5 5 10 20 10 31 0 25 8 35 28 35 12 0 12-3 1-16zm1538-41c-4-3-10-3-14 0-3 4 0 7 7 7s10-3 7-7zm3457-26c13-21-15-53-38-44-19 8-21 38-4 55 15 15 28 11 42-11zm-5377-44c6-18-37-37-50-24-8 8-5 15 9 26 21 16 36 15 41-2zm403-134c0-6-4-7-10-4-5 3-10 11-10 16 0 6 5 7 10 4 6-3 10-11 10-16zm-253-21c-3-27-8-34-30-36-36-4-36 20-1 47s36 27 31-11zm213-39c0-6-4-7-10-4-5 3-10 11-10 16 0 6 5 7 10 4 6-3 10-11 10-16zm-310-18c0-5-7-14-16-21-13-11-19-10-37 8l-21 22h37c20 0 37-4 37-9zm360-50c0-23 5-30 23-33 17-2 21-9 19-28-2-14-5-37-6-52-5-44-6-44-21-18-8 14-14 35-15 48 0 12-4 22-10 22-5 0-7 7-4 15 4 8 1 15-5 15-12 0-15 42-4 53 14 15 23 6 23-22zm-262-99c2-7-2-10-12-6-9 3-16 11-16 16 0 13 23 5 28-10zm107-42c3-5 1-10-4-10-6 0-11 5-11 10 0 6 2 10 4 10 3 0 8-4 11-10zm-134-282c-3-21-6-26-9-15-3 17 3 47 11 47 2 0 1-15-2-32zm117-18c-7-11-15-15-17-9s3 15 10 20c20 12 21 11 7-11zm5198-7c-10-10-19 5-10 18 6 11 8 11 12 0 2-7 1-15-2-18zm-4972 1c25-9 19-24-9-24-24 0-32 10-18 23 8 8 8 8 27 1zm93-21c-4-3-10-3-14 0-3 4 0 7 7 7s10-3 7-7zm-39-91c9-6 6-14-11-30l-24-22 5 30c4 32 9 35 30 22zm4535-59c-3-21-10-42-16-48-6-7-8 1-3 24 3 18 6 40 6 47 0 8 4 14 9 14 6 0 7-17 4-37zm-4602-30c-8-15-10-15-11-2 0 17 10 32 18 25 2-3-1-13-7-23zm-54-19c-3-3-12-4-19-1-8 3-5 6 6 6 11 1 17-2 13-5zm-80-21c-4-3-10-3-14 0-3 4 0 7 7 7s10-3 7-7zm263-163c0-5-2-10-4-10-3 0-8 5-11 10-3 6-1 10 4 10 6 0 11-4 11-10zm199-66c-8-9-19-29-26-43l-12-26 2 27c2 15 11 36 22 47 21 25 34 19 14-5zm-241 7c9-5 24-12 33-14 9-3 19-20 21-37 4-26 1-33-18-40-12-5-23-13-25-18s-14-13-26-16c-27-9-31 10-8 40 17 22 20 60 5 69-10 6-14 25-5 25 3 0 13-4 23-9zm4499-78c-4-3-10-3-14 0-3 4 0 7 7 7s10-3 7-7zm-4350-48c-7-14-18-25-26-25-10 0-7 8 9 25 29 31 31 31 17 0zm4228-9c-20-30-43-40-61-25-25 21-15 38 24 42 20 2 40 4 45 5 4 1 0-9-8-22zm-205-59c0-29-15-51-29-43-7 5-6 14 5 31 9 13 12 30 8 36-4 8-3 9 4 5s12-17 12-29zm-4173 16c-4-3-10-3-14 0-3 4 0 7 7 7s10-3 7-7zm249-37c11-8 54-18 95-22 62-5 77-4 88 10 12 14 17 13 52-7 41-23 47-35 27-55-13-13-88-17-88-4 0 7-48 32-63 32-5 0-21-9-37-20-24-17-29-18-40-5-15 18-37 19-43 3-4-9-14-4-31 15-38 41-35 55 14 66 3 0 15-5 26-13zm4524-56c0-5-4-10-10-10-5 0-10 5-10 10 0 6 5 10 10 10 6 0 10-4 10-10zm-4270-92c0-15-49-40-61-32-15 9-10 19 14 30 31 16 47 16 47 2zm3934 2c29-11 35-44 10-54-12-4-14-1-9 14 9 28-17 36-49 15s-34-10-3 16c27 22 20 21 51 9zm-4267-7c-4-3-10-3-14 0-3 4 0 7 7 7s10-3 7-7zm4523-14c0-18-2-19-15-9-8 7-15 16-15 21s7 9 15 9c9 0 15-9 15-21zm-4100-20c0-5-4-9-10-9-5 0-10 7-10 16 0 8 5 12 10 9 6-3 10-10 10-16zm-90-75c0-31-23-28-28 4-2 15 2 22 12 22 11 0 16-9 16-26zm-333-11c-4-3-10-3-14 0-3 4 0 7 7 7s10-3 7-7zm469-28c4-14 3-29 0-33-9-8-26 18-26 41 0 26 19 20 26-8zm-296-15c0-21-15-27-25-10-7 12 2 30 16 30 5 0 9-9 9-20zm184-29c8-13-4-42-15-35-12 7-12 44 0 44 6 0 12-4 15-9zm370-27c25-10 19-22-9-16-14 2-25 8-25 13 0 10 12 11 34 3zm3506 3c0-2-10-12-21-23-22-19-22-19-8 4 12 19 29 30 29 19zm-3677-41c3-7-1-31-8-52-8-22-14-50-15-64 0-25 0-24-32 9-22 22-29 35-20 38 20 8 14 44-8 50-11 3-17 9-14 14s16 6 29 3c12-3 26-1 29 5 10 15 33 14 39-3zm92-82c28-18 32-45 10-64-26-21-45-4-45 40 0 45 1 46 35 24zm3392 9c-4-3-10-3-14 0-3 4 0 7 7 7s10-3 7-7zm-3647-39c0-8-4-12-10-9-5 3-10 10-10 16 0 5 5 9 10 9 6 0 10-7 10-16zm-100-25c0-5-4-9-10-9-5 0-10 7-10 16 0 8 5 12 10 9 6-3 10-10 10-16zm568-20c9-14 10-25 4-31-7-7-12-3-17 11-4 14-15 21-33 22-24 0-25 1-7 9 31 13 39 12 53-11zm-91-6c-4-3-10-3-14 0-3 4 0 7 7 7s10-3 7-7zm-393-24c13-12 6-17-34-21-30-3-35 0-38 20-3 22-1 23 30 17 18-4 37-11 42-16zm723-6c-4-3-10-3-14 0-3 4 0 7 7 7s10-3 7-7zm93-24c0-23-16-25-24-3-10 25-7 34 9 28 8-4 15-15 15-25zm-406-25c3-9 6-25 6-36 0-18-4-20-36-15-47 8-50 12-34 42 15 28 54 34 64 9zm-169-23c-17-33-52-61-75-61-9 1 6 20 35 45 27 25 51 45 52 45 2 0-3-13-12-29zm268 23c3-4 1-16-4-27-9-16-13-17-20-6-13 21-11 39 4 39 8 0 17-3 20-6zm-538-35c-10-15-25-10-19 6 4 8 10 12 15 9s7-10 4-15zm902-39c20 0 11-24-10-28-13-3-17 4-16 30 1 18 3 25 6 16 2-10 11-18 20-18zm-520-27c-4-3-7 0-7 7s3 10 7 7c3-4 3-10 0-14zm633 8c0-6-4-13-10-16-5-3-10 1-10 9 0 9 5 16 10 16 6 0 10-4 10-9zm885-1c3-5-1-10-10-10s-13 5-10 10c3 6 8 10 10 10s7-4 10-10zm-1275-4c0-3-4-8-10-11-5-3-10-1-10 4 0 6 5 11 10 11 6 0 10-2 10-4zm350-49c0-35-11-40-27-11-17 34-17 34 7 34 14 0 20-7 20-23zm-113-64c-4-3-7 0-7 7s3 10 7 7c3-4 3-10 0-14zm2228-3c3-5 4-10 1-10s-8 5-11 10c-3 6-4 10-1 10s8-4 11-10zm-2501-19c16-18 13-51-5-51-5 0-9-8-9-17 0-14-2-15-12-4s-10 14 0 18c14 6 16 39 2 48-12 8-13 25-2 25 5 0 16-8 26-19zm876 0c0-5-13-16-29-24-29-15-29-15-19 9 11 23 48 34 48 15zm-370-5c0-3-4-8-10-11-5-3-10-1-10 4 0 6 5 11 10 11 6 0 10-2 10-4zm1555-26c3-5 4-10 1-10s-8 5-11 10c-3 6-4 10-1 10s8-4 11-10zm-1969-77c-9-10-15 0-22 38l-5 34 17-33c9-18 14-35 10-39zm91 30c-4-3-10-3-14 0-3 4 0 7 7 7s10-3 7-7zm312-37c-14-40-34-47-42-16-3 12 0 20 7 20 6 0 17 9 24 21 20 31 26 16 11-25zm-282 7c0-17-5-16-23 1-12 13-12 15 4 13 10 0 19-7 19-14zm1740-10c-4-3-7 0-7 7s3 10 7 7c3-4 3-10 0-14zm-1497-88c0-2-9-9-20-15-16-9-20-8-20 5 0 8 9 15 20 15s20-2 20-5zm25-65c3-5 1-10-4-10-6 0-11 5-11 10 0 6 2 10 4 10 3 0 8-4 11-10zm452-37c-4-3-7 0-7 7s3 10 7 7c3-4 3-10 0-14z" />
    <path
      d="m3213 5240-6-31-19 21c-26 28-88 28-88 0 0-24-8-25-38-4-39 27-56 11-49-47 6-45 4-52-13-56-27-7-25-29 3-47 67-41 196-39 182 3-5 16 4 19 67 27 65 8 73 11 71 29-2 11 4 29 12 40 13 16 18 17 33 7 31-22 44-25 52-12 12 20 40-6 40-36v-24l-40 20c-46 24-50 24-50 7 0-13 73-67 90-67s20-33 4-45c-15-10-16-20-8-66 6-33 14-53 22-51 15 3 16-25 1-30-17-6 12-49 31-47 8 1 22 0 30-4 8-3 27-8 43-11 18-4 27-13 27-26 0-18-5-19-54-14-34 4-56 2-60-5-13-20-38-13-31 9 8 25-22 28-39 5-6-8-40-20-75-26-35-5-73-16-85-24-11-8-30-15-42-15-45 0-104-71-97-115 5-25 110-58 188-59 27-1 55-4 62-9 6-4 18-4 26-1 9 3 25 0 37-6 30-16 34-8 9 23-16 22-29 27-64 27-24 0-47 6-54 14-18 21 3 29 54 22 42-7 43-6 50 24 8 36 40 41 51 8 9-30 79-95 110-102 19-5 33 0 55 19 17 14 36 25 43 25s21 9 31 20c15 17 19 17 32 5 22-23 90-19 105 5 7 11 16 20 21 20 4 0 6-4 3-9-20-32 217-12 261 21 17 13 69 1 125-29 54-29 93-33 126-13 29 19 28 44-3 58-76 36-130 53-166 54-19 0-38 4-44 8-5 5-59 20-119 34-60 15-124 35-141 46-38 24-65 26-65 5 0-13-3-13-19-3-13 8-17 16-11 23 11 13-7 35-28 35-10 0-13-11-11-40 2-22-1-41-6-42-13-2-54 59-61 91-4 14-13 31-21 38-8 6-12 17-8 23 9 15 63 3 94-21 13-11 26-17 29-14 16 16-104 100-129 90-22-8-98 53-105 83-4 15-13 35-21 44-9 10-12 25-8 37 7 23-9 28-34 12-16-10-41-4-41 10 0 5 10 14 23 18 25 10 25 10-73 36-36 9-79 21-96 26s-49 9-72 9c-39 0-43-2-49-30zM4440 4625c-6-8-9-19-5-25 3-5 1-10-5-10-30 0-16-32 35-83 33-34 58-68 61-86 4-17 18-42 32-57 25-24 27-24 39-8 7 10 13 41 13 69 0 55-14 76-59 90-19 6-22 12-17 36 4 24 0 32-27 52-48 36-54 38-67 22zM1580 4520c0-7 3-10 7-7 3 4 3 10 0 14-4 3-7 0-7-7zM3510 4496c0-7 6-18 13-24 29-24 138-72 187-84 35-8 54-18 57-29 3-10 11-15 19-12 7 3 38-5 69-18 30-12 58-20 62-16 3 4 4 8 2 10-26 15-178 85-267 122-62 26-115 52-118 56-8 14-24 10-24-5z" />
    <path
      d="M2987 4473c-20-13-30-15-35-7s-21 9-57 2c-119-22-194-28-284-25-84 3-99 2-118-16-13-11-27-16-34-11-21 12-79 16-79 4 0-5 7-10 16-10s12-5 8-11c-4-7-23-9-50-5-37 5-46 2-73-23-28-26-30-31-20-62 6-19 13-45 17-59 6-29 31-70 42-70 14 0 33 61 34 108 1 25 6 47 13 49 6 2 12-4 12-14-1-10 2-41 6-70 6-42 4-60-13-95-22-45-19-107 5-115 16-6 93 86 86 103-3 8-1 14 5 14 9 0 27 75 35 145 2 17 5-2 6-41 1-65-3-78-44-162-24-51-42-92-38-92 3 0 0-7-7-15s-10-24-7-35c3-10-1-24-8-30-26-21-65-137-58-172 15-83 44-86 42-5-1 39 7 70 30 121 17 38 31 74 31 81s7 16 16 19c8 3 13 10 9 16-3 5 1 21 10 34 9 14 14 33 11 43-4 13 1 21 17 28 15 7 23 20 25 43 2 24 7 32 17 28 22-8 27 9 30 111 2 53 8 100 13 105 14 14 32 1 32-22 0-10 5-22 10-25 16-10 8-85-9-95-9-4-16-21-17-37s-13-48-27-70c-31-49-43-88-29-97 19-12 43 7 49 38 7 33 109 140 143 149 29 8 34-32 5-43-13-5-26-18-30-29-3-11-19-30-34-41-16-11-36-37-44-59-9-22-21-42-26-46-10-5-21-28-49-97-7-16-16-28-22-28-7 0-8 10-3 28 12 44 10 115-5 119-7 3-19-10-27-30s-19-38-25-42c-5-3-10-19-10-34s-4-31-9-36c-13-14-41-159-41-211 0-38 6-51 41-89 43-46 68-55 88-31 6 8 32 19 56 25 38 10 45 15 45 36 0 18 5 25 20 25 11 0 20-5 20-11 0-8 6-7 17 2 13 11 17 11 20 2 6-17 28-17 41 0 8 9 7 21-3 41-16 30-20 86-7 86 4 0 14-21 22-47 19-58 38-72 81-56 24 9 36 10 46 2 7-6 23-9 35-6 21 6 23 12 24 89 1 75 5 89 36 143 23 40 40 60 53 60 11 1 19 7 17 14-6 28 10 53 30 48 13-4 18-1 15 7-5 12 29 44 78 73 28 17 55 16 55-2 0-8 1-15 3-15 1 0 27 7 57 15 61 16 160 20 160 6 0-10-61-26-135-36-27-4-62-15-76-25s-47-28-75-39c-38-17-61-38-102-91-55-72-102-166-95-188 6-17 23-5 23 16 0 10 9 23 19 29 11 7 22 25 26 41 7 32 91 102 155 130 72 31 286 102 308 102 25 0 25 0 12 34-12 33 6 35 39 5 20-19 31-20 106-15 48 3 87 1 90-5 8-12 48-12 61 1 8 8 19 7 37-1 31-14 36-39 7-39-10 0-23-8-29-17-9-17-11-17-25 2-13 17-18 18-35 8-13-8-59-13-126-13-157 0-321-42-491-126-45-22-56-34-100-112-27-48-49-91-49-96s14-11 30-13c56-6 70-9 100-23 17-8 40-22 53-32 13-9 30-14 38-11 9 3 28-3 43-14 14-11 46-30 69-42l42-21v20c0 25 60 89 78 83 6-3 12 2 12 10 0 16 67 63 102 72 28 6 116 16 141 16 9-1 27 0 40 0 62 5 376 3 405-1 46-7 45-23-2-32-75-16-99-65-27-55 20 2 59 1 86-3 55-8 69 0 60 36-3 13 2 27 12 35 9 8 14 9 10 3-3-6 7-18 24-28 37-22 39-63 4-96l-25-23-24 22c-20 19-32 22-58 17-34-7-70-11-122-14-24-2-27-5-23-23 3-12-3-37-14-58-10-19-20-30-20-23-1 6-2 18-3 25-1 6 2 20 7 30 15 32-7 44-76 41-34-2-79-5-99-8-22-4-38-2-38 4 0 14-104 13-150-1-23-7-57-32-86-61-44-45-46-50-31-65 14-14 20-15 41-4 35 19 175-1 183-25 6-17-33-24-65-12s-106 2-97-13c4-5 19-9 34-9 32 0 73-28 54-36-23-10-14-34 12-34 30 0 43-25 27-51-18-28-15-42 9-36 14 4 18 2 11-6-5-7-15-38-22-69-16-69-6-88 47-88 27 0 34-4 31-17-2-14-16-19-58-23-31-3-53-9-51-15 7-17 35-34 56-35 42-1 50-15 28-50-13-20-23-28-27-21-4 6-18 11-30 11-19 0-30-12-52-56l-28-56 28-23c24-19 25-23 11-29-9-3-30-6-45-6-41 0-46-17-11-38 44-24 38-34-16-30l-47 3-27-100c-39-151-48-219-32-263 7-20 13-54 13-75 0-28 8-45 30-69 17-17 30-37 30-44 0-26 163-171 197-177 23-3 63-38 63-54 0-7 6-13 14-13s21-6 28-13 26-22 43-33c84-54 156-129 190-197 22-46 27-71 30-164 4-106 3-111-20-133-13-13-22-26-19-31 2-4-24-27-58-51-62-43-130-68-187-68-16 0-31-6-34-12-3-9-10-6-22 9-9 13-36 28-59 34-24 6-57 23-74 39-37 34-99 129-106 161-3 13-10 38-17 55-18 46 7 84 57 84 42 0 55-11 82-73 52-117 169-67 145 62-6 37-13 47-30 49-13 2-25 13-28 25-16 56-26 66-56 55-20-7-33-7-42 0-18 15-154-5-192-28-26-16-32-29-43-86-20-105-26-184-15-184 6 0 14-21 18-47 6-41 15-55 87-125 61-58 88-78 108-78 15 0 35-9 44-19s29-21 44-24 45-12 67-21c60-23 183-21 215 4 14 11 30 20 36 20 21 0 63 41 58 55-4 8 3 15 18 17 20 3 23 9 23 43 0 30 4 40 18 43 13 3 17-3 17-22 0-14 4-26 9-26 12 0 21 26 21 61 0 26 2 28 19 17 15-9 23-9 35 1 13 11 15 25 10 65-5 42-4 49 7 39 7-7 17-13 21-13 12 0 9 35-4 48-9 9-7 12 10 12 18 0 22 6 22 35 0 19 4 35 9 35 30 0 5 143-40 232-30 60-88 133-97 123-3-3-5-28-3-55 3-54 1-56-29-38-15 10-22 10-32 0-13-13-38-16-38-4 0 4 16 17 36 30 31 20 35 28 31 51-3 16-1 33 5 39 8 8 8 15-2 27-17 20-37 19-49-2-9-16-10-14-11 9 0 17-8 31-20 38-15 8-20 8-20-1 0-6-9-9-20-6-10 3-21 0-24-7-2-6-5-3-5 7-1 11 8 21 19 24 28 7 25 20-11 42-17 11-40 33-50 50-11 18-35 41-54 52-18 11-40 34-47 50-15 34-24 37-33 9-10-31-23-23-23 14 0 51-9 69-47 95-35 24-46 56-22 64 9 3 9 9 0 28-7 13-11 43-10 66 2 28-1 44-10 47-20 8-15 26 7 26 21 0 29 33 10 45-11 7 31 90 65 126 24 27 23 48-2 28-9-8-13-8-13 0 0 6 12 18 26 28 32 20 54 69 54 117 0 19 5 38 10 41 6 4 8 16 5 26-4 11-1 26 5 34s18 34 25 58c11 38 11 49-1 71-10 21-11 31-2 46 9 14 8 28-5 62-9 24-17 55-17 68 0 17-15 40-44 68-27 26-43 49-39 58 9 24 54 29 87 9 75-45 109-57 149-56 150 6 171 9 183 26 8 11 20 15 32 11 11-4 23-2 27 4 3 6 10 8 14 5 4-2 23 7 41 20 39 29 50 31 50 10 0-18 5-18 31-5 15 9 17 15 9 30-13 24 6 117 28 143 17 19 59 42 115 62l37 14 40-42c22-23 40-50 40-59 0-20-15-24-26-7-9 14-56 2-72-19-12-15-13-15-18 6-4 12-10 22-15 22-18 0-39-47-39-87 0-23-4-44-10-48-13-8-1-35 15-35 13 0 27-28 24-46-1-5-1-18 0-28 1-18 2-18 21-1 12 11 20 31 20 52 0 36 7 40 33 21 15-12 15-16 2-42-8-15-15-34-15-42 0-7-9-18-19-24-27-14-33-40-22-91 7-33 5-65-8-130-16-83-20-90-79-157-34-38-62-73-62-78 0-4-17-28-38-53-72-88-93-122-99-156-4-25-11-35-24-35-10 0-23-9-29-19-13-25-13-81 0-81 6 0 10-5 10-10 0-19 54-150 62-150 4 0 8 5 8 10 0 6 5 10 11 10s8-8 4-19c-9-28 12-65 46-80 16-7 37-20 46-29 9-10 28-18 42-19s45-5 68-9c35-5 47-2 75 19 18 14 43 28 56 32 30 9 74 96 70 138-2 22-11 36-31 47-27 14-29 14-46-7-10-12-22-39-26-59-12-69-40-78-120-40-57 27-104 69-107 94 0 9-2 22-2 28-1 6-10 28-21 48-14 26-25 36-37 32-22-5-22-1-3 32 8 15 19 39 24 53 11 31 110 90 139 83 10-3 44 17 85 51 38 30 78 55 89 55s35 9 53 20c19 11 37 20 42 19 4-1 16 1 26 6 15 6 169-5 262-20 90-14 134-10 143 14 4 11 32 37 62 58 84 58 121 145 125 296 3 76 1 89-15 97-10 5-21 23-25 39-3 16-14 31-25 34-17 4-18 9-8 41 9 27 8 39-2 51-15 18-71 20-88 3-9-9-12-9-12-1 0 7 5 15 10 18 15 9 12 35-5 35-8 0-23-10-35-22-28-30-29-134-2-143 11-3 30-27 43-53 16-30 31-48 45-50 29-4 77-126 61-157-35-72-85-105-105-70-6 11-25 16-65 16-58 1-66 6-46 26 9 9 5 14-15 19-14 3-33 3-42 0-10-4-18 3-25 23-6 16-20 32-32 35-28 7-34-1-19-24 15-25 15-30-1-30-14 0-37 40-37 62 0 7-10 22-22 35-21 22-21 24-3 37 16 11 16 17 6 46-6 19-14 65-17 104-7 98-12 116-29 116-19 0-19 9 1 31 15 17 15 20 0 43-9 14-16 39-16 56 0 22-5 30-17 30-17 1-17 1-1 14 10 7 14 17 9 22s-14 41-19 79c-6 39-12 77-15 85-2 8-8 29-12 47s-16 40-26 49c-14 13-18 25-13 48 4 27-1 40-37 83-35 44-45 51-60 42-21-11-25-35-7-41 7-3 9-12 5-22-7-17-9-16-27 7-26 33-26 74 0 82 22 7 27 24 8 26-27 3-43-3-55-19-12-14-15-14-33 6-17 18-31 21-79 21-57-1-60-3-120-58-42-39-61-51-61-39 0 9 14 32 30 50 17 18 29 37 27 42-4 11-130 20-165 11-19-5-23-10-18-28 14-45 15-57 5-57-5 0-14 12-20 28-9 23-12 25-22 11-52-68-66-82-81-76-24 9-19 40 9 67 32 30 33 52 3 46-13-3-35-7-51-11-32-6-109 25-147 61-42 39-93 54-180 54-85 0-120-10-120-35 0-8-9-15-20-15-33 0-23 17 26 46 40 24 53 26 110 21 50-4 64-2 64 9 0 8-9 14-20 14-12 0-34 7-50 15s-76 23-134 32c-88 15-106 21-106 36 0 16-3 16-27 4-30-15-99-12-120 5-22 18-5 25 42 18 33-5 45-4 45 6 0 8-21 15-55 19-30 4-58 11-60 15-6 10-123 49-150 50-11 1-49 3-85 6-51 3-71 0-93-13zm1080-1063c2-29-10-40-22-20-5 8 10 50 18 50 1 0 3-14 4-30z" />
    <path
      d="M3160 4029c0-5 5-7 10-4 6 3 10 8 10 11 0 2-4 4-10 4-5 0-10-5-10-11zM2124 3768c-8-13-13-49-17-117-3-53 19-48 32 6 16 72 17 116 4 120-6 2-15-2-19-9z" />
    <path
      d="M2287 3773c-4-3-7-15-7-25 0-11-7-26-15-34-8-9-15-24-15-34s-7-21-16-24c-10-4-13-13-9-25 3-11 1-22-5-26-5-3-10-1-10 4 0 6-9 11-20 11s-20-4-20-10c0-5-11-10-24-10-35 0-56-10-56-26 0-8 4-14 9-14s15-14 22-32c32-78 133-142 208-133 22 3 34-1 38-10 3-9 18-15 38-15 33 0 33 0 32 50-1 34 5 55 17 69 22 24 12 42-33 61-19 7-34 25-44 51-9 23-22 39-31 39-21 0-36 40-36 96 0 41-7 53-23 37zM3627 3648c-23-9-41-21-40-26 1-6-14-13-33-17-51-9-84-26-84-43 0-7-8-27-17-43-16-27-16-29 2-49 26-29 52-25 74 11 11 18 51 53 90 79l70 48 180-2c165-3 182-1 201 16 11 10 20 26 20 34 0 23-403 16-463-8zM4320 3630c0-5 5-10 10-10 6 0 10 5 10 10 0 6-4 10-10 10-5 0-10-4-10-10zM1104 3559c-10-11-19-26-20-32 0-7-2-22-2-34-1-13-9-23-17-23-15 0-18-6-19-50-1-15-7-26-16-26-8-1-18-2-23-3-12-2 24-51 37-51 6 0 17 14 23 30 7 20 16 28 26 24 14-5 32 27 39 71 2 11 7 19 11 18 4-2 16-3 26-3 13 0 21-9 26-30 9-39 21-31 28 17 5 44-5 68-34 83-18 10-19 9-14-17 6-27 6-27-9-9-9 11-16 28-16 38 0 24-23 23-46-3zM2062 3500c1-16 6-30 10-30s8-6 8-14c0-16 28-42 36-33 6 5-43 107-51 107-3 0-4-13-3-30zM2010 3458c1-20 10-45 25-63 25-31 44-30 26 2-6 10-14 33-19 52-11 47-32 53-32 9zM3005 3450c-3-5-20-7-38-4-70 11-216-133-267-262-17-43-37-86-45-94-9-11-12-47-9-138l4-123 58-95c54-91 100-140 160-172 21-10 27-10 38 5 12 17 13 17 19 1 4-10 14-18 22-18s28-8 44-17c28-16 30-16 60 6 31 23 33 23 46 6 12-18 14-18 43 3 16 12 39 22 51 22 13 0 32 9 44 20s44 28 71 38c64 23 114 60 114 87 0 11 10 24 23 30 12 6 24 21 25 34 2 14 21 50 41 81 32 48 39 68 44 129 9 103 1 130-39 147-26 11-34 20-34 39 0 18-11 32-37 49l-38 23-9-21c-8-18-10-19-13-3-3 9-13 17-24 17-16 0-17 3-7 19 7 11 15 18 19 15 12-7 38 37 32 52-3 9-13 12-24 9-11-4-19-2-19 3 0 11-37 25-61 23-9-1-40 14-69 34-41 28-56 33-66 24-11-9-19-8-34 6-10 9-23 14-29 11-5-3-11-2-13 2-4 12-77 22-83 12z" />
    <path
      d="M1147 3434c-4-4-7-22-7-39 0-18-7-38-15-45-19-16-19-59 0-66 8-4 18-24 22-47 5-32 8-37 17-25 20 26 43 28 63 5 41-45 63-94 63-138 0-32 3-40 11-32 11 11 14 111 4 121-3 3 0 11 6 19 19 22 1 74-36 109-21 19-35 41-35 55 0 31-14 53-31 47-7-2-22 6-34 20-11 13-24 20-28 16zM2140 3400c20-13 33-13 25 0-3 6-14 10-23 10-15 0-15-2-2-10zM2122 3368c8-25 115-99 150-104 30-5 36-3 41 15 3 12 10 21 17 21s9-8 5-19c-8-27 13-37 30-15 19 25 19 45 0 38-8-4-15-2-15 4 0 5-29 13-65 17-36 3-86 17-112 31-56 28-56 28-51 12zM960 3325l-23-25h26c15 0 27 4 27 9s3 16 6 25c9 24-9 19-36-9zM2080 3339c0-19 45-62 60-57 6 2-5 19-25 38-23 22-35 29-35 19zM2390 3284c-12-31-13-44-2-44 15 0 32 24 32 47 0 31-18 29-30-3zM914 3256c-17-34-17-37 1-56 25-27 34-17 31 35-3 59-12 65-32 21zM2200 3246c0-2 7-6 15-10 8-3 15-1 15 4 0 6-7 10-15 10s-15-2-15-4zM2390 3190c0-5 5-10 10-10 6 0 10 5 10 10 0 6-4 10-10 10-5 0-10-4-10-10zM865 3160c-14-16-16-23-7-32 10-10 17-7 33 9 12 11 18 26 15 32-10 16-21 14-41-9zM1337 3084c-3-20-13-44-22-54-14-15-14-18 0-30 8-7 22-10 30-6 12 4 14 17 9 63-8 71-10 73-17 27zM1170 3070c0-5 5-10 10-10 6 0 10 5 10 10 0 6-4 10-10 10-5 0-10-4-10-10zM2350 2786c0-2 15-13 34-24 18-11 55-52 82-92 76-112 93-130 181-187 75-48 103-61 103-49 0 15-328 330-356 342-35 15-44 17-44 10zM936 2724c-10-27-7-34 22-46l27-12-25-4c-35-6-52-22-46-45 3-13-1-21-15-24-29-8-23-25 22-57 32-22 48-27 75-23 18 3 36 2 39-3 2-4 19-10 36-12 60-9 79 47 33 102-18 21-29 28-34 20-10-16-50 9-50 30 0 22-48 90-64 90-8 0-17-7-20-16zM2592 2673c-13-5 42-83 59-83s9 25-11 38c-12 7-24 21-28 31s-13 16-20 14zM2943 858c2-7 16-13 32-13s30 6 33 13c2 8-8 12-33 12s-35-4-32-12zM2160 2760c0-7 3-10 7-7 3 4 3 10 0 14-4 3-7 0-7-7zM958 1025c-17-50-10-65 17-35 12 14 25 18 42 14 23-6 24-4 21 27-3 30-7 34-34 37-29 3-32 0-46-43zM1047 994c-4-4-7-16-7-26 0-14 6-19 23-16 14 2 22 10 22 23 0 20-25 32-38 19z" />
  </g>
</svg>