#TITLE REQUIEM FOR THE PEACE GB
T070
@5@W2
O5
L4
/:3R4:/
F8G8
A<C>GB-FAE
F8E8DE8F8GF8E8F1
L8
AGAB-<C4DE><F4EDC2><DCDEF4C4> B-AGFG2
AGAB-<C4DE><F4EFA2><B-AGAAGFG><GFEFG2>
<F2EFGB-><A2F2><GFEFG2><FEDEF4E4><F1>
;
@5@W2
O4
L2
R1
FEDC>B-<C>B-1<
L8
/:4
FA<C>A
/
EGB-G
DFAF
CEGE
>B-<DFD
>A<CEC
>B-<DFD
CEGE
:/F2
;
@10-0
@E1,0,0,128,0
O3
L2
R1
/:4R1:/
/:3FEDC>B-AB-<C:/F1
#WAV10 0,FEC9 6310 0012 4556 6665 4456 8BDE FFFF
;