<svg width="500" height="850" xmlns="http://www.w3.org/2000/svg">
    <path
        d="M 150 0 A 125 125 0 0 0 25 125 A 125 125 0 0 0 150 250 A 125 125 0 0 0 275 125 A 125 125 0 0 0 150 0 z M 450 0 A 25 25 0 0 0 429.20898 11.138672 L 429.19922 11.132812 L 429.10547 11.273438 L 29.199219 611.13281 L 29.207031 611.13867 A 25 25 0 0 0 25 625 A 25 25 0 0 0 50 650 A 25 25 0 0 0 70.791016 638.86133 L 70.800781 638.86719 L 470.70703 39.007812 L 470.80078 38.867188 L 470.79297 38.861328 A 25 25 0 0 0 475 25 A 25 25 0 0 0 450 0 z M 150 50 A 75 75 0 0 1 225 125 A 75 75 0 0 1 150 200 A 75 75 0 0 1 75 125 A 75 75 0 0 1 150 50 z M 350 400 A 125 125 0 0 0 225 525 A 125 125 0 0 0 350 650 A 125 125 0 0 0 475 525 A 125 125 0 0 0 350 400 z M 350 450 A 75 75 0 0 1 425 525 A 75 75 0 0 1 350 600 A 75 75 0 0 1 275 525 A 75 75 0 0 1 350 450 z " />
</svg>