<svg width="500" height="850" xmlns="http://www.w3.org/2000/svg">
    <path
        d="M 249.91406 200 L 249.00391 200.06641 A 25 25 0 0 0 246.73633 200.21484 L 245.67578 200.30469 A 225 225 0 0 0 219.49805 202.19141 A 225 225 0 0 0 216.28125 202.81445 A 225 225 0 0 0 213.59961 203.33398 A 225 225 0 0 0 211.41992 203.75586 A 225 225 0 0 0 189.58398 208.48633 A 225 225 0 0 0 186.44531 209.52148 A 225 225 0 0 0 182.68945 210.75977 A 225 225 0 0 0 180.37695 211.52148 A 225 225 0 0 0 160.7207 218.79883 A 225 225 0 0 0 157.66602 220.25781 A 225 225 0 0 0 153.75977 222.125 A 225 225 0 0 0 151.625 223.14453 A 225 225 0 0 0 133.37109 233.02344 A 225 225 0 0 0 130.44922 234.9082 A 225 225 0 0 0 126.9375 237.17383 A 225 225 0 0 0 125.0625 238.38477 A 225 225 0 0 0 108.01758 251.00586 A 225 225 0 0 0 105.25781 253.33203 A 225 225 0 0 0 103.64062 254.53711 A 225 225 0 0 0 101.57227 256.4375 L 100.9082 256.99805 L 100.15625 257.73828 A 225 225 0 0 0 97.669922 260.02539 A 225 225 0 0 0 91.361328 266.41797 A 225 225 0 0 0 85.025391 272.66992 A 225 225 0 0 0 82.763672 275.13086 L 82 275.9043 L 81.423828 276.58789 A 225 225 0 0 0 79.537109 278.64062 A 225 225 0 0 0 78.333984 280.25586 A 225 225 0 0 0 75.998047 283.02734 A 225 225 0 0 0 63.384766 300.0625 A 225 225 0 0 0 62.171875 301.94141 A 225 225 0 0 0 59.914062 305.43945 A 225 225 0 0 0 58.029297 308.35938 A 225 225 0 0 0 48.128906 326.65625 A 225 225 0 0 0 47.121094 328.76758 A 225 225 0 0 0 45.259766 332.66406 A 225 225 0 0 0 43.802734 335.71289 A 225 225 0 0 0 36.523438 355.36914 A 225 225 0 0 0 35.751953 357.70898 A 225 225 0 0 0 34.525391 361.42969 A 225 225 0 0 0 33.484375 364.58398 A 225 225 0 0 0 28.751953 386.43359 A 225 225 0 0 0 28.328125 388.625 A 225 225 0 0 0 27.814453 391.2793 A 225 225 0 0 0 27.191406 394.5 A 225 225 0 0 0 25.306641 420.66602 L 25.214844 421.73633 A 25 25 0 0 0 25.064453 424.02734 L 25 424.91602 L 25 425.08594 L 25.066406 425.99609 A 25 25 0 0 0 25.236328 428.375 A 225 225 0 0 0 27.191406 455.50195 A 225 225 0 0 0 28.755859 463.58008 A 225 225 0 0 0 33.486328 485.41602 A 225 225 0 0 0 36.521484 494.62305 A 225 225 0 0 0 43.800781 514.2793 A 225 225 0 0 0 48.146484 523.37695 A 225 225 0 0 0 58.023438 541.63086 A 225 225 0 0 0 63.386719 549.9375 A 225 225 0 0 0 76.005859 566.98242 A 225 225 0 0 0 81.998047 574.09375 A 225 225 0 0 0 97.671875 589.97656 A 225 225 0 0 0 103.64062 595.46484 A 225 225 0 0 0 246.73633 649.78516 A 25 25 0 0 0 250 650 L 450 650 A 25 25 0 0 0 475 625 A 25 25 0 0 0 450 600 L 250 600 A 175 175 0 0 1 227.1582 598.50195 A 175 175 0 0 1 75 425 A 175 175 0 0 1 76.498047 402.1582 A 175 175 0 0 1 80.962891 379.70703 A 175 175 0 0 1 98.445312 337.5 A 175 175 0 0 1 111.16406 318.4668 A 175 175 0 0 1 126.25781 301.25586 A 175 175 0 0 1 162.5 273.44531 A 175 175 0 0 1 204.70703 255.96289 A 175 175 0 0 1 250 250 A 175 175 0 0 1 425 425 A 75 75 0 0 1 350 500 A 125 125 0 0 0 375 425 A 125 125 0 0 0 250 300 A 125 125 0 0 0 125 425 A 125 125 0 0 0 250 550 L 350 550 A 125 125 0 0 0 474.78516 428.26367 A 25 25 0 0 0 475 425 A 25 25 0 0 0 474.78516 421.73633 A 225 225 0 0 0 420.46289 278.64062 A 225 225 0 0 0 414.97461 272.66992 A 225 225 0 0 0 399.0957 257 A 225 225 0 0 0 391.97266 250.99805 A 225 225 0 0 0 374.9375 238.38477 A 225 225 0 0 0 366.64062 233.0293 A 225 225 0 0 0 348.34375 223.12891 A 225 225 0 0 0 339.28711 218.80273 A 225 225 0 0 0 319.63086 211.52344 A 225 225 0 0 0 310.41602 208.48438 A 225 225 0 0 0 288.56641 203.75195 A 225 225 0 0 0 280.5 202.19141 A 225 225 0 0 0 253.37695 200.23633 A 25 25 0 0 0 250.97266 200.06445 L 250.08398 200 L 249.91406 200 z M 250 350 A 75 75 0 0 1 325 425 A 75 75 0 0 1 250 500 A 75 75 0 0 1 175 425 A 75 75 0 0 1 250 350 z " />
</svg>