<svg width="500" height="850" xmlns="http://www.w3.org/2000/svg">
    <path
        d="M 50 200 A 25 25 0 0 0 25 225 L 25 525 A 125 125 0 0 0 75 625 A 125 125 0 0 0 133.95703 648.9668 A 125 125 0 0 0 150 650 A 125 125 0 0 0 250 599.85352 A 125 125 0 0 0 260.77148 612.42773 A 125 125 0 0 0 350 650 A 125 125 0 0 0 425 625 A 125 125 0 0 0 475 525 L 475 225 A 25 25 0 0 0 450 200 A 25 25 0 0 0 446.73633 200.21484 A 25 25 0 0 0 425 225 L 425 525 A 75 75 0 0 1 359.78906 599.35742 A 75 75 0 0 1 350 600 A 75 75 0 0 1 340.21094 599.35742 A 75 75 0 0 1 275 525 L 275 225 A 25 25 0 0 0 250 200 A 25 25 0 0 0 246.73633 200.21484 A 25 25 0 0 0 225 225 L 225 525 A 75 75 0 0 1 159.78906 599.35742 A 75 75 0 0 1 150 600 A 75 75 0 0 1 75 525 L 75 225 A 25 25 0 0 0 50 200 z " />
</svg>