<svg width="300" height="300" xmlns="http://www.w3.org/2000/svg">
  <style>
    @media (prefers-color-scheme: light) {
      polygon.xing {
        fill: #89bdde;
      }

      polygon.shen {
        fill: #708090;
      }

      polygon.di {
        fill: #a06c30;
      }

      polygon.fang {
        fill: #808080;
      }

      polygon.yang {
        fill: #ffff00;
      }
    }

    @media (prefers-color-scheme: dark) {
      polygon.xing {
        fill: #234794;
      }

      polygon.shen {
        fill: #708090;
      }

      polygon.di {
        fill: #a06c30;
      }

      polygon.fang {
        fill: #808080;
      }

      polygon.yang {
        fill: #daa520;
      }
    }
  </style>
  <polygon class="xing" points="88,0 212,0 300,88 300,212 212,300 88,300 0,212 0,88 88,0" />
  <polygon class="shen" points="100.5,30 199.5,30 270,100.5 270,199.5 199.5,270 100.5,270 30,199.5 30,100.5 100.5,30" />
  <polygon class="di" points="113,60 187,60 240,113 240,187 187,240 113,240 60,187 60,113 113,60" />
  <polygon class="fang" points="125,90 175,90 210,125 210,175 175,210 125,210 90,175 90,125 125,90" />
  <polygon class="yang" points="137.5,120 162.5,120 180,137.5 180,162.5 162.5,180 137.5,180 120,162.5 120,137.5 137.5,120" />
</svg>