<svg width="500" height="850" xmlns="http://www.w3.org/2000/svg">
    <path
        d="m250 200-17.678 7.322L225 225l7.322 17.678L250 250l123.744 51.256L425 425l-51.256 123.744L250 600l-123.744-51.256L75 425l-7.322-17.678L50 400l-17.678 7.322L25 425l7.322 17.678L90.9 584.1 250 650l159.1-65.9L475 425l-65.9-159.1-141.422-58.578z" />
    <path
        d="M 108.57812 258.57812 L 90.900391 265.90039 L 83.578125 283.57812 L 90.900391 301.25586 L 373.74414 584.09961 L 391.42188 591.42188 L 409.09961 584.09961 L 416.42188 566.42188 L 409.09961 548.74414 L 126.25586 265.90039 L 108.57812 258.57812 z " />
</svg>