<svg width="500" height="850" xmlns="http://www.w3.org/2000/svg">
    <path
        d="m475 425-7.322-17.678L450 400l-17.678 7.322L425 425l-51.256 123.744L250 600l-123.744-51.256L75 425l51.256-123.744L250 250l17.678-7.322L275 225l-7.322-17.678L250 200l-17.678 7.322L90.9 265.9 25 425l65.9 159.1L250 650l159.1-65.9 58.578-141.422z" />
    <path
        d="M 250 300 L 161.61133 336.61133 L 125 425 L 161.61133 513.38867 L 250 550 L 338.38867 513.38867 L 375 425 L 338.38867 336.61133 L 250 300 z M 250 350 L 303.0332 371.9668 L 325 425 L 303.0332 478.0332 L 250 500 L 196.9668 478.0332 L 175 425 L 196.9668 371.9668 L 250 350 z " />
</svg>