<svg width="500" height="850" xmlns="http://www.w3.org/2000/svg">
    <path d="m475 425-7.322-17.678L450 400l-17.678 7.322L425 425l-51.256 123.744L250 600l-123.744-51.256L75 425l51.256-123.744L250 250l17.678-7.322L275 225l-7.322-17.678L250 200l-17.678 7.322L90.9 265.9 25 425l65.9 159.1L250 650l159.1-65.9 58.578-141.422z"/>
    <path d="M 108.57812 258.57812 L 90.900391 265.90039 L 83.578125 283.57812 L 90.900391 301.25586 L 373.74414 584.09961 L 391.42188 591.42188 L 409.09961 584.09961 L 416.42188 566.42188 L 409.09961 548.74414 L 126.25586 265.90039 L 108.57812 258.57812 z "/>
</svg>