<svg width="500" height="850" xmlns="http://www.w3.org/2000/svg">
    <path
        d="m409.099 584.099 7.322-17.678-7.322-17.677-17.678-7.323-17.677 7.323L250 600l-123.744-51.257L75 425l51.257-123.744L250 250l123.744 51.257 17.677 7.323 17.678-7.323 7.322-17.677L409.1 265.9l-17.678-7.322L250 199.999 90.901 265.901 24.999 425l65.902 159.099L250 650.001l141.421-58.58z" />
    <path
        d="M 250 300 L 161.61133 336.61133 L 125 425 L 161.61133 513.38867 L 250 550 L 338.38867 513.38867 L 375 425 L 338.38867 336.61133 L 250 300 z M 250 350 L 303.0332 371.9668 L 325 425 L 303.0332 478.0332 L 250 500 L 196.9668 478.0332 L 175 425 L 196.9668 371.9668 L 250 350 z " />
</svg>