<svg width="500" height="850" xmlns="http://www.w3.org/2000/svg">
    <path
        d="M 250 300 L 161.61133 336.61133 L 125 425 L 161.61133 513.38867 L 250 550 L 338.38867 513.38867 L 375 425 L 338.38867 336.61133 L 250 300 z M 250 350 L 303.0332 371.9668 L 325 425 L 303.0332 478.0332 L 250 500 L 196.9668 478.0332 L 175 425 L 196.9668 371.9668 L 250 350 z " />
    <path
        d="M 50 400 L 32.322266 407.32227 L 25 425 L 32.322266 442.67773 L 50 450 L 450 450 L 467.67773 442.67773 L 475 425 L 467.67773 407.32227 L 450 400 L 50 400 z " />
    <path
        d="M 391.42188 258.57812 L 373.74414 265.90039 L 90.900391 548.74414 L 83.578125 566.42188 L 90.900391 584.09961 L 108.57812 591.42188 L 126.25586 584.09961 L 409.09961 301.25586 L 416.42188 283.57812 L 409.09961 265.90039 L 391.42188 258.57812 z " />
    <path
        d="M 108.57812 258.57812 L 90.900391 265.90039 L 83.578125 283.57812 L 90.900391 301.25586 L 373.74414 584.09961 L 391.42188 591.42188 L 409.09961 584.09961 L 416.42188 566.42188 L 409.09961 548.74414 L 126.25586 265.90039 L 108.57812 258.57812 z " />
</svg>