<svg width="500" height="850" xmlns="http://www.w3.org/2000/svg">
    <path
        d="m90.901 584.099 17.678 7.322 17.677-7.322 7.323-17.678-7.323-17.677L75 425l51.257-123.744L250 250l123.744 51.257L425 425l-51.257 123.744-7.323 17.677 7.323 17.678 17.677 7.322L409.1 584.1l7.322-17.678L475.001 425l-65.902-159.099L250 199.999 90.901 265.901 24.999 425l58.58 141.421z" />
    <path
        d="m409.099 265.901-17.678-7.322-17.677 7.322-7.323 17.678 7.323 17.677L425 425l-51.257 123.744L250 600l-123.744-51.257L75 425l51.257-123.744 7.323-17.677-7.323-17.678-17.677-7.322L90.9 265.9l-7.322 17.678L24.999 425l65.902 159.099L250 650.001l159.099-65.902L475.001 425l-58.58-141.421z" />
</svg>