<svg width="500" height="850" xmlns="http://www.w3.org/2000/svg">
    <path
        d="M 250 199.99805 L 108.57812 258.57812 L 90.900391 265.90039 L 83.578125 283.57812 L 90.900391 301.25586 L 108.57812 308.57812 L 126.25586 301.25586 L 126.25781 301.25586 L 250 250 L 373.74414 301.25781 L 391.42188 308.58008 L 409.09961 301.25781 L 416.42188 283.58008 L 409.09961 265.90039 L 391.42188 258.57812 L 250 199.99805 z M 108.57812 541.41992 L 90.900391 548.74219 L 83.578125 566.41992 L 90.900391 584.09961 L 108.57812 591.42188 L 250 650.00195 L 391.42188 591.42188 L 409.09961 584.09961 L 416.42188 566.42188 L 409.09961 548.74414 L 391.42188 541.42188 L 373.74414 548.74414 L 373.74219 548.74414 L 250 600 L 126.25586 548.74219 L 108.57812 541.41992 z " />
</svg>