<svg width="500" height="850" xmlns="http://www.w3.org/2000/svg">
    <path
        d="m -250,700 -3.53516,1.46484 L -255,705 l 1.46484,3.53516 L -250,710 -246.46484,708.53516 -245,705 l -1.46484,-3.53516 z m -20,20 -3.53516,1.46484 L -275,725 l 1.46484,3.53516 L -270,730 -266.46484,728.53516 -265,725 l -1.46484,-3.53516 z m 20,0 -3.53516,1.46484 L -255,725 l 1.46484,3.53516 L -250,730 -246.46484,728.53516 -245,725 l -1.46484,-3.53516 z m 20,0 -3.53516,1.46484 L -235,725 l 1.46484,3.53516 L -230,730 -226.46484,728.53516 -225,725 l -1.46484,-3.53516 z m -20,20 -3.53516,1.46484 L -255,745 l 1.46484,3.53516 L -250,750 -246.46484,748.53516 -245,745 l -1.46484,-3.53516 z" />
</svg>