<svg width="500" height="850" xmlns="http://www.w3.org/2000/svg">
    <sodipodi:namedview id="namedview2" pagecolor="#ffffff" bordercolor="#000000" borderopacity="0.25"
        inkscape:showpageshadow="2" inkscape:pageopacity="0.0" inkscape:pagecheckerboard="0"
        inkscape:deskcolor="#d1d1d1" inkscape:zoom="0.31652174" inkscape:cx="259.06593" inkscape:cy="426.51099"
        inkscape:window-width="1080" inkscape:window-height="675" inkscape:window-x="0" inkscape:window-y="25"
        inkscape:window-maximized="0" inkscape:current-layer="svg2" />
    <path
        d="M 250 199.99805 L 108.57812 258.57812 L 90.900391 265.90039 L 83.578125 283.57812 L 90.900391 301.25586 L 108.57812 308.57812 L 126.25586 301.25586 L 250 250 L 373.74414 301.25781 L 425 425 L 373.74219 548.74414 L 250 600 L 126.25586 548.74219 L 108.57812 541.41992 L 90.900391 548.74219 L 83.578125 566.41992 L 90.900391 584.09961 L 108.57812 591.42188 L 250 650.00195 L 409.09961 584.09961 L 475.00195 425 L 409.09961 265.90039 L 250 199.99805 z M 250 300 L 179.28906 329.28906 L 161.61133 336.61133 L 154.28906 354.28906 L 161.61133 371.9668 L 179.28906 379.28906 L 196.9668 371.9668 L 250 350 L 303.0332 371.9668 L 325 425 L 303.0332 478.0332 L 250 500 L 196.9668 478.0332 L 179.28906 470.71094 L 161.61133 478.0332 L 154.28906 495.71094 L 161.61133 513.38867 L 179.28906 520.71094 L 250 550 L 338.38867 513.38867 L 375 425 L 338.38867 336.61133 L 250 300 z M 250 400 L 232.32227 407.32227 L 225 425 L 232.32227 442.67773 L 250 450 L 267.67773 442.67773 L 275 425 L 267.67773 407.32227 L 250 400 z " />
</svg>