<svg width="500" height="850" xmlns="http://www.w3.org/2000/svg">
    <path d="m25 425 7.322 17.678L50 450l17.678-7.322L75 425l51.256-123.744L250 250l123.744 51.256L425 425l-51.256 123.744L250 600l-17.678 7.322L225 625l7.322 17.678L250 650l17.678-7.322L409.1 584.1 475 425l-65.9-159.1L250 200 90.9 265.9 32.322 407.322z"/>
    <path d="M 108.57812 258.57812 L 90.900391 265.90039 L 83.578125 283.57812 L 90.900391 301.25586 L 373.74414 584.09961 L 391.42188 591.42188 L 409.09961 584.09961 L 416.42188 566.42188 L 409.09961 548.74414 L 126.25586 265.90039 L 108.57812 258.57812 z "/>
</svg>