<svg width="500" height="850" xmlns="http://www.w3.org/2000/svg">
  <path d="M 250 300 L 179.28906 329.28906 L 161.61133 336.61133 L 154.28906 354.28906 L 161.61133 371.9668 L 179.28906 379.28906 L 196.9668 371.9668 L 250 350 L 303.0332 371.9668 L 320.71094 379.28906 L 338.38867 371.9668 L 345.71094 354.28906 L 338.38867 336.61133 L 320.71094 329.28906 L 250 300 z M 179.28906 470.71094 L 161.61133 478.0332 L 154.28906 495.71094 L 161.61133 513.38867 L 179.28906 520.71094 L 250 550 L 320.71094 520.71094 L 338.38867 513.38867 L 345.71094 495.71094 L 338.38867 478.0332 L 320.71094 470.71094 L 303.0332 478.0332 L 250 500 L 196.9668 478.0332 L 179.28906 470.71094 z "/>
</svg>