<svg width="500" height="850" xmlns="http://www.w3.org/2000/svg">
    <path
        d="M 108.57812 258.57812 L 90.900391 265.90039 L 83.578125 283.57812 L 90.900391 301.25586 L 232.32227 442.67773 L 373.74414 584.09961 L 391.42188 591.42188 L 409.09961 584.09961 L 416.42188 566.42188 L 409.09961 548.74414 L 267.67773 407.32227 L 126.25586 265.90039 L 108.57812 258.57812 z M 50 400 L 32.322266 407.32227 L 25 425 L 32.322266 442.67773 L 50 450 L 67.677734 442.67773 L 75 425 L 67.677734 407.32227 L 50 400 z M 450 400 L 432.32227 407.32227 L 425 425 L 432.32227 442.67773 L 450 450 L 467.67773 442.67773 L 475 425 L 467.67773 407.32227 L 450 400 z " />
</svg>