<svg width="500" height="850" xmlns="http://www.w3.org/2000/svg">
    <path d="m25 425 7.322 17.678L50 450l17.678-7.322L75 425l51.256-123.744L250 250l123.744 51.256L425 425l-51.256 123.744L250 600l-17.678 7.322L225 625l7.322 17.678L250 650l17.678-7.322L409.1 584.1 475 425l-65.9-159.1L250 200 90.9 265.9 32.322 407.322z"/>
    <path d="M 250 300 L 161.61133 336.61133 L 125 425 L 161.61133 513.38867 L 250 550 L 338.38867 513.38867 L 375 425 L 338.38867 336.61133 L 250 300 z M 250 350 L 303.0332 371.9668 L 325 425 L 303.0332 478.0332 L 250 500 L 196.9668 478.0332 L 175 425 L 196.9668 371.9668 L 250 350 z "/>
</svg>