<svg width="500" height="850" xmlns="http://www.w3.org/2000/svg">
    <polygon
        points=" 225 225 232.322330470336 207.322330470336 250 200 267.677669529664 207.322330470336 275 225 275 625 267.677669529664 642.677669529664 250 650 232.322330470336 642.677669529664 225 625"
        style="" />
    <path
        d="M 108.57812 258.57812 L 90.900391 265.90039 L 83.578125 283.57812 L 90.900391 301.25586 L 373.74414 584.09961 L 391.42188 591.42188 L 409.09961 584.09961 L 416.42188 566.42188 L 409.09961 548.74414 L 126.25586 265.90039 L 108.57812 258.57812 z " />
    <polygon
        points="373.743686707646 265.900974233027 391.42135623731 258.578643762691 409.099025766974 265.900974233027 416.42135623731 283.578643762691 409.099025766974 301.256313292355 126.256313292355 584.099025766974 108.578643762691 591.42135623731 90.9009742330273 584.099025766974 83.578643762691 566.42135623731 90.9009742330273 548.743686707646"
        style="" />
</svg>