<svg width="500" height="850" xmlns="http://www.w3.org/2000/svg" xmlns:svg="http://www.w3.org/2000/svg">
    <path
        d="M 108.57812 258.57812 L 90.900391 265.90039 L 83.578125 283.57812 L 90.900391 301.25586 L 373.74414 584.09961 L 391.42188 591.42188 L 409.09961 584.09961 L 416.42188 566.42188 L 409.09961 548.74414 L 126.25586 265.90039 L 108.57812 258.57812 z " />
    <polygon
        points=" 250 200 267.677669529664 207.322330470336 275 225 267.677669529664 242.677669529664 250 250 232.322330470336 242.677669529664 225 225 232.322330470336 207.322330470336"
        style="" />
    <polygon
        points=" 450 400 467.677669529664 407.322330470336 475 425 467.677669529664 442.677669529664 450 450 432.322330470336 442.677669529664 425 425 432.322330470336 407.322330470336"
        style="" />
    <polygon
        points=" 250 600 267.677669529664 607.322330470336 275 625 267.677669529664 642.677669529664 250 650 232.322330470336 642.677669529664 225 625 232.322330470336 607.322330470336"
        style="" />
    <polygon
        points=" 50 400 67.6776695296637 407.322330470336 75 425 67.6776695296637 442.677669529664 50 450 32.3223304703363 442.677669529664 25 425 32.3223304703363 407.322330470336"
        style="" />
    <polygon
        points="250 400 267.677669529664 407.322330470336 275 425 267.677669529664 442.677669529664 250 450 232.322330470336 442.677669529664 225 425 232.322330470336 407.322330470336"
        style="" />
</svg>