<svg width="500" height="850" xmlns="http://www.w3.org/2000/svg">
    <path
        d="M 50 400 L 32.322266 407.32227 L 25 425 L 32.322266 442.67773 L 50 450 L 67.677734 442.67773 L 75 425 L 67.677734 407.32227 L 50 400 z M 250 400 L 232.32227 407.32227 L 225 425 L 232.32227 442.67773 L 250 450 L 267.67773 442.67773 L 275 425 L 267.67773 407.32227 L 250 400 z M 450 400 L 432.32227 407.32227 L 425 425 L 432.32227 442.67773 L 450 450 L 467.67773 442.67773 L 475 425 L 467.67773 407.32227 L 450 400 z " />
    <path
        d="M 250 300 L 161.61133 336.61133 L 125 425 L 161.61133 513.38867 L 250 550 L 338.38867 513.38867 L 375 425 L 338.38867 336.61133 L 250 300 z M 250 350 L 303.0332 371.9668 L 325 425 L 303.0332 478.0332 L 250 500 L 196.9668 478.0332 L 175 425 L 196.9668 371.9668 L 250 350 z " />
</svg>