<?xml version="1.0" encoding="UTF-8" standalone="no"?>
<svg width="500" height="850" version="1.1" id="svg10" sodipodi:docname="uni0323.svg" inkscape:version="1.4.3 (0d15f750, 2025-12-25)" xmlns:inkscape="http://www.inkscape.org/namespaces/inkscape" xmlns:sodipodi="http://sodipodi.sourceforge.net/DTD/sodipodi-0.dtd" xmlns="http://www.w3.org/2000/svg" xmlns:svg="http://www.w3.org/2000/svg">
    <defs id="defs10" />
    <sodipodi:namedview id="namedview10" pagecolor="#ffffff" bordercolor="#000000" borderopacity="0.25" inkscape:showpageshadow="2" inkscape:pageopacity="0.0" inkscape:pagecheckerboard="0" inkscape:deskcolor="#d1d1d1" inkscape:zoom="0.53647059" inkscape:cx="250.71272" inkscape:cy="425" inkscape:window-width="1080" inkscape:window-height="675" inkscape:window-x="0" inkscape:window-y="25" inkscape:window-maximized="0" inkscape:current-layer="svg10" />
    <path id="polygon6" d="m -250,700 -3.53516,1.46484 L -255,705 l 1.46484,3.53516 L -250,710 -246.46484,708.53516 -245,705 l -1.46484,-3.53516 z m -20,20 -3.53516,1.46484 L -275,725 l 1.46484,3.53516 L -270,730 -266.46484,728.53516 -265,725 l -1.46484,-3.53516 z m 20,0 -3.53516,1.46484 L -255,725 l 1.46484,3.53516 L -250,730 -246.46484,728.53516 -245,725 l -1.46484,-3.53516 z m 20,0 -3.53516,1.46484 L -235,725 l 1.46484,3.53516 L -230,730 -226.46484,728.53516 -225,725 l -1.46484,-3.53516 z m -20,20 -3.53516,1.46484 L -255,745 l 1.46484,3.53516 L -250,750 -246.46484,748.53516 -245,745 l -1.46484,-3.53516 z" />
</svg>
