<svg width="500" height="850" xmlns="http://www.w3.org/2000/svg">
    <path
        d="M -250 87.5 L -258.83789 91.162109 L -262.5 100 L -258.83789 108.83789 L -250 112.5 L -241.16211 108.83789 L -237.5 100 L -241.16211 91.162109 L -250 87.5 z M -250 112.5 L -258.83789 116.16211 L -262.5 125 L -258.83789 133.83789 L -250 137.5 L -241.16211 133.83789 L -237.5 125 L -241.16211 116.16211 L -250 112.5 z M -237.5 125 L -233.83789 133.83789 L -225 137.5 L -216.16211 133.83789 L -212.5 125 L -216.16211 116.16211 L -225 112.5 L -233.83789 116.16211 L -237.5 125 z M -250 137.5 L -258.83789 141.16211 L -262.5 150 L -258.83789 158.83789 L -250 162.5 L -241.16211 158.83789 L -237.5 150 L -241.16211 141.16211 L -250 137.5 z M -262.5 125 L -266.16211 116.16211 L -275 112.5 L -283.83789 116.16211 L -287.5 125 L -283.83789 133.83789 L -275 137.5 L -266.16211 133.83789 L -262.5 125 z " />
</svg>