<svg width="500" height="850" version="1.1" id="svg2" sodipodi:docname="uni002a.svg"
    inkscape:version="1.4.2 (ebf0e940, 2025-05-08)" xmlns:inkscape="http://www.inkscape.org/namespaces/inkscape"
    xmlns:sodipodi="http://sodipodi.sourceforge.net/DTD/sodipodi-0.dtd" xmlns="http://www.w3.org/2000/svg"
    xmlns:svg="http://www.w3.org/2000/svg">
    <defs id="defs2" />
    <sodipodi:namedview id="namedview2" pagecolor="#ffffff" bordercolor="#000000" borderopacity="0.25"
        inkscape:showpageshadow="2" inkscape:pageopacity="0.0" inkscape:pagecheckerboard="0"
        inkscape:deskcolor="#d1d1d1" inkscape:zoom="0.31652174" inkscape:cx="259.06593" inkscape:cy="426.51099"
        inkscape:window-width="1080" inkscape:window-height="675" inkscape:window-x="0" inkscape:window-y="25"
        inkscape:window-maximized="0" inkscape:current-layer="svg2" />
    <path id="polygon1"
        d="M 250 200 L 232.32227 207.32227 L 225 225 L 225 364.64453 L 126.25586 265.90039 L 108.57812 258.57812 L 90.900391 265.90039 L 83.578125 283.57812 L 90.900391 301.25586 L 214.64453 425 L 90.900391 548.74414 L 83.578125 566.42188 L 90.900391 584.09961 L 108.57812 591.42188 L 126.25586 584.09961 L 225 485.35547 L 225 625 L 232.32227 642.67773 L 250 650 L 267.67773 642.67773 L 275 625 L 275 485.35547 L 373.74414 584.09961 L 391.42188 591.42188 L 409.09961 584.09961 L 416.42188 566.42188 L 409.09961 548.74414 L 285.35547 425 L 409.09961 301.25586 L 416.42188 283.57812 L 409.09961 265.90039 L 391.42188 258.57812 L 373.74414 265.90039 L 275 364.64453 L 275 225 L 267.67773 207.32227 L 250 200 z " />
</svg>