<svg width="500" height="850" xmlns="http://www.w3.org/2000/svg">
    <path
        d="m409.099 584.099 7.322-17.678-7.322-17.677-17.678-7.323-17.677 7.323L250 600l-123.744-51.257L75 425l51.257-123.744L250 250l123.744 51.257 17.677 7.323 17.678-7.323 7.322-17.677L409.1 265.9l-17.678-7.322L250 199.999 90.901 265.901 24.999 425l65.902 159.099L250 650.001l141.421-58.58z" />
    <path
        d="M 108.57812 258.57812 L 90.900391 265.90039 L 83.578125 283.57812 L 90.900391 301.25586 L 373.74414 584.09961 L 391.42188 591.42188 L 409.09961 584.09961 L 416.42188 566.42188 L 409.09961 548.74414 L 126.25586 265.90039 L 108.57812 258.57812 z " />
    <path d="m225 25 7.322-17.678L250 0l17.678 7.322L275 25v800l-7.322 17.678L250 850l-17.678-7.322L225 825z" />
</svg>