<?xml version="1.0" encoding="UTF-8" standalone="no"?>
<svg width="500" height="850" version="1.1" id="svg10" sodipodi:docname="uni02d9.svg" inkscape:version="1.4.3 (0d15f750, 2025-12-25)" xmlns:inkscape="http://www.inkscape.org/namespaces/inkscape" xmlns:sodipodi="http://sodipodi.sourceforge.net/DTD/sodipodi-0.dtd" xmlns="http://www.w3.org/2000/svg" xmlns:svg="http://www.w3.org/2000/svg">
    <defs id="defs10" />
    <sodipodi:namedview id="namedview10" pagecolor="#ffffff" bordercolor="#000000" borderopacity="0.25" inkscape:showpageshadow="2" inkscape:pageopacity="0.0" inkscape:pagecheckerboard="0" inkscape:deskcolor="#d1d1d1" inkscape:zoom="9.12" inkscape:cx="250" inkscape:cy="125" inkscape:window-width="1080" inkscape:window-height="675" inkscape:window-x="0" inkscape:window-y="25" inkscape:window-maximized="0" inkscape:current-layer="svg10" />
    <path id="polygon1" d="M 250 100 L 246.46484 101.46484 L 245 105 L 246.46484 108.53516 L 250 110 L 253.53516 108.53516 L 255 105 L 253.53516 101.46484 L 250 100 z M 230 120 L 226.46484 121.46484 L 225 125 L 226.46484 128.53516 L 230 130 L 233.53516 128.53516 L 235 125 L 233.53516 121.46484 L 230 120 z M 250 120 L 246.46484 121.46484 L 245 125 L 246.46484 128.53516 L 250 130 L 253.53516 128.53516 L 255 125 L 253.53516 121.46484 L 250 120 z M 270 120 L 266.46484 121.46484 L 265 125 L 266.46484 128.53516 L 270 130 L 273.53516 128.53516 L 275 125 L 273.53516 121.46484 L 270 120 z M 250 140 L 246.46484 141.46484 L 245 145 L 246.46484 148.53516 L 250 150 L 253.53516 148.53516 L 255 145 L 253.53516 141.46484 L 250 140 z " />
</svg>
