<svg width="500" height="850" xmlns="http://www.w3.org/2000/svg">
    <path
        d="m 250,199.99805 -141.42188,58.58007 -17.677729,7.32227 -7.322266,17.67773 7.322266,17.67774 17.677729,7.32226 17.67774,-7.32226 h 0.002 L 250,250 l 123.74414,51.25781 17.67774,7.32227 17.67773,-7.32227 7.32227,-17.67773 -7.32227,-17.67969 -17.67773,-7.32227 z" />
    <path
        d="m 108.57812,541.41992 -17.677729,7.32227 -7.322266,17.67773 7.322266,17.67969 17.677729,7.32227 L 250,650.00195 l 141.42188,-58.58007 17.67773,-7.32227 7.32227,-17.67773 -7.32227,-17.67774 -17.67773,-7.32226 -17.67774,7.32226 h -0.002 L 250,600 126.25586,548.74219 Z" />
    <path
        d="M 108.57812 258.57812 L 90.900391 265.90039 L 83.578125 283.57812 L 90.900391 301.25586 L 373.74414 584.09961 L 391.42188 591.42188 L 409.09961 584.09961 L 416.42188 566.42188 L 409.09961 548.74414 L 126.25586 265.90039 L 108.57812 258.57812 z " />
    <path d="m225 25 7.322-17.678L250 0l17.678 7.322L275 25v800l-7.322 17.678L250 850l-17.678-7.322L225 825z" />
</svg>