<svg width="500" height="850" xmlns="http://www.w3.org/2000/svg" xmlns:svg="http://www.w3.org/2000/svg">
    <path
        d="m90.901 265.901-7.322 17.678 7.322 17.677 17.678 7.323 17.677-7.323L250 250l123.744 51.257L425 425l-51.257 123.744L250 600l-123.744-51.257-17.677-7.323-17.678 7.323-7.322 17.677L90.9 584.1l17.678 7.322L250 650.001l159.099-65.902L475.001 425l-65.902-159.099L250 199.999l-141.421 58.58z" />
    <path
        d="m154.29 495.71 7.321 17.679 17.678 7.322L250 550l88.389-36.611L375 425l-36.611-88.389L250 300l-70.71 29.29-17.679 7.321-7.322 17.678 7.322 17.678 17.678 7.322 17.678-7.322L250 350l53.033 21.967L325 425l-21.967 53.033L250 500l-53.033-21.967-17.678-7.322-17.678 7.322z" />
    <polygon
        points="250 400 267.677669529664 407.322330470336 275 425 267.677669529664 442.677669529664 250 450 232.322330470336 442.677669529664 225 425 232.322330470336 407.322330470336"
        style="" />
</svg>