<svg width="500" height="850" xmlns="http://www.w3.org/2000/svg">
    <path d="m90.901 265.901-7.322 17.678 7.322 17.677 17.678 7.323 17.677-7.323L250 250l123.744 51.257L425 425l-51.257 123.744L250 600l-123.744-51.257-17.677-7.323-17.678 7.323-7.322 17.677L90.9 584.1l17.678 7.322L250 650.001l159.099-65.902L475.001 425l-65.902-159.099L250 199.999l-141.421 58.58z"/>
    <path d="M 108.57812 258.57812 L 90.900391 265.90039 L 83.578125 283.57812 L 90.900391 301.25586 L 373.74414 584.09961 L 391.42188 591.42188 L 409.09961 584.09961 L 416.42188 566.42188 L 409.09961 548.74414 L 126.25586 265.90039 L 108.57812 258.57812 z "/>
</svg>