<svg width="500" height="850" xmlns="http://www.w3.org/2000/svg">
    <path
        d="m -250,100 -3.53516,1.46484 L -255,105 l 1.46484,3.53516 L -250,110 -246.46484,108.53516 -245,105 l -1.46484,-3.53516 z m -20,20 -3.53516,1.46484 L -275,125 l 1.46484,3.53516 L -270,130 -266.46484,128.53516 -265,125 l -1.46484,-3.53516 z m 20,0 -3.53516,1.46484 L -255,125 l 1.46484,3.53516 L -250,130 -246.46484,128.53516 -245,125 l -1.46484,-3.53516 z m 20,0 -3.53516,1.46484 L -235,125 l 1.46484,3.53516 L -230,130 -226.46484,128.53516 -225,125 l -1.46484,-3.53516 z m -20,20 -3.53516,1.46484 L -255,145 l 1.46484,3.53516 L -250,150 -246.46484,148.53516 -245,145 l -1.46484,-3.53516 z" />
</svg>