<svg width="500" height="850" xmlns="http://www.w3.org/2000/svg">
    <path
        d="M 391.42188 258.57812 L 373.74414 265.90039 L 313.38867 326.25586 L 250 300 L 161.61133 336.61133 L 125 425 L 151.25586 488.38867 L 90.900391 548.74414 L 83.578125 566.42188 L 90.900391 584.09961 L 108.57812 591.42188 L 126.25586 584.09961 L 186.61133 523.74414 L 250 550 L 338.38867 513.38867 L 375 425 L 348.74414 361.61133 L 409.09961 301.25586 L 416.42188 283.57812 L 409.09961 265.90039 L 391.42188 258.57812 z M 250 350 L 278.0332 361.61133 L 186.61133 453.0332 L 175 425 L 196.9668 371.9668 L 250 350 z M 313.38867 396.9668 L 325 425 L 303.0332 478.0332 L 250 500 L 221.9668 488.38867 L 313.38867 396.9668 z " />
</svg>