<svg width="500" height="850" xmlns="http://www.w3.org/2000/svg">
    <path
        d="M 250 100 L 246.46484 101.46484 L 245 105 L 246.46484 108.53516 L 250 110 L 253.53516 108.53516 L 255 105 L 253.53516 101.46484 L 250 100 z M 230 120 L 226.46484 121.46484 L 225 125 L 226.46484 128.53516 L 230 130 L 233.53516 128.53516 L 235 125 L 233.53516 121.46484 L 230 120 z M 250 120 L 246.46484 121.46484 L 245 125 L 246.46484 128.53516 L 250 130 L 253.53516 128.53516 L 255 125 L 253.53516 121.46484 L 250 120 z M 270 120 L 266.46484 121.46484 L 265 125 L 266.46484 128.53516 L 270 130 L 273.53516 128.53516 L 275 125 L 273.53516 121.46484 L 270 120 z M 250 140 L 246.46484 141.46484 L 245 145 L 246.46484 148.53516 L 250 150 L 253.53516 148.53516 L 255 145 L 253.53516 141.46484 L 250 140 z " />
</svg>