<svg width="500" height="850" xmlns="http://www.w3.org/2000/svg">
    <path
        d="m250 200-141.422 58.578L90.9 265.9l-7.322 17.678L25 425l58.578 141.422L90.9 584.1l17.678 7.322L250 650l141.422-58.578L409.1 584.1l7.322-17.678L475 425l-58.578-141.422L409.1 265.9l-17.678-7.322zm0 50 123.744 51.256L425 425l-51.256 123.744L250 600l-123.744-51.256L75 425l51.256-123.744z" />
    <path
        d="M 250 300 L 161.61133 336.61133 L 125 425 L 161.61133 513.38867 L 250 550 L 338.38867 513.38867 L 375 425 L 338.38867 336.61133 L 250 300 z M 250 350 L 303.0332 371.9668 L 325 425 L 303.0332 478.0332 L 250 500 L 196.9668 478.0332 L 175 425 L 196.9668 371.9668 L 250 350 z " />
    <path
        d="M 108.57812 258.57812 L 90.900391 265.90039 L 83.578125 283.57812 L 90.900391 301.25586 L 373.74414 584.09961 L 391.42188 591.42188 L 409.09961 584.09961 L 416.42188 566.42188 L 409.09961 548.74414 L 126.25586 265.90039 L 108.57812 258.57812 z " />
</svg>