<svg width="500" height="850" version="1.1" id="svg5" sodipodi:docname="uni003a.svg"
    inkscape:version="1.4.2 (ebf0e940, 2025-05-08)" xmlns:inkscape="http://www.inkscape.org/namespaces/inkscape"
    xmlns:sodipodi="http://sodipodi.sourceforge.net/DTD/sodipodi-0.dtd" xmlns="http://www.w3.org/2000/svg"
    xmlns:svg="http://www.w3.org/2000/svg">
    <defs id="defs5" />
    <sodipodi:namedview id="namedview5" pagecolor="#ffffff" bordercolor="#000000" borderopacity="0.25"
        inkscape:showpageshadow="2" inkscape:pageopacity="0.0" inkscape:pagecheckerboard="0"
        inkscape:deskcolor="#d1d1d1" inkscape:zoom="0.31652174" inkscape:cx="259.06593" inkscape:cy="426.51099"
        inkscape:window-width="1080" inkscape:window-height="675" inkscape:window-x="0" inkscape:window-y="25"
        inkscape:window-maximized="0" inkscape:current-layer="svg5" />
    <path id="path1"
        d="M 250 200 L 232.32227 207.32227 L 225 225 L 232.32227 242.67773 L 250 250 L 267.67773 242.67773 L 275 225 L 267.67773 207.32227 L 250 200 z M 108.57812 258.57812 L 90.900391 265.90039 L 83.578125 283.57812 L 90.900391 301.25586 L 232.32227 442.67773 L 373.74414 584.09961 L 391.42188 591.42188 L 409.09961 584.09961 L 416.42188 566.42188 L 409.09961 548.74414 L 267.67773 407.32227 L 126.25586 265.90039 L 108.57812 258.57812 z M 50 400 L 32.322266 407.32227 L 25 425 L 32.322266 442.67773 L 50 450 L 67.677734 442.67773 L 75 425 L 67.677734 407.32227 L 50 400 z M 450 400 L 432.32227 407.32227 L 425 425 L 432.32227 442.67773 L 450 450 L 467.67773 442.67773 L 475 425 L 467.67773 407.32227 L 450 400 z M 250 600 L 232.32227 607.32227 L 225 625 L 232.32227 642.67773 L 250 650 L 267.67773 642.67773 L 275 625 L 267.67773 607.32227 L 250 600 z " />
</svg>