<svg width="500" height="850" xmlns="http://www.w3.org/2000/svg">
    <polygon
        points=" 250 200 267.677669529664 207.322330470336 275 225 267.677669529664 242.677669529664 250 250 232.322330470336 242.677669529664 225 225 232.322330470336 207.322330470336"
        style="" />
    <polygon
        points=" 250 600 267.677669529664 607.322330470336 275 625 267.677669529664 642.677669529664 250 650 232.322330470336 642.677669529664 225 625 232.322330470336 607.322330470336"
        style="" />
    <path
        d="M 50 400 L 32.322266 407.32227 L 25 425 L 32.322266 442.67773 L 50 450 L 67.677734 442.67773 L 75 425 L 67.677734 407.32227 L 50 400 z M 450 400 L 432.32227 407.32227 L 425 425 L 432.32227 442.67773 L 450 450 L 467.67773 442.67773 L 475 425 L 467.67773 407.32227 L 450 400 z " />
</svg>