<?xml version="1.0" encoding="UTF-8" standalone="no"?>
<svg width="500" height="850" version="1.1" id="svg2" sodipodi:docname="uni25cc.svg"
    inkscape:version="1.4.2 (ebf0e940, 2025-05-08)" xmlns:inkscape="http://www.inkscape.org/namespaces/inkscape"
    xmlns:sodipodi="http://sodipodi.sourceforge.net/DTD/sodipodi-0.dtd" xmlns="http://www.w3.org/2000/svg"
    xmlns:svg="http://www.w3.org/2000/svg">
    <defs id="defs2" />
    <path id="path1"
        d="M 108.57812 258.57812 L 90.900391 265.90039 L 83.578125 283.57812 L 90.900391 301.25586 L 108.57812 308.57812 L 126.25586 301.25586 L 126.25781 301.25586 L 133.58008 283.57812 L 126.25781 265.90039 L 108.58008 258.57812 L 108.57812 258.57812 z M 391.42188 258.57812 L 373.74414 265.90039 L 366.42188 283.57812 L 373.74414 301.25586 L 373.74414 301.25781 L 391.42188 308.58008 L 409.09961 301.25781 L 416.42188 283.58008 L 409.09961 265.90039 L 391.42188 258.57812 z M 108.57812 541.41992 L 90.900391 548.74219 L 83.578125 566.41992 L 83.578125 566.42188 L 90.900391 584.09961 L 108.57812 591.42188 L 126.25586 584.09961 L 133.57812 566.42188 L 126.25586 548.74414 L 126.25586 548.74219 L 108.57812 541.41992 z M 391.42188 541.42188 L 373.74414 548.74414 L 373.74219 548.74414 L 366.41992 566.42188 L 373.74219 584.09961 L 391.41992 591.42188 L 409.09961 584.09961 L 416.42188 566.42188 L 409.09961 548.74414 L 391.42188 541.42188 z " />
</svg>