<svg width="500" height="850" xmlns="http://www.w3.org/2000/svg">
    <path
        d="M 250 199.99805 L 108.57812 258.57812 L 90.900391 265.90039 L 83.578125 283.57812 L 90.900391 301.25586 L 151.25586 361.61133 L 125 425 L 161.61133 513.38867 L 250 550 L 313.38867 523.74414 L 348.74414 559.09961 L 250 600 L 126.25586 548.74219 L 108.57812 541.41992 L 90.900391 548.74219 L 83.578125 566.41992 L 90.900391 584.09961 L 108.57812 591.42188 L 250 650.00195 L 391.42188 591.42188 L 409.09961 584.09961 L 416.42188 566.42188 L 409.09961 548.74414 L 348.74414 488.38867 L 375 425 L 338.38867 336.61133 L 250 300 L 186.61133 326.25586 L 151.25586 290.90039 L 250 250 L 373.74414 301.25781 L 391.42188 308.58008 L 409.09961 301.25781 L 416.42188 283.58008 L 409.09961 265.90039 L 391.42188 258.57812 L 250 199.99805 z M 250 350 L 303.0332 371.9668 L 325 425 L 313.38867 453.0332 L 221.9668 361.61133 L 250 350 z M 186.61133 396.9668 L 278.0332 488.38867 L 250 500 L 196.9668 478.0332 L 175 425 L 186.61133 396.9668 z " />
</svg>