<svg xmlns="http://www.w3.org/2000/svg" width="150" height="150">
    <style>
        @media (prefers-color-scheme:light) {
            path {
                fill: #000
            }
        }

        @media (prefers-color-scheme:dark) {
            path {
                fill: #c99410
            }
        }
    </style>
    <path
        d="M75 0a75 75 0 0 0-53.033 21.967 5 5 0 0 0 0 7.07l23.219 23.219A37.5 37.5 0 0 0 37.5 75 37.5 37.5 0 0 0 75 112.5a37.5 37.5 0 0 0 22.744-7.686l19.547 19.547A65 65 0 0 1 75 140a65 65 0 0 1-45.963-19.037 5 5 0 0 0-7.07 0 5 5 0 0 0 0 7.07 5 5 0 0 0 .492.432A75 75 0 0 0 75 150a75 75 0 0 0 52.541-21.535 5 5 0 0 0 .492-.432 5 5 0 0 0 0-7.07l-23.219-23.219A37.5 37.5 0 0 0 112.5 75 37.5 37.5 0 0 0 75 37.5a37.5 37.5 0 0 0-22.744 7.686L32.709 25.639A65 65 0 0 1 75 10a65 65 0 0 1 45.885 18.959l.078.078a5 5 0 0 0 7.07 0 5 5 0 0 0 0-7.07 5 5 0 0 0-.492-.432A75 75 0 0 0 75 0m0 47.5A27.5 27.5 0 0 1 102.5 75a27.5 27.5 0 0 1-4.844 15.586L59.414 52.344A27.5 27.5 0 0 1 75 47.5M52.344 59.414l38.242 38.242A27.5 27.5 0 0 1 75 102.5 27.5 27.5 0 0 1 47.5 75a27.5 27.5 0 0 1 4.844-15.586" />
</svg>