<?xml version="1.0" encoding="UTF-8" standalone="no"?>
<svg id="svg1" width="100" height="100" version="1.1" sodipodi:docname="dictionary.svg"
    inkscape:version="1.4.2 (ebf0e940, 2025-05-08)" xmlns:inkscape="http://www.inkscape.org/namespaces/inkscape"
    xmlns:sodipodi="http://sodipodi.sourceforge.net/DTD/sodipodi-0.dtd" xmlns="http://www.w3.org/2000/svg"
    xmlns:svg="http://www.w3.org/2000/svg">
    <defs id="defs1" />
    <sodipodi:namedview id="namedview1" pagecolor="#ffffff" bordercolor="#000000" borderopacity="0.25"
        inkscape:showpageshadow="2" inkscape:pageopacity="0.0" inkscape:pagecheckerboard="0"
        inkscape:deskcolor="#d1d1d1" inkscape:zoom="2.6904348" inkscape:cx="50.177763" inkscape:cy="50.177763"
        inkscape:window-width="1080" inkscape:window-height="675" inkscape:window-x="0" inkscape:window-y="25"
        inkscape:window-maximized="0" inkscape:current-layer="svg1" />
    <style id="style1">
        @media (prefers-color-scheme:light) {
            path {
                fill: #000
            }
        }

        @media (prefers-color-scheme:dark) {
            path {
                fill: #c99410
            }
        }
    </style>
    <path id="path2"
        d="M 500 0 A 500 500 0 0 0 146.44531 146.44531 A 25 25 0 0 0 146.44531 181.79688 L 306.42578 341.77734 A 250 250 0 0 0 250 500 A 250 250 0 0 0 500 750 A 250 250 0 0 0 658.22266 693.57422 L 800.03906 835.39062 A 450 450 0 0 1 500 950 A 450 450 0 0 1 181.79688 818.20312 A 25 25 0 0 0 146.44531 818.20312 A 25 25 0 0 0 146.44531 853.55469 A 25 25 0 0 0 148.90625 855.70312 A 500 500 0 0 0 500 1000 A 500 500 0 0 0 851.09375 855.70312 A 25 25 0 0 0 853.55469 853.55469 A 25 25 0 0 0 853.55469 818.20312 L 693.57422 658.22266 A 250 250 0 0 0 750 500 A 250 250 0 0 0 500 250 A 250 250 0 0 0 341.77734 306.42578 L 199.96094 164.60938 A 450 450 0 0 1 500 50 A 450 450 0 0 1 818.20312 181.79688 A 25 25 0 0 0 853.55469 181.79688 A 25 25 0 0 0 853.55469 146.44531 A 25 25 0 0 0 851.09375 144.29688 A 500 500 0 0 0 500 0 z M 500 300 A 200 200 0 0 1 700 500 A 200 200 0 0 1 657.71484 622.34375 L 377.65625 342.28516 A 200 200 0 0 1 500 300 z M 342.28516 377.65625 L 622.34375 657.71484 A 200 200 0 0 1 500 700 A 200 200 0 0 1 300 500 A 200 200 0 0 1 342.28516 377.65625 z "
        transform="scale(.1)" />
</svg>