<svg xmlns="http://www.w3.org/2000/svg" width="100" height="100">
    <style>
        @media (prefers-color-scheme:light) {
            path {
                fill: #000
            }
        }

        @media (prefers-color-scheme:dark) {
            path {
                fill: #c99410
            }
        }
    </style>
    <path
        d="M50 0a50 50 0 0 0-35.355 14.645 2.5 2.5 0 0 0 0 3.535l15.998 15.998A25 25 0 0 0 25 50a25 25 0 0 0 25 25 25 25 0 0 0 15.822-5.643L80.004 83.54A45 45 0 0 1 50 95a45 45 0 0 1-31.82-13.18 2.5 2.5 0 0 0-3.535 0 2.5 2.5 0 0 0 0 3.535 3 3 0 0 0 .246.215A50 50 0 0 0 50 100a50 50 0 0 0 35.11-14.43 3 3 0 0 0 .245-.215 2.5 2.5 0 0 0 0-3.535L69.357 65.822A25 25 0 0 0 75 50a25 25 0 0 0-25-25 25 25 0 0 0-15.822 5.643L19.996 16.46A45 45 0 0 1 50 5a45 45 0 0 1 31.82 13.18 2.5 2.5 0 0 0 3.535 0 2.5 2.5 0 0 0 0-3.535 3 3 0 0 0-.246-.215A50 50 0 0 0 50 0m0 30a20 20 0 0 1 20 20 20 20 0 0 1-4.201 12.264L37.736 34.2A20 20 0 0 1 50 30m-15.799 7.736L62.264 65.8A20 20 0 0 1 50 70a20 20 0 0 1-20-20 20 20 0 0 1 4.201-12.264" />
</svg>