<svg xmlns="http://www.w3.org/2000/svg" width="1000" height="1000">
    <style>
        @media (prefers-color-scheme:light) {
            path {
                fill: #000
            }
        }

        @media (prefers-color-scheme:dark) {
            path {
                fill: #c99410
            }
        }
    </style>
    <path
        d="M 75 75 L 75 925 L 125 925 L 125 75 L 75 75 z M 175 75 L 175 225 L 225 225 L 275 225 L 475 225 L 475 275 L 275 275 L 225 275 L 175 275 L 175 425 L 225 425 L 275 425 L 475 425 L 475 475 L 275 475 L 225 475 L 175 475 L 175 625 L 225 625 L 275 625 L 475 625 L 475 675 L 275 675 L 225 675 L 175 675 L 175 825 L 225 825 L 275 825 L 375 825 L 375 875 L 275 875 L 225 875 L 175 875 L 175 925 L 225 925 L 275 925 L 425 925 L 425 775 L 275 775 L 225 775 L 225 725 L 275 725 L 475 725 L 475 925 L 525 925 L 525 725 L 725 725 L 775 725 L 775 775 L 725 775 L 575 775 L 575 925 L 725 925 L 775 925 L 825 925 L 825 875 L 775 875 L 725 875 L 625 875 L 625 825 L 725 825 L 775 825 L 825 825 L 825 675 L 775 675 L 725 675 L 525 675 L 525 625 L 725 625 L 775 625 L 825 625 L 825 475 L 775 475 L 725 475 L 525 475 L 525 425 L 725 425 L 775 425 L 825 425 L 825 275 L 775 275 L 725 275 L 525 275 L 525 225 L 725 225 L 775 225 L 825 225 L 825 75 L 775 75 L 725 75 L 575 75 L 575 125 L 725 125 L 775 125 L 775 175 L 725 175 L 525 175 L 525 75 L 475 75 L 475 175 L 275 175 L 225 175 L 225 125 L 275 125 L 425 125 L 425 75 L 275 75 L 225 75 L 175 75 z M 875 75 L 875 925 L 925 925 L 925 75 L 875 75 z M 225 325 L 275 325 L 725 325 L 775 325 L 775 375 L 725 375 L 275 375 L 225 375 L 225 325 z M 225 525 L 275 525 L 725 525 L 775 525 L 775 575 L 725 575 L 275 575 L 225 575 L 225 525 z " />
</svg>