<svg xmlns="http://www.w3.org/2000/svg" version="1.0" width="500" height="500">
  <style>
    @media (prefers-color-scheme: light) {
      path {
        fill: #000000;
      }
    }

    @media (prefers-color-scheme: dark) {
      path {
        fill: #FFFFFF;
      }
    }
  </style>
  <path
    d="M72.43 426.803 0 353.607V146.136l73.063-73.068L146.125 0H352.592l73.704 72.938L500 145.875v208l-73.068 73.062L353.864 500H144.861zm341.394-13.746 66.828-67.594v-190.93l-67.335-68.102-67.335-68.101h-191.7L86.307 86.3 18.33 154.272v191.446l67.461 67.468 67.462 67.467h193.743zm-321.923-4.964-65.424-65.43v-185.59L92.54 91.775l66.065-65.298h182.788l66.065 65.298 66.064 65.298v185.589l-65.424 65.43-65.425 65.431H157.326zm311.1-5.086 63.394-63.388V160.393l-63.388-63.394-63.388-63.394H159.362l-62.87 62.882-62.87 62.882-.03 90.606-.03 90.607 62.9 62.906 62.9 62.907h180.245z" />
  <path
    d="M227.98 409.628c-1.69-.377-1.58-.597.728-1.446 1.855-.683 2.073-.989 2.63-3.698.464-2.256 1.23-2.993 3.107-2.993 3.015 0 3.641 3.566 1.095 6.236-.958 1.003-4.063 2.331-5.311 2.271-.416-.02-1.428-.186-2.249-.37zm-89.77-5.281c1.414-1.851 1.474-2.478.47-4.895-.731-1.757-.733-1.808-.114-2.958 1.44-2.673 4.887-1.82 5.482 1.355.525 2.796-1.878 6.525-4.859 7.54-2.276.776-2.326.722-.979-1.042zm117.758-.208c.963-2.121.848-3.2-.557-5.24-1.422-2.064-1.39-3.403.107-4.58 1.301-1.024 2.408-.872 3.712.51 2.746 2.912 1.257 8.085-2.954 10.263l-.968.5.66-1.452zm-18.258-.701c-.12-.644-.512-1.435-.87-1.758-.825-.748-3.119-1.067-4.057-.565-.886.474-1.43-.326-1.43-2.1 0-.887.238-1.33 1.025-1.913 1.115-.824 1.28-1.736.685-3.806-.235-.82-.216-1.78.062-3.125.517-2.501-.012-3.45-2.23-4.01-1.323-.333-1.742-.683-3.114-2.606-1.962-2.75-2.455-2.897-6.486-1.933-3.088.739-5.462.912-6.967.51-.706-.19-.767-.352-.57-1.52.344-2.037-1.203-4.069-3.097-4.069-.804 0-.564-1.376.623-3.588.996-1.855 1.249-2.09 2.64-2.457 1.426-.378 3.104-.353 6.749.098 1.449.179 1.452.183 1.453 1.61 0 1.333.118 1.512 1.69 2.583 4.073 2.776 11.738 2.784 13.71.013.676-.948.828-.993 3.333-.998 2.757-.01 6.274-.68 7.884-1.513.524-.27 1.818-1.386 2.875-2.478l1.924-1.985 2.362.02c2.475.02 3.727.525 4.917 1.988.845 1.04.747 1.813-.26 2.066-.956.24-2.207 2.018-2.21 3.141 0 .397.38 1.28.843 1.964l.844 1.244-.774.506c-1.421.932-2.857 1.285-3.6.887-.973-.52-3.625-.455-7.775.191-4.66.726-4.586 1.114.577 2.987 2.176.789 4.714 1.914 5.639 2.5.925.588 2.55 1.243 3.61 1.458 1.993.404 2.771.979 3.192 2.356.316 1.034-.062 3.462-.663 4.263-.442.59-.525.592-1.577.048-2.292-1.185-4.914.57-4.914 3.288 0 1.173-.102 1.308-1.244 1.65-.684.205-1.489.372-1.789.372-.813 0-1.902-1.307-2.843-3.413-.609-1.362-1.732-2.75-4.104-5.073-3.728-3.65-4.779-3.848-2.728-.514 3.16 5.134 3.295 7.86.587 11.833-.988 1.45-2 2.635-2.25 2.635s-.68.086-.954.192c-.356.137-.561-.142-.718-.979zm-128.038-.15-1.862-.937 1.88-.22c2.709-.317 3-.51 4.116-2.72 1.454-2.881 3.392-3.572 5.232-1.867 1.088 1.009 1.133 1.818.201 3.644-1.47 2.884-6.024 3.883-9.567 2.1zm10.736-3.846c.052-1.988-1.254-3.22-3.454-3.259-1.565-.028-1.629-.068-1.731-1.104-.135-1.37.377-2.32 1.551-2.884 1.192-.57 1.79-1.777 1.797-3.619.003-.806.321-2.086.708-2.845 1.066-2.089.795-3.285-1.032-4.568-1.198-.841-1.694-1.506-2.309-3.094-1.256-3.242-1.443-3.346-6.502-3.597-5.158-.256-7.679-1.193-6.65-2.472 1.198-1.49.318-4.437-1.458-4.883-.476-.12-.865-.316-.864-.436.003-.467 1.33-2.328 2.532-3.552 1.616-1.645 3.078-1.69 7.265-.226 1.66.58 3.517 1.221 4.128 1.424.778.259 1.111.582 1.113 1.081.008 2.799 2.416 5.833 6.11 7.698 3.345 1.688 4.691 1.725 7.752.212 2.418-1.195 2.696-1.256 4.744-1.036 3.345.358 5.35-.053 7.714-1.58 1.664-1.076 2.382-1.336 3.69-1.336 2.863 0 5.502 1.822 6.064 4.187.191.805.117.94-.52.94-2.611 0-4.39 3.263-2.922 5.36.48.685.447.748-.564 1.1-1.494.521-2.904.467-3.841-.147-1.738-1.138-11.142-2.357-11.142-1.443 0 .26 1.346 1.382 2.99 2.491 1.645 1.11 3.854 2.832 4.909 3.828 1.054.996 2.74 2.23 3.744 2.744 1.309.669 1.915 1.21 2.14 1.913.399 1.25-.176 3.25-1.327 4.618l-.855 1.016-.83-.83c-1.83-1.83-5.316-.507-5.862 2.225-.183.915-.352 1.047-1.34 1.047-2.55 0-3.236-.779-3.915-4.443-.521-2.815-4.887-9.918-5.635-9.17-.079.079.159 1.112.528 2.297.897 2.883 1.207 6.44.695 7.99-.576 1.745-5.052 5.718-6.441 5.718-.963 0-1.014-.07-.98-1.365zm85.85-12.731c-.804-1.701-.896-2.218-.692-3.855.536-4.287 4.954-7.287 6.966-4.73 1.463 1.861.673 3.782-2.034 4.946-2.121.913-2.39 1.25-2.899 3.647l-.415 1.956-.927-1.964zm-52.316-1.494c-.464-2.763-.623-2.99-2.846-4.061-2.444-1.178-2.776-1.572-2.783-3.307-.01-2.476 2.815-3.42 5.113-1.706 2.122 1.581 3.023 5.068 2.051 7.94-.827 2.444-1.26 2.764-1.535 1.134zm112.583-3.846c-.648-2.162-1.604-2.998-3.764-3.29-2.354-.318-2.852-.592-3.377-1.86-.9-2.175.247-3.779 2.704-3.779 3.418 0 6.213 3.846 5.669 7.8-.34 2.472-.724 2.824-1.232 1.13zm-172.164-4.657c-.586-2.065-.47-3.578.424-5.495 1.74-3.738 5.84-5.035 7.57-2.395 1.273 1.943-.278 4.045-3.278 4.443-2.044.27-3.102 1.205-3.845 3.391l-.482 1.423-.389-1.367zm132.72-1.31c-.752-.247-1.942-.822-2.645-1.278-1.173-.762-1.277-.96-1.281-2.43l-.004-1.6-4.016-2.476c-6.984-4.306-13.849-9.053-16.174-11.184-1.236-1.132-3.066-3.243-4.067-4.691-1.804-2.61-1.815-2.64-1.233-3.527 1.75-2.666 3.045-6.078 3.196-8.413.147-2.265.082-2.533-1.214-5.032-1.446-2.79-2.174-3.807-6.059-8.467-1.331-1.598-3.167-3.905-4.078-5.127-.91-1.222-3.016-3.606-4.678-5.3l-3.02-3.078 2.256-2.39c3.57-3.778 11.806-14.642 13.989-18.45.297-.518.567.1 1.504 3.443.629 2.24 1.634 5.15 2.235 6.466 1.607 3.521 8.055 12.3 13.055 17.776 7.229 7.916 7.932 9.043 8.215 13.16.295 4.307-1.402 10.107-4.449 15.2l-1.226 2.051 2.056 3.927c4.072 7.778 5.026 8.834 12.593 13.928 4.229 2.847 5.739 4.52 5.182 5.74-.696 1.528-1.95 2.01-5.493 2.108-2.027.057-3.799-.08-4.644-.357zm-104.58-2.91c-1.13-.534-2.874-1.725-3.876-2.648-1.596-1.467-1.846-1.877-2.005-3.288-.156-1.389-.036-1.837.87-3.25l1.052-1.639-1.227-3.243c-1.56-4.121-1.825-7.867-.967-13.657.561-3.783 1.712-9.541 1.944-9.728 1.006-.81 1.511-.768 2.636.219 1.054.925 1.339 1.012 2.717.823 1.745-.24 4.211-1.561 4.992-2.675.287-.411.855-1.754 1.261-2.985.604-1.828 1.082-2.557 2.614-3.98 1.71-1.59 1.89-1.896 2.043-3.501.223-2.316-.215-2.842-2.262-2.714-2.327.145-2.558-.531-2.103-6.162.429-5.307.887-6.958 2.864-10.316 2.694-4.575 5.943-7.25 9.768-8.042l1.179-.244-.965.83c-.74.636-1.137 1.504-1.698 3.706l-.731 2.875-2.812 2.356c-2.972 2.49-3.235 2.953-3.68 6.477-.157 1.247-.607 2.164-1.892 3.862-.928 1.226-1.686 2.282-1.686 2.348 0 .187 3.536-.781 4.833-1.324 1.915-.8 2.434-1.632 2.495-4.007.06-2.335.009-2.27 3.266-4.159 1.598-.926 2.046-1.423 2.987-3.311 1.338-2.687 4.074-5.468 5.377-5.468 1.045 0 2.588.733 3.269 1.554.42.505.349.68-.593 1.475a20.862 20.862 0 0 1-2.21 1.59c-.765.462-1.59 1.53-2.508 3.246l-1.367 2.558-1.88.089c-3.566.168-4.093.575-4.949 3.82-.523 1.984-.411 2.083.92.807.918-.879 1.036-.903 2.412-.506 6.441 1.858 7.92 1.448 9.647-2.672.854-2.04 1.096-2.326 2.614-3.1 1.779-.908 2.836-.839 3.685.241 1.117 1.42.918 2.11-.825 2.857-1.658.711-4.677 2.842-5.875 4.147-.409.446-1.08 1.713-1.492 2.815l-.747 2.005-1.413-.271c-5.978-1.148-8.994.77-8.656 5.504.196 2.747.896 4.008 2.7 4.861 1.695.802 1.847.766 1.274-.304-.503-.94-.5-2.123.011-4.02.351-1.302.467-1.406 1.556-1.406.647 0 2.221.179 3.498.398 1.277.219 2.733.294 3.236.168 1.247-.313 4.86-3.722 6.254-5.9 1.436-2.244 2.39-2.617 3.474-1.355.925 1.075.96 1.557.257 3.576-.658 1.889-1.95 3.465-4.273 5.21-1 .752-3.017 2.585-4.482 4.073-2.526 2.567-2.975 2.86-8.734 5.673-5.121 2.503-6.366 3.265-7.961 4.874-3.493 3.525-6.688 9.131-9.6 16.85-.918 2.43-1.668 4.574-1.668 4.764 0 .19 1.475 1.977 3.278 3.971 3.697 4.09 3.68 3.8.31 5.406-2.237 1.065-3.656 1.03-6.155-.152zm158.747-31.91-1.538-.345 1.43-.561c2.553-1.002 3.187-1.705 3.426-3.802.382-3.343 3.089-4.903 5.07-2.922 1.007 1.007 1.062 2.225.188 4.15-.697 1.535-1.819 2.455-4.055 3.328-1.621.632-2.275.654-4.521.152zm-127.036-2.075c-.713-1.565-.847-3.218-.426-5.248.447-2.158.55-2.282 5.726-6.875 2.12-1.88 2.502-2.409 3.148-4.35.8-2.405.722-3.088-.527-4.572-.643-.764-1.03-.94-1.77-.81-1.075.19-2.668 1.54-3.343 2.831-.555 1.06-3.97 4.423-5.088 5.009-.66.346-1.387.322-3.881-.126-4.136-.743-4.709-.566-5.37 1.661-.289.972-.525 2.137-.525 2.588 0 1.013-.683.861-1.295-.288-.274-.514-.399-1.702-.33-3.138.093-1.95.249-2.449.998-3.198 1.091-1.092 3.387-1.428 5.569-.818 2.428.68 3.105.33 3.976-2.06.923-2.532 3.36-4.909 6.605-6.442 2.376-1.123 2.82-1.782 2.233-3.324-.907-2.385-2.472-2.943-5.094-1.815-1.858.8-2.578 1.616-3.594 4.076-.35.846-.935 1.807-1.301 2.136-.906.814-3.167.77-6.095-.12-1.3-.395-2.593-.63-2.873-.523-.653.25-.644-.12.025-1.075.453-.647.848-.76 2.668-.76 2.64 0 3.04-.282 4.61-3.255 1.017-1.925 1.622-2.613 3.296-3.747 1.839-1.245 2.05-1.51 2.05-2.562 0-.956-.217-1.32-1.175-1.966-1.47-.99-2.49-1.254-3.694-.955-1.304.323-4.419 3.629-5.252 5.574-.866 2.019-1.48 2.704-3.206 3.568-2.587 1.296-3.247 2.194-3.247 4.42 0 1.537-.152 2.114-.688 2.613-.616.574-3.066 1.555-3.3 1.322-.051-.051.29-.63.757-1.287.554-.779 1.014-2.14 1.32-3.912.45-2.612.532-2.77 2.097-4.084 4.114-3.453 4.212-3.583 4.918-6.448.781-3.176 1.327-3.841 4.537-5.528 2.232-1.173 2.546-1.245 4.899-1.126 2.255.114 2.912.328 6.377 2.078 4.384 2.214 6.172 3.75 7.35 6.308.714 1.555.77 1.951.445 3.16-.453 1.682-.184 2.282 1.69 3.767 2.181 1.727 2.558 4.851 1.136 9.408-1.294 4.145-2.96 6.34-8.316 10.95-3.89 3.35-4.802 4.666-5.288 7.631-.333 2.026-.385 2.118-.752 1.312zm-32.631-3.745c-.299-.235-1.181-1.57-1.962-2.965-1.64-2.935-1.932-3.2-4.46-4.057-1.49-.505-2.183-1.007-3.333-2.417-.799-.978-1.452-2.117-1.452-2.53 0-.58.275-.344 1.197 1.026 1.514 2.248 2.085 2.547 4.356 2.28 1.604-.189 1.98-.106 3.16.694 1.048.711 1.67.887 2.857.808 1.999-.134 2.53-.897 1.546-2.225-1.315-1.775-2.762-2.49-5.05-2.495-2.287-.006-2.647-.146-3.23-1.254-.59-1.119-.504-1.175.828-.54 1.205.575 1.245.57 3.043-.403l1.821-.985 1.742 1.252c2.041 1.466 2.215 1.495 2.918.492.798-1.14.67-1.56-.96-3.144-2.094-2.035-3.46-5.716-2.609-7.033.282-.436.332-.421.337.097.008.897 1.523 3.722 2.449 4.564.441.402 1.454 1.057 2.25 1.457.975.49 1.673 1.168 2.137 2.078.843 1.65 1.594 2.089 3.152 1.836 1.44-.234 1.753.282 1.26 2.071-.213.767-.85 1.63-1.724 2.332-1.526 1.227-2.161 2.26-2.886 4.7-.264.89-.815 2.043-1.223 2.563-1.398 1.776-4.895 2.797-6.164 1.798zm169.578-.135c0-2.19-2.625-3.68-4.847-2.752-1.193.498-1.237.49-1.607-.324-.668-1.467-.46-2.634.644-3.603 1.137-.997 1.195-1.399.553-3.834-.267-1.015-.345-2.208-.196-3.022.461-2.52-.063-3.433-2.292-3.994-1.044-.263-1.874-.759-2.468-1.474-3.124-3.765-3.357-3.838-7.9-2.478-2.723.815-5.183 1.06-6.664.662-.585-.157-.667-.42-.569-1.82.104-1.483.013-1.722-.966-2.546-.594-.5-1.453-.91-1.909-.91-1.042 0-1.071-.69-.137-3.187 1.22-3.263 2.562-3.777 8.962-3.435l4.234.227.96 1.834c2.032 3.881 4.965 5.662 9.271 5.629 3.83-.03 5.803-1.374 6.454-4.4.218-1.012.353-1.11 1.517-1.11 3.203 0 7.064-1.77 8.635-3.958 1.429-1.989 2.489-2.536 4.916-2.536 2.124 0 4.002.72 4.78 1.83.699.998.636 1.93-.13 1.93-1.893 0-2.703 3.91-1.152 5.56.86.916.757 1.102-1.122 2.045-.754.378-1.713.469-3.615.343-3.27-.215-9.979 1.065-9.815 1.874.062.305 1.627.994 4.031 1.773 2.162.701 4.93 1.762 6.152 2.358 1.222.596 2.634 1.083 3.139 1.083 1.644 0 2.68.623 3.23 1.938.572 1.37.413 3.689-.322 4.694-.388.53-.5.532-1.526.02-2.252-1.123-4.582.547-4.72 3.382-.065 1.358-.126 1.43-1.622 1.894-2.032.631-2.926.082-4.301-2.641-.617-1.223-1.845-2.77-3.215-4.052-4.78-4.47-6.377-5.02-3.845-1.322 1.743 2.546 2.93 5.502 2.929 7.293 0 .85-.408 1.944-1.237 3.318-.68 1.127-1.356 2.366-1.503 2.752-.337.886-2.727 1.727-2.727.96zm18.167-1.208c.805-2.12.667-2.836-.907-4.72-1.52-1.82-1.577-3.095-.2-4.472 1.097-1.096 1.604-1.2 2.924-.599 3.38 1.54 3.139 7.66-.41 10.37-.858.655-1.677 1.191-1.82 1.191-.143 0 .043-.796.413-1.77zm-50.16-13.637c-1.723-2.912-1.766-6.221-.112-8.543 2.148-3.017 6.132-2.571 6.132.687 0 1.566-.466 2.121-2.748 3.278-2.024 1.025-2.104 1.152-2.35 3.727l-.2 2.075-.723-1.224zm-89.51-1.256c.466-1.196.62-6.446.225-7.642-.225-.68-1.044-1.733-1.92-2.465l-1.528-1.277.206-1.968c.414-3.957-2.111-6.967-8.518-10.155-3.473-1.728-4.25-1.984-6.472-2.126-2.061-.133-2.773-.038-3.873.517-.741.373-2.27.84-3.398 1.036-5.11.89-8.403 3.143-11.49 7.864-1.96 2.997-2.98 5.598-3.265 8.32-.116 1.114-.308 2.085-.427 2.158-.504.311-6.26-4.006-9.531-7.149-9.188-8.828-15.176-19.014-18.185-30.938-2.632-10.428-3.34-19.136-2.193-26.956 1.002-6.826 3.859-20.404 5.101-24.247 2.997-9.27 9.844-20.341 18.744-30.307 7.232-8.097 11.878-12.33 21.075-19.195 3.289-2.455 7.826-6.15 10.081-8.21 4.077-3.722 14.447-14.44 17.13-17.706 5.513-6.707 10.395-17.023 13.465-28.454.618-2.304 1.166-4.148 1.217-4.097.273.273-.607 14.211-1.061 16.817-.836 4.79-6.838 19.107-11.182 26.67-7.445 12.964-18.952 27.328-27.13 33.866-5.874 4.696-10.104 10.894-14.869 21.79-5.674 12.972-7.534 21.32-7.591 34.054-.035 7.797.286 10.002 2.327 15.976 4.145 12.135 9.758 20.198 16.312 23.432 6.062 2.99 12.18 3.076 17.875.25 3.297-1.636 5.557-3.529 7.328-6.138 2.815-4.145 2.895-4.994 1.334-14.284-2.315-13.782-1.292-20.18 5.662-35.388 7.423-16.235 21.276-29.181 35.572-33.243 4.614-1.311 8.067-1.645 14.746-1.426 16.533.543 24.922 4.094 38.192 16.169 8.105 7.375 12.383 10.577 15.277 11.434 1.836.544 5.161.42 7.198-.268 4.557-1.538 10.527-5.989 12.091-9.013 1.276-2.466-.192-7.478-3.187-10.88-3.762-4.275-9.518-7.847-25.025-15.533-15.854-7.857-21.558-11.567-28.702-18.666-7.638-7.59-11.972-15.155-14.835-25.899-1.873-7.024-1.869-12.652.013-18.621 2.895-9.186 8.548-15.168 19.432-20.562 5.29-2.621 13.381-5.606 13.815-5.095.135.159 1.268 1.846 2.518 3.75 2.557 3.893 7.381 8.732 10.682 10.713 1.088.654 3.58 1.823 5.537 2.599l3.559 1.41-1.614.221c-2.934.403-3.406.28-6.32-1.649-4.51-2.985-7.413-4.062-10.93-4.056-2.366.004-3.269.164-4.78.85l-1.861.845 3.324 1.145c5.088 1.754 6.506 2.698 8.391 5.586.885 1.356 2.133 3.694 2.774 5.195.64 1.5 1.539 3.239 1.996 3.862.457.623.765 1.2.684 1.28-.08.08-2.056.44-4.392.802-5.682.878-6.794 1.304-7.731 2.961-1.394 2.463-1.355 3.536.244 6.608 3.243 6.235 9.196 10.608 25.633 18.832 11.051 5.528 14.183 7.25 19.026 10.456 13.647 9.036 21.686 19.852 24.356 32.772 2.16 10.445 1.65 17.235-1.848 24.648-3.506 7.429-8.346 12.813-16.251 18.08-3.069 2.044-8.756 5.27-9.313 5.282-.81.018-.08-1.733 1.277-3.066 1.747-1.714 2.224-2.867 2.295-5.546.038-1.475-.145-2.217-.843-3.407-.924-1.578-3.103-3.354-4.114-3.354-.454 0-.581-.317-.586-1.453-.008-1.916-1.554-4.969-3.018-5.955-1.439-.97-3.905-1.344-5.697-.865a5.691 5.691 0 0 1-2.743.059c-.743-.172-2.95-.317-4.905-.322l-3.554-.008-1.13-1.163c-2.329-2.398-6.413-3.682-8.898-2.796-.646.23-.796.066-1.286-1.409-.79-2.38-1.428-3.14-3.41-4.063-2.398-1.117-3.838-1.058-5.791.236-2.133 1.413-2.229 1.677-.609 1.677 2.144 0 4.695.661 5.353 1.387.421.466.672 1.552.848 3.675.182 2.195.504 3.55 1.185 4.992.977 2.064 1.032 4.457.127 5.546-1.24 1.494-4.647-.687-5.427-3.472-.863-3.084-4.613-5.062-9.293-4.903-1.716.059-2.808-.053-3.07-.315-.224-.224-.473-1.33-.555-2.457l-.148-2.05-.652.829c-2.212 2.813-1.99 6.692.52 9.035.81.758 1.036.799 3.022.55 1.18-.15 2.685-.287 3.343-.307 1.282-.039 1.206-.195 1.335 2.721.084 1.88 5.48 8.691 6.885 8.691.794 0 1.244.623 1.521 2.107.363 1.938-.589 2.26-2.673.904-1.318-.857-2.24-1.127-5.145-1.506-4.448-.58-4.96-.78-6.473-2.547-1.175-1.373-1.338-1.869-1.684-5.11-.087-.815-.133-.793-1.03.507-.516.749-.938 1.787-.938 2.307 0 1.28-.218 1.21-2.21-.715-2.975-2.875-7.196-6.325-9.225-7.54-5.397-3.235-15.442-4.016-19.965-1.553-6.838 3.723-11.363 9.939-13.058 17.936-.768 3.627-.866 6.061-.664 16.399.123 6.301-2.634 19.698-5.03 24.435-1.595 3.156-9.084 13.265-13.239 17.871-3.183 3.53-8.215 7.162-12.598 9.094-1.717.757-1.968.797-1.77.287zm148.656-8.493c-1.091-2.136-1.146-2.168-4.685-2.705-.705-.107-1.574-.507-1.93-.89-1.976-2.12-.152-5.16 2.767-4.612 3.754.705 6.252 5.306 5.104 9.403-.206.739-.327.624-1.256-1.196zm-34.501-1.457c-2.955-.771-4.648-2.266-6.38-5.634-.57-1.11-.642-1.702-.45-3.76.222-2.37.182-2.549-1.372-6.2-2.831-6.65-4.266-8.555-8.463-11.24-2.729-1.746-2.746-1.783-2.316-4.883.295-2.124 1.823-9.798 2.93-14.72.117-.522.423-.768.955-.768 2.287 0 2.736-1.982 2.27-10.021-.187-3.229-.244-6.563-.126-7.409.55-3.95 4.448-9.257 7.142-9.724 1.952-.338 2.819-1.015 3.283-2.564.376-1.256.517-1.371 1.927-1.583 1.437-.215 5.186.015 6.81.42.642.159.717.354.55 1.435-.479 3.1-2.584 5.444-5.877 6.545-2.627.878-3.158.776-5.443-1.044-1.876-1.493-2.076-1.39-1.232.631 1.261 3.018 3.281 4.047 7.241 3.688 3.198-.29 5.869-1.273 7.045-2.593 1.018-1.143 1.496-1.245 2.462-.527.656.488.656.508-.02 1.781-.988 1.86-3.235 3.451-5.21 3.688-4.284.514-5.68 1.214-7.35 3.685-1.098 1.626-1.202 3.19-.42 6.258.82 3.205.863 3.217 1.67.449 1.348-4.625 2.567-5.579 6.996-5.472 2.284.054 2.668-.037 4.074-.968 1.847-1.223 1.788-1.217 2.928-.32 1.169.92 1.137 1.469-.267 4.547-.982 2.157-1.382 2.67-2.534 3.258-2.438 1.244-3.561 4.01-2.79 6.872.335 1.246.26 1.515-1.185 4.187-2.184 4.038-2.931 6.416-3.16 10.047-.375 5.964 1.421 19.037 3.385 24.632 1.066 3.039 1.09 3.216.606 4.614-.383 1.108-.804 1.6-1.775 2.075-1.447.707-4.384 1.015-5.904.618zM146.086 288.45c-6.52-2.315-10.592-6.476-14.968-15.296-2.196-4.427-3.961-9.062-5.073-13.32-.733-2.811-.8-3.753-.784-10.936.033-13.605 1.894-21.665 8.193-35.477 4.59-10.063 8.641-15.78 14.341-20.238 2.644-2.067 5.775-5.14 8.957-8.79 1.598-1.833 3.023-3.333 3.166-3.333.373 0 1.158 4.228.81 4.364-5.183 2.031-5.77 2.362-6.52 3.687-.957 1.69-.974 2.799-.06 3.773l.715.76-2.68.576c-5.307 1.14-4.716.674-4.828 3.818l-.099 2.754-1.572.216c-.865.119-2.128.218-2.807.22-2.09.01-2.257.287-2.27 3.784l-.012 3.13-1.697.846c-2.398 1.194-2.552 1.49-2.552 4.924v2.99l-2.306 1.95c-2.417 2.044-2.713 2.475-2.824 4.103-.148 2.162-.003 2.518 1.392 3.441l1.387.918-3.267 3.28c-1.797 1.803-3.262 3.43-3.257 3.615.006.184.848.97 1.87 1.744l1.86 1.409-2.419 3.823c-1.33 2.103-2.344 3.899-2.252 3.99.092.092 1.266.26 2.61.372 1.344.113 2.521.33 2.615.482.095.153-.766 3.358-1.913 7.122-1.147 3.765-1.991 6.997-1.876 7.182.208.337 3.341 1.38 4.144 1.38.234 0 1.148-.552 2.032-1.226l1.607-1.227-.238 2.68c-.146 1.641-.7 4.002-1.43 6.096a433.279 433.279 0 0 0-1.371 3.973c-.163.501.285.538 4.521.377l4.702-.18-.785 1.27c-1.407 2.276-2.187 4.109-2.195 5.154-.008 1.059 2.08 5.98 2.537 5.98.141 0 .567-.525.946-1.167.494-.837 1.391-1.514 3.17-2.39 1.363-.672 2.513-1.184 2.553-1.139.041.046.529 1.09 1.083 2.319 1.018 2.255 1.899 3.161 5.139 5.282.802.525 1.511.894 1.575.82.063-.075-.224-1.635-.638-3.468-.502-2.22-.628-3.348-.379-3.38.206-.025 2.874-.14 5.93-.255l5.554-.21-4.299-2.69-4.299-2.69 1.65-1.182c1.643-1.179 5.367-3.026 6.848-3.397.43-.108.78-.295.78-.416s-1.92-1.348-4.269-2.727c-2.348-1.378-4.35-2.635-4.448-2.794-.097-.158 1.555-1.323 3.672-2.589 2.117-1.265 3.922-2.361 4.01-2.435.276-.23-1.377-3.074-2.652-4.564-.67-.782-1.822-1.679-2.56-1.992l-1.34-.57 3.367-3.045a351.393 351.393 0 0 1 3.614-3.244c.136-.109-.821-1.425-2.128-2.924-1.306-1.499-2.377-2.802-2.38-2.896-.003-.094 1.34-.907 2.985-1.806 1.644-.9 3.887-2.143 4.983-2.765l1.994-1.13-3.433-2.874-3.434-2.874 1.779-.803c1.669-.753 2.997-1.058 7.308-1.677l1.77-.254-1.146-2.467c-1.183-2.548-2.308-3.594-4.345-4.042-.525-.115-.954-.4-.954-.631 0-.552 1.608-2.043 2.911-2.7 1.322-.665 6.736-2.404 10.19-3.273 1.474-.37 2.74-.734 2.813-.808.074-.073-1.714-.952-3.973-1.951-2.26-1-4.056-1.973-3.993-2.162.186-.557 4.379-2.963 5.88-3.375.873-.239 3.025-.306 5.86-.181l4.48.196.217-2.29c.119-1.259.217-3.404.219-4.767 0-1.363.081-2.478.178-2.478.097 0 2.017.923 4.267 2.051 2.25 1.128 4.234 2.05 4.41 2.05.175 0 .578-.778.894-1.729.662-1.994.522-3.185-.7-5.947-.973-2.202-1.035-2.17 2.676-1.346 2.737.608 4.312 1.418 7.608 3.913 1.23.93 2.293 1.692 2.364 1.692.07 0 .304-.847.52-1.883.418-2.015 1.384-3.422 2.954-4.302l.975-.547 3.375 3.537 3.375 3.537-4.059.006c-11.97.017-22.004 4.06-32.151 12.951-9.291 8.141-16.705 20.221-21.593 35.183-1.754 5.368-2.242 12.683-1.27 19.014l1.223 7.965c.693 4.512.71 4.99.223 6.208-1.654 4.133-4.994 7.57-9.442 9.716-2.842 1.37-2.993 1.403-7.006 1.499-3.773.09-4.32.02-6.835-.873zm204.957.61c-3.585-.85-6.2-4.68-5.221-7.645.682-2.068 3.307-2.414 4.9-.647.488.543.59 1.16.513 3.08-.11 2.682.184 3.24 2.3 4.38.654.351 1.189.758 1.189.903 0 .328-2.18.286-3.68-.07zm31.257-8.964.202-2.293-1.302-1.124c-2.395-2.069-2.554-2.288-2.554-3.532 0-2.484 2.627-3.708 4.61-2.148 2.835 2.23 2.922 6.867.186 9.9l-1.344 1.49.202-2.293zm-39.19-.986c-2.4-3.038-2.238-4.331 1.176-9.332 1.193-1.747 2.493-3.812 2.89-4.588 1.198-2.35 2.031-2.564 6.03-1.55 3.82.97 4.352.873 6.754-1.236 2.904-2.55 2.997-8.575.172-11.127l-1.364-1.232.4-1.67c.597-2.483.503-4.42-.297-6.141-.88-1.893-.897-2.854-.082-4.614.792-1.71 2.231-3.047 3.828-3.556 1.792-.572 2.32-.244 2.296 1.43-.016 1.17.169 1.575 1.096 2.403.986.881 1.308.978 2.775.837l1.66-.16v1.647c0 1.324-.192 1.867-.98 2.77-.538.617-1.293 1.743-1.677 2.501-.758 1.494-3.153 8.187-3.153 8.809 0 .21.73-.316 1.624-1.167 2.742-2.615 5.642-4.936 7.433-5.95.94-.532 2.374-1.71 3.187-2.617 1.15-1.282 1.71-1.65 2.512-1.65 1.358 0 3.209.9 4.05 1.97.888 1.128.85 1.6-.163 2.061-1.284.585-1.792 2.848-.959 4.275.49.84 1.87 1.92 2.727 2.137.24.06-.73 2.799-1.143 3.227-.352.366-1.595.575-4.328.73-4.347.248-10.497 1.93-10.497 2.873 0 .415.408.465 2.323.287 2.921-.271 6.874.372 8.35 1.36.615.41 1.588 1.629 2.163 2.707.574 1.078 1.228 2.143 1.452 2.367.427.427.543 1.913.215 2.767-.158.41-.413.434-1.391.134-2.112-.648-4.226 1.048-4.226 3.39 0 .66-.14.82-.598.683a37.05 37.05 0 0 0-1.547-.404c-1.004-.24-1.615-1.042-1.615-2.123 0-.942-1.002-1.713-3.002-2.307-.962-.286-2.18-.877-2.706-1.314-1.097-.913-2.285-1.58-2.812-1.58-.2 0-.972.55-1.716 1.221-1.155 1.044-1.714 1.272-3.835 1.566-1.366.19-2.77.498-3.12.686-.67.358-1.926 2.79-1.939 3.752-.018 1.322-1.428 4.999-2.332 6.08l-.98 1.174-.997-.69c-.547-.381-1.253-.785-1.568-.898-.866-.311-2.979.386-3.449 1.139-.637 1.02-1.141.815-2.636-1.077zm-23.757-13.17c-4.218-.649-5.108-1.321-5.965-4.509-.219-.813-1.542-3.16-2.94-5.215-1.4-2.056-2.544-3.869-2.544-4.03 0-.16 1.192-.984 2.649-1.832 4.095-2.382 8.119-5.518 11.56-9.01l3.141-3.188.758 3.32c1.326 5.81 2.892 8.32 6.271 10.044 1.274.65 1.58.675 3.64.307 2.598-.464 3.5-.315 9.744 1.61 3.331 1.026 4.638 1.264 6.96 1.267l2.858.004 1.157-1.339c.637-.736 1.157-1.543 1.157-1.794 0-.764.839-.512 1.969.593 2.572 2.515 1.722 8.556-1.467 10.425l-1.61.944-3.12-.746c-1.716-.41-3.35-.743-3.632-.738-.282.005-2.035.621-3.897 1.37-5.184 2.083-7.651 2.45-17.291 2.57-4.605.057-8.834.033-9.398-.053zm-26.499-3.412c-.862-2.611.104-5.108 2.435-6.298 1.2-.612 1.567-1.098 2.73-3.626 1.599-3.479 1.628-3.887.382-5.281-1.194-1.337-2.337-1.386-4.164-.177-1.172.776-1.715.897-4.024.897-3.7 0-5.395.86-6.573 3.331-.47.986-.97 1.794-1.11 1.795-.142 0-.257-.865-.257-1.924 0-3.535 1.882-5.442 5.903-5.986 3.755-.507 5.794-1.698 7.297-4.264 1.03-1.756.72-2.931-.924-3.504-.605-.21-1.154-.384-1.22-.384-.065 0-.713.538-1.44 1.195-1.897 1.713-3.546 2.293-7.07 2.483-2.985.162-3.126.136-4.1-.75-.757-.69-.823-.828-.263-.556 3.822 1.855 11.044-3.002 11.044-7.426 0-.69.247-1.114.83-1.426 1.16-.62 4.421-.303 5.592.545 1.281.927 2.858 4.131 2.64 5.365-.23 1.31.348 2.28 1.362 2.28 1.198 0 3.106 1.83 3.799 3.644.932 2.44.312 4.793-1.872 7.102-1.657 1.752-1.68 1.804-1.692 4.032-.015 2.657-.427 3.594-1.698 3.869-3.11.672-5.562 1.597-6.04 2.28-.298.425-.528 1.467-.528 2.387 0 1.939-.47 2.118-1.039.397zm-27.104-3.284c-1.502-.815-2.335-1.58-3.354-3.08-1.798-2.649-3.407-3.747-7.391-5.05-4.92-1.61-6.634-3.713-6.518-8.001.025-.954.116-1.362.201-.909.194 1.026 1.456 3.032 2.53 4.022 1.164 1.072 2.19 1.382 5.968 1.804 2.756.307 3.638.555 4.938 1.39 2.578 1.654 4.09 1.235 4.082-1.132-.007-1.963-.628-3.05-1.937-3.388-1.25-.323-3.535-2.83-5.391-5.913-.942-1.564-1.21-2.377-1.21-3.661 0-2.282-.74-2.613-4.131-1.847-2.746.62-3.475.413-4.602-1.305-.687-1.049-1.07-4.451-.538-4.78.244-.151.385.062.385.584 0 1.577 1.06 2.079 3.883 1.84 2.186-.185 2.81-.1 4.684.635 2.593 1.016 3.938 2.215 4.23 3.773.646 3.443 5.396 5.83 7.083 3.56.968-1.304.93-4.724-.072-6.398-.566-.945-.844-2.136-1.048-4.487-.39-4.478-1.007-5.235-4.749-5.82l-1.537-.24 1.116-.593c2.214-1.176 5.634.551 6.67 3.369.885 2.403 1.67 3.135 2.81 2.616 1.446-.66 3.009-.467 5.234.645 4.544 2.271 4.705 5.39.341 6.614-2.321.651-4.332 2.712-6.15 6.302l-1.136 2.245v8.727c0 4.8-.124 8.918-.276 9.153-.465.718-2.016.464-4.115-.675zm125.159-5.493-1.579-1.643-2.543.23-2.543.23-.92-1.092c-1.862-2.214-.604-4.458 2.5-4.458 2.11 0 3.248.548 4.876 2.351 1.29 1.428 2.072 3.54 1.892 5.108-.104.911-.114.907-1.683-.726zm-24.146-15.847c-.731-.294-1.476-2.094-1.245-3.011.296-1.181 2.25-2.809 3.906-3.255 2.529-.68 5.797.304 7.589 2.287.573.634.531.647-1.637.509l-2.224-.142-1.781 1.923c-1.535 1.657-1.947 1.92-2.977 1.893-.658-.016-1.392-.108-1.63-.204zm-87.737-13.357c-3.24-1.174-6.354-3.51-14.182-10.64-12.594-11.471-20.932-15.51-34.403-16.67-3.63-.312-3.689-.44-1.31-2.863 1.128-1.148 2.435-2.287 2.905-2.53.855-.443 4.101-1.048 4.101-.765 0 .083-.23.699-.51 1.369-.594 1.424-.434 2.033.736 2.8.873.572 5.007 2.216 5.572 2.216.172 0 1.026-.926 1.897-2.058l1.584-2.058 1.385.777c1.969 1.103 3.053 2.575 4.214 5.719.557 1.509 1.132 2.744 1.278 2.745.146 0 1.316-.528 2.6-1.175l2.337-1.176 1.129 1.165c1.046 1.08 1.14 1.365 1.288 3.91.087 1.51.279 2.746.426 2.746.147 0 1.212-.294 2.366-.654l2.099-.653.775 1.764c.427.97 1.372 3.207 2.1 4.97l1.325 3.207 1.14-2.505c.626-1.378 1.211-2.578 1.3-2.667.255-.255 1.814 1.337 2.87 2.933.53.8 1.479 2.919 2.107 4.707.63 1.788 1.261 3.251 1.405 3.251.144 0 .82-1.115 1.502-2.478.682-1.362 1.304-2.546 1.382-2.63.078-.084 1.405 1.103 2.95 2.638 2.052 2.039 2.939 2.71 3.29 2.492.41-.256.398-.596-.085-2.32-.312-1.11-.567-3.232-.567-4.716v-2.697l1.505 1.476c2.099 2.06 3.593 2.21 6.973.7 1.37-.613 2.367-1.216 2.218-1.34-.15-.125-1.4-.67-2.777-1.21-1.99-.78-3.01-1.467-4.956-3.343l-2.45-2.361 1.423-.497c2.332-.814 2.254-2.51-.146-3.177-1.736-.482-2.926-.424-5.6.274l-2.273.593-.734-3.774c-.404-2.076-.802-3.974-.885-4.22-.1-.295-.87.137-2.285 1.282-1.174.95-2.224 1.727-2.334 1.727-.11 0-.468-.854-.797-1.898-.456-1.448-1.134-2.466-2.863-4.299l-2.266-2.401-1.091 2.163c-2.127 4.216-3.203 4.363-4.567.625-1.78-4.876-2.77-6.153-7.41-9.558l-1.413-1.036-1.236 1.368c-1.366 1.513-1.483 2.163-.719 3.993.285.68.462 1.293.394 1.361-.179.179-5.018-3.05-6.09-4.062-1.298-1.227-1.864-2.487-2.5-5.567-.308-1.492-.59-2.741-.627-2.777-.037-.036-1.039-.266-2.227-.51-2.433-.502-3.686-.116-4.328 1.333-.517 1.165-.79.932-1.414-1.205-.564-1.93-.403-4.712.385-6.661.163-.404.048-.67-.357-.825-.436-.167-1.048.243-2.26 1.514l-1.664 1.743-.623-1.26c-.864-1.746-2.002-4.753-2.42-6.39-.266-1.045-.229-1.77.155-3.045.277-.92.504-2.183.504-2.806v-1.131l-1.267.86c-1.084.735-1.516.83-2.99.656-1.622-.191-1.8-.133-3.005.992l-1.282 1.196.003-.923c.005-1.717.708-5.28 1.253-6.35.299-.586 1.293-2.103 2.21-3.372.918-1.269 1.551-2.301 1.408-2.295-.143.007-1.127.22-2.186.473-2.454.587-3.269.23-5.993-2.627l-1.981-2.076 1.966-.656c2.399-.8 3.387-1.973 4.545-5.396.454-1.342.826-2.568.826-2.725 0-.156-.836-.389-1.858-.516-1.577-.197-2.131-.102-3.673.63-.999.475-1.86.819-1.915.764-.055-.055.196-.62.559-1.254.363-.634.916-1.951 1.23-2.926.63-1.956 2.27-3.686 4.634-4.893 1.535-.783 1.536-.79.326-3.616-.522-1.22-.786-1.437-2.086-1.719l-1.489-.322 1.505-1.102c1.91-1.399 3.821-1.913 6.108-1.645 2.265.266 2.839-.489 1.243-1.635-1.638-1.175-3.74-3.22-3.528-3.433.11-.109 2.157-.734 4.552-1.39 4.153-1.14 10.796-3.957 10.796-4.581 0-.55-2.782-3.164-3.841-3.61l-1.055-.443.825-.469c.617-.351 2.581-.479 7.83-.508 4.744-.027 7.667-.197 9.053-.526l2.047-.487-2.73-1.635c-1.502-.9-3.423-2.254-4.269-3.01l-1.538-1.375 1.196.202c1.407.238 8.94.876 10.426.884.852.004 1.189.272 1.965 1.557.516.854.937 1.603.937 1.664 0 .062-.938.375-2.084.697-6.185 1.735-15.153 6.152-20.234 9.966-9.893 7.425-14.368 19.534-11.837 32.033 2.535 12.523 8.662 23.133 18.324 31.738 6.46 5.752 12.316 9.39 26.027 16.173 14.74 7.291 19.142 9.901 23.478 13.92 2.671 2.476 3.986 4.593 4.782 7.698.695 2.714.26 3.807-2.652 6.675-4.94 4.862-11.614 7.304-15.811 5.784zm98.945-29.805c-1.296-1.82-1.813-4.308-1.636-7.872.208-4.192.746-5.292 4.928-10.082 3.27-3.745 4.893-6.408 4.897-8.03 0-.47-.47-2.068-1.047-3.551-1.196-3.074-1.225-2.873 1.223-8.361 1.564-3.507 1.484-4.485-.582-7.103a103.878 103.878 0 0 1-2.58-3.423l-1.11-1.563-.004-4.66c-.003-2.563-.1-5.237-.216-5.942-.173-1.044-.108-1.282.346-1.282.713 0 .7-.274-.076-1.546-1.193-1.956-1.499-3.401-1.042-4.927.229-.763.51-1.387.625-1.387.115 0 1.129 1.807 2.253 4.016l2.043 4.015.003 5.297c0 2.914.145 5.605.32 5.98.174.377 1.327 2.206 2.56 4.067 2.81 4.233 2.894 5.202.884 10.117-1.61 3.936-1.67 5.262-.38 8.281l.984 2.3-.61 1.63c-.475 1.272-1.61 2.624-5.17 6.161-2.908 2.889-4.871 5.141-5.414 6.212-1.599 3.155-1.942 9.229-.661 11.705.649 1.255.374 1.229-.537-.052zm-213.07-20.44c.33-.512 1.013-1.47 1.519-2.127 1.687-2.193 5.867-8.6 7.987-12.243l2.095-3.6 2.945-.713c2.988-.724 4.304-1.45 9.671-5.338 2.146-1.554 2.159-1.47.186 1.218-1.964 2.676-10.564 10.35-18 16.062-.978.752-1.785 1.482-1.793 1.623-.033.582 2.664.189 5.582-.813 3.131-1.075 5.49-2.467 8.941-5.279 1.026-.836 1.866-1.396 1.866-1.244 0 .534-6.285 6.649-8.001 7.784-1.83 1.21-8.664 4.151-11.769 5.064l-1.828.538.599-.932zm-22.166-2.648c-3.052-3.676-6.557-10.75-6.321-12.76.09-.771.276-.588 1.462 1.447 1.475 2.53 4.802 5.886 6.75 6.811 1.201.57 2.656.776 2.656.376 0-.112-1.543-1.833-3.43-3.824-4.762-5.025-5.811-7.163-6.016-12.257l-.148-3.708 1.668 3.316c1.947 3.87 2.85 5.12 5.54 7.681 3.673 3.497 6.885 5.578 8.61 5.578.487 0-.168-.823-2.379-2.99-5.94-5.822-9.217-10.799-10.193-15.48-.283-1.356-.467-2.605-.41-2.776.057-.172.663.66 1.346 1.848 2.146 3.731 5.626 7.096 11.547 11.166 2.326 1.599 4.958 2.721 5.384 2.296.094-.094-1.114-1.531-2.684-3.194-5.397-5.714-7.918-8.912-10.751-13.635-.68-1.135-1.891-5.494-2.363-8.505-.201-1.29-.133-1.223 1.205 1.181 1.925 3.457 3.928 5.902 10.433 12.734 5.657 5.94 7.45 7.468 8.053 6.865.216-.216-.66-1.586-2.484-3.892-4.1-5.18-9.297-12.328-10.472-14.404-1.05-1.854-2.898-7.242-3.314-9.66-.212-1.233-.059-1.065 1.553 1.708 4.143 7.131 10.042 14.416 14.436 17.829 1.767 1.373 3.904 2.381 4.27 2.016.074-.075-1.958-2.694-4.518-5.819-5.228-6.383-7.011-9.01-9.644-14.197l-1.82-3.588.01-3.247.01-3.246 1.465 2.734c5.202 9.7 5.457 10.094 9.655 14.866 5.481 6.23 10.39 10.675 10.39 9.409 0-.114-1.394-1.931-3.098-4.04-1.703-2.107-4.443-5.83-6.087-8.274-2.791-4.148-3.065-4.715-4.124-8.544-.96-3.468-2.49-12.053-2.214-12.416.194-.256 1.522.69 1.863 1.328.202.378.587 1.936.856 3.464.831 4.73 2.78 7.882 9.359 15.14 4.038 4.455 6.417 6.537 7.17 6.274.188-.066-1.364-2.888-3.449-6.271-2.085-3.384-4.96-8.536-6.39-11.45l-2.6-5.296.093-5.402c.103-6.034-.16-7.128-2.301-9.567-1.275-1.452-1.186-1.527.679-.576 1.952.996 3.168 3.36 4.445 8.643 1.76 7.272 1.89 7.523 7.93 15.104 2.942 3.69 4.627 5.297 5.56 5.297.077 0-1.243-2.807-2.934-6.237-3.723-7.551-3.904-8.158-4.567-15.356-.563-6.113-.95-7.513-3.188-11.543-1.419-2.555-.803-2.27 1.465.678 2.784 3.617 5.598 9.838 8.69 19.21 1.126 3.415 2.03 4.98 2.654 4.594.232-.143.013-1.437-.629-3.728-.54-1.93-1.55-5.97-2.24-8.978-1.55-6.742-1.738-11.935-.626-17.258l.68-3.247.227 4.272c.321 6.018 2.531 14.856 4.061 16.24.913.827.934.707 1.147-6.67.332-11.522 2.585-22.376 5.858-28.23.673-1.203 1.27-2.187 1.326-2.187.056 0-.273 1.27-.732 2.82-.884 2.987-.904 5.27-.117 13.243.26 2.64.055 10.327-.49 18.283l-.21 3.076 1.03-1.196c1.42-1.65 3.406-5.049 3.802-6.51.181-.668.454-2.513.607-4.101l.277-2.888.412 1.81c.654 2.882.522 7.28-.29 9.692-.855 2.535-3.063 6.926-5.56 11.054-2.847 4.707-.831 4.256 4.017-.897 1.422-1.512 2.585-2.678 2.585-2.592 0 .086-.823 2.136-1.829 4.556-2.088 5.024-3.566 8.029-6.431 13.075-1.108 1.952-1.964 3.6-1.903 3.66.394.395 2.435-1.718 5.907-6.115 2.197-2.782 4.069-4.983 4.16-4.892.239.239-1.213 4.518-2.217 6.533-1.83 3.675-6.181 9.652-10.91 14.988-.81.914-1.472 1.798-1.472 1.965 0 .552 1.516.316 2.73-.424 2.647-1.614 9.562-7.552 10.682-9.173l.595-.863.003.783c.006 2.114-3.745 6.515-9.225 10.822-1.41 1.109-3.87 3.171-5.468 4.584a7914.533 7914.533 0 0 1-3.696 3.267l-.791.698.67-1.533c.368-.843 1.312-2.917 2.098-4.61 5.555-11.956 6.41-15.429 6.743-27.377.3-10.773-.273-11.747-2.277-3.876-2.988 11.733-6.85 20.746-11.902 27.78-2.257 3.143-11.099 12.652-17.015 18.3-4.32 4.125-10.961 9.626-11.57 9.584-.2-.013-.796-.544-1.324-1.18zm208.342-2.385c-.19-.376-.692-1.635-1.117-2.798l-.772-2.115-1.496.727c-.824.4-1.58.645-1.68.544-.408-.407-.202-3.615.307-4.805.3-.698.544-1.352.544-1.452 0-.349-1.397-.178-2.574.313l-1.185.495v-1.093c0-.601.319-1.613.706-2.25.9-1.474.483-1.925-1.148-1.243-1.06.443-3.318.73-3.318.422 0-.054.307-.702.683-1.44.376-.737.684-1.924.684-2.638v-1.297l-1.965 1.324c-2.253 1.518-5.143 2.237-4.698 1.17.44-1.06.926-3.555.73-3.751-.104-.104-1.197.214-2.429.707-1.612.646-2.861.897-4.457.897-1.22 0-2.218-.06-2.218-.132 0-.073.48-1.157 1.065-2.41.586-1.252 1.009-2.333.94-2.402-.07-.069-1.125.477-2.347 1.212-1.222.736-2.655 1.338-3.184 1.339h-.964l.793-1.06c1.896-2.537 1.888-2.52 1.134-2.23-3.089 1.192-4.283 1.254-6.946.36-3.838-1.289-3.842-1.295-1.657-2.296 2.204-1.009 2.762-2.101 1.844-3.613-.947-1.56-2.513-2.169-5.08-1.973-2.17.165-5.756-.47-8.154-1.442-.83-.337-.822-.347.29-.368.628-.012 1.628-.358 2.22-.768 1.171-.81 4.095-3.366 4.25-3.716.054-.12-1.1.006-2.561.278-2.138.399-3.01.417-4.454.094-.987-.221-1.795-.516-1.795-.655 0-.14.464-.699 1.032-1.243l1.033-.989-1.63-.638c-.898-.35-1.981-.964-2.41-1.364l-.777-.726 1.433-.53c1.826-.676 1.897-.956.668-2.652-.936-1.293-1.794-1.778-4.817-2.728-1.235-.388 2.238-1.593 5.03-1.745l2.81-.154-1.668-1.5c-1.106-.994-1.844-2.017-2.19-3.034-.504-1.477-.5-1.522.117-1.192.352.188 1.63.343 2.838.343 3.98 0 5.62.496 7.204 2.18 1.594 1.695 4.074 3.056 6.922 3.798 1.066.277 1.992.559 2.059.625.066.067-.644.766-1.579 1.554-2.25 1.897-3.13 3.862-3.346 7.473-.225 3.73.626 5.555 4.124 8.854 3.796 3.579 7.283 5.307 14.687 7.279 3.199.851 6.37 2.413 9.759 4.805 2.218 1.565 2.633 2.037 3.56 4.047 1.447 3.138 2.16 4.08 3.96 5.22 1.935 1.228 4.498 1.345 6.547.3 1.986-1.014 5.294-1.697 8.242-1.703 4.629-.009 6.371-.826 5.976-2.804l-.2-1 1.02.726c.56.399 1.39 1.37 1.844 2.156.779 1.347 1.68 3.996 1.442 4.234-.06.06-.837-.213-1.728-.607-1.874-.83-2.056-.764-1.553.56.203.534.27 1.56.148 2.28l-.22 1.307-1.421-1.284-1.42-1.284-.242 2.181c-.133 1.2-.382 2.32-.552 2.492-.374.373-2.562-2.07-3.522-3.935-1.278-2.478-3.118-2.469-6.992.035-2.512 1.623-4.735 4.104-5.361 5.984-.426 1.279-.511 1.356-.82.744zm-9.169-3.902c-2.087-.526-4.55-2.08-5.95-3.75-1.06-1.267-1.915-1.89-3.306-2.41-2.287-.856-3.088-.873-6.004-.126-2.189.561-2.327.559-3.728-.073l-1.455-.657 1.383-.35c.817-.207 2.025-.945 2.952-1.803 2.276-2.107 4.16-1.975 8.402.588 2.376 1.435 3.859 1.713 4.774.895.297-.266 1.286-.593 2.199-.728 1.6-.237 1.646-.22 1.281.46-.404.755-.523 4.25-.157 4.615.121.121.742-.238 1.379-.797 1.305-1.146 2.022-1.33 1.642-.42-.137.33-.346 1.521-.464 2.649-.235 2.254-.61 2.497-2.948 1.907zm9.227-6.817c-1.811-.847-2.657-1.82-4.059-4.674-2.18-4.438-7.302-7.99-14.307-9.921-7.305-2.015-10.792-3.778-14.382-7.273-3.863-3.76-4.68-6.371-3.318-10.606.639-1.987 1.078-2.669 2.787-4.321l2.029-1.963 3.42.39c5.182.589 5.45.493 2.914-1.04-.906-.547-2.063-1.729-2.903-2.966-.768-1.131-1.551-2.152-1.74-2.269-.432-.267-.447-3.061-.025-4.533.175-.611.79-1.683 1.367-2.383.877-1.063 1.048-1.567 1.048-3.074 0-1.862-.766-3.168-1.859-3.168-.923 0-.94-.722-.05-2.068 1.17-1.766 3.02-2.938 5.275-3.337 2.128-.377 2.854-.24 4.52.855 1.173.77 1.282.781 2.692.284 1.729-.61 5.212-.683 6.276-.132.41.213 1.436.943 2.28 1.623l1.532 1.237-1.509.17-1.509.171 1.443.997c2.095 1.446 1.793 2.034-1.405 2.74-1.298.286-1.178.666.44 1.395 2.65 1.195-.17 1.658-3.089.507-.985-.388-2.54-.683-3.6-.683h-1.868l1.367 1.367c1.695 1.695 1.77 2.392.257 2.393-.972.001-3.332 1.075-3.332 1.516 0 .088.526.41 1.17.715 2.215 1.051 1.847 1.527-1.181 1.527-1.498 0-2.723.083-2.723.183 0 .493 1.16 1.868 1.577 1.868.26 0 .473.154.473.342 0 .577-1.396.38-2.608-.37-1.33-.822-1.435-.502-.464 1.401.832 1.632 2.177 2.386 4.251 2.386 1.763 0 1.811.089.875 1.623-.778 1.277-.71 1.307 1.25.559 1.446-.553 1.447-.552 3.242.552 3.483 2.143 6.252 2.596 8.59 1.404l1.268-.647v.742c0 .907.817 2.125 1.767 2.634.575.307.9.236 1.731-.379l1.024-.757.828.894c.993 1.07 1.843 1.136 2.684.207.536-.592.695-.621 1.163-.21.299.26.92.59 1.38.73l.836.256-.751.608c-.413.335-.751.7-.751.81 0 .36 5.492.213 6.2-.166.619-.331.65-.3.319.32-.202.377-.368 1.01-.368 1.404 0 .526-.434.914-1.623 1.451-1.409.636-2.211.728-6.066.699-5.653-.043-10.185-.782-15.284-2.493-6.176-2.072-8.253-1.78-9.985 1.4-.918 1.688-1.128 3.65-.515 4.798.43.801 5.655 4.998 10.384 8.338 3.88 2.741 4.73 3.776 6.513 7.926 1.663 3.87 2.673 5.44 4.03 6.268 1.436.876 3.37.877 4.16.004 1.147-1.267 4.814-2.233 8.162-2.151 2.964.073 3.042.054 4.079-.982 1.006-1.006 1.078-1.026 1.52-.421.69.942.915 2.17.48 2.607-.212.21-2.192.49-4.401.622-4.27.253-6.689.726-8.63 1.687-1.974.977-3.747 1.103-5.298.378zm.981-2.246c-.588-.256-1.155-.605-1.26-.774-.538-.87 1.676-6.508 2.308-5.876.435.435.92 4.29.714 5.668-.246 1.635-.252 1.638-1.762.982zm2.199-3.216c-.086-1.729-.365-3.365-.672-3.942l-.524-.985-.959 1.258c-.527.691-1.216 2.194-1.53 3.34l-.57 2.083-1.17-2.515a197.04 197.04 0 0 0-2.247-4.64c-.59-1.17-.975-2.225-.854-2.343.121-.119.462-.93.759-1.805l.538-1.588 1.863 1.877c2.55 2.571 6.21 3.628 9.038 2.61 1.62-.585 1.722-.534 4.511 2.227 1.655 1.637 1.795 1.9 1.795 3.37v1.595l-1.823.017c-2.193.02-4.292.545-6.425 1.608l-1.583.789-.147-2.956zm10.661-1.583c0-1.42.207-2.662.556-3.336l.555-1.073.626 1.176c1.147 2.153.602 5.16-.976 5.386-.72.104-.76-.01-.76-2.153zm-58.78-.505c-.846-.156-2.701-.748-4.122-1.316-4.29-1.713-6.702-1.92-10.66-.913-1.272.323-1.204-.23.2-1.636 1.613-1.613 3.585-2.236 8.05-2.544l3.893-.27-2.867-1.463c-3.16-1.613-5.92-2.117-11.63-2.122-3.131-.003-9.308-1.076-11.113-1.932-.594-.281-1.345-.804-1.669-1.162-.574-.635-.535-.646 1.594-.447 2.4.224 5.84-.338 6.431-1.05.298-.36-.09-.568-1.9-1.023-3.618-.909-6.945-2.333-8.11-3.472-.629-.615-1.634-2.38-2.419-4.248-1.63-3.884-4.169-7.74-5.824-8.848-.674-.45-2.567-1.324-4.206-1.941-3.537-1.332-3.259-1.691 1.291-1.665 3.508.02 6.075.962 10.321 3.788 2.607 1.735 3.366 1.99 5.741 1.93 1.235-.032 5.81-.897 5.81-1.099 0-.123-1.346-.657-2.99-1.187-10.652-3.435-15.062-7.405-23.437-21.095-4.218-6.896-8.066-11.4-10.817-12.662-2.178-1-1.68-1.291 2.215-1.3 3.959-.009 8.862 1.384 8.533 2.423-.353 1.112.869 2.967 3.227 4.896 4.599 3.763 7.63 5.132 13.62 6.153 6.765 1.154 10.34.972 14.198-.723 1.076-.473 1.495-.502 2.416-.17.613.222 2.516.404 4.229.404 2.868 0 3.131.057 3.342.721.386 1.215-.535 1.757-2.972 1.75-1.191-.002-2.781-.11-3.533-.238-1.754-.298-2.905.633-2.905 2.352 0 1.375.195 1.54 3.247 2.747 3.615 1.43 7.2 1.574 9.986.399 3.993-1.683 4.64-1.499 14.218 4.06l2.945 1.708-.209 1.367c-.114.752-.231 1.399-.26 1.437-.027.039-.66-.136-1.404-.39-.745-.253-2.815-.57-4.6-.707-3.655-.278-4.097-.44-5.89-2.153l-1.275-1.219.663 2.318.663 2.319-.902-.227c-.497-.124-2.16-.222-3.697-.216-2.526.01-2.949-.088-4.41-1.014l-1.616-1.025.243 1.122c.4 1.847 1.532 4.491 2.252 5.264.675.723.675.725-.11.935a7.98 7.98 0 0 1-1.642.22c-.47.005-2.008.653-3.417 1.44l-2.563 1.43 1.537.297c3.027.586 4.085.965 5.111 1.828 1.373 1.155 1.313 1.7-.24 2.2-.705.228-1.4.48-1.545.563-.525.3 1.215 2.19 2.725 2.957l1.55.788-1.303 1.073-1.303 1.074 1.348.575c.74.315 2.541.647 4 .737 2.335.144 2.602.227 2.222.688-.95 1.152-3.258 1.839-5.315 1.582-1.816-.227-1.915-.204-1.46.344 1.363 1.642 6.855 3.271 11.028 3.271 3.095 0 4.588.58 4.922 1.91.298 1.188-.106 1.5-3.284 2.532l-2.733.888 3.502 1.514c2.955 1.276 3.854 1.514 5.76 1.52l2.258.009-.55.75c-.64.877-3.64 2.31-5.846 2.794-2.323.51-6.813.72-8.544.4zm69.16-4.068c-2.166-1.454-6.893-3.19-9.2-3.378-1.765-.144-2.61.018-5.775 1.111-3.068 1.06-4.014 1.248-5.493 1.096-2.048-.212-4.256-1.23-5.173-2.385-.346-.437-1.13-1.163-1.74-1.612-.89-.654-1.113-1.06-1.117-2.035-.009-2.043-.464-2.23-1.29-.53-.702 1.444-.828 1.535-2.133 1.535h-1.387l.225-1.2c.124-.661.117-2.07-.015-3.13l-.241-1.93-1.426 2.675c-.783 1.472-1.598 2.734-1.81 2.804-.458.153-6.972-4.964-7.769-6.102-.749-1.07-.701-1.57.352-3.683 1.031-2.07 2.475-2.93 4.336-2.58l1.103.207-.186 1.941c-.153 1.6-.437 2.27-1.621 3.82-1.573 2.06-1.504 2.273.549 1.72 1.833-.493 3.291-1.775 4.543-3.994.567-1.004 1.086-1.826 1.153-1.826.067 0 1.004.23 2.082.51 2.42.63 3.473 1.605 5.121 4.742 1.536 2.923 3.734 5.356 5.596 6.196 1.329.6 1.466.598 4.36-.032 4.545-.99 9.29-.892 11.703.242 2.633 1.237 5.33 3.477 6.17 5.125.392.768.66 1.449.595 1.513-.064.065-.745-.304-1.512-.82zm-30.84-2.334-.8-.648 1.228-2.206 1.228-2.207-.011 1.88c-.006 1.034-.2 2.318-.428 2.854-.416.973-.418.974-1.217.327zm-2.096-1.814c-.997-.753-.92-.865.77-1.126 1.133-.175 1.244-.131.952.378-.79 1.376-.852 1.403-1.722.748zm-2.283-1.588-.736-.633 1.164-2.05 1.164-2.051-.011 1.708c-.006.94-.199 2.148-.428 2.684-.41.961-.426.966-1.153.342zm92.678-3.113c-1.533-2.426-5.388-6.331-8.041-8.144-3.024-2.066-4.576-2.26-8.168-1.019-3.83 1.324-4.147 1.257-6.983-1.47-1.342-1.291-2.825-2.553-3.295-2.803-.57-.303-2.852-.521-6.835-.653-6.342-.208-6.67-.288-9.74-2.38l-1.025-.698 2.879-.002 2.879-.002-.803-.854-.803-.855 2.195.903c1.77.728 3.027.954 6.468 1.161 2.35.142 4.695.424 5.211.626.517.203 1.913 1.275 3.104 2.383 3.062 2.848 3.902 3.06 8.29 2.098l3.525-.774 1.81.887c4.015 1.964 11.175 10.775 10.468 12.88-.062.186-.573-.392-1.136-1.284zm-97.712-3.569c.145-.245.647-.956 1.116-1.58.585-.779.9-1.718 1.006-2.99.085-1.02.233-1.855.329-1.855.725 0 2.816.865 2.813 1.164-.004.525-1.883 3.742-2.468 4.228-.857.711-3.094 1.538-2.796 1.033zm36.505-3.619c-.582-.698-1.32-1.774-1.639-2.392l-.58-1.123-1.054.75c-.58.413-1.357 1.265-1.727 1.893-.809 1.37-1.057 1.413-1.577.271-.585-1.284-.485-2.494.31-3.782 1.019-1.647.582-1.932-1.484-.97-1.784.83-4.007 1.12-4.007.521 0-.174.51-.75 1.134-1.281.624-.531 1.494-1.503 1.933-2.161.893-1.337 3.108-3.76 3.436-3.76.118 0 .146.462.063 1.026-.386 2.63 3.436 4.928 6.697 4.028 1.467-.405 3.14-2.093 3.14-3.166 0-.637.24-.813 1.337-.989 2.069-.33 3.228-1.906 3.017-4.102-.101-1.057-.383-1.857-.747-2.123-.463-.338-.508-.57-.216-1.116.658-1.229.427-2.334-.682-3.267-.579-.487-1.371-.885-1.762-.885-.692 0-.694-.018-.084-.692 1.059-1.17 4.644-2.692 7.28-3.09 1.378-.21 2.56-.324 2.629-.256.068.068-1.007 1.12-2.388 2.337-1.381 1.218-2.38 2.262-2.221 2.32.16.06.876-.055 1.592-.254 1.41-.391 3.77-.417 5.403-.06l1.025.225-1.116.666c-1.358.811-3.048 3.199-2.396 3.387 1.963.567 3.691 1.352 3.456 1.57-.157.146-1.208.528-2.336.85l-2.05.587 1.88.963c1.033.53 2.417 1.43 3.075 2.001l1.196 1.038-2.29.014c-5.033.03-7.286 1.171-8.965 4.539-1.004 2.016-1.127 4.019-.36 5.856.4.957.419 1.238.083 1.238-1.14 0-2.857-.77-4.24-1.904-1.725-1.413-1.923-1.33-3.126 1.293l-.582 1.268-1.057-1.268zm-18.57-7.395c-.812-.865-1.423-.845-2.5.08-1.414 1.213-2.751-1.864-1.8-4.14 1.107-2.65.468-4.371-2.687-7.243-1.723-1.567-2.425-3.588-1.246-3.588.39 0 1.07.594 1.664 1.452 2.162 3.124 3.398 3.736 7.571 3.753 2.147.008 3.44-.183 4.956-.731 4.857-1.758 8.651-2.135 10.745-1.067l1.32.674.936-1.227c1.804-2.365 4.896-3.047 6.603-1.457.942.878.92 1.178-.168 2.265-.851.852-.865.92-.276 1.352.341.25.72.454.842.454.284 0 1.015 1.593 1.015 2.211 0 .259-.398.944-.885 1.522-.759.902-1.115 1.051-2.507 1.051H375l.03 1.431c.025 1.259-.11 1.526-1.133 2.221-1.845 1.257-3.9 1.015-5.759-.678-.89-.81-.965-1.872-.29-4.115.264-.876.38-1.591.257-1.59-.356.006-5.223 4.826-6.655 6.59-1.079 1.33-1.501 1.61-2.436 1.61-.621 0-1.321-.231-1.555-.513-.234-.282-.773-.513-1.197-.513-.423 0-.962.23-1.196.513-.6.722-1.128.64-2.027-.317zm-10.275-1.463c-1.357-.209-2.778-.805-4.554-1.911l-1.65-1.027.966-.79c1.088-.89 1.82-1.036 1.82-.362 0 1.014 1.717 2.11 3.302 2.11 3.037 0 4.594-3.3 2.648-5.612-.486-.578-1.102-1.052-1.367-1.052-.608 0-.596-.333.043-1.178.487-.644.549-.622 1.898.684 2.134 2.065 2.816 3.175 2.766 4.497-.107 2.862-2.932 5.094-5.872 4.64zm-22.556-3.227c-5.817-1.005-9.236-2.754-10.597-5.423-.95-1.862-.876-2.009.772-1.518.799.238 2.959.578 4.8.754 2.85.274 3.559.47 4.762 1.315 1.276.897 5.064 5.647 4.449 5.579-.14-.016-2.024-.334-4.186-.707zm14.29-.888c-.101-.887-.207-.941-1.857-.957-1.055-.01-2.107-.251-2.649-.606-1.078-.707-1.165-1.046-.19-.736.983.312 2.71-.464 2.71-1.217 0-.365-.382-.743-.94-.931-.824-.279-.653-.35 1.388-.571 2.758-.3 3.15-.806 1.756-2.261-1.141-1.192-.948-1.492.972-1.509 1.225-.01 1.453-.126 1.546-.78.06-.423-.234-1.25-.653-1.839l-.761-1.07 1.165.173c1.865.276 4.872 1.553 5.527 2.346 1.588 1.928 1.167 3.625-1.566 6.303-1.928 1.888-5.521 4.594-6.1 4.594-.132 0-.288-.423-.347-.94zm6.712.1c-1.078-1.077-1.056-1.558.12-2.685 1.143-1.095 1.879-1.157 2.8-.235.954.954.866 2.2-.216 3.051-1.167.918-1.68.893-2.704-.13zm8.431-5.554c-1.415-.697-3.602-3.557-3.008-3.935.794-.505 1.598-.282 1.598.444 0 1.11 1.812 2.708 3.072 2.708 2.237 0 3.78-1.9 3.108-3.827-.352-1.01-.343-1.023.375-.547 1.829 1.215 2.553 4.282 1.23 5.209-1.041.729-4.853.698-6.375-.052zm.148-2.91c-.293-.418-.532-.952-.532-1.187 0-.524 1.755-1.47 2.724-1.47.997 0 1.611 1.434 1.097 2.562-.527 1.157-2.506 1.214-3.29.095zm-33.17-3.049c-7.383-4.407-9.274-4.998-12.302-3.841-3.728 1.424-4.364 1.533-6.772 1.161-2.79-.43-6.727-2.121-6.727-2.888 0-.736 1.32-1.992 1.87-1.781 2.191.84 3.226.96 5.05.581 1.052-.218 2.06-.58 2.239-.805.725-.908.762-1.858.106-2.668-.611-.754-.907-.817-3.853-.827-2.199-.007-3.43-.165-3.957-.508-.693-.45-1.035-.4-3.588.523-2.578.932-3.179 1.018-6.924.984-7.093-.063-12.38-1.496-16.937-4.591-4.676-3.175-6.562-5.859-4.786-6.809 1.493-.8 2.656-.383 7.54 2.7 1.41.89 3.766 2.114 5.234 2.719 5.46 2.25 13.563 1.925 13.563-.543 0-.266-1.462-1.155-3.332-2.026-8.272-3.85-8.245-3.835-9.306-5.3-1.243-1.715-1.254-1.843-.22-2.521.747-.49.96-.474 2.649.19 1.01.397 2.307 1.08 2.882 1.517 1.571 1.195 7.067 4.48 9.788 5.85 1.542.777 3.767 1.493 6.208 2 5.04 1.048 8.6 2.467 13.312 5.305 4.522 2.723 9.075 5.032 12.121 6.148 1.214.445 2.308 1.086 2.515 1.472.562 1.05.1 2.893-1.057 4.21-.574.653-1.043 1.337-1.043 1.518 0 .623-.862.266-4.272-1.77zm26.555.644c-.35-.422-.305-.543.264-.691 1.104-.289 1.26-1.266.319-1.99-.819-.63-.819-.632-.073-.64 1.49-.015 2.375-2.41 1.215-3.291-.554-.42-.542-.455.166-.465.42-.006 1.427-.188 2.236-.404 1.326-.355 1.637-.31 3.166.451 3.655 1.822 3.28 4.657-.863 6.53-2.02.912-5.842 1.21-6.43.5zm-26.93-8.925c-2.05-1.01-5.358-2.831-7.354-4.047-4.584-2.792-8.674-4.43-13.459-5.391-4.313-.866-7.824-2.5-13.96-6.494-5.377-3.5-7.03-4.05-8.69-2.887-1.07.75-.964 2.158.293 3.894.854 1.178 1.676 1.74 4.357 2.975 7.12 3.28 7.919 3.675 7.919 3.93 0 .73-2.995 1.058-6.493.713-4.247-.42-6.53-1.3-11.732-4.528-3.281-2.035-3.62-2.356-6.04-5.726-1.41-1.963-2.85-4.119-3.2-4.79-.874-1.676-1.916-6.94-1.921-9.708-.005-2.658-.379-3.832-1.65-5.19l-.918-.98.855.25c1.863.547 3.15 1.702 4.875 4.376 4.031 6.25 4.533 6.897 6.112 7.865.874.536 2.258 1.055 3.075 1.154l1.487.18-1.767-1.732c-.971-.953-1.85-2.007-1.952-2.344-.291-.962-.89-5.001-.76-5.13.063-.065.79.446 1.614 1.135 3.83 3.202 7.225 5.078 11.725 6.48l3.05.951 5.226-.63c5.797-.7 7.38-.506 11.004 1.347 3.432 1.754 7.122 6.04 10.34 12.012 2.025 3.755 2.18 3.762 3.804.188 1.593-3.504 1.613-4.948.105-7.765-1.15-2.147-1.246-2.533-1.057-4.205.292-2.585.44-2.662 1.795-.922.902 1.158 1.897 1.877 3.985 2.882 1.531.736 3.245 1.828 3.809 2.426 1.132 1.2 1.048.18.814 9.929-.04 1.65.18 3.479.619 5.137l.68 2.574-1.142 1.488c-.628.818-1.142 1.697-1.142 1.954 0 .704-.282.614-4.307-1.37zm7.053-3.946c-.593-2.237-1.063-4.559-.947-4.675.063-.062 1.12.996 2.349 2.353l2.235 2.468-1.657.539-1.657.538-.323-1.223zm-14.708-9.679c-2.017-3.667-4.072-6.4-6.935-9.224-2.16-2.13-2.327-2.398-2.228-3.589.093-1.129.225-1.3 1.076-1.397 1.512-.174 4.515 1.56 7.393 4.265 3.282 3.087 4.596 5.364 4.375 7.585-.156 1.561-1.51 5.187-1.93 5.167-.117-.005-.905-1.268-1.751-2.807z" />
</svg>