<svg xmlns="http://www.w3.org/2000/svg" width="500" height="500" version="1.0">
  <style>
    @media (prefers-color-scheme: light) {
      path {
        fill: #000000;
      }
    }

    @media (prefers-color-scheme: dark) {
      path {
        fill: #FFFFFF;
      }
    }
  </style>
  <path
    d="M72.43 426.803 0 353.607V146.136l73.063-73.068L146.125 0H352.592l73.704 72.938L500 145.875v208l-73.068 73.062L353.864 500H144.861l-72.43-73.197zm341.394-13.746 66.828-67.594V311.61h-7.129V342.662l-65.424 65.43-65.425 65.431H157.339l-56.709-56.702-56.709-56.702-4.294 1.937-4.294 1.936 58.963 58.29 58.963 58.288 96.869.041 96.868.04 66.828-67.594zm-10.823-10.05 63.394-63.388V309.572h-4.21c-4.162 0-12.553-1.164-23.125-3.21-2.992-.578-12.615-1.636-21.385-2.351-15.812-1.29-22.37-2.884-27.281-6.634-2.226-1.7-18.327-21.339-20.32-24.786-1.029-1.778-1.196-1.707-2.32.985-2.676 6.412-18.42 20.644-27.632 24.978-11.344 5.337-15.474 6.93-21.894 8.45-3.92.928-9.19 2.192-11.71 2.808-2.521.615-15.352 1.316-28.514 1.555l-23.93.436-12.22-3.555c-6.722-1.956-16.276-5.436-21.232-7.735-4.957-2.298-9.31-4.165-9.675-4.149-.364.017-3.384 2.569-6.71 5.671-3.328 3.103-7.91 6.718-10.184 8.033-4.632 2.679-17.28 7.034-23.483 8.085-4.143.703-6.461 1.677-24.382 10.24-9.244 4.416-11.239 4.964-22.912 6.29-28.627 3.253-38.187 5.552-53.52 12.874-1.68.802-6.827 3.238-11.438 5.413l-8.382 3.955 54.713 54.735 54.713 54.735h180.245l63.394-63.388zm-375.092-53.08 3.559-2.416-2.496-2.344c-1.372-1.29-2.495-3.124-2.495-4.077 0-1.517-3.592-3.004-7.256-3.004-2.033 0-.82 7.358 1.776 10.76 1.466 1.923 2.82 3.496 3.01 3.496.188 0 1.944-1.087 3.902-2.415zm19.779-7.386c3.736-1.47 7.228-3.075 7.76-3.565.532-.49 1.497-.89 2.145-.89.648 0 5.253-2.367 10.234-5.259 4.981-2.892 11.577-6.612 14.658-8.267 9.987-5.365 10.705-6.926 1.735-3.773-3.167 1.113-6.571 2.021-7.565 2.019-.994-.003-3.87.641-6.39 1.432-2.52.79-7.103 2.146-10.184 3.013-3.08.866-8.579 2.54-12.22 3.72-3.64 1.18-7.989 2.48-9.663 2.887-1.728.422-3.583 1.821-4.288 3.235-1.099 2.204-.93 2.819 1.453 5.307 3.315 3.46 3.875 3.466 12.325.14zm-21.46-104.038.26-81.442 66.06-65.292 66.058-65.292h182.788l66.08 65.314 66.082 65.314-.27 58.413-.272 58.413h2.208c1.215 0 2.933.278 3.819.618 1.458.56 1.61-5.116 1.61-59.699v-60.317l-67.334-68.102-67.335-68.101h-191.7L86.307 86.3 18.33 154.272v168.3l3.819-1.313 3.818-1.313.261-81.442zm29.587 75.022c4.867-2.35 11.022-5.346 13.679-6.659 2.656-1.312 5.962-2.385 7.347-2.385 1.385 0 4.481-.622 6.881-1.381 2.4-.76 6.197-1.87 8.437-2.47 19.783-5.288 29.263-9.09 39.475-15.835l2.825-1.866-3.839-2.566c-2.11-1.412-5.142-3.78-6.736-5.263-3.938-3.666-9.688-15.314-9.941-20.141-.257-4.879 1.023-12.69 2.348-14.332.544-.674 1.817-2.851 2.83-4.837l1.84-3.61h-7.855c-12.61 0-15.031-1.298-30.477-16.328-13.476-13.114-13.597-13.271-12.914-16.91.379-2.02 1.067-4.419 1.528-5.33a125.5 125.5 0 0 0 1.983-4.203c.63-1.4 2.48-4.608 4.114-7.128a352.92 352.92 0 0 0 5.992-9.674c1.663-2.8 4.902-6.903 7.198-9.117 2.296-2.214 4.175-4.381 4.175-4.816 0-1.095 8.063-8.425 12.815-11.65 3.724-2.527 4.311-2.62 11.593-1.82 4.218.462 9.531.85 11.807.862 5.706.03 15.353-4.92 27.585-14.156a8071.29 8071.29 0 0 1 24.285-18.23 12510.47 12510.47 0 0 0 18.441-13.808c4.378-3.294 10.896-7.133 16.33-9.619 1.76-.805 6.114-2.842 9.674-4.525 12.386-5.858 17.903-7.718 34.985-11.792 15.37-3.666 36.63-4.862 45.727-2.571 6.378 1.606 9.772 5.145 9.772 10.191 0 4.84-2.37 7.424-11.56 12.603l-6.035 3.4 16.755-.553c18.899-.624 30.533 1.068 34.048 4.951 2.266 2.504 2.429 8.344.35 12.53-1.777 3.576-23.728 21.434-28.532 23.211-1.202.445-3.397 1.647-4.878 2.672-5.69 3.938-40.43 16.62-53.101 19.386-14.677 3.203-31.974 5.87-49.898 7.694-7.561.769-18.101 1.898-23.422 2.51-5.32.611-14.6 1.64-20.621 2.284-6.021.645-10.947 1.576-10.947 2.069 0 1.68 11.7 13.721 15.784 16.245 6.595 4.074 14.664 5.478 31.059 5.402 13.493-.062 15.73-.349 25.96-3.33 6.158-1.793 14.114-4.626 17.681-6.296 3.567-1.669 7.324-3.035 8.348-3.035 1.024 0 2.109-.399 2.41-.886.459-.742 27.058-12.24 39.287-16.983 4.945-1.918 21.94-6.291 27.601-7.103 5.444-.78 21.687.987 27.18 2.957 2.075.745 6.523 2.186 9.883 3.203 3.36 1.017 10.495 4.062 15.855 6.767 5.36 2.704 10.23 4.917 10.822 4.917.593 0 1.676.72 2.407 1.602.732.881 2.964 2.454 4.962 3.494 6.07 3.163 16.999 13.893 22.951 22.535 3.097 4.495 5.63 8.594 5.63 9.109 0 .515 1.57 4.03 3.488 7.81 1.918 3.782 5.576 12.024 8.129 18.317 4.353 10.73 9.234 19.083 13.847 23.696 1.095 1.095 4.52 3.42 7.612 5.164l5.621 3.172V160.393l-63.388-63.394-63.388-63.394H159.362l-62.87 62.882-62.869 62.882-.263 80.536-.264 80.535 6.935-1.321c3.814-.727 10.917-3.244 15.784-5.594zm41.428 3.187c.357-.577-.052-.748-.958-.4-1.764.677-2.087 1.407-.622 1.407.527 0 1.238-.453 1.58-1.007zm33.697-143.044 3.989-3.522-3.736-.043c-2.054-.023-4.46-.32-5.346-.66-1.241-.476-1.61.061-1.61 2.342 0 1.628-.55 3.51-1.223 4.182-.95.95-.648 1.222 1.358 1.222 1.495 0 4.257-1.48 6.568-3.521zm-15.656-.896c-.265-2.268.182-3.979 1.344-5.14.957-.958 1.463-2.019 1.124-2.358-.34-.34-2.256 1.12-4.26 3.244l-3.641 3.862 2.865 1.889c1.575 1.039 2.887 1.892 2.915 1.895.027.004-.129-1.523-.347-3.392zm5.388-.674c-.346-.56-.831-1.019-1.078-1.019-.247 0-.45.459-.45 1.019 0 .56.486 1.018 1.079 1.018s.795-.458.45-1.018zm59.063-12.61c10.082-.933 21.309-2.13 24.95-2.66 3.64-.53 14.18-1.675 23.42-2.544 23.76-2.235 30.95-3.367 40.225-6.337 17.019-5.448 42.537-17.125 51.135-23.4 6.533-4.768 14.586-10.386 16.438-11.469.844-.493 1.127-1.61.727-2.87-.594-1.874-1.846-2.134-13.602-2.824-14.426-.847-40.15.893-48.588 3.287-2.8.794-7.612 2.033-10.693 2.753-6.446 1.507-10.888 2.89-20.875 6.5-9.197 3.324-84.013 40.966-84.013 42.27 0 .634.457.63 1.273-.011.7-.55 9.522-1.762 19.603-2.695z" />
</svg>