<svg xmlns="http://www.w3.org/2000/svg" width="500" height="500">
  <style>
    @media (prefers-color-scheme: light) {
      path {
        fill: #000000;
      }
    }

    @media (prefers-color-scheme: dark) {
      path {
        fill: #FFFFFF;
      }
    }
  </style>
  <path
    d="M72.43 426.803 0 353.607V146.136l73.063-73.068L146.125 0H352.592l73.704 72.938L500 145.875v208l-73.068 73.062L353.864 500H144.861l-72.43-73.197zm341.394-13.746 66.828-67.594v-190.93l-67.335-68.102-67.335-68.101h-191.7L86.307 86.3 18.33 154.272v191.446l67.461 67.468 67.462 67.467h193.743l66.828-67.595zm-321.923-4.964-65.424-65.43v-185.59L92.54 91.775l66.065-65.298h182.788l66.065 65.298 66.064 65.298v185.589l-65.424 65.43-65.425 65.431H157.326l-65.425-65.43zm311.1-5.086 63.394-63.388V160.393l-63.388-63.394-63.388-63.394H159.362l-62.87 62.882-62.87 62.882-.03 90.606-.03 90.607 62.9 62.906 62.9 62.907h180.245l63.394-63.388zm-167.258 47.508c-14.417-.715-35.741-2.597-39.205-3.46-1.96-.487-6.314-1.433-9.674-2.101-3.361-.668-7.014-1.845-8.12-2.616-1.104-.77-2.708-1.405-3.563-1.41-2.804-.016-22.89-12.574-31.15-19.475-14.2-11.863-24.443-24.537-32.082-39.692-4.621-9.168-6.081-13.569-9.252-27.891-1.687-7.623-1.95-11.735-1.568-24.44.426-14.179.713-16.006 3.997-25.459 4.608-13.262 8.937-21.71 15.806-30.844 6.334-8.424 23.05-24.452 29.51-28.295l4.313-2.566-.748 3.358c-1.277 5.73-.865 20.629.659 23.826 3.147 6.607 5.619 11.228 7.225 13.508 1.675 2.377 1.6 2.503-5.69 9.674-17.117 16.838-22.231 31.463-18.22 52.102 2.656 13.663 8.951 26.132 18.005 35.664 20.157 21.22 50.248 32.519 89.94 33.772 15.045.475 18.78.259 28.514-1.648 13.754-2.694 23.815-5.594 30.651-8.837 2.857-1.355 5.542-2.463 5.968-2.463 1.743 0 10.637-6.498 12.685-9.268 2.699-3.65 3.86-13.879 2.25-19.815-.616-2.273-2.503-6.22-4.192-8.77-2.526-3.814-4.47-5.274-10.96-8.236-6.775-3.091-12.886-4.957-36.011-10.994-2.025-.53-4.92-.962-6.432-.962-1.512 0-3.551-.43-4.531-.954-.98-.525-7.899-2.367-15.373-4.094-13.803-3.19-33.237-9.43-35.067-11.259-.552-.552-1.774-1.004-2.714-1.004-1.632 0-9.65-4.373-17.19-9.374-3.873-2.568-19.358-17.895-23.583-23.34-3.245-4.184-8.395-14.268-10.983-21.51-5.839-16.333-5.054-30.347 2.468-44.045 6.912-12.588 14.822-19.838 27.22-24.948 3.22-1.327 5.855-2.787 5.855-3.244 0-.457 1.803-.83 4.006-.83 3.612 0 4.854.803 12.657 8.19 4.759 4.504 9.842 10.219 11.296 12.7l2.644 4.511-3.995 4.116c-5.27 5.43-8.282 12.02-8.262 18.078.022 6.75 2.416 16.234 4.968 19.687 1.18 1.595 2.144 3.292 2.144 3.77 0 3.082 26.69 23.526 34.955 26.777 1.778.699 5.524 2.293 8.324 3.543 9.988 4.456 27.82 9.763 42.261 12.577 18.152 3.537 36.96 8.827 40.89 11.502 1.487 1.012 3.32 1.858 4.074 1.881.753.023 2.957 1.397 4.896 3.055 1.939 1.657 4.143 3.014 4.898 3.014 2.876 0 12.68 10.675 15.735 17.133 2.909 6.15 3.028 6.935 2.636 17.312-.396 10.49-.596 11.293-5.733 22.964-6.633 15.072-8.984 18.533-19.313 28.429-2.958 2.834-7.54 6.658-10.183 8.497-8.58 5.97-32.285 16.958-42.483 19.692-12.188 3.269-44.77 5.524-65.173 4.512zm150.617-88.323c-2.196-1.889-2.776-3.305-2.857-6.973-.147-6.63 2.247-10.88 11.945-21.217 11.036-11.762 12.893-16.486 10.907-27.743-.716-4.059-1.738-8.212-2.272-9.23-1.01-1.929-.168-3.73 4.987-10.655l2.486-3.34 2.654 3.85c7.706 11.176 9.586 24.524 4.878 34.636-2.782 5.975-7.125 10.698-16.848 18.324-3.64 2.855-8.154 6.79-10.031 8.745-2.908 3.028-3.31 4.023-2.714 6.733.384 1.748 1.845 4.543 3.248 6.21l2.55 3.03h-3.089c-1.765 0-4.269-1.015-5.844-2.37zm-54.384-53.244c-19-4.946-28.564-8.618-37.275-14.31-2.858-1.867-5.657-3.396-6.218-3.396-3.574 0-29.718-25.84-38.119-37.678-1.789-2.52-4.894-6.514-6.9-8.874-6.78-7.978-8.969-10.96-14.422-19.64-8.501-13.532-14.683-21.273-20.513-25.688-8.424-6.38-11.385-7.345-18.073-5.89-3.096.673-6.775 1.68-8.175 2.24-4.622 1.846-20.437 2.033-32.587.385-6.44-.873-15.304-2.08-19.697-2.683-7.773-1.066-8.089-1.025-11.766 1.524-6.032 4.18-9.732 3.187-15.266-4.099-3.699-4.869-3.613-7.142.145-3.842 1.258 1.105 3.993 2.885 6.078 3.955l3.792 1.946 3.028-2.901c2.708-2.595 3.545-2.843 7.92-2.346 5.561.631 6.956-.274 21.981-14.265 4.36-4.06 9.286-8.084 10.947-8.943 1.662-.86 3.022-1.93 3.022-2.38 0-1.012 7.886-4.539 14.957-6.689 14.654-4.456 33.459.382 49.98 12.857 7.952 6.005 35.397 33.52 41.043 41.146 2.117 2.86 5.291 6.756 7.053 8.655 1.762 1.9 6.148 6.92 9.747 11.156 12.385 14.576 27.857 23.25 52.563 29.47 12.808 3.224 14.252 3.398 17.82 2.14 8.965-3.16 15.466-11.847 14.143-18.899-1.15-6.128-13.565-17.187-26.747-23.825-16.051-8.083-26.907-10.355-53.494-11.195l-21.103-.667-12.689-15.257c-8.447-10.157-12.286-15.51-11.484-16.012 1.428-.895 32.738-8.236 42.956-10.072 3.92-.705 13.086-1.268 20.367-1.253 11.138.024 15.338.523 26.476 3.145 7.281 1.713 14.843 3.675 16.803 4.36 16.285 5.68 33.317 16.05 45.087 27.451 14.879 14.412 21.591 28.048 22.704 46.123 1.596 25.93-6.96 45.904-24.014 56.064-3.13 1.864-7.958 4.182-10.731 5.153-12.521 4.38-38.118 5.955-49.34 3.034zM176.57 176.597c.34-.886.564-2.604.498-3.819-.087-1.602-.3-1.37-.774.847-.574 2.686-1.082 3.055-4.207 3.055-3.14 0-3.593-.334-3.883-2.862-.18-1.574.22-3.521.889-4.328.737-.888.805-1.466.173-1.466-1.637 0-3.096 5.35-2.154 7.898.68 1.837 1.63 2.286 4.843 2.286 2.706 0 4.197-.52 4.615-1.611zM355.3 252.046c-6.665-3.623-61.187-20.885-65.965-20.885-1.151 0-5.362-3.743-10.313-9.165-7.25-7.942-8.046-9.165-5.965-9.165 4.94 0 26.361 3.949 32.094 5.915 3.272 1.122 7.752 2.35 9.956 2.727 7.59 1.3 38.146 16.42 46.328 22.926l3.202 2.546-2.329 3.292c-2.608 3.688-3.248 3.853-7.008 1.809zm-138.65-2.106c-2.511-2.593 1.91-14.741 7.136-19.609l2.53-2.357 1.775 2.866c.976 1.577 3.895 5.577 6.487 8.89l4.712 6.022-4.185 1.873c-4.505 2.017-17.202 3.61-18.455 2.315z" />
</svg>