<svg xmlns="http://www.w3.org/2000/svg" version="1.0" width="500" height="500">
  <style>
    @media (prefers-color-scheme: light) {
      path {
        fill: #000000;
      }
    }

    @media (prefers-color-scheme: dark) {
      path {
        fill: #FFFFFF;
      }
    }
  </style>
  <path
    d="M72.43 426.803 0 353.607V146.136l73.063-73.068L146.125 0H352.592l73.704 72.938L500 145.875v208l-73.068 73.062L353.864 500H144.861zm341.394-13.746 66.828-67.594v-190.93l-67.335-68.102-67.335-68.101h-191.7L86.307 86.3 18.33 154.272v191.446l67.461 67.468 67.462 67.467h193.743zm-321.923-4.964-65.424-65.43v-185.59L92.54 91.775l66.065-65.298h182.788l66.065 65.298 66.064 65.298v185.589l-65.424 65.43-65.425 65.431H157.326zm311.1-5.086 63.394-63.388V160.393l-63.388-63.394-63.388-63.394H159.362l-62.87 62.882-62.87 62.882-.03 90.606-.03 90.607 62.9 62.906 62.9 62.907h180.245z" />
  <path
    d="M373.554 92.502c-1.778.095-2.868 4.148-3.389 5.601-1.206-.343.043-2.346-.35-3.384-.698-1.838-1.925-1.03-3.116-.097-1.317 1.032-3.879 2.701-4.693 4.123-.527.92-.205 1.312-.896 2.1-.669.764-1.324 1.465-1.733 2.412-1.682 3.879.869 7.97 3.68 10.522 2.841 2.579 5.492 3.683 9.367 3.968-.998 1.324-.94 2.14-.35 2.684-1.114.523-2.18 1.212-3.233 2.003-2.475 1.857-4.696 4.619-7.906 5.173-7.954 1.375-14.859.872-22.181 4.902-6.172 3.397-11.873 8.587-17.02 13.342-2.085 1.923-14.166 13.817-12.873 15.52-11.892 12.946-20.38 28.26-32.093 41.271-2.27 2.523-3.894 4.745-6.64 6.185-2.002 1.05-3.848 2.148-5.687 3.462-7.198 5.146-14.913 10.635-22.862 14.548-.438-2.185.49-4.82-1.286-6.554-.21.101-.16.313-.37.466-.304-.56-.874-1.211-1.07-1.711.11.461.104 1.107.194 1.614-1.077-2.091-2.336-3.775-4.42-4.784.408.722.66 1.396 1.187 2.12-1.634-1.814-1.913-4.436-3.972-5.932.167.494.118 1.029.292 1.536-1.685-1.275-2.758-2.764-4.48-4.006.332.361.58.746.896 1.128-1.048-.756-2.019-1.637-3.193-1.887.779.538 1.34 1.099 1.928 1.809-1.978-.659-3.44-2.79-5.141-3.929.14.388.218.866.408 1.303-.702-.955-1.404-1.835-2.356-2.334.373.627.58 1.212 1.013 1.829-.631-.699-1.735-1.64-2.902-1.868.618.642 1.029 1.365 1.324 2.315-.95-1.226-3.274-3.054-2.317-.39-.892-.898-1.838-1.228-2.181-.271-1.156-.953-2.645-1.206-1.5.408-.61-.342-1.154-.276-1.772-.486.4.544.455 1.037 1.013 1.556-1.085-.124-2.873-.826-3.7-.292.887.238 1.572.65 2.415 1.011-.791.166-1.686.141-2.61-.058.452.406.612.953 1.266 1.342-1.102-.23-2.269-.193-2.96.525.17.154.505.161.76.292-.42.168-.942.577-1.364.72.598-.04 1.088.096 1.636.116-4.116 1.643-5.945-1.98-9.075-4.318-4.11-3.07-9.032-5.046-13.223-8.032-4.93-3.514-11.848-4.085-17.663-4.882-2.231-.306-16.108-4.053-10.632 2.042-4.558-1.846-4.627-5.163-10.4-4.298-5.776.866-11.462 2.033-17.215 2.995-4.248.711-9.145 1.543-12.54 4.376-1.917 1.597-5.788 3.503-6.797 5.64-1.344 2.845.023 3.901-3.019 6.03-1.885 1.32-3.763 2.601-5.822 3.637-1.143.575-4.752 1.337-5.395 2.236-1.286 1.8.478 4.106-1.051 5.718-1.738 1.833-3.136 1.465-4.44 3.988-2.72 5.261.234 5.375 4.693 4.492 1.854-.365 4.247-1.628 6.193-1.38 1.536.195 1.414 1.25 2.804 1.71 1.579.526 3.455-.661 5.121-.563 5.4.317-2.046 19.079-2.98 22.386-3.64-.848-4.625 19.029-4.595 22.094.098 9.905-.948 19.786.39 29.66.323 2.387 1.126 3.676 1.81 5.796.934 2.884.352 6.362 1.675 9.18 1.575 3.356 2.068 6.779 3.077 10.522 1.309 4.858 3.98 9.956 5.94 14.742 3.745 9.152 11.122 20.061 19.941 24.993.557.31 2.728 1.415 3.194.855.587-.707-4.246-3.227-4.771-3.617-4.26-3.162-7.322-7.395-10.107-11.845-5.895-9.418-9.748-19.001-11.587-29.97-.86-5.124-.999-10.256-1.032-15.444-.036-5.556 1.872-12.815.39-18.087-.78-2.77.415-4.572.837-7.41.446-3.013.556-6.294.837-9.375.417-4.596 2.01-8.928 3.388-13.361.236 0 1.184.13 1.383.194.294 11.717 1.809 23.971 4.343 35.417 2.187 9.88 5.769 21.188 10.302 30.204 4.749 9.447 12.075 17.738 18.87 25.712 4.052 4.758 1.807-3.423.974-5.348-1.888-4.361-4.223-8.697-6.29-12.992-2.077-4.314-3.96-8.546-5.24-13.167-.743-2.685-1.513-5.319-2.472-7.936-.777-2.118.043-4.626-.429-6.826-1.889-8.804-1.776-17.46-2.843-26.47.403 2.523 1.657 3.858 4.148 4.356 2.887.576 4.95-1.178 6.777 1.342 1.714 2.36 3.36 4.788 5.005 7.196 2.73 3.996 6.148 6.711 10.243 9.258 3.642 2.266 7.557 2.697 11.295 4.357 3.726 1.656 6.933 4.498 10.38 5.873 1.62.647 7.607 5.287 9.114 4.493 1.447-.76-4.474-4.84-5.434-5.913-2.622-2.93-3.404-6.083-3.33-10.035.056-3.006.667-5.99 2.551-8.402 2.612 3.954 7.444 7.809 11.996 9.335 1.577.53 5.676 1.508 5.122-1.303 2.476 2.607 7.028 12.093 5.044 2.918-.664-3.069 1.331-6.096 2.337-9.064 4.895 4.527 8.852 12.648 14.644 15.773-.459-1.727-1.622-3.627-2.551-5.27 1.428 1.745 3.928 2.031 5.745 2.723 1.912.73 3.384 1.133 4.79 2.197 1.249.945 2.124 2.025 3.603 2.704-1.748 3.749 3.339 4.462 4.148 1.322 1.282.789 2.375.97 3.096 2.295 1.253 2.303.727 3.815 2.844 5.913.645.64 3.97 3.968 5.082 3.287.627-.384.29-3.316.35-4.24 3.17 1.154 5.231 2.305 8.433 2.256-.335 1.76.785 1.578 1.324 2.1-.58-.56 1.214.386 1.188.37.32.179.72.997 1.13 1.284 2.106 1.476 4.475 2.808 6.718 4.026 3.196 1.735 5.997 3.766 9.095 5.562 2.12 1.231 4.797 1.476 5.9 3.56 1.107 2.091.772 5.934.974 8.343.334 4.019 2.13 11.56.136 15.345-1.025 1.948-6.073 1.52-6.368 4.26-.328 3.05 4.217 2.375 5.667 3.89 2.2 2.296-1.1 6.66-2.901 9.043-2.703 3.574-6.063 12.422 1.966 11.806 2.394-.183 1.912-.724 3.817.7 1.44 1.077 2.608 2.992 3.895 4.28 1.623 1.62 3.475 1.493 5.102 2.352.59.311 1.628 1.254 2.181 1.712.423.35 1.76.274 1.87.778.066.31.016 1.32.175 1.478.457.448.189 2.071 1.597 1.323.55-.294.662-2.704.662-3.21 0-1.992.618-3.431-.779-5.29-1.377-1.834-3.674-1.628-5.18-3.131 8.17 2.664 17.49-.576 25.862.817 2.006.332 4.109.125 5.9.428 1.178.2 5.237 2.696 5.628 1.906 1.615-3.263-8.453-7.044-9.932-7.274-4.37-.68-9.178-.551-13.592-.486-3.69.054-6.452-1.206-10.146-1.887 2.325-1.997 4.818-3.45 7.01-5.64 1.018-1.017 2.175-3-.35-2.373-4.75 1.176-8.634 4.102-13.632 5.076.444-6.601.667-13.219.954-19.819.165-3.771.758-7.522 1.09-11.28.143-1.626.139-3.836.78-5.349.81-1.907-.156-1.927 1.538-1.361 5.015 1.675-.11 8.74 2.064 11.144 1.419 1.57 5.272-1.022 6.583-2.003-.513 2.51-.239 4.816 1.519 6.224.735.59 1.705-.12 2.434.642.122.127.422 2.64.642 3.092 1.38 2.836-.445 3.511-.564 6.418-.112 2.653 1.23 4.774 1.967 7.216.354 1.178-.962 4.07.058 4.59 1.47.755 3.886-3.603 4.129-4.532.681-2.612-.404-5.853 0-8.635.657-4.54 1.044-6.367-1.15-10.386 2.287 2.418 5.157 4.75 5.999 8.071.416 1.642.12 3.284.779 4.921.611 1.524 1.826 2.551 2.122 4.065.336 1.71-1.193 5.211 1.305 3.073 2.362-2.022 1.646-7.868 1.48-10.444-.42-6.491-3.113-12.31-7.536-16.727-6.582-6.564-13.317-12.938-20.993-18.204 2.678-3.634 3.823-8.213 6.29-12.058 2.512-3.916 5.438-7.472 8.958-10.522 2.695-2.336 5.612-3.363 7.595-6.38 2.127-3.239 4.91-4.571 8.432-6.535 8.035-4.481 14.762-11.042 21.207-17.504 3.14-3.148 5.874-5.997 7.673-9.9 1.315-2.853 2.379-5.62 3.856-8.44 4.375-8.368 7.811-17.124 11.84-25.654 3.22-6.82 5.315-14.035 5.51-21.569.235-8.923-3.108-16.79-4.498-25.576-.525-3.321.973-6.074 1.734-9.238 1.16-4.831 1.09-9.753 1.382-14.645.055.016.1.043.156.058 3.775.972 10.092 1.611 12.95-1.38 1.937-2.029 4.055-3.59 5.55-6.03 1.406-2.291 1.96-4.765 2.435-7.371.332-1.83.55-4.825-.546-6.438-.519-.764-1.279-.463-1.87-.894-.57-.42-.802-1.52-1.284-2.257-.156-.239-.313-.428-.468-.622.183-.686.071-1.684 1.032-1.79 1.875-.205 3.76-.35 5.648-.194 1.48.122 3.276 1.213 4.342 1.303.754.064.195 1.251 1.208.234.51-.513.502-1.7.409-2.373-.49-2.176-1.775-4.088-3.408-5.582-.812-.744-1.726-1.435-2.707-1.945-.578-.3-1.873-.505-2.24-1.03-.198-.291-.16-.459-.097-.643l.02-.019c.566-.63 1.978.012 2.882-.895 1.205-1.207 1.237-3.64 1.324-5.231-.145-2.413-.691-5.657-3.798-5.232.215-2.561-.075-4.924-1.304-7.216-.437-.815-.965-.49-1.597-.992-1-.789-.802-2.548-.896-3.948-.039-.57.007-1.483-.74-1.575-.458-.057-1.185.216-1.246.739a37.197 37.197 0 0 1-.72 4.162c-.168.723-.356 2.35-1.306 1.167-.6-.748.074-1.716.273-2.529.323-1.32.46-2.811.214-4.162-.417-2.314-1.165-4.777-2.98-6.418-.532-.48-1.34-1.079-2.102-.953-.946.154-.682 1.115-1.091 1.614-1.352 1.655-2.077 3.89-2.434 5.971-.358-2.642-1.004-5.392-.857-8.071.073-1.339 1.287-6.325-1.792-5.66-1.89.409-3.248 4.96-3.817 6.535-.587 1.63-1.428 2.978-2.395 4.396-.434-1.973-1-3.968-1.266-5.971-.187-1.403.121-3.466-.973-4.551-.486-.481-.934-.664-1.344-.642zm6.621 38.353c.192-.009.392.005.604.04 3.947.657 2.88 6.517-1.09 5.581-3.018-.712-2.391-5.491.486-5.62zm.798.817c-1.171.01-2.095 1.912-1.285 2.995.272.363.558.544.838.603 1.306.275 2.465-2.282 1.285-3.267-.279-.233-.567-.333-.838-.33z" />
</svg>