<svg xmlns="http://www.w3.org/2000/svg" version="1.0" width="500" height="500">
  <style>
    @media (prefers-color-scheme: light) {
      path {
        fill: #000000;
      }
    }

    @media (prefers-color-scheme: dark) {
      path {
        fill: #FFFFFF;
      }
    }
  </style>
  <path
    d="M72.43 426.803 0 353.607V146.136l73.063-73.068L146.125 0H352.592l73.704 72.938L500 145.875v208l-73.068 73.062L353.864 500H144.861zm341.394-13.746 66.828-67.594v-190.93l-67.335-68.102-67.335-68.101h-191.7L86.307 86.3 18.33 154.272v191.446l67.461 67.468 67.462 67.467h193.743zm-321.923-4.964-65.424-65.43v-185.59L92.54 91.775l66.065-65.298h182.788l66.065 65.298 66.064 65.298v185.589l-65.424 65.43-65.425 65.431H157.326zm311.1-5.086 63.394-63.388V160.393l-63.388-63.394-63.388-63.394H159.362l-62.87 62.882-62.87 62.882-.03 90.606-.03 90.607 62.9 62.906 62.9 62.907h180.245z" />
  <path
    d="M416.617 363.709c-3.563-.813-7.678-3.198-10.286-4.918-32.373-21.354-44.04-58.468-74.39-75.405-8.25-4.604-16.677-6.046-27.377-6.063-10.7-.017-23.146 1.509-33.954-8.708-3.146-2.975-4.028-3.31-7.575-2.886-4.593.55-23.09-1.37-26.513-2.751-1.488-.6-5.758-.439-12.23.463-10.326 1.44-10.808 1.674-17.21 8.376-2.46 2.578-3.367 3.029-4.003 1.995-.785-1.278-.54-3.788.708-7.24.447-1.236.181-1.44-1.171-.896-.962.387-2.308 1.29-2.991 2.006-.683.717-1.801 1.303-2.484 1.303s-1.496.702-1.806 1.56c-.973 2.69-2.684.396-2.083-2.794.499-2.649.343-2.927-1.373-2.45-2.915.809-3.35-2.003-.764-4.926l2.233-2.524-2.595.69c-2.163.577-2.496.418-2-.952.326-.904 1.808-2.31 3.293-3.125 1.484-.815 2.596-2.012 2.47-2.66-.125-.649 1.517-1.84 3.65-2.648l3.877-1.469 4.58 2.05c4.93 2.206 11.63 3.784 11.63 2.739 0-.353-2.017-2.566-4.483-4.918-2.465-2.353-5.065-5.433-5.777-6.844l-1.294-2.566-10.997-.008c-6.048-.005-12.153-.475-13.566-1.045-2.084-.841-3.576-.584-7.896 1.362a7797.61 7797.61 0 0 1-11.287 5.07c-5.486 2.459-13.885 8.352-15.315 10.746-.772 1.293-2.69.051-2.69-1.741 0-1.014-.862-1.226-3.289-.808l-3.289.566v-2.53c0-2.04-.365-2.43-1.88-2.01-2.143.596-2.311.018-.842-2.895.76-1.508.754-2.241-.022-2.75-2.19-1.436 2.584-4.166 8.958-5.124 6.082-.914 10.702-2.973 10.702-4.768 0-1.207-3.252-4.122-4.598-4.122-.64 0-3.143.861-5.565 1.913-6.343 2.754-12.392 3.53-12.392 1.59 0-1.01-.93-1.508-2.819-1.508-1.88 0-2.82-.498-2.82-1.496 0-.823-.422-1.496-.94-1.496-1.819 0-.891-1.521 2.362-3.873 2.011-1.453 5.33-2.615 8.547-2.992l5.26-.615-3.772-4.54c-5.497-6.62-10.417-9.844-18.284-11.983-3.835-1.042-9.26-3.004-12.055-4.358-2.795-1.355-7.408-2.906-10.251-3.446-2.843-.54-6.86-1.453-8.928-2.026-2.068-.574-4.915-1.282-6.326-1.573-1.412-.291-3.951-1.757-5.642-3.258-1.691-1.5-3.92-3.225-4.952-3.832-3.747-2.206-2.815-4.424 5.3-12.608 11.04-11.133 19.926-17.18 30.062-20.454 6.49-2.097 8.342-3.096 8.342-4.502 0-2.438 3.13-8.794 5.404-10.978 2.205-2.116 3.013-1.373 5.639 5.19l1.727 4.317 2.778-3.188c6.12-7.024 15.1-9.207 19.133-4.651 1.164 1.315 2.634 4.545 3.267 7.179l1.151 4.788 5.955 3.865c3.275 2.126 6.636 3.863 7.47 3.86.833-.001 3.866-.909 6.741-2.015 18.67-7.185 55.504-3.62 76.066 7.363 18.005 9.617 28.142 22.98 33.046 43.558 1.67 7.011 1.885 10.252 1.5 22.704-.286 9.268-1.053 16.986-2.12 21.324l-1.673 6.798 4.49 5.818c3.204 4.15 10.133 4.913 21.672 4.751 11.54-.162 21.152 3.235 30.023 8.994 24.006 15.586 35.73 46.654 57.416 65.69 9.261 8.128 12.688 13.438 30.564 20.297 2.062.791 3.936 1.06 3.936 1.538 0 1.214-6.949.94-13.383-.527z" />
</svg>